; NON-PLATED HOLES START AT T1
; THROUGH (PLATED) HOLES START AT T100
M48
INCH
T1C0.125984
T2C0.086614
T100C0.033454
T101C0.015748
T102C0.038000
T103C0.036000
T104C0.027559
%
T1
X005840Y001299
X026341Y003049
X006090Y020049
T2
X008590Y012799
X008590Y011799
T100
X016191Y000905
X020191Y019905
X022190Y000905
X008623Y018356
X018191Y000905
X025274Y012379
X007590Y019905
X011191Y000905
X006544Y017364
X019191Y019905
X025191Y019905
X016590Y019905
X009591Y019905
X024191Y019905
X010591Y019905
X013191Y000905
X025274Y013371
X021191Y000905
X007583Y017364
X015591Y019905
X018191Y019905
X014591Y019905
X023191Y000905
X008623Y017364
X026274Y011387
X012591Y019905
X007583Y018356
X015191Y000905
X022190Y019905
X012191Y000905
X023191Y019905
X026274Y012379
X008590Y019905
X014191Y000905
X020191Y000905
X021191Y019905
X025191Y000905
X006544Y018356
X026274Y013371
X013591Y019905
X017190Y000905
X024191Y000905
X025274Y011387
X011591Y019905
T101
X021841Y017049
T102
X001590Y018299
X003090Y003799
X023341Y015299
X001590Y019299
X001090Y000799
X002090Y003799
X023341Y018299
X001590Y013299
X003090Y001799
X023341Y017299
X002090Y001799
X001590Y014299
X001090Y003799
X003090Y002799
X002090Y002799
X001590Y015299
X001590Y016299
X001090Y001799
X003090Y000799
X023341Y014299
X002090Y000799
X001090Y002799
X023341Y013299
X023341Y016299
T103
X011515Y003892
X017515Y003892
X021515Y009892
X010515Y003892
X014515Y009892
X016515Y003892
X020515Y009892
X021515Y003892
X015515Y009892
X014515Y003892
X020515Y003892
X024515Y009892
X013515Y009892
X015515Y003892
X019515Y009892
X012515Y009892
X024515Y003892
X018515Y009892
X013515Y003892
X019515Y003892
X023515Y009892
X012515Y003892
X018515Y003892
X022515Y009892
X011515Y009892
X023515Y003892
X017515Y009892
X010515Y009892
X022515Y003892
X016515Y009892
T104
X016915Y017049
X012978Y017049
X017703Y017049
X010616Y017049
X012191Y017049
X016128Y017049
X014553Y017049
X015341Y017049
X011404Y017049
X013766Y017049
T00
M30
