G04 MADE WITH FRITZING*
G04 WWW.FRITZING.ORG*
G04 DOUBLE SIDED*
G04 HOLES PLATED*
G04 CONTOUR ON CENTER OF CONTOUR VECTOR*
%ASAXBY*%
%FSLAX23Y23*%
%MOIN*%
%OFA0B0*%
%SFA1.0B1.0*%
%ADD10C,0.039370*%
%ADD11C,0.070000*%
%ADD12C,0.078000*%
%ADD13C,0.067559*%
%ADD14C,0.055990*%
%ADD15R,0.070000X0.069972*%
%ADD16R,0.078000X0.078000*%
%ADD17C,0.012000*%
%ADD18C,0.024000*%
%ADD19C,0.008000*%
%LNCOPPER1*%
G90*
G70*
G54D10*
X2184Y1705D03*
G54D11*
X2452Y989D03*
X2352Y989D03*
X2252Y989D03*
X2152Y989D03*
X2052Y989D03*
X1952Y989D03*
X1852Y989D03*
X1752Y989D03*
X1652Y989D03*
X1552Y989D03*
X1452Y989D03*
X1352Y989D03*
X1252Y989D03*
X1152Y989D03*
X1052Y989D03*
X2452Y389D03*
X2352Y389D03*
X2252Y389D03*
X2152Y389D03*
X2052Y389D03*
X1952Y389D03*
X1852Y389D03*
X1752Y389D03*
X1652Y389D03*
X1552Y389D03*
X1452Y389D03*
X1352Y389D03*
X1252Y389D03*
X1152Y389D03*
X1052Y389D03*
G54D12*
X159Y1930D03*
X159Y1830D03*
X159Y1630D03*
X159Y1530D03*
X159Y1430D03*
X159Y1330D03*
G54D13*
X1770Y1705D03*
X1692Y1705D03*
X1613Y1705D03*
X1534Y1705D03*
X1455Y1705D03*
X1377Y1705D03*
X1298Y1705D03*
X1219Y1705D03*
X1140Y1705D03*
X1062Y1705D03*
G54D12*
X2334Y1830D03*
X2334Y1730D03*
X2334Y1630D03*
X2334Y1530D03*
X2334Y1430D03*
X2334Y1330D03*
G54D14*
X2119Y91D03*
X2219Y91D03*
X2319Y91D03*
X2419Y91D03*
X2519Y91D03*
X1659Y1991D03*
X1559Y1991D03*
X1459Y1991D03*
X1359Y1991D03*
X1259Y1991D03*
X1159Y1991D03*
X1059Y1991D03*
X959Y1991D03*
X859Y1991D03*
X759Y1991D03*
X2519Y1991D03*
X2419Y1991D03*
X2319Y1991D03*
X2219Y1991D03*
X2119Y1991D03*
X2019Y1991D03*
X1919Y1991D03*
X1819Y1991D03*
X1219Y91D03*
X1119Y91D03*
X1319Y91D03*
X1419Y91D03*
X1519Y91D03*
X1619Y91D03*
X1719Y91D03*
X1819Y91D03*
X2019Y91D03*
X2627Y1337D03*
X2527Y1337D03*
X2627Y1238D03*
X2527Y1238D03*
X2627Y1139D03*
X2527Y1139D03*
X758Y1836D03*
X758Y1736D03*
X862Y1836D03*
X862Y1736D03*
X654Y1836D03*
X654Y1736D03*
G54D12*
X109Y80D03*
X209Y80D03*
X309Y80D03*
X109Y180D03*
X209Y180D03*
X309Y180D03*
X109Y280D03*
X209Y280D03*
X309Y280D03*
X109Y380D03*
X209Y380D03*
X309Y380D03*
G54D15*
X2452Y989D03*
G54D16*
X159Y1930D03*
X109Y80D03*
X109Y180D03*
X109Y280D03*
X109Y380D03*
G54D17*
X58Y1731D02*
X142Y1813D01*
D02*
X58Y579D02*
X58Y1731D01*
D02*
X194Y399D02*
X58Y579D01*
G54D18*
D02*
X209Y250D02*
X209Y210D01*
D02*
X209Y110D02*
X209Y280D01*
D02*
X209Y280D02*
X209Y210D01*
D02*
X209Y280D02*
X209Y350D01*
G54D17*
D02*
X2184Y1530D02*
X2159Y1505D01*
D02*
X784Y455D02*
X758Y480D01*
D02*
X2159Y1055D02*
X2154Y1013D01*
D02*
X2310Y330D02*
X2338Y370D01*
D02*
X2159Y330D02*
X2310Y330D01*
D02*
X1735Y305D02*
X2134Y305D01*
D02*
X2134Y305D02*
X2159Y330D01*
D02*
X1721Y113D02*
X1735Y305D01*
G54D18*
D02*
X1647Y91D02*
X1691Y91D01*
G54D17*
D02*
X1139Y409D02*
X1109Y454D01*
D02*
X1109Y454D02*
X784Y455D01*
D02*
X2159Y1505D02*
X2159Y1055D01*
D02*
X2310Y1530D02*
X2184Y1530D01*
D02*
X2184Y1530D02*
X2184Y1692D01*
D02*
X1009Y430D02*
X758Y429D01*
D02*
X758Y429D02*
X735Y455D01*
D02*
X1034Y406D02*
X1009Y430D01*
D02*
X1824Y1969D02*
X1834Y1930D01*
D02*
X2009Y1930D02*
X1959Y1930D01*
D02*
X1959Y1930D02*
X1932Y1972D01*
D02*
X2034Y1904D02*
X2009Y1930D01*
D02*
X1659Y1031D02*
X1684Y1055D01*
D02*
X1684Y1055D02*
X1784Y1055D01*
D02*
X1784Y1055D02*
X1809Y1080D01*
D02*
X1809Y1080D02*
X1809Y1105D01*
D02*
X1809Y1105D02*
X1834Y1130D01*
D02*
X2010Y1130D02*
X2034Y1156D01*
D02*
X1834Y1130D02*
X2010Y1130D01*
D02*
X2034Y1156D02*
X2034Y1904D01*
D02*
X1656Y1012D02*
X1659Y1031D01*
D02*
X1558Y1054D02*
X1554Y1013D01*
D02*
X1759Y1080D02*
X1584Y1080D01*
D02*
X1784Y1105D02*
X1759Y1080D01*
D02*
X1584Y1080D02*
X1558Y1054D01*
D02*
X1784Y1130D02*
X1784Y1105D01*
D02*
X1985Y1905D02*
X2009Y1880D01*
D02*
X1934Y1905D02*
X1985Y1905D01*
D02*
X1910Y1930D02*
X1934Y1905D01*
D02*
X2009Y1880D02*
X2010Y1180D01*
D02*
X1984Y1156D02*
X1809Y1156D01*
D02*
X1809Y1156D02*
X1784Y1130D01*
D02*
X2010Y1180D02*
X1984Y1156D01*
D02*
X1834Y1930D02*
X1910Y1930D01*
D02*
X2059Y1930D02*
X2031Y1972D01*
D02*
X2059Y1881D02*
X2059Y1930D01*
D02*
X1759Y1030D02*
X1809Y1030D01*
D02*
X1809Y1030D02*
X1834Y1055D01*
D02*
X1834Y1055D02*
X1834Y1080D01*
D02*
X1834Y1080D02*
X1860Y1105D01*
D02*
X1860Y1105D02*
X2034Y1105D01*
D02*
X2034Y1105D02*
X2059Y1130D01*
D02*
X2059Y1130D02*
X2059Y1881D01*
D02*
X1756Y1012D02*
X1759Y1030D01*
D02*
X2084Y1930D02*
X2108Y1971D01*
D02*
X2085Y1881D02*
X2084Y1930D01*
D02*
X1860Y1055D02*
X1885Y1080D01*
D02*
X1885Y1080D02*
X1959Y1080D01*
D02*
X1959Y1080D02*
X2059Y1080D01*
D02*
X2059Y1080D02*
X2084Y1105D01*
D02*
X2084Y1105D02*
X2085Y1881D01*
D02*
X1854Y1013D02*
X1860Y1055D01*
D02*
X2209Y1930D02*
X2215Y1969D01*
D02*
X2134Y1930D02*
X2209Y1930D01*
D02*
X2109Y1905D02*
X2134Y1930D01*
D02*
X1910Y1030D02*
X1910Y1055D01*
D02*
X2084Y1055D02*
X2109Y1080D01*
D02*
X1910Y1055D02*
X2084Y1055D01*
D02*
X2109Y1080D02*
X2109Y1905D01*
D02*
X1935Y1006D02*
X1910Y1030D01*
D02*
X2159Y1904D02*
X2259Y1904D01*
D02*
X2259Y1904D02*
X2306Y1972D01*
D02*
X2134Y1880D02*
X2159Y1904D01*
D02*
X2134Y1055D02*
X2134Y1880D01*
D02*
X2070Y1004D02*
X2134Y1055D01*
D02*
X1834Y280D02*
X1821Y113D01*
D02*
X2160Y280D02*
X1834Y280D01*
D02*
X2410Y330D02*
X2335Y305D01*
D02*
X2335Y305D02*
X2184Y305D01*
D02*
X2184Y305D02*
X2160Y280D01*
D02*
X2438Y370D02*
X2410Y330D01*
D02*
X1358Y304D02*
X1234Y304D01*
D02*
X1234Y304D02*
X1168Y372D01*
D02*
X1413Y112D02*
X1358Y304D01*
D02*
X1534Y330D02*
X1521Y113D01*
D02*
X2110Y330D02*
X1534Y330D01*
D02*
X2138Y370D02*
X2110Y330D01*
D02*
X2459Y1905D02*
X2506Y1972D01*
D02*
X2459Y1655D02*
X2459Y1905D01*
D02*
X2434Y1630D02*
X2359Y1630D01*
D02*
X2459Y1655D02*
X2434Y1630D01*
D02*
X2360Y1055D02*
X2385Y1079D01*
D02*
X2385Y1079D02*
X2434Y1079D01*
D02*
X2434Y1079D02*
X2458Y1104D01*
D02*
X2458Y1104D02*
X2459Y1655D01*
D02*
X2355Y1013D02*
X2360Y1055D01*
D02*
X1284Y1056D02*
X1335Y1006D01*
D02*
X1309Y1205D02*
X1284Y1180D01*
D02*
X1284Y1180D02*
X1284Y1056D01*
D02*
X1934Y1205D02*
X1309Y1205D01*
D02*
X1959Y1230D02*
X1934Y1205D01*
G54D19*
D02*
X2298Y820D02*
X2159Y412D01*
D02*
X2260Y1281D02*
X2309Y1231D01*
D02*
X2309Y1231D02*
X2298Y820D01*
D02*
X2260Y1380D02*
X2260Y1281D01*
D02*
X2314Y1416D02*
X2260Y1379D01*
G54D17*
D02*
X1009Y1705D02*
X1009Y1780D01*
D02*
X1009Y1780D02*
X1159Y1930D01*
D02*
X1159Y1930D02*
X1159Y1968D01*
D02*
X984Y1681D02*
X1009Y1705D01*
D02*
X734Y1655D02*
X760Y1680D01*
D02*
X735Y455D02*
X734Y1655D01*
D02*
X760Y1680D02*
X984Y1681D01*
D02*
X1959Y1830D02*
X1959Y1230D01*
D02*
X1934Y1854D02*
X1959Y1830D01*
D02*
X1509Y1855D02*
X1934Y1854D01*
D02*
X1485Y1880D02*
X1509Y1855D01*
D02*
X1485Y1930D02*
X1485Y1880D01*
D02*
X1509Y1955D02*
X1485Y1930D01*
D02*
X1541Y1978D02*
X1509Y1955D01*
D02*
X1259Y1056D02*
X1254Y1013D01*
D02*
X1284Y1230D02*
X1259Y1205D01*
D02*
X1934Y1256D02*
X1910Y1230D01*
D02*
X1910Y1230D02*
X1284Y1230D01*
D02*
X1259Y1205D02*
X1259Y1056D01*
D02*
X1934Y1805D02*
X1934Y1256D01*
D02*
X1609Y1930D02*
X1645Y1973D01*
D02*
X1534Y1930D02*
X1609Y1930D01*
D02*
X1435Y1030D02*
X1409Y1055D01*
D02*
X1984Y1854D02*
X1959Y1880D01*
D02*
X1333Y1054D02*
X1310Y1079D01*
D02*
X1409Y1055D02*
X1333Y1054D01*
D02*
X1310Y1155D02*
X1333Y1181D01*
D02*
X1333Y1181D02*
X1658Y1181D01*
D02*
X1310Y1079D02*
X1310Y1155D01*
D02*
X1658Y1181D02*
X1959Y1180D01*
D02*
X1984Y1205D02*
X1984Y1854D01*
D02*
X1959Y1880D02*
X1534Y1880D01*
D02*
X1534Y1880D02*
X1509Y1904D01*
D02*
X1509Y1904D02*
X1534Y1930D01*
D02*
X1959Y1180D02*
X1984Y1205D01*
D02*
X1442Y1011D02*
X1435Y1030D01*
D02*
X1384Y1955D02*
X1372Y1972D01*
D02*
X1435Y1930D02*
X1384Y1955D01*
D02*
X1435Y1830D02*
X1435Y1930D01*
D02*
X1859Y1780D02*
X1884Y1754D01*
D02*
X1884Y1754D02*
X1884Y1305D01*
D02*
X1884Y1305D02*
X1859Y1280D01*
D02*
X1859Y1280D02*
X1235Y1280D01*
D02*
X1235Y1280D02*
X1209Y1256D01*
D02*
X1209Y1256D02*
X1209Y1105D01*
D02*
X1209Y1105D02*
X1184Y1080D01*
D02*
X1184Y1080D02*
X1135Y1080D01*
D02*
X1135Y1080D02*
X1067Y1007D01*
D02*
X1435Y1780D02*
X1859Y1780D01*
D02*
X1284Y1930D02*
X1384Y1930D01*
D02*
X1384Y1930D02*
X1409Y1904D01*
D02*
X1409Y1904D02*
X1409Y1805D01*
D02*
X1409Y1805D02*
X1435Y1780D01*
D02*
X1268Y1970D02*
X1284Y1930D01*
D02*
X1459Y1855D02*
X1485Y1830D01*
D02*
X1485Y1830D02*
X1910Y1830D01*
D02*
X1910Y1830D02*
X1934Y1805D01*
D02*
X1459Y1968D02*
X1459Y1855D01*
D02*
X1159Y1030D02*
X1184Y1055D01*
D02*
X1459Y1805D02*
X1435Y1830D01*
D02*
X1884Y1805D02*
X1459Y1805D01*
D02*
X1910Y1780D02*
X1884Y1805D01*
D02*
X1910Y1280D02*
X1910Y1780D01*
D02*
X1259Y1256D02*
X1884Y1256D01*
D02*
X1884Y1256D02*
X1910Y1280D01*
D02*
X1235Y1230D02*
X1259Y1256D01*
D02*
X1235Y1080D02*
X1235Y1230D01*
D02*
X1209Y1056D02*
X1235Y1080D01*
D02*
X1184Y1055D02*
X1209Y1056D01*
D02*
X1156Y1012D02*
X1159Y1030D01*
D02*
X1659Y1654D02*
X1681Y1689D01*
D02*
X784Y1655D02*
X1659Y1654D01*
D02*
X758Y480D02*
X760Y1630D01*
D02*
X760Y1630D02*
X784Y1655D01*
G54D18*
D02*
X159Y1460D02*
X159Y1500D01*
G04 End of Copper1*
M02*