G04 MADE WITH FRITZING*
G04 WWW.FRITZING.ORG*
G04 DOUBLE SIDED*
G04 HOLES PLATED*
G04 CONTOUR ON CENTER OF CONTOUR VECTOR*
%ASAXBY*%
%FSLAX23Y23*%
%MOIN*%
%OFA0B0*%
%SFA1.0B1.0*%
%ADD10C,0.039370*%
%ADD11C,0.070000*%
%ADD12C,0.078000*%
%ADD13C,0.067559*%
%ADD14C,0.055990*%
%ADD15R,0.070000X0.069972*%
%ADD16R,0.078000X0.078000*%
%ADD17C,0.024000*%
%LNCOPPER0*%
G90*
G70*
G54D10*
X1507Y234D03*
X609Y230D03*
G54D11*
X2452Y989D03*
X2352Y989D03*
X2252Y989D03*
X2152Y989D03*
X2052Y989D03*
X1952Y989D03*
X1852Y989D03*
X1752Y989D03*
X1652Y989D03*
X1552Y989D03*
X1452Y989D03*
X1352Y989D03*
X1252Y989D03*
X1152Y989D03*
X1052Y989D03*
X2452Y389D03*
X2352Y389D03*
X2252Y389D03*
X2152Y389D03*
X2052Y389D03*
X1952Y389D03*
X1852Y389D03*
X1752Y389D03*
X1652Y389D03*
X1552Y389D03*
X1452Y389D03*
X1352Y389D03*
X1252Y389D03*
X1152Y389D03*
X1052Y389D03*
G54D12*
X152Y489D03*
X152Y389D03*
X413Y489D03*
X413Y389D03*
X413Y289D03*
X413Y189D03*
G54D13*
X452Y1826D03*
X452Y1747D03*
X452Y1668D03*
X452Y1589D03*
X452Y1511D03*
X452Y1432D03*
X452Y1353D03*
X452Y1274D03*
X452Y1196D03*
X452Y1117D03*
G54D12*
X2223Y1689D03*
X2223Y1589D03*
X2223Y1489D03*
X2223Y1389D03*
X2223Y1289D03*
X2223Y1189D03*
G54D10*
X752Y389D03*
X652Y289D03*
X852Y488D03*
G54D14*
X2112Y100D03*
X2212Y100D03*
X2312Y100D03*
X2412Y100D03*
X2512Y100D03*
X1652Y2000D03*
X1552Y2000D03*
X1452Y2000D03*
X1352Y2000D03*
X1252Y2000D03*
X1152Y2000D03*
X1052Y2000D03*
X952Y2000D03*
X852Y2000D03*
X752Y2000D03*
X2512Y2000D03*
X2412Y2000D03*
X2312Y2000D03*
X2212Y2000D03*
X2112Y2000D03*
X2012Y2000D03*
X1912Y2000D03*
X1812Y2000D03*
X1212Y100D03*
X1112Y100D03*
X1312Y100D03*
X1412Y100D03*
X1512Y100D03*
X1612Y100D03*
X1712Y100D03*
X1812Y100D03*
X2012Y100D03*
X2620Y1346D03*
X2520Y1346D03*
X2620Y1247D03*
X2520Y1247D03*
X2620Y1148D03*
X2520Y1148D03*
X751Y1845D03*
X751Y1746D03*
X855Y1845D03*
X855Y1746D03*
X647Y1845D03*
X647Y1746D03*
G54D12*
X252Y689D03*
X352Y689D03*
X452Y689D03*
X252Y789D03*
X352Y789D03*
X452Y789D03*
X252Y889D03*
X352Y889D03*
X452Y889D03*
X252Y989D03*
X352Y989D03*
X452Y989D03*
G54D15*
X2452Y989D03*
G54D16*
X152Y489D03*
X252Y689D03*
X252Y789D03*
X252Y889D03*
X252Y989D03*
G54D17*
X1488Y234D02*
X628Y230D01*
D02*
X252Y759D02*
X252Y719D01*
D02*
X252Y959D02*
X252Y919D01*
D02*
X252Y859D02*
X252Y819D01*
D02*
X2152Y960D02*
X2152Y889D01*
D02*
X2152Y889D02*
X2652Y889D01*
D02*
X1753Y190D02*
X1723Y125D01*
D02*
X2644Y209D02*
X1753Y190D01*
D02*
X2652Y889D02*
X2644Y209D01*
D02*
X352Y889D02*
X352Y959D01*
D02*
X352Y889D02*
X352Y819D01*
D02*
X352Y719D02*
X352Y889D01*
D02*
X310Y430D02*
X181Y397D01*
D02*
X309Y530D02*
X310Y430D01*
D02*
X344Y660D02*
X309Y530D01*
D02*
X352Y859D02*
X352Y819D01*
D02*
X2410Y1829D02*
X2450Y1018D01*
D02*
X2241Y1613D02*
X2410Y1829D01*
D02*
X2411Y1972D02*
X2410Y1829D01*
D02*
X2152Y1389D02*
X2152Y1018D01*
D02*
X2193Y1389D02*
X2152Y1389D01*
D02*
X809Y930D02*
X481Y984D01*
D02*
X1310Y930D02*
X809Y930D01*
D02*
X1335Y966D02*
X1310Y930D01*
D02*
X809Y830D02*
X481Y884D01*
D02*
X1310Y830D02*
X809Y830D01*
D02*
X1432Y968D02*
X1310Y830D01*
D02*
X809Y730D02*
X481Y784D01*
D02*
X1410Y730D02*
X809Y730D01*
D02*
X1810Y930D02*
X1410Y730D01*
D02*
X1835Y966D02*
X1810Y930D01*
D02*
X809Y630D02*
X481Y684D01*
D02*
X1410Y630D02*
X809Y630D01*
D02*
X1910Y930D02*
X1410Y630D01*
D02*
X1935Y966D02*
X1910Y930D01*
D02*
X1022Y389D02*
X771Y389D01*
D02*
X253Y1789D02*
X427Y1821D01*
D02*
X252Y1019D02*
X253Y1789D01*
D02*
X608Y1928D02*
X1008Y1928D01*
D02*
X1008Y1928D02*
X1037Y1976D01*
D02*
X472Y1839D02*
X608Y1928D01*
D02*
X1009Y1529D02*
X476Y1511D01*
D02*
X2193Y1588D02*
X1009Y1529D01*
D02*
X1009Y1432D02*
X476Y1432D01*
D02*
X2193Y1488D02*
X1009Y1432D01*
D02*
X1154Y289D02*
X671Y289D01*
D02*
X1152Y360D02*
X1154Y289D01*
D02*
X833Y484D02*
X442Y396D01*
G04 End of Copper0*
M02*