G04 MADE WITH FRITZING*
G04 WWW.FRITZING.ORG*
G04 DOUBLE SIDED*
G04 HOLES PLATED*
G04 CONTOUR ON CENTER OF CONTOUR VECTOR*
%ASAXBY*%
%FSLAX23Y23*%
%MOIN*%
%OFA0B0*%
%SFA1.0B1.0*%
%ADD10R,0.001000X0.001000*%
%LNSILK0*%
G90*
G70*
X2596Y1596D02*
X2596Y2041D01*
X2547Y2090D01*
X11Y2090D01*
X11Y11D01*
X2596Y11D01*
X2596Y91D01*
X2713Y208D01*
X2713Y1497D01*
X2596Y1596D01*
D02*
G54D10*
X1724Y564D02*
X1732Y564D01*
X2395Y564D02*
X2403Y564D01*
X1723Y563D02*
X1733Y563D01*
X2394Y563D02*
X2404Y563D01*
X1723Y562D02*
X1733Y562D01*
X2394Y562D02*
X2404Y562D01*
X1722Y561D02*
X1734Y561D01*
X2393Y561D02*
X2405Y561D01*
X1220Y560D02*
X1250Y560D01*
X1345Y560D02*
X1378Y560D01*
X1403Y560D02*
X1406Y560D01*
X1436Y560D02*
X1439Y560D01*
X1525Y560D02*
X1528Y560D01*
X1603Y560D02*
X1618Y560D01*
X1722Y560D02*
X1734Y560D01*
X1802Y560D02*
X1805Y560D01*
X1836Y560D02*
X1862Y560D01*
X2085Y560D02*
X2112Y560D01*
X2213Y560D02*
X2228Y560D01*
X2393Y560D02*
X2405Y560D01*
X2446Y560D02*
X2472Y560D01*
X1219Y559D02*
X1250Y559D01*
X1344Y559D02*
X1379Y559D01*
X1402Y559D02*
X1407Y559D01*
X1435Y559D02*
X1440Y559D01*
X1524Y559D02*
X1529Y559D01*
X1602Y559D02*
X1619Y559D01*
X1722Y559D02*
X1734Y559D01*
X1801Y559D02*
X1806Y559D01*
X1834Y559D02*
X1864Y559D01*
X2082Y559D02*
X2112Y559D01*
X2211Y559D02*
X2229Y559D01*
X2393Y559D02*
X2405Y559D01*
X2444Y559D02*
X2474Y559D01*
X1218Y558D02*
X1250Y558D01*
X1343Y558D02*
X1380Y558D01*
X1401Y558D02*
X1407Y558D01*
X1435Y558D02*
X1441Y558D01*
X1523Y558D02*
X1529Y558D01*
X1601Y558D02*
X1620Y558D01*
X1722Y558D02*
X1734Y558D01*
X1801Y558D02*
X1807Y558D01*
X1832Y558D02*
X1865Y558D01*
X2080Y558D02*
X2112Y558D01*
X2211Y558D02*
X2230Y558D01*
X2393Y558D02*
X2405Y558D01*
X2442Y558D02*
X2475Y558D01*
X1218Y557D02*
X1250Y557D01*
X1342Y557D02*
X1380Y557D01*
X1401Y557D02*
X1408Y557D01*
X1434Y557D02*
X1441Y557D01*
X1523Y557D02*
X1530Y557D01*
X1600Y557D02*
X1620Y557D01*
X1722Y557D02*
X1734Y557D01*
X1800Y557D02*
X1807Y557D01*
X1831Y557D02*
X1866Y557D01*
X2079Y557D02*
X2112Y557D01*
X2210Y557D02*
X2230Y557D01*
X2393Y557D02*
X2405Y557D01*
X2441Y557D02*
X2476Y557D01*
X1217Y556D02*
X1250Y556D01*
X1341Y556D02*
X1380Y556D01*
X1400Y556D02*
X1408Y556D01*
X1434Y556D02*
X1441Y556D01*
X1522Y556D02*
X1530Y556D01*
X1600Y556D02*
X1620Y556D01*
X1722Y556D02*
X1734Y556D01*
X1800Y556D02*
X1807Y556D01*
X1830Y556D02*
X1866Y556D01*
X1977Y556D02*
X1979Y556D01*
X2078Y556D02*
X2112Y556D01*
X2210Y556D02*
X2230Y556D01*
X2393Y556D02*
X2405Y556D01*
X2440Y556D02*
X2476Y556D01*
X1217Y555D02*
X1250Y555D01*
X1340Y555D02*
X1380Y555D01*
X1400Y555D02*
X1408Y555D01*
X1434Y555D02*
X1441Y555D01*
X1522Y555D02*
X1530Y555D01*
X1600Y555D02*
X1620Y555D01*
X1722Y555D02*
X1734Y555D01*
X1800Y555D02*
X1807Y555D01*
X1830Y555D02*
X1867Y555D01*
X1976Y555D02*
X1981Y555D01*
X2077Y555D02*
X2112Y555D01*
X2210Y555D02*
X2230Y555D01*
X2393Y555D02*
X2405Y555D01*
X2440Y555D02*
X2477Y555D01*
X1218Y554D02*
X1250Y554D01*
X1340Y554D02*
X1380Y554D01*
X1400Y554D02*
X1408Y554D01*
X1434Y554D02*
X1441Y554D01*
X1522Y554D02*
X1530Y554D01*
X1600Y554D02*
X1620Y554D01*
X1722Y554D02*
X1734Y554D01*
X1800Y554D02*
X1807Y554D01*
X1829Y554D02*
X1868Y554D01*
X1975Y554D02*
X1981Y554D01*
X2076Y554D02*
X2112Y554D01*
X2210Y554D02*
X2230Y554D01*
X2393Y554D02*
X2405Y554D01*
X2439Y554D02*
X2477Y554D01*
X1218Y553D02*
X1250Y553D01*
X1340Y553D02*
X1380Y553D01*
X1400Y553D02*
X1408Y553D01*
X1434Y553D02*
X1441Y553D01*
X1522Y553D02*
X1530Y553D01*
X1600Y553D02*
X1620Y553D01*
X1723Y553D02*
X1733Y553D01*
X1800Y553D02*
X1807Y553D01*
X1829Y553D02*
X1868Y553D01*
X1975Y553D02*
X1982Y553D01*
X2075Y553D02*
X2112Y553D01*
X2210Y553D02*
X2230Y553D01*
X2394Y553D02*
X2404Y553D01*
X2439Y553D02*
X2478Y553D01*
X1219Y552D02*
X1250Y552D01*
X1340Y552D02*
X1379Y552D01*
X1400Y552D02*
X1408Y552D01*
X1434Y552D02*
X1441Y552D01*
X1522Y552D02*
X1530Y552D01*
X1600Y552D02*
X1619Y552D01*
X1723Y552D02*
X1733Y552D01*
X1800Y552D02*
X1807Y552D01*
X1828Y552D02*
X1868Y552D01*
X1975Y552D02*
X1982Y552D01*
X2075Y552D02*
X2112Y552D01*
X2210Y552D02*
X2229Y552D01*
X2394Y552D02*
X2404Y552D01*
X2438Y552D02*
X2478Y552D01*
X1220Y551D02*
X1250Y551D01*
X1339Y551D02*
X1378Y551D01*
X1400Y551D02*
X1408Y551D01*
X1434Y551D02*
X1441Y551D01*
X1522Y551D02*
X1530Y551D01*
X1600Y551D02*
X1618Y551D01*
X1724Y551D02*
X1732Y551D01*
X1800Y551D02*
X1807Y551D01*
X1828Y551D02*
X1868Y551D01*
X1975Y551D02*
X1982Y551D01*
X2074Y551D02*
X2112Y551D01*
X2210Y551D02*
X2228Y551D01*
X2395Y551D02*
X2403Y551D01*
X2438Y551D02*
X2478Y551D01*
X1243Y550D02*
X1250Y550D01*
X1339Y550D02*
X1347Y550D01*
X1400Y550D02*
X1408Y550D01*
X1434Y550D02*
X1441Y550D01*
X1522Y550D02*
X1530Y550D01*
X1600Y550D02*
X1608Y550D01*
X1800Y550D02*
X1807Y550D01*
X1828Y550D02*
X1837Y550D01*
X1861Y550D02*
X1868Y550D01*
X1975Y550D02*
X1982Y550D01*
X2073Y550D02*
X2085Y550D01*
X2105Y550D02*
X2112Y550D01*
X2210Y550D02*
X2218Y550D01*
X2438Y550D02*
X2447Y550D01*
X2471Y550D02*
X2478Y550D01*
X1243Y549D02*
X1250Y549D01*
X1339Y549D02*
X1347Y549D01*
X1400Y549D02*
X1408Y549D01*
X1434Y549D02*
X1441Y549D01*
X1522Y549D02*
X1530Y549D01*
X1600Y549D02*
X1608Y549D01*
X1800Y549D02*
X1807Y549D01*
X1828Y549D02*
X1836Y549D01*
X1861Y549D02*
X1868Y549D01*
X1975Y549D02*
X1982Y549D01*
X2073Y549D02*
X2083Y549D01*
X2105Y549D02*
X2112Y549D01*
X2210Y549D02*
X2218Y549D01*
X2437Y549D02*
X2445Y549D01*
X2471Y549D02*
X2478Y549D01*
X1243Y548D02*
X1250Y548D01*
X1339Y548D02*
X1347Y548D01*
X1400Y548D02*
X1408Y548D01*
X1434Y548D02*
X1441Y548D01*
X1522Y548D02*
X1530Y548D01*
X1600Y548D02*
X1608Y548D01*
X1800Y548D02*
X1807Y548D01*
X1827Y548D02*
X1835Y548D01*
X1860Y548D02*
X1868Y548D01*
X1975Y548D02*
X1982Y548D01*
X2073Y548D02*
X2082Y548D01*
X2105Y548D02*
X2112Y548D01*
X2210Y548D02*
X2218Y548D01*
X2437Y548D02*
X2445Y548D01*
X2470Y548D02*
X2478Y548D01*
X1243Y547D02*
X1250Y547D01*
X1339Y547D02*
X1347Y547D01*
X1400Y547D02*
X1408Y547D01*
X1434Y547D02*
X1441Y547D01*
X1522Y547D02*
X1530Y547D01*
X1600Y547D02*
X1608Y547D01*
X1800Y547D02*
X1807Y547D01*
X1827Y547D02*
X1835Y547D01*
X1860Y547D02*
X1868Y547D01*
X1975Y547D02*
X1982Y547D01*
X2072Y547D02*
X2081Y547D01*
X2105Y547D02*
X2112Y547D01*
X2210Y547D02*
X2218Y547D01*
X2437Y547D02*
X2445Y547D01*
X2470Y547D02*
X2478Y547D01*
X1243Y546D02*
X1250Y546D01*
X1339Y546D02*
X1347Y546D01*
X1400Y546D02*
X1408Y546D01*
X1434Y546D02*
X1441Y546D01*
X1522Y546D02*
X1530Y546D01*
X1600Y546D02*
X1608Y546D01*
X1800Y546D02*
X1807Y546D01*
X1827Y546D02*
X1835Y546D01*
X1859Y546D02*
X1868Y546D01*
X1975Y546D02*
X1982Y546D01*
X2072Y546D02*
X2080Y546D01*
X2105Y546D02*
X2112Y546D01*
X2210Y546D02*
X2218Y546D01*
X2437Y546D02*
X2445Y546D01*
X2469Y546D02*
X2478Y546D01*
X1243Y545D02*
X1250Y545D01*
X1339Y545D02*
X1347Y545D01*
X1400Y545D02*
X1408Y545D01*
X1434Y545D02*
X1441Y545D01*
X1522Y545D02*
X1530Y545D01*
X1600Y545D02*
X1608Y545D01*
X1800Y545D02*
X1807Y545D01*
X1828Y545D02*
X1835Y545D01*
X1858Y545D02*
X1868Y545D01*
X1975Y545D02*
X1982Y545D01*
X2072Y545D02*
X2080Y545D01*
X2105Y545D02*
X2112Y545D01*
X2210Y545D02*
X2218Y545D01*
X2438Y545D02*
X2445Y545D01*
X2468Y545D02*
X2478Y545D01*
X1243Y544D02*
X1250Y544D01*
X1339Y544D02*
X1347Y544D01*
X1400Y544D02*
X1408Y544D01*
X1434Y544D02*
X1441Y544D01*
X1522Y544D02*
X1530Y544D01*
X1600Y544D02*
X1608Y544D01*
X1800Y544D02*
X1807Y544D01*
X1828Y544D02*
X1834Y544D01*
X1858Y544D02*
X1867Y544D01*
X1975Y544D02*
X1982Y544D01*
X2072Y544D02*
X2080Y544D01*
X2105Y544D02*
X2112Y544D01*
X2210Y544D02*
X2218Y544D01*
X2438Y544D02*
X2444Y544D01*
X2468Y544D02*
X2477Y544D01*
X1243Y543D02*
X1250Y543D01*
X1339Y543D02*
X1347Y543D01*
X1400Y543D02*
X1408Y543D01*
X1434Y543D02*
X1441Y543D01*
X1522Y543D02*
X1530Y543D01*
X1600Y543D02*
X1608Y543D01*
X1800Y543D02*
X1807Y543D01*
X1829Y543D02*
X1833Y543D01*
X1857Y543D02*
X1867Y543D01*
X1975Y543D02*
X1982Y543D01*
X2072Y543D02*
X2079Y543D01*
X2105Y543D02*
X2112Y543D01*
X2210Y543D02*
X2218Y543D01*
X2439Y543D02*
X2443Y543D01*
X2467Y543D02*
X2477Y543D01*
X1243Y542D02*
X1250Y542D01*
X1339Y542D02*
X1347Y542D01*
X1400Y542D02*
X1408Y542D01*
X1434Y542D02*
X1441Y542D01*
X1522Y542D02*
X1530Y542D01*
X1600Y542D02*
X1608Y542D01*
X1800Y542D02*
X1807Y542D01*
X1831Y542D02*
X1832Y542D01*
X1857Y542D02*
X1866Y542D01*
X1975Y542D02*
X1982Y542D01*
X2071Y542D02*
X2079Y542D01*
X2105Y542D02*
X2112Y542D01*
X2210Y542D02*
X2218Y542D01*
X2441Y542D02*
X2442Y542D01*
X2466Y542D02*
X2476Y542D01*
X1243Y541D02*
X1250Y541D01*
X1339Y541D02*
X1347Y541D01*
X1400Y541D02*
X1408Y541D01*
X1434Y541D02*
X1441Y541D01*
X1522Y541D02*
X1530Y541D01*
X1600Y541D02*
X1608Y541D01*
X1800Y541D02*
X1807Y541D01*
X1856Y541D02*
X1866Y541D01*
X1975Y541D02*
X1982Y541D01*
X2071Y541D02*
X2079Y541D01*
X2105Y541D02*
X2112Y541D01*
X2210Y541D02*
X2218Y541D01*
X2272Y541D02*
X2278Y541D01*
X2291Y541D02*
X2293Y541D01*
X2466Y541D02*
X2476Y541D01*
X1243Y540D02*
X1250Y540D01*
X1339Y540D02*
X1347Y540D01*
X1400Y540D02*
X1408Y540D01*
X1434Y540D02*
X1441Y540D01*
X1522Y540D02*
X1530Y540D01*
X1600Y540D02*
X1608Y540D01*
X1800Y540D02*
X1807Y540D01*
X1855Y540D02*
X1865Y540D01*
X1975Y540D02*
X1982Y540D01*
X2071Y540D02*
X2079Y540D01*
X2105Y540D02*
X2112Y540D01*
X2210Y540D02*
X2218Y540D01*
X2269Y540D02*
X2280Y540D01*
X2289Y540D02*
X2294Y540D01*
X2465Y540D02*
X2475Y540D01*
X1243Y539D02*
X1250Y539D01*
X1339Y539D02*
X1347Y539D01*
X1400Y539D02*
X1408Y539D01*
X1434Y539D02*
X1441Y539D01*
X1522Y539D02*
X1530Y539D01*
X1540Y539D02*
X1550Y539D01*
X1600Y539D02*
X1608Y539D01*
X1658Y539D02*
X1672Y539D01*
X1725Y539D02*
X1739Y539D01*
X1777Y539D02*
X1786Y539D01*
X1800Y539D02*
X1807Y539D01*
X1855Y539D02*
X1864Y539D01*
X1957Y539D02*
X1988Y539D01*
X2023Y539D02*
X2038Y539D01*
X2071Y539D02*
X2079Y539D01*
X2105Y539D02*
X2112Y539D01*
X2146Y539D02*
X2160Y539D01*
X2210Y539D02*
X2218Y539D01*
X2268Y539D02*
X2282Y539D01*
X2289Y539D02*
X2295Y539D01*
X2340Y539D02*
X2344Y539D01*
X2352Y539D02*
X2354Y539D01*
X2396Y539D02*
X2410Y539D01*
X2464Y539D02*
X2474Y539D01*
X1243Y538D02*
X1250Y538D01*
X1339Y538D02*
X1347Y538D01*
X1400Y538D02*
X1408Y538D01*
X1433Y538D02*
X1441Y538D01*
X1522Y538D02*
X1530Y538D01*
X1537Y538D02*
X1553Y538D01*
X1600Y538D02*
X1608Y538D01*
X1655Y538D02*
X1675Y538D01*
X1724Y538D02*
X1741Y538D01*
X1775Y538D02*
X1789Y538D01*
X1800Y538D02*
X1807Y538D01*
X1854Y538D02*
X1864Y538D01*
X1955Y538D02*
X1989Y538D01*
X2021Y538D02*
X2041Y538D01*
X2071Y538D02*
X2079Y538D01*
X2105Y538D02*
X2112Y538D01*
X2143Y538D02*
X2163Y538D01*
X2210Y538D02*
X2218Y538D01*
X2266Y538D02*
X2283Y538D01*
X2288Y538D02*
X2295Y538D01*
X2322Y538D02*
X2329Y538D01*
X2338Y538D02*
X2346Y538D01*
X2351Y538D02*
X2356Y538D01*
X2395Y538D02*
X2412Y538D01*
X2464Y538D02*
X2474Y538D01*
X1243Y537D02*
X1250Y537D01*
X1339Y537D02*
X1347Y537D01*
X1401Y537D02*
X1409Y537D01*
X1433Y537D02*
X1441Y537D01*
X1522Y537D02*
X1530Y537D01*
X1536Y537D02*
X1554Y537D01*
X1600Y537D02*
X1608Y537D01*
X1654Y537D02*
X1676Y537D01*
X1723Y537D02*
X1742Y537D01*
X1773Y537D02*
X1790Y537D01*
X1800Y537D02*
X1807Y537D01*
X1853Y537D02*
X1863Y537D01*
X1954Y537D02*
X1990Y537D01*
X2019Y537D02*
X2042Y537D01*
X2071Y537D02*
X2079Y537D01*
X2105Y537D02*
X2112Y537D01*
X2141Y537D02*
X2164Y537D01*
X2210Y537D02*
X2218Y537D01*
X2265Y537D02*
X2284Y537D01*
X2288Y537D02*
X2295Y537D01*
X2320Y537D02*
X2331Y537D01*
X2336Y537D02*
X2347Y537D01*
X2350Y537D02*
X2356Y537D01*
X2394Y537D02*
X2412Y537D01*
X2463Y537D02*
X2473Y537D01*
X1243Y536D02*
X1250Y536D01*
X1339Y536D02*
X1347Y536D01*
X1401Y536D02*
X1409Y536D01*
X1433Y536D02*
X1441Y536D01*
X1522Y536D02*
X1530Y536D01*
X1535Y536D02*
X1556Y536D01*
X1600Y536D02*
X1608Y536D01*
X1652Y536D02*
X1678Y536D01*
X1722Y536D02*
X1742Y536D01*
X1772Y536D02*
X1792Y536D01*
X1800Y536D02*
X1807Y536D01*
X1853Y536D02*
X1863Y536D01*
X1954Y536D02*
X1990Y536D01*
X2018Y536D02*
X2044Y536D01*
X2071Y536D02*
X2079Y536D01*
X2105Y536D02*
X2112Y536D01*
X2140Y536D02*
X2166Y536D01*
X2210Y536D02*
X2218Y536D01*
X2264Y536D02*
X2285Y536D01*
X2288Y536D02*
X2295Y536D01*
X2319Y536D02*
X2332Y536D01*
X2335Y536D02*
X2357Y536D01*
X2393Y536D02*
X2413Y536D01*
X2463Y536D02*
X2472Y536D01*
X1243Y535D02*
X1250Y535D01*
X1339Y535D02*
X1347Y535D01*
X1401Y535D02*
X1409Y535D01*
X1432Y535D02*
X1441Y535D01*
X1522Y535D02*
X1530Y535D01*
X1533Y535D02*
X1557Y535D01*
X1600Y535D02*
X1608Y535D01*
X1651Y535D02*
X1679Y535D01*
X1722Y535D02*
X1742Y535D01*
X1771Y535D02*
X1793Y535D01*
X1800Y535D02*
X1807Y535D01*
X1852Y535D02*
X1862Y535D01*
X1954Y535D02*
X1990Y535D01*
X2017Y535D02*
X2045Y535D01*
X2071Y535D02*
X2079Y535D01*
X2105Y535D02*
X2112Y535D01*
X2139Y535D02*
X2167Y535D01*
X2210Y535D02*
X2218Y535D01*
X2263Y535D02*
X2286Y535D01*
X2288Y535D02*
X2295Y535D01*
X2318Y535D02*
X2333Y535D01*
X2335Y535D02*
X2357Y535D01*
X2393Y535D02*
X2413Y535D01*
X2462Y535D02*
X2472Y535D01*
X1243Y534D02*
X1250Y534D01*
X1339Y534D02*
X1347Y534D01*
X1402Y534D02*
X1410Y534D01*
X1432Y534D02*
X1440Y534D01*
X1522Y534D02*
X1530Y534D01*
X1533Y534D02*
X1558Y534D01*
X1600Y534D02*
X1608Y534D01*
X1650Y534D02*
X1680Y534D01*
X1722Y534D02*
X1742Y534D01*
X1770Y534D02*
X1795Y534D01*
X1800Y534D02*
X1807Y534D01*
X1851Y534D02*
X1861Y534D01*
X1954Y534D02*
X1990Y534D01*
X2016Y534D02*
X2046Y534D01*
X2071Y534D02*
X2079Y534D01*
X2105Y534D02*
X2112Y534D01*
X2138Y534D02*
X2168Y534D01*
X2210Y534D02*
X2218Y534D01*
X2262Y534D02*
X2295Y534D01*
X2317Y534D02*
X2357Y534D01*
X2393Y534D02*
X2413Y534D01*
X2461Y534D02*
X2471Y534D01*
X1243Y533D02*
X1250Y533D01*
X1339Y533D02*
X1347Y533D01*
X1402Y533D02*
X1410Y533D01*
X1432Y533D02*
X1440Y533D01*
X1522Y533D02*
X1530Y533D01*
X1532Y533D02*
X1559Y533D01*
X1600Y533D02*
X1608Y533D01*
X1649Y533D02*
X1681Y533D01*
X1722Y533D02*
X1742Y533D01*
X1769Y533D02*
X1796Y533D01*
X1800Y533D02*
X1807Y533D01*
X1851Y533D02*
X1861Y533D01*
X1954Y533D02*
X1990Y533D01*
X2015Y533D02*
X2047Y533D01*
X2072Y533D02*
X2079Y533D01*
X2105Y533D02*
X2112Y533D01*
X2137Y533D02*
X2169Y533D01*
X2210Y533D02*
X2218Y533D01*
X2261Y533D02*
X2295Y533D01*
X2317Y533D02*
X2357Y533D01*
X2393Y533D02*
X2413Y533D01*
X2461Y533D02*
X2470Y533D01*
X1243Y532D02*
X1250Y532D01*
X1339Y532D02*
X1347Y532D01*
X1402Y532D02*
X1410Y532D01*
X1431Y532D02*
X1440Y532D01*
X1522Y532D02*
X1559Y532D01*
X1600Y532D02*
X1608Y532D01*
X1648Y532D02*
X1682Y532D01*
X1722Y532D02*
X1742Y532D01*
X1769Y532D02*
X1797Y532D01*
X1800Y532D02*
X1807Y532D01*
X1850Y532D02*
X1860Y532D01*
X1954Y532D02*
X1989Y532D01*
X2014Y532D02*
X2047Y532D01*
X2072Y532D02*
X2080Y532D01*
X2105Y532D02*
X2112Y532D01*
X2136Y532D02*
X2169Y532D01*
X2210Y532D02*
X2218Y532D01*
X2260Y532D02*
X2295Y532D01*
X2316Y532D02*
X2357Y532D01*
X2393Y532D02*
X2413Y532D01*
X2460Y532D02*
X2470Y532D01*
X1243Y531D02*
X1250Y531D01*
X1339Y531D02*
X1347Y531D01*
X1403Y531D02*
X1411Y531D01*
X1431Y531D02*
X1439Y531D01*
X1522Y531D02*
X1560Y531D01*
X1600Y531D02*
X1608Y531D01*
X1648Y531D02*
X1682Y531D01*
X1722Y531D02*
X1741Y531D01*
X1768Y531D02*
X1807Y531D01*
X1849Y531D02*
X1859Y531D01*
X1955Y531D02*
X1989Y531D01*
X2013Y531D02*
X2048Y531D01*
X2072Y531D02*
X2080Y531D01*
X2105Y531D02*
X2112Y531D01*
X2135Y531D02*
X2170Y531D01*
X2210Y531D02*
X2218Y531D01*
X2259Y531D02*
X2272Y531D01*
X2278Y531D02*
X2295Y531D01*
X2316Y531D02*
X2357Y531D01*
X2393Y531D02*
X2412Y531D01*
X2459Y531D02*
X2469Y531D01*
X1243Y530D02*
X1250Y530D01*
X1339Y530D02*
X1347Y530D01*
X1403Y530D02*
X1411Y530D01*
X1431Y530D02*
X1439Y530D01*
X1522Y530D02*
X1561Y530D01*
X1600Y530D02*
X1608Y530D01*
X1647Y530D02*
X1683Y530D01*
X1722Y530D02*
X1740Y530D01*
X1768Y530D02*
X1807Y530D01*
X1849Y530D02*
X1859Y530D01*
X1956Y530D02*
X1989Y530D01*
X2013Y530D02*
X2049Y530D01*
X2072Y530D02*
X2081Y530D01*
X2105Y530D02*
X2112Y530D01*
X2135Y530D02*
X2171Y530D01*
X2210Y530D02*
X2218Y530D01*
X2259Y530D02*
X2271Y530D01*
X2279Y530D02*
X2295Y530D01*
X2316Y530D02*
X2357Y530D01*
X2393Y530D02*
X2411Y530D01*
X2459Y530D02*
X2468Y530D01*
X1243Y529D02*
X1250Y529D01*
X1339Y529D02*
X1347Y529D01*
X1403Y529D02*
X1411Y529D01*
X1431Y529D02*
X1439Y529D01*
X1522Y529D02*
X1540Y529D01*
X1550Y529D02*
X1562Y529D01*
X1600Y529D02*
X1608Y529D01*
X1646Y529D02*
X1658Y529D01*
X1672Y529D02*
X1683Y529D01*
X1722Y529D02*
X1730Y529D01*
X1768Y529D02*
X1778Y529D01*
X1786Y529D02*
X1807Y529D01*
X1848Y529D02*
X1858Y529D01*
X1974Y529D02*
X1982Y529D01*
X2012Y529D02*
X2024Y529D01*
X2038Y529D02*
X2049Y529D01*
X2073Y529D02*
X2082Y529D01*
X2105Y529D02*
X2112Y529D01*
X2134Y529D02*
X2146Y529D01*
X2160Y529D02*
X2171Y529D01*
X2210Y529D02*
X2218Y529D01*
X2258Y529D02*
X2270Y529D01*
X2280Y529D02*
X2295Y529D01*
X2315Y529D02*
X2324Y529D01*
X2326Y529D02*
X2341Y529D01*
X2343Y529D02*
X2357Y529D01*
X2393Y529D02*
X2401Y529D01*
X2458Y529D02*
X2468Y529D01*
X1243Y528D02*
X1250Y528D01*
X1339Y528D02*
X1347Y528D01*
X1404Y528D02*
X1412Y528D01*
X1430Y528D02*
X1438Y528D01*
X1522Y528D02*
X1539Y528D01*
X1552Y528D02*
X1562Y528D01*
X1600Y528D02*
X1608Y528D01*
X1646Y528D02*
X1656Y528D01*
X1674Y528D02*
X1684Y528D01*
X1722Y528D02*
X1730Y528D01*
X1767Y528D02*
X1776Y528D01*
X1788Y528D02*
X1807Y528D01*
X1847Y528D02*
X1857Y528D01*
X1975Y528D02*
X1982Y528D01*
X2012Y528D02*
X2022Y528D01*
X2040Y528D02*
X2050Y528D01*
X2073Y528D02*
X2083Y528D01*
X2105Y528D02*
X2112Y528D01*
X2134Y528D02*
X2144Y528D01*
X2162Y528D02*
X2172Y528D01*
X2210Y528D02*
X2218Y528D01*
X2257Y528D02*
X2269Y528D01*
X2281Y528D02*
X2295Y528D01*
X2315Y528D02*
X2323Y528D01*
X2328Y528D02*
X2340Y528D01*
X2344Y528D02*
X2357Y528D01*
X2393Y528D02*
X2401Y528D01*
X2457Y528D02*
X2467Y528D01*
X1243Y527D02*
X1250Y527D01*
X1339Y527D02*
X1347Y527D01*
X1404Y527D02*
X1412Y527D01*
X1430Y527D02*
X1438Y527D01*
X1522Y527D02*
X1538Y527D01*
X1553Y527D02*
X1563Y527D01*
X1600Y527D02*
X1608Y527D01*
X1645Y527D02*
X1655Y527D01*
X1675Y527D02*
X1684Y527D01*
X1722Y527D02*
X1730Y527D01*
X1767Y527D02*
X1775Y527D01*
X1789Y527D02*
X1807Y527D01*
X1847Y527D02*
X1857Y527D01*
X1975Y527D02*
X1982Y527D01*
X2011Y527D02*
X2021Y527D01*
X2041Y527D02*
X2050Y527D01*
X2073Y527D02*
X2085Y527D01*
X2105Y527D02*
X2112Y527D01*
X2133Y527D02*
X2143Y527D01*
X2163Y527D02*
X2172Y527D01*
X2210Y527D02*
X2218Y527D01*
X2256Y527D02*
X2268Y527D01*
X2281Y527D02*
X2295Y527D01*
X2315Y527D02*
X2323Y527D01*
X2329Y527D02*
X2340Y527D01*
X2345Y527D02*
X2357Y527D01*
X2393Y527D02*
X2401Y527D01*
X2457Y527D02*
X2467Y527D01*
X1223Y526D02*
X1250Y526D01*
X1339Y526D02*
X1375Y526D01*
X1404Y526D02*
X1412Y526D01*
X1430Y526D02*
X1438Y526D01*
X1522Y526D02*
X1537Y526D01*
X1553Y526D02*
X1563Y526D01*
X1600Y526D02*
X1608Y526D01*
X1645Y526D02*
X1654Y526D01*
X1675Y526D02*
X1685Y526D01*
X1722Y526D02*
X1730Y526D01*
X1767Y526D02*
X1775Y526D01*
X1790Y526D02*
X1807Y526D01*
X1846Y526D02*
X1856Y526D01*
X1975Y526D02*
X1982Y526D01*
X2011Y526D02*
X2020Y526D01*
X2041Y526D02*
X2051Y526D01*
X2074Y526D02*
X2112Y526D01*
X2133Y526D02*
X2142Y526D01*
X2163Y526D02*
X2173Y526D01*
X2210Y526D02*
X2218Y526D01*
X2256Y526D02*
X2267Y526D01*
X2282Y526D02*
X2295Y526D01*
X2315Y526D02*
X2323Y526D01*
X2330Y526D02*
X2340Y526D01*
X2346Y526D02*
X2357Y526D01*
X2393Y526D02*
X2401Y526D01*
X2456Y526D02*
X2466Y526D01*
X1222Y525D02*
X1250Y525D01*
X1340Y525D02*
X1376Y525D01*
X1405Y525D02*
X1413Y525D01*
X1429Y525D02*
X1437Y525D01*
X1522Y525D02*
X1536Y525D01*
X1554Y525D02*
X1563Y525D01*
X1600Y525D02*
X1608Y525D01*
X1645Y525D02*
X1653Y525D01*
X1676Y525D02*
X1685Y525D01*
X1722Y525D02*
X1730Y525D01*
X1767Y525D02*
X1775Y525D01*
X1792Y525D02*
X1807Y525D01*
X1845Y525D02*
X1855Y525D01*
X1975Y525D02*
X1982Y525D01*
X2011Y525D02*
X2019Y525D01*
X2042Y525D02*
X2051Y525D01*
X2075Y525D02*
X2112Y525D01*
X2133Y525D02*
X2141Y525D01*
X2164Y525D02*
X2173Y525D01*
X2210Y525D02*
X2218Y525D01*
X2255Y525D02*
X2266Y525D01*
X2283Y525D02*
X2295Y525D01*
X2315Y525D02*
X2323Y525D01*
X2331Y525D02*
X2340Y525D01*
X2347Y525D02*
X2357Y525D01*
X2393Y525D02*
X2401Y525D01*
X2455Y525D02*
X2465Y525D01*
X1220Y524D02*
X1250Y524D01*
X1340Y524D02*
X1377Y524D01*
X1405Y524D02*
X1413Y524D01*
X1429Y524D02*
X1437Y524D01*
X1522Y524D02*
X1535Y524D01*
X1555Y524D02*
X1563Y524D01*
X1600Y524D02*
X1608Y524D01*
X1645Y524D02*
X1653Y524D01*
X1677Y524D02*
X1685Y524D01*
X1722Y524D02*
X1730Y524D01*
X1767Y524D02*
X1775Y524D01*
X1793Y524D02*
X1807Y524D01*
X1845Y524D02*
X1855Y524D01*
X1975Y524D02*
X1982Y524D01*
X2011Y524D02*
X2019Y524D01*
X2043Y524D02*
X2051Y524D01*
X2075Y524D02*
X2112Y524D01*
X2133Y524D02*
X2141Y524D01*
X2165Y524D02*
X2173Y524D01*
X2210Y524D02*
X2218Y524D01*
X2255Y524D02*
X2265Y524D01*
X2284Y524D02*
X2295Y524D01*
X2315Y524D02*
X2323Y524D01*
X2332Y524D02*
X2340Y524D01*
X2348Y524D02*
X2357Y524D01*
X2393Y524D02*
X2401Y524D01*
X2455Y524D02*
X2465Y524D01*
X1220Y523D02*
X1250Y523D01*
X1340Y523D02*
X1378Y523D01*
X1405Y523D02*
X1413Y523D01*
X1429Y523D02*
X1437Y523D01*
X1522Y523D02*
X1534Y523D01*
X1556Y523D02*
X1563Y523D01*
X1600Y523D02*
X1608Y523D01*
X1644Y523D02*
X1652Y523D01*
X1678Y523D02*
X1685Y523D01*
X1722Y523D02*
X1730Y523D01*
X1767Y523D02*
X1775Y523D01*
X1794Y523D02*
X1807Y523D01*
X1844Y523D02*
X1854Y523D01*
X1975Y523D02*
X1982Y523D01*
X2010Y523D02*
X2018Y523D01*
X2044Y523D02*
X2051Y523D01*
X2076Y523D02*
X2112Y523D01*
X2132Y523D02*
X2140Y523D01*
X2166Y523D02*
X2173Y523D01*
X2210Y523D02*
X2218Y523D01*
X2255Y523D02*
X2264Y523D01*
X2285Y523D02*
X2295Y523D01*
X2315Y523D02*
X2323Y523D01*
X2332Y523D02*
X2340Y523D01*
X2349Y523D02*
X2357Y523D01*
X2393Y523D02*
X2401Y523D01*
X2454Y523D02*
X2464Y523D01*
X1219Y522D02*
X1250Y522D01*
X1340Y522D02*
X1379Y522D01*
X1406Y522D02*
X1414Y522D01*
X1428Y522D02*
X1436Y522D01*
X1522Y522D02*
X1533Y522D01*
X1556Y522D02*
X1563Y522D01*
X1600Y522D02*
X1608Y522D01*
X1644Y522D02*
X1652Y522D01*
X1678Y522D02*
X1685Y522D01*
X1722Y522D02*
X1730Y522D01*
X1767Y522D02*
X1775Y522D01*
X1796Y522D02*
X1807Y522D01*
X1843Y522D02*
X1853Y522D01*
X1975Y522D02*
X1982Y522D01*
X2010Y522D02*
X2018Y522D01*
X2044Y522D02*
X2051Y522D01*
X2077Y522D02*
X2112Y522D01*
X2132Y522D02*
X2140Y522D01*
X2166Y522D02*
X2173Y522D01*
X2210Y522D02*
X2218Y522D01*
X2255Y522D02*
X2263Y522D01*
X2286Y522D02*
X2295Y522D01*
X2315Y522D02*
X2323Y522D01*
X2332Y522D02*
X2340Y522D01*
X2350Y522D02*
X2357Y522D01*
X2393Y522D02*
X2401Y522D01*
X2453Y522D02*
X2463Y522D01*
X1218Y521D02*
X1250Y521D01*
X1341Y521D02*
X1380Y521D01*
X1406Y521D02*
X1414Y521D01*
X1428Y521D02*
X1436Y521D01*
X1522Y521D02*
X1532Y521D01*
X1556Y521D02*
X1563Y521D01*
X1600Y521D02*
X1608Y521D01*
X1644Y521D02*
X1652Y521D01*
X1678Y521D02*
X1685Y521D01*
X1722Y521D02*
X1730Y521D01*
X1767Y521D02*
X1775Y521D01*
X1797Y521D02*
X1807Y521D01*
X1843Y521D02*
X1853Y521D01*
X1975Y521D02*
X1982Y521D01*
X2010Y521D02*
X2018Y521D01*
X2044Y521D02*
X2051Y521D01*
X2077Y521D02*
X2112Y521D01*
X2132Y521D02*
X2140Y521D01*
X2166Y521D02*
X2173Y521D01*
X2210Y521D02*
X2218Y521D01*
X2254Y521D02*
X2262Y521D01*
X2286Y521D02*
X2295Y521D01*
X2315Y521D02*
X2323Y521D01*
X2332Y521D02*
X2340Y521D01*
X2350Y521D02*
X2357Y521D01*
X2393Y521D02*
X2401Y521D01*
X2453Y521D02*
X2463Y521D01*
X1218Y520D02*
X1250Y520D01*
X1342Y520D02*
X1380Y520D01*
X1406Y520D02*
X1414Y520D01*
X1428Y520D02*
X1436Y520D01*
X1522Y520D02*
X1531Y520D01*
X1556Y520D02*
X1563Y520D01*
X1600Y520D02*
X1608Y520D01*
X1644Y520D02*
X1652Y520D01*
X1678Y520D02*
X1685Y520D01*
X1722Y520D02*
X1730Y520D01*
X1767Y520D02*
X1775Y520D01*
X1798Y520D02*
X1807Y520D01*
X1842Y520D02*
X1852Y520D01*
X1975Y520D02*
X1982Y520D01*
X2010Y520D02*
X2018Y520D01*
X2044Y520D02*
X2051Y520D01*
X2076Y520D02*
X2112Y520D01*
X2132Y520D02*
X2140Y520D01*
X2166Y520D02*
X2173Y520D01*
X2210Y520D02*
X2218Y520D01*
X2254Y520D02*
X2262Y520D01*
X2287Y520D02*
X2295Y520D01*
X2315Y520D02*
X2323Y520D01*
X2332Y520D02*
X2340Y520D01*
X2350Y520D02*
X2357Y520D01*
X2393Y520D02*
X2401Y520D01*
X2452Y520D02*
X2462Y520D01*
X1218Y519D02*
X1250Y519D01*
X1342Y519D02*
X1380Y519D01*
X1407Y519D02*
X1415Y519D01*
X1427Y519D02*
X1435Y519D01*
X1522Y519D02*
X1530Y519D01*
X1556Y519D02*
X1563Y519D01*
X1600Y519D02*
X1608Y519D01*
X1644Y519D02*
X1652Y519D01*
X1678Y519D02*
X1685Y519D01*
X1722Y519D02*
X1730Y519D01*
X1767Y519D02*
X1775Y519D01*
X1799Y519D02*
X1807Y519D01*
X1841Y519D02*
X1851Y519D01*
X1975Y519D02*
X1982Y519D01*
X2010Y519D02*
X2018Y519D01*
X2044Y519D02*
X2051Y519D01*
X2075Y519D02*
X2112Y519D01*
X2132Y519D02*
X2140Y519D01*
X2166Y519D02*
X2173Y519D01*
X2210Y519D02*
X2218Y519D01*
X2254Y519D02*
X2262Y519D01*
X2288Y519D02*
X2295Y519D01*
X2315Y519D02*
X2323Y519D01*
X2332Y519D02*
X2340Y519D01*
X2350Y519D02*
X2357Y519D01*
X2393Y519D02*
X2401Y519D01*
X2451Y519D02*
X2461Y519D01*
X1218Y518D02*
X1250Y518D01*
X1344Y518D02*
X1380Y518D01*
X1407Y518D02*
X1415Y518D01*
X1427Y518D02*
X1435Y518D01*
X1522Y518D02*
X1530Y518D01*
X1556Y518D02*
X1563Y518D01*
X1600Y518D02*
X1608Y518D01*
X1644Y518D02*
X1652Y518D01*
X1678Y518D02*
X1685Y518D01*
X1722Y518D02*
X1730Y518D01*
X1767Y518D02*
X1775Y518D01*
X1800Y518D02*
X1807Y518D01*
X1841Y518D02*
X1851Y518D01*
X1975Y518D02*
X1982Y518D01*
X2010Y518D02*
X2018Y518D01*
X2044Y518D02*
X2051Y518D01*
X2075Y518D02*
X2112Y518D01*
X2132Y518D02*
X2140Y518D01*
X2166Y518D02*
X2173Y518D01*
X2210Y518D02*
X2218Y518D01*
X2254Y518D02*
X2262Y518D01*
X2288Y518D02*
X2295Y518D01*
X2315Y518D02*
X2323Y518D01*
X2332Y518D02*
X2340Y518D01*
X2350Y518D02*
X2357Y518D01*
X2393Y518D02*
X2401Y518D01*
X2451Y518D02*
X2461Y518D01*
X1217Y517D02*
X1250Y517D01*
X1345Y517D02*
X1380Y517D01*
X1407Y517D02*
X1415Y517D01*
X1427Y517D02*
X1435Y517D01*
X1522Y517D02*
X1530Y517D01*
X1556Y517D02*
X1563Y517D01*
X1600Y517D02*
X1608Y517D01*
X1644Y517D02*
X1652Y517D01*
X1678Y517D02*
X1685Y517D01*
X1722Y517D02*
X1730Y517D01*
X1767Y517D02*
X1775Y517D01*
X1800Y517D02*
X1807Y517D01*
X1840Y517D02*
X1850Y517D01*
X1975Y517D02*
X1982Y517D01*
X2010Y517D02*
X2018Y517D01*
X2044Y517D02*
X2051Y517D01*
X2074Y517D02*
X2112Y517D01*
X2132Y517D02*
X2140Y517D01*
X2166Y517D02*
X2173Y517D01*
X2210Y517D02*
X2218Y517D01*
X2254Y517D02*
X2262Y517D01*
X2288Y517D02*
X2295Y517D01*
X2315Y517D02*
X2323Y517D01*
X2332Y517D02*
X2340Y517D01*
X2350Y517D02*
X2357Y517D01*
X2393Y517D02*
X2401Y517D01*
X2450Y517D02*
X2460Y517D01*
X1217Y516D02*
X1225Y516D01*
X1373Y516D02*
X1380Y516D01*
X1408Y516D02*
X1416Y516D01*
X1426Y516D02*
X1434Y516D01*
X1522Y516D02*
X1530Y516D01*
X1556Y516D02*
X1563Y516D01*
X1600Y516D02*
X1608Y516D01*
X1644Y516D02*
X1652Y516D01*
X1678Y516D02*
X1685Y516D01*
X1722Y516D02*
X1730Y516D01*
X1767Y516D02*
X1775Y516D01*
X1800Y516D02*
X1807Y516D01*
X1839Y516D02*
X1849Y516D01*
X1975Y516D02*
X1982Y516D01*
X2010Y516D02*
X2018Y516D01*
X2044Y516D02*
X2051Y516D01*
X2073Y516D02*
X2085Y516D01*
X2105Y516D02*
X2112Y516D01*
X2132Y516D02*
X2140Y516D01*
X2166Y516D02*
X2173Y516D01*
X2210Y516D02*
X2218Y516D01*
X2254Y516D02*
X2262Y516D01*
X2288Y516D02*
X2295Y516D01*
X2315Y516D02*
X2323Y516D01*
X2332Y516D02*
X2340Y516D01*
X2350Y516D02*
X2357Y516D01*
X2393Y516D02*
X2401Y516D01*
X2449Y516D02*
X2459Y516D01*
X1217Y515D02*
X1225Y515D01*
X1373Y515D02*
X1380Y515D01*
X1408Y515D02*
X1416Y515D01*
X1426Y515D02*
X1434Y515D01*
X1522Y515D02*
X1530Y515D01*
X1556Y515D02*
X1563Y515D01*
X1600Y515D02*
X1608Y515D01*
X1644Y515D02*
X1652Y515D01*
X1678Y515D02*
X1685Y515D01*
X1722Y515D02*
X1730Y515D01*
X1767Y515D02*
X1775Y515D01*
X1800Y515D02*
X1807Y515D01*
X1839Y515D02*
X1849Y515D01*
X1975Y515D02*
X1982Y515D01*
X2010Y515D02*
X2018Y515D01*
X2044Y515D02*
X2051Y515D01*
X2073Y515D02*
X2083Y515D01*
X2105Y515D02*
X2112Y515D01*
X2132Y515D02*
X2140Y515D01*
X2166Y515D02*
X2173Y515D01*
X2210Y515D02*
X2218Y515D01*
X2254Y515D02*
X2262Y515D01*
X2288Y515D02*
X2295Y515D01*
X2315Y515D02*
X2323Y515D01*
X2332Y515D02*
X2340Y515D01*
X2350Y515D02*
X2357Y515D01*
X2393Y515D02*
X2401Y515D01*
X2449Y515D02*
X2459Y515D01*
X1217Y514D02*
X1225Y514D01*
X1373Y514D02*
X1380Y514D01*
X1408Y514D02*
X1416Y514D01*
X1426Y514D02*
X1434Y514D01*
X1522Y514D02*
X1530Y514D01*
X1556Y514D02*
X1563Y514D01*
X1600Y514D02*
X1608Y514D01*
X1644Y514D02*
X1652Y514D01*
X1678Y514D02*
X1685Y514D01*
X1722Y514D02*
X1730Y514D01*
X1767Y514D02*
X1775Y514D01*
X1800Y514D02*
X1807Y514D01*
X1838Y514D02*
X1848Y514D01*
X1975Y514D02*
X1982Y514D01*
X2010Y514D02*
X2018Y514D01*
X2044Y514D02*
X2051Y514D01*
X2073Y514D02*
X2082Y514D01*
X2105Y514D02*
X2112Y514D01*
X2132Y514D02*
X2140Y514D01*
X2166Y514D02*
X2173Y514D01*
X2210Y514D02*
X2218Y514D01*
X2254Y514D02*
X2262Y514D01*
X2288Y514D02*
X2295Y514D01*
X2315Y514D02*
X2323Y514D01*
X2332Y514D02*
X2340Y514D01*
X2350Y514D02*
X2357Y514D01*
X2393Y514D02*
X2401Y514D01*
X2448Y514D02*
X2458Y514D01*
X1217Y513D02*
X1225Y513D01*
X1293Y513D02*
X1305Y513D01*
X1373Y513D02*
X1380Y513D01*
X1408Y513D02*
X1417Y513D01*
X1425Y513D02*
X1433Y513D01*
X1522Y513D02*
X1530Y513D01*
X1556Y513D02*
X1563Y513D01*
X1600Y513D02*
X1608Y513D01*
X1644Y513D02*
X1685Y513D01*
X1722Y513D02*
X1730Y513D01*
X1767Y513D02*
X1775Y513D01*
X1800Y513D02*
X1807Y513D01*
X1838Y513D02*
X1847Y513D01*
X1975Y513D02*
X1982Y513D01*
X2010Y513D02*
X2018Y513D01*
X2044Y513D02*
X2051Y513D01*
X2072Y513D02*
X2081Y513D01*
X2105Y513D02*
X2112Y513D01*
X2132Y513D02*
X2173Y513D01*
X2210Y513D02*
X2218Y513D01*
X2254Y513D02*
X2262Y513D01*
X2288Y513D02*
X2295Y513D01*
X2315Y513D02*
X2323Y513D01*
X2332Y513D02*
X2340Y513D01*
X2350Y513D02*
X2357Y513D01*
X2393Y513D02*
X2401Y513D01*
X2447Y513D02*
X2457Y513D01*
X1217Y512D02*
X1225Y512D01*
X1292Y512D02*
X1306Y512D01*
X1373Y512D02*
X1380Y512D01*
X1409Y512D02*
X1417Y512D01*
X1425Y512D02*
X1433Y512D01*
X1522Y512D02*
X1530Y512D01*
X1556Y512D02*
X1563Y512D01*
X1600Y512D02*
X1608Y512D01*
X1644Y512D02*
X1685Y512D01*
X1722Y512D02*
X1730Y512D01*
X1767Y512D02*
X1775Y512D01*
X1800Y512D02*
X1807Y512D01*
X1837Y512D02*
X1847Y512D01*
X1975Y512D02*
X1982Y512D01*
X2010Y512D02*
X2018Y512D01*
X2044Y512D02*
X2051Y512D01*
X2072Y512D02*
X2080Y512D01*
X2105Y512D02*
X2112Y512D01*
X2132Y512D02*
X2173Y512D01*
X2210Y512D02*
X2218Y512D01*
X2254Y512D02*
X2262Y512D01*
X2288Y512D02*
X2295Y512D01*
X2315Y512D02*
X2323Y512D01*
X2332Y512D02*
X2340Y512D01*
X2350Y512D02*
X2357Y512D01*
X2393Y512D02*
X2401Y512D01*
X2447Y512D02*
X2457Y512D01*
X1217Y511D02*
X1225Y511D01*
X1291Y511D02*
X1307Y511D01*
X1373Y511D02*
X1380Y511D01*
X1409Y511D02*
X1417Y511D01*
X1425Y511D02*
X1433Y511D01*
X1522Y511D02*
X1530Y511D01*
X1556Y511D02*
X1563Y511D01*
X1600Y511D02*
X1608Y511D01*
X1644Y511D02*
X1685Y511D01*
X1722Y511D02*
X1730Y511D01*
X1767Y511D02*
X1775Y511D01*
X1800Y511D02*
X1807Y511D01*
X1836Y511D02*
X1846Y511D01*
X1975Y511D02*
X1982Y511D01*
X2010Y511D02*
X2018Y511D01*
X2044Y511D02*
X2051Y511D01*
X2072Y511D02*
X2080Y511D01*
X2105Y511D02*
X2112Y511D01*
X2132Y511D02*
X2173Y511D01*
X2210Y511D02*
X2218Y511D01*
X2254Y511D02*
X2262Y511D01*
X2288Y511D02*
X2295Y511D01*
X2315Y511D02*
X2323Y511D01*
X2332Y511D02*
X2340Y511D01*
X2350Y511D02*
X2357Y511D01*
X2393Y511D02*
X2401Y511D01*
X2446Y511D02*
X2456Y511D01*
X1217Y510D02*
X1225Y510D01*
X1291Y510D02*
X1307Y510D01*
X1373Y510D02*
X1380Y510D01*
X1409Y510D02*
X1418Y510D01*
X1424Y510D02*
X1432Y510D01*
X1522Y510D02*
X1530Y510D01*
X1556Y510D02*
X1563Y510D01*
X1600Y510D02*
X1608Y510D01*
X1644Y510D02*
X1685Y510D01*
X1722Y510D02*
X1730Y510D01*
X1767Y510D02*
X1775Y510D01*
X1800Y510D02*
X1807Y510D01*
X1836Y510D02*
X1845Y510D01*
X1975Y510D02*
X1982Y510D01*
X2010Y510D02*
X2018Y510D01*
X2044Y510D02*
X2051Y510D01*
X2072Y510D02*
X2079Y510D01*
X2105Y510D02*
X2112Y510D01*
X2132Y510D02*
X2173Y510D01*
X2210Y510D02*
X2218Y510D01*
X2254Y510D02*
X2262Y510D01*
X2288Y510D02*
X2295Y510D01*
X2315Y510D02*
X2323Y510D01*
X2332Y510D02*
X2340Y510D01*
X2350Y510D02*
X2357Y510D01*
X2393Y510D02*
X2401Y510D01*
X2445Y510D02*
X2455Y510D01*
X1217Y509D02*
X1225Y509D01*
X1291Y509D02*
X1307Y509D01*
X1373Y509D02*
X1380Y509D01*
X1410Y509D02*
X1418Y509D01*
X1424Y509D02*
X1432Y509D01*
X1522Y509D02*
X1530Y509D01*
X1556Y509D02*
X1563Y509D01*
X1600Y509D02*
X1608Y509D01*
X1644Y509D02*
X1685Y509D01*
X1722Y509D02*
X1730Y509D01*
X1767Y509D02*
X1775Y509D01*
X1800Y509D02*
X1807Y509D01*
X1835Y509D02*
X1845Y509D01*
X1975Y509D02*
X1982Y509D01*
X2010Y509D02*
X2018Y509D01*
X2044Y509D02*
X2051Y509D01*
X2071Y509D02*
X2079Y509D01*
X2105Y509D02*
X2112Y509D01*
X2132Y509D02*
X2173Y509D01*
X2210Y509D02*
X2218Y509D01*
X2254Y509D02*
X2262Y509D01*
X2288Y509D02*
X2295Y509D01*
X2315Y509D02*
X2323Y509D01*
X2332Y509D02*
X2340Y509D01*
X2350Y509D02*
X2357Y509D01*
X2393Y509D02*
X2401Y509D01*
X2445Y509D02*
X2455Y509D01*
X1217Y508D02*
X1225Y508D01*
X1291Y508D02*
X1307Y508D01*
X1373Y508D02*
X1380Y508D01*
X1410Y508D02*
X1418Y508D01*
X1424Y508D02*
X1432Y508D01*
X1522Y508D02*
X1530Y508D01*
X1556Y508D02*
X1563Y508D01*
X1600Y508D02*
X1608Y508D01*
X1644Y508D02*
X1685Y508D01*
X1722Y508D02*
X1730Y508D01*
X1767Y508D02*
X1775Y508D01*
X1800Y508D02*
X1807Y508D01*
X1834Y508D02*
X1844Y508D01*
X1975Y508D02*
X1982Y508D01*
X2010Y508D02*
X2018Y508D01*
X2044Y508D02*
X2051Y508D01*
X2071Y508D02*
X2079Y508D01*
X2105Y508D02*
X2112Y508D01*
X2132Y508D02*
X2173Y508D01*
X2210Y508D02*
X2218Y508D01*
X2254Y508D02*
X2262Y508D01*
X2288Y508D02*
X2295Y508D01*
X2315Y508D02*
X2323Y508D01*
X2332Y508D02*
X2340Y508D01*
X2350Y508D02*
X2357Y508D01*
X2393Y508D02*
X2401Y508D01*
X2444Y508D02*
X2454Y508D01*
X1217Y507D02*
X1225Y507D01*
X1291Y507D02*
X1307Y507D01*
X1373Y507D02*
X1380Y507D01*
X1410Y507D02*
X1419Y507D01*
X1423Y507D02*
X1431Y507D01*
X1522Y507D02*
X1530Y507D01*
X1556Y507D02*
X1563Y507D01*
X1600Y507D02*
X1608Y507D01*
X1645Y507D02*
X1685Y507D01*
X1722Y507D02*
X1730Y507D01*
X1767Y507D02*
X1775Y507D01*
X1800Y507D02*
X1807Y507D01*
X1834Y507D02*
X1844Y507D01*
X1975Y507D02*
X1982Y507D01*
X2010Y507D02*
X2018Y507D01*
X2044Y507D02*
X2051Y507D01*
X2071Y507D02*
X2079Y507D01*
X2105Y507D02*
X2112Y507D01*
X2133Y507D02*
X2173Y507D01*
X2210Y507D02*
X2218Y507D01*
X2254Y507D02*
X2262Y507D01*
X2288Y507D02*
X2295Y507D01*
X2315Y507D02*
X2323Y507D01*
X2332Y507D02*
X2340Y507D01*
X2350Y507D02*
X2357Y507D01*
X2393Y507D02*
X2401Y507D01*
X2444Y507D02*
X2453Y507D01*
X1217Y506D02*
X1225Y506D01*
X1291Y506D02*
X1307Y506D01*
X1373Y506D02*
X1380Y506D01*
X1411Y506D02*
X1419Y506D01*
X1423Y506D02*
X1431Y506D01*
X1522Y506D02*
X1530Y506D01*
X1556Y506D02*
X1563Y506D01*
X1600Y506D02*
X1608Y506D01*
X1645Y506D02*
X1685Y506D01*
X1722Y506D02*
X1730Y506D01*
X1767Y506D02*
X1775Y506D01*
X1800Y506D02*
X1807Y506D01*
X1833Y506D02*
X1843Y506D01*
X1975Y506D02*
X1982Y506D01*
X2010Y506D02*
X2018Y506D01*
X2044Y506D02*
X2051Y506D01*
X2071Y506D02*
X2079Y506D01*
X2105Y506D02*
X2112Y506D01*
X2133Y506D02*
X2173Y506D01*
X2210Y506D02*
X2218Y506D01*
X2254Y506D02*
X2262Y506D01*
X2288Y506D02*
X2295Y506D01*
X2315Y506D02*
X2323Y506D01*
X2332Y506D02*
X2340Y506D01*
X2350Y506D02*
X2357Y506D01*
X2393Y506D02*
X2401Y506D01*
X2443Y506D02*
X2453Y506D01*
X1217Y505D02*
X1225Y505D01*
X1291Y505D02*
X1307Y505D01*
X1373Y505D02*
X1380Y505D01*
X1411Y505D02*
X1419Y505D01*
X1423Y505D02*
X1431Y505D01*
X1522Y505D02*
X1530Y505D01*
X1556Y505D02*
X1563Y505D01*
X1600Y505D02*
X1608Y505D01*
X1646Y505D02*
X1685Y505D01*
X1722Y505D02*
X1730Y505D01*
X1767Y505D02*
X1775Y505D01*
X1800Y505D02*
X1807Y505D01*
X1832Y505D02*
X1842Y505D01*
X1975Y505D02*
X1982Y505D01*
X2010Y505D02*
X2018Y505D01*
X2044Y505D02*
X2051Y505D01*
X2071Y505D02*
X2079Y505D01*
X2105Y505D02*
X2112Y505D01*
X2134Y505D02*
X2173Y505D01*
X2210Y505D02*
X2218Y505D01*
X2254Y505D02*
X2262Y505D01*
X2288Y505D02*
X2295Y505D01*
X2315Y505D02*
X2323Y505D01*
X2332Y505D02*
X2340Y505D01*
X2350Y505D02*
X2357Y505D01*
X2393Y505D02*
X2401Y505D01*
X2442Y505D02*
X2452Y505D01*
X1217Y504D02*
X1225Y504D01*
X1291Y504D02*
X1307Y504D01*
X1373Y504D02*
X1380Y504D01*
X1411Y504D02*
X1420Y504D01*
X1422Y504D02*
X1431Y504D01*
X1522Y504D02*
X1530Y504D01*
X1556Y504D02*
X1563Y504D01*
X1600Y504D02*
X1608Y504D01*
X1647Y504D02*
X1685Y504D01*
X1722Y504D02*
X1730Y504D01*
X1767Y504D02*
X1775Y504D01*
X1800Y504D02*
X1807Y504D01*
X1832Y504D02*
X1842Y504D01*
X1975Y504D02*
X1982Y504D01*
X2010Y504D02*
X2018Y504D01*
X2044Y504D02*
X2051Y504D01*
X2071Y504D02*
X2079Y504D01*
X2105Y504D02*
X2112Y504D01*
X2135Y504D02*
X2173Y504D01*
X2210Y504D02*
X2218Y504D01*
X2254Y504D02*
X2262Y504D01*
X2288Y504D02*
X2295Y504D01*
X2315Y504D02*
X2323Y504D01*
X2332Y504D02*
X2340Y504D01*
X2350Y504D02*
X2357Y504D01*
X2393Y504D02*
X2401Y504D01*
X2442Y504D02*
X2451Y504D01*
X1217Y503D02*
X1225Y503D01*
X1291Y503D02*
X1307Y503D01*
X1373Y503D02*
X1380Y503D01*
X1412Y503D02*
X1420Y503D01*
X1422Y503D02*
X1430Y503D01*
X1522Y503D02*
X1530Y503D01*
X1556Y503D02*
X1563Y503D01*
X1600Y503D02*
X1608Y503D01*
X1678Y503D02*
X1685Y503D01*
X1722Y503D02*
X1730Y503D01*
X1767Y503D02*
X1775Y503D01*
X1800Y503D02*
X1807Y503D01*
X1831Y503D02*
X1841Y503D01*
X1975Y503D02*
X1982Y503D01*
X2010Y503D02*
X2018Y503D01*
X2044Y503D02*
X2051Y503D01*
X2071Y503D02*
X2079Y503D01*
X2105Y503D02*
X2112Y503D01*
X2166Y503D02*
X2173Y503D01*
X2210Y503D02*
X2218Y503D01*
X2254Y503D02*
X2262Y503D01*
X2288Y503D02*
X2295Y503D01*
X2315Y503D02*
X2323Y503D01*
X2332Y503D02*
X2340Y503D01*
X2350Y503D02*
X2357Y503D01*
X2393Y503D02*
X2401Y503D01*
X2441Y503D02*
X2451Y503D01*
X1217Y502D02*
X1225Y502D01*
X1291Y502D02*
X1307Y502D01*
X1373Y502D02*
X1380Y502D01*
X1412Y502D02*
X1430Y502D01*
X1522Y502D02*
X1531Y502D01*
X1556Y502D02*
X1563Y502D01*
X1600Y502D02*
X1608Y502D01*
X1678Y502D02*
X1685Y502D01*
X1722Y502D02*
X1730Y502D01*
X1767Y502D02*
X1775Y502D01*
X1800Y502D02*
X1807Y502D01*
X1830Y502D02*
X1840Y502D01*
X1975Y502D02*
X1982Y502D01*
X2010Y502D02*
X2018Y502D01*
X2044Y502D02*
X2051Y502D01*
X2071Y502D02*
X2079Y502D01*
X2105Y502D02*
X2112Y502D01*
X2166Y502D02*
X2173Y502D01*
X2210Y502D02*
X2218Y502D01*
X2254Y502D02*
X2262Y502D01*
X2287Y502D02*
X2295Y502D01*
X2315Y502D02*
X2323Y502D01*
X2332Y502D02*
X2340Y502D01*
X2350Y502D02*
X2357Y502D01*
X2393Y502D02*
X2401Y502D01*
X2440Y502D02*
X2450Y502D01*
X1217Y501D02*
X1225Y501D01*
X1291Y501D02*
X1307Y501D01*
X1373Y501D02*
X1380Y501D01*
X1412Y501D02*
X1430Y501D01*
X1522Y501D02*
X1532Y501D01*
X1556Y501D02*
X1563Y501D01*
X1600Y501D02*
X1608Y501D01*
X1678Y501D02*
X1685Y501D01*
X1722Y501D02*
X1730Y501D01*
X1767Y501D02*
X1775Y501D01*
X1800Y501D02*
X1807Y501D01*
X1830Y501D02*
X1840Y501D01*
X1864Y501D02*
X1865Y501D01*
X1953Y501D02*
X1953Y501D01*
X1975Y501D02*
X1982Y501D01*
X2010Y501D02*
X2018Y501D01*
X2044Y501D02*
X2051Y501D01*
X2071Y501D02*
X2079Y501D01*
X2105Y501D02*
X2112Y501D01*
X2166Y501D02*
X2173Y501D01*
X2210Y501D02*
X2218Y501D01*
X2254Y501D02*
X2262Y501D01*
X2287Y501D02*
X2295Y501D01*
X2315Y501D02*
X2323Y501D01*
X2332Y501D02*
X2340Y501D01*
X2350Y501D02*
X2357Y501D01*
X2393Y501D02*
X2401Y501D01*
X2440Y501D02*
X2449Y501D01*
X2474Y501D02*
X2475Y501D01*
X1217Y500D02*
X1225Y500D01*
X1291Y500D02*
X1307Y500D01*
X1373Y500D02*
X1380Y500D01*
X1413Y500D02*
X1429Y500D01*
X1522Y500D02*
X1533Y500D01*
X1556Y500D02*
X1563Y500D01*
X1600Y500D02*
X1608Y500D01*
X1678Y500D02*
X1685Y500D01*
X1722Y500D02*
X1730Y500D01*
X1767Y500D02*
X1775Y500D01*
X1800Y500D02*
X1807Y500D01*
X1829Y500D02*
X1839Y500D01*
X1863Y500D02*
X1867Y500D01*
X1951Y500D02*
X1955Y500D01*
X1975Y500D02*
X1982Y500D01*
X2010Y500D02*
X2018Y500D01*
X2044Y500D02*
X2051Y500D01*
X2071Y500D02*
X2079Y500D01*
X2105Y500D02*
X2112Y500D01*
X2166Y500D02*
X2173Y500D01*
X2210Y500D02*
X2218Y500D01*
X2255Y500D02*
X2263Y500D01*
X2286Y500D02*
X2295Y500D01*
X2315Y500D02*
X2323Y500D01*
X2332Y500D02*
X2340Y500D01*
X2350Y500D02*
X2357Y500D01*
X2393Y500D02*
X2401Y500D01*
X2439Y500D02*
X2449Y500D01*
X2472Y500D02*
X2477Y500D01*
X1217Y499D02*
X1225Y499D01*
X1291Y499D02*
X1307Y499D01*
X1373Y499D02*
X1380Y499D01*
X1413Y499D02*
X1429Y499D01*
X1522Y499D02*
X1534Y499D01*
X1556Y499D02*
X1563Y499D01*
X1600Y499D02*
X1608Y499D01*
X1678Y499D02*
X1685Y499D01*
X1722Y499D02*
X1730Y499D01*
X1767Y499D02*
X1775Y499D01*
X1800Y499D02*
X1807Y499D01*
X1829Y499D02*
X1838Y499D01*
X1862Y499D02*
X1868Y499D01*
X1950Y499D02*
X1956Y499D01*
X1975Y499D02*
X1982Y499D01*
X2010Y499D02*
X2018Y499D01*
X2044Y499D02*
X2051Y499D01*
X2072Y499D02*
X2079Y499D01*
X2105Y499D02*
X2112Y499D01*
X2166Y499D02*
X2173Y499D01*
X2210Y499D02*
X2218Y499D01*
X2255Y499D02*
X2263Y499D01*
X2285Y499D02*
X2295Y499D01*
X2315Y499D02*
X2323Y499D01*
X2332Y499D02*
X2340Y499D01*
X2350Y499D02*
X2357Y499D01*
X2393Y499D02*
X2401Y499D01*
X2438Y499D02*
X2448Y499D01*
X2472Y499D02*
X2478Y499D01*
X1217Y498D02*
X1225Y498D01*
X1291Y498D02*
X1307Y498D01*
X1373Y498D02*
X1380Y498D01*
X1413Y498D02*
X1429Y498D01*
X1522Y498D02*
X1535Y498D01*
X1555Y498D02*
X1563Y498D01*
X1600Y498D02*
X1608Y498D01*
X1677Y498D02*
X1685Y498D01*
X1722Y498D02*
X1730Y498D01*
X1767Y498D02*
X1775Y498D01*
X1800Y498D02*
X1807Y498D01*
X1828Y498D02*
X1838Y498D01*
X1861Y498D02*
X1868Y498D01*
X1950Y498D02*
X1956Y498D01*
X1975Y498D02*
X1982Y498D01*
X2010Y498D02*
X2019Y498D01*
X2043Y498D02*
X2051Y498D01*
X2072Y498D02*
X2080Y498D01*
X2105Y498D02*
X2112Y498D01*
X2165Y498D02*
X2173Y498D01*
X2210Y498D02*
X2218Y498D01*
X2255Y498D02*
X2264Y498D01*
X2284Y498D02*
X2295Y498D01*
X2315Y498D02*
X2323Y498D01*
X2332Y498D02*
X2340Y498D01*
X2350Y498D02*
X2357Y498D01*
X2393Y498D02*
X2401Y498D01*
X2438Y498D02*
X2448Y498D01*
X2471Y498D02*
X2478Y498D01*
X1217Y497D02*
X1225Y497D01*
X1292Y497D02*
X1306Y497D01*
X1373Y497D02*
X1380Y497D01*
X1414Y497D02*
X1428Y497D01*
X1522Y497D02*
X1536Y497D01*
X1555Y497D02*
X1563Y497D01*
X1600Y497D02*
X1608Y497D01*
X1677Y497D02*
X1685Y497D01*
X1722Y497D02*
X1730Y497D01*
X1767Y497D02*
X1775Y497D01*
X1800Y497D02*
X1807Y497D01*
X1828Y497D02*
X1837Y497D01*
X1861Y497D02*
X1868Y497D01*
X1949Y497D02*
X1957Y497D01*
X1975Y497D02*
X1982Y497D01*
X2011Y497D02*
X2019Y497D01*
X2043Y497D02*
X2051Y497D01*
X2072Y497D02*
X2080Y497D01*
X2105Y497D02*
X2112Y497D01*
X2165Y497D02*
X2173Y497D01*
X2210Y497D02*
X2218Y497D01*
X2255Y497D02*
X2265Y497D01*
X2283Y497D02*
X2295Y497D01*
X2315Y497D02*
X2323Y497D01*
X2332Y497D02*
X2340Y497D01*
X2350Y497D02*
X2357Y497D01*
X2393Y497D02*
X2401Y497D01*
X2438Y497D02*
X2447Y497D01*
X2471Y497D02*
X2478Y497D01*
X1217Y496D02*
X1225Y496D01*
X1253Y496D02*
X1257Y496D01*
X1293Y496D02*
X1305Y496D01*
X1373Y496D02*
X1380Y496D01*
X1414Y496D02*
X1428Y496D01*
X1522Y496D02*
X1537Y496D01*
X1554Y496D02*
X1563Y496D01*
X1600Y496D02*
X1608Y496D01*
X1676Y496D02*
X1685Y496D01*
X1722Y496D02*
X1730Y496D01*
X1767Y496D02*
X1775Y496D01*
X1800Y496D02*
X1807Y496D01*
X1828Y496D02*
X1836Y496D01*
X1861Y496D02*
X1868Y496D01*
X1949Y496D02*
X1957Y496D01*
X1974Y496D02*
X1982Y496D01*
X2011Y496D02*
X2020Y496D01*
X2042Y496D02*
X2051Y496D01*
X2072Y496D02*
X2081Y496D01*
X2105Y496D02*
X2112Y496D01*
X2164Y496D02*
X2173Y496D01*
X2210Y496D02*
X2218Y496D01*
X2256Y496D02*
X2266Y496D01*
X2283Y496D02*
X2295Y496D01*
X2315Y496D02*
X2323Y496D01*
X2332Y496D02*
X2340Y496D01*
X2350Y496D02*
X2357Y496D01*
X2393Y496D02*
X2401Y496D01*
X2438Y496D02*
X2446Y496D01*
X2471Y496D02*
X2478Y496D01*
X1217Y495D02*
X1225Y495D01*
X1251Y495D02*
X1258Y495D01*
X1373Y495D02*
X1380Y495D01*
X1414Y495D02*
X1428Y495D01*
X1522Y495D02*
X1538Y495D01*
X1553Y495D02*
X1563Y495D01*
X1600Y495D02*
X1608Y495D01*
X1675Y495D02*
X1685Y495D01*
X1722Y495D02*
X1730Y495D01*
X1767Y495D02*
X1775Y495D01*
X1800Y495D02*
X1807Y495D01*
X1828Y495D02*
X1836Y495D01*
X1861Y495D02*
X1868Y495D01*
X1949Y495D02*
X1958Y495D01*
X1974Y495D02*
X1982Y495D01*
X2011Y495D02*
X2021Y495D01*
X2041Y495D02*
X2051Y495D01*
X2073Y495D02*
X2082Y495D01*
X2105Y495D02*
X2112Y495D01*
X2163Y495D02*
X2173Y495D01*
X2210Y495D02*
X2218Y495D01*
X2256Y495D02*
X2267Y495D01*
X2282Y495D02*
X2295Y495D01*
X2315Y495D02*
X2323Y495D01*
X2332Y495D02*
X2340Y495D01*
X2350Y495D02*
X2357Y495D01*
X2393Y495D02*
X2401Y495D01*
X2437Y495D02*
X2446Y495D01*
X2471Y495D02*
X2478Y495D01*
X1217Y494D02*
X1225Y494D01*
X1249Y494D02*
X1258Y494D01*
X1373Y494D02*
X1380Y494D01*
X1415Y494D02*
X1427Y494D01*
X1522Y494D02*
X1539Y494D01*
X1552Y494D02*
X1562Y494D01*
X1600Y494D02*
X1608Y494D01*
X1674Y494D02*
X1684Y494D01*
X1722Y494D02*
X1730Y494D01*
X1767Y494D02*
X1775Y494D01*
X1800Y494D02*
X1807Y494D01*
X1827Y494D02*
X1835Y494D01*
X1860Y494D02*
X1868Y494D01*
X1950Y494D02*
X1958Y494D01*
X1973Y494D02*
X1982Y494D01*
X2012Y494D02*
X2022Y494D01*
X2040Y494D02*
X2050Y494D01*
X2073Y494D02*
X2083Y494D01*
X2105Y494D02*
X2112Y494D01*
X2162Y494D02*
X2172Y494D01*
X2210Y494D02*
X2218Y494D01*
X2257Y494D02*
X2268Y494D01*
X2281Y494D02*
X2295Y494D01*
X2315Y494D02*
X2323Y494D01*
X2332Y494D02*
X2340Y494D01*
X2350Y494D02*
X2357Y494D01*
X2393Y494D02*
X2401Y494D01*
X2437Y494D02*
X2445Y494D01*
X2470Y494D02*
X2478Y494D01*
X1217Y493D02*
X1225Y493D01*
X1247Y493D02*
X1258Y493D01*
X1373Y493D02*
X1380Y493D01*
X1415Y493D02*
X1427Y493D01*
X1522Y493D02*
X1540Y493D01*
X1550Y493D02*
X1562Y493D01*
X1600Y493D02*
X1608Y493D01*
X1672Y493D02*
X1684Y493D01*
X1722Y493D02*
X1730Y493D01*
X1767Y493D02*
X1775Y493D01*
X1800Y493D02*
X1807Y493D01*
X1828Y493D02*
X1835Y493D01*
X1859Y493D02*
X1868Y493D01*
X1950Y493D02*
X1959Y493D01*
X1972Y493D02*
X1981Y493D01*
X2012Y493D02*
X2023Y493D01*
X2038Y493D02*
X2050Y493D01*
X2073Y493D02*
X2085Y493D01*
X2105Y493D02*
X2112Y493D01*
X2160Y493D02*
X2172Y493D01*
X2210Y493D02*
X2218Y493D01*
X2257Y493D02*
X2269Y493D01*
X2280Y493D02*
X2295Y493D01*
X2315Y493D02*
X2323Y493D01*
X2332Y493D02*
X2340Y493D01*
X2350Y493D02*
X2357Y493D01*
X2393Y493D02*
X2401Y493D01*
X2437Y493D02*
X2445Y493D01*
X2469Y493D02*
X2478Y493D01*
X1217Y492D02*
X1258Y492D01*
X1342Y492D02*
X1380Y492D01*
X1415Y492D02*
X1427Y492D01*
X1522Y492D02*
X1561Y492D01*
X1590Y492D02*
X1618Y492D01*
X1647Y492D02*
X1683Y492D01*
X1712Y492D02*
X1740Y492D01*
X1767Y492D02*
X1775Y492D01*
X1800Y492D02*
X1807Y492D01*
X1828Y492D02*
X1868Y492D01*
X1950Y492D02*
X1981Y492D01*
X2013Y492D02*
X2049Y492D01*
X2074Y492D02*
X2112Y492D01*
X2135Y492D02*
X2171Y492D01*
X2200Y492D02*
X2228Y492D01*
X2258Y492D02*
X2270Y492D01*
X2279Y492D02*
X2295Y492D01*
X2315Y492D02*
X2323Y492D01*
X2332Y492D02*
X2340Y492D01*
X2350Y492D02*
X2357Y492D01*
X2383Y492D02*
X2411Y492D01*
X2438Y492D02*
X2478Y492D01*
X1218Y491D02*
X1258Y491D01*
X1341Y491D02*
X1380Y491D01*
X1416Y491D02*
X1426Y491D01*
X1522Y491D02*
X1561Y491D01*
X1589Y491D02*
X1619Y491D01*
X1646Y491D02*
X1683Y491D01*
X1711Y491D02*
X1741Y491D01*
X1767Y491D02*
X1775Y491D01*
X1800Y491D02*
X1807Y491D01*
X1828Y491D02*
X1868Y491D01*
X1951Y491D02*
X1981Y491D01*
X2013Y491D02*
X2049Y491D01*
X2075Y491D02*
X2112Y491D01*
X2134Y491D02*
X2171Y491D01*
X2199Y491D02*
X2229Y491D01*
X2259Y491D02*
X2271Y491D01*
X2278Y491D02*
X2295Y491D01*
X2315Y491D02*
X2323Y491D01*
X2332Y491D02*
X2340Y491D01*
X2350Y491D02*
X2357Y491D01*
X2382Y491D02*
X2412Y491D01*
X2438Y491D02*
X2478Y491D01*
X1218Y490D02*
X1258Y490D01*
X1340Y490D02*
X1380Y490D01*
X1416Y490D02*
X1426Y490D01*
X1522Y490D02*
X1560Y490D01*
X1588Y490D02*
X1620Y490D01*
X1645Y490D02*
X1682Y490D01*
X1710Y490D02*
X1742Y490D01*
X1767Y490D02*
X1775Y490D01*
X1800Y490D02*
X1807Y490D01*
X1828Y490D02*
X1867Y490D01*
X1951Y490D02*
X1980Y490D01*
X2014Y490D02*
X2048Y490D01*
X2075Y490D02*
X2112Y490D01*
X2133Y490D02*
X2170Y490D01*
X2198Y490D02*
X2230Y490D01*
X2260Y490D02*
X2295Y490D01*
X2315Y490D02*
X2323Y490D01*
X2332Y490D02*
X2340Y490D01*
X2350Y490D02*
X2357Y490D01*
X2381Y490D02*
X2413Y490D01*
X2438Y490D02*
X2477Y490D01*
X1218Y489D02*
X1258Y489D01*
X1340Y489D02*
X1380Y489D01*
X1416Y489D02*
X1426Y489D01*
X1522Y489D02*
X1559Y489D01*
X1588Y489D02*
X1620Y489D01*
X1645Y489D02*
X1681Y489D01*
X1710Y489D02*
X1742Y489D01*
X1767Y489D02*
X1775Y489D01*
X1800Y489D02*
X1807Y489D01*
X1828Y489D02*
X1867Y489D01*
X1952Y489D02*
X1980Y489D01*
X2015Y489D02*
X2047Y489D01*
X2076Y489D02*
X2112Y489D01*
X2133Y489D02*
X2169Y489D01*
X2198Y489D02*
X2230Y489D01*
X2261Y489D02*
X2295Y489D01*
X2315Y489D02*
X2323Y489D01*
X2332Y489D02*
X2340Y489D01*
X2350Y489D02*
X2357Y489D01*
X2381Y489D02*
X2413Y489D01*
X2438Y489D02*
X2477Y489D01*
X1218Y488D02*
X1257Y488D01*
X1339Y488D02*
X1380Y488D01*
X1417Y488D02*
X1425Y488D01*
X1522Y488D02*
X1530Y488D01*
X1532Y488D02*
X1558Y488D01*
X1588Y488D02*
X1620Y488D01*
X1644Y488D02*
X1680Y488D01*
X1710Y488D02*
X1742Y488D01*
X1767Y488D02*
X1775Y488D01*
X1800Y488D02*
X1807Y488D01*
X1829Y488D02*
X1866Y488D01*
X1952Y488D02*
X1979Y488D01*
X2016Y488D02*
X2046Y488D01*
X2077Y488D02*
X2112Y488D01*
X2132Y488D02*
X2168Y488D01*
X2198Y488D02*
X2230Y488D01*
X2262Y488D02*
X2295Y488D01*
X2315Y488D02*
X2323Y488D01*
X2332Y488D02*
X2340Y488D01*
X2350Y488D02*
X2357Y488D01*
X2381Y488D02*
X2413Y488D01*
X2439Y488D02*
X2476Y488D01*
X1219Y487D02*
X1256Y487D01*
X1339Y487D02*
X1380Y487D01*
X1417Y487D02*
X1425Y487D01*
X1522Y487D02*
X1530Y487D01*
X1533Y487D02*
X1557Y487D01*
X1588Y487D02*
X1620Y487D01*
X1644Y487D02*
X1679Y487D01*
X1710Y487D02*
X1742Y487D01*
X1767Y487D02*
X1774Y487D01*
X1800Y487D02*
X1807Y487D01*
X1829Y487D02*
X1865Y487D01*
X1953Y487D02*
X1978Y487D01*
X2017Y487D02*
X2045Y487D01*
X2078Y487D02*
X2112Y487D01*
X2132Y487D02*
X2167Y487D01*
X2198Y487D02*
X2230Y487D01*
X2263Y487D02*
X2286Y487D01*
X2288Y487D02*
X2295Y487D01*
X2315Y487D02*
X2323Y487D01*
X2332Y487D02*
X2340Y487D01*
X2350Y487D02*
X2357Y487D01*
X2381Y487D02*
X2413Y487D01*
X2439Y487D02*
X2475Y487D01*
X1220Y486D02*
X1254Y486D01*
X1340Y486D02*
X1380Y486D01*
X1417Y486D02*
X1425Y486D01*
X1523Y486D02*
X1530Y486D01*
X1534Y486D02*
X1556Y486D01*
X1588Y486D02*
X1620Y486D01*
X1645Y486D02*
X1678Y486D01*
X1710Y486D02*
X1742Y486D01*
X1767Y486D02*
X1774Y486D01*
X1800Y486D02*
X1807Y486D01*
X1830Y486D02*
X1865Y486D01*
X1954Y486D02*
X1977Y486D01*
X2018Y486D02*
X2044Y486D01*
X2079Y486D02*
X2112Y486D01*
X2133Y486D02*
X2166Y486D01*
X2198Y486D02*
X2230Y486D01*
X2264Y486D02*
X2285Y486D01*
X2288Y486D02*
X2295Y486D01*
X2316Y486D02*
X2323Y486D01*
X2332Y486D02*
X2339Y486D01*
X2350Y486D02*
X2357Y486D01*
X2381Y486D02*
X2413Y486D01*
X2440Y486D02*
X2475Y486D01*
X1220Y485D02*
X1252Y485D01*
X1340Y485D02*
X1380Y485D01*
X1418Y485D02*
X1424Y485D01*
X1523Y485D02*
X1529Y485D01*
X1535Y485D02*
X1555Y485D01*
X1588Y485D02*
X1620Y485D01*
X1645Y485D02*
X1677Y485D01*
X1710Y485D02*
X1742Y485D01*
X1768Y485D02*
X1774Y485D01*
X1800Y485D02*
X1807Y485D01*
X1831Y485D02*
X1864Y485D01*
X1955Y485D02*
X1976Y485D01*
X2019Y485D02*
X2043Y485D01*
X2080Y485D02*
X2112Y485D01*
X2133Y485D02*
X2165Y485D01*
X2198Y485D02*
X2230Y485D01*
X2265Y485D02*
X2284Y485D01*
X2288Y485D02*
X2295Y485D01*
X2316Y485D02*
X2322Y485D01*
X2333Y485D02*
X2339Y485D01*
X2350Y485D02*
X2356Y485D01*
X2381Y485D02*
X2413Y485D01*
X2441Y485D02*
X2473Y485D01*
X1222Y484D02*
X1250Y484D01*
X1341Y484D02*
X1380Y484D01*
X1418Y484D02*
X1424Y484D01*
X1524Y484D02*
X1529Y484D01*
X1537Y484D02*
X1553Y484D01*
X1589Y484D02*
X1619Y484D01*
X1646Y484D02*
X1675Y484D01*
X1711Y484D02*
X1741Y484D01*
X1768Y484D02*
X1773Y484D01*
X1801Y484D02*
X1806Y484D01*
X1832Y484D02*
X1862Y484D01*
X1957Y484D02*
X1975Y484D01*
X2021Y484D02*
X2041Y484D01*
X2082Y484D02*
X2112Y484D01*
X2134Y484D02*
X2163Y484D01*
X2199Y484D02*
X2229Y484D01*
X2266Y484D02*
X2284Y484D01*
X2288Y484D02*
X2295Y484D01*
X2317Y484D02*
X2322Y484D01*
X2333Y484D02*
X2338Y484D01*
X2351Y484D02*
X2356Y484D01*
X2382Y484D02*
X2412Y484D01*
X2442Y484D02*
X2472Y484D01*
X1223Y483D02*
X1248Y483D01*
X1342Y483D02*
X1380Y483D01*
X1419Y483D02*
X1422Y483D01*
X1525Y483D02*
X1528Y483D01*
X1539Y483D02*
X1551Y483D01*
X1590Y483D02*
X1618Y483D01*
X1647Y483D02*
X1673Y483D01*
X1712Y483D02*
X1740Y483D01*
X1769Y483D02*
X1772Y483D01*
X1802Y483D02*
X1805Y483D01*
X1834Y483D02*
X1860Y483D01*
X1959Y483D02*
X1973Y483D01*
X2023Y483D02*
X2039Y483D01*
X2085Y483D02*
X2112Y483D01*
X2135Y483D02*
X2161Y483D01*
X2200Y483D02*
X2228Y483D01*
X2267Y483D02*
X2282Y483D01*
X2288Y483D02*
X2295Y483D01*
X2318Y483D02*
X2320Y483D01*
X2335Y483D02*
X2337Y483D01*
X2352Y483D02*
X2355Y483D01*
X2383Y483D02*
X2411Y483D01*
X2444Y483D02*
X2470Y483D01*
X2269Y482D02*
X2281Y482D01*
X2288Y482D02*
X2295Y482D01*
X2271Y481D02*
X2279Y481D01*
X2288Y481D02*
X2295Y481D01*
X2288Y480D02*
X2295Y480D01*
X2288Y479D02*
X2295Y479D01*
X2288Y478D02*
X2295Y478D01*
X2288Y477D02*
X2295Y477D01*
X2288Y476D02*
X2295Y476D01*
X2288Y475D02*
X2295Y475D01*
X2288Y474D02*
X2295Y474D01*
X2288Y473D02*
X2295Y473D01*
X2288Y472D02*
X2295Y472D01*
X2288Y471D02*
X2295Y471D01*
X2288Y470D02*
X2295Y470D01*
X2288Y469D02*
X2295Y469D01*
X2288Y468D02*
X2295Y468D01*
X2288Y467D02*
X2295Y467D01*
X2288Y466D02*
X2295Y466D01*
X2288Y465D02*
X2295Y465D01*
X2288Y464D02*
X2295Y464D01*
X2289Y463D02*
X2294Y463D01*
X2290Y462D02*
X2293Y462D01*
D02*
G04 End of Silk0*
M02*