; NON-PLATED HOLES START AT T1
; THROUGH (PLATED) HOLES START AT T100
M48
INCH
T1C0.086614
T100C0.033454
T101C0.015748
T102C0.038000
T103C0.036000
T104C0.027559
%
T1
X024064Y006802
X008463Y013074
X005726Y001234
X009514Y013074
X025258Y006802
X006777Y001234
T100
X025198Y013464
X023115Y019998
X013115Y000998
X021115Y019998
X006468Y018449
X021115Y000998
X007507Y018449
X025198Y011480
X013515Y019998
X007515Y019998
X016515Y019998
X023115Y000998
X011515Y019998
X025198Y012472
X020115Y019998
X008547Y018449
X015115Y000998
X012115Y000998
X006468Y017457
X017115Y000998
X019115Y019998
X014115Y000998
X025115Y019998
X020115Y000998
X007507Y017457
X009515Y019998
X026198Y013464
X024115Y019998
X010515Y019998
X025115Y000998
X022115Y000998
X022115Y019998
X008547Y017457
X015515Y019998
X024115Y000998
X026198Y011480
X018115Y019998
X014515Y019998
X008515Y019998
X016115Y000998
X012515Y019998
X026198Y012472
X018115Y000998
X011115Y000998
T101
X006515Y002892
X008515Y004881
X007515Y003892
X006092Y002300
X015074Y002342
T102
X022226Y011892
X004130Y004892
X003515Y009892
X004515Y006892
X004130Y003892
X002515Y009892
X022226Y016892
X004515Y008892
X003515Y006892
X022226Y015892
X004515Y007892
X002515Y006892
X001515Y004892
X022226Y014892
X003515Y008892
X001515Y003892
X022226Y013892
X004130Y002892
X004515Y009892
X002515Y008892
X003515Y007892
X022226Y012892
X004130Y001892
X002515Y007892
T103
X011515Y003892
X017515Y003892
X021515Y009892
X010515Y003892
X014515Y009892
X016515Y003892
X020515Y009892
X021515Y003892
X015515Y009892
X014515Y003892
X020515Y003892
X024515Y009892
X013515Y009892
X015515Y003892
X019515Y009892
X012515Y009892
X024515Y003892
X018515Y009892
X013515Y003892
X019515Y003892
X023515Y009892
X012515Y003892
X018515Y003892
X022515Y009892
X011515Y009892
X023515Y003892
X017515Y009892
X010515Y009892
X022515Y003892
X016515Y009892
T104
X004515Y011168
X004515Y015105
X004515Y018255
X004515Y011955
X004515Y013530
X004515Y016680
X004515Y017467
X004515Y015892
X004515Y014317
X004515Y012743
T00
M30
