  0
SECTION
  2
HEADER
  9
$ACADVER
  1
AC1014
  9
$HANDSEED
  5
FFFF
  9
$MEASUREMENT
 70
     1
  0
ENDSEC
  0
SECTION
  2
TABLES
  0
TABLE
  2
VPORT
  5
8
330
0
100
AcDbSymbolTable
 70
     4
  0
VPORT
  5
2E
330
8
100
AcDbSymbolTableRecord
100
AcDbViewportTableRecord
  2
*ACTIVE
 70
     0
 10
0.0
 20
0.0
 11
1.0
 21
1.0
 12
210.0
 22
148.5
 13
0.0
 23
0.0
 14
10.0
 24
10.0
 15
10.0
 25
10.0
 16
0.0
 26
0.0
 36
1.0
 17
0.0
 27
0.0
 37
0.0
 40
341.0
 41
1.24
 42
50.0
 43
0.0
 44
0.0
 50
0.0
 51
0.0
 71
     0
 72
   100
 73
     1
 74
     3
 75
     0
 76
     0
 77
     0
 78
     0
  0
ENDTAB
  0
TABLE
  2
LTYPE
  5
5
330
0
100
AcDbSymbolTable
 70
     1
  0
LTYPE
  5
14
330
5
100
AcDbSymbolTableRecord
100
AcDbLinetypeTableRecord
  2
BYBLOCK
 70
     0
  3

 72
    65
 73
     0
 40
0.0
  0
LTYPE
  5
15
330
5
100
AcDbSymbolTableRecord
100
AcDbLinetypeTableRecord
  2
BYLAYER
 70
     0
  3

 72
    65
 73
     0
 40
0.0
  0
LTYPE
  5
16
330
5
100
AcDbSymbolTableRecord
100
AcDbLinetypeTableRecord
  2
CONTINUOUS
 70
     0
  3
Solid line
 72
    65
 73
     0
 40
0.0
  0
ENDTAB
  0
TABLE
  2
LAYER
  5
2
100
AcDbSymbolTable
 70
9
  0
LAYER
  5
50
100
AcDbSymbolTableRecord
100
AcDbLayerTableRecord
  2
0
 70
0
  6
CONTINUOUS
  0
LAYER
  5
51
100
AcDbSymbolTableRecord
100
AcDbLayerTableRecord
  2
Base_plate
 70
0
  6
CONTINUOUS
  0
LAYER
  5
52
100
AcDbSymbolTableRecord
100
AcDbLayerTableRecord
  2
Bumper_plates
 70
0
  6
CONTINUOUS
  0
LAYER
  5
53
100
AcDbSymbolTableRecord
100
AcDbLayerTableRecord
  2
Arduino
 70
0
  6
CONTINUOUS
  0
LAYER
  5
54
100
AcDbSymbolTableRecord
100
AcDbLayerTableRecord
  2
Breadboard
 70
0
  6
CONTINUOUS
  0
LAYER
  5
55
100
AcDbSymbolTableRecord
100
AcDbLayerTableRecord
  2
Servos
 70
0
  6
CONTINUOUS
  0
LAYER
  5
56
100
AcDbSymbolTableRecord
100
AcDbLayerTableRecord
  2
Battery
 70
0
  6
CONTINUOUS
  0
LAYER
  5
57
100
AcDbSymbolTableRecord
100
AcDbLayerTableRecord
  2
LeoStick
 70
0
  6
CONTINUOUS
  0
LAYER
  5
58
100
AcDbSymbolTableRecord
100
AcDbLayerTableRecord
  2
Additional_Text
 70
0
  6
CONTINUOUS
  0
ENDTAB
  0
TABLE
  2
STYLE
  5
3
330
0
100
AcDbSymbolTable
 70
     1
  0
STYLE
  5
11
330
3
100
AcDbSymbolTableRecord
100
AcDbTextStyleTableRecord
  2
STANDARD
 70
     0
 40
0.0
 41
1.0
 50
0.0
 71
     0
 42
2.5
  3
txt
  4

  0
ENDTAB
  0
TABLE
  2
VIEW
  5
6
330
0
100
AcDbSymbolTable
 70
     0
  0
ENDTAB
  0
TABLE
  2
UCS
  5
7
330
0
100
AcDbSymbolTable
 70
     0
  0
ENDTAB
  0
TABLE
  2
APPID
  5
9
330
0
100
AcDbSymbolTable
 70
     2
  0
APPID
  5
12
330
9
100
AcDbSymbolTableRecord
100
AcDbRegAppTableRecord
  2
ACAD
 70
     0
  0
ENDTAB
  0
TABLE
  2
DIMSTYLE
  5
A
330
0
100
AcDbSymbolTable
 70
     1
  0
DIMSTYLE
105
27
330
A
100
AcDbSymbolTableRecord
100
AcDbDimStyleTableRecord
  2
ISO-25
 70
     0
  3

  4

  5

  6

  7

 40
1.0
 41
2.5
 42
0.625
 43
3.75
 44
1.25
 45
0.0
 46
0.0
 47
0.0
 48
0.0
140
2.5
141
2.5
142
0.0
143
0.03937007874016
144
1.0
145
0.0
146
1.0
147
0.625
 71
     0
 72
     0
 73
     0
 74
     0
 75
     0
 76
     0
 77
     1
 78
     8
170
     0
171
     3
172
     1
173
     0
174
     0
175
     0
176
     0
177
     0
178
     0
270
     2
271
     2
272
     2
273
     2
274
     3
340
11
275
     0
280
     0
281
     0
282
     0
283
     0
284
     8
285
     0
286
     0
287
     3
288
     0
  0
ENDTAB
  0
TABLE
  2
BLOCK_RECORD
  5
1
330
0
100
AcDbSymbolTable
 70
     1
  0
BLOCK_RECORD
  5
1F
330
1
100
AcDbSymbolTableRecord
100
AcDbBlockTableRecord
  2
*MODEL_SPACE
  0
BLOCK_RECORD
  5
1B
330
1
100
AcDbSymbolTableRecord
100
AcDbBlockTableRecord
  2
*PAPER_SPACE
  0
ENDTAB
  0
ENDSEC
  0
SECTION
  2
BLOCKS
  0
BLOCK
  5
20
330
1F
100
AcDbEntity
  8
0
100
AcDbBlockBegin
  2
*MODEL_SPACE
 70
     0
 10
0.0
 20
0.0
 30
0.0
  3
*MODEL_SPACE
  1

  0
ENDBLK
  5
21
330
1F
100
AcDbEntity
  8
0
100
AcDbBlockEnd
  0
BLOCK
  5
1C
330
1B
100
AcDbEntity
 67
     1
  8
0
100
AcDbBlockBegin
  2
*PAPER_SPACE
  1

  0
ENDBLK
  5
1D
330
1B
100
AcDbEntity
 67
     1
  8
0
100
AcDbBlockEnd
  0
ENDSEC
  0
SECTION
  2
ENTITIES
  0
LWPOLYLINE
  5
100
100
AcDbEntity
  8
Base_plate
 62
7
100
AcDbPolyline
 90
29
 70
0
 10
45.740999
 20
148.997801
 30
0.0
 10
45.740999
 20
144.500006
 30
0.0
 10
18.497361
 20
144.500006
 30
0.0
 10
18.497361
 20
149.000005
 30
0.0
 10
5.206458
 20
149.000005
 30
0.0
 10
5.206458
 20
144.500006
 30
0.0
 10
0.000000
 20
144.500006
 30
0.0
 10
0.000000
 20
4.500018
 30
0.0
 10
5.206458
 20
4.499961
 30
0.0
 10
5.206458
 20
0.000013
 30
0.0
 10
18.497361
 20
0.000013
 30
0.0
 10
18.497361
 20
4.500046
 30
0.0
 10
46.092998
 20
4.500046
 30
0.0
 10
46.092998
 20
0.000013
 30
0.0
 10
59.013888
 20
0.000013
 30
0.0
 10
59.013888
 20
4.499961
 30
0.0
 10
86.706943
 20
4.500046
 30
0.0
 10
86.706943
 20
0.000013
 30
0.0
 10
99.989026
 20
0.000013
 30
0.0
 10
99.989026
 20
4.500046
 30
0.0
 10
105.007290
 20
4.500046
 30
0.0
 10
105.007290
 20
144.500006
 30
0.0
 10
99.989026
 20
144.500006
 30
0.0
 10
99.989026
 20
149.000005
 30
0.0
 10
86.706943
 20
149.000005
 30
0.0
 10
86.706943
 20
144.500006
 30
0.0
 10
58.785000
 20
144.500006
 30
0.0
 10
58.785000
 20
149.002210
 30
0.0
 10
45.740999
 20
148.997801
 30
0.0
  0
LWPOLYLINE
  5
101
100
AcDbEntity
  8
Base_plate
 62
7
100
AcDbPolyline
 90
5
 70
0
 10
50.450207
 20
144.500006
 30
0.0
 10
54.762915
 20
144.500006
 30
0.0
 10
54.762915
 20
140.000004
 30
0.0
 10
50.450207
 20
140.000004
 30
0.0
 10
50.450207
 20
144.500006
 30
0.0
  0
LWPOLYLINE
  5
102
100
AcDbEntity
  8
Base_plate
 62
7
100
AcDbPolyline
 90
5
 70
0
 10
20.763958
 20
137.533407
 30
0.0
 10
25.138403
 20
137.533407
 30
0.0
 10
25.138403
 20
133.158962
 30
0.0
 10
20.763958
 20
133.158962
 30
0.0
 10
20.763958
 20
137.533407
 30
0.0
  0
LWPOLYLINE
  5
103
100
AcDbEntity
  8
Base_plate
 62
7
100
AcDbPolyline
 90
5
 70
0
 10
80.251110
 20
137.533407
 30
0.0
 10
84.634374
 20
137.533407
 30
0.0
 10
84.634374
 20
133.158962
 30
0.0
 10
80.251110
 20
133.158962
 30
0.0
 10
80.251110
 20
137.533407
 30
0.0
  0
LWPOLYLINE
  5
104
100
AcDbEntity
  8
Base_plate
 62
7
100
AcDbPolyline
 90
5
 70
0
 10
7.199653
 20
137.401115
 30
0.0
 10
11.503542
 20
137.401115
 30
0.0
 10
11.503542
 20
133.088407
 30
0.0
 10
7.199653
 20
133.088407
 30
0.0
 10
7.199653
 20
137.401115
 30
0.0
  0
SPLINE
  5
105
100
AcDbEntity
  8
Base_plate
 62
7
100
AcDbSpline
 70
8
 71
3
 72
8
 73
4
 74
0
 40
0
 40
0
 40
0
 40
0
 40
1
 40
1
 40
1
 40
1
 10
15.251806
 20
130.671879
 30
0.0
 10
15.301634
 20
130.676931
 30
0.0
 10
15.350567
 20
130.671879
 30
0.0
 10
15.401736
 20
130.671879
 30
0.0
  0
SPLINE
  5
106
100
AcDbEntity
  8
Base_plate
 62
7
100
AcDbSpline
 70
8
 71
3
 72
8
 73
4
 74
0
 40
0
 40
0
 40
0
 40
0
 40
1
 40
1
 40
1
 40
1
 10
15.401736
 20
130.671879
 30
0.0
 10
16.220439
 20
130.671879
 30
0.0
 10
16.883403
 20
130.008919
 30
0.0
 10
16.883403
 20
129.190212
 30
0.0
  0
SPLINE
  5
107
100
AcDbEntity
  8
Base_plate
 62
7
100
AcDbSpline
 70
8
 71
3
 72
8
 73
4
 74
0
 40
0
 40
0
 40
0
 40
0
 40
1
 40
1
 40
1
 40
1
 10
16.883403
 20
129.190212
 30
0.0
 10
16.883403
 20
128.371508
 30
0.0
 10
16.220439
 20
127.708546
 30
0.0
 10
15.401736
 20
127.708546
 30
0.0
  0
SPLINE
  5
108
100
AcDbEntity
  8
Base_plate
 62
7
100
AcDbSpline
 70
8
 71
3
 72
8
 73
4
 74
0
 40
0
 40
0
 40
0
 40
0
 40
1
 40
1
 40
1
 40
1
 10
15.401736
 20
127.708546
 30
0.0
 10
14.583032
 20
127.708546
 30
0.0
 10
13.920069
 20
128.371508
 30
0.0
 10
13.920069
 20
129.190212
 30
0.0
  0
SPLINE
  5
109
100
AcDbEntity
  8
Base_plate
 62
7
100
AcDbSpline
 70
8
 71
3
 72
8
 73
4
 74
0
 40
0
 40
0
 40
0
 40
0
 40
1
 40
1
 40
1
 40
1
 10
13.920069
 20
129.190212
 30
0.0
 10
13.920069
 20
129.957747
 30
0.0
 10
14.504379
 20
130.596049
 30
0.0
 10
15.251806
 20
130.671879
 30
0.0
  0
LWPOLYLINE
  5
10a
100
AcDbEntity
  8
Base_plate
 62
7
100
AcDbPolyline
 90
5
 70
0
 10
93.691943
 20
137.401115
 30
0.0
 10
98.004651
 20
137.401115
 30
0.0
 10
98.004651
 20
133.097226
 30
0.0
 10
93.691943
 20
133.097226
 30
0.0
 10
93.691943
 20
137.401115
 30
0.0
  0
LWPOLYLINE
  5
10b
100
AcDbEntity
  8
Base_plate
 62
7
100
AcDbPolyline
 90
2
 70
0
 10
15.251806
 20
130.671879
 30
0.0
 10
15.251806
 20
130.671879
 30
0.0
  0
LWPOLYLINE
  5
10c
100
AcDbEntity
  8
Base_plate
 62
7
100
AcDbPolyline
 90
5
 70
0
 10
20.763958
 20
122.346323
 30
0.0
 10
25.138403
 20
122.346323
 30
0.0
 10
25.138403
 20
117.971879
 30
0.0
 10
20.763958
 20
117.971879
 30
0.0
 10
20.763958
 20
122.346323
 30
0.0
  0
LWPOLYLINE
  5
10d
100
AcDbEntity
  8
Base_plate
 62
7
100
AcDbPolyline
 90
5
 70
0
 10
80.251110
 20
122.346323
 30
0.0
 10
84.634374
 20
122.346323
 30
0.0
 10
84.634374
 20
117.971879
 30
0.0
 10
80.251110
 20
117.971879
 30
0.0
 10
80.251110
 20
122.346323
 30
0.0
  0
LWPOLYLINE
  5
10e
100
AcDbEntity
  8
Base_plate
 62
7
100
AcDbPolyline
 90
5
 70
0
 10
7.199653
 20
122.214032
 30
0.0
 10
11.503542
 20
122.214032
 30
0.0
 10
11.503542
 20
117.901323
 30
0.0
 10
7.199653
 20
117.901323
 30
0.0
 10
7.199653
 20
122.214032
 30
0.0
  0
LWPOLYLINE
  5
10f
100
AcDbEntity
  8
Base_plate
 62
7
100
AcDbPolyline
 90
5
 70
0
 10
93.691943
 20
122.214032
 30
0.0
 10
98.004651
 20
122.214032
 30
0.0
 10
98.004651
 20
117.910143
 30
0.0
 10
93.691943
 20
117.910143
 30
0.0
 10
93.691943
 20
122.214032
 30
0.0
  0
SPLINE
  5
110
100
AcDbEntity
  8
Base_plate
 62
7
100
AcDbSpline
 70
8
 71
3
 72
8
 73
4
 74
0
 40
0
 40
0
 40
0
 40
0
 40
1
 40
1
 40
1
 40
1
 10
66.051804
 20
115.467157
 30
0.0
 10
66.101633
 20
115.472209
 30
0.0
 10
66.150565
 20
115.467157
 30
0.0
 10
66.201735
 20
115.467157
 30
0.0
  0
SPLINE
  5
111
100
AcDbEntity
  8
Base_plate
 62
7
100
AcDbSpline
 70
8
 71
3
 72
8
 73
4
 74
0
 40
0
 40
0
 40
0
 40
0
 40
1
 40
1
 40
1
 40
1
 10
66.201735
 20
115.467157
 30
0.0
 10
67.020439
 20
115.467157
 30
0.0
 10
67.683401
 20
114.804197
 30
0.0
 10
67.683401
 20
113.985490
 30
0.0
  0
SPLINE
  5
112
100
AcDbEntity
  8
Base_plate
 62
7
100
AcDbSpline
 70
8
 71
3
 72
8
 73
4
 74
0
 40
0
 40
0
 40
0
 40
0
 40
1
 40
1
 40
1
 40
1
 10
67.683401
 20
113.985490
 30
0.0
 10
67.683401
 20
113.166786
 30
0.0
 10
67.020439
 20
112.503823
 30
0.0
 10
66.201735
 20
112.503823
 30
0.0
  0
SPLINE
  5
113
100
AcDbEntity
  8
Base_plate
 62
7
100
AcDbSpline
 70
8
 71
3
 72
8
 73
4
 74
0
 40
0
 40
0
 40
0
 40
0
 40
1
 40
1
 40
1
 40
1
 10
66.201735
 20
112.503823
 30
0.0
 10
65.383031
 20
112.503823
 30
0.0
 10
64.720068
 20
113.166786
 30
0.0
 10
64.720068
 20
113.985490
 30
0.0
  0
SPLINE
  5
114
100
AcDbEntity
  8
Base_plate
 62
7
100
AcDbSpline
 70
8
 71
3
 72
8
 73
4
 74
0
 40
0
 40
0
 40
0
 40
0
 40
1
 40
1
 40
1
 40
1
 10
64.720068
 20
113.985490
 30
0.0
 10
64.720068
 20
114.753025
 30
0.0
 10
65.304378
 20
115.391327
 30
0.0
 10
66.051804
 20
115.467157
 30
0.0
  0
LWPOLYLINE
  5
115
100
AcDbEntity
  8
Base_plate
 62
7
100
AcDbPolyline
 90
5
 70
0
 10
50.450207
 20
121.808337
 30
0.0
 10
54.762915
 20
121.808337
 30
0.0
 10
54.762915
 20
117.504448
 30
0.0
 10
50.450207
 20
117.504448
 30
0.0
 10
50.450207
 20
121.808337
 30
0.0
  0
LWPOLYLINE
  5
116
100
AcDbEntity
  8
Base_plate
 62
7
100
AcDbPolyline
 90
2
 70
0
 10
66.051804
 20
115.467157
 30
0.0
 10
66.051804
 20
115.467157
 30
0.0
  0
LWPOLYLINE
  5
117
100
AcDbEntity
  8
Base_plate
 62
7
100
AcDbPolyline
 90
5
 70
0
 10
20.763958
 20
107.159240
 30
0.0
 10
25.138403
 20
107.159240
 30
0.0
 10
25.138403
 20
102.784796
 30
0.0
 10
20.763958
 20
102.784796
 30
0.0
 10
20.763958
 20
107.159240
 30
0.0
  0
LWPOLYLINE
  5
118
100
AcDbEntity
  8
Base_plate
 62
7
100
AcDbPolyline
 90
5
 70
0
 10
80.251110
 20
107.159240
 30
0.0
 10
84.634374
 20
107.159240
 30
0.0
 10
84.634374
 20
102.784796
 30
0.0
 10
80.251110
 20
102.784796
 30
0.0
 10
80.251110
 20
107.159240
 30
0.0
  0
LWPOLYLINE
  5
119
100
AcDbEntity
  8
Base_plate
 62
7
100
AcDbPolyline
 90
5
 70
0
 10
93.691943
 20
107.026948
 30
0.0
 10
98.004651
 20
107.026948
 30
0.0
 10
98.004651
 20
102.723060
 30
0.0
 10
93.691943
 20
102.723060
 30
0.0
 10
93.691943
 20
107.026948
 30
0.0
  0
LWPOLYLINE
  5
11a
100
AcDbEntity
  8
Base_plate
 62
7
100
AcDbPolyline
 90
5
 70
0
 10
7.199653
 20
107.018143
 30
0.0
 10
11.503542
 20
107.018143
 30
0.0
 10
11.503542
 20
102.714254
 30
0.0
 10
7.199653
 20
102.714254
 30
0.0
 10
7.199653
 20
107.018143
 30
0.0
  0
LWPOLYLINE
  5
11b
100
AcDbEntity
  8
Base_plate
 62
7
100
AcDbPolyline
 90
5
 70
0
 10
50.450207
 20
99.230574
 30
0.0
 10
54.762915
 20
99.230574
 30
0.0
 10
54.762915
 20
94.917865
 30
0.0
 10
50.450207
 20
94.917865
 30
0.0
 10
50.450207
 20
99.230574
 30
0.0
  0
LWPOLYLINE
  5
11c
100
AcDbEntity
  8
Base_plate
 62
7
100
AcDbPolyline
 90
5
 70
0
 10
20.763958
 20
91.972171
 30
0.0
 10
25.138403
 20
91.972171
 30
0.0
 10
25.138403
 20
87.597726
 30
0.0
 10
20.763958
 20
87.597726
 30
0.0
 10
20.763958
 20
91.972171
 30
0.0
  0
LWPOLYLINE
  5
11d
100
AcDbEntity
  8
Base_plate
 62
7
100
AcDbPolyline
 90
5
 70
0
 10
80.251110
 20
91.972171
 30
0.0
 10
84.634374
 20
91.972171
 30
0.0
 10
84.634374
 20
87.597726
 30
0.0
 10
80.251110
 20
87.597726
 30
0.0
 10
80.251110
 20
91.972171
 30
0.0
  0
LWPOLYLINE
  5
11e
100
AcDbEntity
  8
Base_plate
 62
7
100
AcDbPolyline
 90
5
 70
0
 10
93.691943
 20
91.839879
 30
0.0
 10
98.004651
 20
91.839879
 30
0.0
 10
98.004651
 20
87.535990
 30
0.0
 10
93.691943
 20
87.535990
 30
0.0
 10
93.691943
 20
91.839879
 30
0.0
  0
SPLINE
  5
11f
100
AcDbEntity
  8
Base_plate
 62
7
100
AcDbSpline
 70
8
 71
3
 72
8
 73
4
 74
0
 40
0
 40
0
 40
0
 40
0
 40
1
 40
1
 40
1
 40
1
 10
66.051804
 20
87.571282
 30
0.0
 10
66.101633
 20
87.576334
 30
0.0
 10
66.150565
 20
87.571282
 30
0.0
 10
66.201735
 20
87.571282
 30
0.0
  0
SPLINE
  5
120
100
AcDbEntity
  8
Base_plate
 62
7
100
AcDbSpline
 70
8
 71
3
 72
8
 73
4
 74
0
 40
0
 40
0
 40
0
 40
0
 40
1
 40
1
 40
1
 40
1
 10
66.201735
 20
87.571282
 30
0.0
 10
67.020439
 20
87.571282
 30
0.0
 10
67.683401
 20
86.908322
 30
0.0
 10
67.683401
 20
86.089616
 30
0.0
  0
SPLINE
  5
121
100
AcDbEntity
  8
Base_plate
 62
7
100
AcDbSpline
 70
8
 71
3
 72
8
 73
4
 74
0
 40
0
 40
0
 40
0
 40
0
 40
1
 40
1
 40
1
 40
1
 10
67.683401
 20
86.089616
 30
0.0
 10
67.683401
 20
85.270911
 30
0.0
 10
67.020439
 20
84.607949
 30
0.0
 10
66.201735
 20
84.607949
 30
0.0
  0
SPLINE
  5
122
100
AcDbEntity
  8
Base_plate
 62
7
100
AcDbSpline
 70
8
 71
3
 72
8
 73
4
 74
0
 40
0
 40
0
 40
0
 40
0
 40
1
 40
1
 40
1
 40
1
 10
66.201735
 20
84.607949
 30
0.0
 10
65.383031
 20
84.607949
 30
0.0
 10
64.720068
 20
85.270911
 30
0.0
 10
64.720068
 20
86.089616
 30
0.0
  0
SPLINE
  5
123
100
AcDbEntity
  8
Base_plate
 62
7
100
AcDbSpline
 70
8
 71
3
 72
8
 73
4
 74
0
 40
0
 40
0
 40
0
 40
0
 40
1
 40
1
 40
1
 40
1
 10
64.720068
 20
86.089616
 30
0.0
 10
64.720068
 20
86.857150
 30
0.0
 10
65.304378
 20
87.495452
 30
0.0
 10
66.051804
 20
87.571282
 30
0.0
  0
LWPOLYLINE
  5
124
100
AcDbEntity
  8
Base_plate
 62
7
100
AcDbPolyline
 90
5
 70
0
 10
7.199653
 20
91.831074
 30
0.0
 10
11.503542
 20
91.831074
 30
0.0
 10
11.503542
 20
87.527185
 30
0.0
 10
7.199653
 20
87.527185
 30
0.0
 10
7.199653
 20
91.831074
 30
0.0
  0
SPLINE
  5
125
100
AcDbEntity
  8
Base_plate
 62
7
100
AcDbSpline
 70
8
 71
3
 72
8
 73
4
 74
0
 40
0
 40
0
 40
0
 40
0
 40
1
 40
1
 40
1
 40
1
 10
13.946528
 20
82.473643
 30
0.0
 10
13.996356
 20
82.478752
 30
0.0
 10
14.045289
 20
82.473643
 30
0.0
 10
14.096458
 20
82.473643
 30
0.0
  0
SPLINE
  5
126
100
AcDbEntity
  8
Base_plate
 62
7
100
AcDbSpline
 70
8
 71
3
 72
8
 73
4
 74
0
 40
0
 40
0
 40
0
 40
0
 40
1
 40
1
 40
1
 40
1
 10
14.096458
 20
82.473643
 30
0.0
 10
14.915162
 20
82.473643
 30
0.0
 10
15.578125
 20
81.801864
 30
0.0
 10
15.578125
 20
80.983157
 30
0.0
  0
SPLINE
  5
127
100
AcDbEntity
  8
Base_plate
 62
7
100
AcDbSpline
 70
8
 71
3
 72
8
 73
4
 74
0
 40
0
 40
0
 40
0
 40
0
 40
1
 40
1
 40
1
 40
1
 10
15.578125
 20
80.983157
 30
0.0
 10
15.578125
 20
80.164453
 30
0.0
 10
14.915162
 20
79.501491
 30
0.0
 10
14.096458
 20
79.501491
 30
0.0
  0
SPLINE
  5
128
100
AcDbEntity
  8
Base_plate
 62
7
100
AcDbSpline
 70
8
 71
3
 72
8
 73
4
 74
0
 40
0
 40
0
 40
0
 40
0
 40
1
 40
1
 40
1
 40
1
 10
14.096458
 20
79.501491
 30
0.0
 10
13.277755
 20
79.501491
 30
0.0
 10
12.614792
 20
80.164453
 30
0.0
 10
12.614792
 20
80.983157
 30
0.0
  0
SPLINE
  5
129
100
AcDbEntity
  8
Base_plate
 62
7
100
AcDbSpline
 70
8
 71
3
 72
8
 73
4
 74
0
 40
0
 40
0
 40
0
 40
0
 40
1
 40
1
 40
1
 40
1
 10
12.614792
 20
80.983157
 30
0.0
 10
12.614792
 20
81.750692
 30
0.0
 10
13.199101
 20
82.396845
 30
0.0
 10
13.946528
 20
82.473643
 30
0.0
  0
LWPOLYLINE
  5
12a
100
AcDbEntity
  8
Base_plate
 62
7
100
AcDbPolyline
 90
2
 70
0
 10
66.051804
 20
87.571282
 30
0.0
 10
66.051804
 20
87.571282
 30
0.0
  0
LWPOLYLINE
  5
12b
100
AcDbEntity
  8
Base_plate
 62
7
100
AcDbPolyline
 90
2
 70
0
 10
13.946528
 20
82.473643
 30
0.0
 10
13.946528
 20
82.473643
 30
0.0
  0
LWPOLYLINE
  5
12c
100
AcDbEntity
  8
Base_plate
 62
7
100
AcDbPolyline
 90
5
 70
0
 10
20.763958
 20
76.785102
 30
0.0
 10
25.138403
 20
76.785102
 30
0.0
 10
25.138403
 20
72.410657
 30
0.0
 10
20.763958
 20
72.410657
 30
0.0
 10
20.763958
 20
76.785102
 30
0.0
  0
LWPOLYLINE
  5
12d
100
AcDbEntity
  8
Base_plate
 62
7
100
AcDbPolyline
 90
5
 70
0
 10
80.251110
 20
76.785102
 30
0.0
 10
84.634374
 20
76.785102
 30
0.0
 10
84.634374
 20
72.410657
 30
0.0
 10
80.251110
 20
72.410657
 30
0.0
 10
80.251110
 20
76.785102
 30
0.0
  0
LWPOLYLINE
  5
12e
100
AcDbEntity
  8
Base_plate
 62
7
100
AcDbPolyline
 90
5
 70
0
 10
93.691943
 20
76.652810
 30
0.0
 10
98.004651
 20
76.652810
 30
0.0
 10
98.004651
 20
72.348921
 30
0.0
 10
93.691943
 20
72.348921
 30
0.0
 10
93.691943
 20
76.652810
 30
0.0
  0
LWPOLYLINE
  5
12f
100
AcDbEntity
  8
Base_plate
 62
7
100
AcDbPolyline
 90
5
 70
0
 10
7.199653
 20
76.644005
 30
0.0
 10
11.503542
 20
76.644005
 30
0.0
 10
11.503542
 20
72.340116
 30
0.0
 10
7.199653
 20
72.340116
 30
0.0
 10
7.199653
 20
76.644005
 30
0.0
  0
LWPOLYLINE
  5
130
100
AcDbEntity
  8
Base_plate
 62
7
100
AcDbPolyline
 90
5
 70
0
 10
50.450207
 20
76.644005
 30
0.0
 10
54.762915
 20
76.644005
 30
0.0
 10
54.762915
 20
72.340116
 30
0.0
 10
50.450207
 20
72.340116
 30
0.0
 10
50.450207
 20
76.644005
 30
0.0
  0
LWPOLYLINE
  5
131
100
AcDbEntity
  8
Base_plate
 62
7
100
AcDbPolyline
 90
5
 70
0
 10
20.763958
 20
61.598032
 30
0.0
 10
25.138403
 20
61.598032
 30
0.0
 10
25.138403
 20
57.214769
 30
0.0
 10
20.763958
 20
57.214769
 30
0.0
 10
20.763958
 20
61.598032
 30
0.0
  0
LWPOLYLINE
  5
132
100
AcDbEntity
  8
Base_plate
 62
7
100
AcDbPolyline
 90
5
 70
0
 10
80.251110
 20
61.598032
 30
0.0
 10
84.634374
 20
61.598032
 30
0.0
 10
84.634374
 20
57.214769
 30
0.0
 10
80.251110
 20
57.214769
 30
0.0
 10
80.251110
 20
61.598032
 30
0.0
  0
LWPOLYLINE
  5
133
100
AcDbEntity
  8
Base_plate
 62
7
100
AcDbPolyline
 90
5
 70
0
 10
93.691943
 20
61.465741
 30
0.0
 10
98.004651
 20
61.465741
 30
0.0
 10
98.004651
 20
57.161852
 30
0.0
 10
93.691943
 20
57.161852
 30
0.0
 10
93.691943
 20
61.465741
 30
0.0
  0
LWPOLYLINE
  5
134
100
AcDbEntity
  8
Base_plate
 62
7
100
AcDbPolyline
 90
5
 70
0
 10
7.199653
 20
61.456935
 30
0.0
 10
11.503542
 20
61.456935
 30
0.0
 10
11.503542
 20
57.153047
 30
0.0
 10
7.199653
 20
57.153047
 30
0.0
 10
7.199653
 20
61.456935
 30
0.0
  0
LWPOLYLINE
  5
135
100
AcDbEntity
  8
Base_plate
 62
7
100
AcDbPolyline
 90
5
 70
0
 10
50.450207
 20
54.066241
 30
0.0
 10
54.762915
 20
54.066241
 30
0.0
 10
54.762915
 20
49.753533
 30
0.0
 10
50.450207
 20
49.753533
 30
0.0
 10
50.450207
 20
54.066241
 30
0.0
  0
LWPOLYLINE
  5
136
100
AcDbEntity
  8
Base_plate
 62
7
100
AcDbPolyline
 90
5
 70
0
 10
20.763958
 20
46.402144
 30
0.0
 10
25.138403
 20
46.402144
 30
0.0
 10
25.138403
 20
42.027699
 30
0.0
 10
20.763958
 20
42.027699
 30
0.0
 10
20.763958
 20
46.402144
 30
0.0
  0
LWPOLYLINE
  5
137
100
AcDbEntity
  8
Base_plate
 62
7
100
AcDbPolyline
 90
5
 70
0
 10
80.251110
 20
46.402144
 30
0.0
 10
84.634374
 20
46.402144
 30
0.0
 10
84.634374
 20
42.027699
 30
0.0
 10
80.251110
 20
42.027699
 30
0.0
 10
80.251110
 20
46.402144
 30
0.0
  0
LWPOLYLINE
  5
138
100
AcDbEntity
  8
Base_plate
 62
7
100
AcDbPolyline
 90
5
 70
0
 10
93.691943
 20
46.278672
 30
0.0
 10
98.004651
 20
46.278672
 30
0.0
 10
98.004651
 20
41.965963
 30
0.0
 10
93.691943
 20
41.965963
 30
0.0
 10
93.691943
 20
46.278672
 30
0.0
  0
LWPOLYLINE
  5
139
100
AcDbEntity
  8
Base_plate
 62
7
100
AcDbPolyline
 90
5
 70
0
 10
7.199653
 20
46.269866
 30
0.0
 10
11.503542
 20
46.269866
 30
0.0
 10
11.503542
 20
41.965977
 30
0.0
 10
7.199653
 20
41.965977
 30
0.0
 10
7.199653
 20
46.269866
 30
0.0
  0
LWPOLYLINE
  5
13a
100
AcDbEntity
  8
Base_plate
 62
7
100
AcDbPolyline
 90
5
 70
0
 10
50.450207
 20
31.479658
 30
0.0
 10
54.762915
 20
31.479658
 30
0.0
 10
54.762915
 20
27.166950
 30
0.0
 10
50.450207
 20
27.166950
 30
0.0
 10
50.450207
 20
31.479658
 30
0.0
  0
LWPOLYLINE
  5
13b
100
AcDbEntity
  8
Base_plate
 62
7
100
AcDbPolyline
 90
5
 70
0
 10
20.763958
 20
31.215075
 30
0.0
 10
25.138403
 20
31.215075
 30
0.0
 10
25.138403
 20
26.840644
 30
0.0
 10
20.763958
 20
26.840644
 30
0.0
 10
20.763958
 20
31.215075
 30
0.0
  0
LWPOLYLINE
  5
13c
100
AcDbEntity
  8
Base_plate
 62
7
100
AcDbPolyline
 90
5
 70
0
 10
80.251110
 20
31.215075
 30
0.0
 10
84.634374
 20
31.215075
 30
0.0
 10
84.634374
 20
26.840644
 30
0.0
 10
80.251110
 20
26.840644
 30
0.0
 10
80.251110
 20
31.215075
 30
0.0
  0
LWPOLYLINE
  5
13d
100
AcDbEntity
  8
Base_plate
 62
7
100
AcDbPolyline
 90
5
 70
0
 10
93.691943
 20
31.091602
 30
0.0
 10
98.004651
 20
31.091602
 30
0.0
 10
98.004651
 20
26.778894
 30
0.0
 10
93.691943
 20
26.778894
 30
0.0
 10
93.691943
 20
31.091602
 30
0.0
  0
LWPOLYLINE
  5
13e
100
AcDbEntity
  8
Base_plate
 62
7
100
AcDbPolyline
 90
5
 70
0
 10
7.199653
 20
31.082797
 30
0.0
 10
11.503542
 20
31.082797
 30
0.0
 10
11.503542
 20
26.778922
 30
0.0
 10
7.199653
 20
26.778922
 30
0.0
 10
7.199653
 20
31.082797
 30
0.0
  0
LWPOLYLINE
  5
13f
100
AcDbEntity
  8
Base_plate
 62
7
100
AcDbPolyline
 90
5
 70
0
 10
20.763958
 20
15.896010
 30
0.0
 10
25.138403
 20
15.896010
 30
0.0
 10
25.138403
 20
11.592008
 30
0.0
 10
20.763958
 20
11.592008
 30
0.0
 10
20.763958
 20
15.896010
 30
0.0
  0
LWPOLYLINE
  5
140
100
AcDbEntity
  8
Base_plate
 62
7
100
AcDbPolyline
 90
5
 70
0
 10
80.251110
 20
15.896010
 30
0.0
 10
84.634374
 20
15.896010
 30
0.0
 10
84.634374
 20
11.592008
 30
0.0
 10
80.251110
 20
11.592008
 30
0.0
 10
80.251110
 20
15.896010
 30
0.0
  0
LWPOLYLINE
  5
141
100
AcDbEntity
  8
Base_plate
 62
7
100
AcDbPolyline
 90
5
 70
0
 10
7.199653
 20
15.896010
 30
0.0
 10
11.503542
 20
15.896010
 30
0.0
 10
11.503542
 20
11.592008
 30
0.0
 10
7.199653
 20
11.591754
 30
0.0
 10
7.199653
 20
15.896010
 30
0.0
  0
LWPOLYLINE
  5
142
100
AcDbEntity
  8
Base_plate
 62
7
100
AcDbPolyline
 90
5
 70
0
 10
93.691943
 20
15.896010
 30
0.0
 10
98.004651
 20
15.896010
 30
0.0
 10
98.004651
 20
11.592008
 30
0.0
 10
93.691943
 20
11.592008
 30
0.0
 10
93.691943
 20
15.896010
 30
0.0
  0
LWPOLYLINE
  5
143
100
AcDbEntity
  8
Base_plate
 62
7
100
AcDbPolyline
 90
5
 70
0
 10
50.450207
 20
8.999995
 30
0.0
 10
54.762915
 20
8.999995
 30
0.0
 10
54.762915
 20
4.499961
 30
0.0
 10
50.450207
 20
4.499961
 30
0.0
 10
50.450207
 20
8.999995
 30
0.0
  0
LWPOLYLINE
  5
144
100
AcDbEntity
  8
Bumper_plates
 62
7
100
AcDbPolyline
 90
17
 70
0
 10
0.000000
 20
194.500006
 30
0.0
 10
0.000000
 20
150.000253
 30
0.0
 10
104.999999
 20
149.999689
 30
0.0
 10
104.999999
 20
194.499938
 30
0.0
 10
100.002168
 20
194.499938
 30
0.0
 10
100.002168
 20
189.999936
 30
0.0
 10
86.499598
 20
189.999936
 30
0.0
 10
86.499598
 20
194.499938
 30
0.0
 10
59.000571
 20
194.499938
 30
0.0
 10
59.000571
 20
189.999936
 30
0.0
 10
45.498001
 20
189.999936
 30
0.0
 10
45.498001
 20
194.499938
 30
0.0
 10
18.501681
 20
194.499938
 30
0.0
 10
18.501681
 20
189.999936
 30
0.0
 10
4.999111
 20
189.999936
 30
0.0
 10
4.999111
 20
194.499938
 30
0.0
 10
0.000000
 20
194.500006
 30
0.0
  0
LWPOLYLINE
  5
145
100
AcDbEntity
  8
Bumper_plates
 62
7
100
AcDbPolyline
 90
5
 70
0
 10
5.043208
 20
181.854325
 30
0.0
 10
44.748348
 20
181.854325
 30
0.0
 10
44.748348
 20
179.146756
 30
0.0
 10
5.043208
 20
179.146756
 30
0.0
 10
5.043208
 20
181.854325
 30
0.0
  0
LWPOLYLINE
  5
146
100
AcDbEntity
  8
Bumper_plates
 62
7
100
AcDbPolyline
 90
5
 70
0
 10
60.147098
 20
181.854325
 30
0.0
 10
99.852237
 20
181.854325
 30
0.0
 10
99.852237
 20
179.146756
 30
0.0
 10
60.147098
 20
179.146756
 30
0.0
 10
60.147098
 20
181.854325
 30
0.0
  0
LWPOLYLINE
  5
147
100
AcDbEntity
  8
Bumper_plates
 62
7
100
AcDbPolyline
 90
5
 70
0
 10
5.043208
 20
166.852450
 30
0.0
 10
44.748348
 20
166.852450
 30
0.0
 10
44.748348
 20
164.144881
 30
0.0
 10
5.043208
 20
164.144881
 30
0.0
 10
5.043208
 20
166.852450
 30
0.0
  0
LWPOLYLINE
  5
148
100
AcDbEntity
  8
Bumper_plates
 62
7
100
AcDbPolyline
 90
5
 70
0
 10
60.147098
 20
166.852450
 30
0.0
 10
99.852237
 20
166.852450
 30
0.0
 10
99.852237
 20
164.144881
 30
0.0
 10
60.147098
 20
164.144881
 30
0.0
 10
60.147098
 20
166.852450
 30
0.0
  0
LWPOLYLINE
  5
149
100
AcDbEntity
  8
Bumper_plates
 62
7
100
AcDbPolyline
 90
5
 70
0
 10
4.902097
 20
158.394603
 30
0.0
 10
18.598694
 20
158.394603
 30
0.0
 10
18.598694
 20
154.117173
 30
0.0
 10
4.902097
 20
154.117173
 30
0.0
 10
4.902097
 20
158.394603
 30
0.0
  0
LWPOLYLINE
  5
14a
100
AcDbEntity
  8
Bumper_plates
 62
7
100
AcDbPolyline
 90
5
 70
0
 10
45.400987
 20
158.394603
 30
0.0
 10
58.894737
 20
158.394603
 30
0.0
 10
58.894737
 20
154.117173
 30
0.0
 10
45.400987
 20
154.117173
 30
0.0
 10
45.400987
 20
158.394603
 30
0.0
  0
LWPOLYLINE
  5
14b
100
AcDbEntity
  8
Bumper_plates
 62
7
100
AcDbPolyline
 90
5
 70
0
 10
86.402585
 20
158.394603
 30
0.0
 10
100.099182
 20
158.394603
 30
0.0
 10
100.099182
 20
154.117173
 30
0.0
 10
86.402585
 20
154.117173
 30
0.0
 10
86.402585
 20
158.394603
 30
0.0
  0
LWPOLYLINE
  5
14c
100
AcDbEntity
  8
Bumper_plates
 62
7
100
AcDbPolyline
 90
17
 70
0
 10
0.095500
 20
241.595825
 30
0.0
 10
0.095500
 20
197.096070
 30
0.0
 10
105.095500
 20
197.095505
 30
0.0
 10
105.095500
 20
241.595758
 30
0.0
 10
100.097669
 20
241.595758
 30
0.0
 10
100.097669
 20
237.095755
 30
0.0
 10
86.595100
 20
237.095755
 30
0.0
 10
86.595100
 20
241.595758
 30
0.0
 10
59.096072
 20
241.595758
 30
0.0
 10
59.096072
 20
237.095755
 30
0.0
 10
45.593502
 20
237.095755
 30
0.0
 10
45.593502
 20
241.595758
 30
0.0
 10
18.597181
 20
241.595758
 30
0.0
 10
18.597181
 20
237.095755
 30
0.0
 10
5.094611
 20
237.095755
 30
0.0
 10
5.094611
 20
241.595758
 30
0.0
 10
0.095500
 20
241.595825
 30
0.0
  0
LWPOLYLINE
  5
14d
100
AcDbEntity
  8
Bumper_plates
 62
7
100
AcDbPolyline
 90
5
 70
0
 10
5.138708
 20
228.950145
 30
0.0
 10
44.843850
 20
228.950145
 30
0.0
 10
44.843850
 20
226.242575
 30
0.0
 10
5.138708
 20
226.242575
 30
0.0
 10
5.138708
 20
228.950145
 30
0.0
  0
LWPOLYLINE
  5
14e
100
AcDbEntity
  8
Bumper_plates
 62
7
100
AcDbPolyline
 90
5
 70
0
 10
60.242600
 20
228.950145
 30
0.0
 10
99.947738
 20
228.950145
 30
0.0
 10
99.947738
 20
226.242575
 30
0.0
 10
60.242600
 20
226.242575
 30
0.0
 10
60.242600
 20
228.950145
 30
0.0
  0
LWPOLYLINE
  5
14f
100
AcDbEntity
  8
Bumper_plates
 62
7
100
AcDbPolyline
 90
5
 70
0
 10
5.138708
 20
213.948270
 30
0.0
 10
44.843850
 20
213.948270
 30
0.0
 10
44.843850
 20
211.240697
 30
0.0
 10
5.138708
 20
211.240697
 30
0.0
 10
5.138708
 20
213.948270
 30
0.0
  0
LWPOLYLINE
  5
150
100
AcDbEntity
  8
Bumper_plates
 62
7
100
AcDbPolyline
 90
5
 70
0
 10
60.242600
 20
213.948270
 30
0.0
 10
99.947738
 20
213.948270
 30
0.0
 10
99.947738
 20
211.240697
 30
0.0
 10
60.242600
 20
211.240697
 30
0.0
 10
60.242600
 20
213.948270
 30
0.0
  0
LWPOLYLINE
  5
151
100
AcDbEntity
  8
Bumper_plates
 62
7
100
AcDbPolyline
 90
5
 70
0
 10
4.997597
 20
205.490420
 30
0.0
 10
18.694195
 20
205.490420
 30
0.0
 10
18.694195
 20
201.212989
 30
0.0
 10
4.997597
 20
201.212989
 30
0.0
 10
4.997597
 20
205.490420
 30
0.0
  0
LWPOLYLINE
  5
152
100
AcDbEntity
  8
Bumper_plates
 62
7
100
AcDbPolyline
 90
5
 70
0
 10
45.496488
 20
205.490420
 30
0.0
 10
58.990238
 20
205.490420
 30
0.0
 10
58.990238
 20
201.212989
 30
0.0
 10
45.496488
 20
201.212989
 30
0.0
 10
45.496488
 20
205.490420
 30
0.0
  0
LWPOLYLINE
  5
153
100
AcDbEntity
  8
Bumper_plates
 62
7
100
AcDbPolyline
 90
5
 70
0
 10
86.498086
 20
205.490420
 30
0.0
 10
100.194683
 20
205.490420
 30
0.0
 10
100.194683
 20
201.212989
 30
0.0
 10
86.498086
 20
201.212989
 30
0.0
 10
86.498086
 20
205.490420
 30
0.0
  0
LWPOLYLINE
  5
154
100
AcDbEntity
  8
Arduino
 62
7
100
AcDbPolyline
 90
10
 70
0
 10
1.100000
 20
78.783874
 30
0.0
 10
66.636818
 20
78.783874
 30
0.0
 10
66.636818
 20
81.304525
 30
0.0
 10
69.157461
 20
83.825167
 30
0.0
 10
69.157461
 20
116.593569
 30
0.0
 10
66.636818
 20
119.114217
 30
0.0
 10
66.636818
 20
130.457132
 30
0.0
 10
65.376490
 20
131.717457
 30
0.0
 10
1.100000
 20
131.717452
 30
0.0
 10
1.100000
 20
78.783874
 30
0.0
  0
LWPOLYLINE
  5
155
100
AcDbEntity
  8
Arduino
 62
7
100
AcDbPolyline
 90
2
 70
0
 10
46.843466
 20
83.433657
 30
0.0
 10
45.452162
 20
79.781483
 30
0.0
  0
LWPOLYLINE
  5
156
100
AcDbEntity
  8
Arduino
 62
7
100
AcDbPolyline
 90
2
 70
0
 10
46.843466
 20
83.433657
 30
0.0
 10
48.234771
 20
79.781483
 30
0.0
  0
LWPOLYLINE
  5
157
100
AcDbEntity
  8
Arduino
 62
7
100
AcDbPolyline
 90
2
 70
0
 10
45.973901
 20
80.998874
 30
0.0
 10
47.713031
 20
80.998874
 30
0.0
  0
LWPOLYLINE
  5
158
100
AcDbEntity
  8
Arduino
 62
7
100
AcDbPolyline
 90
2
 70
0
 10
49.104336
 20
82.216266
 30
0.0
 10
49.104336
 20
79.781483
 30
0.0
  0
LWPOLYLINE
  5
159
100
AcDbEntity
  8
Arduino
 62
7
100
AcDbPolyline
 90
5
 70
0
 10
49.104336
 20
81.172787
 30
0.0
 10
49.278249
 20
81.694526
 30
0.0
 10
49.626075
 20
82.042353
 30
0.0
 10
49.973901
 20
82.216266
 30
0.0
 10
50.495640
 20
82.216266
 30
0.0
  0
LWPOLYLINE
  5
15a
100
AcDbEntity
  8
Arduino
 62
7
100
AcDbPolyline
 90
2
 70
0
 10
53.278249
 20
83.433657
 30
0.0
 10
53.278249
 20
79.781483
 30
0.0
  0
LWPOLYLINE
  5
15b
100
AcDbEntity
  8
Arduino
 62
7
100
AcDbPolyline
 90
14
 70
0
 10
53.278249
 20
81.694526
 30
0.0
 10
52.930423
 20
82.042353
 30
0.0
 10
52.582597
 20
82.216266
 30
0.0
 10
52.060858
 20
82.216266
 30
0.0
 10
51.713031
 20
82.042353
 30
0.0
 10
51.365205
 20
81.694526
 30
0.0
 10
51.191292
 20
81.172787
 30
0.0
 10
51.191292
 20
80.824961
 30
0.0
 10
51.365205
 20
80.303222
 30
0.0
 10
51.713031
 20
79.955396
 30
0.0
 10
52.060858
 20
79.781483
 30
0.0
 10
52.582597
 20
79.781483
 30
0.0
 10
52.930423
 20
79.955396
 30
0.0
 10
53.278249
 20
80.303222
 30
0.0
  0
LWPOLYLINE
  5
15c
100
AcDbEntity
  8
Arduino
 62
7
100
AcDbPolyline
 90
7
 70
0
 10
54.669553
 20
82.216266
 30
0.0
 10
54.669553
 20
80.477135
 30
0.0
 10
54.843466
 20
79.955396
 30
0.0
 10
55.191292
 20
79.781483
 30
0.0
 10
55.713031
 20
79.781483
 30
0.0
 10
56.060858
 20
79.955396
 30
0.0
 10
56.582597
 20
80.477135
 30
0.0
  0
LWPOLYLINE
  5
15d
100
AcDbEntity
  8
Arduino
 62
7
100
AcDbPolyline
 90
2
 70
0
 10
56.582597
 20
82.216266
 30
0.0
 10
56.582597
 20
79.781483
 30
0.0
  0
LWPOLYLINE
  5
15e
100
AcDbEntity
  8
Arduino
 62
7
100
AcDbPolyline
 90
5
 70
0
 10
57.799988
 20
83.433657
 30
0.0
 10
57.973901
 20
83.259744
 30
0.0
 10
58.147814
 20
83.433657
 30
0.0
 10
57.973901
 20
83.607570
 30
0.0
 10
57.799988
 20
83.433657
 30
0.0
  0
LWPOLYLINE
  5
15f
100
AcDbEntity
  8
Arduino
 62
7
100
AcDbPolyline
 90
2
 70
0
 10
57.973901
 20
82.216266
 30
0.0
 10
57.973901
 20
79.781483
 30
0.0
  0
LWPOLYLINE
  5
160
100
AcDbEntity
  8
Arduino
 62
7
100
AcDbPolyline
 90
2
 70
0
 10
59.365205
 20
82.216266
 30
0.0
 10
59.365205
 20
79.781483
 30
0.0
  0
LWPOLYLINE
  5
161
100
AcDbEntity
  8
Arduino
 62
7
100
AcDbPolyline
 90
7
 70
0
 10
59.365205
 20
81.520613
 30
0.0
 10
59.886945
 20
82.042353
 30
0.0
 10
60.234771
 20
82.216266
 30
0.0
 10
60.756510
 20
82.216266
 30
0.0
 10
61.104336
 20
82.042353
 30
0.0
 10
61.278249
 20
81.520613
 30
0.0
 10
61.278249
 20
79.781483
 30
0.0
  0
LWPOLYLINE
  5
162
100
AcDbEntity
  8
Arduino
 62
7
100
AcDbPolyline
 90
17
 70
0
 10
63.365205
 20
82.216266
 30
0.0
 10
63.017379
 20
82.042353
 30
0.0
 10
62.669553
 20
81.694526
 30
0.0
 10
62.495640
 20
81.172787
 30
0.0
 10
62.495640
 20
80.824961
 30
0.0
 10
62.669553
 20
80.303222
 30
0.0
 10
63.017379
 20
79.955396
 30
0.0
 10
63.365205
 20
79.781483
 30
0.0
 10
63.886945
 20
79.781483
 30
0.0
 10
64.234771
 20
79.955396
 30
0.0
 10
64.582597
 20
80.303222
 30
0.0
 10
64.756510
 20
80.824961
 30
0.0
 10
64.756510
 20
81.172787
 30
0.0
 10
64.582597
 20
81.694526
 30
0.0
 10
64.234771
 20
82.042353
 30
0.0
 10
63.886945
 20
82.216266
 30
0.0
 10
63.365205
 20
82.216266
 30
0.0
  0
LWPOLYLINE
  5
163
100
AcDbEntity
  8
Breadboard
 62
7
100
AcDbPolyline
 90
2
 70
0
 10
84.900000
 20
134.872005
 30
0.0
 10
93.457000
 20
134.872005
 30
0.0
  0
LWPOLYLINE
  5
164
100
AcDbEntity
  8
Breadboard
 62
7
100
AcDbPolyline
 90
4
 70
0
 10
98.300001
 20
134.872005
 30
0.0
 10
103.971107
 20
134.872005
 30
0.0
 10
103.971107
 20
90.070522
 30
0.0
 10
98.224566
 20
90.071087
 30
0.0
  0
LWPOLYLINE
  5
165
100
AcDbEntity
  8
Breadboard
 62
7
100
AcDbPolyline
 90
2
 70
0
 10
93.399999
 20
90.071087
 30
0.0
 10
84.884000
 20
90.071087
 30
0.0
  0
LWPOLYLINE
  5
166
100
AcDbEntity
  8
Breadboard
 62
7
100
AcDbPolyline
 90
4
 70
0
 10
79.999998
 20
90.071087
 30
0.0
 10
70.169752
 20
90.070522
 30
0.0
 10
70.169752
 20
134.872005
 30
0.0
 10
79.999998
 20
134.872005
 30
0.0
  0
LWPOLYLINE
  5
167
100
AcDbEntity
  8
Breadboard
 62
7
100
AcDbPolyline
 90
2
 70
0
 10
71.738264
 20
96.880291
 30
0.0
 10
71.738264
 20
93.062109
 30
0.0
  0
LWPOLYLINE
  5
168
100
AcDbEntity
  8
Breadboard
 62
7
100
AcDbPolyline
 90
9
 70
0
 10
71.738264
 20
96.880291
 30
0.0
 10
73.374628
 20
96.880291
 30
0.0
 10
73.920083
 20
96.698473
 30
0.0
 10
74.101901
 20
96.516655
 30
0.0
 10
74.283719
 20
96.153018
 30
0.0
 10
74.283719
 20
95.789382
 30
0.0
 10
74.101901
 20
95.425746
 30
0.0
 10
73.920083
 20
95.243927
 30
0.0
 10
73.374628
 20
95.062109
 30
0.0
  0
LWPOLYLINE
  5
169
100
AcDbEntity
  8
Breadboard
 62
7
100
AcDbPolyline
 90
10
 70
0
 10
71.738264
 20
95.062109
 30
0.0
 10
73.374628
 20
95.062109
 30
0.0
 10
73.920083
 20
94.880291
 30
0.0
 10
74.101901
 20
94.698473
 30
0.0
 10
74.283719
 20
94.334837
 30
0.0
 10
74.283719
 20
93.789382
 30
0.0
 10
74.101901
 20
93.425746
 30
0.0
 10
73.920083
 20
93.243927
 30
0.0
 10
73.374628
 20
93.062109
 30
0.0
 10
71.738264
 20
93.062109
 30
0.0
  0
LWPOLYLINE
  5
16a
100
AcDbEntity
  8
Breadboard
 62
7
100
AcDbPolyline
 90
2
 70
0
 10
75.556446
 20
95.607564
 30
0.0
 10
75.556446
 20
93.062109
 30
0.0
  0
LWPOLYLINE
  5
16b
100
AcDbEntity
  8
Breadboard
 62
7
100
AcDbPolyline
 90
5
 70
0
 10
75.556446
 20
94.516655
 30
0.0
 10
75.738264
 20
95.062109
 30
0.0
 10
76.101901
 20
95.425746
 30
0.0
 10
76.465537
 20
95.607564
 30
0.0
 10
77.010992
 20
95.607564
 30
0.0
  0
LWPOLYLINE
  5
16c
100
AcDbEntity
  8
Breadboard
 62
7
100
AcDbPolyline
 90
17
 70
0
 10
77.738264
 20
94.516655
 30
0.0
 10
79.920083
 20
94.516655
 30
0.0
 10
79.920083
 20
94.880291
 30
0.0
 10
79.738264
 20
95.243927
 30
0.0
 10
79.556446
 20
95.425746
 30
0.0
 10
79.192810
 20
95.607564
 30
0.0
 10
78.647355
 20
95.607564
 30
0.0
 10
78.283719
 20
95.425746
 30
0.0
 10
77.920083
 20
95.062109
 30
0.0
 10
77.738264
 20
94.516655
 30
0.0
 10
77.738264
 20
94.153018
 30
0.0
 10
77.920083
 20
93.607564
 30
0.0
 10
78.283719
 20
93.243927
 30
0.0
 10
78.647355
 20
93.062109
 30
0.0
 10
79.192810
 20
93.062109
 30
0.0
 10
79.556446
 20
93.243927
 30
0.0
 10
79.920083
 20
93.607564
 30
0.0
  0
LWPOLYLINE
  5
16d
100
AcDbEntity
  8
Breadboard
 62
7
100
AcDbPolyline
 90
2
 70
0
 10
83.192810
 20
95.607564
 30
0.0
 10
83.192810
 20
93.062109
 30
0.0
  0
LWPOLYLINE
  5
16e
100
AcDbEntity
  8
Breadboard
 62
7
100
AcDbPolyline
 90
14
 70
0
 10
83.192810
 20
95.062109
 30
0.0
 10
82.829173
 20
95.425746
 30
0.0
 10
82.465537
 20
95.607564
 30
0.0
 10
81.920083
 20
95.607564
 30
0.0
 10
81.556446
 20
95.425746
 30
0.0
 10
81.192810
 20
95.062109
 30
0.0
 10
81.010992
 20
94.516655
 30
0.0
 10
81.010992
 20
94.153018
 30
0.0
 10
81.192810
 20
93.607564
 30
0.0
 10
81.556446
 20
93.243927
 30
0.0
 10
81.920083
 20
93.062109
 30
0.0
 10
82.465537
 20
93.062109
 30
0.0
 10
82.829173
 20
93.243927
 30
0.0
 10
83.192810
 20
93.607564
 30
0.0
  0
LWPOLYLINE
  5
16f
100
AcDbEntity
  8
Breadboard
 62
7
100
AcDbPolyline
 90
2
 70
0
 10
86.647355
 20
96.880291
 30
0.0
 10
86.647355
 20
93.062109
 30
0.0
  0
LWPOLYLINE
  5
170
100
AcDbEntity
  8
Breadboard
 62
7
100
AcDbPolyline
 90
14
 70
0
 10
86.647355
 20
95.062109
 30
0.0
 10
86.283719
 20
95.425746
 30
0.0
 10
85.920083
 20
95.607564
 30
0.0
 10
85.374628
 20
95.607564
 30
0.0
 10
85.010992
 20
95.425746
 30
0.0
 10
84.647355
 20
95.062109
 30
0.0
 10
84.465537
 20
94.516655
 30
0.0
 10
84.465537
 20
94.153018
 30
0.0
 10
84.647355
 20
93.607564
 30
0.0
 10
85.010992
 20
93.243927
 30
0.0
 10
85.374628
 20
93.062109
 30
0.0
 10
85.920083
 20
93.062109
 30
0.0
 10
86.283719
 20
93.243927
 30
0.0
 10
86.647355
 20
93.607564
 30
0.0
  0
LWPOLYLINE
  5
171
100
AcDbEntity
  8
Breadboard
 62
7
100
AcDbPolyline
 90
2
 70
0
 10
88.101901
 20
96.880291
 30
0.0
 10
88.101901
 20
93.062109
 30
0.0
  0
LWPOLYLINE
  5
172
100
AcDbEntity
  8
Breadboard
 62
7
100
AcDbPolyline
 90
14
 70
0
 10
88.101901
 20
95.062109
 30
0.0
 10
88.465537
 20
95.425746
 30
0.0
 10
88.829173
 20
95.607564
 30
0.0
 10
89.374628
 20
95.607564
 30
0.0
 10
89.738264
 20
95.425746
 30
0.0
 10
90.101901
 20
95.062109
 30
0.0
 10
90.283719
 20
94.516655
 30
0.0
 10
90.283719
 20
94.153018
 30
0.0
 10
90.101901
 20
93.607564
 30
0.0
 10
89.738264
 20
93.243927
 30
0.0
 10
89.374628
 20
93.062109
 30
0.0
 10
88.829173
 20
93.062109
 30
0.0
 10
88.465537
 20
93.243927
 30
0.0
 10
88.101901
 20
93.607564
 30
0.0
  0
LWPOLYLINE
  5
173
100
AcDbEntity
  8
Breadboard
 62
7
100
AcDbPolyline
 90
17
 70
0
 10
92.283719
 20
95.607564
 30
0.0
 10
91.920083
 20
95.425746
 30
0.0
 10
91.556446
 20
95.062109
 30
0.0
 10
91.374628
 20
94.516655
 30
0.0
 10
91.374628
 20
94.153018
 30
0.0
 10
91.556446
 20
93.607564
 30
0.0
 10
91.920083
 20
93.243927
 30
0.0
 10
92.283719
 20
93.062109
 30
0.0
 10
92.829173
 20
93.062109
 30
0.0
 10
93.192810
 20
93.243927
 30
0.0
 10
93.556446
 20
93.607564
 30
0.0
 10
93.738264
 20
94.153018
 30
0.0
 10
93.738264
 20
94.516655
 30
0.0
 10
93.556446
 20
95.062109
 30
0.0
 10
93.192810
 20
95.425746
 30
0.0
 10
92.829173
 20
95.607564
 30
0.0
 10
92.283719
 20
95.607564
 30
0.0
  0
LWPOLYLINE
  5
174
100
AcDbEntity
  8
Breadboard
 62
7
100
AcDbPolyline
 90
2
 70
0
 10
97.010992
 20
95.607564
 30
0.0
 10
97.010992
 20
93.062109
 30
0.0
  0
LWPOLYLINE
  5
175
100
AcDbEntity
  8
Breadboard
 62
7
100
AcDbPolyline
 90
14
 70
0
 10
97.010992
 20
95.062109
 30
0.0
 10
96.647355
 20
95.425746
 30
0.0
 10
96.283719
 20
95.607564
 30
0.0
 10
95.738264
 20
95.607564
 30
0.0
 10
95.374628
 20
95.425746
 30
0.0
 10
95.010992
 20
95.062109
 30
0.0
 10
94.829173
 20
94.516655
 30
0.0
 10
94.829173
 20
94.153018
 30
0.0
 10
95.010992
 20
93.607564
 30
0.0
 10
95.374628
 20
93.243927
 30
0.0
 10
95.738264
 20
93.062109
 30
0.0
 10
96.283719
 20
93.062109
 30
0.0
 10
96.647355
 20
93.243927
 30
0.0
 10
97.010992
 20
93.607564
 30
0.0
  0
LWPOLYLINE
  5
176
100
AcDbEntity
  8
Breadboard
 62
7
100
AcDbPolyline
 90
2
 70
0
 10
98.465537
 20
95.607564
 30
0.0
 10
98.465537
 20
93.062109
 30
0.0
  0
LWPOLYLINE
  5
177
100
AcDbEntity
  8
Breadboard
 62
7
100
AcDbPolyline
 90
5
 70
0
 10
98.465537
 20
94.516655
 30
0.0
 10
98.647355
 20
95.062109
 30
0.0
 10
99.010992
 20
95.425746
 30
0.0
 10
99.374628
 20
95.607564
 30
0.0
 10
99.920082
 20
95.607564
 30
0.0
  0
LWPOLYLINE
  5
178
100
AcDbEntity
  8
Breadboard
 62
7
100
AcDbPolyline
 90
2
 70
0
 10
102.829173
 20
96.880291
 30
0.0
 10
102.829173
 20
93.062109
 30
0.0
  0
LWPOLYLINE
  5
179
100
AcDbEntity
  8
Breadboard
 62
7
100
AcDbPolyline
 90
14
 70
0
 10
102.829173
 20
95.062109
 30
0.0
 10
102.465537
 20
95.425746
 30
0.0
 10
102.101901
 20
95.607564
 30
0.0
 10
101.556446
 20
95.607564
 30
0.0
 10
101.192810
 20
95.425746
 30
0.0
 10
100.829173
 20
95.062109
 30
0.0
 10
100.647355
 20
94.516655
 30
0.0
 10
100.647355
 20
94.153018
 30
0.0
 10
100.829173
 20
93.607564
 30
0.0
 10
101.192810
 20
93.243927
 30
0.0
 10
101.556446
 20
93.062109
 30
0.0
 10
102.101901
 20
93.062109
 30
0.0
 10
102.465537
 20
93.243927
 30
0.0
 10
102.829173
 20
93.607564
 30
0.0
  0
LWPOLYLINE
  5
17a
100
AcDbEntity
  8
Servos
 62
7
100
AcDbPolyline
 90
5
 70
0
 10
77.829867
 20
71.469253
 30
0.0
 10
103.708735
 20
71.469253
 30
0.0
 10
103.708735
 20
32.590743
 30
0.0
 10
77.829867
 20
32.590743
 30
0.0
 10
77.829867
 20
71.469253
 30
0.0
  0
LWPOLYLINE
  5
17b
100
AcDbEntity
  8
Servos
 62
7
100
AcDbPolyline
 90
20
 70
0
 10
85.965194
 20
36.480744
 30
0.0
 10
85.601557
 20
36.844380
 30
0.0
 10
85.056103
 20
37.026199
 30
0.0
 10
84.328830
 20
37.026199
 30
0.0
 10
83.783376
 20
36.844380
 30
0.0
 10
83.419739
 20
36.480744
 30
0.0
 10
83.419739
 20
36.117108
 30
0.0
 10
83.601557
 20
35.753471
 30
0.0
 10
83.783376
 20
35.571653
 30
0.0
 10
84.147012
 20
35.389835
 30
0.0
 10
85.237921
 20
35.026199
 30
0.0
 10
85.601557
 20
34.844380
 30
0.0
 10
85.783376
 20
34.662562
 30
0.0
 10
85.965194
 20
34.298926
 30
0.0
 10
85.965194
 20
33.753471
 30
0.0
 10
85.601557
 20
33.389835
 30
0.0
 10
85.056103
 20
33.208017
 30
0.0
 10
84.328830
 20
33.208017
 30
0.0
 10
83.783376
 20
33.389835
 30
0.0
 10
83.419739
 20
33.753471
 30
0.0
  0
LWPOLYLINE
  5
17c
100
AcDbEntity
  8
Servos
 62
7
100
AcDbPolyline
 90
17
 70
0
 10
87.056103
 20
34.662562
 30
0.0
 10
89.237921
 20
34.662562
 30
0.0
 10
89.237921
 20
35.026199
 30
0.0
 10
89.056103
 20
35.389835
 30
0.0
 10
88.874285
 20
35.571653
 30
0.0
 10
88.510648
 20
35.753471
 30
0.0
 10
87.965194
 20
35.753471
 30
0.0
 10
87.601557
 20
35.571653
 30
0.0
 10
87.237921
 20
35.208017
 30
0.0
 10
87.056103
 20
34.662562
 30
0.0
 10
87.056103
 20
34.298926
 30
0.0
 10
87.237921
 20
33.753471
 30
0.0
 10
87.601557
 20
33.389835
 30
0.0
 10
87.965194
 20
33.208017
 30
0.0
 10
88.510648
 20
33.208017
 30
0.0
 10
88.874285
 20
33.389835
 30
0.0
 10
89.237921
 20
33.753471
 30
0.0
  0
LWPOLYLINE
  5
17d
100
AcDbEntity
  8
Servos
 62
7
100
AcDbPolyline
 90
2
 70
0
 10
90.510648
 20
35.753471
 30
0.0
 10
90.510648
 20
33.208017
 30
0.0
  0
LWPOLYLINE
  5
17e
100
AcDbEntity
  8
Servos
 62
7
100
AcDbPolyline
 90
5
 70
0
 10
90.510648
 20
34.662562
 30
0.0
 10
90.692466
 20
35.208017
 30
0.0
 10
91.056103
 20
35.571653
 30
0.0
 10
91.419739
 20
35.753471
 30
0.0
 10
91.965194
 20
35.753471
 30
0.0
  0
LWPOLYLINE
  5
17f
100
AcDbEntity
  8
Servos
 62
7
100
AcDbPolyline
 90
2
 70
0
 10
92.510648
 20
35.753471
 30
0.0
 10
93.601557
 20
33.208017
 30
0.0
  0
LWPOLYLINE
  5
180
100
AcDbEntity
  8
Servos
 62
7
100
AcDbPolyline
 90
2
 70
0
 10
94.692466
 20
35.753471
 30
0.0
 10
93.601557
 20
33.208017
 30
0.0
  0
LWPOLYLINE
  5
181
100
AcDbEntity
  8
Servos
 62
7
100
AcDbPolyline
 90
17
 70
0
 10
96.510648
 20
35.753471
 30
0.0
 10
96.147012
 20
35.571653
 30
0.0
 10
95.783375
 20
35.208017
 30
0.0
 10
95.601557
 20
34.662562
 30
0.0
 10
95.601557
 20
34.298926
 30
0.0
 10
95.783375
 20
33.753471
 30
0.0
 10
96.147012
 20
33.389835
 30
0.0
 10
96.510648
 20
33.208017
 30
0.0
 10
97.056103
 20
33.208017
 30
0.0
 10
97.419739
 20
33.389835
 30
0.0
 10
97.783375
 20
33.753471
 30
0.0
 10
97.965194
 20
34.298926
 30
0.0
 10
97.965194
 20
34.662562
 30
0.0
 10
97.783375
 20
35.208017
 30
0.0
 10
97.419739
 20
35.571653
 30
0.0
 10
97.056103
 20
35.753471
 30
0.0
 10
96.510648
 20
35.753471
 30
0.0
  0
LWPOLYLINE
  5
182
100
AcDbEntity
  8
Servos
 62
7
100
AcDbPolyline
 90
5
 70
0
 10
1.060566
 20
71.469270
 30
0.0
 10
26.939434
 20
71.469270
 30
0.0
 10
26.939434
 20
32.590760
 30
0.0
 10
1.060566
 20
32.590760
 30
0.0
 10
1.060566
 20
71.469270
 30
0.0
  0
LWPOLYLINE
  5
183
100
AcDbEntity
  8
Servos
 62
7
100
AcDbPolyline
 90
20
 70
0
 10
8.286973
 20
36.480744
 30
0.0
 10
7.923337
 20
36.844380
 30
0.0
 10
7.377882
 20
37.026199
 30
0.0
 10
6.650610
 20
37.026199
 30
0.0
 10
6.105155
 20
36.844380
 30
0.0
 10
5.741519
 20
36.480744
 30
0.0
 10
5.741519
 20
36.117108
 30
0.0
 10
5.923337
 20
35.753471
 30
0.0
 10
6.105155
 20
35.571653
 30
0.0
 10
6.468791
 20
35.389835
 30
0.0
 10
7.559701
 20
35.026199
 30
0.0
 10
7.923337
 20
34.844380
 30
0.0
 10
8.105155
 20
34.662562
 30
0.0
 10
8.286973
 20
34.298926
 30
0.0
 10
8.286973
 20
33.753471
 30
0.0
 10
7.923337
 20
33.389835
 30
0.0
 10
7.377882
 20
33.208017
 30
0.0
 10
6.650610
 20
33.208017
 30
0.0
 10
6.105155
 20
33.389835
 30
0.0
 10
5.741519
 20
33.753471
 30
0.0
  0
LWPOLYLINE
  5
184
100
AcDbEntity
  8
Servos
 62
7
100
AcDbPolyline
 90
17
 70
0
 10
9.377882
 20
34.662562
 30
0.0
 10
11.559701
 20
34.662562
 30
0.0
 10
11.559701
 20
35.026199
 30
0.0
 10
11.377882
 20
35.389835
 30
0.0
 10
11.196064
 20
35.571653
 30
0.0
 10
10.832428
 20
35.753471
 30
0.0
 10
10.286973
 20
35.753471
 30
0.0
 10
9.923337
 20
35.571653
 30
0.0
 10
9.559701
 20
35.208017
 30
0.0
 10
9.377882
 20
34.662562
 30
0.0
 10
9.377882
 20
34.298926
 30
0.0
 10
9.559701
 20
33.753471
 30
0.0
 10
9.923337
 20
33.389835
 30
0.0
 10
10.286973
 20
33.208017
 30
0.0
 10
10.832428
 20
33.208017
 30
0.0
 10
11.196064
 20
33.389835
 30
0.0
 10
11.559701
 20
33.753471
 30
0.0
  0
LWPOLYLINE
  5
185
100
AcDbEntity
  8
Servos
 62
7
100
AcDbPolyline
 90
2
 70
0
 10
12.832428
 20
35.753471
 30
0.0
 10
12.832428
 20
33.208017
 30
0.0
  0
LWPOLYLINE
  5
186
100
AcDbEntity
  8
Servos
 62
7
100
AcDbPolyline
 90
5
 70
0
 10
12.832428
 20
34.662562
 30
0.0
 10
13.014246
 20
35.208017
 30
0.0
 10
13.377882
 20
35.571653
 30
0.0
 10
13.741519
 20
35.753471
 30
0.0
 10
14.286973
 20
35.753471
 30
0.0
  0
LWPOLYLINE
  5
187
100
AcDbEntity
  8
Servos
 62
7
100
AcDbPolyline
 90
2
 70
0
 10
14.832428
 20
35.753471
 30
0.0
 10
15.923337
 20
33.208017
 30
0.0
  0
LWPOLYLINE
  5
188
100
AcDbEntity
  8
Servos
 62
7
100
AcDbPolyline
 90
2
 70
0
 10
17.014246
 20
35.753471
 30
0.0
 10
15.923337
 20
33.208017
 30
0.0
  0
LWPOLYLINE
  5
189
100
AcDbEntity
  8
Servos
 62
7
100
AcDbPolyline
 90
17
 70
0
 10
18.832428
 20
35.753471
 30
0.0
 10
18.468791
 20
35.571653
 30
0.0
 10
18.105155
 20
35.208017
 30
0.0
 10
17.923337
 20
34.662562
 30
0.0
 10
17.923337
 20
34.298926
 30
0.0
 10
18.105155
 20
33.753471
 30
0.0
 10
18.468791
 20
33.389835
 30
0.0
 10
18.832428
 20
33.208017
 30
0.0
 10
19.377882
 20
33.208017
 30
0.0
 10
19.741519
 20
33.389835
 30
0.0
 10
20.105155
 20
33.753471
 30
0.0
 10
20.286973
 20
34.298926
 30
0.0
 10
20.286973
 20
34.662562
 30
0.0
 10
20.105155
 20
35.208017
 30
0.0
 10
19.741519
 20
35.571653
 30
0.0
 10
19.377882
 20
35.753471
 30
0.0
 10
18.832428
 20
35.753471
 30
0.0
  0
LWPOLYLINE
  5
18a
100
AcDbEntity
  8
Battery
 62
7
100
AcDbPolyline
 90
5
 70
0
 10
36.967174
 20
69.779916
 30
0.0
 10
67.967174
 20
69.779916
 30
0.0
 10
67.967174
 20
11.779916
 30
0.0
 10
36.967174
 20
11.779916
 30
0.0
 10
36.967174
 20
69.779916
 30
0.0
  0
LWPOLYLINE
  5
18b
100
AcDbEntity
  8
Battery
 62
7
100
AcDbPolyline
 90
2
 70
0
 10
46.578483
 20
16.198836
 30
0.0
 10
46.578483
 20
12.380655
 30
0.0
  0
LWPOLYLINE
  5
18c
100
AcDbEntity
  8
Battery
 62
7
100
AcDbPolyline
 90
9
 70
0
 10
46.578483
 20
16.198836
 30
0.0
 10
48.214847
 20
16.198836
 30
0.0
 10
48.760302
 20
16.017018
 30
0.0
 10
48.942120
 20
15.835200
 30
0.0
 10
49.123938
 20
15.471564
 30
0.0
 10
49.123938
 20
15.107927
 30
0.0
 10
48.942120
 20
14.744291
 30
0.0
 10
48.760302
 20
14.562473
 30
0.0
 10
48.214847
 20
14.380655
 30
0.0
  0
LWPOLYLINE
  5
18d
100
AcDbEntity
  8
Battery
 62
7
100
AcDbPolyline
 90
10
 70
0
 10
46.578483
 20
14.380655
 30
0.0
 10
48.214847
 20
14.380655
 30
0.0
 10
48.760302
 20
14.198836
 30
0.0
 10
48.942120
 20
14.017018
 30
0.0
 10
49.123938
 20
13.653382
 30
0.0
 10
49.123938
 20
13.107927
 30
0.0
 10
48.942120
 20
12.744291
 30
0.0
 10
48.760302
 20
12.562473
 30
0.0
 10
48.214847
 20
12.380655
 30
0.0
 10
46.578483
 20
12.380655
 30
0.0
  0
LWPOLYLINE
  5
18e
100
AcDbEntity
  8
Battery
 62
7
100
AcDbPolyline
 90
2
 70
0
 10
52.396665
 20
14.926109
 30
0.0
 10
52.396665
 20
12.380655
 30
0.0
  0
LWPOLYLINE
  5
18f
100
AcDbEntity
  8
Battery
 62
7
100
AcDbPolyline
 90
14
 70
0
 10
52.396665
 20
14.380655
 30
0.0
 10
52.033029
 20
14.744291
 30
0.0
 10
51.669393
 20
14.926109
 30
0.0
 10
51.123938
 20
14.926109
 30
0.0
 10
50.760302
 20
14.744291
 30
0.0
 10
50.396665
 20
14.380655
 30
0.0
 10
50.214847
 20
13.835200
 30
0.0
 10
50.214847
 20
13.471564
 30
0.0
 10
50.396665
 20
12.926109
 30
0.0
 10
50.760302
 20
12.562473
 30
0.0
 10
51.123938
 20
12.380655
 30
0.0
 10
51.669393
 20
12.380655
 30
0.0
 10
52.033029
 20
12.562473
 30
0.0
 10
52.396665
 20
12.926109
 30
0.0
  0
LWPOLYLINE
  5
190
100
AcDbEntity
  8
Battery
 62
7
100
AcDbPolyline
 90
5
 70
0
 10
54.033029
 20
16.198836
 30
0.0
 10
54.033029
 20
13.107927
 30
0.0
 10
54.214847
 20
12.562473
 30
0.0
 10
54.578483
 20
12.380655
 30
0.0
 10
54.942120
 20
12.380655
 30
0.0
  0
LWPOLYLINE
  5
191
100
AcDbEntity
  8
Battery
 62
7
100
AcDbPolyline
 90
2
 70
0
 10
53.487574
 20
14.926109
 30
0.0
 10
54.760302
 20
14.926109
 30
0.0
  0
LWPOLYLINE
  5
192
100
AcDbEntity
  8
Battery
 62
7
100
AcDbPolyline
 90
5
 70
0
 10
56.214847
 20
16.198836
 30
0.0
 10
56.214847
 20
13.107927
 30
0.0
 10
56.396665
 20
12.562473
 30
0.0
 10
56.760302
 20
12.380655
 30
0.0
 10
57.123938
 20
12.380655
 30
0.0
  0
LWPOLYLINE
  5
193
100
AcDbEntity
  8
Battery
 62
7
100
AcDbPolyline
 90
2
 70
0
 10
55.669393
 20
14.926109
 30
0.0
 10
56.942120
 20
14.926109
 30
0.0
  0
LWPOLYLINE
  5
194
100
AcDbEntity
  8
Battery
 62
7
100
AcDbPolyline
 90
5
 70
0
 10
58.214847
 20
13.289745
 30
0.0
 10
58.033029
 20
13.107927
 30
0.0
 10
58.214847
 20
12.926109
 30
0.0
 10
58.396665
 20
13.107927
 30
0.0
 10
58.214847
 20
13.289745
 30
0.0
  0
LWPOLYLINE
  5
195
100
AcDbEntity
  8
LeoStick
 62
7
100
AcDbPolyline
 90
2
 70
0
 10
11.999997
 20
136.671005
 30
0.0
 10
20.148629
 20
136.671033
 30
0.0
  0
LWPOLYLINE
  5
196
100
AcDbEntity
  8
LeoStick
 62
7
100
AcDbPolyline
 90
4
 70
0
 10
25.700000
 20
136.671005
 30
0.0
 10
36.986698
 20
136.671095
 30
0.0
 10
36.986698
 20
118.784398
 30
0.0
 10
25.621694
 20
118.784398
 30
0.0
  0
LWPOLYLINE
  5
197
100
AcDbEntity
  8
LeoStick
 62
7
100
AcDbPolyline
 90
2
 70
0
 10
20.322000
 20
118.784398
 30
0.0
 10
11.769512
 20
118.784398
 30
0.0
  0
LWPOLYLINE
  5
198
100
AcDbEntity
  8
LeoStick
 62
7
100
AcDbPolyline
 90
4
 70
0
 10
6.770000
 20
118.784398
 30
0.0
 10
1.100000
 20
118.784398
 30
0.0
 10
1.100000
 20
136.671095
 30
0.0
 10
6.659703
 20
136.671005
 30
0.0
  0
LWPOLYLINE
  5
199
100
AcDbEntity
  8
LeoStick
 62
7
100
AcDbPolyline
 90
3
 70
0
 10
7.443282
 20
126.667638
 30
0.0
 10
7.443282
 20
123.015464
 30
0.0
 10
9.530239
 20
123.015464
 30
0.0
  0
LWPOLYLINE
  5
19a
100
AcDbEntity
  8
LeoStick
 62
7
100
AcDbPolyline
 90
17
 70
0
 10
10.225891
 20
124.406768
 30
0.0
 10
12.312847
 20
124.406768
 30
0.0
 10
12.312847
 20
124.754594
 30
0.0
 10
12.138934
 20
125.102420
 30
0.0
 10
11.965021
 20
125.276333
 30
0.0
 10
11.617195
 20
125.450246
 30
0.0
 10
11.095456
 20
125.450246
 30
0.0
 10
10.747630
 20
125.276333
 30
0.0
 10
10.399804
 20
124.928507
 30
0.0
 10
10.225891
 20
124.406768
 30
0.0
 10
10.225891
 20
124.058942
 30
0.0
 10
10.399804
 20
123.537203
 30
0.0
 10
10.747630
 20
123.189377
 30
0.0
 10
11.095456
 20
123.015464
 30
0.0
 10
11.617195
 20
123.015464
 30
0.0
 10
11.965021
 20
123.189377
 30
0.0
 10
12.312847
 20
123.537203
 30
0.0
  0
LWPOLYLINE
  5
19b
100
AcDbEntity
  8
LeoStick
 62
7
100
AcDbPolyline
 90
17
 70
0
 10
14.225891
 20
125.450246
 30
0.0
 10
13.878065
 20
125.276333
 30
0.0
 10
13.530239
 20
124.928507
 30
0.0
 10
13.356326
 20
124.406768
 30
0.0
 10
13.356326
 20
124.058942
 30
0.0
 10
13.530239
 20
123.537203
 30
0.0
 10
13.878065
 20
123.189377
 30
0.0
 10
14.225891
 20
123.015464
 30
0.0
 10
14.747630
 20
123.015464
 30
0.0
 10
15.095456
 20
123.189377
 30
0.0
 10
15.443282
 20
123.537203
 30
0.0
 10
15.617195
 20
124.058942
 30
0.0
 10
15.617195
 20
124.406768
 30
0.0
 10
15.443282
 20
124.928507
 30
0.0
 10
15.095456
 20
125.276333
 30
0.0
 10
14.747630
 20
125.450246
 30
0.0
 10
14.225891
 20
125.450246
 30
0.0
  0
LWPOLYLINE
  5
19c
100
AcDbEntity
  8
LeoStick
 62
7
100
AcDbPolyline
 90
20
 70
0
 10
19.095456
 20
126.145898
 30
0.0
 10
18.747630
 20
126.493725
 30
0.0
 10
18.225891
 20
126.667638
 30
0.0
 10
17.530239
 20
126.667638
 30
0.0
 10
17.008500
 20
126.493725
 30
0.0
 10
16.660673
 20
126.145898
 30
0.0
 10
16.660673
 20
125.798072
 30
0.0
 10
16.834586
 20
125.450246
 30
0.0
 10
17.008500
 20
125.276333
 30
0.0
 10
17.356326
 20
125.102420
 30
0.0
 10
18.399804
 20
124.754594
 30
0.0
 10
18.747630
 20
124.580681
 30
0.0
 10
18.921543
 20
124.406768
 30
0.0
 10
19.095456
 20
124.058942
 30
0.0
 10
19.095456
 20
123.537203
 30
0.0
 10
18.747630
 20
123.189377
 30
0.0
 10
18.225891
 20
123.015464
 30
0.0
 10
17.530239
 20
123.015464
 30
0.0
 10
17.008500
 20
123.189377
 30
0.0
 10
16.660673
 20
123.537203
 30
0.0
  0
LWPOLYLINE
  5
19d
100
AcDbEntity
  8
LeoStick
 62
7
100
AcDbPolyline
 90
5
 70
0
 10
20.486760
 20
126.667638
 30
0.0
 10
20.486760
 20
123.711116
 30
0.0
 10
20.660673
 20
123.189377
 30
0.0
 10
21.008500
 20
123.015464
 30
0.0
 10
21.356326
 20
123.015464
 30
0.0
  0
LWPOLYLINE
  5
19e
100
AcDbEntity
  8
LeoStick
 62
7
100
AcDbPolyline
 90
2
 70
0
 10
19.965021
 20
125.450246
 30
0.0
 10
21.182413
 20
125.450246
 30
0.0
  0
LWPOLYLINE
  5
19f
100
AcDbEntity
  8
LeoStick
 62
7
100
AcDbPolyline
 90
5
 70
0
 10
22.225891
 20
126.667638
 30
0.0
 10
22.399804
 20
126.493725
 30
0.0
 10
22.573717
 20
126.667638
 30
0.0
 10
22.399804
 20
126.841551
 30
0.0
 10
22.225891
 20
126.667638
 30
0.0
  0
LWPOLYLINE
  5
1a0
100
AcDbEntity
  8
LeoStick
 62
7
100
AcDbPolyline
 90
2
 70
0
 10
22.399804
 20
125.450246
 30
0.0
 10
22.399804
 20
123.015464
 30
0.0
  0
LWPOLYLINE
  5
1a1
100
AcDbEntity
  8
LeoStick
 62
7
100
AcDbPolyline
 90
14
 70
0
 10
25.704152
 20
124.928507
 30
0.0
 10
25.356326
 20
125.276333
 30
0.0
 10
25.008500
 20
125.450246
 30
0.0
 10
24.486760
 20
125.450246
 30
0.0
 10
24.138934
 20
125.276333
 30
0.0
 10
23.791108
 20
124.928507
 30
0.0
 10
23.617195
 20
124.406768
 30
0.0
 10
23.617195
 20
124.058942
 30
0.0
 10
23.791108
 20
123.537203
 30
0.0
 10
24.138934
 20
123.189377
 30
0.0
 10
24.486760
 20
123.015464
 30
0.0
 10
25.008500
 20
123.015464
 30
0.0
 10
25.356326
 20
123.189377
 30
0.0
 10
25.704152
 20
123.537203
 30
0.0
  0
LWPOLYLINE
  5
1a2
100
AcDbEntity
  8
LeoStick
 62
7
100
AcDbPolyline
 90
2
 70
0
 10
26.921543
 20
126.667638
 30
0.0
 10
26.921543
 20
123.015464
 30
0.0
  0
LWPOLYLINE
  5
1a3
100
AcDbEntity
  8
LeoStick
 62
7
100
AcDbPolyline
 90
2
 70
0
 10
28.660673
 20
125.450246
 30
0.0
 10
26.921543
 20
123.711116
 30
0.0
  0
LWPOLYLINE
  5
1a4
100
AcDbEntity
  8
LeoStick
 62
7
100
AcDbPolyline
 90
2
 70
0
 10
27.617195
 20
124.406768
 30
0.0
 10
28.834586
 20
123.015464
 30
0.0
  0
LWPOLYLINE
  5
1a5
100
AcDbEntity
  8
Additional_Text
 62
7
100
AcDbPolyline
 90
20
 70
0
 10
9.140129
 20
113.300078
 30
0.0
 10
8.873463
 20
113.566744
 30
0.0
 10
8.473463
 20
113.700078
 30
0.0
 10
7.940129
 20
113.700078
 30
0.0
 10
7.540129
 20
113.566744
 30
0.0
 10
7.273463
 20
113.300078
 30
0.0
 10
7.273463
 20
113.033411
 30
0.0
 10
7.406796
 20
112.766744
 30
0.0
 10
7.540129
 20
112.633411
 30
0.0
 10
7.806796
 20
112.500078
 30
0.0
 10
8.606796
 20
112.233411
 30
0.0
 10
8.873463
 20
112.100078
 30
0.0
 10
9.006796
 20
111.966744
 30
0.0
 10
9.140129
 20
111.700078
 30
0.0
 10
9.140129
 20
111.300078
 30
0.0
 10
8.873463
 20
111.033411
 30
0.0
 10
8.473463
 20
110.900078
 30
0.0
 10
7.940129
 20
110.900078
 30
0.0
 10
7.540129
 20
111.033411
 30
0.0
 10
7.273463
 20
111.300078
 30
0.0
  0
LWPOLYLINE
  5
1a6
100
AcDbEntity
  8
Additional_Text
 62
7
100
AcDbPolyline
 90
5
 70
0
 10
9.940129
 20
113.700078
 30
0.0
 10
10.073463
 20
113.566744
 30
0.0
 10
10.206796
 20
113.700078
 30
0.0
 10
10.073463
 20
113.833411
 30
0.0
 10
9.940129
 20
113.700078
 30
0.0
  0
LWPOLYLINE
  5
1a7
100
AcDbEntity
  8
Additional_Text
 62
7
100
AcDbPolyline
 90
2
 70
0
 10
10.073463
 20
112.766744
 30
0.0
 10
10.073463
 20
110.900078
 30
0.0
  0
LWPOLYLINE
  5
1a8
100
AcDbEntity
  8
Additional_Text
 62
7
100
AcDbPolyline
 90
2
 70
0
 10
11.140129
 20
112.766744
 30
0.0
 10
11.140129
 20
110.900078
 30
0.0
  0
LWPOLYLINE
  5
1a9
100
AcDbEntity
  8
Additional_Text
 62
7
100
AcDbPolyline
 90
7
 70
0
 10
11.140129
 20
112.233411
 30
0.0
 10
11.540129
 20
112.633411
 30
0.0
 10
11.806796
 20
112.766744
 30
0.0
 10
12.206796
 20
112.766744
 30
0.0
 10
12.473463
 20
112.633411
 30
0.0
 10
12.606796
 20
112.233411
 30
0.0
 10
12.606796
 20
110.900078
 30
0.0
  0
LWPOLYLINE
  5
1aa
100
AcDbEntity
  8
Additional_Text
 62
7
100
AcDbPolyline
 90
7
 70
0
 10
12.606796
 20
112.233411
 30
0.0
 10
13.006796
 20
112.633411
 30
0.0
 10
13.273463
 20
112.766744
 30
0.0
 10
13.673463
 20
112.766744
 30
0.0
 10
13.940129
 20
112.633411
 30
0.0
 10
14.073463
 20
112.233411
 30
0.0
 10
14.073463
 20
110.900078
 30
0.0
  0
LWPOLYLINE
  5
1ab
100
AcDbEntity
  8
Additional_Text
 62
7
100
AcDbPolyline
 90
2
 70
0
 10
15.140129
 20
112.766744
 30
0.0
 10
15.140129
 20
109.966744
 30
0.0
  0
LWPOLYLINE
  5
1ac
100
AcDbEntity
  8
Additional_Text
 62
7
100
AcDbPolyline
 90
14
 70
0
 10
15.140129
 20
112.366744
 30
0.0
 10
15.406796
 20
112.633411
 30
0.0
 10
15.673463
 20
112.766744
 30
0.0
 10
16.073463
 20
112.766744
 30
0.0
 10
16.340129
 20
112.633411
 30
0.0
 10
16.606796
 20
112.366744
 30
0.0
 10
16.740129
 20
111.966744
 30
0.0
 10
16.740129
 20
111.700078
 30
0.0
 10
16.606796
 20
111.300078
 30
0.0
 10
16.340129
 20
111.033411
 30
0.0
 10
16.073463
 20
110.900078
 30
0.0
 10
15.673463
 20
110.900078
 30
0.0
 10
15.406796
 20
111.033411
 30
0.0
 10
15.140129
 20
111.300078
 30
0.0
  0
LWPOLYLINE
  5
1ad
100
AcDbEntity
  8
Additional_Text
 62
7
100
AcDbPolyline
 90
2
 70
0
 10
17.673463
 20
113.700078
 30
0.0
 10
17.673463
 20
110.900078
 30
0.0
  0
LWPOLYLINE
  5
1ae
100
AcDbEntity
  8
Additional_Text
 62
7
100
AcDbPolyline
 90
17
 70
0
 10
18.606796
 20
111.966744
 30
0.0
 10
20.206796
 20
111.966744
 30
0.0
 10
20.206796
 20
112.233411
 30
0.0
 10
20.073463
 20
112.500078
 30
0.0
 10
19.940129
 20
112.633411
 30
0.0
 10
19.673463
 20
112.766744
 30
0.0
 10
19.273463
 20
112.766744
 30
0.0
 10
19.006796
 20
112.633411
 30
0.0
 10
18.740129
 20
112.366744
 30
0.0
 10
18.606796
 20
111.966744
 30
0.0
 10
18.606796
 20
111.700078
 30
0.0
 10
18.740129
 20
111.300078
 30
0.0
 10
19.006796
 20
111.033411
 30
0.0
 10
19.273463
 20
110.900078
 30
0.0
 10
19.673463
 20
110.900078
 30
0.0
 10
19.940129
 20
111.033411
 30
0.0
 10
20.206796
 20
111.300078
 30
0.0
  0
LWPOLYLINE
  5
1af
100
AcDbEntity
  8
Additional_Text
 62
7
100
AcDbPolyline
 90
2
 70
0
 10
21.140129
 20
113.700078
 30
0.0
 10
21.140129
 20
110.900078
 30
0.0
  0
LWPOLYLINE
  5
1b0
100
AcDbEntity
  8
Additional_Text
 62
7
100
AcDbPolyline
 90
9
 70
0
 10
21.140129
 20
113.700078
 30
0.0
 10
22.340129
 20
113.700078
 30
0.0
 10
22.740129
 20
113.566744
 30
0.0
 10
22.873463
 20
113.433411
 30
0.0
 10
23.006796
 20
113.166744
 30
0.0
 10
23.006796
 20
112.900078
 30
0.0
 10
22.873463
 20
112.633411
 30
0.0
 10
22.740129
 20
112.500078
 30
0.0
 10
22.340129
 20
112.366744
 30
0.0
  0
LWPOLYLINE
  5
1b1
100
AcDbEntity
  8
Additional_Text
 62
7
100
AcDbPolyline
 90
10
 70
0
 10
21.140129
 20
112.366744
 30
0.0
 10
22.340129
 20
112.366744
 30
0.0
 10
22.740129
 20
112.233411
 30
0.0
 10
22.873463
 20
112.100078
 30
0.0
 10
23.006796
 20
111.833411
 30
0.0
 10
23.006796
 20
111.433411
 30
0.0
 10
22.873463
 20
111.166744
 30
0.0
 10
22.740129
 20
111.033411
 30
0.0
 10
22.340129
 20
110.900078
 30
0.0
 10
21.140129
 20
110.900078
 30
0.0
  0
LWPOLYLINE
  5
1b2
100
AcDbEntity
  8
Additional_Text
 62
7
100
AcDbPolyline
 90
17
 70
0
 10
24.473462
 20
112.766744
 30
0.0
 10
24.206796
 20
112.633411
 30
0.0
 10
23.940129
 20
112.366744
 30
0.0
 10
23.806796
 20
111.966744
 30
0.0
 10
23.806796
 20
111.700078
 30
0.0
 10
23.940129
 20
111.300078
 30
0.0
 10
24.206796
 20
111.033411
 30
0.0
 10
24.473462
 20
110.900078
 30
0.0
 10
24.873462
 20
110.900078
 30
0.0
 10
25.140129
 20
111.033411
 30
0.0
 10
25.406796
 20
111.300078
 30
0.0
 10
25.540129
 20
111.700078
 30
0.0
 10
25.540129
 20
111.966744
 30
0.0
 10
25.406796
 20
112.366744
 30
0.0
 10
25.140129
 20
112.633411
 30
0.0
 10
24.873462
 20
112.766744
 30
0.0
 10
24.473462
 20
112.766744
 30
0.0
  0
LWPOLYLINE
  5
1b3
100
AcDbEntity
  8
Additional_Text
 62
7
100
AcDbPolyline
 90
5
 70
0
 10
26.606796
 20
113.700078
 30
0.0
 10
26.606796
 20
111.433411
 30
0.0
 10
26.740129
 20
111.033411
 30
0.0
 10
27.006796
 20
110.900078
 30
0.0
 10
27.273462
 20
110.900078
 30
0.0
  0
LWPOLYLINE
  5
1b4
100
AcDbEntity
  8
Additional_Text
 62
7
100
AcDbPolyline
 90
2
 70
0
 10
26.206796
 20
112.766744
 30
0.0
 10
27.140129
 20
112.766744
 30
0.0
  0
LWPOLYLINE
  5
1b5
100
AcDbEntity
  8
Additional_Text
 62
7
100
AcDbPolyline
 90
2
 70
0
 10
29.806796
 20
113.700078
 30
0.0
 10
30.873462
 20
110.900078
 30
0.0
  0
LWPOLYLINE
  5
1b6
100
AcDbEntity
  8
Additional_Text
 62
7
100
AcDbPolyline
 90
2
 70
0
 10
31.940129
 20
113.700078
 30
0.0
 10
30.873462
 20
110.900078
 30
0.0
  0
LWPOLYLINE
  5
1b7
100
AcDbEntity
  8
Additional_Text
 62
7
100
AcDbPolyline
 90
14
 70
0
 10
32.606796
 20
113.033411
 30
0.0
 10
32.606796
 20
113.166744
 30
0.0
 10
32.740129
 20
113.433411
 30
0.0
 10
32.873462
 20
113.566744
 30
0.0
 10
33.140129
 20
113.700078
 30
0.0
 10
33.673462
 20
113.700078
 30
0.0
 10
33.940129
 20
113.566744
 30
0.0
 10
34.073462
 20
113.433411
 30
0.0
 10
34.206796
 20
113.166744
 30
0.0
 10
34.206796
 20
112.900078
 30
0.0
 10
34.073462
 20
112.633411
 30
0.0
 10
33.806796
 20
112.233411
 30
0.0
 10
32.473462
 20
110.900078
 30
0.0
 10
34.340129
 20
110.900078
 30
0.0
  0
LWPOLYLINE
  5
1b8
100
AcDbEntity
  8
Additional_Text
 62
7
100
AcDbPolyline
 90
2
 70
0
 10
7.249087
 20
98.878623
 30
0.0
 10
7.249087
 20
95.982071
 30
0.0
  0
LWPOLYLINE
  5
1b9
100
AcDbEntity
  8
Additional_Text
 62
7
100
AcDbPolyline
 90
7
 70
0
 10
7.249087
 20
97.361381
 30
0.0
 10
7.662880
 20
97.775174
 30
0.0
 10
7.938742
 20
97.913105
 30
0.0
 10
8.352535
 20
97.913105
 30
0.0
 10
8.628398
 20
97.775174
 30
0.0
 10
8.766329
 20
97.361381
 30
0.0
 10
8.766329
 20
95.982071
 30
0.0
  0
LWPOLYLINE
  5
1ba
100
AcDbEntity
  8
Additional_Text
 62
7
100
AcDbPolyline
 90
2
 70
0
 10
11.387018
 20
97.913105
 30
0.0
 10
11.387018
 20
95.982071
 30
0.0
  0
LWPOLYLINE
  5
1bb
100
AcDbEntity
  8
Additional_Text
 62
7
100
AcDbPolyline
 90
14
 70
0
 10
11.387018
 20
97.499312
 30
0.0
 10
11.111156
 20
97.775174
 30
0.0
 10
10.835294
 20
97.913105
 30
0.0
 10
10.421501
 20
97.913105
 30
0.0
 10
10.145639
 20
97.775174
 30
0.0
 10
9.869777
 20
97.499312
 30
0.0
 10
9.731846
 20
97.085519
 30
0.0
 10
9.731846
 20
96.809657
 30
0.0
 10
9.869777
 20
96.395864
 30
0.0
 10
10.145639
 20
96.120002
 30
0.0
 10
10.421501
 20
95.982071
 30
0.0
 10
10.835294
 20
95.982071
 30
0.0
 10
11.111156
 20
96.120002
 30
0.0
 10
11.387018
 20
96.395864
 30
0.0
  0
LWPOLYLINE
  5
1bc
100
AcDbEntity
  8
Additional_Text
 62
7
100
AcDbPolyline
 90
14
 70
0
 10
14.007708
 20
97.499312
 30
0.0
 10
13.731846
 20
97.775174
 30
0.0
 10
13.455984
 20
97.913105
 30
0.0
 10
13.042191
 20
97.913105
 30
0.0
 10
12.766329
 20
97.775174
 30
0.0
 10
12.490466
 20
97.499312
 30
0.0
 10
12.352535
 20
97.085519
 30
0.0
 10
12.352535
 20
96.809657
 30
0.0
 10
12.490466
 20
96.395864
 30
0.0
 10
12.766329
 20
96.120002
 30
0.0
 10
13.042191
 20
95.982071
 30
0.0
 10
13.455984
 20
95.982071
 30
0.0
 10
13.731846
 20
96.120002
 30
0.0
 10
14.007708
 20
96.395864
 30
0.0
  0
LWPOLYLINE
  5
1bd
100
AcDbEntity
  8
Additional_Text
 62
7
100
AcDbPolyline
 90
2
 70
0
 10
14.973225
 20
98.878623
 30
0.0
 10
14.973225
 20
95.982071
 30
0.0
  0
LWPOLYLINE
  5
1be
100
AcDbEntity
  8
Additional_Text
 62
7
100
AcDbPolyline
 90
2
 70
0
 10
16.352535
 20
97.913105
 30
0.0
 10
14.973225
 20
96.533795
 30
0.0
  0
LWPOLYLINE
  5
1bf
100
AcDbEntity
  8
Additional_Text
 62
7
100
AcDbPolyline
 90
2
 70
0
 10
15.524949
 20
97.085519
 30
0.0
 10
16.490466
 20
95.982071
 30
0.0
  0
LWPOLYLINE
  5
1c0
100
AcDbEntity
  8
Additional_Text
 62
7
100
AcDbPolyline
 90
2
 70
0
 10
17.318053
 20
97.913105
 30
0.0
 10
17.318053
 20
95.982071
 30
0.0
  0
LWPOLYLINE
  5
1c1
100
AcDbEntity
  8
Additional_Text
 62
7
100
AcDbPolyline
 90
7
 70
0
 10
17.318053
 20
97.361381
 30
0.0
 10
17.731846
 20
97.775174
 30
0.0
 10
18.007708
 20
97.913105
 30
0.0
 10
18.421501
 20
97.913105
 30
0.0
 10
18.697363
 20
97.775174
 30
0.0
 10
18.835294
 20
97.361381
 30
0.0
 10
18.835294
 20
95.982071
 30
0.0
  0
LWPOLYLINE
  5
1c2
100
AcDbEntity
  8
Additional_Text
 62
7
100
AcDbPolyline
 90
7
 70
0
 10
18.835294
 20
97.361381
 30
0.0
 10
19.249087
 20
97.775174
 30
0.0
 10
19.524949
 20
97.913105
 30
0.0
 10
19.938742
 20
97.913105
 30
0.0
 10
20.214604
 20
97.775174
 30
0.0
 10
20.352535
 20
97.361381
 30
0.0
 10
20.352535
 20
95.982071
 30
0.0
  0
LWPOLYLINE
  5
1c3
100
AcDbEntity
  8
Additional_Text
 62
7
100
AcDbPolyline
 90
17
 70
0
 10
21.318053
 20
97.085519
 30
0.0
 10
22.973225
 20
97.085519
 30
0.0
 10
22.973225
 20
97.361381
 30
0.0
 10
22.835294
 20
97.637243
 30
0.0
 10
22.697363
 20
97.775174
 30
0.0
 10
22.421501
 20
97.913105
 30
0.0
 10
22.007708
 20
97.913105
 30
0.0
 10
21.731846
 20
97.775174
 30
0.0
 10
21.455984
 20
97.499312
 30
0.0
 10
21.318053
 20
97.085519
 30
0.0
 10
21.318053
 20
96.809657
 30
0.0
 10
21.455984
 20
96.395864
 30
0.0
 10
21.731846
 20
96.120002
 30
0.0
 10
22.007708
 20
95.982071
 30
0.0
 10
22.421501
 20
95.982071
 30
0.0
 10
22.697363
 20
96.120002
 30
0.0
 10
22.973225
 20
96.395864
 30
0.0
  0
LWPOLYLINE
  5
1c4
100
AcDbEntity
  8
Additional_Text
 62
7
100
AcDbPolyline
 90
2
 70
0
 10
23.938742
 20
98.878623
 30
0.0
 10
23.938742
 20
95.982071
 30
0.0
  0
LWPOLYLINE
  5
1c5
100
AcDbEntity
  8
Additional_Text
 62
7
100
AcDbPolyline
 90
2
 70
0
 10
25.042191
 20
98.878623
 30
0.0
 10
25.042191
 20
95.982071
 30
0.0
  0
LWPOLYLINE
  5
1c6
100
AcDbEntity
  8
Additional_Text
 62
7
100
AcDbPolyline
 90
14
 70
0
 10
25.042191
 20
97.499312
 30
0.0
 10
25.318053
 20
97.775174
 30
0.0
 10
25.593915
 20
97.913105
 30
0.0
 10
26.007708
 20
97.913105
 30
0.0
 10
26.283570
 20
97.775174
 30
0.0
 10
26.559432
 20
97.499312
 30
0.0
 10
26.697363
 20
97.085519
 30
0.0
 10
26.697363
 20
96.809657
 30
0.0
 10
26.559432
 20
96.395864
 30
0.0
 10
26.283570
 20
96.120002
 30
0.0
 10
26.007708
 20
95.982071
 30
0.0
 10
25.593915
 20
95.982071
 30
0.0
 10
25.318053
 20
96.120002
 30
0.0
 10
25.042191
 20
96.395864
 30
0.0
  0
LWPOLYLINE
  5
1c7
100
AcDbEntity
  8
Additional_Text
 62
7
100
AcDbPolyline
 90
17
 70
0
 10
28.214604
 20
97.913105
 30
0.0
 10
27.938742
 20
97.775174
 30
0.0
 10
27.662880
 20
97.499312
 30
0.0
 10
27.524949
 20
97.085519
 30
0.0
 10
27.524949
 20
96.809657
 30
0.0
 10
27.662880
 20
96.395864
 30
0.0
 10
27.938742
 20
96.120002
 30
0.0
 10
28.214604
 20
95.982071
 30
0.0
 10
28.628397
 20
95.982071
 30
0.0
 10
28.904260
 20
96.120002
 30
0.0
 10
29.180122
 20
96.395864
 30
0.0
 10
29.318053
 20
96.809657
 30
0.0
 10
29.318053
 20
97.085519
 30
0.0
 10
29.180122
 20
97.499312
 30
0.0
 10
28.904260
 20
97.775174
 30
0.0
 10
28.628397
 20
97.913105
 30
0.0
 10
28.214604
 20
97.913105
 30
0.0
  0
LWPOLYLINE
  5
1c8
100
AcDbEntity
  8
Additional_Text
 62
7
100
AcDbPolyline
 90
7
 70
0
 10
30.283570
 20
97.913105
 30
0.0
 10
30.283570
 20
96.533795
 30
0.0
 10
30.421501
 20
96.120002
 30
0.0
 10
30.697363
 20
95.982071
 30
0.0
 10
31.111156
 20
95.982071
 30
0.0
 10
31.387018
 20
96.120002
 30
0.0
 10
31.800811
 20
96.533795
 30
0.0
  0
LWPOLYLINE
  5
1c9
100
AcDbEntity
  8
Additional_Text
 62
7
100
AcDbPolyline
 90
2
 70
0
 10
31.800811
 20
97.913105
 30
0.0
 10
31.800811
 20
95.982071
 30
0.0
  0
LWPOLYLINE
  5
1ca
100
AcDbEntity
  8
Additional_Text
 62
7
100
AcDbPolyline
 90
2
 70
0
 10
32.904260
 20
97.913105
 30
0.0
 10
32.904260
 20
95.982071
 30
0.0
  0
LWPOLYLINE
  5
1cb
100
AcDbEntity
  8
Additional_Text
 62
7
100
AcDbPolyline
 90
5
 70
0
 10
32.904260
 20
97.085519
 30
0.0
 10
33.042191
 20
97.499312
 30
0.0
 10
33.318053
 20
97.775174
 30
0.0
 10
33.593915
 20
97.913105
 30
0.0
 10
34.007708
 20
97.913105
 30
0.0
  0
LWPOLYLINE
  5
1cc
100
AcDbEntity
  8
Additional_Text
 62
7
100
AcDbPolyline
 90
2
 70
0
 10
34.697363
 20
97.913105
 30
0.0
 10
34.697363
 20
95.982071
 30
0.0
  0
LWPOLYLINE
  5
1cd
100
AcDbEntity
  8
Additional_Text
 62
7
100
AcDbPolyline
 90
7
 70
0
 10
34.697363
 20
97.361381
 30
0.0
 10
35.111156
 20
97.775174
 30
0.0
 10
35.387018
 20
97.913105
 30
0.0
 10
35.800811
 20
97.913105
 30
0.0
 10
36.076673
 20
97.775174
 30
0.0
 10
36.214604
 20
97.361381
 30
0.0
 10
36.214604
 20
95.982071
 30
0.0
  0
LWPOLYLINE
  5
1ce
100
AcDbEntity
  8
Additional_Text
 62
7
100
AcDbPolyline
 90
17
 70
0
 10
37.180122
 20
97.085519
 30
0.0
 10
38.835294
 20
97.085519
 30
0.0
 10
38.835294
 20
97.361381
 30
0.0
 10
38.697363
 20
97.637243
 30
0.0
 10
38.559432
 20
97.775174
 30
0.0
 10
38.283570
 20
97.913105
 30
0.0
 10
37.869777
 20
97.913105
 30
0.0
 10
37.593915
 20
97.775174
 30
0.0
 10
37.318053
 20
97.499312
 30
0.0
 10
37.180122
 20
97.085519
 30
0.0
 10
37.180122
 20
96.809657
 30
0.0
 10
37.318053
 20
96.395864
 30
0.0
 10
37.593915
 20
96.120002
 30
0.0
 10
37.869777
 20
95.982071
 30
0.0
 10
38.283570
 20
95.982071
 30
0.0
 10
38.559432
 20
96.120002
 30
0.0
 10
38.835294
 20
96.395864
 30
0.0
  0
LWPOLYLINE
  5
1cf
100
AcDbEntity
  8
Additional_Text
 62
7
100
AcDbPolyline
 90
5
 70
0
 10
39.800811
 20
96.671726
 30
0.0
 10
39.662880
 20
96.533795
 30
0.0
 10
39.800811
 20
96.395864
 30
0.0
 10
39.938742
 20
96.533795
 30
0.0
 10
39.800811
 20
96.671726
 30
0.0
  0
LWPOLYLINE
  5
1d0
100
AcDbEntity
  8
Additional_Text
 62
7
100
AcDbPolyline
 90
17
 70
0
 10
41.455984
 20
97.913105
 30
0.0
 10
41.180122
 20
97.775174
 30
0.0
 10
40.904259
 20
97.499312
 30
0.0
 10
40.766328
 20
97.085519
 30
0.0
 10
40.766328
 20
96.809657
 30
0.0
 10
40.904259
 20
96.395864
 30
0.0
 10
41.180122
 20
96.120002
 30
0.0
 10
41.455984
 20
95.982071
 30
0.0
 10
41.869777
 20
95.982071
 30
0.0
 10
42.145639
 20
96.120002
 30
0.0
 10
42.421501
 20
96.395864
 30
0.0
 10
42.559432
 20
96.809657
 30
0.0
 10
42.559432
 20
97.085519
 30
0.0
 10
42.421501
 20
97.499312
 30
0.0
 10
42.145639
 20
97.775174
 30
0.0
 10
41.869777
 20
97.913105
 30
0.0
 10
41.455984
 20
97.913105
 30
0.0
  0
LWPOLYLINE
  5
1d1
100
AcDbEntity
  8
Additional_Text
 62
7
100
AcDbPolyline
 90
2
 70
0
 10
43.524949
 20
97.913105
 30
0.0
 10
43.524949
 20
95.982071
 30
0.0
  0
LWPOLYLINE
  5
1d2
100
AcDbEntity
  8
Additional_Text
 62
7
100
AcDbPolyline
 90
5
 70
0
 10
43.524949
 20
97.085519
 30
0.0
 10
43.662880
 20
97.499312
 30
0.0
 10
43.938742
 20
97.775174
 30
0.0
 10
44.214604
 20
97.913105
 30
0.0
 10
44.628397
 20
97.913105
 30
0.0
  0
LWPOLYLINE
  5
1d3
100
AcDbEntity
  8
Additional_Text
 62
7
100
AcDbPolyline
 90
7
 70
0
 10
46.835294
 20
97.913105
 30
0.0
 10
46.835294
 20
95.706209
 30
0.0
 10
46.697363
 20
95.292416
 30
0.0
 10
46.559432
 20
95.154485
 30
0.0
 10
46.283570
 20
95.016554
 30
0.0
 10
45.869777
 20
95.016554
 30
0.0
 10
45.593915
 20
95.154485
 30
0.0
  0
LWPOLYLINE
  5
1d4
100
AcDbEntity
  8
Additional_Text
 62
7
100
AcDbPolyline
 90
14
 70
0
 10
46.835294
 20
97.499312
 30
0.0
 10
46.559432
 20
97.775174
 30
0.0
 10
46.283570
 20
97.913105
 30
0.0
 10
45.869777
 20
97.913105
 30
0.0
 10
45.593915
 20
97.775174
 30
0.0
 10
45.318053
 20
97.499312
 30
0.0
 10
45.180122
 20
97.085519
 30
0.0
 10
45.180122
 20
96.809657
 30
0.0
 10
45.318053
 20
96.395864
 30
0.0
 10
45.593915
 20
96.120002
 30
0.0
 10
45.869777
 20
95.982071
 30
0.0
 10
46.283570
 20
95.982071
 30
0.0
 10
46.559432
 20
96.120002
 30
0.0
 10
46.835294
 20
96.395864
 30
0.0
  0
LWPOLYLINE
  5
1d5
100
AcDbEntity
  8
Additional_Text
 62
7
100
AcDbPolyline
 90
2
 70
0
 10
5.949371
 20
175.000637
 30
0.0
 10
5.167459
 20
171.121849
 30
0.0
  0
LWPOLYLINE
  5
1d6
100
AcDbEntity
  8
Additional_Text
 62
7
100
AcDbPolyline
 90
2
 70
0
 10
6.619581
 20
175.000637
 30
0.0
 10
5.837669
 20
171.121849
 30
0.0
  0
LWPOLYLINE
  5
1d7
100
AcDbEntity
  8
Additional_Text
 62
7
100
AcDbPolyline
 90
2
 70
0
 10
5.167459
 20
173.424880
 30
0.0
 10
6.731282
 20
173.424880
 30
0.0
  0
LWPOLYLINE
  5
1d8
100
AcDbEntity
  8
Additional_Text
 62
7
100
AcDbPolyline
 90
2
 70
0
 10
5.055757
 20
172.697607
 30
0.0
 10
6.619581
 20
172.697607
 30
0.0
  0
LWPOLYLINE
  5
1d9
100
AcDbEntity
  8
Additional_Text
 62
7
100
AcDbPolyline
 90
2
 70
0
 10
7.513194
 20
173.667304
 30
0.0
 10
7.513194
 20
171.970334
 30
0.0
  0
LWPOLYLINE
  5
1da
100
AcDbEntity
  8
Additional_Text
 62
7
100
AcDbPolyline
 90
7
 70
0
 10
7.513194
 20
173.182455
 30
0.0
 10
7.848299
 20
173.546092
 30
0.0
 10
8.071702
 20
173.667304
 30
0.0
 10
8.406807
 20
173.667304
 30
0.0
 10
8.630211
 20
173.546092
 30
0.0
 10
8.741912
 20
173.182455
 30
0.0
 10
8.741912
 20
171.970334
 30
0.0
  0
LWPOLYLINE
  5
1db
100
AcDbEntity
  8
Additional_Text
 62
7
100
AcDbPolyline
 90
2
 70
0
 10
9.635526
 20
174.515789
 30
0.0
 10
9.635526
 20
171.970334
 30
0.0
  0
LWPOLYLINE
  5
1dc
100
AcDbEntity
  8
Additional_Text
 62
7
100
AcDbPolyline
 90
14
 70
0
 10
9.635526
 20
173.303668
 30
0.0
 10
9.858929
 20
173.546092
 30
0.0
 10
10.082332
 20
173.667304
 30
0.0
 10
10.417437
 20
173.667304
 30
0.0
 10
10.640841
 20
173.546092
 30
0.0
 10
10.864244
 20
173.303668
 30
0.0
 10
10.975946
 20
172.940031
 30
0.0
 10
10.975946
 20
172.697607
 30
0.0
 10
10.864244
 20
172.333971
 30
0.0
 10
10.640841
 20
172.091546
 30
0.0
 10
10.417437
 20
171.970334
 30
0.0
 10
10.082332
 20
171.970334
 30
0.0
 10
9.858929
 20
172.091546
 30
0.0
 10
9.635526
 20
172.333971
 30
0.0
  0
LWPOLYLINE
  5
1dd
100
AcDbEntity
  8
Additional_Text
 62
7
100
AcDbPolyline
 90
2
 70
0
 10
12.986576
 20
174.515789
 30
0.0
 10
12.986576
 20
171.970334
 30
0.0
  0
LWPOLYLINE
  5
1de
100
AcDbEntity
  8
Additional_Text
 62
7
100
AcDbPolyline
 90
14
 70
0
 10
12.986576
 20
173.303668
 30
0.0
 10
12.763172
 20
173.546092
 30
0.0
 10
12.539769
 20
173.667304
 30
0.0
 10
12.204664
 20
173.667304
 30
0.0
 10
11.981261
 20
173.546092
 30
0.0
 10
11.757857
 20
173.303668
 30
0.0
 10
11.646156
 20
172.940031
 30
0.0
 10
11.646156
 20
172.697607
 30
0.0
 10
11.757857
 20
172.333971
 30
0.0
 10
11.981261
 20
172.091546
 30
0.0
 10
12.204664
 20
171.970334
 30
0.0
 10
12.539769
 20
171.970334
 30
0.0
 10
12.763172
 20
172.091546
 30
0.0
 10
12.986576
 20
172.333971
 30
0.0
  0
LWPOLYLINE
  5
1df
100
AcDbEntity
  8
Additional_Text
 62
7
100
AcDbPolyline
 90
2
 70
0
 10
13.880189
 20
174.515789
 30
0.0
 10
13.880189
 20
171.970334
 30
0.0
  0
LWPOLYLINE
  5
1e0
100
AcDbEntity
  8
Additional_Text
 62
7
100
AcDbPolyline
 90
14
 70
0
 10
13.880189
 20
173.303668
 30
0.0
 10
14.103592
 20
173.546092
 30
0.0
 10
14.326996
 20
173.667304
 30
0.0
 10
14.662101
 20
173.667304
 30
0.0
 10
14.885504
 20
173.546092
 30
0.0
 10
15.108907
 20
173.303668
 30
0.0
 10
15.220609
 20
172.940031
 30
0.0
 10
15.220609
 20
172.697607
 30
0.0
 10
15.108907
 20
172.333971
 30
0.0
 10
14.885504
 20
172.091546
 30
0.0
 10
14.662101
 20
171.970334
 30
0.0
 10
14.326996
 20
171.970334
 30
0.0
 10
14.103592
 20
172.091546
 30
0.0
 10
13.880189
 20
172.333971
 30
0.0
  0
LWPOLYLINE
  5
1e1
100
AcDbEntity
  8
Additional_Text
 62
7
100
AcDbPolyline
 90
2
 70
0
 10
16.002521
 20
173.667304
 30
0.0
 10
16.002521
 20
171.970334
 30
0.0
  0
LWPOLYLINE
  5
1e2
100
AcDbEntity
  8
Additional_Text
 62
7
100
AcDbPolyline
 90
5
 70
0
 10
16.002521
 20
172.940031
 30
0.0
 10
16.114222
 20
173.303668
 30
0.0
 10
16.337625
 20
173.546092
 30
0.0
 10
16.561029
 20
173.667304
 30
0.0
 10
16.896134
 20
173.667304
 30
0.0
  0
LWPOLYLINE
  5
1e3
100
AcDbEntity
  8
Additional_Text
 62
7
100
AcDbPolyline
 90
5
 70
0
 10
17.342940
 20
174.515789
 30
0.0
 10
17.454642
 20
174.394577
 30
0.0
 10
17.566344
 20
174.515789
 30
0.0
 10
17.454642
 20
174.637001
 30
0.0
 10
17.342940
 20
174.515789
 30
0.0
  0
LWPOLYLINE
  5
1e4
100
AcDbEntity
  8
Additional_Text
 62
7
100
AcDbPolyline
 90
2
 70
0
 10
17.454642
 20
173.667304
 30
0.0
 10
17.454642
 20
171.970334
 30
0.0
  0
LWPOLYLINE
  5
1e5
100
AcDbEntity
  8
Additional_Text
 62
7
100
AcDbPolyline
 90
17
 70
0
 10
19.465272
 20
173.303668
 30
0.0
 10
19.353570
 20
173.546092
 30
0.0
 10
19.018465
 20
173.667304
 30
0.0
 10
18.683360
 20
173.667304
 30
0.0
 10
18.348255
 20
173.546092
 30
0.0
 10
18.236554
 20
173.303668
 30
0.0
 10
18.348255
 20
173.061243
 30
0.0
 10
18.571659
 20
172.940031
 30
0.0
 10
19.130167
 20
172.818819
 30
0.0
 10
19.353570
 20
172.697607
 30
0.0
 10
19.465272
 20
172.455183
 30
0.0
 10
19.465272
 20
172.333971
 30
0.0
 10
19.353570
 20
172.091546
 30
0.0
 10
19.018465
 20
171.970334
 30
0.0
 10
18.683360
 20
171.970334
 30
0.0
 10
18.348255
 20
172.091546
 30
0.0
 10
18.236554
 20
172.333971
 30
0.0
  0
LWPOLYLINE
  5
1e6
100
AcDbEntity
  8
Additional_Text
 62
7
100
AcDbPolyline
 90
14
 70
0
 10
22.034410
 20
173.909728
 30
0.0
 10
22.034410
 20
174.030940
 30
0.0
 10
22.146112
 20
174.273365
 30
0.0
 10
22.257814
 20
174.394577
 30
0.0
 10
22.481217
 20
174.515789
 30
0.0
 10
22.928024
 20
174.515789
 30
0.0
 10
23.151427
 20
174.394577
 30
0.0
 10
23.263129
 20
174.273365
 30
0.0
 10
23.374830
 20
174.030940
 30
0.0
 10
23.374830
 20
173.788516
 30
0.0
 10
23.263129
 20
173.546092
 30
0.0
 10
23.039725
 20
173.182455
 30
0.0
 10
21.922709
 20
171.970334
 30
0.0
 10
23.486532
 20
171.970334
 30
0.0
  0
LWPOLYLINE
  5
1e7
100
AcDbEntity
  8
Additional_Text
 62
7
100
AcDbPolyline
 90
17
 70
0
 10
24.826952
 20
174.515789
 30
0.0
 10
24.491847
 20
174.394577
 30
0.0
 10
24.268444
 20
174.030940
 30
0.0
 10
24.156742
 20
173.424880
 30
0.0
 10
24.156742
 20
173.061243
 30
0.0
 10
24.268444
 20
172.455183
 30
0.0
 10
24.491847
 20
172.091546
 30
0.0
 10
24.826952
 20
171.970334
 30
0.0
 10
25.050355
 20
171.970334
 30
0.0
 10
25.385460
 20
172.091546
 30
0.0
 10
25.608864
 20
172.455183
 30
0.0
 10
25.720565
 20
173.061243
 30
0.0
 10
25.720565
 20
173.424880
 30
0.0
 10
25.608864
 20
174.030940
 30
0.0
 10
25.385460
 20
174.394577
 30
0.0
 10
25.050355
 20
174.515789
 30
0.0
 10
24.826952
 20
174.515789
 30
0.0
  0
LWPOLYLINE
  5
1e8
100
AcDbEntity
  8
Additional_Text
 62
7
100
AcDbPolyline
 90
4
 70
0
 10
26.725880
 20
174.030940
 30
0.0
 10
26.949284
 20
174.152152
 30
0.0
 10
27.284389
 20
174.515789
 30
0.0
 10
27.284389
 20
171.970334
 30
0.0
  0
LWPOLYLINE
  5
1e9
100
AcDbEntity
  8
Additional_Text
 62
7
100
AcDbPolyline
 90
15
 70
0
 10
28.848212
 20
174.515789
 30
0.0
 10
30.076930
 20
174.515789
 30
0.0
 10
29.406720
 20
173.546092
 30
0.0
 10
29.741825
 20
173.546092
 30
0.0
 10
29.965229
 20
173.424880
 30
0.0
 10
30.076930
 20
173.303668
 30
0.0
 10
30.188632
 20
172.940031
 30
0.0
 10
30.188632
 20
172.697607
 30
0.0
 10
30.076930
 20
172.333971
 30
0.0
 10
29.853527
 20
172.091546
 30
0.0
 10
29.518422
 20
171.970334
 30
0.0
 10
29.183317
 20
171.970334
 30
0.0
 10
28.848212
 20
172.091546
 30
0.0
 10
28.736510
 20
172.212759
 30
0.0
 10
28.624809
 20
172.455183
 30
0.0
  0
LWPOLYLINE
  5
1ea
100
AcDbEntity
  8
Additional_Text
 62
7
100
AcDbPolyline
 90
2
 70
0
 10
30.970544
 20
173.061243
 30
0.0
 10
32.981174
 20
173.061243
 30
0.0
  0
LWPOLYLINE
  5
1eb
100
AcDbEntity
  8
Additional_Text
 62
7
100
AcDbPolyline
 90
4
 70
0
 10
34.098190
 20
174.030940
 30
0.0
 10
34.321594
 20
174.152152
 30
0.0
 10
34.656699
 20
174.515789
 30
0.0
 10
34.656699
 20
171.970334
 30
0.0
  0
LWPOLYLINE
  5
1ec
100
AcDbEntity
  8
Additional_Text
 62
7
100
AcDbPolyline
 90
4
 70
0
 10
36.332223
 20
174.030940
 30
0.0
 10
36.555627
 20
174.152152
 30
0.0
 10
36.890732
 20
174.515789
 30
0.0
 10
36.890732
 20
171.970334
 30
0.0
  0
LWPOLYLINE
  5
1ed
100
AcDbEntity
  8
Additional_Text
 62
7
100
AcDbPolyline
 90
2
 70
0
 10
38.342853
 20
173.061243
 30
0.0
 10
40.353483
 20
173.061243
 30
0.0
  0
LWPOLYLINE
  5
1ee
100
AcDbEntity
  8
Additional_Text
 62
7
100
AcDbPolyline
 90
15
 70
0
 10
41.358798
 20
174.515789
 30
0.0
 10
42.587517
 20
174.515789
 30
0.0
 10
41.917307
 20
173.546092
 30
0.0
 10
42.252412
 20
173.546092
 30
0.0
 10
42.475815
 20
173.424880
 30
0.0
 10
42.587517
 20
173.303668
 30
0.0
 10
42.699218
 20
172.940031
 30
0.0
 10
42.699218
 20
172.697607
 30
0.0
 10
42.587517
 20
172.333971
 30
0.0
 10
42.364113
 20
172.091546
 30
0.0
 10
42.029008
 20
171.970334
 30
0.0
 10
41.693903
 20
171.970334
 30
0.0
 10
41.358798
 20
172.091546
 30
0.0
 10
41.247097
 20
172.212759
 30
0.0
 10
41.135395
 20
172.455183
 30
0.0
  0
LWPOLYLINE
  5
1ef
100
AcDbEntity
  8
Additional_Text
 62
7
100
AcDbPolyline
 90
17
 70
0
 10
44.039638
 20
174.515789
 30
0.0
 10
43.704533
 20
174.394577
 30
0.0
 10
43.481130
 20
174.030940
 30
0.0
 10
43.369428
 20
173.424880
 30
0.0
 10
43.369428
 20
173.061243
 30
0.0
 10
43.481130
 20
172.455183
 30
0.0
 10
43.704533
 20
172.091546
 30
0.0
 10
44.039638
 20
171.970334
 30
0.0
 10
44.263042
 20
171.970334
 30
0.0
 10
44.598147
 20
172.091546
 30
0.0
 10
44.821550
 20
172.455183
 30
0.0
 10
44.933252
 20
173.061243
 30
0.0
 10
44.933252
 20
173.424880
 30
0.0
 10
44.821550
 20
174.030940
 30
0.0
 10
44.598147
 20
174.394577
 30
0.0
 10
44.263042
 20
174.515789
 30
0.0
 10
44.039638
 20
174.515789
 30
0.0
  0
ENDSEC
  0
SECTION
  2
OBJECTS
  0
DICTIONARY
  5
C
330
0
100
AcDbDictionary
  3
ACAD_GROUP
350
D
  3
ACAD_MLINESTYLE
350
17
  0
DICTIONARY
  5
D
330
C
100
AcDbDictionary
  0
DICTIONARY
  5
1A
330
C
100
AcDbDictionary
  0
DICTIONARY
  5
17
330
C
100
AcDbDictionary
  3
STANDARD
350
18
  0
DICTIONARY
  5
19
330
C
100
AcDbDictionary
  0
ENDSEC
  0
EOF
