  0
SECTION
  2
HEADER
  9
$ACADVER
  1
AC1014
  9
$HANDSEED
  5
FFFF
  9
$MEASUREMENT
 70
     1
  0
ENDSEC
  0
SECTION
  2
TABLES
  0
TABLE
  2
VPORT
  5
8
330
0
100
AcDbSymbolTable
 70
     4
  0
VPORT
  5
2E
330
8
100
AcDbSymbolTableRecord
100
AcDbViewportTableRecord
  2
*ACTIVE
 70
     0
 10
0.0
 20
0.0
 11
1.0
 21
1.0
 12
210.0
 22
148.5
 13
0.0
 23
0.0
 14
10.0
 24
10.0
 15
10.0
 25
10.0
 16
0.0
 26
0.0
 36
1.0
 17
0.0
 27
0.0
 37
0.0
 40
341.0
 41
1.24
 42
50.0
 43
0.0
 44
0.0
 50
0.0
 51
0.0
 71
     0
 72
   100
 73
     1
 74
     3
 75
     0
 76
     0
 77
     0
 78
     0
  0
ENDTAB
  0
TABLE
  2
LTYPE
  5
5
330
0
100
AcDbSymbolTable
 70
     1
  0
LTYPE
  5
14
330
5
100
AcDbSymbolTableRecord
100
AcDbLinetypeTableRecord
  2
BYBLOCK
 70
     0
  3

 72
    65
 73
     0
 40
0.0
  0
LTYPE
  5
15
330
5
100
AcDbSymbolTableRecord
100
AcDbLinetypeTableRecord
  2
BYLAYER
 70
     0
  3

 72
    65
 73
     0
 40
0.0
  0
LTYPE
  5
16
330
5
100
AcDbSymbolTableRecord
100
AcDbLinetypeTableRecord
  2
CONTINUOUS
 70
     0
  3
Solid line
 72
    65
 73
     0
 40
0.0
  0
ENDTAB
  0
TABLE
  2
LAYER
  5
2
100
AcDbSymbolTable
 70
4
  0
LAYER
  5
50
100
AcDbSymbolTableRecord
100
AcDbLayerTableRecord
  2
0
 70
0
  6
CONTINUOUS
  0
LAYER
  5
51
100
AcDbSymbolTableRecord
100
AcDbLayerTableRecord
  2
Base_plate
 70
0
  6
CONTINUOUS
  0
LAYER
  5
52
100
AcDbSymbolTableRecord
100
AcDbLayerTableRecord
  2
Bumper_plates
 70
0
  6
CONTINUOUS
  0
LAYER
  5
53
100
AcDbSymbolTableRecord
100
AcDbLayerTableRecord
  2
wheels
 70
0
  6
CONTINUOUS
  0
ENDTAB
  0
TABLE
  2
STYLE
  5
3
330
0
100
AcDbSymbolTable
 70
     1
  0
STYLE
  5
11
330
3
100
AcDbSymbolTableRecord
100
AcDbTextStyleTableRecord
  2
STANDARD
 70
     0
 40
0.0
 41
1.0
 50
0.0
 71
     0
 42
2.5
  3
txt
  4

  0
ENDTAB
  0
TABLE
  2
VIEW
  5
6
330
0
100
AcDbSymbolTable
 70
     0
  0
ENDTAB
  0
TABLE
  2
UCS
  5
7
330
0
100
AcDbSymbolTable
 70
     0
  0
ENDTAB
  0
TABLE
  2
APPID
  5
9
330
0
100
AcDbSymbolTable
 70
     2
  0
APPID
  5
12
330
9
100
AcDbSymbolTableRecord
100
AcDbRegAppTableRecord
  2
ACAD
 70
     0
  0
ENDTAB
  0
TABLE
  2
DIMSTYLE
  5
A
330
0
100
AcDbSymbolTable
 70
     1
  0
DIMSTYLE
105
27
330
A
100
AcDbSymbolTableRecord
100
AcDbDimStyleTableRecord
  2
ISO-25
 70
     0
  3

  4

  5

  6

  7

 40
1.0
 41
2.5
 42
0.625
 43
3.75
 44
1.25
 45
0.0
 46
0.0
 47
0.0
 48
0.0
140
2.5
141
2.5
142
0.0
143
0.03937007874016
144
1.0
145
0.0
146
1.0
147
0.625
 71
     0
 72
     0
 73
     0
 74
     0
 75
     0
 76
     0
 77
     1
 78
     8
170
     0
171
     3
172
     1
173
     0
174
     0
175
     0
176
     0
177
     0
178
     0
270
     2
271
     2
272
     2
273
     2
274
     3
340
11
275
     0
280
     0
281
     0
282
     0
283
     0
284
     8
285
     0
286
     0
287
     3
288
     0
  0
ENDTAB
  0
TABLE
  2
BLOCK_RECORD
  5
1
330
0
100
AcDbSymbolTable
 70
     1
  0
BLOCK_RECORD
  5
1F
330
1
100
AcDbSymbolTableRecord
100
AcDbBlockTableRecord
  2
*MODEL_SPACE
  0
BLOCK_RECORD
  5
1B
330
1
100
AcDbSymbolTableRecord
100
AcDbBlockTableRecord
  2
*PAPER_SPACE
  0
ENDTAB
  0
ENDSEC
  0
SECTION
  2
BLOCKS
  0
BLOCK
  5
20
330
1F
100
AcDbEntity
  8
0
100
AcDbBlockBegin
  2
*MODEL_SPACE
 70
     0
 10
0.0
 20
0.0
 30
0.0
  3
*MODEL_SPACE
  1

  0
ENDBLK
  5
21
330
1F
100
AcDbEntity
  8
0
100
AcDbBlockEnd
  0
BLOCK
  5
1C
330
1B
100
AcDbEntity
 67
     1
  8
0
100
AcDbBlockBegin
  2
*PAPER_SPACE
  1

  0
ENDBLK
  5
1D
330
1B
100
AcDbEntity
 67
     1
  8
0
100
AcDbBlockEnd
  0
ENDSEC
  0
SECTION
  2
ENTITIES
  0
LINE
  5
100
100
AcDbEntity
  8
Base_plate
 62
7
100
AcDbLine
 10
0.017639
 20
159.999853
 30
0.0
 11
0.017639
 21
4.999766
 31
0.0
  0
LINE
  5
101
100
AcDbEntity
  8
Base_plate
 62
7
100
AcDbLine
 10
0.017639
 20
4.999766
 30
0.0
 11
5.000074
 21
4.999766
 31
0.0
  0
LINE
  5
102
100
AcDbEntity
  8
Base_plate
 62
7
100
AcDbLine
 10
5.000074
 20
4.999766
 30
0.0
 11
5.000074
 21
0.000255
 31
0.0
  0
LINE
  5
103
100
AcDbEntity
  8
Base_plate
 62
7
100
AcDbLine
 10
5.000074
 20
0.000255
 30
0.0
 11
19.999744
 21
0.000255
 31
0.0
  0
LINE
  5
104
100
AcDbEntity
  8
Base_plate
 62
7
100
AcDbLine
 10
19.999744
 20
0.000255
 30
0.0
 11
19.999744
 21
4.999766
 31
0.0
  0
LINE
  5
105
100
AcDbEntity
  8
Base_plate
 62
7
100
AcDbLine
 10
19.999744
 20
4.999766
 30
0.0
 11
47.499874
 21
4.999766
 31
0.0
  0
LINE
  5
106
100
AcDbEntity
  8
Base_plate
 62
7
100
AcDbLine
 10
47.499874
 20
4.999766
 30
0.0
 11
47.499874
 21
0.000255
 31
0.0
  0
LINE
  5
107
100
AcDbEntity
  8
Base_plate
 62
7
100
AcDbLine
 10
47.499874
 20
0.000255
 30
0.0
 11
62.500095
 21
0.000255
 31
0.0
  0
LINE
  5
108
100
AcDbEntity
  8
Base_plate
 62
7
100
AcDbLine
 10
62.500095
 20
0.000255
 30
0.0
 11
62.500095
 21
4.999766
 31
0.0
  0
LINE
  5
109
100
AcDbEntity
  8
Base_plate
 62
7
100
AcDbLine
 10
62.500095
 20
4.999766
 30
0.0
 11
90.000226
 21
4.999766
 31
0.0
  0
LINE
  5
10a
100
AcDbEntity
  8
Base_plate
 62
7
100
AcDbLine
 10
90.000226
 20
4.999766
 30
0.0
 11
90.000226
 21
0.000255
 31
0.0
  0
LINE
  5
10b
100
AcDbEntity
  8
Base_plate
 62
7
100
AcDbLine
 10
90.000226
 20
0.000255
 30
0.0
 11
104.999897
 21
0.000255
 31
0.0
  0
LINE
  5
10c
100
AcDbEntity
  8
Base_plate
 62
7
100
AcDbLine
 10
104.999897
 20
0.000255
 30
0.0
 11
104.999897
 21
4.999766
 31
0.0
  0
LINE
  5
10d
100
AcDbEntity
  8
Base_plate
 62
7
100
AcDbLine
 10
104.999897
 20
4.999766
 30
0.0
 11
110.022569
 21
4.999766
 31
0.0
  0
LINE
  5
10e
100
AcDbEntity
  8
Base_plate
 62
7
100
AcDbLine
 10
110.022569
 20
4.999766
 30
0.0
 11
110.022569
 21
159.999853
 31
0.0
  0
LINE
  5
10f
100
AcDbEntity
  8
Base_plate
 62
7
100
AcDbLine
 10
110.022569
 20
159.999853
 30
0.0
 11
0.017639
 21
159.999853
 31
0.0
  0
LINE
  5
110
100
AcDbEntity
  8
Base_plate
 62
7
100
AcDbLine
 10
52.502153
 20
155.200972
 30
0.0
 11
57.502778
 21
155.200972
 31
0.0
  0
LINE
  5
111
100
AcDbEntity
  8
Base_plate
 62
7
100
AcDbLine
 10
57.502778
 20
155.200972
 30
0.0
 11
57.502778
 21
150.217986
 31
0.0
  0
LINE
  5
112
100
AcDbEntity
  8
Base_plate
 62
7
100
AcDbLine
 10
57.502778
 20
150.217986
 30
0.0
 11
52.502153
 21
150.217986
 31
0.0
  0
LINE
  5
113
100
AcDbEntity
  8
Base_plate
 62
7
100
AcDbLine
 10
52.502153
 20
150.217986
 30
0.0
 11
52.502153
 21
155.200972
 31
0.0
  0
LINE
  5
114
100
AcDbEntity
  8
Base_plate
 62
7
100
AcDbLine
 10
23.001111
 20
150.183259
 30
0.0
 11
23.001111
 21
145.216811
 31
0.0
  0
LINE
  5
115
100
AcDbEntity
  8
Base_plate
 62
7
100
AcDbLine
 10
23.001111
 20
145.216811
 30
0.0
 11
18.035764
 21
145.217375
 31
0.0
  0
LINE
  5
116
100
AcDbEntity
  8
Base_plate
 62
7
100
AcDbLine
 10
18.035764
 20
145.217375
 30
0.0
 11
18.035764
 21
150.182722
 31
0.0
  0
LINE
  5
117
100
AcDbEntity
  8
Base_plate
 62
7
100
AcDbLine
 10
18.035764
 20
150.182722
 30
0.0
 11
23.001111
 21
150.183259
 31
0.0
  0
LINE
  5
118
100
AcDbEntity
  8
Base_plate
 62
7
100
AcDbLine
 10
100.038958
 20
150.183259
 30
0.0
 11
105.004306
 21
150.183259
 31
0.0
  0
LINE
  5
119
100
AcDbEntity
  8
Base_plate
 62
7
100
AcDbLine
 10
105.004306
 20
150.183259
 30
0.0
 11
105.004306
 21
145.216811
 31
0.0
  0
LINE
  5
11a
100
AcDbEntity
  8
Base_plate
 62
7
100
AcDbLine
 10
105.004306
 20
145.216811
 30
0.0
 11
100.038958
 21
145.216811
 31
0.0
  0
LINE
  5
11b
100
AcDbEntity
  8
Base_plate
 62
7
100
AcDbLine
 10
100.038958
 20
145.216811
 30
0.0
 11
100.038958
 21
150.183259
 31
0.0
  0
LINE
  5
11c
100
AcDbEntity
  8
Base_plate
 62
7
100
AcDbLine
 10
5.035903
 20
150.182694
 30
0.0
 11
10.001250
 21
150.182694
 31
0.0
  0
LINE
  5
11d
100
AcDbEntity
  8
Base_plate
 62
7
100
AcDbLine
 10
10.001250
 20
150.182694
 30
0.0
 11
10.001250
 21
145.217347
 31
0.0
  0
LINE
  5
11e
100
AcDbEntity
  8
Base_plate
 62
7
100
AcDbLine
 10
10.001250
 20
145.217347
 30
0.0
 11
5.035903
 21
145.217347
 31
0.0
  0
LINE
  5
11f
100
AcDbEntity
  8
Base_plate
 62
7
100
AcDbLine
 10
5.035903
 20
145.217347
 30
0.0
 11
5.035903
 21
150.182694
 31
0.0
  0
LINE
  5
120
100
AcDbEntity
  8
Base_plate
 62
7
100
AcDbLine
 10
87.039097
 20
150.182694
 30
0.0
 11
92.004444
 21
150.182694
 31
0.0
  0
LINE
  5
121
100
AcDbEntity
  8
Base_plate
 62
7
100
AcDbLine
 10
92.004444
 20
150.182694
 30
0.0
 11
92.004444
 21
145.217347
 31
0.0
  0
LINE
  5
122
100
AcDbEntity
  8
Base_plate
 62
7
100
AcDbLine
 10
92.004444
 20
145.217347
 30
0.0
 11
87.039097
 21
145.217347
 31
0.0
  0
LINE
  5
123
100
AcDbEntity
  8
Base_plate
 62
7
100
AcDbLine
 10
87.039097
 20
145.217347
 30
0.0
 11
87.039097
 21
150.182694
 31
0.0
  0
LINE
  5
124
100
AcDbEntity
  8
Base_plate
 62
7
100
AcDbLine
 10
52.551762
 20
144.233978
 30
0.0
 11
57.452065
 21
144.233978
 31
0.0
  0
LINE
  5
125
100
AcDbEntity
  8
Base_plate
 62
7
100
AcDbLine
 10
57.452065
 20
144.233978
 30
0.0
 11
57.452065
 21
139.333674
 31
0.0
  0
LINE
  5
126
100
AcDbEntity
  8
Base_plate
 62
7
100
AcDbLine
 10
57.452065
 20
139.333674
 30
0.0
 11
52.551762
 21
139.333674
 31
0.0
  0
LINE
  5
127
100
AcDbEntity
  8
Base_plate
 62
7
100
AcDbLine
 10
52.551762
 20
139.333674
 30
0.0
 11
52.551762
 21
144.233978
 31
0.0
  0
SPLINE
  5
128
100
AcDbEntity
  8
Base_plate
 62
7
100
AcDbSpline
 70
8
 71
3
 72
8
 73
4
 74
0
 40
0
 40
0
 40
0
 40
0
 40
1
 40
1
 40
1
 40
1
 10
15.266458
 20
140.895833
 30
0.0
 10
15.316287
 20
140.900885
 30
0.0
 10
15.365220
 20
140.895833
 30
0.0
 10
15.416389
 20
140.895833
 30
0.0
  0
SPLINE
  5
129
100
AcDbEntity
  8
Base_plate
 62
7
100
AcDbSpline
 70
8
 71
3
 72
8
 73
4
 74
0
 40
0
 40
0
 40
0
 40
0
 40
1
 40
1
 40
1
 40
1
 10
15.416389
 20
140.895833
 30
0.0
 10
16.235092
 20
140.895833
 30
0.0
 10
16.898056
 20
140.232876
 30
0.0
 10
16.898056
 20
139.414167
 30
0.0
  0
SPLINE
  5
12a
100
AcDbEntity
  8
Base_plate
 62
7
100
AcDbSpline
 70
8
 71
3
 72
8
 73
4
 74
0
 40
0
 40
0
 40
0
 40
0
 40
1
 40
1
 40
1
 40
1
 10
16.898056
 20
139.414167
 30
0.0
 10
16.898056
 20
138.595463
 30
0.0
 10
16.235092
 20
137.932500
 30
0.0
 10
15.416389
 20
137.932500
 30
0.0
  0
SPLINE
  5
12b
100
AcDbEntity
  8
Base_plate
 62
7
100
AcDbSpline
 70
8
 71
3
 72
8
 73
4
 74
0
 40
0
 40
0
 40
0
 40
0
 40
1
 40
1
 40
1
 40
1
 10
15.416389
 20
137.932500
 30
0.0
 10
14.597685
 20
137.932500
 30
0.0
 10
13.934722
 20
138.595463
 30
0.0
 10
13.934722
 20
139.414167
 30
0.0
  0
SPLINE
  5
12c
100
AcDbEntity
  8
Base_plate
 62
7
100
AcDbSpline
 70
8
 71
3
 72
8
 73
4
 74
0
 40
0
 40
0
 40
0
 40
0
 40
1
 40
1
 40
1
 40
1
 10
13.934722
 20
139.414167
 30
0.0
 10
13.934722
 20
140.181701
 30
0.0
 10
14.519032
 20
140.820006
 30
0.0
 10
15.266458
 20
140.895833
 30
0.0
  0
LINE
  5
12d
100
AcDbEntity
  8
Base_plate
 62
7
100
AcDbLine
 10
15.266458
 20
140.895833
 30
0.0
 11
15.266458
 21
140.895833
 31
0.0
  0
LINE
  5
12e
100
AcDbEntity
  8
Base_plate
 62
7
100
AcDbLine
 10
52.551762
 20
136.472881
 30
0.0
 11
57.452065
 21
136.472881
 31
0.0
  0
LINE
  5
12f
100
AcDbEntity
  8
Base_plate
 62
7
100
AcDbLine
 10
57.452065
 20
136.472881
 30
0.0
 11
57.452065
 21
131.573130
 31
0.0
  0
LINE
  5
130
100
AcDbEntity
  8
Base_plate
 62
7
100
AcDbLine
 10
57.452065
 20
131.573130
 30
0.0
 11
52.551762
 21
131.573130
 31
0.0
  0
LINE
  5
131
100
AcDbEntity
  8
Base_plate
 62
7
100
AcDbLine
 10
52.551762
 20
131.573130
 30
0.0
 11
52.551762
 21
136.472881
 31
0.0
  0
LINE
  5
132
100
AcDbEntity
  8
Base_plate
 62
7
100
AcDbLine
 10
87.039097
 20
135.190203
 30
0.0
 11
92.004444
 21
135.189639
 31
0.0
  0
LINE
  5
133
100
AcDbEntity
  8
Base_plate
 62
7
100
AcDbLine
 10
92.004444
 20
135.189639
 30
0.0
 11
92.004444
 21
130.224291
 31
0.0
  0
LINE
  5
134
100
AcDbEntity
  8
Base_plate
 62
7
100
AcDbLine
 10
92.004444
 20
130.224291
 30
0.0
 11
87.039097
 21
130.224291
 31
0.0
  0
LINE
  5
135
100
AcDbEntity
  8
Base_plate
 62
7
100
AcDbLine
 10
87.039097
 20
130.224291
 30
0.0
 11
87.039097
 21
135.190203
 31
0.0
  0
LINE
  5
136
100
AcDbEntity
  8
Base_plate
 62
7
100
AcDbLine
 10
100.038958
 20
135.190203
 30
0.0
 11
105.004306
 21
135.190203
 31
0.0
  0
LINE
  5
137
100
AcDbEntity
  8
Base_plate
 62
7
100
AcDbLine
 10
105.004306
 20
135.190203
 30
0.0
 11
105.004306
 21
130.223755
 31
0.0
  0
LINE
  5
138
100
AcDbEntity
  8
Base_plate
 62
7
100
AcDbLine
 10
105.004306
 20
130.223755
 30
0.0
 11
100.038958
 21
130.223755
 31
0.0
  0
LINE
  5
139
100
AcDbEntity
  8
Base_plate
 62
7
100
AcDbLine
 10
100.038958
 20
130.223755
 30
0.0
 11
100.038958
 21
135.190203
 31
0.0
  0
LINE
  5
13a
100
AcDbEntity
  8
Base_plate
 62
7
100
AcDbLine
 10
5.035903
 20
135.189639
 30
0.0
 11
10.001250
 21
135.189639
 31
0.0
  0
LINE
  5
13b
100
AcDbEntity
  8
Base_plate
 62
7
100
AcDbLine
 10
10.001250
 20
135.189639
 30
0.0
 11
10.001250
 21
130.224291
 31
0.0
  0
LINE
  5
13c
100
AcDbEntity
  8
Base_plate
 62
7
100
AcDbLine
 10
10.001250
 20
130.224291
 30
0.0
 11
5.035903
 21
130.224291
 31
0.0
  0
LINE
  5
13d
100
AcDbEntity
  8
Base_plate
 62
7
100
AcDbLine
 10
5.035903
 20
130.224291
 30
0.0
 11
5.035903
 21
135.189639
 31
0.0
  0
LINE
  5
13e
100
AcDbEntity
  8
Base_plate
 62
7
100
AcDbLine
 10
18.035764
 20
135.189639
 30
0.0
 11
23.001111
 21
135.189639
 31
0.0
  0
LINE
  5
13f
100
AcDbEntity
  8
Base_plate
 62
7
100
AcDbLine
 10
23.001111
 20
135.189639
 30
0.0
 11
23.001111
 21
130.223741
 31
0.0
  0
LINE
  5
140
100
AcDbEntity
  8
Base_plate
 62
7
100
AcDbLine
 10
23.001111
 20
130.223741
 30
0.0
 11
18.035764
 21
130.224306
 31
0.0
  0
LINE
  5
141
100
AcDbEntity
  8
Base_plate
 62
7
100
AcDbLine
 10
18.035764
 20
130.224306
 30
0.0
 11
18.035764
 21
135.189639
 31
0.0
  0
LINE
  5
142
100
AcDbEntity
  8
Base_plate
 62
7
100
AcDbLine
 10
52.502153
 20
128.206304
 30
0.0
 11
57.502778
 21
128.206304
 31
0.0
  0
LINE
  5
143
100
AcDbEntity
  8
Base_plate
 62
7
100
AcDbLine
 10
57.502778
 20
128.206304
 30
0.0
 11
57.502778
 21
123.205679
 31
0.0
  0
LINE
  5
144
100
AcDbEntity
  8
Base_plate
 62
7
100
AcDbLine
 10
57.502778
 20
123.205679
 30
0.0
 11
52.502153
 21
123.205679
 31
0.0
  0
LINE
  5
145
100
AcDbEntity
  8
Base_plate
 62
7
100
AcDbLine
 10
52.502153
 20
123.205679
 30
0.0
 11
52.502153
 21
128.206304
 31
0.0
  0
SPLINE
  5
146
100
AcDbEntity
  8
Base_plate
 62
7
100
AcDbSpline
 70
8
 71
3
 72
8
 73
4
 74
0
 40
0
 40
0
 40
0
 40
0
 40
1
 40
1
 40
1
 40
1
 10
66.066458
 20
125.691111
 30
0.0
 10
66.116287
 20
125.696163
 30
0.0
 10
66.165219
 20
125.691111
 30
0.0
 10
66.216389
 20
125.691111
 30
0.0
  0
SPLINE
  5
147
100
AcDbEntity
  8
Base_plate
 62
7
100
AcDbSpline
 70
8
 71
3
 72
8
 73
4
 74
0
 40
0
 40
0
 40
0
 40
0
 40
1
 40
1
 40
1
 40
1
 10
66.216389
 20
125.691111
 30
0.0
 10
67.035093
 20
125.691111
 30
0.0
 10
67.698056
 20
125.028154
 30
0.0
 10
67.698056
 20
124.209444
 30
0.0
  0
SPLINE
  5
148
100
AcDbEntity
  8
Base_plate
 62
7
100
AcDbSpline
 70
8
 71
3
 72
8
 73
4
 74
0
 40
0
 40
0
 40
0
 40
0
 40
1
 40
1
 40
1
 40
1
 10
67.698056
 20
124.209444
 30
0.0
 10
67.698056
 20
123.390740
 30
0.0
 10
67.035093
 20
122.727778
 30
0.0
 10
66.216389
 20
122.727778
 30
0.0
  0
SPLINE
  5
149
100
AcDbEntity
  8
Base_plate
 62
7
100
AcDbSpline
 70
8
 71
3
 72
8
 73
4
 74
0
 40
0
 40
0
 40
0
 40
0
 40
1
 40
1
 40
1
 40
1
 10
66.216389
 20
122.727778
 30
0.0
 10
65.397685
 20
122.727778
 30
0.0
 10
64.734722
 20
123.390740
 30
0.0
 10
64.734722
 20
124.209444
 30
0.0
  0
SPLINE
  5
14a
100
AcDbEntity
  8
Base_plate
 62
7
100
AcDbSpline
 70
8
 71
3
 72
8
 73
4
 74
0
 40
0
 40
0
 40
0
 40
0
 40
1
 40
1
 40
1
 40
1
 10
64.734722
 20
124.209444
 30
0.0
 10
64.734722
 20
124.976979
 30
0.0
 10
65.319032
 20
125.615284
 30
0.0
 10
66.066458
 20
125.691111
 30
0.0
  0
LINE
  5
14b
100
AcDbEntity
  8
Base_plate
 62
7
100
AcDbLine
 10
66.066458
 20
125.691111
 30
0.0
 11
66.066458
 21
125.691111
 31
0.0
  0
LINE
  5
14c
100
AcDbEntity
  8
Base_plate
 62
7
100
AcDbLine
 10
5.035903
 20
120.187778
 30
0.0
 11
10.001250
 21
120.187778
 31
0.0
  0
LINE
  5
14d
100
AcDbEntity
  8
Base_plate
 62
7
100
AcDbLine
 10
10.001250
 20
120.187778
 30
0.0
 11
10.001250
 21
115.222431
 31
0.0
  0
LINE
  5
14e
100
AcDbEntity
  8
Base_plate
 62
7
100
AcDbLine
 10
10.001250
 20
115.222431
 30
0.0
 11
5.035903
 21
115.222431
 31
0.0
  0
LINE
  5
14f
100
AcDbEntity
  8
Base_plate
 62
7
100
AcDbLine
 10
5.035903
 20
115.222431
 30
0.0
 11
5.035903
 21
120.187778
 31
0.0
  0
LINE
  5
150
100
AcDbEntity
  8
Base_plate
 62
7
100
AcDbLine
 10
18.035764
 20
120.187778
 30
0.0
 11
23.001111
 21
120.187778
 31
0.0
  0
LINE
  5
151
100
AcDbEntity
  8
Base_plate
 62
7
100
AcDbLine
 10
23.001111
 20
120.187778
 30
0.0
 11
23.001111
 21
115.221880
 31
0.0
  0
LINE
  5
152
100
AcDbEntity
  8
Base_plate
 62
7
100
AcDbLine
 10
23.001111
 20
115.221880
 30
0.0
 11
18.035764
 21
115.222445
 31
0.0
  0
LINE
  5
153
100
AcDbEntity
  8
Base_plate
 62
7
100
AcDbLine
 10
18.035764
 20
115.222445
 30
0.0
 11
18.035764
 21
120.187778
 31
0.0
  0
LINE
  5
154
100
AcDbEntity
  8
Base_plate
 62
7
100
AcDbLine
 10
87.039097
 20
120.187778
 30
0.0
 11
92.004444
 21
120.187778
 31
0.0
  0
LINE
  5
155
100
AcDbEntity
  8
Base_plate
 62
7
100
AcDbLine
 10
92.004444
 20
120.187778
 30
0.0
 11
92.004444
 21
115.222431
 31
0.0
  0
LINE
  5
156
100
AcDbEntity
  8
Base_plate
 62
7
100
AcDbLine
 10
92.004444
 20
115.222431
 30
0.0
 11
87.039097
 21
115.222431
 31
0.0
  0
LINE
  5
157
100
AcDbEntity
  8
Base_plate
 62
7
100
AcDbLine
 10
87.039097
 20
115.222431
 30
0.0
 11
87.039097
 21
120.187778
 31
0.0
  0
LINE
  5
158
100
AcDbEntity
  8
Base_plate
 62
7
100
AcDbLine
 10
100.038958
 20
120.187778
 30
0.0
 11
105.004306
 21
120.187778
 31
0.0
  0
LINE
  5
159
100
AcDbEntity
  8
Base_plate
 62
7
100
AcDbLine
 10
105.004306
 20
120.187778
 30
0.0
 11
105.004306
 21
115.221880
 31
0.0
  0
LINE
  5
15a
100
AcDbEntity
  8
Base_plate
 62
7
100
AcDbLine
 10
105.004306
 20
115.221880
 30
0.0
 11
100.038958
 21
115.221880
 31
0.0
  0
LINE
  5
15b
100
AcDbEntity
  8
Base_plate
 62
7
100
AcDbLine
 10
100.038958
 20
115.221880
 30
0.0
 11
100.038958
 21
120.187778
 31
0.0
  0
LINE
  5
15c
100
AcDbEntity
  8
Base_plate
 62
7
100
AcDbLine
 10
52.502153
 20
105.203542
 30
0.0
 11
57.502778
 21
105.203542
 31
0.0
  0
LINE
  5
15d
100
AcDbEntity
  8
Base_plate
 62
7
100
AcDbLine
 10
57.502778
 20
105.203542
 30
0.0
 11
57.502778
 21
100.202917
 31
0.0
  0
LINE
  5
15e
100
AcDbEntity
  8
Base_plate
 62
7
100
AcDbLine
 10
57.502778
 20
100.202917
 30
0.0
 11
52.502153
 21
100.202917
 31
0.0
  0
LINE
  5
15f
100
AcDbEntity
  8
Base_plate
 62
7
100
AcDbLine
 10
52.502153
 20
100.202917
 30
0.0
 11
52.502153
 21
105.203542
 31
0.0
  0
LINE
  5
160
100
AcDbEntity
  8
Base_plate
 62
7
100
AcDbLine
 10
5.035903
 20
105.185903
 30
0.0
 11
10.001250
 21
105.185903
 31
0.0
  0
LINE
  5
161
100
AcDbEntity
  8
Base_plate
 62
7
100
AcDbLine
 10
10.001250
 20
105.185903
 30
0.0
 11
10.001250
 21
100.220556
 31
0.0
  0
LINE
  5
162
100
AcDbEntity
  8
Base_plate
 62
7
100
AcDbLine
 10
10.001250
 20
100.220556
 30
0.0
 11
5.035903
 21
100.220556
 31
0.0
  0
LINE
  5
163
100
AcDbEntity
  8
Base_plate
 62
7
100
AcDbLine
 10
5.035903
 20
100.220556
 30
0.0
 11
5.035903
 21
105.185903
 31
0.0
  0
LINE
  5
164
100
AcDbEntity
  8
Base_plate
 62
7
100
AcDbLine
 10
18.035764
 20
105.185903
 30
0.0
 11
23.001111
 21
105.185903
 31
0.0
  0
LINE
  5
165
100
AcDbEntity
  8
Base_plate
 62
7
100
AcDbLine
 10
23.001111
 20
105.185903
 30
0.0
 11
23.001111
 21
100.220556
 31
0.0
  0
LINE
  5
166
100
AcDbEntity
  8
Base_plate
 62
7
100
AcDbLine
 10
23.001111
 20
100.220556
 30
0.0
 11
18.035764
 21
100.221120
 31
0.0
  0
LINE
  5
167
100
AcDbEntity
  8
Base_plate
 62
7
100
AcDbLine
 10
18.035764
 20
100.221120
 30
0.0
 11
18.035764
 21
105.185903
 31
0.0
  0
LINE
  5
168
100
AcDbEntity
  8
Base_plate
 62
7
100
AcDbLine
 10
87.039097
 20
105.185903
 30
0.0
 11
92.004444
 21
105.185903
 31
0.0
  0
LINE
  5
169
100
AcDbEntity
  8
Base_plate
 62
7
100
AcDbLine
 10
92.004444
 20
105.185903
 30
0.0
 11
92.004444
 21
100.220556
 31
0.0
  0
LINE
  5
16a
100
AcDbEntity
  8
Base_plate
 62
7
100
AcDbLine
 10
92.004444
 20
100.220556
 30
0.0
 11
87.039097
 21
100.220556
 31
0.0
  0
LINE
  5
16b
100
AcDbEntity
  8
Base_plate
 62
7
100
AcDbLine
 10
87.039097
 20
100.220556
 30
0.0
 11
87.039097
 21
105.185903
 31
0.0
  0
LINE
  5
16c
100
AcDbEntity
  8
Base_plate
 62
7
100
AcDbLine
 10
100.038958
 20
105.185903
 30
0.0
 11
105.004306
 21
105.185903
 31
0.0
  0
LINE
  5
16d
100
AcDbEntity
  8
Base_plate
 62
7
100
AcDbLine
 10
105.004306
 20
105.185903
 30
0.0
 11
105.004306
 21
100.221106
 31
0.0
  0
LINE
  5
16e
100
AcDbEntity
  8
Base_plate
 62
7
100
AcDbLine
 10
105.004306
 20
100.221106
 30
0.0
 11
100.038958
 21
100.221106
 31
0.0
  0
LINE
  5
16f
100
AcDbEntity
  8
Base_plate
 62
7
100
AcDbLine
 10
100.038958
 20
100.221106
 30
0.0
 11
100.038958
 21
105.185903
 31
0.0
  0
SPLINE
  5
170
100
AcDbEntity
  8
Base_plate
 62
7
100
AcDbSpline
 70
8
 71
3
 72
8
 73
4
 74
0
 40
0
 40
0
 40
0
 40
0
 40
1
 40
1
 40
1
 40
1
 10
66.066458
 20
97.795208
 30
0.0
 10
66.116287
 20
97.800260
 30
0.0
 10
66.165219
 20
97.795208
 30
0.0
 10
66.216389
 20
97.795208
 30
0.0
  0
SPLINE
  5
171
100
AcDbEntity
  8
Base_plate
 62
7
100
AcDbSpline
 70
8
 71
3
 72
8
 73
4
 74
0
 40
0
 40
0
 40
0
 40
0
 40
1
 40
1
 40
1
 40
1
 10
66.216389
 20
97.795208
 30
0.0
 10
67.035093
 20
97.795208
 30
0.0
 10
67.698056
 20
97.132251
 30
0.0
 10
67.698056
 20
96.313542
 30
0.0
  0
SPLINE
  5
172
100
AcDbEntity
  8
Base_plate
 62
7
100
AcDbSpline
 70
8
 71
3
 72
8
 73
4
 74
0
 40
0
 40
0
 40
0
 40
0
 40
1
 40
1
 40
1
 40
1
 10
67.698056
 20
96.313542
 30
0.0
 10
67.698056
 20
95.494838
 30
0.0
 10
67.035093
 20
94.831875
 30
0.0
 10
66.216389
 20
94.831875
 30
0.0
  0
SPLINE
  5
173
100
AcDbEntity
  8
Base_plate
 62
7
100
AcDbSpline
 70
8
 71
3
 72
8
 73
4
 74
0
 40
0
 40
0
 40
0
 40
0
 40
1
 40
1
 40
1
 40
1
 10
66.216389
 20
94.831875
 30
0.0
 10
65.397685
 20
94.831875
 30
0.0
 10
64.734722
 20
95.494838
 30
0.0
 10
64.734722
 20
96.313542
 30
0.0
  0
SPLINE
  5
174
100
AcDbEntity
  8
Base_plate
 62
7
100
AcDbSpline
 70
8
 71
3
 72
8
 73
4
 74
0
 40
0
 40
0
 40
0
 40
0
 40
1
 40
1
 40
1
 40
1
 10
64.734722
 20
96.313542
 30
0.0
 10
64.734722
 20
97.081076
 30
0.0
 10
65.319032
 20
97.719381
 30
0.0
 10
66.066458
 20
97.795208
 30
0.0
  0
LINE
  5
175
100
AcDbEntity
  8
Base_plate
 62
7
100
AcDbLine
 10
66.066458
 20
97.795208
 30
0.0
 11
66.066458
 21
97.795208
 31
0.0
  0
SPLINE
  5
176
100
AcDbEntity
  8
Base_plate
 62
7
100
AcDbSpline
 70
8
 71
3
 72
8
 73
4
 74
0
 40
0
 40
0
 40
0
 40
0
 40
1
 40
1
 40
1
 40
1
 10
13.961181
 20
92.697569
 30
0.0
 10
14.011009
 20
92.702678
 30
0.0
 10
14.059942
 20
92.697569
 30
0.0
 10
14.111111
 20
92.697569
 30
0.0
  0
SPLINE
  5
177
100
AcDbEntity
  8
Base_plate
 62
7
100
AcDbSpline
 70
8
 71
3
 72
8
 73
4
 74
0
 40
0
 40
0
 40
0
 40
0
 40
1
 40
1
 40
1
 40
1
 10
14.111111
 20
92.697569
 30
0.0
 10
14.929814
 20
92.697569
 30
0.0
 10
15.592778
 20
92.025793
 30
0.0
 10
15.592778
 20
91.207083
 30
0.0
  0
SPLINE
  5
178
100
AcDbEntity
  8
Base_plate
 62
7
100
AcDbSpline
 70
8
 71
3
 72
8
 73
4
 74
0
 40
0
 40
0
 40
0
 40
0
 40
1
 40
1
 40
1
 40
1
 10
15.592778
 20
91.207083
 30
0.0
 10
15.592778
 20
90.388379
 30
0.0
 10
14.929814
 20
89.725417
 30
0.0
 10
14.111111
 20
89.725417
 30
0.0
  0
SPLINE
  5
179
100
AcDbEntity
  8
Base_plate
 62
7
100
AcDbSpline
 70
8
 71
3
 72
8
 73
4
 74
0
 40
0
 40
0
 40
0
 40
0
 40
1
 40
1
 40
1
 40
1
 10
14.111111
 20
89.725417
 30
0.0
 10
13.292407
 20
89.725417
 30
0.0
 10
12.629444
 20
90.388379
 30
0.0
 10
12.629444
 20
91.207083
 30
0.0
  0
SPLINE
  5
17a
100
AcDbEntity
  8
Base_plate
 62
7
100
AcDbSpline
 70
8
 71
3
 72
8
 73
4
 74
0
 40
0
 40
0
 40
0
 40
0
 40
1
 40
1
 40
1
 40
1
 10
12.629444
 20
91.207083
 30
0.0
 10
12.629444
 20
91.974618
 30
0.0
 10
13.213754
 20
92.620774
 30
0.0
 10
13.961181
 20
92.697569
 30
0.0
  0
LINE
  5
17b
100
AcDbEntity
  8
Base_plate
 62
7
100
AcDbLine
 10
13.961181
 20
92.697569
 30
0.0
 11
13.961181
 21
92.697569
 31
0.0
  0
LINE
  5
17c
100
AcDbEntity
  8
Base_plate
 62
7
100
AcDbLine
 10
5.035903
 20
90.184028
 30
0.0
 11
10.001250
 21
90.184028
 31
0.0
  0
LINE
  5
17d
100
AcDbEntity
  8
Base_plate
 62
7
100
AcDbLine
 10
10.001250
 20
90.184028
 30
0.0
 11
10.001250
 21
85.218681
 31
0.0
  0
LINE
  5
17e
100
AcDbEntity
  8
Base_plate
 62
7
100
AcDbLine
 10
10.001250
 20
85.218681
 30
0.0
 11
5.035903
 21
85.218681
 31
0.0
  0
LINE
  5
17f
100
AcDbEntity
  8
Base_plate
 62
7
100
AcDbLine
 10
5.035903
 20
85.218681
 30
0.0
 11
5.035903
 21
90.184028
 31
0.0
  0
LINE
  5
180
100
AcDbEntity
  8
Base_plate
 62
7
100
AcDbLine
 10
18.035764
 20
90.184028
 30
0.0
 11
23.001111
 21
90.184028
 31
0.0
  0
LINE
  5
181
100
AcDbEntity
  8
Base_plate
 62
7
100
AcDbLine
 10
23.001111
 20
90.184028
 30
0.0
 11
23.001111
 21
85.219231
 31
0.0
  0
LINE
  5
182
100
AcDbEntity
  8
Base_plate
 62
7
100
AcDbLine
 10
23.001111
 20
85.219231
 30
0.0
 11
18.035764
 21
85.218666
 31
0.0
  0
LINE
  5
183
100
AcDbEntity
  8
Base_plate
 62
7
100
AcDbLine
 10
18.035764
 20
85.218666
 30
0.0
 11
18.035764
 21
90.184028
 31
0.0
  0
LINE
  5
184
100
AcDbEntity
  8
Base_plate
 62
7
100
AcDbLine
 10
87.039097
 20
90.184028
 30
0.0
 11
92.004444
 21
90.184028
 31
0.0
  0
LINE
  5
185
100
AcDbEntity
  8
Base_plate
 62
7
100
AcDbLine
 10
92.004444
 20
90.184028
 30
0.0
 11
92.004444
 21
85.219231
 31
0.0
  0
LINE
  5
186
100
AcDbEntity
  8
Base_plate
 62
7
100
AcDbLine
 10
92.004444
 20
85.219231
 30
0.0
 11
87.039097
 21
85.219231
 31
0.0
  0
LINE
  5
187
100
AcDbEntity
  8
Base_plate
 62
7
100
AcDbLine
 10
87.039097
 20
85.219231
 30
0.0
 11
87.039097
 21
90.184028
 31
0.0
  0
LINE
  5
188
100
AcDbEntity
  8
Base_plate
 62
7
100
AcDbLine
 10
100.038958
 20
90.184028
 30
0.0
 11
105.004306
 21
90.184028
 31
0.0
  0
LINE
  5
189
100
AcDbEntity
  8
Base_plate
 62
7
100
AcDbLine
 10
105.004306
 20
90.184028
 30
0.0
 11
105.004306
 21
85.219231
 31
0.0
  0
LINE
  5
18a
100
AcDbEntity
  8
Base_plate
 62
7
100
AcDbLine
 10
105.004306
 20
85.219231
 30
0.0
 11
100.038958
 21
85.219231
 31
0.0
  0
LINE
  5
18b
100
AcDbEntity
  8
Base_plate
 62
7
100
AcDbLine
 10
100.038958
 20
85.219231
 30
0.0
 11
100.038958
 21
90.184028
 31
0.0
  0
LINE
  5
18c
100
AcDbEntity
  8
Base_plate
 62
7
100
AcDbLine
 10
5.035903
 20
75.182153
 30
0.0
 11
10.001250
 21
75.182153
 31
0.0
  0
LINE
  5
18d
100
AcDbEntity
  8
Base_plate
 62
7
100
AcDbLine
 10
10.001250
 20
75.182153
 30
0.0
 11
10.001250
 21
70.216806
 31
0.0
  0
LINE
  5
18e
100
AcDbEntity
  8
Base_plate
 62
7
100
AcDbLine
 10
10.001250
 20
70.216806
 30
0.0
 11
5.035903
 21
70.216806
 31
0.0
  0
LINE
  5
18f
100
AcDbEntity
  8
Base_plate
 62
7
100
AcDbLine
 10
5.035903
 20
70.216806
 30
0.0
 11
5.035903
 21
75.182153
 31
0.0
  0
LINE
  5
190
100
AcDbEntity
  8
Base_plate
 62
7
100
AcDbLine
 10
18.035764
 20
75.182153
 30
0.0
 11
23.001111
 21
75.182153
 31
0.0
  0
LINE
  5
191
100
AcDbEntity
  8
Base_plate
 62
7
100
AcDbLine
 10
23.001111
 20
75.182153
 30
0.0
 11
23.001111
 21
70.216806
 31
0.0
  0
LINE
  5
192
100
AcDbEntity
  8
Base_plate
 62
7
100
AcDbLine
 10
23.001111
 20
70.216806
 30
0.0
 11
18.035764
 21
70.216806
 31
0.0
  0
LINE
  5
193
100
AcDbEntity
  8
Base_plate
 62
7
100
AcDbLine
 10
18.035764
 20
70.216806
 30
0.0
 11
18.035764
 21
75.182153
 31
0.0
  0
LINE
  5
194
100
AcDbEntity
  8
Base_plate
 62
7
100
AcDbLine
 10
52.502153
 20
75.182153
 30
0.0
 11
57.502778
 21
75.182153
 31
0.0
  0
LINE
  5
195
100
AcDbEntity
  8
Base_plate
 62
7
100
AcDbLine
 10
57.502778
 20
75.182153
 30
0.0
 11
57.502778
 21
70.216806
 31
0.0
  0
LINE
  5
196
100
AcDbEntity
  8
Base_plate
 62
7
100
AcDbLine
 10
57.502778
 20
70.216806
 30
0.0
 11
52.502153
 21
70.216806
 31
0.0
  0
LINE
  5
197
100
AcDbEntity
  8
Base_plate
 62
7
100
AcDbLine
 10
52.502153
 20
70.216806
 30
0.0
 11
52.502153
 21
75.182153
 31
0.0
  0
LINE
  5
198
100
AcDbEntity
  8
Base_plate
 62
7
100
AcDbLine
 10
87.039097
 20
75.182153
 30
0.0
 11
92.004444
 21
75.182153
 31
0.0
  0
LINE
  5
199
100
AcDbEntity
  8
Base_plate
 62
7
100
AcDbLine
 10
92.004444
 20
75.182153
 30
0.0
 11
92.004444
 21
70.216806
 31
0.0
  0
LINE
  5
19a
100
AcDbEntity
  8
Base_plate
 62
7
100
AcDbLine
 10
92.004444
 20
70.216806
 30
0.0
 11
87.039097
 21
70.216806
 31
0.0
  0
LINE
  5
19b
100
AcDbEntity
  8
Base_plate
 62
7
100
AcDbLine
 10
87.039097
 20
70.216806
 30
0.0
 11
87.039097
 21
75.182153
 31
0.0
  0
LINE
  5
19c
100
AcDbEntity
  8
Base_plate
 62
7
100
AcDbLine
 10
100.038958
 20
75.182153
 30
0.0
 11
105.004306
 21
75.182153
 31
0.0
  0
LINE
  5
19d
100
AcDbEntity
  8
Base_plate
 62
7
100
AcDbLine
 10
105.004306
 20
75.182153
 30
0.0
 11
105.004306
 21
70.216806
 31
0.0
  0
LINE
  5
19e
100
AcDbEntity
  8
Base_plate
 62
7
100
AcDbLine
 10
105.004306
 20
70.216806
 30
0.0
 11
100.038958
 21
70.216806
 31
0.0
  0
LINE
  5
19f
100
AcDbEntity
  8
Base_plate
 62
7
100
AcDbLine
 10
100.038958
 20
70.216806
 30
0.0
 11
100.038958
 21
75.182153
 31
0.0
  0
LINE
  5
1a0
100
AcDbEntity
  8
Base_plate
 62
7
100
AcDbLine
 10
5.035903
 20
60.189097
 30
0.0
 11
10.001250
 21
60.189097
 31
0.0
  0
LINE
  5
1a1
100
AcDbEntity
  8
Base_plate
 62
7
100
AcDbLine
 10
10.001250
 20
60.189097
 30
0.0
 11
10.001250
 21
55.223750
 31
0.0
  0
LINE
  5
1a2
100
AcDbEntity
  8
Base_plate
 62
7
100
AcDbLine
 10
10.001250
 20
55.223750
 30
0.0
 11
5.035903
 21
55.223750
 31
0.0
  0
LINE
  5
1a3
100
AcDbEntity
  8
Base_plate
 62
7
100
AcDbLine
 10
5.035903
 20
55.223750
 30
0.0
 11
5.035903
 21
60.189097
 31
0.0
  0
LINE
  5
1a4
100
AcDbEntity
  8
Base_plate
 62
7
100
AcDbLine
 10
18.035764
 20
60.189097
 30
0.0
 11
23.001111
 21
60.189097
 31
0.0
  0
LINE
  5
1a5
100
AcDbEntity
  8
Base_plate
 62
7
100
AcDbLine
 10
23.001111
 20
60.189097
 30
0.0
 11
23.001111
 21
55.223750
 31
0.0
  0
LINE
  5
1a6
100
AcDbEntity
  8
Base_plate
 62
7
100
AcDbLine
 10
23.001111
 20
55.223750
 30
0.0
 11
18.035764
 21
55.223750
 31
0.0
  0
LINE
  5
1a7
100
AcDbEntity
  8
Base_plate
 62
7
100
AcDbLine
 10
18.035764
 20
55.223750
 30
0.0
 11
18.035764
 21
60.189097
 31
0.0
  0
LINE
  5
1a8
100
AcDbEntity
  8
Base_plate
 62
7
100
AcDbLine
 10
87.039097
 20
60.189097
 30
0.0
 11
92.004444
 21
60.189097
 31
0.0
  0
LINE
  5
1a9
100
AcDbEntity
  8
Base_plate
 62
7
100
AcDbLine
 10
92.004444
 20
60.189097
 30
0.0
 11
92.004444
 21
55.223750
 31
0.0
  0
LINE
  5
1aa
100
AcDbEntity
  8
Base_plate
 62
7
100
AcDbLine
 10
92.004444
 20
55.223750
 30
0.0
 11
87.039097
 21
55.223750
 31
0.0
  0
LINE
  5
1ab
100
AcDbEntity
  8
Base_plate
 62
7
100
AcDbLine
 10
87.039097
 20
55.223750
 30
0.0
 11
87.039097
 21
60.189097
 31
0.0
  0
LINE
  5
1ac
100
AcDbEntity
  8
Base_plate
 62
7
100
AcDbLine
 10
100.038958
 20
60.189097
 30
0.0
 11
105.004306
 21
60.189097
 31
0.0
  0
LINE
  5
1ad
100
AcDbEntity
  8
Base_plate
 62
7
100
AcDbLine
 10
105.004306
 20
60.189097
 30
0.0
 11
105.004306
 21
55.223750
 31
0.0
  0
LINE
  5
1ae
100
AcDbEntity
  8
Base_plate
 62
7
100
AcDbLine
 10
105.004306
 20
55.223750
 30
0.0
 11
100.038958
 21
55.223750
 31
0.0
  0
LINE
  5
1af
100
AcDbEntity
  8
Base_plate
 62
7
100
AcDbLine
 10
100.038958
 20
55.223750
 30
0.0
 11
100.038958
 21
60.189097
 31
0.0
  0
LINE
  5
1b0
100
AcDbEntity
  8
Base_plate
 62
7
100
AcDbLine
 10
52.502153
 20
47.500121
 30
0.0
 11
57.502778
 21
47.500121
 31
0.0
  0
LINE
  5
1b1
100
AcDbEntity
  8
Base_plate
 62
7
100
AcDbLine
 10
57.502778
 20
47.500121
 30
0.0
 11
57.502778
 21
42.500049
 31
0.0
  0
LINE
  5
1b2
100
AcDbEntity
  8
Base_plate
 62
7
100
AcDbLine
 10
57.502778
 20
42.500049
 30
0.0
 11
52.502153
 21
42.500049
 31
0.0
  0
LINE
  5
1b3
100
AcDbEntity
  8
Base_plate
 62
7
100
AcDbLine
 10
52.502153
 20
42.500049
 30
0.0
 11
52.502153
 21
47.500121
 31
0.0
  0
LINE
  5
1b4
100
AcDbEntity
  8
Base_plate
 62
7
100
AcDbLine
 10
5.035903
 20
45.187222
 30
0.0
 11
10.001250
 21
45.187222
 31
0.0
  0
LINE
  5
1b5
100
AcDbEntity
  8
Base_plate
 62
7
100
AcDbLine
 10
10.001250
 20
45.187222
 30
0.0
 11
10.001250
 21
40.221875
 31
0.0
  0
LINE
  5
1b6
100
AcDbEntity
  8
Base_plate
 62
7
100
AcDbLine
 10
10.001250
 20
40.221875
 30
0.0
 11
5.035903
 21
40.221875
 31
0.0
  0
LINE
  5
1b7
100
AcDbEntity
  8
Base_plate
 62
7
100
AcDbLine
 10
5.035903
 20
40.221875
 30
0.0
 11
5.035903
 21
45.187222
 31
0.0
  0
LINE
  5
1b8
100
AcDbEntity
  8
Base_plate
 62
7
100
AcDbLine
 10
18.035764
 20
45.187222
 30
0.0
 11
23.001111
 21
45.187222
 31
0.0
  0
LINE
  5
1b9
100
AcDbEntity
  8
Base_plate
 62
7
100
AcDbLine
 10
23.001111
 20
45.187222
 30
0.0
 11
23.001111
 21
40.221875
 31
0.0
  0
LINE
  5
1ba
100
AcDbEntity
  8
Base_plate
 62
7
100
AcDbLine
 10
23.001111
 20
40.221875
 30
0.0
 11
18.035764
 21
40.221875
 31
0.0
  0
LINE
  5
1bb
100
AcDbEntity
  8
Base_plate
 62
7
100
AcDbLine
 10
18.035764
 20
40.221875
 30
0.0
 11
18.035764
 21
45.187222
 31
0.0
  0
LINE
  5
1bc
100
AcDbEntity
  8
Base_plate
 62
7
100
AcDbLine
 10
87.039097
 20
45.187222
 30
0.0
 11
92.004444
 21
45.187222
 31
0.0
  0
LINE
  5
1bd
100
AcDbEntity
  8
Base_plate
 62
7
100
AcDbLine
 10
92.004444
 20
45.187222
 30
0.0
 11
92.004444
 21
40.221875
 31
0.0
  0
LINE
  5
1be
100
AcDbEntity
  8
Base_plate
 62
7
100
AcDbLine
 10
92.004444
 20
40.221875
 30
0.0
 11
87.039097
 21
40.221875
 31
0.0
  0
LINE
  5
1bf
100
AcDbEntity
  8
Base_plate
 62
7
100
AcDbLine
 10
87.039097
 20
40.221875
 30
0.0
 11
87.039097
 21
45.187222
 31
0.0
  0
LINE
  5
1c0
100
AcDbEntity
  8
Base_plate
 62
7
100
AcDbLine
 10
100.038958
 20
45.187222
 30
0.0
 11
105.004306
 21
45.187222
 31
0.0
  0
LINE
  5
1c1
100
AcDbEntity
  8
Base_plate
 62
7
100
AcDbLine
 10
105.004306
 20
45.187222
 30
0.0
 11
105.004306
 21
40.221875
 31
0.0
  0
LINE
  5
1c2
100
AcDbEntity
  8
Base_plate
 62
7
100
AcDbLine
 10
105.004306
 20
40.221875
 30
0.0
 11
100.038958
 21
40.221875
 31
0.0
  0
LINE
  5
1c3
100
AcDbEntity
  8
Base_plate
 62
7
100
AcDbLine
 10
100.038958
 20
40.221875
 30
0.0
 11
100.038958
 21
45.187222
 31
0.0
  0
LINE
  5
1c4
100
AcDbEntity
  8
Base_plate
 62
7
100
AcDbLine
 10
5.018264
 20
30.185347
 30
0.0
 11
9.983611
 21
30.185347
 31
0.0
  0
LINE
  5
1c5
100
AcDbEntity
  8
Base_plate
 62
7
100
AcDbLine
 10
9.983611
 20
30.185347
 30
0.0
 11
9.983611
 21
25.220000
 31
0.0
  0
LINE
  5
1c6
100
AcDbEntity
  8
Base_plate
 62
7
100
AcDbLine
 10
9.983611
 20
25.220000
 30
0.0
 11
5.018264
 21
25.220000
 31
0.0
  0
LINE
  5
1c7
100
AcDbEntity
  8
Base_plate
 62
7
100
AcDbLine
 10
5.018264
 20
25.220000
 30
0.0
 11
5.018264
 21
30.185347
 31
0.0
  0
LINE
  5
1c8
100
AcDbEntity
  8
Base_plate
 62
7
100
AcDbLine
 10
18.018125
 20
30.185347
 30
0.0
 11
22.983472
 21
30.185347
 31
0.0
  0
LINE
  5
1c9
100
AcDbEntity
  8
Base_plate
 62
7
100
AcDbLine
 10
22.983472
 20
30.185347
 30
0.0
 11
22.983472
 21
25.220000
 31
0.0
  0
LINE
  5
1ca
100
AcDbEntity
  8
Base_plate
 62
7
100
AcDbLine
 10
22.983472
 20
25.220000
 30
0.0
 11
18.018125
 21
25.220000
 31
0.0
  0
LINE
  5
1cb
100
AcDbEntity
  8
Base_plate
 62
7
100
AcDbLine
 10
18.018125
 20
25.220000
 30
0.0
 11
18.018125
 21
30.185347
 31
0.0
  0
LINE
  5
1cc
100
AcDbEntity
  8
Base_plate
 62
7
100
AcDbLine
 10
87.021458
 20
30.185347
 30
0.0
 11
91.986806
 21
30.185347
 31
0.0
  0
LINE
  5
1cd
100
AcDbEntity
  8
Base_plate
 62
7
100
AcDbLine
 10
91.986806
 20
30.185347
 30
0.0
 11
91.986806
 21
25.220000
 31
0.0
  0
LINE
  5
1ce
100
AcDbEntity
  8
Base_plate
 62
7
100
AcDbLine
 10
91.986806
 20
25.220000
 30
0.0
 11
87.021458
 21
25.220000
 31
0.0
  0
LINE
  5
1cf
100
AcDbEntity
  8
Base_plate
 62
7
100
AcDbLine
 10
87.021458
 20
25.220000
 30
0.0
 11
87.021458
 21
30.185347
 31
0.0
  0
LINE
  5
1d0
100
AcDbEntity
  8
Base_plate
 62
7
100
AcDbLine
 10
100.021319
 20
30.185347
 30
0.0
 11
104.986667
 21
30.185347
 31
0.0
  0
LINE
  5
1d1
100
AcDbEntity
  8
Base_plate
 62
7
100
AcDbLine
 10
104.986667
 20
30.185347
 30
0.0
 11
104.986667
 21
25.220000
 31
0.0
  0
LINE
  5
1d2
100
AcDbEntity
  8
Base_plate
 62
7
100
AcDbLine
 10
104.986667
 20
25.220000
 30
0.0
 11
100.021319
 21
25.220000
 31
0.0
  0
LINE
  5
1d3
100
AcDbEntity
  8
Base_plate
 62
7
100
AcDbLine
 10
100.021319
 20
25.220000
 30
0.0
 11
100.021319
 21
30.185347
 31
0.0
  0
LINE
  5
1d4
100
AcDbEntity
  8
Base_plate
 62
7
100
AcDbLine
 10
52.502153
 20
19.999992
 30
0.0
 11
57.502778
 21
19.999992
 31
0.0
  0
LINE
  5
1d5
100
AcDbEntity
  8
Base_plate
 62
7
100
AcDbLine
 10
57.502778
 20
19.999992
 30
0.0
 11
57.502778
 21
14.999918
 31
0.0
  0
LINE
  5
1d6
100
AcDbEntity
  8
Base_plate
 62
7
100
AcDbLine
 10
57.502778
 20
14.999918
 30
0.0
 11
52.502153
 21
14.999918
 31
0.0
  0
LINE
  5
1d7
100
AcDbEntity
  8
Base_plate
 62
7
100
AcDbLine
 10
52.502153
 20
14.999918
 30
0.0
 11
52.502153
 21
19.999992
 31
0.0
  0
LINE
  5
1d8
100
AcDbEntity
  8
Bumper_plates
 62
7
100
AcDbLine
 10
0.000000
 20
205.000015
 30
0.0
 11
0.000000
 21
165.017646
 31
0.0
  0
LINE
  5
1d9
100
AcDbEntity
  8
Bumper_plates
 62
7
100
AcDbLine
 10
0.000000
 20
165.017646
 30
0.0
 11
109.996111
 21
165.017646
 31
0.0
  0
LINE
  5
1da
100
AcDbEntity
  8
Bumper_plates
 62
7
100
AcDbLine
 10
109.996111
 20
165.017646
 30
0.0
 11
109.996111
 21
205.000015
 31
0.0
  0
LINE
  5
1db
100
AcDbEntity
  8
Bumper_plates
 62
7
100
AcDbLine
 10
109.996111
 20
205.000015
 30
0.0
 11
0.000000
 21
205.000015
 31
0.0
  0
LINE
  5
1dc
100
AcDbEntity
  8
Bumper_plates
 62
7
100
AcDbLine
 10
5.008819
 20
197.000200
 30
0.0
 11
104.999999
 21
196.999918
 31
0.0
  0
LINE
  5
1dd
100
AcDbEntity
  8
Bumper_plates
 62
7
100
AcDbLine
 10
104.999999
 20
196.999918
 30
0.0
 11
104.999999
 21
193.999918
 31
0.0
  0
LINE
  5
1de
100
AcDbEntity
  8
Bumper_plates
 62
7
100
AcDbLine
 10
104.999999
 20
193.999918
 30
0.0
 11
5.008819
 21
194.000200
 31
0.0
  0
LINE
  5
1df
100
AcDbEntity
  8
Bumper_plates
 62
7
100
AcDbLine
 10
5.008819
 20
194.000200
 30
0.0
 11
5.008819
 21
197.000200
 31
0.0
  0
LINE
  5
1e0
100
AcDbEntity
  8
Bumper_plates
 62
7
100
AcDbLine
 10
5.000000
 20
189.000013
 30
0.0
 11
105.004306
 21
189.000013
 31
0.0
  0
LINE
  5
1e1
100
AcDbEntity
  8
Bumper_plates
 62
7
100
AcDbLine
 10
105.004306
 20
189.000013
 30
0.0
 11
105.004306
 21
186.000013
 31
0.0
  0
LINE
  5
1e2
100
AcDbEntity
  8
Bumper_plates
 62
7
100
AcDbLine
 10
105.004306
 20
186.000013
 30
0.0
 11
5.000000
 21
186.000013
 31
0.0
  0
LINE
  5
1e3
100
AcDbEntity
  8
Bumper_plates
 62
7
100
AcDbLine
 10
5.000000
 20
186.000013
 30
0.0
 11
5.000000
 21
189.000013
 31
0.0
  0
LINE
  5
1e4
100
AcDbEntity
  8
Bumper_plates
 62
7
100
AcDbLine
 10
5.008819
 20
181.000015
 30
0.0
 11
104.999999
 21
181.000015
 31
0.0
  0
LINE
  5
1e5
100
AcDbEntity
  8
Bumper_plates
 62
7
100
AcDbLine
 10
104.999999
 20
181.000015
 30
0.0
 11
104.999999
 21
178.000012
 31
0.0
  0
LINE
  5
1e6
100
AcDbEntity
  8
Bumper_plates
 62
7
100
AcDbLine
 10
104.999999
 20
178.000012
 30
0.0
 11
5.008819
 21
178.000012
 31
0.0
  0
LINE
  5
1e7
100
AcDbEntity
  8
Bumper_plates
 62
7
100
AcDbLine
 10
5.008819
 20
178.000012
 30
0.0
 11
5.008819
 21
181.000015
 31
0.0
  0
LINE
  5
1e8
100
AcDbEntity
  8
Bumper_plates
 62
7
100
AcDbLine
 10
4.991180
 20
170.750006
 30
0.0
 11
20.000000
 21
170.750006
 31
0.0
  0
LINE
  5
1e9
100
AcDbEntity
  8
Bumper_plates
 62
7
100
AcDbLine
 10
20.000000
 20
170.750006
 30
0.0
 11
20.000000
 21
168.016257
 31
0.0
  0
LINE
  5
1ea
100
AcDbEntity
  8
Bumper_plates
 62
7
100
AcDbLine
 10
20.000000
 20
168.016257
 30
0.0
 11
4.991180
 21
168.016257
 31
0.0
  0
LINE
  5
1eb
100
AcDbEntity
  8
Bumper_plates
 62
7
100
AcDbLine
 10
4.991180
 20
168.016257
 30
0.0
 11
4.991180
 21
170.750006
 31
0.0
  0
LINE
  5
1ec
100
AcDbEntity
  8
Bumper_plates
 62
7
100
AcDbLine
 10
47.519167
 20
170.750006
 30
0.0
 11
62.432847
 21
170.750006
 31
0.0
  0
LINE
  5
1ed
100
AcDbEntity
  8
Bumper_plates
 62
7
100
AcDbLine
 10
62.432847
 20
170.750006
 30
0.0
 11
62.432847
 21
168.016257
 31
0.0
  0
LINE
  5
1ee
100
AcDbEntity
  8
Bumper_plates
 62
7
100
AcDbLine
 10
62.432847
 20
168.016257
 30
0.0
 11
47.519167
 21
168.016257
 31
0.0
  0
LINE
  5
1ef
100
AcDbEntity
  8
Bumper_plates
 62
7
100
AcDbLine
 10
47.519167
 20
168.016257
 30
0.0
 11
47.519167
 21
170.750006
 31
0.0
  0
LINE
  5
1f0
100
AcDbEntity
  8
Bumper_plates
 62
7
100
AcDbLine
 10
90.020069
 20
170.750006
 30
0.0
 11
104.933750
 21
170.750006
 31
0.0
  0
LINE
  5
1f1
100
AcDbEntity
  8
Bumper_plates
 62
7
100
AcDbLine
 10
104.933750
 20
170.750006
 30
0.0
 11
104.933750
 21
168.016257
 31
0.0
  0
LINE
  5
1f2
100
AcDbEntity
  8
Bumper_plates
 62
7
100
AcDbLine
 10
104.933750
 20
168.016257
 30
0.0
 11
90.020069
 21
168.016257
 31
0.0
  0
LINE
  5
1f3
100
AcDbEntity
  8
Bumper_plates
 62
7
100
AcDbLine
 10
90.020069
 20
168.016257
 30
0.0
 11
90.020069
 21
170.750006
 31
0.0
  0
SPLINE
  5
1f4
100
AcDbEntity
  8
wheels
 62
7
100
AcDbSpline
 70
8
 71
3
 72
8
 73
4
 74
0
 40
0
 40
0
 40
0
 40
0
 40
1
 40
1
 40
1
 40
1
 10
148.434515
 20
64.955215
 30
0.0
 10
139.661289
 20
65.210320
 30
0.0
 10
131.158417
 20
61.903210
 30
0.0
 10
124.863116
 20
55.787348
 30
0.0
  0
SPLINE
  5
1f5
100
AcDbEntity
  8
wheels
 62
7
100
AcDbSpline
 70
8
 71
3
 72
8
 73
4
 74
0
 40
0
 40
0
 40
0
 40
0
 40
1
 40
1
 40
1
 40
1
 10
124.863116
 20
55.787348
 30
0.0
 10
118.567815
 20
49.671485
 30
0.0
 10
115.016273
 20
41.267775
 30
0.0
 10
115.017640
 20
32.490840
 30
0.0
  0
SPLINE
  5
1f6
100
AcDbEntity
  8
wheels
 62
7
100
AcDbSpline
 70
8
 71
3
 72
8
 73
4
 74
0
 40
0
 40
0
 40
0
 40
0
 40
1
 40
1
 40
1
 40
1
 10
115.017640
 20
32.490840
 30
0.0
 10
115.017640
 20
20.889285
 30
0.0
 10
121.206996
 20
10.169006
 30
0.0
 10
131.254238
 20
4.368229
 30
0.0
  0
SPLINE
  5
1f7
100
AcDbEntity
  8
wheels
 62
7
100
AcDbSpline
 70
8
 71
3
 72
8
 73
4
 74
0
 40
0
 40
0
 40
0
 40
0
 40
1
 40
1
 40
1
 40
1
 10
131.254238
 20
4.368229
 30
0.0
 10
141.301479
 20
-1.432549
 30
0.0
 10
153.680191
 20
-1.432549
 30
0.0
 10
163.727432
 20
4.368229
 30
0.0
  0
SPLINE
  5
1f8
100
AcDbEntity
  8
wheels
 62
7
100
AcDbSpline
 70
8
 71
3
 72
8
 73
4
 74
0
 40
0
 40
0
 40
0
 40
0
 40
1
 40
1
 40
1
 40
1
 10
163.727432
 20
4.368229
 30
0.0
 10
173.774673
 20
10.169006
 30
0.0
 10
179.964029
 20
20.889285
 30
0.0
 10
179.964029
 20
32.490840
 30
0.0
  0
SPLINE
  5
1f9
100
AcDbEntity
  8
wheels
 62
7
100
AcDbSpline
 70
8
 71
3
 72
8
 73
4
 74
0
 40
0
 40
0
 40
0
 40
0
 40
1
 40
1
 40
1
 40
1
 10
179.964029
 20
32.490840
 30
0.0
 10
179.966761
 20
50.059742
 30
0.0
 10
165.995999
 20
64.444741
 30
0.0
 10
148.434515
 20
64.955215
 30
0.0
  0
LINE
  5
1fa
100
AcDbEntity
  8
wheels
 62
7
100
AcDbLine
 10
148.434515
 20
64.955215
 30
0.0
 11
148.434515
 21
64.955215
 31
0.0
  0
SPLINE
  5
1fb
100
AcDbEntity
  8
wheels
 62
7
100
AcDbSpline
 70
8
 71
3
 72
8
 73
4
 74
0
 40
0
 40
0
 40
0
 40
0
 40
1
 40
1
 40
1
 40
1
 10
137.366113
 20
44.229521
 30
0.0
 10
137.847887
 20
44.263791
 30
0.0
 10
138.322188
 20
44.095990
 30
0.0
 10
138.675226
 20
43.766376
 30
0.0
  0
SPLINE
  5
1fc
100
AcDbEntity
  8
wheels
 62
7
100
AcDbSpline
 70
8
 71
3
 72
8
 73
4
 74
0
 40
0
 40
0
 40
0
 40
0
 40
1
 40
1
 40
1
 40
1
 10
138.675226
 20
43.766376
 30
0.0
 10
139.028264
 20
43.436762
 30
0.0
 10
139.228181
 20
42.975078
 30
0.0
 10
139.227015
 20
42.492087
 30
0.0
  0
SPLINE
  5
1fd
100
AcDbEntity
  8
wheels
 62
7
100
AcDbSpline
 70
8
 71
3
 72
8
 73
4
 74
0
 40
0
 40
0
 40
0
 40
0
 40
1
 40
1
 40
1
 40
1
 10
139.227015
 20
42.492087
 30
0.0
 10
139.213038
 20
41.542503
 30
0.0
 10
138.439272
 20
40.780043
 30
0.0
 10
137.489585
 20
40.780043
 30
0.0
  0
SPLINE
  5
1fe
100
AcDbEntity
  8
wheels
 62
7
100
AcDbSpline
 70
8
 71
3
 72
8
 73
4
 74
0
 40
0
 40
0
 40
0
 40
0
 40
1
 40
1
 40
1
 40
1
 10
137.489585
 20
40.780043
 30
0.0
 10
136.539897
 20
40.780043
 30
0.0
 10
135.766132
 20
41.542503
 30
0.0
 10
135.752154
 20
42.492087
 30
0.0
  0
SPLINE
  5
1ff
100
AcDbEntity
  8
wheels
 62
7
100
AcDbSpline
 70
8
 71
3
 72
8
 73
4
 74
0
 40
0
 40
0
 40
0
 40
0
 40
1
 40
1
 40
1
 40
1
 10
135.752154
 20
42.492087
 30
0.0
 10
135.749936
 20
43.405388
 30
0.0
 10
136.455125
 20
44.164527
 30
0.0
 10
137.366113
 20
44.229521
 30
0.0
  0
LINE
  5
200
100
AcDbEntity
  8
wheels
 62
7
100
AcDbLine
 10
137.366113
 20
44.229521
 30
0.0
 11
137.366113
 21
44.229521
 31
0.0
  0
SPLINE
  5
201
100
AcDbEntity
  8
wheels
 62
7
100
AcDbSpline
 70
8
 71
3
 72
8
 73
4
 74
0
 40
0
 40
0
 40
0
 40
0
 40
1
 40
1
 40
1
 40
1
 10
157.359796
 20
44.229521
 30
0.0
 10
157.841570
 20
44.263790
 30
0.0
 10
158.315870
 20
44.095988
 30
0.0
 10
158.668907
 20
43.766374
 30
0.0
  0
SPLINE
  5
202
100
AcDbEntity
  8
wheels
 62
7
100
AcDbSpline
 70
8
 71
3
 72
8
 73
4
 74
0
 40
0
 40
0
 40
0
 40
0
 40
1
 40
1
 40
1
 40
1
 10
158.668907
 20
43.766374
 30
0.0
 10
159.021945
 20
43.436760
 30
0.0
 10
159.221861
 20
42.975078
 30
0.0
 10
159.220696
 20
42.492087
 30
0.0
  0
SPLINE
  5
203
100
AcDbEntity
  8
wheels
 62
7
100
AcDbSpline
 70
8
 71
3
 72
8
 73
4
 74
0
 40
0
 40
0
 40
0
 40
0
 40
1
 40
1
 40
1
 40
1
 10
159.220696
 20
42.492087
 30
0.0
 10
159.206704
 20
41.542513
 30
0.0
 10
158.432943
 20
40.780070
 30
0.0
 10
157.483265
 20
40.780070
 30
0.0
  0
SPLINE
  5
204
100
AcDbEntity
  8
wheels
 62
7
100
AcDbSpline
 70
8
 71
3
 72
8
 73
4
 74
0
 40
0
 40
0
 40
0
 40
0
 40
1
 40
1
 40
1
 40
1
 10
157.483265
 20
40.780070
 30
0.0
 10
156.533588
 20
40.780070
 30
0.0
 10
155.759827
 20
41.542513
 30
0.0
 10
155.745835
 20
42.492087
 30
0.0
  0
SPLINE
  5
205
100
AcDbEntity
  8
wheels
 62
7
100
AcDbSpline
 70
8
 71
3
 72
8
 73
4
 74
0
 40
0
 40
0
 40
0
 40
0
 40
1
 40
1
 40
1
 40
1
 10
155.745835
 20
42.492087
 30
0.0
 10
155.743617
 20
43.405389
 30
0.0
 10
156.448808
 20
44.164528
 30
0.0
 10
157.359796
 20
44.229521
 30
0.0
  0
LINE
  5
206
100
AcDbEntity
  8
wheels
 62
7
100
AcDbLine
 10
157.359796
 20
44.229521
 30
0.0
 11
157.359796
 21
44.229521
 31
0.0
  0
SPLINE
  5
207
100
AcDbEntity
  8
wheels
 62
7
100
AcDbSpline
 70
8
 71
3
 72
8
 73
4
 74
0
 40
0
 40
0
 40
0
 40
0
 40
1
 40
1
 40
1
 40
1
 10
137.366113
 20
39.228896
 30
0.0
 10
137.847887
 20
39.263165
 30
0.0
 10
138.322187
 20
39.095365
 30
0.0
 10
138.675225
 20
38.765752
 30
0.0
  0
SPLINE
  5
208
100
AcDbEntity
  8
wheels
 62
7
100
AcDbSpline
 70
8
 71
3
 72
8
 73
4
 74
0
 40
0
 40
0
 40
0
 40
0
 40
1
 40
1
 40
1
 40
1
 10
138.675225
 20
38.765752
 30
0.0
 10
139.028263
 20
38.436138
 30
0.0
 10
139.228180
 20
37.974455
 30
0.0
 10
139.227015
 20
37.491465
 30
0.0
  0
SPLINE
  5
209
100
AcDbEntity
  8
wheels
 62
7
100
AcDbSpline
 70
8
 71
3
 72
8
 73
4
 74
0
 40
0
 40
0
 40
0
 40
0
 40
1
 40
1
 40
1
 40
1
 10
139.227015
 20
37.491465
 30
0.0
 10
139.213036
 20
36.541882
 30
0.0
 10
138.439271
 20
35.779425
 30
0.0
 10
137.489585
 20
35.779425
 30
0.0
  0
SPLINE
  5
20a
100
AcDbEntity
  8
wheels
 62
7
100
AcDbSpline
 70
8
 71
3
 72
8
 73
4
 74
0
 40
0
 40
0
 40
0
 40
0
 40
1
 40
1
 40
1
 40
1
 10
137.489585
 20
35.779425
 30
0.0
 10
136.539899
 20
35.779425
 30
0.0
 10
135.766134
 20
36.541882
 30
0.0
 10
135.752154
 20
37.491465
 30
0.0
  0
SPLINE
  5
20b
100
AcDbEntity
  8
wheels
 62
7
100
AcDbSpline
 70
8
 71
3
 72
8
 73
4
 74
0
 40
0
 40
0
 40
0
 40
0
 40
1
 40
1
 40
1
 40
1
 10
135.752154
 20
37.491465
 30
0.0
 10
135.749938
 20
38.404764
 30
0.0
 10
136.455126
 20
39.163902
 30
0.0
 10
137.366113
 20
39.228896
 30
0.0
  0
LINE
  5
20c
100
AcDbEntity
  8
wheels
 62
7
100
AcDbLine
 10
137.366113
 20
39.228896
 30
0.0
 11
137.366113
 21
39.228896
 31
0.0
  0
SPLINE
  5
20d
100
AcDbEntity
  8
wheels
 62
7
100
AcDbSpline
 70
8
 71
3
 72
8
 73
4
 74
0
 40
0
 40
0
 40
0
 40
0
 40
1
 40
1
 40
1
 40
1
 10
157.359796
 20
39.228896
 30
0.0
 10
157.841570
 20
39.263165
 30
0.0
 10
158.315869
 20
39.095364
 30
0.0
 10
158.668906
 20
38.765750
 30
0.0
  0
SPLINE
  5
20e
100
AcDbEntity
  8
wheels
 62
7
100
AcDbSpline
 70
8
 71
3
 72
8
 73
4
 74
0
 40
0
 40
0
 40
0
 40
0
 40
1
 40
1
 40
1
 40
1
 10
158.668906
 20
38.765750
 30
0.0
 10
159.021944
 20
38.436137
 30
0.0
 10
159.221861
 20
37.974455
 30
0.0
 10
159.220696
 20
37.491465
 30
0.0
  0
SPLINE
  5
20f
100
AcDbEntity
  8
wheels
 62
7
100
AcDbSpline
 70
8
 71
3
 72
8
 73
4
 74
0
 40
0
 40
0
 40
0
 40
0
 40
1
 40
1
 40
1
 40
1
 10
159.220696
 20
37.491465
 30
0.0
 10
159.206706
 20
36.541889
 30
0.0
 10
158.432944
 20
35.779444
 30
0.0
 10
157.483265
 20
35.779444
 30
0.0
  0
SPLINE
  5
210
100
AcDbEntity
  8
wheels
 62
7
100
AcDbSpline
 70
8
 71
3
 72
8
 73
4
 74
0
 40
0
 40
0
 40
0
 40
0
 40
1
 40
1
 40
1
 40
1
 10
157.483265
 20
35.779444
 30
0.0
 10
156.533586
 20
35.779444
 30
0.0
 10
155.759825
 20
36.541889
 30
0.0
 10
155.745835
 20
37.491465
 30
0.0
  0
SPLINE
  5
211
100
AcDbEntity
  8
wheels
 62
7
100
AcDbSpline
 70
8
 71
3
 72
8
 73
4
 74
0
 40
0
 40
0
 40
0
 40
0
 40
1
 40
1
 40
1
 40
1
 10
155.745835
 20
37.491465
 30
0.0
 10
155.743618
 20
38.404765
 30
0.0
 10
156.448809
 20
39.163903
 30
0.0
 10
157.359796
 20
39.228896
 30
0.0
  0
LINE
  5
212
100
AcDbEntity
  8
wheels
 62
7
100
AcDbLine
 10
157.359796
 20
39.228896
 30
0.0
 11
157.359796
 21
39.228896
 31
0.0
  0
SPLINE
  5
213
100
AcDbEntity
  8
wheels
 62
7
100
AcDbSpline
 70
8
 71
3
 72
8
 73
4
 74
0
 40
0
 40
0
 40
0
 40
0
 40
1
 40
1
 40
1
 40
1
 10
147.561390
 20
34.986740
 30
0.0
 10
148.912303
 20
34.948756
 30
0.0
 10
149.987494
 20
33.842287
 30
0.0
 10
149.986735
 20
32.490840
 30
0.0
  0
SPLINE
  5
214
100
AcDbEntity
  8
wheels
 62
7
100
AcDbSpline
 70
8
 71
3
 72
8
 73
4
 74
0
 40
0
 40
0
 40
0
 40
0
 40
1
 40
1
 40
1
 40
1
 10
149.986735
 20
32.490840
 30
0.0
 10
149.985027
 20
31.113601
 30
0.0
 10
148.868074
 20
29.998032
 30
0.0
 10
147.490833
 20
29.998032
 30
0.0
  0
SPLINE
  5
215
100
AcDbEntity
  8
wheels
 62
7
100
AcDbSpline
 70
8
 71
3
 72
8
 73
4
 74
0
 40
0
 40
0
 40
0
 40
0
 40
1
 40
1
 40
1
 40
1
 10
147.490833
 20
29.998032
 30
0.0
 10
146.113593
 20
29.998032
 30
0.0
 10
144.996640
 20
31.113601
 30
0.0
 10
144.994932
 20
32.490840
 30
0.0
  0
SPLINE
  5
216
100
AcDbEntity
  8
wheels
 62
7
100
AcDbSpline
 70
8
 71
3
 72
8
 73
4
 74
0
 40
0
 40
0
 40
0
 40
0
 40
1
 40
1
 40
1
 40
1
 10
144.994932
 20
32.490840
 30
0.0
 10
144.994547
 20
33.165239
 30
0.0
 10
145.267134
 20
33.811081
 30
0.0
 10
145.750605
 20
34.281260
 30
0.0
  0
SPLINE
  5
217
100
AcDbEntity
  8
wheels
 62
7
100
AcDbSpline
 70
8
 71
3
 72
8
 73
4
 74
0
 40
0
 40
0
 40
0
 40
0
 40
1
 40
1
 40
1
 40
1
 10
145.750605
 20
34.281260
 30
0.0
 10
146.234076
 20
34.751440
 30
0.0
 10
146.887265
 20
35.005921
 30
0.0
 10
147.561390
 20
34.986740
 30
0.0
  0
LINE
  5
218
100
AcDbEntity
  8
wheels
 62
7
100
AcDbLine
 10
147.561390
 20
34.986740
 30
0.0
 11
147.561390
 21
34.986740
 31
0.0
  0
SPLINE
  5
219
100
AcDbEntity
  8
wheels
 62
7
100
AcDbSpline
 70
8
 71
3
 72
8
 73
4
 74
0
 40
0
 40
0
 40
0
 40
0
 40
1
 40
1
 40
1
 40
1
 10
137.366113
 20
29.227646
 30
0.0
 10
137.847887
 20
29.261916
 30
0.0
 10
138.322188
 20
29.094115
 30
0.0
 10
138.675226
 20
28.764501
 30
0.0
  0
SPLINE
  5
21a
100
AcDbEntity
  8
wheels
 62
7
100
AcDbSpline
 70
8
 71
3
 72
8
 73
4
 74
0
 40
0
 40
0
 40
0
 40
0
 40
1
 40
1
 40
1
 40
1
 10
138.675226
 20
28.764501
 30
0.0
 10
139.028264
 20
28.434886
 30
0.0
 10
139.228181
 20
27.973203
 30
0.0
 10
139.227015
 20
27.490212
 30
0.0
  0
SPLINE
  5
21b
100
AcDbEntity
  8
wheels
 62
7
100
AcDbSpline
 70
8
 71
3
 72
8
 73
4
 74
0
 40
0
 40
0
 40
0
 40
0
 40
1
 40
1
 40
1
 40
1
 10
139.227015
 20
27.490212
 30
0.0
 10
139.213034
 20
26.540631
 30
0.0
 10
138.439270
 20
25.778176
 30
0.0
 10
137.489585
 20
25.778176
 30
0.0
  0
SPLINE
  5
21c
100
AcDbEntity
  8
wheels
 62
7
100
AcDbSpline
 70
8
 71
3
 72
8
 73
4
 74
0
 40
0
 40
0
 40
0
 40
0
 40
1
 40
1
 40
1
 40
1
 10
137.489585
 20
25.778176
 30
0.0
 10
136.539900
 20
25.778176
 30
0.0
 10
135.766136
 20
26.540631
 30
0.0
 10
135.752154
 20
27.490212
 30
0.0
  0
SPLINE
  5
21d
100
AcDbEntity
  8
wheels
 62
7
100
AcDbSpline
 70
8
 71
3
 72
8
 73
4
 74
0
 40
0
 40
0
 40
0
 40
0
 40
1
 40
1
 40
1
 40
1
 10
135.752154
 20
27.490212
 30
0.0
 10
135.749936
 20
28.403513
 30
0.0
 10
136.455125
 20
29.162652
 30
0.0
 10
137.366113
 20
29.227646
 30
0.0
  0
LINE
  5
21e
100
AcDbEntity
  8
wheels
 62
7
100
AcDbLine
 10
137.366113
 20
29.227646
 30
0.0
 11
137.366113
 21
29.227646
 31
0.0
  0
SPLINE
  5
21f
100
AcDbEntity
  8
wheels
 62
7
100
AcDbSpline
 70
8
 71
3
 72
8
 73
4
 74
0
 40
0
 40
0
 40
0
 40
0
 40
1
 40
1
 40
1
 40
1
 10
157.359796
 20
29.227646
 30
0.0
 10
157.841570
 20
29.261915
 30
0.0
 10
158.315870
 20
29.094114
 30
0.0
 10
158.668908
 20
28.764499
 30
0.0
  0
SPLINE
  5
220
100
AcDbEntity
  8
wheels
 62
7
100
AcDbSpline
 70
8
 71
3
 72
8
 73
4
 74
0
 40
0
 40
0
 40
0
 40
0
 40
1
 40
1
 40
1
 40
1
 10
158.668908
 20
28.764499
 30
0.0
 10
159.021945
 20
28.434885
 30
0.0
 10
159.221861
 20
27.973203
 30
0.0
 10
159.220696
 20
27.490212
 30
0.0
  0
SPLINE
  5
221
100
AcDbEntity
  8
wheels
 62
7
100
AcDbSpline
 70
8
 71
3
 72
8
 73
4
 74
0
 40
0
 40
0
 40
0
 40
0
 40
1
 40
1
 40
1
 40
1
 10
159.220696
 20
27.490212
 30
0.0
 10
159.206708
 20
26.540635
 30
0.0
 10
158.432946
 20
25.778187
 30
0.0
 10
157.483265
 20
25.778187
 30
0.0
  0
SPLINE
  5
222
100
AcDbEntity
  8
wheels
 62
7
100
AcDbSpline
 70
8
 71
3
 72
8
 73
4
 74
0
 40
0
 40
0
 40
0
 40
0
 40
1
 40
1
 40
1
 40
1
 10
157.483265
 20
25.778187
 30
0.0
 10
156.533585
 20
25.778187
 30
0.0
 10
155.759823
 20
26.540635
 30
0.0
 10
155.745835
 20
27.490212
 30
0.0
  0
SPLINE
  5
223
100
AcDbEntity
  8
wheels
 62
7
100
AcDbSpline
 70
8
 71
3
 72
8
 73
4
 74
0
 40
0
 40
0
 40
0
 40
0
 40
1
 40
1
 40
1
 40
1
 10
155.745835
 20
27.490212
 30
0.0
 10
155.743617
 20
28.403514
 30
0.0
 10
156.448808
 20
29.162653
 30
0.0
 10
157.359796
 20
29.227646
 30
0.0
  0
LINE
  5
224
100
AcDbEntity
  8
wheels
 62
7
100
AcDbLine
 10
157.359796
 20
29.227646
 30
0.0
 11
157.359796
 21
29.227646
 31
0.0
  0
SPLINE
  5
225
100
AcDbEntity
  8
wheels
 62
7
100
AcDbSpline
 70
8
 71
3
 72
8
 73
4
 74
0
 40
0
 40
0
 40
0
 40
0
 40
1
 40
1
 40
1
 40
1
 10
137.366113
 20
24.227018
 30
0.0
 10
137.847886
 20
24.261288
 30
0.0
 10
138.322186
 20
24.093488
 30
0.0
 10
138.675224
 20
23.763875
 30
0.0
  0
SPLINE
  5
226
100
AcDbEntity
  8
wheels
 62
7
100
AcDbSpline
 70
8
 71
3
 72
8
 73
4
 74
0
 40
0
 40
0
 40
0
 40
0
 40
1
 40
1
 40
1
 40
1
 10
138.675224
 20
23.763875
 30
0.0
 10
139.028262
 20
23.434262
 30
0.0
 10
139.228179
 20
22.972580
 30
0.0
 10
139.227015
 20
22.489590
 30
0.0
  0
SPLINE
  5
227
100
AcDbEntity
  8
wheels
 62
7
100
AcDbSpline
 70
8
 71
3
 72
8
 73
4
 74
0
 40
0
 40
0
 40
0
 40
0
 40
1
 40
1
 40
1
 40
1
 10
139.227015
 20
22.489590
 30
0.0
 10
139.213031
 20
21.540010
 30
0.0
 10
138.439268
 20
20.777557
 30
0.0
 10
137.489585
 20
20.777557
 30
0.0
  0
SPLINE
  5
228
100
AcDbEntity
  8
wheels
 62
7
100
AcDbSpline
 70
8
 71
3
 72
8
 73
4
 74
0
 40
0
 40
0
 40
0
 40
0
 40
1
 40
1
 40
1
 40
1
 10
137.489585
 20
20.777557
 30
0.0
 10
136.539901
 20
20.777557
 30
0.0
 10
135.766138
 20
21.540010
 30
0.0
 10
135.752154
 20
22.489590
 30
0.0
  0
SPLINE
  5
229
100
AcDbEntity
  8
wheels
 62
7
100
AcDbSpline
 70
8
 71
3
 72
8
 73
4
 74
0
 40
0
 40
0
 40
0
 40
0
 40
1
 40
1
 40
1
 40
1
 10
135.752154
 20
22.489590
 30
0.0
 10
135.749939
 20
23.402888
 30
0.0
 10
136.455127
 20
24.162024
 30
0.0
 10
137.366113
 20
24.227018
 30
0.0
  0
LINE
  5
22a
100
AcDbEntity
  8
wheels
 62
7
100
AcDbLine
 10
137.366113
 20
24.227018
 30
0.0
 11
137.366113
 21
24.227018
 31
0.0
  0
SPLINE
  5
22b
100
AcDbEntity
  8
wheels
 62
7
100
AcDbSpline
 70
8
 71
3
 72
8
 73
4
 74
0
 40
0
 40
0
 40
0
 40
0
 40
1
 40
1
 40
1
 40
1
 10
157.359796
 20
24.227018
 30
0.0
 10
157.841569
 20
24.261287
 30
0.0
 10
158.315868
 20
24.093486
 30
0.0
 10
158.668905
 20
23.763874
 30
0.0
  0
SPLINE
  5
22c
100
AcDbEntity
  8
wheels
 62
7
100
AcDbSpline
 70
8
 71
3
 72
8
 73
4
 74
0
 40
0
 40
0
 40
0
 40
0
 40
1
 40
1
 40
1
 40
1
 10
158.668905
 20
23.763874
 30
0.0
 10
159.021943
 20
23.434261
 30
0.0
 10
159.221860
 20
22.972579
 30
0.0
 10
159.220696
 20
22.489590
 30
0.0
  0
SPLINE
  5
22d
100
AcDbEntity
  8
wheels
 62
7
100
AcDbSpline
 70
8
 71
3
 72
8
 73
4
 74
0
 40
0
 40
0
 40
0
 40
0
 40
1
 40
1
 40
1
 40
1
 10
159.220696
 20
22.489590
 30
0.0
 10
159.206710
 20
21.540011
 30
0.0
 10
158.432947
 20
20.777561
 30
0.0
 10
157.483265
 20
20.777561
 30
0.0
  0
SPLINE
  5
22e
100
AcDbEntity
  8
wheels
 62
7
100
AcDbSpline
 70
8
 71
3
 72
8
 73
4
 74
0
 40
0
 40
0
 40
0
 40
0
 40
1
 40
1
 40
1
 40
1
 10
157.483265
 20
20.777561
 30
0.0
 10
156.533583
 20
20.777561
 30
0.0
 10
155.759821
 20
21.540011
 30
0.0
 10
155.745835
 20
22.489590
 30
0.0
  0
SPLINE
  5
22f
100
AcDbEntity
  8
wheels
 62
7
100
AcDbSpline
 70
8
 71
3
 72
8
 73
4
 74
0
 40
0
 40
0
 40
0
 40
0
 40
1
 40
1
 40
1
 40
1
 10
155.745835
 20
22.489590
 30
0.0
 10
155.743620
 20
23.402889
 30
0.0
 10
156.448810
 20
24.162026
 30
0.0
 10
157.359796
 20
24.227018
 30
0.0
  0
LINE
  5
230
100
AcDbEntity
  8
wheels
 62
7
100
AcDbLine
 10
157.359796
 20
24.227018
 30
0.0
 11
157.359796
 21
24.227018
 31
0.0
  0
SPLINE
  5
231
100
AcDbEntity
  8
wheels
 62
7
100
AcDbSpline
 70
8
 71
3
 72
8
 73
4
 74
0
 40
0
 40
0
 40
0
 40
0
 40
1
 40
1
 40
1
 40
1
 10
148.434518
 20
134.955214
 30
0.0
 10
139.661291
 20
135.210319
 30
0.0
 10
131.158419
 20
131.903210
 30
0.0
 10
124.863117
 20
125.787347
 30
0.0
  0
SPLINE
  5
232
100
AcDbEntity
  8
wheels
 62
7
100
AcDbSpline
 70
8
 71
3
 72
8
 73
4
 74
0
 40
0
 40
0
 40
0
 40
0
 40
1
 40
1
 40
1
 40
1
 10
124.863117
 20
125.787347
 30
0.0
 10
118.567816
 20
119.671485
 30
0.0
 10
115.016273
 20
111.267774
 30
0.0
 10
115.017640
 20
102.490839
 30
0.0
  0
SPLINE
  5
233
100
AcDbEntity
  8
wheels
 62
7
100
AcDbSpline
 70
8
 71
3
 72
8
 73
4
 74
0
 40
0
 40
0
 40
0
 40
0
 40
1
 40
1
 40
1
 40
1
 10
115.017640
 20
102.490839
 30
0.0
 10
115.017640
 20
90.889284
 30
0.0
 10
121.206996
 20
80.169005
 30
0.0
 10
131.254238
 20
74.368227
 30
0.0
  0
SPLINE
  5
234
100
AcDbEntity
  8
wheels
 62
7
100
AcDbSpline
 70
8
 71
3
 72
8
 73
4
 74
0
 40
0
 40
0
 40
0
 40
0
 40
1
 40
1
 40
1
 40
1
 10
131.254238
 20
74.368227
 30
0.0
 10
141.301479
 20
68.567450
 30
0.0
 10
153.680191
 20
68.567450
 30
0.0
 10
163.727432
 20
74.368227
 30
0.0
  0
SPLINE
  5
235
100
AcDbEntity
  8
wheels
 62
7
100
AcDbSpline
 70
8
 71
3
 72
8
 73
4
 74
0
 40
0
 40
0
 40
0
 40
0
 40
1
 40
1
 40
1
 40
1
 10
163.727432
 20
74.368227
 30
0.0
 10
173.774673
 20
80.169005
 30
0.0
 10
179.964029
 20
90.889284
 30
0.0
 10
179.964029
 20
102.490839
 30
0.0
  0
SPLINE
  5
236
100
AcDbEntity
  8
wheels
 62
7
100
AcDbSpline
 70
8
 71
3
 72
8
 73
4
 74
0
 40
0
 40
0
 40
0
 40
0
 40
1
 40
1
 40
1
 40
1
 10
179.964029
 20
102.490839
 30
0.0
 10
179.966761
 20
120.059739
 30
0.0
 10
165.996001
 20
134.444738
 30
0.0
 10
148.434518
 20
134.955214
 30
0.0
  0
LINE
  5
237
100
AcDbEntity
  8
wheels
 62
7
100
AcDbLine
 10
148.434518
 20
134.955214
 30
0.0
 11
148.434518
 21
134.955214
 31
0.0
  0
SPLINE
  5
238
100
AcDbEntity
  8
wheels
 62
7
100
AcDbSpline
 70
8
 71
3
 72
8
 73
4
 74
0
 40
0
 40
0
 40
0
 40
0
 40
1
 40
1
 40
1
 40
1
 10
137.366110
 20
114.229519
 30
0.0
 10
137.847884
 20
114.263790
 30
0.0
 10
138.322186
 20
114.095990
 30
0.0
 10
138.675224
 20
113.766376
 30
0.0
  0
SPLINE
  5
239
100
AcDbEntity
  8
wheels
 62
7
100
AcDbSpline
 70
8
 71
3
 72
8
 73
4
 74
0
 40
0
 40
0
 40
0
 40
0
 40
1
 40
1
 40
1
 40
1
 10
138.675224
 20
113.766376
 30
0.0
 10
139.028263
 20
113.436762
 30
0.0
 10
139.228180
 20
112.975079
 30
0.0
 10
139.227015
 20
112.492089
 30
0.0
  0
SPLINE
  5
23a
100
AcDbEntity
  8
wheels
 62
7
100
AcDbSpline
 70
8
 71
3
 72
8
 73
4
 74
0
 40
0
 40
0
 40
0
 40
0
 40
1
 40
1
 40
1
 40
1
 10
139.227015
 20
112.492089
 30
0.0
 10
139.213038
 20
111.542504
 30
0.0
 10
138.439272
 20
110.780044
 30
0.0
 10
137.489585
 20
110.780044
 30
0.0
  0
SPLINE
  5
23b
100
AcDbEntity
  8
wheels
 62
7
100
AcDbSpline
 70
8
 71
3
 72
8
 73
4
 74
0
 40
0
 40
0
 40
0
 40
0
 40
1
 40
1
 40
1
 40
1
 10
137.489585
 20
110.780044
 30
0.0
 10
136.539897
 20
110.780044
 30
0.0
 10
135.766132
 20
111.542504
 30
0.0
 10
135.752154
 20
112.492089
 30
0.0
  0
SPLINE
  5
23c
100
AcDbEntity
  8
wheels
 62
7
100
AcDbSpline
 70
8
 71
3
 72
8
 73
4
 74
0
 40
0
 40
0
 40
0
 40
0
 40
1
 40
1
 40
1
 40
1
 10
135.752154
 20
112.492089
 30
0.0
 10
135.749937
 20
113.405387
 30
0.0
 10
136.455125
 20
114.164524
 30
0.0
 10
137.366110
 20
114.229519
 30
0.0
  0
LINE
  5
23d
100
AcDbEntity
  8
wheels
 62
7
100
AcDbLine
 10
137.366110
 20
114.229519
 30
0.0
 11
137.366110
 21
114.229519
 31
0.0
  0
SPLINE
  5
23e
100
AcDbEntity
  8
wheels
 62
7
100
AcDbSpline
 70
8
 71
3
 72
8
 73
4
 74
0
 40
0
 40
0
 40
0
 40
0
 40
1
 40
1
 40
1
 40
1
 10
157.359793
 20
114.229519
 30
0.0
 10
157.841567
 20
114.263788
 30
0.0
 10
158.315866
 20
114.095987
 30
0.0
 10
158.668904
 20
113.766374
 30
0.0
  0
SPLINE
  5
23f
100
AcDbEntity
  8
wheels
 62
7
100
AcDbSpline
 70
8
 71
3
 72
8
 73
4
 74
0
 40
0
 40
0
 40
0
 40
0
 40
1
 40
1
 40
1
 40
1
 10
158.668904
 20
113.766374
 30
0.0
 10
159.021941
 20
113.436760
 30
0.0
 10
159.221858
 20
112.975078
 30
0.0
 10
159.220693
 20
112.492089
 30
0.0
  0
SPLINE
  5
240
100
AcDbEntity
  8
wheels
 62
7
100
AcDbSpline
 70
8
 71
3
 72
8
 73
4
 74
0
 40
0
 40
0
 40
0
 40
0
 40
1
 40
1
 40
1
 40
1
 10
159.220693
 20
112.492089
 30
0.0
 10
159.206598
 20
111.542590
 30
0.0
 10
158.432868
 20
110.780262
 30
0.0
 10
157.483265
 20
110.780262
 30
0.0
  0
SPLINE
  5
241
100
AcDbEntity
  8
wheels
 62
7
100
AcDbSpline
 70
8
 71
3
 72
8
 73
4
 74
0
 40
0
 40
0
 40
0
 40
0
 40
1
 40
1
 40
1
 40
1
 10
157.483265
 20
110.780262
 30
0.0
 10
156.533662
 20
110.780262
 30
0.0
 10
155.759933
 20
111.542590
 30
0.0
 10
155.745838
 20
112.492089
 30
0.0
  0
SPLINE
  5
242
100
AcDbEntity
  8
wheels
 62
7
100
AcDbSpline
 70
8
 71
3
 72
8
 73
4
 74
0
 40
0
 40
0
 40
0
 40
0
 40
1
 40
1
 40
1
 40
1
 10
155.745838
 20
112.492089
 30
0.0
 10
155.743621
 20
113.405387
 30
0.0
 10
156.448808
 20
114.164524
 30
0.0
 10
157.359793
 20
114.229519
 30
0.0
  0
LINE
  5
243
100
AcDbEntity
  8
wheels
 62
7
100
AcDbLine
 10
157.359793
 20
114.229519
 30
0.0
 11
157.359793
 21
114.229519
 31
0.0
  0
SPLINE
  5
244
100
AcDbEntity
  8
wheels
 62
7
100
AcDbSpline
 70
8
 71
3
 72
8
 73
4
 74
0
 40
0
 40
0
 40
0
 40
0
 40
1
 40
1
 40
1
 40
1
 10
137.366110
 20
109.228894
 30
0.0
 10
137.847884
 20
109.263165
 30
0.0
 10
138.322186
 20
109.095365
 30
0.0
 10
138.675224
 20
108.765751
 30
0.0
  0
SPLINE
  5
245
100
AcDbEntity
  8
wheels
 62
7
100
AcDbSpline
 70
8
 71
3
 72
8
 73
4
 74
0
 40
0
 40
0
 40
0
 40
0
 40
1
 40
1
 40
1
 40
1
 10
138.675224
 20
108.765751
 30
0.0
 10
139.028263
 20
108.436137
 30
0.0
 10
139.228180
 20
107.974454
 30
0.0
 10
139.227015
 20
107.491464
 30
0.0
  0
SPLINE
  5
246
100
AcDbEntity
  8
wheels
 62
7
100
AcDbSpline
 70
8
 71
3
 72
8
 73
4
 74
0
 40
0
 40
0
 40
0
 40
0
 40
1
 40
1
 40
1
 40
1
 10
139.227015
 20
107.491464
 30
0.0
 10
139.213036
 20
106.541880
 30
0.0
 10
138.439271
 20
105.779423
 30
0.0
 10
137.489585
 20
105.779423
 30
0.0
  0
SPLINE
  5
247
100
AcDbEntity
  8
wheels
 62
7
100
AcDbSpline
 70
8
 71
3
 72
8
 73
4
 74
0
 40
0
 40
0
 40
0
 40
0
 40
1
 40
1
 40
1
 40
1
 10
137.489585
 20
105.779423
 30
0.0
 10
136.539899
 20
105.779423
 30
0.0
 10
135.766134
 20
106.541880
 30
0.0
 10
135.752154
 20
107.491464
 30
0.0
  0
SPLINE
  5
248
100
AcDbEntity
  8
wheels
 62
7
100
AcDbSpline
 70
8
 71
3
 72
8
 73
4
 74
0
 40
0
 40
0
 40
0
 40
0
 40
1
 40
1
 40
1
 40
1
 10
135.752154
 20
107.491464
 30
0.0
 10
135.749938
 20
108.404762
 30
0.0
 10
136.455125
 20
109.163899
 30
0.0
 10
137.366110
 20
109.228894
 30
0.0
  0
LINE
  5
249
100
AcDbEntity
  8
wheels
 62
7
100
AcDbLine
 10
137.366110
 20
109.228894
 30
0.0
 11
137.366110
 21
109.228894
 31
0.0
  0
SPLINE
  5
24a
100
AcDbEntity
  8
wheels
 62
7
100
AcDbSpline
 70
8
 71
3
 72
8
 73
4
 74
0
 40
0
 40
0
 40
0
 40
0
 40
1
 40
1
 40
1
 40
1
 10
157.359793
 20
109.228894
 30
0.0
 10
157.841567
 20
109.263163
 30
0.0
 10
158.315866
 20
109.095362
 30
0.0
 10
158.668904
 20
108.765749
 30
0.0
  0
SPLINE
  5
24b
100
AcDbEntity
  8
wheels
 62
7
100
AcDbSpline
 70
8
 71
3
 72
8
 73
4
 74
0
 40
0
 40
0
 40
0
 40
0
 40
1
 40
1
 40
1
 40
1
 10
158.668904
 20
108.765749
 30
0.0
 10
159.021941
 20
108.436135
 30
0.0
 10
159.221858
 20
107.974453
 30
0.0
 10
159.220693
 20
107.491464
 30
0.0
  0
SPLINE
  5
24c
100
AcDbEntity
  8
wheels
 62
7
100
AcDbSpline
 70
8
 71
3
 72
8
 73
4
 74
0
 40
0
 40
0
 40
0
 40
0
 40
1
 40
1
 40
1
 40
1
 10
159.220693
 20
107.491464
 30
0.0
 10
159.206600
 20
106.541964
 30
0.0
 10
158.432870
 20
105.779633
 30
0.0
 10
157.483265
 20
105.779633
 30
0.0
  0
SPLINE
  5
24d
100
AcDbEntity
  8
wheels
 62
7
100
AcDbSpline
 70
8
 71
3
 72
8
 73
4
 74
0
 40
0
 40
0
 40
0
 40
0
 40
1
 40
1
 40
1
 40
1
 10
157.483265
 20
105.779633
 30
0.0
 10
156.533661
 20
105.779633
 30
0.0
 10
155.759931
 20
106.541964
 30
0.0
 10
155.745838
 20
107.491464
 30
0.0
  0
SPLINE
  5
24e
100
AcDbEntity
  8
wheels
 62
7
100
AcDbSpline
 70
8
 71
3
 72
8
 73
4
 74
0
 40
0
 40
0
 40
0
 40
0
 40
1
 40
1
 40
1
 40
1
 10
155.745838
 20
107.491464
 30
0.0
 10
155.743621
 20
108.404762
 30
0.0
 10
156.448808
 20
109.163899
 30
0.0
 10
157.359793
 20
109.228894
 30
0.0
  0
LINE
  5
24f
100
AcDbEntity
  8
wheels
 62
7
100
AcDbLine
 10
157.359793
 20
109.228894
 30
0.0
 11
157.359793
 21
109.228894
 31
0.0
  0
SPLINE
  5
250
100
AcDbEntity
  8
wheels
 62
7
100
AcDbSpline
 70
8
 71
3
 72
8
 73
4
 74
0
 40
0
 40
0
 40
0
 40
0
 40
1
 40
1
 40
1
 40
1
 10
147.561387
 20
104.986741
 30
0.0
 10
148.912302
 20
104.948759
 30
0.0
 10
149.987495
 20
103.842287
 30
0.0
 10
149.986735
 20
102.490839
 30
0.0
  0
SPLINE
  5
251
100
AcDbEntity
  8
wheels
 62
7
100
AcDbSpline
 70
8
 71
3
 72
8
 73
4
 74
0
 40
0
 40
0
 40
0
 40
0
 40
1
 40
1
 40
1
 40
1
 10
149.986735
 20
102.490839
 30
0.0
 10
149.985856
 20
101.113011
 30
0.0
 10
148.868659
 20
99.996528
 30
0.0
 10
147.490832
 20
99.996528
 30
0.0
  0
SPLINE
  5
252
100
AcDbEntity
  8
wheels
 62
7
100
AcDbSpline
 70
8
 71
3
 72
8
 73
4
 74
0
 40
0
 40
0
 40
0
 40
0
 40
1
 40
1
 40
1
 40
1
 10
147.490832
 20
99.996528
 30
0.0
 10
146.113004
 20
99.996528
 30
0.0
 10
144.995808
 20
101.113011
 30
0.0
 10
144.994929
 20
102.490839
 30
0.0
  0
SPLINE
  5
253
100
AcDbEntity
  8
wheels
 62
7
100
AcDbSpline
 70
8
 71
3
 72
8
 73
4
 74
0
 40
0
 40
0
 40
0
 40
0
 40
1
 40
1
 40
1
 40
1
 10
144.994929
 20
102.490839
 30
0.0
 10
144.994543
 20
103.165237
 30
0.0
 10
145.267130
 20
103.811080
 30
0.0
 10
145.750601
 20
104.281260
 30
0.0
  0
SPLINE
  5
254
100
AcDbEntity
  8
wheels
 62
7
100
AcDbSpline
 70
8
 71
3
 72
8
 73
4
 74
0
 40
0
 40
0
 40
0
 40
0
 40
1
 40
1
 40
1
 40
1
 10
145.750601
 20
104.281260
 30
0.0
 10
146.234073
 20
104.751440
 30
0.0
 10
146.887261
 20
105.005922
 30
0.0
 10
147.561387
 20
104.986741
 30
0.0
  0
LINE
  5
255
100
AcDbEntity
  8
wheels
 62
7
100
AcDbLine
 10
147.561387
 20
104.986741
 30
0.0
 11
147.561387
 21
104.986741
 31
0.0
  0
SPLINE
  5
256
100
AcDbEntity
  8
wheels
 62
7
100
AcDbSpline
 70
8
 71
3
 72
8
 73
4
 74
0
 40
0
 40
0
 40
0
 40
0
 40
1
 40
1
 40
1
 40
1
 10
137.366110
 20
99.227644
 30
0.0
 10
137.847885
 20
99.261915
 30
0.0
 10
138.322187
 20
99.094114
 30
0.0
 10
138.675225
 20
98.764500
 30
0.0
  0
SPLINE
  5
257
100
AcDbEntity
  8
wheels
 62
7
100
AcDbSpline
 70
8
 71
3
 72
8
 73
4
 74
0
 40
0
 40
0
 40
0
 40
0
 40
1
 40
1
 40
1
 40
1
 10
138.675225
 20
98.764500
 30
0.0
 10
139.028264
 20
98.434886
 30
0.0
 10
139.228181
 20
97.973202
 30
0.0
 10
139.227015
 20
97.490211
 30
0.0
  0
SPLINE
  5
258
100
AcDbEntity
  8
wheels
 62
7
100
AcDbSpline
 70
8
 71
3
 72
8
 73
4
 74
0
 40
0
 40
0
 40
0
 40
0
 40
1
 40
1
 40
1
 40
1
 10
139.227015
 20
97.490211
 30
0.0
 10
139.213034
 20
96.540629
 30
0.0
 10
138.439270
 20
95.778174
 30
0.0
 10
137.489585
 20
95.778174
 30
0.0
  0
SPLINE
  5
259
100
AcDbEntity
  8
wheels
 62
7
100
AcDbSpline
 70
8
 71
3
 72
8
 73
4
 74
0
 40
0
 40
0
 40
0
 40
0
 40
1
 40
1
 40
1
 40
1
 10
137.489585
 20
95.778174
 30
0.0
 10
136.539900
 20
95.778174
 30
0.0
 10
135.766136
 20
96.540629
 30
0.0
 10
135.752154
 20
97.490211
 30
0.0
  0
SPLINE
  5
25a
100
AcDbEntity
  8
wheels
 62
7
100
AcDbSpline
 70
8
 71
3
 72
8
 73
4
 74
0
 40
0
 40
0
 40
0
 40
0
 40
1
 40
1
 40
1
 40
1
 10
135.752154
 20
97.490211
 30
0.0
 10
135.749936
 20
98.403510
 30
0.0
 10
136.455124
 20
99.162649
 30
0.0
 10
137.366110
 20
99.227644
 30
0.0
  0
LINE
  5
25b
100
AcDbEntity
  8
wheels
 62
7
100
AcDbLine
 10
137.366110
 20
99.227644
 30
0.0
 11
137.366110
 21
99.227644
 31
0.0
  0
SPLINE
  5
25c
100
AcDbEntity
  8
wheels
 62
7
100
AcDbSpline
 70
8
 71
3
 72
8
 73
4
 74
0
 40
0
 40
0
 40
0
 40
0
 40
1
 40
1
 40
1
 40
1
 10
157.359793
 20
99.227644
 30
0.0
 10
157.841567
 20
99.261913
 30
0.0
 10
158.315867
 20
99.094112
 30
0.0
 10
158.668905
 20
98.764498
 30
0.0
  0
SPLINE
  5
25d
100
AcDbEntity
  8
wheels
 62
7
100
AcDbSpline
 70
8
 71
3
 72
8
 73
4
 74
0
 40
0
 40
0
 40
0
 40
0
 40
1
 40
1
 40
1
 40
1
 10
158.668905
 20
98.764498
 30
0.0
 10
159.021942
 20
98.434884
 30
0.0
 10
159.221859
 20
97.973201
 30
0.0
 10
159.220693
 20
97.490211
 30
0.0
  0
SPLINE
  5
25e
100
AcDbEntity
  8
wheels
 62
7
100
AcDbSpline
 70
8
 71
3
 72
8
 73
4
 74
0
 40
0
 40
0
 40
0
 40
0
 40
1
 40
1
 40
1
 40
1
 10
159.220693
 20
97.490211
 30
0.0
 10
159.206602
 20
96.540709
 30
0.0
 10
158.432871
 20
95.778376
 30
0.0
 10
157.483265
 20
95.778376
 30
0.0
  0
SPLINE
  5
25f
100
AcDbEntity
  8
wheels
 62
7
100
AcDbSpline
 70
8
 71
3
 72
8
 73
4
 74
0
 40
0
 40
0
 40
0
 40
0
 40
1
 40
1
 40
1
 40
1
 10
157.483265
 20
95.778376
 30
0.0
 10
156.533659
 20
95.778376
 30
0.0
 10
155.759929
 20
96.540709
 30
0.0
 10
155.745838
 20
97.490211
 30
0.0
  0
SPLINE
  5
260
100
AcDbEntity
  8
wheels
 62
7
100
AcDbSpline
 70
8
 71
3
 72
8
 73
4
 74
0
 40
0
 40
0
 40
0
 40
0
 40
1
 40
1
 40
1
 40
1
 10
155.745838
 20
97.490211
 30
0.0
 10
155.743620
 20
98.403510
 30
0.0
 10
156.448807
 20
99.162649
 30
0.0
 10
157.359793
 20
99.227644
 30
0.0
  0
LINE
  5
261
100
AcDbEntity
  8
wheels
 62
7
100
AcDbLine
 10
157.359793
 20
99.227644
 30
0.0
 11
157.359793
 21
99.227644
 31
0.0
  0
SPLINE
  5
262
100
AcDbEntity
  8
wheels
 62
7
100
AcDbSpline
 70
8
 71
3
 72
8
 73
4
 74
0
 40
0
 40
0
 40
0
 40
0
 40
1
 40
1
 40
1
 40
1
 10
137.366110
 20
94.227016
 30
0.0
 10
137.847884
 20
94.261287
 30
0.0
 10
138.322186
 20
94.093487
 30
0.0
 10
138.675224
 20
93.763873
 30
0.0
  0
SPLINE
  5
263
100
AcDbEntity
  8
wheels
 62
7
100
AcDbSpline
 70
8
 71
3
 72
8
 73
4
 74
0
 40
0
 40
0
 40
0
 40
0
 40
1
 40
1
 40
1
 40
1
 10
138.675224
 20
93.763873
 30
0.0
 10
139.028263
 20
93.434260
 30
0.0
 10
139.228180
 20
92.972576
 30
0.0
 10
139.227015
 20
92.489586
 30
0.0
  0
SPLINE
  5
264
100
AcDbEntity
  8
wheels
 62
7
100
AcDbSpline
 70
8
 71
3
 72
8
 73
4
 74
0
 40
0
 40
0
 40
0
 40
0
 40
1
 40
1
 40
1
 40
1
 10
139.227015
 20
92.489586
 30
0.0
 10
139.213031
 20
91.540005
 30
0.0
 10
138.439268
 20
90.777553
 30
0.0
 10
137.489585
 20
90.777553
 30
0.0
  0
SPLINE
  5
265
100
AcDbEntity
  8
wheels
 62
7
100
AcDbSpline
 70
8
 71
3
 72
8
 73
4
 74
0
 40
0
 40
0
 40
0
 40
0
 40
1
 40
1
 40
1
 40
1
 10
137.489585
 20
90.777553
 30
0.0
 10
136.539901
 20
90.777553
 30
0.0
 10
135.766138
 20
91.540005
 30
0.0
 10
135.752154
 20
92.489586
 30
0.0
  0
SPLINE
  5
266
100
AcDbEntity
  8
wheels
 62
7
100
AcDbSpline
 70
8
 71
3
 72
8
 73
4
 74
0
 40
0
 40
0
 40
0
 40
0
 40
1
 40
1
 40
1
 40
1
 10
135.752154
 20
92.489586
 30
0.0
 10
135.749938
 20
93.402884
 30
0.0
 10
136.455125
 20
94.162021
 30
0.0
 10
137.366110
 20
94.227016
 30
0.0
  0
LINE
  5
267
100
AcDbEntity
  8
wheels
 62
7
100
AcDbLine
 10
137.366110
 20
94.227016
 30
0.0
 11
137.366110
 21
94.227016
 31
0.0
  0
SPLINE
  5
268
100
AcDbEntity
  8
wheels
 62
7
100
AcDbSpline
 70
8
 71
3
 72
8
 73
4
 74
0
 40
0
 40
0
 40
0
 40
0
 40
1
 40
1
 40
1
 40
1
 10
157.359793
 20
94.227016
 30
0.0
 10
157.841567
 20
94.261285
 30
0.0
 10
158.315866
 20
94.093484
 30
0.0
 10
158.668904
 20
93.763871
 30
0.0
  0
SPLINE
  5
269
100
AcDbEntity
  8
wheels
 62
7
100
AcDbSpline
 70
8
 71
3
 72
8
 73
4
 74
0
 40
0
 40
0
 40
0
 40
0
 40
1
 40
1
 40
1
 40
1
 10
158.668904
 20
93.763871
 30
0.0
 10
159.021941
 20
93.434257
 30
0.0
 10
159.221858
 20
92.972575
 30
0.0
 10
159.220693
 20
92.489586
 30
0.0
  0
SPLINE
  5
26a
100
AcDbEntity
  8
wheels
 62
7
100
AcDbSpline
 70
8
 71
3
 72
8
 73
4
 74
0
 40
0
 40
0
 40
0
 40
0
 40
1
 40
1
 40
1
 40
1
 10
159.220693
 20
92.489586
 30
0.0
 10
159.206604
 20
91.540083
 30
0.0
 10
158.432873
 20
90.777747
 30
0.0
 10
157.483265
 20
90.777747
 30
0.0
  0
SPLINE
  5
26b
100
AcDbEntity
  8
wheels
 62
7
100
AcDbSpline
 70
8
 71
3
 72
8
 73
4
 74
0
 40
0
 40
0
 40
0
 40
0
 40
1
 40
1
 40
1
 40
1
 10
157.483265
 20
90.777747
 30
0.0
 10
156.533658
 20
90.777747
 30
0.0
 10
155.759927
 20
91.540083
 30
0.0
 10
155.745838
 20
92.489586
 30
0.0
  0
SPLINE
  5
26c
100
AcDbEntity
  8
wheels
 62
7
100
AcDbSpline
 70
8
 71
3
 72
8
 73
4
 74
0
 40
0
 40
0
 40
0
 40
0
 40
1
 40
1
 40
1
 40
1
 10
155.745838
 20
92.489586
 30
0.0
 10
155.743621
 20
93.402884
 30
0.0
 10
156.448808
 20
94.162021
 30
0.0
 10
157.359793
 20
94.227016
 30
0.0
  0
LINE
  5
26d
100
AcDbEntity
  8
wheels
 62
7
100
AcDbLine
 10
157.359793
 20
94.227016
 30
0.0
 11
157.359793
 21
94.227016
 31
0.0
  0
ENDSEC
  0
SECTION
  2
OBJECTS
  0
DICTIONARY
  5
C
330
0
100
AcDbDictionary
  3
ACAD_GROUP
350
D
  3
ACAD_MLINESTYLE
350
17
  0
DICTIONARY
  5
D
330
C
100
AcDbDictionary
  0
DICTIONARY
  5
1A
330
C
100
AcDbDictionary
  0
DICTIONARY
  5
17
330
C
100
AcDbDictionary
  3
STANDARD
350
18
  0
DICTIONARY
  5
19
330
C
100
AcDbDictionary
  0
ENDSEC
  0
EOF
