  0
SECTION
  2
HEADER
  9
$ACADVER
  1
AC1014
  9
$HANDSEED
  5
FFFF
  9
$MEASUREMENT
 70
     1
  0
ENDSEC
  0
SECTION
  2
TABLES
  0
TABLE
  2
VPORT
  5
8
330
0
100
AcDbSymbolTable
 70
     4
  0
VPORT
  5
2E
330
8
100
AcDbSymbolTableRecord
100
AcDbViewportTableRecord
  2
*ACTIVE
 70
     0
 10
0.0
 20
0.0
 11
1.0
 21
1.0
 12
210.0
 22
148.5
 13
0.0
 23
0.0
 14
10.0
 24
10.0
 15
10.0
 25
10.0
 16
0.0
 26
0.0
 36
1.0
 17
0.0
 27
0.0
 37
0.0
 40
341.0
 41
1.24
 42
50.0
 43
0.0
 44
0.0
 50
0.0
 51
0.0
 71
     0
 72
   100
 73
     1
 74
     3
 75
     0
 76
     0
 77
     0
 78
     0
  0
ENDTAB
  0
TABLE
  2
LTYPE
  5
5
330
0
100
AcDbSymbolTable
 70
     1
  0
LTYPE
  5
14
330
5
100
AcDbSymbolTableRecord
100
AcDbLinetypeTableRecord
  2
BYBLOCK
 70
     0
  3

 72
    65
 73
     0
 40
0.0
  0
LTYPE
  5
15
330
5
100
AcDbSymbolTableRecord
100
AcDbLinetypeTableRecord
  2
BYLAYER
 70
     0
  3

 72
    65
 73
     0
 40
0.0
  0
LTYPE
  5
16
330
5
100
AcDbSymbolTableRecord
100
AcDbLinetypeTableRecord
  2
CONTINUOUS
 70
     0
  3
Solid line
 72
    65
 73
     0
 40
0.0
  0
ENDTAB
  0
TABLE
  2
LAYER
  5
2
100
AcDbSymbolTable
 70
4
  0
LAYER
  5
50
100
AcDbSymbolTableRecord
100
AcDbLayerTableRecord
  2
0
 70
0
  6
CONTINUOUS
  0
LAYER
  5
51
100
AcDbSymbolTableRecord
100
AcDbLayerTableRecord
  2
Base_plate
 70
0
  6
CONTINUOUS
  0
LAYER
  5
52
100
AcDbSymbolTableRecord
100
AcDbLayerTableRecord
  2
Bumper_plates
 70
0
  6
CONTINUOUS
  0
LAYER
  5
53
100
AcDbSymbolTableRecord
100
AcDbLayerTableRecord
  2
wheels
 70
0
  6
CONTINUOUS
  0
ENDTAB
  0
TABLE
  2
STYLE
  5
3
330
0
100
AcDbSymbolTable
 70
     1
  0
STYLE
  5
11
330
3
100
AcDbSymbolTableRecord
100
AcDbTextStyleTableRecord
  2
STANDARD
 70
     0
 40
0.0
 41
1.0
 50
0.0
 71
     0
 42
2.5
  3
txt
  4

  0
ENDTAB
  0
TABLE
  2
VIEW
  5
6
330
0
100
AcDbSymbolTable
 70
     0
  0
ENDTAB
  0
TABLE
  2
UCS
  5
7
330
0
100
AcDbSymbolTable
 70
     0
  0
ENDTAB
  0
TABLE
  2
APPID
  5
9
330
0
100
AcDbSymbolTable
 70
     2
  0
APPID
  5
12
330
9
100
AcDbSymbolTableRecord
100
AcDbRegAppTableRecord
  2
ACAD
 70
     0
  0
ENDTAB
  0
TABLE
  2
DIMSTYLE
  5
A
330
0
100
AcDbSymbolTable
 70
     1
  0
DIMSTYLE
105
27
330
A
100
AcDbSymbolTableRecord
100
AcDbDimStyleTableRecord
  2
ISO-25
 70
     0
  3

  4

  5

  6

  7

 40
1.0
 41
2.5
 42
0.625
 43
3.75
 44
1.25
 45
0.0
 46
0.0
 47
0.0
 48
0.0
140
2.5
141
2.5
142
0.0
143
0.03937007874016
144
1.0
145
0.0
146
1.0
147
0.625
 71
     0
 72
     0
 73
     0
 74
     0
 75
     0
 76
     0
 77
     1
 78
     8
170
     0
171
     3
172
     1
173
     0
174
     0
175
     0
176
     0
177
     0
178
     0
270
     2
271
     2
272
     2
273
     2
274
     3
340
11
275
     0
280
     0
281
     0
282
     0
283
     0
284
     8
285
     0
286
     0
287
     3
288
     0
  0
ENDTAB
  0
TABLE
  2
BLOCK_RECORD
  5
1
330
0
100
AcDbSymbolTable
 70
     1
  0
BLOCK_RECORD
  5
1F
330
1
100
AcDbSymbolTableRecord
100
AcDbBlockTableRecord
  2
*MODEL_SPACE
  0
BLOCK_RECORD
  5
1B
330
1
100
AcDbSymbolTableRecord
100
AcDbBlockTableRecord
  2
*PAPER_SPACE
  0
ENDTAB
  0
ENDSEC
  0
SECTION
  2
BLOCKS
  0
BLOCK
  5
20
330
1F
100
AcDbEntity
  8
0
100
AcDbBlockBegin
  2
*MODEL_SPACE
 70
     0
 10
0.0
 20
0.0
 30
0.0
  3
*MODEL_SPACE
  1

  0
ENDBLK
  5
21
330
1F
100
AcDbEntity
  8
0
100
AcDbBlockEnd
  0
BLOCK
  5
1C
330
1B
100
AcDbEntity
 67
     1
  8
0
100
AcDbBlockBegin
  2
*PAPER_SPACE
  1

  0
ENDBLK
  5
1D
330
1B
100
AcDbEntity
 67
     1
  8
0
100
AcDbBlockEnd
  0
ENDSEC
  0
SECTION
  2
ENTITIES
  0
LINE
  5
100
100
AcDbEntity
  8
Base_plate
 62
7
100
AcDbLine
 10
45.017649
 20
179.964033
 30
0.0
 11
200.017633
 21
179.964033
 31
0.0
  0
LINE
  5
101
100
AcDbEntity
  8
Base_plate
 62
7
100
AcDbLine
 10
200.017633
 20
179.964033
 30
0.0
 11
200.017633
 21
174.981671
 31
0.0
  0
LINE
  5
102
100
AcDbEntity
  8
Base_plate
 62
7
100
AcDbLine
 10
200.017633
 20
174.981671
 30
0.0
 11
205.017651
 21
174.981671
 31
0.0
  0
LINE
  5
103
100
AcDbEntity
  8
Base_plate
 62
7
100
AcDbLine
 10
205.017651
 20
174.981671
 30
0.0
 11
205.017651
 21
159.981670
 31
0.0
  0
LINE
  5
104
100
AcDbEntity
  8
Base_plate
 62
7
100
AcDbLine
 10
205.017651
 20
159.981670
 30
0.0
 11
200.017633
 21
159.981670
 31
0.0
  0
LINE
  5
105
100
AcDbEntity
  8
Base_plate
 62
7
100
AcDbLine
 10
200.017633
 20
159.981670
 30
0.0
 11
200.017633
 21
132.481671
 31
0.0
  0
LINE
  5
106
100
AcDbEntity
  8
Base_plate
 62
7
100
AcDbLine
 10
200.017633
 20
132.481671
 30
0.0
 11
205.017651
 21
132.481671
 31
0.0
  0
LINE
  5
107
100
AcDbEntity
  8
Base_plate
 62
7
100
AcDbLine
 10
205.017651
 20
132.481671
 30
0.0
 11
205.017651
 21
117.481673
 31
0.0
  0
LINE
  5
108
100
AcDbEntity
  8
Base_plate
 62
7
100
AcDbLine
 10
205.017651
 20
117.481673
 30
0.0
 11
200.017633
 21
117.481673
 31
0.0
  0
LINE
  5
109
100
AcDbEntity
  8
Base_plate
 62
7
100
AcDbLine
 10
200.017633
 20
117.481673
 30
0.0
 11
200.017633
 21
89.981672
 31
0.0
  0
LINE
  5
10a
100
AcDbEntity
  8
Base_plate
 62
7
100
AcDbLine
 10
200.017633
 20
89.981672
 30
0.0
 11
205.017651
 21
89.981672
 31
0.0
  0
LINE
  5
10b
100
AcDbEntity
  8
Base_plate
 62
7
100
AcDbLine
 10
205.017651
 20
89.981672
 30
0.0
 11
205.017651
 21
74.981673
 31
0.0
  0
LINE
  5
10c
100
AcDbEntity
  8
Base_plate
 62
7
100
AcDbLine
 10
205.017651
 20
74.981673
 30
0.0
 11
200.017633
 21
74.981673
 31
0.0
  0
LINE
  5
10d
100
AcDbEntity
  8
Base_plate
 62
7
100
AcDbLine
 10
200.017633
 20
74.981673
 30
0.0
 11
200.017633
 21
69.959103
 31
0.0
  0
LINE
  5
10e
100
AcDbEntity
  8
Base_plate
 62
7
100
AcDbLine
 10
200.017633
 20
69.959103
 30
0.0
 11
45.017649
 21
69.959103
 31
0.0
  0
LINE
  5
10f
100
AcDbEntity
  8
Base_plate
 62
7
100
AcDbLine
 10
45.017649
 20
69.959103
 30
0.0
 11
45.017649
 21
179.964033
 31
0.0
  0
LINE
  5
110
100
AcDbEntity
  8
Base_plate
 62
7
100
AcDbLine
 10
49.816683
 20
127.479520
 30
0.0
 11
49.816683
 21
122.478895
 31
0.0
  0
LINE
  5
111
100
AcDbEntity
  8
Base_plate
 62
7
100
AcDbLine
 10
49.816683
 20
122.478895
 30
0.0
 11
54.799649
 21
122.478895
 31
0.0
  0
LINE
  5
112
100
AcDbEntity
  8
Base_plate
 62
7
100
AcDbLine
 10
54.799649
 20
122.478895
 30
0.0
 11
54.799649
 21
127.479520
 31
0.0
  0
LINE
  5
113
100
AcDbEntity
  8
Base_plate
 62
7
100
AcDbLine
 10
54.799649
 20
127.479520
 30
0.0
 11
49.816683
 21
127.479520
 31
0.0
  0
LINE
  5
114
100
AcDbEntity
  8
Base_plate
 62
7
100
AcDbLine
 10
54.834947
 20
174.945770
 30
0.0
 11
54.834947
 21
169.980422
 31
0.0
  0
LINE
  5
115
100
AcDbEntity
  8
Base_plate
 62
7
100
AcDbLine
 10
54.834947
 20
169.980422
 30
0.0
 11
59.800294
 21
169.980422
 31
0.0
  0
LINE
  5
116
100
AcDbEntity
  8
Base_plate
 62
7
100
AcDbLine
 10
59.800294
 20
169.980422
 30
0.0
 11
59.800294
 21
174.945770
 31
0.0
  0
LINE
  5
117
100
AcDbEntity
  8
Base_plate
 62
7
100
AcDbLine
 10
59.800294
 20
174.945770
 30
0.0
 11
54.834947
 21
174.945770
 31
0.0
  0
LINE
  5
118
100
AcDbEntity
  8
Base_plate
 62
7
100
AcDbLine
 10
54.834947
 20
161.945908
 30
0.0
 11
54.834665
 21
156.980561
 31
0.0
  0
LINE
  5
119
100
AcDbEntity
  8
Base_plate
 62
7
100
AcDbLine
 10
54.834665
 20
156.980561
 30
0.0
 11
59.800650
 21
156.980561
 31
0.0
  0
LINE
  5
11a
100
AcDbEntity
  8
Base_plate
 62
7
100
AcDbLine
 10
59.800650
 20
156.980561
 30
0.0
 11
59.800384
 21
161.945908
 31
0.0
  0
LINE
  5
11b
100
AcDbEntity
  8
Base_plate
 62
7
100
AcDbLine
 10
59.800384
 20
161.945908
 30
0.0
 11
54.834947
 21
161.945908
 31
0.0
  0
LINE
  5
11c
100
AcDbEntity
  8
Base_plate
 62
7
100
AcDbLine
 10
54.834947
 20
92.942575
 30
0.0
 11
54.834947
 21
87.977228
 31
0.0
  0
LINE
  5
11d
100
AcDbEntity
  8
Base_plate
 62
7
100
AcDbLine
 10
54.834947
 20
87.977228
 30
0.0
 11
59.800294
 21
87.977228
 31
0.0
  0
LINE
  5
11e
100
AcDbEntity
  8
Base_plate
 62
7
100
AcDbLine
 10
59.800294
 20
87.977228
 30
0.0
 11
59.800294
 21
92.942575
 31
0.0
  0
LINE
  5
11f
100
AcDbEntity
  8
Base_plate
 62
7
100
AcDbLine
 10
59.800294
 20
92.942575
 30
0.0
 11
54.834947
 21
92.942575
 31
0.0
  0
LINE
  5
120
100
AcDbEntity
  8
Base_plate
 62
7
100
AcDbLine
 10
54.834665
 20
79.942714
 30
0.0
 11
54.834665
 21
74.977367
 31
0.0
  0
LINE
  5
121
100
AcDbEntity
  8
Base_plate
 62
7
100
AcDbLine
 10
54.834665
 20
74.977367
 30
0.0
 11
59.800667
 21
74.977367
 31
0.0
  0
LINE
  5
122
100
AcDbEntity
  8
Base_plate
 62
7
100
AcDbLine
 10
59.800667
 20
74.977367
 30
0.0
 11
59.800667
 21
79.942714
 31
0.0
  0
LINE
  5
123
100
AcDbEntity
  8
Base_plate
 62
7
100
AcDbLine
 10
59.800667
 20
79.942714
 30
0.0
 11
54.834665
 21
79.942714
 31
0.0
  0
SPLINE
  5
124
100
AcDbEntity
  8
Base_plate
 62
7
100
AcDbSpline
 70
8
 71
3
 72
8
 73
4
 74
0
 40
0
 40
0
 40
0
 40
0
 40
1
 40
1
 40
1
 40
1
 10
64.121822
 20
164.715214
 30
0.0
 10
64.116770
 20
164.665385
 30
0.0
 10
64.121822
 20
164.616450
 30
0.0
 10
64.121822
 20
164.565283
 30
0.0
  0
SPLINE
  5
125
100
AcDbEntity
  8
Base_plate
 62
7
100
AcDbSpline
 70
8
 71
3
 72
8
 73
4
 74
0
 40
0
 40
0
 40
0
 40
0
 40
1
 40
1
 40
1
 40
1
 10
64.121822
 20
164.565283
 30
0.0
 10
64.121822
 20
163.746579
 30
0.0
 10
64.784779
 20
163.083617
 30
0.0
 10
65.603489
 20
163.083617
 30
0.0
  0
SPLINE
  5
126
100
AcDbEntity
  8
Base_plate
 62
7
100
AcDbSpline
 70
8
 71
3
 72
8
 73
4
 74
0
 40
0
 40
0
 40
0
 40
0
 40
1
 40
1
 40
1
 40
1
 10
65.603489
 20
163.083617
 30
0.0
 10
66.422193
 20
163.083617
 30
0.0
 10
67.085155
 20
163.746579
 30
0.0
 10
67.085155
 20
164.565283
 30
0.0
  0
SPLINE
  5
127
100
AcDbEntity
  8
Base_plate
 62
7
100
AcDbSpline
 70
8
 71
3
 72
8
 73
4
 74
0
 40
0
 40
0
 40
0
 40
0
 40
1
 40
1
 40
1
 40
1
 10
67.085155
 20
164.565283
 30
0.0
 10
67.085155
 20
165.383985
 30
0.0
 10
66.422193
 20
166.046950
 30
0.0
 10
65.603489
 20
166.046950
 30
0.0
  0
SPLINE
  5
128
100
AcDbEntity
  8
Base_plate
 62
7
100
AcDbSpline
 70
8
 71
3
 72
8
 73
4
 74
0
 40
0
 40
0
 40
0
 40
0
 40
1
 40
1
 40
1
 40
1
 10
65.603489
 20
166.046950
 30
0.0
 10
64.835954
 20
166.046950
 30
0.0
 10
64.197649
 20
165.462640
 30
0.0
 10
64.121822
 20
164.715214
 30
0.0
  0
LINE
  5
129
100
AcDbEntity
  8
Base_plate
 62
7
100
AcDbLine
 10
64.121822
 20
164.715214
 30
0.0
 11
64.121822
 21
164.715214
 31
0.0
  0
LINE
  5
12a
100
AcDbEntity
  8
Base_plate
 62
7
100
AcDbLine
 10
69.828002
 20
174.945770
 30
0.0
 11
69.828002
 21
169.980422
 31
0.0
  0
LINE
  5
12b
100
AcDbEntity
  8
Base_plate
 62
7
100
AcDbLine
 10
69.828002
 20
169.980422
 30
0.0
 11
74.793350
 21
169.980422
 31
0.0
  0
LINE
  5
12c
100
AcDbEntity
  8
Base_plate
 62
7
100
AcDbLine
 10
74.793350
 20
169.980422
 30
0.0
 11
74.793350
 21
174.945770
 31
0.0
  0
LINE
  5
12d
100
AcDbEntity
  8
Base_plate
 62
7
100
AcDbLine
 10
74.793350
 20
174.945770
 30
0.0
 11
69.828002
 21
174.945770
 31
0.0
  0
LINE
  5
12e
100
AcDbEntity
  8
Base_plate
 62
7
100
AcDbLine
 10
69.828002
 20
161.945908
 30
0.0
 11
69.828002
 21
156.980561
 31
0.0
  0
LINE
  5
12f
100
AcDbEntity
  8
Base_plate
 62
7
100
AcDbLine
 10
69.828002
 20
156.980561
 30
0.0
 11
74.793649
 21
156.980561
 31
0.0
  0
LINE
  5
130
100
AcDbEntity
  8
Base_plate
 62
7
100
AcDbLine
 10
74.793649
 20
156.980561
 30
0.0
 11
74.793367
 21
161.945908
 31
0.0
  0
LINE
  5
131
100
AcDbEntity
  8
Base_plate
 62
7
100
AcDbLine
 10
74.793367
 20
161.945908
 30
0.0
 11
69.828002
 21
161.945908
 31
0.0
  0
LINE
  5
132
100
AcDbEntity
  8
Base_plate
 62
7
100
AcDbLine
 10
69.827720
 20
92.942575
 30
0.0
 11
69.828002
 21
87.977228
 31
0.0
  0
LINE
  5
133
100
AcDbEntity
  8
Base_plate
 62
7
100
AcDbLine
 10
69.828002
 20
87.977228
 30
0.0
 11
74.793350
 21
87.977228
 31
0.0
  0
LINE
  5
134
100
AcDbEntity
  8
Base_plate
 62
7
100
AcDbLine
 10
74.793350
 20
87.977228
 30
0.0
 11
74.793350
 21
92.942575
 31
0.0
  0
LINE
  5
135
100
AcDbEntity
  8
Base_plate
 62
7
100
AcDbLine
 10
74.793350
 20
92.942575
 30
0.0
 11
69.827720
 21
92.942575
 31
0.0
  0
LINE
  5
136
100
AcDbEntity
  8
Base_plate
 62
7
100
AcDbLine
 10
69.827650
 20
79.942714
 30
0.0
 11
69.827650
 21
74.977367
 31
0.0
  0
LINE
  5
137
100
AcDbEntity
  8
Base_plate
 62
7
100
AcDbLine
 10
69.827650
 20
74.977367
 30
0.0
 11
74.793719
 21
74.977367
 31
0.0
  0
LINE
  5
138
100
AcDbEntity
  8
Base_plate
 62
7
100
AcDbLine
 10
74.793719
 20
74.977367
 30
0.0
 11
74.793719
 21
79.942714
 31
0.0
  0
LINE
  5
139
100
AcDbEntity
  8
Base_plate
 62
7
100
AcDbLine
 10
74.793719
 20
79.942714
 30
0.0
 11
69.827650
 21
79.942714
 31
0.0
  0
LINE
  5
13a
100
AcDbEntity
  8
Base_plate
 62
7
100
AcDbLine
 10
74.810989
 20
127.479520
 30
0.0
 11
74.810989
 21
122.478895
 31
0.0
  0
LINE
  5
13b
100
AcDbEntity
  8
Base_plate
 62
7
100
AcDbLine
 10
74.810989
 20
122.478895
 30
0.0
 11
79.811614
 21
122.478895
 31
0.0
  0
LINE
  5
13c
100
AcDbEntity
  8
Base_plate
 62
7
100
AcDbLine
 10
79.811614
 20
122.478895
 30
0.0
 11
79.811614
 21
127.479520
 31
0.0
  0
LINE
  5
13d
100
AcDbEntity
  8
Base_plate
 62
7
100
AcDbLine
 10
79.811614
 20
127.479520
 30
0.0
 11
74.810989
 21
127.479520
 31
0.0
  0
SPLINE
  5
13e
100
AcDbEntity
  8
Base_plate
 62
7
100
AcDbSpline
 70
8
 71
3
 72
8
 73
4
 74
0
 40
0
 40
0
 40
0
 40
0
 40
1
 40
1
 40
1
 40
1
 10
79.326544
 20
113.915214
 30
0.0
 10
79.321492
 20
113.865385
 30
0.0
 10
79.326544
 20
113.816453
 30
0.0
 10
79.326544
 20
113.765283
 30
0.0
  0
SPLINE
  5
13f
100
AcDbEntity
  8
Base_plate
 62
7
100
AcDbSpline
 70
8
 71
3
 72
8
 73
4
 74
0
 40
0
 40
0
 40
0
 40
0
 40
1
 40
1
 40
1
 40
1
 10
79.326544
 20
113.765283
 30
0.0
 10
79.326544
 20
112.946579
 30
0.0
 10
79.989501
 20
112.283617
 30
0.0
 10
80.808211
 20
112.283617
 30
0.0
  0
SPLINE
  5
140
100
AcDbEntity
  8
Base_plate
 62
7
100
AcDbSpline
 70
8
 71
3
 72
8
 73
4
 74
0
 40
0
 40
0
 40
0
 40
0
 40
1
 40
1
 40
1
 40
1
 10
80.808211
 20
112.283617
 30
0.0
 10
81.626915
 20
112.283617
 30
0.0
 10
82.289877
 20
112.946579
 30
0.0
 10
82.289877
 20
113.765283
 30
0.0
  0
SPLINE
  5
141
100
AcDbEntity
  8
Base_plate
 62
7
100
AcDbSpline
 70
8
 71
3
 72
8
 73
4
 74
0
 40
0
 40
0
 40
0
 40
0
 40
1
 40
1
 40
1
 40
1
 10
82.289877
 20
113.765283
 30
0.0
 10
82.289877
 20
114.583988
 30
0.0
 10
81.626915
 20
115.246950
 30
0.0
 10
80.808211
 20
115.246950
 30
0.0
  0
SPLINE
  5
142
100
AcDbEntity
  8
Base_plate
 62
7
100
AcDbSpline
 70
8
 71
3
 72
8
 73
4
 74
0
 40
0
 40
0
 40
0
 40
0
 40
1
 40
1
 40
1
 40
1
 10
80.808211
 20
115.246950
 30
0.0
 10
80.040676
 20
115.246950
 30
0.0
 10
79.402372
 20
114.662640
 30
0.0
 10
79.326544
 20
113.915214
 30
0.0
  0
LINE
  5
143
100
AcDbEntity
  8
Base_plate
 62
7
100
AcDbLine
 10
79.326544
 20
113.915214
 30
0.0
 11
79.326544
 21
113.915214
 31
0.0
  0
LINE
  5
144
100
AcDbEntity
  8
Base_plate
 62
7
100
AcDbLine
 10
84.829877
 20
174.945770
 30
0.0
 11
84.829877
 21
169.980422
 31
0.0
  0
LINE
  5
145
100
AcDbEntity
  8
Base_plate
 62
7
100
AcDbLine
 10
84.829877
 20
169.980422
 30
0.0
 11
89.795225
 21
169.980422
 31
0.0
  0
LINE
  5
146
100
AcDbEntity
  8
Base_plate
 62
7
100
AcDbLine
 10
89.795225
 20
169.980422
 30
0.0
 11
89.795225
 21
174.945770
 31
0.0
  0
LINE
  5
147
100
AcDbEntity
  8
Base_plate
 62
7
100
AcDbLine
 10
89.795225
 20
174.945770
 30
0.0
 11
84.829877
 21
174.945770
 31
0.0
  0
LINE
  5
148
100
AcDbEntity
  8
Base_plate
 62
7
100
AcDbLine
 10
84.829877
 20
161.945908
 30
0.0
 11
84.829649
 21
156.980561
 31
0.0
  0
LINE
  5
149
100
AcDbEntity
  8
Base_plate
 62
7
100
AcDbLine
 10
84.829649
 20
156.980561
 30
0.0
 11
89.795648
 21
156.980561
 31
0.0
  0
LINE
  5
14a
100
AcDbEntity
  8
Base_plate
 62
7
100
AcDbLine
 10
89.795648
 20
156.980561
 30
0.0
 11
89.795366
 21
161.945908
 31
0.0
  0
LINE
  5
14b
100
AcDbEntity
  8
Base_plate
 62
7
100
AcDbLine
 10
89.795366
 20
161.945908
 30
0.0
 11
84.829877
 21
161.945908
 31
0.0
  0
LINE
  5
14c
100
AcDbEntity
  8
Base_plate
 62
7
100
AcDbLine
 10
84.829877
 20
92.942575
 30
0.0
 11
84.829877
 21
87.977228
 31
0.0
  0
LINE
  5
14d
100
AcDbEntity
  8
Base_plate
 62
7
100
AcDbLine
 10
84.829877
 20
87.977228
 30
0.0
 11
89.795225
 21
87.977228
 31
0.0
  0
LINE
  5
14e
100
AcDbEntity
  8
Base_plate
 62
7
100
AcDbLine
 10
89.795225
 20
87.977228
 30
0.0
 11
89.795225
 21
92.942575
 31
0.0
  0
LINE
  5
14f
100
AcDbEntity
  8
Base_plate
 62
7
100
AcDbLine
 10
89.795225
 20
92.942575
 30
0.0
 11
84.829877
 21
92.942575
 31
0.0
  0
LINE
  5
150
100
AcDbEntity
  8
Base_plate
 62
7
100
AcDbLine
 10
84.829649
 20
79.942714
 30
0.0
 11
84.829649
 21
74.977367
 31
0.0
  0
LINE
  5
151
100
AcDbEntity
  8
Base_plate
 62
7
100
AcDbLine
 10
84.829649
 20
74.977367
 30
0.0
 11
89.795648
 21
74.977367
 31
0.0
  0
LINE
  5
152
100
AcDbEntity
  8
Base_plate
 62
7
100
AcDbLine
 10
89.795648
 20
74.977367
 30
0.0
 11
89.795648
 21
79.942714
 31
0.0
  0
LINE
  5
153
100
AcDbEntity
  8
Base_plate
 62
7
100
AcDbLine
 10
89.795648
 20
79.942714
 30
0.0
 11
84.829649
 21
79.942714
 31
0.0
  0
LINE
  5
154
100
AcDbEntity
  8
Base_plate
 62
7
100
AcDbLine
 10
99.814114
 20
127.479520
 30
0.0
 11
99.814114
 21
122.478895
 31
0.0
  0
LINE
  5
155
100
AcDbEntity
  8
Base_plate
 62
7
100
AcDbLine
 10
99.814114
 20
122.478895
 30
0.0
 11
104.814739
 21
122.478895
 31
0.0
  0
LINE
  5
156
100
AcDbEntity
  8
Base_plate
 62
7
100
AcDbLine
 10
104.814739
 20
122.478895
 30
0.0
 11
104.814739
 21
127.479520
 31
0.0
  0
LINE
  5
157
100
AcDbEntity
  8
Base_plate
 62
7
100
AcDbLine
 10
104.814739
 20
127.479520
 30
0.0
 11
99.814114
 21
127.479520
 31
0.0
  0
LINE
  5
158
100
AcDbEntity
  8
Base_plate
 62
7
100
AcDbLine
 10
99.831752
 20
174.945770
 30
0.0
 11
99.831752
 21
169.980422
 31
0.0
  0
LINE
  5
159
100
AcDbEntity
  8
Base_plate
 62
7
100
AcDbLine
 10
99.831752
 20
169.980422
 30
0.0
 11
104.797100
 21
169.980422
 31
0.0
  0
LINE
  5
15a
100
AcDbEntity
  8
Base_plate
 62
7
100
AcDbLine
 10
104.797100
 20
169.980422
 30
0.0
 11
104.797100
 21
174.945770
 31
0.0
  0
LINE
  5
15b
100
AcDbEntity
  8
Base_plate
 62
7
100
AcDbLine
 10
104.797100
 20
174.945770
 30
0.0
 11
99.831752
 21
174.945770
 31
0.0
  0
LINE
  5
15c
100
AcDbEntity
  8
Base_plate
 62
7
100
AcDbLine
 10
99.831752
 20
161.945908
 30
0.0
 11
99.831648
 21
156.980561
 31
0.0
  0
LINE
  5
15d
100
AcDbEntity
  8
Base_plate
 62
7
100
AcDbLine
 10
99.831648
 20
156.980561
 30
0.0
 11
104.797100
 21
156.980561
 31
0.0
  0
LINE
  5
15e
100
AcDbEntity
  8
Base_plate
 62
7
100
AcDbLine
 10
104.797100
 20
156.980561
 30
0.0
 11
104.796535
 21
161.945908
 31
0.0
  0
LINE
  5
15f
100
AcDbEntity
  8
Base_plate
 62
7
100
AcDbLine
 10
104.796535
 20
161.945908
 30
0.0
 11
99.831752
 21
161.945908
 31
0.0
  0
LINE
  5
160
100
AcDbEntity
  8
Base_plate
 62
7
100
AcDbLine
 10
99.831648
 20
92.942575
 30
0.0
 11
99.831648
 21
87.977228
 31
0.0
  0
LINE
  5
161
100
AcDbEntity
  8
Base_plate
 62
7
100
AcDbLine
 10
99.831648
 20
87.977228
 30
0.0
 11
104.797100
 21
87.977228
 31
0.0
  0
LINE
  5
162
100
AcDbEntity
  8
Base_plate
 62
7
100
AcDbLine
 10
104.797100
 20
87.977228
 30
0.0
 11
104.797100
 21
92.942575
 31
0.0
  0
LINE
  5
163
100
AcDbEntity
  8
Base_plate
 62
7
100
AcDbLine
 10
104.797100
 20
92.942575
 30
0.0
 11
99.831648
 21
92.942575
 31
0.0
  0
LINE
  5
164
100
AcDbEntity
  8
Base_plate
 62
7
100
AcDbLine
 10
99.831648
 20
79.942714
 30
0.0
 11
99.831648
 21
74.977367
 31
0.0
  0
LINE
  5
165
100
AcDbEntity
  8
Base_plate
 62
7
100
AcDbLine
 10
99.831648
 20
74.977367
 30
0.0
 11
104.796648
 21
74.977367
 31
0.0
  0
LINE
  5
166
100
AcDbEntity
  8
Base_plate
 62
7
100
AcDbLine
 10
104.796648
 20
74.977367
 30
0.0
 11
104.796648
 21
79.942714
 31
0.0
  0
LINE
  5
167
100
AcDbEntity
  8
Base_plate
 62
7
100
AcDbLine
 10
104.796648
 20
79.942714
 30
0.0
 11
99.831648
 21
79.942714
 31
0.0
  0
SPLINE
  5
168
100
AcDbEntity
  8
Base_plate
 62
7
100
AcDbSpline
 70
8
 71
3
 72
8
 73
4
 74
0
 40
0
 40
0
 40
0
 40
0
 40
1
 40
1
 40
1
 40
1
 10
107.222447
 20
113.915214
 30
0.0
 10
107.217395
 20
113.865385
 30
0.0
 10
107.222447
 20
113.816453
 30
0.0
 10
107.222447
 20
113.765283
 30
0.0
  0
SPLINE
  5
169
100
AcDbEntity
  8
Base_plate
 62
7
100
AcDbSpline
 70
8
 71
3
 72
8
 73
4
 74
0
 40
0
 40
0
 40
0
 40
0
 40
1
 40
1
 40
1
 40
1
 10
107.222447
 20
113.765283
 30
0.0
 10
107.222447
 20
112.946579
 30
0.0
 10
107.885404
 20
112.283617
 30
0.0
 10
108.704114
 20
112.283617
 30
0.0
  0
SPLINE
  5
16a
100
AcDbEntity
  8
Base_plate
 62
7
100
AcDbSpline
 70
8
 71
3
 72
8
 73
4
 74
0
 40
0
 40
0
 40
0
 40
0
 40
1
 40
1
 40
1
 40
1
 10
108.704114
 20
112.283617
 30
0.0
 10
109.522818
 20
112.283617
 30
0.0
 10
110.185780
 20
112.946579
 30
0.0
 10
110.185780
 20
113.765283
 30
0.0
  0
SPLINE
  5
16b
100
AcDbEntity
  8
Base_plate
 62
7
100
AcDbSpline
 70
8
 71
3
 72
8
 73
4
 74
0
 40
0
 40
0
 40
0
 40
0
 40
1
 40
1
 40
1
 40
1
 10
110.185780
 20
113.765283
 30
0.0
 10
110.185780
 20
114.583988
 30
0.0
 10
109.522818
 20
115.246950
 30
0.0
 10
108.704114
 20
115.246950
 30
0.0
  0
SPLINE
  5
16c
100
AcDbEntity
  8
Base_plate
 62
7
100
AcDbSpline
 70
8
 71
3
 72
8
 73
4
 74
0
 40
0
 40
0
 40
0
 40
0
 40
1
 40
1
 40
1
 40
1
 10
108.704114
 20
115.246950
 30
0.0
 10
107.936579
 20
115.246950
 30
0.0
 10
107.298274
 20
114.662640
 30
0.0
 10
107.222447
 20
113.915214
 30
0.0
  0
LINE
  5
16d
100
AcDbEntity
  8
Base_plate
 62
7
100
AcDbLine
 10
107.222447
 20
113.915214
 30
0.0
 11
107.222447
 21
113.915214
 31
0.0
  0
SPLINE
  5
16e
100
AcDbEntity
  8
Base_plate
 62
7
100
AcDbSpline
 70
8
 71
3
 72
8
 73
4
 74
0
 40
0
 40
0
 40
0
 40
0
 40
1
 40
1
 40
1
 40
1
 10
112.320086
 20
166.020492
 30
0.0
 10
112.314978
 20
165.970663
 30
0.0
 10
112.320086
 20
165.921728
 30
0.0
 10
112.320086
 20
165.870561
 30
0.0
  0
SPLINE
  5
16f
100
AcDbEntity
  8
Base_plate
 62
7
100
AcDbSpline
 70
8
 71
3
 72
8
 73
4
 74
0
 40
0
 40
0
 40
0
 40
0
 40
1
 40
1
 40
1
 40
1
 10
112.320086
 20
165.870561
 30
0.0
 10
112.320086
 20
165.051857
 30
0.0
 10
112.991862
 20
164.388895
 30
0.0
 10
113.810572
 20
164.388895
 30
0.0
  0
SPLINE
  5
170
100
AcDbEntity
  8
Base_plate
 62
7
100
AcDbSpline
 70
8
 71
3
 72
8
 73
4
 74
0
 40
0
 40
0
 40
0
 40
0
 40
1
 40
1
 40
1
 40
1
 10
113.810572
 20
164.388895
 30
0.0
 10
114.629276
 20
164.388895
 30
0.0
 10
115.292239
 20
165.051857
 30
0.0
 10
115.292239
 20
165.870561
 30
0.0
  0
SPLINE
  5
171
100
AcDbEntity
  8
Base_plate
 62
7
100
AcDbSpline
 70
8
 71
3
 72
8
 73
4
 74
0
 40
0
 40
0
 40
0
 40
0
 40
1
 40
1
 40
1
 40
1
 10
115.292239
 20
165.870561
 30
0.0
 10
115.292239
 20
166.689262
 30
0.0
 10
114.629276
 20
167.352228
 30
0.0
 10
113.810572
 20
167.352228
 30
0.0
  0
SPLINE
  5
172
100
AcDbEntity
  8
Base_plate
 62
7
100
AcDbSpline
 70
8
 71
3
 72
8
 73
4
 74
0
 40
0
 40
0
 40
0
 40
0
 40
1
 40
1
 40
1
 40
1
 10
113.810572
 20
167.352228
 30
0.0
 10
113.043038
 20
167.352228
 30
0.0
 10
112.396881
 20
166.767918
 30
0.0
 10
112.320086
 20
166.020492
 30
0.0
  0
LINE
  5
173
100
AcDbEntity
  8
Base_plate
 62
7
100
AcDbLine
 10
112.320086
 20
166.020492
 30
0.0
 11
112.320086
 21
166.020492
 31
0.0
  0
LINE
  5
174
100
AcDbEntity
  8
Base_plate
 62
7
100
AcDbLine
 10
114.833627
 20
174.945770
 30
0.0
 11
114.833627
 21
169.980422
 31
0.0
  0
LINE
  5
175
100
AcDbEntity
  8
Base_plate
 62
7
100
AcDbLine
 10
114.833627
 20
169.980422
 30
0.0
 11
119.798975
 21
169.980422
 31
0.0
  0
LINE
  5
176
100
AcDbEntity
  8
Base_plate
 62
7
100
AcDbLine
 10
119.798975
 20
169.980422
 30
0.0
 11
119.798975
 21
174.945770
 31
0.0
  0
LINE
  5
177
100
AcDbEntity
  8
Base_plate
 62
7
100
AcDbLine
 10
119.798975
 20
174.945770
 30
0.0
 11
114.833627
 21
174.945770
 31
0.0
  0
LINE
  5
178
100
AcDbEntity
  8
Base_plate
 62
7
100
AcDbLine
 10
114.833627
 20
161.945908
 30
0.0
 11
114.833627
 21
156.980561
 31
0.0
  0
LINE
  5
179
100
AcDbEntity
  8
Base_plate
 62
7
100
AcDbLine
 10
114.833627
 20
156.980561
 30
0.0
 11
119.798650
 21
156.980561
 31
0.0
  0
LINE
  5
17a
100
AcDbEntity
  8
Base_plate
 62
7
100
AcDbLine
 10
119.798650
 20
156.980561
 30
0.0
 11
119.798932
 21
161.945908
 31
0.0
  0
LINE
  5
17b
100
AcDbEntity
  8
Base_plate
 62
7
100
AcDbLine
 10
119.798932
 20
161.945908
 30
0.0
 11
114.833627
 21
161.945908
 31
0.0
  0
LINE
  5
17c
100
AcDbEntity
  8
Base_plate
 62
7
100
AcDbLine
 10
114.833650
 20
92.942575
 30
0.0
 11
114.833627
 21
87.977228
 31
0.0
  0
LINE
  5
17d
100
AcDbEntity
  8
Base_plate
 62
7
100
AcDbLine
 10
114.833627
 20
87.977228
 30
0.0
 11
119.798650
 21
87.977228
 31
0.0
  0
LINE
  5
17e
100
AcDbEntity
  8
Base_plate
 62
7
100
AcDbLine
 10
119.798650
 20
87.977228
 30
0.0
 11
119.798650
 21
92.942575
 31
0.0
  0
LINE
  5
17f
100
AcDbEntity
  8
Base_plate
 62
7
100
AcDbLine
 10
119.798650
 20
92.942575
 30
0.0
 11
114.833650
 21
92.942575
 31
0.0
  0
LINE
  5
180
100
AcDbEntity
  8
Base_plate
 62
7
100
AcDbLine
 10
114.833650
 20
79.942714
 30
0.0
 11
114.833650
 21
74.977367
 31
0.0
  0
LINE
  5
181
100
AcDbEntity
  8
Base_plate
 62
7
100
AcDbLine
 10
114.833650
 20
74.977367
 30
0.0
 11
119.798650
 21
74.977367
 31
0.0
  0
LINE
  5
182
100
AcDbEntity
  8
Base_plate
 62
7
100
AcDbLine
 10
119.798650
 20
74.977367
 30
0.0
 11
119.798650
 21
79.942714
 31
0.0
  0
LINE
  5
183
100
AcDbEntity
  8
Base_plate
 62
7
100
AcDbLine
 10
119.798650
 20
79.942714
 30
0.0
 11
114.833650
 21
79.942714
 31
0.0
  0
LINE
  5
184
100
AcDbEntity
  8
Base_plate
 62
7
100
AcDbLine
 10
129.835649
 20
127.479520
 30
0.0
 11
129.835649
 21
122.478895
 31
0.0
  0
LINE
  5
185
100
AcDbEntity
  8
Base_plate
 62
7
100
AcDbLine
 10
129.835649
 20
122.478895
 30
0.0
 11
134.800649
 21
122.478895
 31
0.0
  0
LINE
  5
186
100
AcDbEntity
  8
Base_plate
 62
7
100
AcDbLine
 10
134.800649
 20
122.478895
 30
0.0
 11
134.800649
 21
127.479520
 31
0.0
  0
LINE
  5
187
100
AcDbEntity
  8
Base_plate
 62
7
100
AcDbLine
 10
134.800649
 20
127.479520
 30
0.0
 11
129.835649
 21
127.479520
 31
0.0
  0
LINE
  5
188
100
AcDbEntity
  8
Base_plate
 62
7
100
AcDbLine
 10
129.835502
 20
174.945770
 30
0.0
 11
129.835502
 21
169.980422
 31
0.0
  0
LINE
  5
189
100
AcDbEntity
  8
Base_plate
 62
7
100
AcDbLine
 10
129.835502
 20
169.980422
 30
0.0
 11
134.800850
 21
169.980422
 31
0.0
  0
LINE
  5
18a
100
AcDbEntity
  8
Base_plate
 62
7
100
AcDbLine
 10
134.800850
 20
169.980422
 30
0.0
 11
134.800850
 21
174.945770
 31
0.0
  0
LINE
  5
18b
100
AcDbEntity
  8
Base_plate
 62
7
100
AcDbLine
 10
134.800850
 20
174.945770
 30
0.0
 11
129.835502
 21
174.945770
 31
0.0
  0
LINE
  5
18c
100
AcDbEntity
  8
Base_plate
 62
7
100
AcDbLine
 10
129.835502
 20
161.945908
 30
0.0
 11
129.835649
 21
156.980561
 31
0.0
  0
LINE
  5
18d
100
AcDbEntity
  8
Base_plate
 62
7
100
AcDbLine
 10
129.835649
 20
156.980561
 30
0.0
 11
134.800649
 21
156.980561
 31
0.0
  0
LINE
  5
18e
100
AcDbEntity
  8
Base_plate
 62
7
100
AcDbLine
 10
134.800649
 20
156.980561
 30
0.0
 11
134.800649
 21
161.945908
 31
0.0
  0
LINE
  5
18f
100
AcDbEntity
  8
Base_plate
 62
7
100
AcDbLine
 10
134.800649
 20
161.945908
 30
0.0
 11
129.835502
 21
161.945908
 31
0.0
  0
LINE
  5
190
100
AcDbEntity
  8
Base_plate
 62
7
100
AcDbLine
 10
129.835649
 20
92.942575
 30
0.0
 11
129.835649
 21
87.977228
 31
0.0
  0
LINE
  5
191
100
AcDbEntity
  8
Base_plate
 62
7
100
AcDbLine
 10
129.835649
 20
87.977228
 30
0.0
 11
134.800649
 21
87.977228
 31
0.0
  0
LINE
  5
192
100
AcDbEntity
  8
Base_plate
 62
7
100
AcDbLine
 10
134.800649
 20
87.977228
 30
0.0
 11
134.800649
 21
92.942575
 31
0.0
  0
LINE
  5
193
100
AcDbEntity
  8
Base_plate
 62
7
100
AcDbLine
 10
134.800649
 20
92.942575
 30
0.0
 11
129.835649
 21
92.942575
 31
0.0
  0
LINE
  5
194
100
AcDbEntity
  8
Base_plate
 62
7
100
AcDbLine
 10
129.835649
 20
79.942714
 30
0.0
 11
129.835649
 21
74.977367
 31
0.0
  0
LINE
  5
195
100
AcDbEntity
  8
Base_plate
 62
7
100
AcDbLine
 10
129.835649
 20
74.977367
 30
0.0
 11
134.800649
 21
74.977367
 31
0.0
  0
LINE
  5
196
100
AcDbEntity
  8
Base_plate
 62
7
100
AcDbLine
 10
134.800649
 20
74.977367
 30
0.0
 11
134.800649
 21
79.942714
 31
0.0
  0
LINE
  5
197
100
AcDbEntity
  8
Base_plate
 62
7
100
AcDbLine
 10
134.800649
 20
79.942714
 30
0.0
 11
129.835649
 21
79.942714
 31
0.0
  0
LINE
  5
198
100
AcDbEntity
  8
Base_plate
 62
7
100
AcDbLine
 10
144.828558
 20
174.945770
 30
0.0
 11
144.828558
 21
169.980422
 31
0.0
  0
LINE
  5
199
100
AcDbEntity
  8
Base_plate
 62
7
100
AcDbLine
 10
144.828558
 20
169.980422
 30
0.0
 11
149.793905
 21
169.980422
 31
0.0
  0
LINE
  5
19a
100
AcDbEntity
  8
Base_plate
 62
7
100
AcDbLine
 10
149.793905
 20
169.980422
 30
0.0
 11
149.793905
 21
174.945770
 31
0.0
  0
LINE
  5
19b
100
AcDbEntity
  8
Base_plate
 62
7
100
AcDbLine
 10
149.793905
 20
174.945770
 30
0.0
 11
144.828558
 21
174.945770
 31
0.0
  0
LINE
  5
19c
100
AcDbEntity
  8
Base_plate
 62
7
100
AcDbLine
 10
144.828558
 20
161.945908
 30
0.0
 11
144.828558
 21
156.980561
 31
0.0
  0
LINE
  5
19d
100
AcDbEntity
  8
Base_plate
 62
7
100
AcDbLine
 10
144.828558
 20
156.980561
 30
0.0
 11
149.793905
 21
156.980561
 31
0.0
  0
LINE
  5
19e
100
AcDbEntity
  8
Base_plate
 62
7
100
AcDbLine
 10
149.793905
 20
156.980561
 30
0.0
 11
149.793905
 21
161.945908
 31
0.0
  0
LINE
  5
19f
100
AcDbEntity
  8
Base_plate
 62
7
100
AcDbLine
 10
149.793905
 20
161.945908
 30
0.0
 11
144.828558
 21
161.945908
 31
0.0
  0
LINE
  5
1a0
100
AcDbEntity
  8
Base_plate
 62
7
100
AcDbLine
 10
144.828558
 20
92.942575
 30
0.0
 11
144.828648
 21
87.977228
 31
0.0
  0
LINE
  5
1a1
100
AcDbEntity
  8
Base_plate
 62
7
100
AcDbLine
 10
144.828648
 20
87.977228
 30
0.0
 11
149.793648
 21
87.977228
 31
0.0
  0
LINE
  5
1a2
100
AcDbEntity
  8
Base_plate
 62
7
100
AcDbLine
 10
149.793648
 20
87.977228
 30
0.0
 11
149.793648
 21
92.942575
 31
0.0
  0
LINE
  5
1a3
100
AcDbEntity
  8
Base_plate
 62
7
100
AcDbLine
 10
149.793648
 20
92.942575
 30
0.0
 11
144.828558
 21
92.942575
 31
0.0
  0
LINE
  5
1a4
100
AcDbEntity
  8
Base_plate
 62
7
100
AcDbLine
 10
144.828648
 20
79.942714
 30
0.0
 11
144.828648
 21
74.977367
 31
0.0
  0
LINE
  5
1a5
100
AcDbEntity
  8
Base_plate
 62
7
100
AcDbLine
 10
144.828648
 20
74.977367
 30
0.0
 11
149.793648
 21
74.977367
 31
0.0
  0
LINE
  5
1a6
100
AcDbEntity
  8
Base_plate
 62
7
100
AcDbLine
 10
149.793648
 20
74.977367
 30
0.0
 11
149.793648
 21
79.942714
 31
0.0
  0
LINE
  5
1a7
100
AcDbEntity
  8
Base_plate
 62
7
100
AcDbLine
 10
149.793648
 20
79.942714
 30
0.0
 11
144.828648
 21
79.942714
 31
0.0
  0
LINE
  5
1a8
100
AcDbEntity
  8
Base_plate
 62
7
100
AcDbLine
 10
157.517650
 20
127.479520
 30
0.0
 11
157.517650
 21
122.478895
 31
0.0
  0
LINE
  5
1a9
100
AcDbEntity
  8
Base_plate
 62
7
100
AcDbLine
 10
157.517650
 20
122.478895
 30
0.0
 11
162.517646
 21
122.478895
 31
0.0
  0
LINE
  5
1aa
100
AcDbEntity
  8
Base_plate
 62
7
100
AcDbLine
 10
162.517646
 20
122.478895
 30
0.0
 11
162.517646
 21
127.479520
 31
0.0
  0
LINE
  5
1ab
100
AcDbEntity
  8
Base_plate
 62
7
100
AcDbLine
 10
162.517646
 20
127.479520
 30
0.0
 11
157.517650
 21
127.479520
 31
0.0
  0
LINE
  5
1ac
100
AcDbEntity
  8
Base_plate
 62
7
100
AcDbLine
 10
159.830433
 20
174.945770
 30
0.0
 11
159.830433
 21
169.980422
 31
0.0
  0
LINE
  5
1ad
100
AcDbEntity
  8
Base_plate
 62
7
100
AcDbLine
 10
159.830433
 20
169.980422
 30
0.0
 11
164.795777
 21
169.980422
 31
0.0
  0
LINE
  5
1ae
100
AcDbEntity
  8
Base_plate
 62
7
100
AcDbLine
 10
164.795777
 20
169.980422
 30
0.0
 11
164.795777
 21
174.945770
 31
0.0
  0
LINE
  5
1af
100
AcDbEntity
  8
Base_plate
 62
7
100
AcDbLine
 10
164.795777
 20
174.945770
 30
0.0
 11
159.830433
 21
174.945770
 31
0.0
  0
LINE
  5
1b0
100
AcDbEntity
  8
Base_plate
 62
7
100
AcDbLine
 10
159.830433
 20
161.945908
 30
0.0
 11
159.830433
 21
156.980561
 31
0.0
  0
LINE
  5
1b1
100
AcDbEntity
  8
Base_plate
 62
7
100
AcDbLine
 10
159.830433
 20
156.980561
 30
0.0
 11
164.795777
 21
156.980561
 31
0.0
  0
LINE
  5
1b2
100
AcDbEntity
  8
Base_plate
 62
7
100
AcDbLine
 10
164.795777
 20
156.980561
 30
0.0
 11
164.795777
 21
161.945908
 31
0.0
  0
LINE
  5
1b3
100
AcDbEntity
  8
Base_plate
 62
7
100
AcDbLine
 10
164.795777
 20
161.945908
 30
0.0
 11
159.830433
 21
161.945908
 31
0.0
  0
LINE
  5
1b4
100
AcDbEntity
  8
Base_plate
 62
7
100
AcDbLine
 10
159.830433
 20
92.942575
 30
0.0
 11
159.830433
 21
87.977228
 31
0.0
  0
LINE
  5
1b5
100
AcDbEntity
  8
Base_plate
 62
7
100
AcDbLine
 10
159.830433
 20
87.977228
 30
0.0
 11
164.795777
 21
87.977228
 31
0.0
  0
LINE
  5
1b6
100
AcDbEntity
  8
Base_plate
 62
7
100
AcDbLine
 10
164.795777
 20
87.977228
 30
0.0
 11
164.795777
 21
92.942575
 31
0.0
  0
LINE
  5
1b7
100
AcDbEntity
  8
Base_plate
 62
7
100
AcDbLine
 10
164.795777
 20
92.942575
 30
0.0
 11
159.830433
 21
92.942575
 31
0.0
  0
LINE
  5
1b8
100
AcDbEntity
  8
Base_plate
 62
7
100
AcDbLine
 10
159.830433
 20
79.942714
 30
0.0
 11
159.830433
 21
74.977367
 31
0.0
  0
LINE
  5
1b9
100
AcDbEntity
  8
Base_plate
 62
7
100
AcDbLine
 10
159.830433
 20
74.977367
 30
0.0
 11
164.795777
 21
74.977367
 31
0.0
  0
LINE
  5
1ba
100
AcDbEntity
  8
Base_plate
 62
7
100
AcDbLine
 10
164.795777
 20
74.977367
 30
0.0
 11
164.795777
 21
79.942714
 31
0.0
  0
LINE
  5
1bb
100
AcDbEntity
  8
Base_plate
 62
7
100
AcDbLine
 10
164.795777
 20
79.942714
 30
0.0
 11
159.830433
 21
79.942714
 31
0.0
  0
LINE
  5
1bc
100
AcDbEntity
  8
Base_plate
 62
7
100
AcDbLine
 10
185.017646
 20
127.479520
 30
0.0
 11
185.017646
 21
122.478895
 31
0.0
  0
LINE
  5
1bd
100
AcDbEntity
  8
Base_plate
 62
7
100
AcDbLine
 10
185.017646
 20
122.478895
 30
0.0
 11
190.017647
 21
122.478895
 31
0.0
  0
LINE
  5
1be
100
AcDbEntity
  8
Base_plate
 62
7
100
AcDbLine
 10
190.017647
 20
122.478895
 30
0.0
 11
190.017647
 21
127.479520
 31
0.0
  0
LINE
  5
1bf
100
AcDbEntity
  8
Base_plate
 62
7
100
AcDbLine
 10
190.017647
 20
127.479520
 30
0.0
 11
185.017646
 21
127.479520
 31
0.0
  0
LINE
  5
1c0
100
AcDbEntity
  8
Base_plate
 62
7
100
AcDbLine
 10
174.832305
 20
174.963408
 30
0.0
 11
174.832305
 21
169.998061
 31
0.0
  0
LINE
  5
1c1
100
AcDbEntity
  8
Base_plate
 62
7
100
AcDbLine
 10
174.832305
 20
169.998061
 30
0.0
 11
179.797652
 21
169.998061
 31
0.0
  0
LINE
  5
1c2
100
AcDbEntity
  8
Base_plate
 62
7
100
AcDbLine
 10
179.797652
 20
169.998061
 30
0.0
 11
179.797652
 21
174.963408
 31
0.0
  0
LINE
  5
1c3
100
AcDbEntity
  8
Base_plate
 62
7
100
AcDbLine
 10
179.797652
 20
174.963408
 30
0.0
 11
174.832305
 21
174.963408
 31
0.0
  0
LINE
  5
1c4
100
AcDbEntity
  8
Base_plate
 62
7
100
AcDbLine
 10
174.832305
 20
161.963547
 30
0.0
 11
174.832305
 21
156.998200
 31
0.0
  0
LINE
  5
1c5
100
AcDbEntity
  8
Base_plate
 62
7
100
AcDbLine
 10
174.832305
 20
156.998200
 30
0.0
 11
179.797652
 21
156.998200
 31
0.0
  0
LINE
  5
1c6
100
AcDbEntity
  8
Base_plate
 62
7
100
AcDbLine
 10
179.797652
 20
156.998200
 30
0.0
 11
179.797652
 21
161.963547
 31
0.0
  0
LINE
  5
1c7
100
AcDbEntity
  8
Base_plate
 62
7
100
AcDbLine
 10
179.797652
 20
161.963547
 30
0.0
 11
174.832305
 21
161.963547
 31
0.0
  0
LINE
  5
1c8
100
AcDbEntity
  8
Base_plate
 62
7
100
AcDbLine
 10
174.832305
 20
92.960214
 30
0.0
 11
174.832305
 21
87.994867
 31
0.0
  0
LINE
  5
1c9
100
AcDbEntity
  8
Base_plate
 62
7
100
AcDbLine
 10
174.832305
 20
87.994867
 30
0.0
 11
179.797652
 21
87.994867
 31
0.0
  0
LINE
  5
1ca
100
AcDbEntity
  8
Base_plate
 62
7
100
AcDbLine
 10
179.797652
 20
87.994867
 30
0.0
 11
179.797652
 21
92.960214
 31
0.0
  0
LINE
  5
1cb
100
AcDbEntity
  8
Base_plate
 62
7
100
AcDbLine
 10
179.797652
 20
92.960214
 30
0.0
 11
174.832305
 21
92.960214
 31
0.0
  0
LINE
  5
1cc
100
AcDbEntity
  8
Base_plate
 62
7
100
AcDbLine
 10
174.832305
 20
79.960353
 30
0.0
 11
174.832305
 21
74.995006
 31
0.0
  0
LINE
  5
1cd
100
AcDbEntity
  8
Base_plate
 62
7
100
AcDbLine
 10
174.832305
 20
74.995006
 30
0.0
 11
179.797652
 21
74.995006
 31
0.0
  0
LINE
  5
1ce
100
AcDbEntity
  8
Base_plate
 62
7
100
AcDbLine
 10
179.797652
 20
74.995006
 30
0.0
 11
179.797652
 21
79.960353
 31
0.0
  0
LINE
  5
1cf
100
AcDbEntity
  8
Base_plate
 62
7
100
AcDbLine
 10
179.797652
 20
79.960353
 30
0.0
 11
174.832305
 21
79.960353
 31
0.0
  0
LINE
  5
1d0
100
AcDbEntity
  8
Bumper_plates
 62
7
100
AcDbLine
 10
0.017639
 20
179.981671
 30
0.0
 11
40.000007
 21
179.981671
 31
0.0
  0
LINE
  5
1d1
100
AcDbEntity
  8
Bumper_plates
 62
7
100
AcDbLine
 10
40.000007
 20
179.981671
 30
0.0
 11
40.000007
 21
69.985560
 31
0.0
  0
LINE
  5
1d2
100
AcDbEntity
  8
Bumper_plates
 62
7
100
AcDbLine
 10
40.000007
 20
69.985560
 30
0.0
 11
0.017639
 21
69.985560
 31
0.0
  0
LINE
  5
1d3
100
AcDbEntity
  8
Bumper_plates
 62
7
100
AcDbLine
 10
0.017639
 20
69.985560
 30
0.0
 11
0.017639
 21
179.981671
 31
0.0
  0
LINE
  5
1d4
100
AcDbEntity
  8
Bumper_plates
 62
7
100
AcDbLine
 10
8.017454
 20
174.972853
 30
0.0
 11
8.017736
 21
74.981672
 31
0.0
  0
LINE
  5
1d5
100
AcDbEntity
  8
Bumper_plates
 62
7
100
AcDbLine
 10
8.017736
 20
74.981672
 30
0.0
 11
11.017735
 21
74.981672
 31
0.0
  0
LINE
  5
1d6
100
AcDbEntity
  8
Bumper_plates
 62
7
100
AcDbLine
 10
11.017735
 20
74.981672
 30
0.0
 11
11.017453
 21
174.972853
 31
0.0
  0
LINE
  5
1d7
100
AcDbEntity
  8
Bumper_plates
 62
7
100
AcDbLine
 10
11.017453
 20
174.972853
 30
0.0
 11
8.017454
 21
174.972853
 31
0.0
  0
LINE
  5
1d8
100
AcDbEntity
  8
Bumper_plates
 62
7
100
AcDbLine
 10
16.017641
 20
174.981658
 30
0.0
 11
16.017641
 21
74.977351
 31
0.0
  0
LINE
  5
1d9
100
AcDbEntity
  8
Bumper_plates
 62
7
100
AcDbLine
 10
16.017641
 20
74.977351
 30
0.0
 11
19.017640
 21
74.977351
 31
0.0
  0
LINE
  5
1da
100
AcDbEntity
  8
Bumper_plates
 62
7
100
AcDbLine
 10
19.017640
 20
74.977351
 30
0.0
 11
19.017640
 21
174.981658
 31
0.0
  0
LINE
  5
1db
100
AcDbEntity
  8
Bumper_plates
 62
7
100
AcDbLine
 10
19.017640
 20
174.981658
 30
0.0
 11
16.017641
 21
174.981658
 31
0.0
  0
LINE
  5
1dc
100
AcDbEntity
  8
Bumper_plates
 62
7
100
AcDbLine
 10
24.017639
 20
174.972853
 30
0.0
 11
24.017639
 21
74.981672
 31
0.0
  0
LINE
  5
1dd
100
AcDbEntity
  8
Bumper_plates
 62
7
100
AcDbLine
 10
24.017639
 20
74.981672
 30
0.0
 11
27.017641
 21
74.981672
 31
0.0
  0
LINE
  5
1de
100
AcDbEntity
  8
Bumper_plates
 62
7
100
AcDbLine
 10
27.017641
 20
74.981672
 30
0.0
 11
27.017641
 21
174.972853
 31
0.0
  0
LINE
  5
1df
100
AcDbEntity
  8
Bumper_plates
 62
7
100
AcDbLine
 10
27.017641
 20
174.972853
 30
0.0
 11
24.017639
 21
174.972853
 31
0.0
  0
LINE
  5
1e0
100
AcDbEntity
  8
Bumper_plates
 62
7
100
AcDbLine
 10
34.017647
 20
174.990492
 30
0.0
 11
34.017647
 21
159.981671
 31
0.0
  0
LINE
  5
1e1
100
AcDbEntity
  8
Bumper_plates
 62
7
100
AcDbLine
 10
34.017647
 20
159.981671
 30
0.0
 11
37.001396
 21
159.981671
 31
0.0
  0
LINE
  5
1e2
100
AcDbEntity
  8
Bumper_plates
 62
7
100
AcDbLine
 10
37.001396
 20
159.981671
 30
0.0
 11
37.001396
 21
174.990492
 31
0.0
  0
LINE
  5
1e3
100
AcDbEntity
  8
Bumper_plates
 62
7
100
AcDbLine
 10
37.001396
 20
174.990492
 30
0.0
 11
34.017647
 21
174.990492
 31
0.0
  0
LINE
  5
1e4
100
AcDbEntity
  8
Bumper_plates
 62
7
100
AcDbLine
 10
34.017647
 20
132.462504
 30
0.0
 11
34.017647
 21
117.548824
 31
0.0
  0
LINE
  5
1e5
100
AcDbEntity
  8
Bumper_plates
 62
7
100
AcDbLine
 10
34.017647
 20
117.548824
 30
0.0
 11
37.001396
 21
117.548824
 31
0.0
  0
LINE
  5
1e6
100
AcDbEntity
  8
Bumper_plates
 62
7
100
AcDbLine
 10
37.001396
 20
117.548824
 30
0.0
 11
37.001396
 21
132.462504
 31
0.0
  0
LINE
  5
1e7
100
AcDbEntity
  8
Bumper_plates
 62
7
100
AcDbLine
 10
37.001396
 20
132.462504
 30
0.0
 11
34.017647
 21
132.462504
 31
0.0
  0
LINE
  5
1e8
100
AcDbEntity
  8
Bumper_plates
 62
7
100
AcDbLine
 10
34.017647
 20
89.961601
 30
0.0
 11
34.017647
 21
75.047921
 31
0.0
  0
LINE
  5
1e9
100
AcDbEntity
  8
Bumper_plates
 62
7
100
AcDbLine
 10
34.017647
 20
75.047921
 30
0.0
 11
37.001396
 21
75.047921
 31
0.0
  0
LINE
  5
1ea
100
AcDbEntity
  8
Bumper_plates
 62
7
100
AcDbLine
 10
37.001396
 20
75.047921
 30
0.0
 11
37.001396
 21
89.961601
 31
0.0
  0
LINE
  5
1eb
100
AcDbEntity
  8
Bumper_plates
 62
7
100
AcDbLine
 10
37.001396
 20
89.961601
 30
0.0
 11
34.017647
 21
89.961601
 31
0.0
  0
SPLINE
  5
1ec
100
AcDbEntity
  8
wheels
 62
7
100
AcDbSpline
 70
8
 71
3
 72
8
 73
4
 74
0
 40
0
 40
0
 40
0
 40
0
 40
1
 40
1
 40
1
 40
1
 10
140.062438
 20
31.547156
 30
0.0
 10
139.807334
 20
40.320382
 30
0.0
 10
143.114443
 20
48.823254
 30
0.0
 10
149.230306
 20
55.118555
 30
0.0
  0
SPLINE
  5
1ed
100
AcDbEntity
  8
wheels
 62
7
100
AcDbSpline
 70
8
 71
3
 72
8
 73
4
 74
0
 40
0
 40
0
 40
0
 40
0
 40
1
 40
1
 40
1
 40
1
 10
149.230306
 20
55.118555
 30
0.0
 10
155.346168
 20
61.413856
 30
0.0
 10
163.749878
 20
64.965398
 30
0.0
 10
172.526813
 20
64.964029
 30
0.0
  0
SPLINE
  5
1ee
100
AcDbEntity
  8
wheels
 62
7
100
AcDbSpline
 70
8
 71
3
 72
8
 73
4
 74
0
 40
0
 40
0
 40
0
 40
0
 40
1
 40
1
 40
1
 40
1
 10
172.526813
 20
64.964029
 30
0.0
 10
184.128368
 20
64.964029
 30
0.0
 10
194.848647
 20
58.774673
 30
0.0
 10
200.649425
 20
48.727432
 30
0.0
  0
SPLINE
  5
1ef
100
AcDbEntity
  8
wheels
 62
7
100
AcDbSpline
 70
8
 71
3
 72
8
 73
4
 74
0
 40
0
 40
0
 40
0
 40
0
 40
1
 40
1
 40
1
 40
1
 10
200.649425
 20
48.727432
 30
0.0
 10
206.450202
 20
38.680191
 30
0.0
 10
206.450202
 20
26.301479
 30
0.0
 10
200.649425
 20
16.254238
 30
0.0
  0
SPLINE
  5
1f0
100
AcDbEntity
  8
wheels
 62
7
100
AcDbSpline
 70
8
 71
3
 72
8
 73
4
 74
0
 40
0
 40
0
 40
0
 40
0
 40
1
 40
1
 40
1
 40
1
 10
200.649425
 20
16.254238
 30
0.0
 10
194.848647
 20
6.206996
 30
0.0
 10
184.128368
 20
0.017640
 30
0.0
 10
172.526813
 20
0.017640
 30
0.0
  0
SPLINE
  5
1f1
100
AcDbEntity
  8
wheels
 62
7
100
AcDbSpline
 70
8
 71
3
 72
8
 73
4
 74
0
 40
0
 40
0
 40
0
 40
0
 40
1
 40
1
 40
1
 40
1
 10
172.526813
 20
0.017640
 30
0.0
 10
154.957911
 20
0.014909
 30
0.0
 10
140.572912
 20
13.985671
 30
0.0
 10
140.062438
 20
31.547156
 30
0.0
  0
LINE
  5
1f2
100
AcDbEntity
  8
wheels
 62
7
100
AcDbLine
 10
140.062438
 20
31.547156
 30
0.0
 11
140.062438
 21
31.547156
 31
0.0
  0
SPLINE
  5
1f3
100
AcDbEntity
  8
wheels
 62
7
100
AcDbSpline
 70
8
 71
3
 72
8
 73
4
 74
0
 40
0
 40
0
 40
0
 40
0
 40
1
 40
1
 40
1
 40
1
 10
160.788133
 20
42.615558
 30
0.0
 10
160.753863
 20
42.133784
 30
0.0
 10
160.921664
 20
41.659483
 30
0.0
 10
161.251278
 20
41.306445
 30
0.0
  0
SPLINE
  5
1f4
100
AcDbEntity
  8
wheels
 62
7
100
AcDbSpline
 70
8
 71
3
 72
8
 73
4
 74
0
 40
0
 40
0
 40
0
 40
0
 40
1
 40
1
 40
1
 40
1
 10
161.251278
 20
41.306445
 30
0.0
 10
161.580892
 20
40.953407
 30
0.0
 10
162.042575
 20
40.753490
 30
0.0
 10
162.525566
 20
40.754656
 30
0.0
  0
SPLINE
  5
1f5
100
AcDbEntity
  8
wheels
 62
7
100
AcDbSpline
 70
8
 71
3
 72
8
 73
4
 74
0
 40
0
 40
0
 40
0
 40
0
 40
1
 40
1
 40
1
 40
1
 10
162.525566
 20
40.754656
 30
0.0
 10
163.475151
 20
40.768633
 30
0.0
 10
164.237610
 20
41.542398
 30
0.0
 10
164.237610
 20
42.492086
 30
0.0
  0
SPLINE
  5
1f6
100
AcDbEntity
  8
wheels
 62
7
100
AcDbSpline
 70
8
 71
3
 72
8
 73
4
 74
0
 40
0
 40
0
 40
0
 40
0
 40
1
 40
1
 40
1
 40
1
 10
164.237610
 20
42.492086
 30
0.0
 10
164.237610
 20
43.441774
 30
0.0
 10
163.475151
 20
44.215539
 30
0.0
 10
162.525566
 20
44.229517
 30
0.0
  0
SPLINE
  5
1f7
100
AcDbEntity
  8
wheels
 62
7
100
AcDbSpline
 70
8
 71
3
 72
8
 73
4
 74
0
 40
0
 40
0
 40
0
 40
0
 40
1
 40
1
 40
1
 40
1
 10
162.525566
 20
44.229517
 30
0.0
 10
161.612266
 20
44.231735
 30
0.0
 10
160.853127
 20
43.526546
 30
0.0
 10
160.788133
 20
42.615558
 30
0.0
  0
LINE
  5
1f8
100
AcDbEntity
  8
wheels
 62
7
100
AcDbLine
 10
160.788133
 20
42.615558
 30
0.0
 11
160.788133
 21
42.615558
 31
0.0
  0
SPLINE
  5
1f9
100
AcDbEntity
  8
wheels
 62
7
100
AcDbSpline
 70
8
 71
3
 72
8
 73
4
 74
0
 40
0
 40
0
 40
0
 40
0
 40
1
 40
1
 40
1
 40
1
 10
160.788133
 20
22.621875
 30
0.0
 10
160.753864
 20
22.140101
 30
0.0
 10
160.921665
 20
21.665801
 30
0.0
 10
161.251279
 20
21.312763
 30
0.0
  0
SPLINE
  5
1fa
100
AcDbEntity
  8
wheels
 62
7
100
AcDbSpline
 70
8
 71
3
 72
8
 73
4
 74
0
 40
0
 40
0
 40
0
 40
0
 40
1
 40
1
 40
1
 40
1
 10
161.251279
 20
21.312763
 30
0.0
 10
161.580893
 20
20.959726
 30
0.0
 10
162.042576
 20
20.759809
 30
0.0
 10
162.525566
 20
20.760975
 30
0.0
  0
SPLINE
  5
1fb
100
AcDbEntity
  8
wheels
 62
7
100
AcDbSpline
 70
8
 71
3
 72
8
 73
4
 74
0
 40
0
 40
0
 40
0
 40
0
 40
1
 40
1
 40
1
 40
1
 10
162.525566
 20
20.760975
 30
0.0
 10
163.475140
 20
20.774967
 30
0.0
 10
164.237584
 20
21.548728
 30
0.0
 10
164.237584
 20
22.498406
 30
0.0
  0
SPLINE
  5
1fc
100
AcDbEntity
  8
wheels
 62
7
100
AcDbSpline
 70
8
 71
3
 72
8
 73
4
 74
0
 40
0
 40
0
 40
0
 40
0
 40
1
 40
1
 40
1
 40
1
 10
164.237584
 20
22.498406
 30
0.0
 10
164.237584
 20
23.448083
 30
0.0
 10
163.475140
 20
24.221844
 30
0.0
 10
162.525566
 20
24.235836
 30
0.0
  0
SPLINE
  5
1fd
100
AcDbEntity
  8
wheels
 62
7
100
AcDbSpline
 70
8
 71
3
 72
8
 73
4
 74
0
 40
0
 40
0
 40
0
 40
0
 40
1
 40
1
 40
1
 40
1
 10
162.525566
 20
24.235836
 30
0.0
 10
161.612265
 20
24.238054
 30
0.0
 10
160.853125
 20
23.532863
 30
0.0
 10
160.788133
 20
22.621875
 30
0.0
  0
LINE
  5
1fe
100
AcDbEntity
  8
wheels
 62
7
100
AcDbLine
 10
160.788133
 20
22.621875
 30
0.0
 11
160.788133
 21
22.621875
 31
0.0
  0
SPLINE
  5
1ff
100
AcDbEntity
  8
wheels
 62
7
100
AcDbSpline
 70
8
 71
3
 72
8
 73
4
 74
0
 40
0
 40
0
 40
0
 40
0
 40
1
 40
1
 40
1
 40
1
 10
165.788758
 20
42.615558
 30
0.0
 10
165.754488
 20
42.133784
 30
0.0
 10
165.922288
 20
41.659484
 30
0.0
 10
166.251902
 20
41.306446
 30
0.0
  0
SPLINE
  5
200
100
AcDbEntity
  8
wheels
 62
7
100
AcDbSpline
 70
8
 71
3
 72
8
 73
4
 74
0
 40
0
 40
0
 40
0
 40
0
 40
1
 40
1
 40
1
 40
1
 10
166.251902
 20
41.306446
 30
0.0
 10
166.581515
 20
40.953408
 30
0.0
 10
167.043198
 20
40.753491
 30
0.0
 10
167.526188
 20
40.754656
 30
0.0
  0
SPLINE
  5
201
100
AcDbEntity
  8
wheels
 62
7
100
AcDbSpline
 70
8
 71
3
 72
8
 73
4
 74
0
 40
0
 40
0
 40
0
 40
0
 40
1
 40
1
 40
1
 40
1
 10
167.526188
 20
40.754656
 30
0.0
 10
168.475772
 20
40.768635
 30
0.0
 10
169.238229
 20
41.542400
 30
0.0
 10
169.238229
 20
42.492086
 30
0.0
  0
SPLINE
  5
202
100
AcDbEntity
  8
wheels
 62
7
100
AcDbSpline
 70
8
 71
3
 72
8
 73
4
 74
0
 40
0
 40
0
 40
0
 40
0
 40
1
 40
1
 40
1
 40
1
 10
169.238229
 20
42.492086
 30
0.0
 10
169.238229
 20
43.441772
 30
0.0
 10
168.475772
 20
44.215537
 30
0.0
 10
167.526188
 20
44.229517
 30
0.0
  0
SPLINE
  5
203
100
AcDbEntity
  8
wheels
 62
7
100
AcDbSpline
 70
8
 71
3
 72
8
 73
4
 74
0
 40
0
 40
0
 40
0
 40
0
 40
1
 40
1
 40
1
 40
1
 10
167.526188
 20
44.229517
 30
0.0
 10
166.612889
 20
44.231733
 30
0.0
 10
165.853752
 20
43.526545
 30
0.0
 10
165.788758
 20
42.615558
 30
0.0
  0
LINE
  5
204
100
AcDbEntity
  8
wheels
 62
7
100
AcDbLine
 10
165.788758
 20
42.615558
 30
0.0
 11
165.788758
 21
42.615558
 31
0.0
  0
SPLINE
  5
205
100
AcDbEntity
  8
wheels
 62
7
100
AcDbSpline
 70
8
 71
3
 72
8
 73
4
 74
0
 40
0
 40
0
 40
0
 40
0
 40
1
 40
1
 40
1
 40
1
 10
165.788758
 20
22.621875
 30
0.0
 10
165.754489
 20
22.140101
 30
0.0
 10
165.922290
 20
21.665802
 30
0.0
 10
166.251903
 20
21.312764
 30
0.0
  0
SPLINE
  5
206
100
AcDbEntity
  8
wheels
 62
7
100
AcDbSpline
 70
8
 71
3
 72
8
 73
4
 74
0
 40
0
 40
0
 40
0
 40
0
 40
1
 40
1
 40
1
 40
1
 10
166.251903
 20
21.312764
 30
0.0
 10
166.581517
 20
20.959727
 30
0.0
 10
167.043199
 20
20.759810
 30
0.0
 10
167.526188
 20
20.760975
 30
0.0
  0
SPLINE
  5
207
100
AcDbEntity
  8
wheels
 62
7
100
AcDbSpline
 70
8
 71
3
 72
8
 73
4
 74
0
 40
0
 40
0
 40
0
 40
0
 40
1
 40
1
 40
1
 40
1
 10
167.526188
 20
20.760975
 30
0.0
 10
168.475764
 20
20.774965
 30
0.0
 10
169.238210
 20
21.548727
 30
0.0
 10
169.238210
 20
22.498406
 30
0.0
  0
SPLINE
  5
208
100
AcDbEntity
  8
wheels
 62
7
100
AcDbSpline
 70
8
 71
3
 72
8
 73
4
 74
0
 40
0
 40
0
 40
0
 40
0
 40
1
 40
1
 40
1
 40
1
 10
169.238210
 20
22.498406
 30
0.0
 10
169.238210
 20
23.448085
 30
0.0
 10
168.475764
 20
24.221846
 30
0.0
 10
167.526188
 20
24.235836
 30
0.0
  0
SPLINE
  5
209
100
AcDbEntity
  8
wheels
 62
7
100
AcDbSpline
 70
8
 71
3
 72
8
 73
4
 74
0
 40
0
 40
0
 40
0
 40
0
 40
1
 40
1
 40
1
 40
1
 10
167.526188
 20
24.235836
 30
0.0
 10
166.612888
 20
24.238052
 30
0.0
 10
165.853750
 20
23.532862
 30
0.0
 10
165.788758
 20
22.621875
 30
0.0
  0
LINE
  5
20a
100
AcDbEntity
  8
wheels
 62
7
100
AcDbLine
 10
165.788758
 20
22.621875
 30
0.0
 11
165.788758
 21
22.621875
 31
0.0
  0
SPLINE
  5
20b
100
AcDbEntity
  8
wheels
 62
7
100
AcDbSpline
 70
8
 71
3
 72
8
 73
4
 74
0
 40
0
 40
0
 40
0
 40
0
 40
1
 40
1
 40
1
 40
1
 10
170.030913
 20
32.420281
 30
0.0
 10
170.068898
 20
31.069368
 30
0.0
 10
171.175367
 20
29.994177
 30
0.0
 10
172.526813
 20
29.994936
 30
0.0
  0
SPLINE
  5
20c
100
AcDbEntity
  8
wheels
 62
7
100
AcDbSpline
 70
8
 71
3
 72
8
 73
4
 74
0
 40
0
 40
0
 40
0
 40
0
 40
1
 40
1
 40
1
 40
1
 10
172.526813
 20
29.994936
 30
0.0
 10
173.904053
 20
29.996644
 30
0.0
 10
175.019621
 20
31.113597
 30
0.0
 10
175.019621
 20
32.490838
 30
0.0
  0
SPLINE
  5
20d
100
AcDbEntity
  8
wheels
 62
7
100
AcDbSpline
 70
8
 71
3
 72
8
 73
4
 74
0
 40
0
 40
0
 40
0
 40
0
 40
1
 40
1
 40
1
 40
1
 10
175.019621
 20
32.490838
 30
0.0
 10
175.019621
 20
33.868078
 30
0.0
 10
173.904053
 20
34.985031
 30
0.0
 10
172.526813
 20
34.986739
 30
0.0
  0
SPLINE
  5
20e
100
AcDbEntity
  8
wheels
 62
7
100
AcDbSpline
 70
8
 71
3
 72
8
 73
4
 74
0
 40
0
 40
0
 40
0
 40
0
 40
1
 40
1
 40
1
 40
1
 10
172.526813
 20
34.986739
 30
0.0
 10
171.852415
 20
34.987124
 30
0.0
 10
171.206573
 20
34.714537
 30
0.0
 10
170.736393
 20
34.231066
 30
0.0
  0
SPLINE
  5
20f
100
AcDbEntity
  8
wheels
 62
7
100
AcDbSpline
 70
8
 71
3
 72
8
 73
4
 74
0
 40
0
 40
0
 40
0
 40
0
 40
1
 40
1
 40
1
 40
1
 10
170.736393
 20
34.231066
 30
0.0
 10
170.266214
 20
33.747594
 30
0.0
 10
170.011732
 20
33.094406
 30
0.0
 10
170.030913
 20
32.420281
 30
0.0
  0
LINE
  5
210
100
AcDbEntity
  8
wheels
 62
7
100
AcDbLine
 10
170.030913
 20
32.420281
 30
0.0
 11
170.030913
 21
32.420281
 31
0.0
  0
SPLINE
  5
211
100
AcDbEntity
  8
wheels
 62
7
100
AcDbSpline
 70
8
 71
3
 72
8
 73
4
 74
0
 40
0
 40
0
 40
0
 40
0
 40
1
 40
1
 40
1
 40
1
 10
175.790008
 20
42.615558
 30
0.0
 10
175.755738
 20
42.133784
 30
0.0
 10
175.923539
 20
41.659483
 30
0.0
 10
176.253153
 20
41.306445
 30
0.0
  0
SPLINE
  5
212
100
AcDbEntity
  8
wheels
 62
7
100
AcDbSpline
 70
8
 71
3
 72
8
 73
4
 74
0
 40
0
 40
0
 40
0
 40
0
 40
1
 40
1
 40
1
 40
1
 10
176.253153
 20
41.306445
 30
0.0
 10
176.582767
 20
40.953407
 30
0.0
 10
177.044450
 20
40.753490
 30
0.0
 10
177.527441
 20
40.754656
 30
0.0
  0
SPLINE
  5
213
100
AcDbEntity
  8
wheels
 62
7
100
AcDbSpline
 70
8
 71
3
 72
8
 73
4
 74
0
 40
0
 40
0
 40
0
 40
0
 40
1
 40
1
 40
1
 40
1
 10
177.527441
 20
40.754656
 30
0.0
 10
178.477023
 20
40.768637
 30
0.0
 10
179.239478
 20
41.542401
 30
0.0
 10
179.239478
 20
42.492086
 30
0.0
  0
SPLINE
  5
214
100
AcDbEntity
  8
wheels
 62
7
100
AcDbSpline
 70
8
 71
3
 72
8
 73
4
 74
0
 40
0
 40
0
 40
0
 40
0
 40
1
 40
1
 40
1
 40
1
 10
179.239478
 20
42.492086
 30
0.0
 10
179.239478
 20
43.441771
 30
0.0
 10
178.477023
 20
44.215535
 30
0.0
 10
177.527441
 20
44.229517
 30
0.0
  0
SPLINE
  5
215
100
AcDbEntity
  8
wheels
 62
7
100
AcDbSpline
 70
8
 71
3
 72
8
 73
4
 74
0
 40
0
 40
0
 40
0
 40
0
 40
1
 40
1
 40
1
 40
1
 10
177.527441
 20
44.229517
 30
0.0
 10
176.614141
 20
44.231735
 30
0.0
 10
175.855002
 20
43.526546
 30
0.0
 10
175.790008
 20
42.615558
 30
0.0
  0
LINE
  5
216
100
AcDbEntity
  8
wheels
 62
7
100
AcDbLine
 10
175.790008
 20
42.615558
 30
0.0
 11
175.790008
 21
42.615558
 31
0.0
  0
SPLINE
  5
217
100
AcDbEntity
  8
wheels
 62
7
100
AcDbSpline
 70
8
 71
3
 72
8
 73
4
 74
0
 40
0
 40
0
 40
0
 40
0
 40
1
 40
1
 40
1
 40
1
 10
175.790008
 20
22.621875
 30
0.0
 10
175.755739
 20
22.140101
 30
0.0
 10
175.923540
 20
21.665801
 30
0.0
 10
176.253154
 20
21.312763
 30
0.0
  0
SPLINE
  5
218
100
AcDbEntity
  8
wheels
 62
7
100
AcDbSpline
 70
8
 71
3
 72
8
 73
4
 74
0
 40
0
 40
0
 40
0
 40
0
 40
1
 40
1
 40
1
 40
1
 10
176.253154
 20
21.312763
 30
0.0
 10
176.582768
 20
20.959726
 30
0.0
 10
177.044451
 20
20.759809
 30
0.0
 10
177.527441
 20
20.760975
 30
0.0
  0
SPLINE
  5
219
100
AcDbEntity
  8
wheels
 62
7
100
AcDbSpline
 70
8
 71
3
 72
8
 73
4
 74
0
 40
0
 40
0
 40
0
 40
0
 40
1
 40
1
 40
1
 40
1
 10
177.527441
 20
20.760975
 30
0.0
 10
178.477018
 20
20.774963
 30
0.0
 10
179.239466
 20
21.548725
 30
0.0
 10
179.239466
 20
22.498406
 30
0.0
  0
SPLINE
  5
21a
100
AcDbEntity
  8
wheels
 62
7
100
AcDbSpline
 70
8
 71
3
 72
8
 73
4
 74
0
 40
0
 40
0
 40
0
 40
0
 40
1
 40
1
 40
1
 40
1
 10
179.239466
 20
22.498406
 30
0.0
 10
179.239466
 20
23.448086
 30
0.0
 10
178.477018
 20
24.221848
 30
0.0
 10
177.527441
 20
24.235836
 30
0.0
  0
SPLINE
  5
21b
100
AcDbEntity
  8
wheels
 62
7
100
AcDbSpline
 70
8
 71
3
 72
8
 73
4
 74
0
 40
0
 40
0
 40
0
 40
0
 40
1
 40
1
 40
1
 40
1
 10
177.527441
 20
24.235836
 30
0.0
 10
176.614140
 20
24.238054
 30
0.0
 10
175.855000
 20
23.532863
 30
0.0
 10
175.790008
 20
22.621875
 30
0.0
  0
LINE
  5
21c
100
AcDbEntity
  8
wheels
 62
7
100
AcDbLine
 10
175.790008
 20
22.621875
 30
0.0
 11
175.790008
 21
22.621875
 31
0.0
  0
SPLINE
  5
21d
100
AcDbEntity
  8
wheels
 62
7
100
AcDbSpline
 70
8
 71
3
 72
8
 73
4
 74
0
 40
0
 40
0
 40
0
 40
0
 40
1
 40
1
 40
1
 40
1
 10
180.790636
 20
42.615558
 30
0.0
 10
180.756366
 20
42.133785
 30
0.0
 10
180.924166
 20
41.659485
 30
0.0
 10
181.253779
 20
41.306447
 30
0.0
  0
SPLINE
  5
21e
100
AcDbEntity
  8
wheels
 62
7
100
AcDbSpline
 70
8
 71
3
 72
8
 73
4
 74
0
 40
0
 40
0
 40
0
 40
0
 40
1
 40
1
 40
1
 40
1
 10
181.253779
 20
41.306447
 30
0.0
 10
181.583392
 20
40.953409
 30
0.0
 10
182.045074
 20
40.753491
 30
0.0
 10
182.528063
 20
40.754656
 30
0.0
  0
SPLINE
  5
21f
100
AcDbEntity
  8
wheels
 62
7
100
AcDbSpline
 70
8
 71
3
 72
8
 73
4
 74
0
 40
0
 40
0
 40
0
 40
0
 40
1
 40
1
 40
1
 40
1
 10
182.528063
 20
40.754656
 30
0.0
 10
183.477644
 20
40.768639
 30
0.0
 10
184.240096
 20
41.542403
 30
0.0
 10
184.240096
 20
42.492086
 30
0.0
  0
SPLINE
  5
220
100
AcDbEntity
  8
wheels
 62
7
100
AcDbSpline
 70
8
 71
3
 72
8
 73
4
 74
0
 40
0
 40
0
 40
0
 40
0
 40
1
 40
1
 40
1
 40
1
 10
184.240096
 20
42.492086
 30
0.0
 10
184.240096
 20
43.441769
 30
0.0
 10
183.477644
 20
44.215533
 30
0.0
 10
182.528063
 20
44.229517
 30
0.0
  0
SPLINE
  5
221
100
AcDbEntity
  8
wheels
 62
7
100
AcDbSpline
 70
8
 71
3
 72
8
 73
4
 74
0
 40
0
 40
0
 40
0
 40
0
 40
1
 40
1
 40
1
 40
1
 10
182.528063
 20
44.229517
 30
0.0
 10
181.614765
 20
44.231732
 30
0.0
 10
180.855629
 20
43.526543
 30
0.0
 10
180.790636
 20
42.615558
 30
0.0
  0
LINE
  5
222
100
AcDbEntity
  8
wheels
 62
7
100
AcDbLine
 10
180.790636
 20
42.615558
 30
0.0
 11
180.790636
 21
42.615558
 31
0.0
  0
SPLINE
  5
223
100
AcDbEntity
  8
wheels
 62
7
100
AcDbSpline
 70
8
 71
3
 72
8
 73
4
 74
0
 40
0
 40
0
 40
0
 40
0
 40
1
 40
1
 40
1
 40
1
 10
180.790636
 20
22.621875
 30
0.0
 10
180.756367
 20
22.140102
 30
0.0
 10
180.924167
 20
21.665803
 30
0.0
 10
181.253780
 20
21.312765
 30
0.0
  0
SPLINE
  5
224
100
AcDbEntity
  8
wheels
 62
7
100
AcDbSpline
 70
8
 71
3
 72
8
 73
4
 74
0
 40
0
 40
0
 40
0
 40
0
 40
1
 40
1
 40
1
 40
1
 10
181.253780
 20
21.312765
 30
0.0
 10
181.583393
 20
20.959728
 30
0.0
 10
182.045074
 20
20.759811
 30
0.0
 10
182.528063
 20
20.760975
 30
0.0
  0
SPLINE
  5
225
100
AcDbEntity
  8
wheels
 62
7
100
AcDbSpline
 70
8
 71
3
 72
8
 73
4
 74
0
 40
0
 40
0
 40
0
 40
0
 40
1
 40
1
 40
1
 40
1
 10
182.528063
 20
20.760975
 30
0.0
 10
183.477642
 20
20.774961
 30
0.0
 10
184.240092
 20
21.548724
 30
0.0
 10
184.240092
 20
22.498406
 30
0.0
  0
SPLINE
  5
226
100
AcDbEntity
  8
wheels
 62
7
100
AcDbSpline
 70
8
 71
3
 72
8
 73
4
 74
0
 40
0
 40
0
 40
0
 40
0
 40
1
 40
1
 40
1
 40
1
 10
184.240092
 20
22.498406
 30
0.0
 10
184.240092
 20
23.448087
 30
0.0
 10
183.477642
 20
24.221850
 30
0.0
 10
182.528063
 20
24.235836
 30
0.0
  0
SPLINE
  5
227
100
AcDbEntity
  8
wheels
 62
7
100
AcDbSpline
 70
8
 71
3
 72
8
 73
4
 74
0
 40
0
 40
0
 40
0
 40
0
 40
1
 40
1
 40
1
 40
1
 10
182.528063
 20
24.235836
 30
0.0
 10
181.614764
 20
24.238051
 30
0.0
 10
180.855628
 20
23.532861
 30
0.0
 10
180.790636
 20
22.621875
 30
0.0
  0
LINE
  5
228
100
AcDbEntity
  8
wheels
 62
7
100
AcDbLine
 10
180.790636
 20
22.621875
 30
0.0
 11
180.790636
 21
22.621875
 31
0.0
  0
SPLINE
  5
229
100
AcDbEntity
  8
wheels
 62
7
100
AcDbSpline
 70
8
 71
3
 72
8
 73
4
 74
0
 40
0
 40
0
 40
0
 40
0
 40
1
 40
1
 40
1
 40
1
 10
70.062440
 20
31.547153
 30
0.0
 10
69.807335
 20
40.320380
 30
0.0
 10
73.114444
 20
48.823252
 30
0.0
 10
79.230307
 20
55.118554
 30
0.0
  0
SPLINE
  5
22a
100
AcDbEntity
  8
wheels
 62
7
100
AcDbSpline
 70
8
 71
3
 72
8
 73
4
 74
0
 40
0
 40
0
 40
0
 40
0
 40
1
 40
1
 40
1
 40
1
 10
79.230307
 20
55.118554
 30
0.0
 10
85.346169
 20
61.413855
 30
0.0
 10
93.749880
 20
64.965398
 30
0.0
 10
102.526815
 20
64.964029
 30
0.0
  0
SPLINE
  5
22b
100
AcDbEntity
  8
wheels
 62
7
100
AcDbSpline
 70
8
 71
3
 72
8
 73
4
 74
0
 40
0
 40
0
 40
0
 40
0
 40
1
 40
1
 40
1
 40
1
 10
102.526815
 20
64.964029
 30
0.0
 10
114.128370
 20
64.964029
 30
0.0
 10
124.848649
 20
58.774673
 30
0.0
 10
130.649426
 20
48.727432
 30
0.0
  0
SPLINE
  5
22c
100
AcDbEntity
  8
wheels
 62
7
100
AcDbSpline
 70
8
 71
3
 72
8
 73
4
 74
0
 40
0
 40
0
 40
0
 40
0
 40
1
 40
1
 40
1
 40
1
 10
130.649426
 20
48.727432
 30
0.0
 10
136.450204
 20
38.680191
 30
0.0
 10
136.450204
 20
26.301479
 30
0.0
 10
130.649426
 20
16.254238
 30
0.0
  0
SPLINE
  5
22d
100
AcDbEntity
  8
wheels
 62
7
100
AcDbSpline
 70
8
 71
3
 72
8
 73
4
 74
0
 40
0
 40
0
 40
0
 40
0
 40
1
 40
1
 40
1
 40
1
 10
130.649426
 20
16.254238
 30
0.0
 10
124.848649
 20
6.206996
 30
0.0
 10
114.128370
 20
0.017640
 30
0.0
 10
102.526815
 20
0.017640
 30
0.0
  0
SPLINE
  5
22e
100
AcDbEntity
  8
wheels
 62
7
100
AcDbSpline
 70
8
 71
3
 72
8
 73
4
 74
0
 40
0
 40
0
 40
0
 40
0
 40
1
 40
1
 40
1
 40
1
 10
102.526815
 20
0.017640
 30
0.0
 10
84.957914
 20
0.014909
 30
0.0
 10
70.572915
 20
13.985669
 30
0.0
 10
70.062440
 20
31.547153
 30
0.0
  0
LINE
  5
22f
100
AcDbEntity
  8
wheels
 62
7
100
AcDbLine
 10
70.062440
 20
31.547153
 30
0.0
 11
70.062440
 21
31.547153
 31
0.0
  0
SPLINE
  5
230
100
AcDbEntity
  8
wheels
 62
7
100
AcDbSpline
 70
8
 71
3
 72
8
 73
4
 74
0
 40
0
 40
0
 40
0
 40
0
 40
1
 40
1
 40
1
 40
1
 10
90.788134
 20
42.615561
 30
0.0
 10
90.753864
 20
42.133787
 30
0.0
 10
90.921664
 20
41.659485
 30
0.0
 10
91.251278
 20
41.306447
 30
0.0
  0
SPLINE
  5
231
100
AcDbEntity
  8
wheels
 62
7
100
AcDbSpline
 70
8
 71
3
 72
8
 73
4
 74
0
 40
0
 40
0
 40
0
 40
0
 40
1
 40
1
 40
1
 40
1
 10
91.251278
 20
41.306447
 30
0.0
 10
91.580891
 20
40.953408
 30
0.0
 10
92.042574
 20
40.753491
 30
0.0
 10
92.525565
 20
40.754656
 30
0.0
  0
SPLINE
  5
232
100
AcDbEntity
  8
wheels
 62
7
100
AcDbSpline
 70
8
 71
3
 72
8
 73
4
 74
0
 40
0
 40
0
 40
0
 40
0
 40
1
 40
1
 40
1
 40
1
 10
92.525565
 20
40.754656
 30
0.0
 10
93.475150
 20
40.768633
 30
0.0
 10
94.237609
 20
41.542398
 30
0.0
 10
94.237609
 20
42.492086
 30
0.0
  0
SPLINE
  5
233
100
AcDbEntity
  8
wheels
 62
7
100
AcDbSpline
 70
8
 71
3
 72
8
 73
4
 74
0
 40
0
 40
0
 40
0
 40
0
 40
1
 40
1
 40
1
 40
1
 10
94.237609
 20
42.492086
 30
0.0
 10
94.237609
 20
43.441774
 30
0.0
 10
93.475150
 20
44.215539
 30
0.0
 10
92.525565
 20
44.229517
 30
0.0
  0
SPLINE
  5
234
100
AcDbEntity
  8
wheels
 62
7
100
AcDbSpline
 70
8
 71
3
 72
8
 73
4
 74
0
 40
0
 40
0
 40
0
 40
0
 40
1
 40
1
 40
1
 40
1
 10
92.525565
 20
44.229517
 30
0.0
 10
91.612267
 20
44.231733
 30
0.0
 10
90.853130
 20
43.526546
 30
0.0
 10
90.788134
 20
42.615561
 30
0.0
  0
LINE
  5
235
100
AcDbEntity
  8
wheels
 62
7
100
AcDbLine
 10
90.788134
 20
42.615561
 30
0.0
 11
90.788134
 21
42.615561
 31
0.0
  0
SPLINE
  5
236
100
AcDbEntity
  8
wheels
 62
7
100
AcDbSpline
 70
8
 71
3
 72
8
 73
4
 74
0
 40
0
 40
0
 40
0
 40
0
 40
1
 40
1
 40
1
 40
1
 10
90.788134
 20
22.621878
 30
0.0
 10
90.753866
 20
22.140104
 30
0.0
 10
90.921666
 20
21.665804
 30
0.0
 10
91.251280
 20
21.312767
 30
0.0
  0
SPLINE
  5
237
100
AcDbEntity
  8
wheels
 62
7
100
AcDbSpline
 70
8
 71
3
 72
8
 73
4
 74
0
 40
0
 40
0
 40
0
 40
0
 40
1
 40
1
 40
1
 40
1
 10
91.251280
 20
21.312767
 30
0.0
 10
91.580893
 20
20.959730
 30
0.0
 10
92.042575
 20
20.759813
 30
0.0
 10
92.525565
 20
20.760978
 30
0.0
  0
SPLINE
  5
238
100
AcDbEntity
  8
wheels
 62
7
100
AcDbSpline
 70
8
 71
3
 72
8
 73
4
 74
0
 40
0
 40
0
 40
0
 40
0
 40
1
 40
1
 40
1
 40
1
 10
92.525565
 20
20.760978
 30
0.0
 10
93.475064
 20
20.775073
 30
0.0
 10
94.237392
 20
21.548802
 30
0.0
 10
94.237392
 20
22.498406
 30
0.0
  0
SPLINE
  5
239
100
AcDbEntity
  8
wheels
 62
7
100
AcDbSpline
 70
8
 71
3
 72
8
 73
4
 74
0
 40
0
 40
0
 40
0
 40
0
 40
1
 40
1
 40
1
 40
1
 10
94.237392
 20
22.498406
 30
0.0
 10
94.237392
 20
23.448009
 30
0.0
 10
93.475064
 20
24.221738
 30
0.0
 10
92.525565
 20
24.235833
 30
0.0
  0
SPLINE
  5
23a
100
AcDbEntity
  8
wheels
 62
7
100
AcDbSpline
 70
8
 71
3
 72
8
 73
4
 74
0
 40
0
 40
0
 40
0
 40
0
 40
1
 40
1
 40
1
 40
1
 10
92.525565
 20
24.235833
 30
0.0
 10
91.612267
 20
24.238050
 30
0.0
 10
90.853130
 20
23.532863
 30
0.0
 10
90.788134
 20
22.621878
 30
0.0
  0
LINE
  5
23b
100
AcDbEntity
  8
wheels
 62
7
100
AcDbLine
 10
90.788134
 20
22.621878
 30
0.0
 11
90.788134
 21
22.621878
 31
0.0
  0
SPLINE
  5
23c
100
AcDbEntity
  8
wheels
 62
7
100
AcDbSpline
 70
8
 71
3
 72
8
 73
4
 74
0
 40
0
 40
0
 40
0
 40
0
 40
1
 40
1
 40
1
 40
1
 10
95.788759
 20
42.615561
 30
0.0
 10
95.754489
 20
42.133787
 30
0.0
 10
95.922289
 20
41.659485
 30
0.0
 10
96.251903
 20
41.306447
 30
0.0
  0
SPLINE
  5
23d
100
AcDbEntity
  8
wheels
 62
7
100
AcDbSpline
 70
8
 71
3
 72
8
 73
4
 74
0
 40
0
 40
0
 40
0
 40
0
 40
1
 40
1
 40
1
 40
1
 10
96.251903
 20
41.306447
 30
0.0
 10
96.581516
 20
40.953408
 30
0.0
 10
97.043199
 20
40.753491
 30
0.0
 10
97.526190
 20
40.754656
 30
0.0
  0
SPLINE
  5
23e
100
AcDbEntity
  8
wheels
 62
7
100
AcDbSpline
 70
8
 71
3
 72
8
 73
4
 74
0
 40
0
 40
0
 40
0
 40
0
 40
1
 40
1
 40
1
 40
1
 10
97.526190
 20
40.754656
 30
0.0
 10
98.475773
 20
40.768635
 30
0.0
 10
99.238230
 20
41.542400
 30
0.0
 10
99.238230
 20
42.492086
 30
0.0
  0
SPLINE
  5
23f
100
AcDbEntity
  8
wheels
 62
7
100
AcDbSpline
 70
8
 71
3
 72
8
 73
4
 74
0
 40
0
 40
0
 40
0
 40
0
 40
1
 40
1
 40
1
 40
1
 10
99.238230
 20
42.492086
 30
0.0
 10
99.238230
 20
43.441772
 30
0.0
 10
98.475773
 20
44.215537
 30
0.0
 10
97.526190
 20
44.229517
 30
0.0
  0
SPLINE
  5
240
100
AcDbEntity
  8
wheels
 62
7
100
AcDbSpline
 70
8
 71
3
 72
8
 73
4
 74
0
 40
0
 40
0
 40
0
 40
0
 40
1
 40
1
 40
1
 40
1
 10
97.526190
 20
44.229517
 30
0.0
 10
96.612892
 20
44.231733
 30
0.0
 10
95.853755
 20
43.526546
 30
0.0
 10
95.788759
 20
42.615561
 30
0.0
  0
LINE
  5
241
100
AcDbEntity
  8
wheels
 62
7
100
AcDbLine
 10
95.788759
 20
42.615561
 30
0.0
 11
95.788759
 21
42.615561
 31
0.0
  0
SPLINE
  5
242
100
AcDbEntity
  8
wheels
 62
7
100
AcDbSpline
 70
8
 71
3
 72
8
 73
4
 74
0
 40
0
 40
0
 40
0
 40
0
 40
1
 40
1
 40
1
 40
1
 10
95.788759
 20
22.621878
 30
0.0
 10
95.754491
 20
22.140104
 30
0.0
 10
95.922291
 20
21.665804
 30
0.0
 10
96.251905
 20
21.312767
 30
0.0
  0
SPLINE
  5
243
100
AcDbEntity
  8
wheels
 62
7
100
AcDbSpline
 70
8
 71
3
 72
8
 73
4
 74
0
 40
0
 40
0
 40
0
 40
0
 40
1
 40
1
 40
1
 40
1
 10
96.251905
 20
21.312767
 30
0.0
 10
96.581518
 20
20.959730
 30
0.0
 10
97.043200
 20
20.759813
 30
0.0
 10
97.526190
 20
20.760978
 30
0.0
  0
SPLINE
  5
244
100
AcDbEntity
  8
wheels
 62
7
100
AcDbSpline
 70
8
 71
3
 72
8
 73
4
 74
0
 40
0
 40
0
 40
0
 40
0
 40
1
 40
1
 40
1
 40
1
 10
97.526190
 20
20.760978
 30
0.0
 10
98.475690
 20
20.775071
 30
0.0
 10
99.238021
 20
21.548801
 30
0.0
 10
99.238021
 20
22.498406
 30
0.0
  0
SPLINE
  5
245
100
AcDbEntity
  8
wheels
 62
7
100
AcDbSpline
 70
8
 71
3
 72
8
 73
4
 74
0
 40
0
 40
0
 40
0
 40
0
 40
1
 40
1
 40
1
 40
1
 10
99.238021
 20
22.498406
 30
0.0
 10
99.238021
 20
23.448010
 30
0.0
 10
98.475690
 20
24.221740
 30
0.0
 10
97.526190
 20
24.235833
 30
0.0
  0
SPLINE
  5
246
100
AcDbEntity
  8
wheels
 62
7
100
AcDbSpline
 70
8
 71
3
 72
8
 73
4
 74
0
 40
0
 40
0
 40
0
 40
0
 40
1
 40
1
 40
1
 40
1
 10
97.526190
 20
24.235833
 30
0.0
 10
96.612892
 20
24.238050
 30
0.0
 10
95.853755
 20
23.532863
 30
0.0
 10
95.788759
 20
22.621878
 30
0.0
  0
LINE
  5
247
100
AcDbEntity
  8
wheels
 62
7
100
AcDbLine
 10
95.788759
 20
22.621878
 30
0.0
 11
95.788759
 21
22.621878
 31
0.0
  0
SPLINE
  5
248
100
AcDbEntity
  8
wheels
 62
7
100
AcDbSpline
 70
8
 71
3
 72
8
 73
4
 74
0
 40
0
 40
0
 40
0
 40
0
 40
1
 40
1
 40
1
 40
1
 10
100.030912
 20
32.420283
 30
0.0
 10
100.068895
 20
31.069369
 30
0.0
 10
101.175366
 20
29.994175
 30
0.0
 10
102.526815
 20
29.994936
 30
0.0
  0
SPLINE
  5
249
100
AcDbEntity
  8
wheels
 62
7
100
AcDbSpline
 70
8
 71
3
 72
8
 73
4
 74
0
 40
0
 40
0
 40
0
 40
0
 40
1
 40
1
 40
1
 40
1
 10
102.526815
 20
29.994936
 30
0.0
 10
103.904642
 20
29.995815
 30
0.0
 10
105.021126
 20
31.113011
 30
0.0
 10
105.021126
 20
32.490839
 30
0.0
  0
SPLINE
  5
24a
100
AcDbEntity
  8
wheels
 62
7
100
AcDbSpline
 70
8
 71
3
 72
8
 73
4
 74
0
 40
0
 40
0
 40
0
 40
0
 40
1
 40
1
 40
1
 40
1
 10
105.021126
 20
32.490839
 30
0.0
 10
105.021126
 20
33.868666
 30
0.0
 10
103.904642
 20
34.985863
 30
0.0
 10
102.526815
 20
34.986742
 30
0.0
  0
SPLINE
  5
24b
100
AcDbEntity
  8
wheels
 62
7
100
AcDbSpline
 70
8
 71
3
 72
8
 73
4
 74
0
 40
0
 40
0
 40
0
 40
0
 40
1
 40
1
 40
1
 40
1
 10
102.526815
 20
34.986742
 30
0.0
 10
101.852416
 20
34.987128
 30
0.0
 10
101.206573
 20
34.714541
 30
0.0
 10
100.736393
 20
34.231070
 30
0.0
  0
SPLINE
  5
24c
100
AcDbEntity
  8
wheels
 62
7
100
AcDbSpline
 70
8
 71
3
 72
8
 73
4
 74
0
 40
0
 40
0
 40
0
 40
0
 40
1
 40
1
 40
1
 40
1
 10
100.736393
 20
34.231070
 30
0.0
 10
100.266213
 20
33.747598
 30
0.0
 10
100.011731
 20
33.094410
 30
0.0
 10
100.030912
 20
32.420283
 30
0.0
  0
LINE
  5
24d
100
AcDbEntity
  8
wheels
 62
7
100
AcDbLine
 10
100.030912
 20
32.420283
 30
0.0
 11
100.030912
 21
32.420283
 31
0.0
  0
SPLINE
  5
24e
100
AcDbEntity
  8
wheels
 62
7
100
AcDbSpline
 70
8
 71
3
 72
8
 73
4
 74
0
 40
0
 40
0
 40
0
 40
0
 40
1
 40
1
 40
1
 40
1
 10
105.790009
 20
42.615561
 30
0.0
 10
105.755739
 20
42.133786
 30
0.0
 10
105.923539
 20
41.659484
 30
0.0
 10
106.253154
 20
41.306446
 30
0.0
  0
SPLINE
  5
24f
100
AcDbEntity
  8
wheels
 62
7
100
AcDbSpline
 70
8
 71
3
 72
8
 73
4
 74
0
 40
0
 40
0
 40
0
 40
0
 40
1
 40
1
 40
1
 40
1
 10
106.253154
 20
41.306446
 30
0.0
 10
106.582768
 20
40.953407
 30
0.0
 10
107.044452
 20
40.753490
 30
0.0
 10
107.527443
 20
40.754656
 30
0.0
  0
SPLINE
  5
250
100
AcDbEntity
  8
wheels
 62
7
100
AcDbSpline
 70
8
 71
3
 72
8
 73
4
 74
0
 40
0
 40
0
 40
0
 40
0
 40
1
 40
1
 40
1
 40
1
 10
107.527443
 20
40.754656
 30
0.0
 10
108.477025
 20
40.768637
 30
0.0
 10
109.239480
 20
41.542401
 30
0.0
 10
109.239480
 20
42.492086
 30
0.0
  0
SPLINE
  5
251
100
AcDbEntity
  8
wheels
 62
7
100
AcDbSpline
 70
8
 71
3
 72
8
 73
4
 74
0
 40
0
 40
0
 40
0
 40
0
 40
1
 40
1
 40
1
 40
1
 10
109.239480
 20
42.492086
 30
0.0
 10
109.239480
 20
43.441771
 30
0.0
 10
108.477025
 20
44.215535
 30
0.0
 10
107.527443
 20
44.229517
 30
0.0
  0
SPLINE
  5
252
100
AcDbEntity
  8
wheels
 62
7
100
AcDbSpline
 70
8
 71
3
 72
8
 73
4
 74
0
 40
0
 40
0
 40
0
 40
0
 40
1
 40
1
 40
1
 40
1
 10
107.527443
 20
44.229517
 30
0.0
 10
106.614144
 20
44.231735
 30
0.0
 10
105.855005
 20
43.526547
 30
0.0
 10
105.790009
 20
42.615561
 30
0.0
  0
LINE
  5
253
100
AcDbEntity
  8
wheels
 62
7
100
AcDbLine
 10
105.790009
 20
42.615561
 30
0.0
 11
105.790009
 21
42.615561
 31
0.0
  0
SPLINE
  5
254
100
AcDbEntity
  8
wheels
 62
7
100
AcDbSpline
 70
8
 71
3
 72
8
 73
4
 74
0
 40
0
 40
0
 40
0
 40
0
 40
1
 40
1
 40
1
 40
1
 10
105.790009
 20
22.621878
 30
0.0
 10
105.755741
 20
22.140104
 30
0.0
 10
105.923542
 20
21.665804
 30
0.0
 10
106.253156
 20
21.312766
 30
0.0
  0
SPLINE
  5
255
100
AcDbEntity
  8
wheels
 62
7
100
AcDbSpline
 70
8
 71
3
 72
8
 73
4
 74
0
 40
0
 40
0
 40
0
 40
0
 40
1
 40
1
 40
1
 40
1
 10
106.253156
 20
21.312766
 30
0.0
 10
106.582770
 20
20.959729
 30
0.0
 10
107.044453
 20
20.759812
 30
0.0
 10
107.527443
 20
20.760978
 30
0.0
  0
SPLINE
  5
256
100
AcDbEntity
  8
wheels
 62
7
100
AcDbSpline
 70
8
 71
3
 72
8
 73
4
 74
0
 40
0
 40
0
 40
0
 40
0
 40
1
 40
1
 40
1
 40
1
 10
107.527443
 20
20.760978
 30
0.0
 10
108.476944
 20
20.775069
 30
0.0
 10
109.239277
 20
21.548800
 30
0.0
 10
109.239277
 20
22.498406
 30
0.0
  0
SPLINE
  5
257
100
AcDbEntity
  8
wheels
 62
7
100
AcDbSpline
 70
8
 71
3
 72
8
 73
4
 74
0
 40
0
 40
0
 40
0
 40
0
 40
1
 40
1
 40
1
 40
1
 10
109.239277
 20
22.498406
 30
0.0
 10
109.239277
 20
23.448012
 30
0.0
 10
108.476944
 20
24.221742
 30
0.0
 10
107.527443
 20
24.235833
 30
0.0
  0
SPLINE
  5
258
100
AcDbEntity
  8
wheels
 62
7
100
AcDbSpline
 70
8
 71
3
 72
8
 73
4
 74
0
 40
0
 40
0
 40
0
 40
0
 40
1
 40
1
 40
1
 40
1
 10
107.527443
 20
24.235833
 30
0.0
 10
106.614144
 20
24.238051
 30
0.0
 10
105.855005
 20
23.532864
 30
0.0
 10
105.790009
 20
22.621878
 30
0.0
  0
LINE
  5
259
100
AcDbEntity
  8
wheels
 62
7
100
AcDbLine
 10
105.790009
 20
22.621878
 30
0.0
 11
105.790009
 21
22.621878
 31
0.0
  0
SPLINE
  5
25a
100
AcDbEntity
  8
wheels
 62
7
100
AcDbSpline
 70
8
 71
3
 72
8
 73
4
 74
0
 40
0
 40
0
 40
0
 40
0
 40
1
 40
1
 40
1
 40
1
 10
110.790637
 20
42.615561
 30
0.0
 10
110.756367
 20
42.133787
 30
0.0
 10
110.924167
 20
41.659485
 30
0.0
 10
111.253780
 20
41.306447
 30
0.0
  0
SPLINE
  5
25b
100
AcDbEntity
  8
wheels
 62
7
100
AcDbSpline
 70
8
 71
3
 72
8
 73
4
 74
0
 40
0
 40
0
 40
0
 40
0
 40
1
 40
1
 40
1
 40
1
 10
111.253780
 20
41.306447
 30
0.0
 10
111.583394
 20
40.953408
 30
0.0
 10
112.045077
 20
40.753491
 30
0.0
 10
112.528068
 20
40.754656
 30
0.0
  0
SPLINE
  5
25c
100
AcDbEntity
  8
wheels
 62
7
100
AcDbSpline
 70
8
 71
3
 72
8
 73
4
 74
0
 40
0
 40
0
 40
0
 40
0
 40
1
 40
1
 40
1
 40
1
 10
112.528068
 20
40.754656
 30
0.0
 10
113.477648
 20
40.768639
 30
0.0
 10
114.240101
 20
41.542403
 30
0.0
 10
114.240101
 20
42.492086
 30
0.0
  0
SPLINE
  5
25d
100
AcDbEntity
  8
wheels
 62
7
100
AcDbSpline
 70
8
 71
3
 72
8
 73
4
 74
0
 40
0
 40
0
 40
0
 40
0
 40
1
 40
1
 40
1
 40
1
 10
114.240101
 20
42.492086
 30
0.0
 10
114.240101
 20
43.441769
 30
0.0
 10
113.477648
 20
44.215533
 30
0.0
 10
112.528068
 20
44.229517
 30
0.0
  0
SPLINE
  5
25e
100
AcDbEntity
  8
wheels
 62
7
100
AcDbSpline
 70
8
 71
3
 72
8
 73
4
 74
0
 40
0
 40
0
 40
0
 40
0
 40
1
 40
1
 40
1
 40
1
 10
112.528068
 20
44.229517
 30
0.0
 10
111.614770
 20
44.231733
 30
0.0
 10
110.855633
 20
43.526546
 30
0.0
 10
110.790637
 20
42.615561
 30
0.0
  0
LINE
  5
25f
100
AcDbEntity
  8
wheels
 62
7
100
AcDbLine
 10
110.790637
 20
42.615561
 30
0.0
 11
110.790637
 21
42.615561
 31
0.0
  0
SPLINE
  5
260
100
AcDbEntity
  8
wheels
 62
7
100
AcDbSpline
 70
8
 71
3
 72
8
 73
4
 74
0
 40
0
 40
0
 40
0
 40
0
 40
1
 40
1
 40
1
 40
1
 10
110.790637
 20
22.621878
 30
0.0
 10
110.756368
 20
22.140104
 30
0.0
 10
110.924169
 20
21.665804
 30
0.0
 10
111.253783
 20
21.312767
 30
0.0
  0
SPLINE
  5
261
100
AcDbEntity
  8
wheels
 62
7
100
AcDbSpline
 70
8
 71
3
 72
8
 73
4
 74
0
 40
0
 40
0
 40
0
 40
0
 40
1
 40
1
 40
1
 40
1
 10
111.253783
 20
21.312767
 30
0.0
 10
111.583396
 20
20.959730
 30
0.0
 10
112.045078
 20
20.759813
 30
0.0
 10
112.528068
 20
20.760978
 30
0.0
  0
SPLINE
  5
262
100
AcDbEntity
  8
wheels
 62
7
100
AcDbSpline
 70
8
 71
3
 72
8
 73
4
 74
0
 40
0
 40
0
 40
0
 40
0
 40
1
 40
1
 40
1
 40
1
 10
112.528068
 20
20.760978
 30
0.0
 10
113.477571
 20
20.775067
 30
0.0
 10
114.239906
 20
21.548798
 30
0.0
 10
114.239906
 20
22.498406
 30
0.0
  0
SPLINE
  5
263
100
AcDbEntity
  8
wheels
 62
7
100
AcDbSpline
 70
8
 71
3
 72
8
 73
4
 74
0
 40
0
 40
0
 40
0
 40
0
 40
1
 40
1
 40
1
 40
1
 10
114.239906
 20
22.498406
 30
0.0
 10
114.239906
 20
23.448013
 30
0.0
 10
113.477571
 20
24.221744
 30
0.0
 10
112.528068
 20
24.235833
 30
0.0
  0
SPLINE
  5
264
100
AcDbEntity
  8
wheels
 62
7
100
AcDbSpline
 70
8
 71
3
 72
8
 73
4
 74
0
 40
0
 40
0
 40
0
 40
0
 40
1
 40
1
 40
1
 40
1
 10
112.528068
 20
24.235833
 30
0.0
 10
111.614770
 20
24.238050
 30
0.0
 10
110.855633
 20
23.532863
 30
0.0
 10
110.790637
 20
22.621878
 30
0.0
  0
LINE
  5
265
100
AcDbEntity
  8
wheels
 62
7
100
AcDbLine
 10
110.790637
 20
22.621878
 30
0.0
 11
110.790637
 21
22.621878
 31
0.0
  0
ENDSEC
  0
SECTION
  2
OBJECTS
  0
DICTIONARY
  5
C
330
0
100
AcDbDictionary
  3
ACAD_GROUP
350
D
  3
ACAD_MLINESTYLE
350
17
  0
DICTIONARY
  5
D
330
C
100
AcDbDictionary
  0
DICTIONARY
  5
1A
330
C
100
AcDbDictionary
  0
DICTIONARY
  5
17
330
C
100
AcDbDictionary
  3
STANDARD
350
18
  0
DICTIONARY
  5
19
330
C
100
AcDbDictionary
  0
ENDSEC
  0
EOF
