  0
SECTION
  2
HEADER
  9
$ACADVER
  1
AC1014
  9
$HANDSEED
  5
FFFF
  9
$MEASUREMENT
 70
     1
  0
ENDSEC
  0
SECTION
  2
TABLES
  0
TABLE
  2
VPORT
  5
8
330
0
100
AcDbSymbolTable
 70
     4
  0
VPORT
  5
2E
330
8
100
AcDbSymbolTableRecord
100
AcDbViewportTableRecord
  2
*ACTIVE
 70
     0
 10
0.0
 20
0.0
 11
1.0
 21
1.0
 12
210.0
 22
148.5
 13
0.0
 23
0.0
 14
10.0
 24
10.0
 15
10.0
 25
10.0
 16
0.0
 26
0.0
 36
1.0
 17
0.0
 27
0.0
 37
0.0
 40
341.0
 41
1.24
 42
50.0
 43
0.0
 44
0.0
 50
0.0
 51
0.0
 71
     0
 72
   100
 73
     1
 74
     3
 75
     0
 76
     0
 77
     0
 78
     0
  0
ENDTAB
  0
TABLE
  2
LTYPE
  5
5
330
0
100
AcDbSymbolTable
 70
     1
  0
LTYPE
  5
14
330
5
100
AcDbSymbolTableRecord
100
AcDbLinetypeTableRecord
  2
BYBLOCK
 70
     0
  3

 72
    65
 73
     0
 40
0.0
  0
LTYPE
  5
15
330
5
100
AcDbSymbolTableRecord
100
AcDbLinetypeTableRecord
  2
BYLAYER
 70
     0
  3

 72
    65
 73
     0
 40
0.0
  0
LTYPE
  5
16
330
5
100
AcDbSymbolTableRecord
100
AcDbLinetypeTableRecord
  2
CONTINUOUS
 70
     0
  3
Solid line
 72
    65
 73
     0
 40
0.0
  0
ENDTAB
  0
TABLE
  2
LAYER
  5
2
100
AcDbSymbolTable
 70
4
  0
LAYER
  5
50
100
AcDbSymbolTableRecord
100
AcDbLayerTableRecord
  2
0
 70
0
  6
CONTINUOUS
  0
LAYER
  5
51
100
AcDbSymbolTableRecord
100
AcDbLayerTableRecord
  2
Base_plate
 70
0
  6
CONTINUOUS
  0
LAYER
  5
52
100
AcDbSymbolTableRecord
100
AcDbLayerTableRecord
  2
Bumper_plates
 70
0
  6
CONTINUOUS
  0
LAYER
  5
53
100
AcDbSymbolTableRecord
100
AcDbLayerTableRecord
  2
wheels
 70
0
  6
CONTINUOUS
  0
ENDTAB
  0
TABLE
  2
STYLE
  5
3
330
0
100
AcDbSymbolTable
 70
     1
  0
STYLE
  5
11
330
3
100
AcDbSymbolTableRecord
100
AcDbTextStyleTableRecord
  2
STANDARD
 70
     0
 40
0.0
 41
1.0
 50
0.0
 71
     0
 42
2.5
  3
txt
  4

  0
ENDTAB
  0
TABLE
  2
VIEW
  5
6
330
0
100
AcDbSymbolTable
 70
     0
  0
ENDTAB
  0
TABLE
  2
UCS
  5
7
330
0
100
AcDbSymbolTable
 70
     0
  0
ENDTAB
  0
TABLE
  2
APPID
  5
9
330
0
100
AcDbSymbolTable
 70
     2
  0
APPID
  5
12
330
9
100
AcDbSymbolTableRecord
100
AcDbRegAppTableRecord
  2
ACAD
 70
     0
  0
ENDTAB
  0
TABLE
  2
DIMSTYLE
  5
A
330
0
100
AcDbSymbolTable
 70
     1
  0
DIMSTYLE
105
27
330
A
100
AcDbSymbolTableRecord
100
AcDbDimStyleTableRecord
  2
ISO-25
 70
     0
  3

  4

  5

  6

  7

 40
1.0
 41
2.5
 42
0.625
 43
3.75
 44
1.25
 45
0.0
 46
0.0
 47
0.0
 48
0.0
140
2.5
141
2.5
142
0.0
143
0.03937007874016
144
1.0
145
0.0
146
1.0
147
0.625
 71
     0
 72
     0
 73
     0
 74
     0
 75
     0
 76
     0
 77
     1
 78
     8
170
     0
171
     3
172
     1
173
     0
174
     0
175
     0
176
     0
177
     0
178
     0
270
     2
271
     2
272
     2
273
     2
274
     3
340
11
275
     0
280
     0
281
     0
282
     0
283
     0
284
     8
285
     0
286
     0
287
     3
288
     0
  0
ENDTAB
  0
TABLE
  2
BLOCK_RECORD
  5
1
330
0
100
AcDbSymbolTable
 70
     1
  0
BLOCK_RECORD
  5
1F
330
1
100
AcDbSymbolTableRecord
100
AcDbBlockTableRecord
  2
*MODEL_SPACE
  0
BLOCK_RECORD
  5
1B
330
1
100
AcDbSymbolTableRecord
100
AcDbBlockTableRecord
  2
*PAPER_SPACE
  0
ENDTAB
  0
ENDSEC
  0
SECTION
  2
BLOCKS
  0
BLOCK
  5
20
330
1F
100
AcDbEntity
  8
0
100
AcDbBlockBegin
  2
*MODEL_SPACE
 70
     0
 10
0.0
 20
0.0
 30
0.0
  3
*MODEL_SPACE
  1

  0
ENDBLK
  5
21
330
1F
100
AcDbEntity
  8
0
100
AcDbBlockEnd
  0
BLOCK
  5
1C
330
1B
100
AcDbEntity
 67
     1
  8
0
100
AcDbBlockBegin
  2
*PAPER_SPACE
  1

  0
ENDBLK
  5
1D
330
1B
100
AcDbEntity
 67
     1
  8
0
100
AcDbBlockEnd
  0
ENDSEC
  0
SECTION
  2
ENTITIES
  0
LINE
  5
100
100
AcDbEntity
  8
wheels
 62
7
100
AcDbLine
 10
145.017642
 20
209.964031
 30
0.0
 11
5.017657
 21
209.964031
 31
0.0
  0
LINE
  5
101
100
AcDbEntity
  8
wheels
 62
7
100
AcDbLine
 10
5.017657
 20
209.964031
 30
0.0
 11
5.017657
 21
204.981670
 31
0.0
  0
LINE
  5
102
100
AcDbEntity
  8
wheels
 62
7
100
AcDbLine
 10
5.017657
 20
204.981670
 30
0.0
 11
0.017639
 21
204.981670
 31
0.0
  0
LINE
  5
103
100
AcDbEntity
  8
wheels
 62
7
100
AcDbLine
 10
0.017639
 20
204.981670
 30
0.0
 11
0.017639
 21
189.981670
 31
0.0
  0
LINE
  5
104
100
AcDbEntity
  8
wheels
 62
7
100
AcDbLine
 10
0.017639
 20
189.981670
 30
0.0
 11
5.017657
 21
189.981670
 31
0.0
  0
LINE
  5
105
100
AcDbEntity
  8
wheels
 62
7
100
AcDbLine
 10
5.017657
 20
189.981670
 30
0.0
 11
5.017657
 21
152.481669
 31
0.0
  0
LINE
  5
106
100
AcDbEntity
  8
wheels
 62
7
100
AcDbLine
 10
5.017657
 20
152.481669
 30
0.0
 11
0.017639
 21
152.481669
 31
0.0
  0
LINE
  5
107
100
AcDbEntity
  8
wheels
 62
7
100
AcDbLine
 10
0.017639
 20
152.481669
 30
0.0
 11
0.017639
 21
137.481671
 31
0.0
  0
LINE
  5
108
100
AcDbEntity
  8
wheels
 62
7
100
AcDbLine
 10
0.017639
 20
137.481671
 30
0.0
 11
5.017657
 21
137.481671
 31
0.0
  0
LINE
  5
109
100
AcDbEntity
  8
wheels
 62
7
100
AcDbLine
 10
5.017657
 20
137.481671
 30
0.0
 11
5.017657
 21
99.981670
 31
0.0
  0
LINE
  5
10a
100
AcDbEntity
  8
wheels
 62
7
100
AcDbLine
 10
5.017657
 20
99.981670
 30
0.0
 11
0.017639
 21
99.981670
 31
0.0
  0
LINE
  5
10b
100
AcDbEntity
  8
wheels
 62
7
100
AcDbLine
 10
0.017639
 20
99.981670
 30
0.0
 11
0.017639
 21
84.981672
 31
0.0
  0
LINE
  5
10c
100
AcDbEntity
  8
wheels
 62
7
100
AcDbLine
 10
0.017639
 20
84.981672
 30
0.0
 11
5.017657
 21
84.981672
 31
0.0
  0
LINE
  5
10d
100
AcDbEntity
  8
wheels
 62
7
100
AcDbLine
 10
5.017657
 20
84.981672
 30
0.0
 11
5.017657
 21
79.958669
 31
0.0
  0
LINE
  5
10e
100
AcDbEntity
  8
wheels
 62
7
100
AcDbLine
 10
5.017657
 20
79.958669
 30
0.0
 11
145.017642
 21
79.958669
 31
0.0
  0
LINE
  5
10f
100
AcDbEntity
  8
wheels
 62
7
100
AcDbLine
 10
145.017642
 20
79.958669
 30
0.0
 11
145.017642
 21
209.964031
 31
0.0
  0
LINE
  5
110
100
AcDbEntity
  8
wheels
 62
7
100
AcDbLine
 10
135.207290
 20
204.945767
 30
0.0
 11
135.207290
 21
199.980420
 31
0.0
  0
LINE
  5
111
100
AcDbEntity
  8
wheels
 62
7
100
AcDbLine
 10
135.207290
 20
199.980420
 30
0.0
 11
130.241943
 21
199.980420
 31
0.0
  0
LINE
  5
112
100
AcDbEntity
  8
wheels
 62
7
100
AcDbLine
 10
130.241943
 20
199.980420
 30
0.0
 11
130.241943
 21
204.945767
 31
0.0
  0
LINE
  5
113
100
AcDbEntity
  8
wheels
 62
7
100
AcDbLine
 10
130.241943
 20
204.945767
 30
0.0
 11
135.207290
 21
204.945767
 31
0.0
  0
LINE
  5
114
100
AcDbEntity
  8
wheels
 62
7
100
AcDbLine
 10
135.207290
 20
191.945906
 30
0.0
 11
135.207290
 21
186.980559
 31
0.0
  0
LINE
  5
115
100
AcDbEntity
  8
wheels
 62
7
100
AcDbLine
 10
135.207290
 20
186.980559
 30
0.0
 11
130.241644
 21
186.980559
 31
0.0
  0
LINE
  5
116
100
AcDbEntity
  8
wheels
 62
7
100
AcDbLine
 10
130.241644
 20
186.980559
 30
0.0
 11
130.241926
 21
191.945906
 31
0.0
  0
LINE
  5
117
100
AcDbEntity
  8
wheels
 62
7
100
AcDbLine
 10
130.241926
 20
191.945906
 30
0.0
 11
135.207290
 21
191.945906
 31
0.0
  0
LINE
  5
118
100
AcDbEntity
  8
wheels
 62
7
100
AcDbLine
 10
135.207573
 20
102.942455
 30
0.0
 11
135.207290
 21
97.977108
 31
0.0
  0
LINE
  5
119
100
AcDbEntity
  8
wheels
 62
7
100
AcDbLine
 10
135.207290
 20
97.977108
 30
0.0
 11
130.241943
 21
97.977108
 31
0.0
  0
LINE
  5
11a
100
AcDbEntity
  8
wheels
 62
7
100
AcDbLine
 10
130.241943
 20
97.977108
 30
0.0
 11
130.241661
 21
102.942455
 31
0.0
  0
LINE
  5
11b
100
AcDbEntity
  8
wheels
 62
7
100
AcDbLine
 10
130.241661
 20
102.942455
 30
0.0
 11
135.207573
 21
102.942455
 31
0.0
  0
LINE
  5
11c
100
AcDbEntity
  8
wheels
 62
7
100
AcDbLine
 10
135.207573
 20
89.942594
 30
0.0
 11
135.207573
 21
84.977247
 31
0.0
  0
LINE
  5
11d
100
AcDbEntity
  8
wheels
 62
7
100
AcDbLine
 10
135.207573
 20
84.977247
 30
0.0
 11
130.241503
 21
84.977247
 31
0.0
  0
LINE
  5
11e
100
AcDbEntity
  8
wheels
 62
7
100
AcDbLine
 10
130.241503
 20
84.977247
 30
0.0
 11
130.241503
 21
89.942594
 31
0.0
  0
LINE
  5
11f
100
AcDbEntity
  8
wheels
 62
7
100
AcDbLine
 10
130.241503
 20
89.942594
 30
0.0
 11
135.207573
 21
89.942594
 31
0.0
  0
LINE
  5
120
100
AcDbEntity
  8
wheels
 62
7
100
AcDbLine
 10
135.207573
 20
147.479983
 30
0.0
 11
135.207573
 21
142.479358
 31
0.0
  0
LINE
  5
121
100
AcDbEntity
  8
wheels
 62
7
100
AcDbLine
 10
135.207573
 20
142.479358
 30
0.0
 11
130.241573
 21
142.479358
 31
0.0
  0
LINE
  5
122
100
AcDbEntity
  8
wheels
 62
7
100
AcDbLine
 10
130.241573
 20
142.479358
 30
0.0
 11
130.241573
 21
147.479983
 31
0.0
  0
LINE
  5
123
100
AcDbEntity
  8
wheels
 62
7
100
AcDbLine
 10
130.241573
 20
147.479983
 30
0.0
 11
135.207573
 21
147.479983
 31
0.0
  0
LINE
  5
124
100
AcDbEntity
  8
wheels
 62
7
100
AcDbLine
 10
120.205415
 20
204.945767
 30
0.0
 11
120.205415
 21
199.980420
 31
0.0
  0
LINE
  5
125
100
AcDbEntity
  8
wheels
 62
7
100
AcDbLine
 10
120.205415
 20
199.980420
 30
0.0
 11
115.240068
 21
199.980420
 31
0.0
  0
LINE
  5
126
100
AcDbEntity
  8
wheels
 62
7
100
AcDbLine
 10
115.240068
 20
199.980420
 30
0.0
 11
115.240068
 21
204.945767
 31
0.0
  0
LINE
  5
127
100
AcDbEntity
  8
wheels
 62
7
100
AcDbLine
 10
115.240068
 20
204.945767
 30
0.0
 11
120.205415
 21
204.945767
 31
0.0
  0
LINE
  5
128
100
AcDbEntity
  8
wheels
 62
7
100
AcDbLine
 10
120.205415
 20
191.945906
 30
0.0
 11
120.205644
 21
186.980559
 31
0.0
  0
LINE
  5
129
100
AcDbEntity
  8
wheels
 62
7
100
AcDbLine
 10
120.205644
 20
186.980559
 30
0.0
 11
115.239645
 21
186.980559
 31
0.0
  0
LINE
  5
12a
100
AcDbEntity
  8
wheels
 62
7
100
AcDbLine
 10
115.239645
 20
186.980559
 30
0.0
 11
115.239927
 21
191.945906
 31
0.0
  0
LINE
  5
12b
100
AcDbEntity
  8
wheels
 62
7
100
AcDbLine
 10
115.239927
 20
191.945906
 30
0.0
 11
120.205415
 21
191.945906
 31
0.0
  0
LINE
  5
12c
100
AcDbEntity
  8
wheels
 62
7
100
AcDbLine
 10
120.205415
 20
102.942455
 30
0.0
 11
120.205415
 21
97.977108
 31
0.0
  0
LINE
  5
12d
100
AcDbEntity
  8
wheels
 62
7
100
AcDbLine
 10
120.205415
 20
97.977108
 30
0.0
 11
115.240068
 21
97.977108
 31
0.0
  0
LINE
  5
12e
100
AcDbEntity
  8
wheels
 62
7
100
AcDbLine
 10
115.240068
 20
97.977108
 30
0.0
 11
115.240068
 21
102.942455
 31
0.0
  0
LINE
  5
12f
100
AcDbEntity
  8
wheels
 62
7
100
AcDbLine
 10
115.240068
 20
102.942455
 30
0.0
 11
120.205415
 21
102.942455
 31
0.0
  0
LINE
  5
130
100
AcDbEntity
  8
wheels
 62
7
100
AcDbLine
 10
120.205644
 20
89.942594
 30
0.0
 11
120.205644
 21
84.977247
 31
0.0
  0
LINE
  5
131
100
AcDbEntity
  8
wheels
 62
7
100
AcDbLine
 10
120.205644
 20
84.977247
 30
0.0
 11
115.239645
 21
84.977247
 31
0.0
  0
LINE
  5
132
100
AcDbEntity
  8
wheels
 62
7
100
AcDbLine
 10
115.239645
 20
84.977247
 30
0.0
 11
115.239645
 21
89.942594
 31
0.0
  0
LINE
  5
133
100
AcDbEntity
  8
wheels
 62
7
100
AcDbLine
 10
115.239645
 20
89.942594
 30
0.0
 11
120.205644
 21
89.942594
 31
0.0
  0
LINE
  5
134
100
AcDbEntity
  8
wheels
 62
7
100
AcDbLine
 10
105.203645
 20
147.479983
 30
0.0
 11
105.203645
 21
142.479358
 31
0.0
  0
LINE
  5
135
100
AcDbEntity
  8
wheels
 62
7
100
AcDbLine
 10
105.203645
 20
142.479358
 30
0.0
 11
100.238645
 21
142.479358
 31
0.0
  0
LINE
  5
136
100
AcDbEntity
  8
wheels
 62
7
100
AcDbLine
 10
100.238645
 20
142.479358
 30
0.0
 11
100.238645
 21
147.479983
 31
0.0
  0
LINE
  5
137
100
AcDbEntity
  8
wheels
 62
7
100
AcDbLine
 10
100.238645
 20
147.479983
 30
0.0
 11
105.203645
 21
147.479983
 31
0.0
  0
LINE
  5
138
100
AcDbEntity
  8
wheels
 62
7
100
AcDbLine
 10
105.203540
 20
204.945767
 30
0.0
 11
105.203540
 21
199.980420
 31
0.0
  0
LINE
  5
139
100
AcDbEntity
  8
wheels
 62
7
100
AcDbLine
 10
105.203540
 20
199.980420
 30
0.0
 11
100.238193
 21
199.980420
 31
0.0
  0
LINE
  5
13a
100
AcDbEntity
  8
wheels
 62
7
100
AcDbLine
 10
100.238193
 20
199.980420
 30
0.0
 11
100.238193
 21
204.945767
 31
0.0
  0
LINE
  5
13b
100
AcDbEntity
  8
wheels
 62
7
100
AcDbLine
 10
100.238193
 20
204.945767
 30
0.0
 11
105.203540
 21
204.945767
 31
0.0
  0
LINE
  5
13c
100
AcDbEntity
  8
wheels
 62
7
100
AcDbLine
 10
105.203540
 20
191.945906
 30
0.0
 11
105.203645
 21
186.980559
 31
0.0
  0
LINE
  5
13d
100
AcDbEntity
  8
wheels
 62
7
100
AcDbLine
 10
105.203645
 20
186.980559
 30
0.0
 11
100.238645
 21
186.980559
 31
0.0
  0
LINE
  5
13e
100
AcDbEntity
  8
wheels
 62
7
100
AcDbLine
 10
100.238645
 20
186.980559
 30
0.0
 11
100.238758
 21
191.945906
 31
0.0
  0
LINE
  5
13f
100
AcDbEntity
  8
wheels
 62
7
100
AcDbLine
 10
100.238758
 20
191.945906
 30
0.0
 11
105.203540
 21
191.945906
 31
0.0
  0
LINE
  5
140
100
AcDbEntity
  8
wheels
 62
7
100
AcDbLine
 10
105.203645
 20
102.942455
 30
0.0
 11
105.203645
 21
97.977108
 31
0.0
  0
LINE
  5
141
100
AcDbEntity
  8
wheels
 62
7
100
AcDbLine
 10
105.203645
 20
97.977108
 30
0.0
 11
100.238193
 21
97.977108
 31
0.0
  0
LINE
  5
142
100
AcDbEntity
  8
wheels
 62
7
100
AcDbLine
 10
100.238193
 20
97.977108
 30
0.0
 11
100.238193
 21
102.942455
 31
0.0
  0
LINE
  5
143
100
AcDbEntity
  8
wheels
 62
7
100
AcDbLine
 10
100.238193
 20
102.942455
 30
0.0
 11
105.203645
 21
102.942455
 31
0.0
  0
LINE
  5
144
100
AcDbEntity
  8
wheels
 62
7
100
AcDbLine
 10
105.203645
 20
89.942594
 30
0.0
 11
105.203645
 21
84.977247
 31
0.0
  0
LINE
  5
145
100
AcDbEntity
  8
wheels
 62
7
100
AcDbLine
 10
105.203645
 20
84.977247
 30
0.0
 11
100.238645
 21
84.977247
 31
0.0
  0
LINE
  5
146
100
AcDbEntity
  8
wheels
 62
7
100
AcDbLine
 10
100.238645
 20
84.977247
 30
0.0
 11
100.238645
 21
89.942594
 31
0.0
  0
LINE
  5
147
100
AcDbEntity
  8
wheels
 62
7
100
AcDbLine
 10
100.238645
 20
89.942594
 30
0.0
 11
105.203645
 21
89.942594
 31
0.0
  0
LINE
  5
148
100
AcDbEntity
  8
wheels
 62
7
100
AcDbLine
 10
90.201665
 20
204.945767
 30
0.0
 11
90.201665
 21
199.980420
 31
0.0
  0
LINE
  5
149
100
AcDbEntity
  8
wheels
 62
7
100
AcDbLine
 10
90.201665
 20
199.980420
 30
0.0
 11
85.236318
 21
199.980420
 31
0.0
  0
LINE
  5
14a
100
AcDbEntity
  8
wheels
 62
7
100
AcDbLine
 10
85.236318
 20
199.980420
 30
0.0
 11
85.236318
 21
204.945767
 31
0.0
  0
LINE
  5
14b
100
AcDbEntity
  8
wheels
 62
7
100
AcDbLine
 10
85.236318
 20
204.945767
 30
0.0
 11
90.201665
 21
204.945767
 31
0.0
  0
LINE
  5
14c
100
AcDbEntity
  8
wheels
 62
7
100
AcDbLine
 10
90.201665
 20
191.945906
 30
0.0
 11
90.201665
 21
186.980559
 31
0.0
  0
LINE
  5
14d
100
AcDbEntity
  8
wheels
 62
7
100
AcDbLine
 10
90.201665
 20
186.980559
 30
0.0
 11
85.236643
 21
186.980559
 31
0.0
  0
LINE
  5
14e
100
AcDbEntity
  8
wheels
 62
7
100
AcDbLine
 10
85.236643
 20
186.980559
 30
0.0
 11
85.236360
 21
191.945906
 31
0.0
  0
LINE
  5
14f
100
AcDbEntity
  8
wheels
 62
7
100
AcDbLine
 10
85.236360
 20
191.945906
 30
0.0
 11
90.201665
 21
191.945906
 31
0.0
  0
LINE
  5
150
100
AcDbEntity
  8
wheels
 62
7
100
AcDbLine
 10
90.201643
 20
102.942455
 30
0.0
 11
90.201665
 21
97.977108
 31
0.0
  0
LINE
  5
151
100
AcDbEntity
  8
wheels
 62
7
100
AcDbLine
 10
90.201665
 20
97.977108
 30
0.0
 11
85.236643
 21
97.977108
 31
0.0
  0
LINE
  5
152
100
AcDbEntity
  8
wheels
 62
7
100
AcDbLine
 10
85.236643
 20
97.977108
 30
0.0
 11
85.236643
 21
102.942455
 31
0.0
  0
LINE
  5
153
100
AcDbEntity
  8
wheels
 62
7
100
AcDbLine
 10
85.236643
 20
102.942455
 30
0.0
 11
90.201643
 21
102.942455
 31
0.0
  0
LINE
  5
154
100
AcDbEntity
  8
wheels
 62
7
100
AcDbLine
 10
90.201643
 20
89.942594
 30
0.0
 11
90.201643
 21
84.977247
 31
0.0
  0
LINE
  5
155
100
AcDbEntity
  8
wheels
 62
7
100
AcDbLine
 10
90.201643
 20
84.977247
 30
0.0
 11
85.236643
 21
84.977247
 31
0.0
  0
LINE
  5
156
100
AcDbEntity
  8
wheels
 62
7
100
AcDbLine
 10
85.236643
 20
84.977247
 30
0.0
 11
85.236643
 21
89.942594
 31
0.0
  0
LINE
  5
157
100
AcDbEntity
  8
wheels
 62
7
100
AcDbLine
 10
85.236643
 20
89.942594
 30
0.0
 11
90.201643
 21
89.942594
 31
0.0
  0
LINE
  5
158
100
AcDbEntity
  8
wheels
 62
7
100
AcDbLine
 10
75.199790
 20
204.945767
 30
0.0
 11
75.199790
 21
199.980420
 31
0.0
  0
LINE
  5
159
100
AcDbEntity
  8
wheels
 62
7
100
AcDbLine
 10
75.199790
 20
199.980420
 30
0.0
 11
70.234443
 21
199.980420
 31
0.0
  0
LINE
  5
15a
100
AcDbEntity
  8
wheels
 62
7
100
AcDbLine
 10
70.234443
 20
199.980420
 30
0.0
 11
70.234443
 21
204.945767
 31
0.0
  0
LINE
  5
15b
100
AcDbEntity
  8
wheels
 62
7
100
AcDbLine
 10
70.234443
 20
204.945767
 30
0.0
 11
75.199790
 21
204.945767
 31
0.0
  0
LINE
  5
15c
100
AcDbEntity
  8
wheels
 62
7
100
AcDbLine
 10
75.199790
 20
191.945906
 30
0.0
 11
75.199644
 21
186.980559
 31
0.0
  0
LINE
  5
15d
100
AcDbEntity
  8
wheels
 62
7
100
AcDbLine
 10
75.199644
 20
186.980559
 30
0.0
 11
70.234643
 21
186.980559
 31
0.0
  0
LINE
  5
15e
100
AcDbEntity
  8
wheels
 62
7
100
AcDbLine
 10
70.234643
 20
186.980559
 30
0.0
 11
70.234643
 21
191.945906
 31
0.0
  0
LINE
  5
15f
100
AcDbEntity
  8
wheels
 62
7
100
AcDbLine
 10
70.234643
 20
191.945906
 30
0.0
 11
75.199790
 21
191.945906
 31
0.0
  0
LINE
  5
160
100
AcDbEntity
  8
wheels
 62
7
100
AcDbLine
 10
75.199644
 20
102.942455
 30
0.0
 11
75.199644
 21
97.977108
 31
0.0
  0
LINE
  5
161
100
AcDbEntity
  8
wheels
 62
7
100
AcDbLine
 10
75.199644
 20
97.977108
 30
0.0
 11
70.234643
 21
97.977108
 31
0.0
  0
LINE
  5
162
100
AcDbEntity
  8
wheels
 62
7
100
AcDbLine
 10
70.234643
 20
97.977108
 30
0.0
 11
70.234643
 21
102.942455
 31
0.0
  0
LINE
  5
163
100
AcDbEntity
  8
wheels
 62
7
100
AcDbLine
 10
70.234643
 20
102.942455
 30
0.0
 11
75.199644
 21
102.942455
 31
0.0
  0
LINE
  5
164
100
AcDbEntity
  8
wheels
 62
7
100
AcDbLine
 10
75.199644
 20
89.942594
 30
0.0
 11
75.199644
 21
84.977247
 31
0.0
  0
LINE
  5
165
100
AcDbEntity
  8
wheels
 62
7
100
AcDbLine
 10
75.199644
 20
84.977247
 30
0.0
 11
70.234643
 21
84.977247
 31
0.0
  0
LINE
  5
166
100
AcDbEntity
  8
wheels
 62
7
100
AcDbLine
 10
70.234643
 20
84.977247
 30
0.0
 11
70.234643
 21
89.942594
 31
0.0
  0
LINE
  5
167
100
AcDbEntity
  8
wheels
 62
7
100
AcDbLine
 10
70.234643
 20
89.942594
 30
0.0
 11
75.199644
 21
89.942594
 31
0.0
  0
LINE
  5
168
100
AcDbEntity
  8
wheels
 62
7
100
AcDbLine
 10
60.206735
 20
204.945767
 30
0.0
 11
60.206735
 21
199.980420
 31
0.0
  0
LINE
  5
169
100
AcDbEntity
  8
wheels
 62
7
100
AcDbLine
 10
60.206735
 20
199.980420
 30
0.0
 11
55.241388
 21
199.980420
 31
0.0
  0
LINE
  5
16a
100
AcDbEntity
  8
wheels
 62
7
100
AcDbLine
 10
55.241388
 20
199.980420
 30
0.0
 11
55.241388
 21
204.945767
 31
0.0
  0
LINE
  5
16b
100
AcDbEntity
  8
wheels
 62
7
100
AcDbLine
 10
55.241388
 20
204.945767
 30
0.0
 11
60.206735
 21
204.945767
 31
0.0
  0
LINE
  5
16c
100
AcDbEntity
  8
wheels
 62
7
100
AcDbLine
 10
60.206735
 20
191.945906
 30
0.0
 11
60.206735
 21
186.980559
 31
0.0
  0
LINE
  5
16d
100
AcDbEntity
  8
wheels
 62
7
100
AcDbLine
 10
60.206735
 20
186.980559
 30
0.0
 11
55.241388
 21
186.980559
 31
0.0
  0
LINE
  5
16e
100
AcDbEntity
  8
wheels
 62
7
100
AcDbLine
 10
55.241388
 20
186.980559
 30
0.0
 11
55.241388
 21
191.945906
 31
0.0
  0
LINE
  5
16f
100
AcDbEntity
  8
wheels
 62
7
100
AcDbLine
 10
55.241388
 20
191.945906
 30
0.0
 11
60.206735
 21
191.945906
 31
0.0
  0
LINE
  5
170
100
AcDbEntity
  8
wheels
 62
7
100
AcDbLine
 10
60.206735
 20
102.942455
 30
0.0
 11
60.206644
 21
97.977108
 31
0.0
  0
LINE
  5
171
100
AcDbEntity
  8
wheels
 62
7
100
AcDbLine
 10
60.206644
 20
97.977108
 30
0.0
 11
55.241644
 21
97.977108
 31
0.0
  0
LINE
  5
172
100
AcDbEntity
  8
wheels
 62
7
100
AcDbLine
 10
55.241644
 20
97.977108
 30
0.0
 11
55.241644
 21
102.942455
 31
0.0
  0
LINE
  5
173
100
AcDbEntity
  8
wheels
 62
7
100
AcDbLine
 10
55.241644
 20
102.942455
 30
0.0
 11
60.206735
 21
102.942455
 31
0.0
  0
LINE
  5
174
100
AcDbEntity
  8
wheels
 62
7
100
AcDbLine
 10
60.206644
 20
89.942594
 30
0.0
 11
60.206644
 21
84.977247
 31
0.0
  0
LINE
  5
175
100
AcDbEntity
  8
wheels
 62
7
100
AcDbLine
 10
60.206644
 20
84.977247
 30
0.0
 11
55.241644
 21
84.977247
 31
0.0
  0
LINE
  5
176
100
AcDbEntity
  8
wheels
 62
7
100
AcDbLine
 10
55.241644
 20
84.977247
 30
0.0
 11
55.241644
 21
89.942594
 31
0.0
  0
LINE
  5
177
100
AcDbEntity
  8
wheels
 62
7
100
AcDbLine
 10
55.241644
 20
89.942594
 30
0.0
 11
60.206644
 21
89.942594
 31
0.0
  0
LINE
  5
178
100
AcDbEntity
  8
wheels
 62
7
100
AcDbLine
 10
45.204860
 20
204.945767
 30
0.0
 11
45.204860
 21
199.980420
 31
0.0
  0
LINE
  5
179
100
AcDbEntity
  8
wheels
 62
7
100
AcDbLine
 10
45.204860
 20
199.980420
 30
0.0
 11
40.239513
 21
199.980420
 31
0.0
  0
LINE
  5
17a
100
AcDbEntity
  8
wheels
 62
7
100
AcDbLine
 10
40.239513
 20
199.980420
 30
0.0
 11
40.239513
 21
204.945767
 31
0.0
  0
LINE
  5
17b
100
AcDbEntity
  8
wheels
 62
7
100
AcDbLine
 10
40.239513
 20
204.945767
 30
0.0
 11
45.204860
 21
204.945767
 31
0.0
  0
LINE
  5
17c
100
AcDbEntity
  8
wheels
 62
7
100
AcDbLine
 10
45.204860
 20
191.945906
 30
0.0
 11
45.204860
 21
186.980559
 31
0.0
  0
LINE
  5
17d
100
AcDbEntity
  8
wheels
 62
7
100
AcDbLine
 10
45.204860
 20
186.980559
 30
0.0
 11
40.239513
 21
186.980559
 31
0.0
  0
LINE
  5
17e
100
AcDbEntity
  8
wheels
 62
7
100
AcDbLine
 10
40.239513
 20
186.980559
 30
0.0
 11
40.239513
 21
191.945906
 31
0.0
  0
LINE
  5
17f
100
AcDbEntity
  8
wheels
 62
7
100
AcDbLine
 10
40.239513
 20
191.945906
 30
0.0
 11
45.204860
 21
191.945906
 31
0.0
  0
LINE
  5
180
100
AcDbEntity
  8
wheels
 62
7
100
AcDbLine
 10
45.204860
 20
102.942455
 30
0.0
 11
45.204860
 21
97.977108
 31
0.0
  0
LINE
  5
181
100
AcDbEntity
  8
wheels
 62
7
100
AcDbLine
 10
45.204860
 20
97.977108
 30
0.0
 11
40.239513
 21
97.977108
 31
0.0
  0
LINE
  5
182
100
AcDbEntity
  8
wheels
 62
7
100
AcDbLine
 10
40.239513
 20
97.977108
 30
0.0
 11
40.239513
 21
102.942455
 31
0.0
  0
LINE
  5
183
100
AcDbEntity
  8
wheels
 62
7
100
AcDbLine
 10
40.239513
 20
102.942455
 30
0.0
 11
45.204860
 21
102.942455
 31
0.0
  0
LINE
  5
184
100
AcDbEntity
  8
wheels
 62
7
100
AcDbLine
 10
45.204860
 20
89.942594
 30
0.0
 11
45.204860
 21
84.977247
 31
0.0
  0
LINE
  5
185
100
AcDbEntity
  8
wheels
 62
7
100
AcDbLine
 10
45.204860
 20
84.977247
 30
0.0
 11
40.239513
 21
84.977247
 31
0.0
  0
LINE
  5
186
100
AcDbEntity
  8
wheels
 62
7
100
AcDbLine
 10
40.239513
 20
84.977247
 30
0.0
 11
40.239513
 21
89.942594
 31
0.0
  0
LINE
  5
187
100
AcDbEntity
  8
wheels
 62
7
100
AcDbLine
 10
40.239513
 20
89.942594
 30
0.0
 11
45.204860
 21
89.942594
 31
0.0
  0
LINE
  5
188
100
AcDbEntity
  8
wheels
 62
7
100
AcDbLine
 10
30.202985
 20
204.963406
 30
0.0
 11
30.202985
 21
199.998059
 31
0.0
  0
LINE
  5
189
100
AcDbEntity
  8
wheels
 62
7
100
AcDbLine
 10
30.202985
 20
199.998059
 30
0.0
 11
25.237638
 21
199.998059
 31
0.0
  0
LINE
  5
18a
100
AcDbEntity
  8
wheels
 62
7
100
AcDbLine
 10
25.237638
 20
199.998059
 30
0.0
 11
25.237638
 21
204.963406
 31
0.0
  0
LINE
  5
18b
100
AcDbEntity
  8
wheels
 62
7
100
AcDbLine
 10
25.237638
 20
204.963406
 30
0.0
 11
30.202985
 21
204.963406
 31
0.0
  0
LINE
  5
18c
100
AcDbEntity
  8
wheels
 62
7
100
AcDbLine
 10
30.202985
 20
191.963545
 30
0.0
 11
30.202985
 21
186.998198
 31
0.0
  0
LINE
  5
18d
100
AcDbEntity
  8
wheels
 62
7
100
AcDbLine
 10
30.202985
 20
186.998198
 30
0.0
 11
25.237638
 21
186.998198
 31
0.0
  0
LINE
  5
18e
100
AcDbEntity
  8
wheels
 62
7
100
AcDbLine
 10
25.237638
 20
186.998198
 30
0.0
 11
25.237638
 21
191.963545
 31
0.0
  0
LINE
  5
18f
100
AcDbEntity
  8
wheels
 62
7
100
AcDbLine
 10
25.237638
 20
191.963545
 30
0.0
 11
30.202985
 21
191.963545
 31
0.0
  0
LINE
  5
190
100
AcDbEntity
  8
wheels
 62
7
100
AcDbLine
 10
30.202985
 20
102.960094
 30
0.0
 11
30.202985
 21
97.994747
 31
0.0
  0
LINE
  5
191
100
AcDbEntity
  8
wheels
 62
7
100
AcDbLine
 10
30.202985
 20
97.994747
 30
0.0
 11
25.237638
 21
97.994747
 31
0.0
  0
LINE
  5
192
100
AcDbEntity
  8
wheels
 62
7
100
AcDbLine
 10
25.237638
 20
97.994747
 30
0.0
 11
25.237638
 21
102.960094
 31
0.0
  0
LINE
  5
193
100
AcDbEntity
  8
wheels
 62
7
100
AcDbLine
 10
25.237638
 20
102.960094
 30
0.0
 11
30.202985
 21
102.960094
 31
0.0
  0
LINE
  5
194
100
AcDbEntity
  8
wheels
 62
7
100
AcDbLine
 10
30.202985
 20
89.960233
 30
0.0
 11
30.202985
 21
84.994885
 31
0.0
  0
LINE
  5
195
100
AcDbEntity
  8
wheels
 62
7
100
AcDbLine
 10
30.202985
 20
84.994885
 30
0.0
 11
25.237638
 21
84.994885
 31
0.0
  0
LINE
  5
196
100
AcDbEntity
  8
wheels
 62
7
100
AcDbLine
 10
25.237638
 20
84.994885
 30
0.0
 11
25.237638
 21
89.960233
 31
0.0
  0
LINE
  5
197
100
AcDbEntity
  8
wheels
 62
7
100
AcDbLine
 10
25.237638
 20
89.960233
 30
0.0
 11
30.202985
 21
89.960233
 31
0.0
  0
LINE
  5
198
100
AcDbEntity
  8
wheels
 62
7
100
AcDbLine
 10
21.010244
 20
191.968267
 30
0.0
 11
21.010244
 21
181.995074
 31
0.0
  0
LINE
  5
199
100
AcDbEntity
  8
wheels
 62
7
100
AcDbLine
 10
21.010244
 20
181.995074
 30
0.0
 11
18.035284
 21
181.995074
 31
0.0
  0
LINE
  5
19a
100
AcDbEntity
  8
wheels
 62
7
100
AcDbLine
 10
18.035284
 20
181.995074
 30
0.0
 11
18.035284
 21
191.968267
 31
0.0
  0
LINE
  5
19b
100
AcDbEntity
  8
wheels
 62
7
100
AcDbLine
 10
18.035284
 20
191.968267
 30
0.0
 11
21.010244
 21
191.968267
 31
0.0
  0
LINE
  5
19c
100
AcDbEntity
  8
wheels
 62
7
100
AcDbLine
 10
21.010244
 20
107.964028
 30
0.0
 11
21.010244
 21
97.990835
 31
0.0
  0
LINE
  5
19d
100
AcDbEntity
  8
wheels
 62
7
100
AcDbLine
 10
21.010244
 20
97.990835
 30
0.0
 11
18.035284
 21
97.990835
 31
0.0
  0
LINE
  5
19e
100
AcDbEntity
  8
wheels
 62
7
100
AcDbLine
 10
18.035284
 20
97.990835
 30
0.0
 11
18.035284
 21
107.964028
 31
0.0
  0
LINE
  5
19f
100
AcDbEntity
  8
wheels
 62
7
100
AcDbLine
 10
18.035284
 20
107.964028
 30
0.0
 11
21.010244
 21
107.964028
 31
0.0
  0
LINE
  5
1a0
100
AcDbEntity
  8
wheels
 62
7
100
AcDbLine
 10
30.255290
 20
117.964027
 30
0.0
 11
30.255290
 21
112.964027
 31
0.0
  0
LINE
  5
1a1
100
AcDbEntity
  8
wheels
 62
7
100
AcDbLine
 10
30.255290
 20
112.964027
 30
0.0
 11
25.255290
 21
112.964027
 31
0.0
  0
LINE
  5
1a2
100
AcDbEntity
  8
wheels
 62
7
100
AcDbLine
 10
25.255290
 20
112.964027
 30
0.0
 11
25.255290
 21
117.964027
 31
0.0
  0
LINE
  5
1a3
100
AcDbEntity
  8
wheels
 62
7
100
AcDbLine
 10
25.255290
 20
117.964027
 30
0.0
 11
30.255290
 21
117.964027
 31
0.0
  0
LINE
  5
1a4
100
AcDbEntity
  8
wheels
 62
7
100
AcDbLine
 10
45.255289
 20
117.964027
 30
0.0
 11
45.255289
 21
112.964027
 31
0.0
  0
LINE
  5
1a5
100
AcDbEntity
  8
wheels
 62
7
100
AcDbLine
 10
45.255289
 20
112.964027
 30
0.0
 11
40.255288
 21
112.964027
 31
0.0
  0
LINE
  5
1a6
100
AcDbEntity
  8
wheels
 62
7
100
AcDbLine
 10
40.255288
 20
112.964027
 30
0.0
 11
40.255288
 21
117.964027
 31
0.0
  0
LINE
  5
1a7
100
AcDbEntity
  8
wheels
 62
7
100
AcDbLine
 10
40.255288
 20
117.964027
 30
0.0
 11
45.255289
 21
117.964027
 31
0.0
  0
LINE
  5
1a8
100
AcDbEntity
  8
wheels
 62
7
100
AcDbLine
 10
60.255284
 20
117.964027
 30
0.0
 11
60.255284
 21
112.964027
 31
0.0
  0
LINE
  5
1a9
100
AcDbEntity
  8
wheels
 62
7
100
AcDbLine
 10
60.255284
 20
112.964027
 30
0.0
 11
55.255284
 21
112.964027
 31
0.0
  0
LINE
  5
1aa
100
AcDbEntity
  8
wheels
 62
7
100
AcDbLine
 10
55.255284
 20
112.964027
 30
0.0
 11
55.255284
 21
117.964027
 31
0.0
  0
LINE
  5
1ab
100
AcDbEntity
  8
wheels
 62
7
100
AcDbLine
 10
55.255284
 20
117.964027
 30
0.0
 11
60.255284
 21
117.964027
 31
0.0
  0
LINE
  5
1ac
100
AcDbEntity
  8
wheels
 62
7
100
AcDbLine
 10
74.523734
 20
117.964027
 30
0.0
 11
74.523734
 21
112.964027
 31
0.0
  0
LINE
  5
1ad
100
AcDbEntity
  8
wheels
 62
7
100
AcDbLine
 10
74.523734
 20
112.964027
 30
0.0
 11
69.523734
 21
112.964027
 31
0.0
  0
LINE
  5
1ae
100
AcDbEntity
  8
wheels
 62
7
100
AcDbLine
 10
69.523734
 20
112.964027
 30
0.0
 11
69.523734
 21
117.964027
 31
0.0
  0
LINE
  5
1af
100
AcDbEntity
  8
wheels
 62
7
100
AcDbLine
 10
69.523734
 20
117.964027
 30
0.0
 11
74.523734
 21
117.964027
 31
0.0
  0
LINE
  5
1b0
100
AcDbEntity
  8
wheels
 62
7
100
AcDbLine
 10
30.174950
 20
176.918677
 30
0.0
 11
30.174950
 21
171.918677
 31
0.0
  0
LINE
  5
1b1
100
AcDbEntity
  8
wheels
 62
7
100
AcDbLine
 10
30.174950
 20
171.918677
 30
0.0
 11
25.174950
 21
171.918677
 31
0.0
  0
LINE
  5
1b2
100
AcDbEntity
  8
wheels
 62
7
100
AcDbLine
 10
25.174950
 20
171.918677
 30
0.0
 11
25.174950
 21
176.918677
 31
0.0
  0
LINE
  5
1b3
100
AcDbEntity
  8
wheels
 62
7
100
AcDbLine
 10
25.174950
 20
176.918677
 30
0.0
 11
30.174950
 21
176.918677
 31
0.0
  0
LINE
  5
1b4
100
AcDbEntity
  8
wheels
 62
7
100
AcDbLine
 10
45.261729
 20
176.918677
 30
0.0
 11
45.261729
 21
171.918677
 31
0.0
  0
LINE
  5
1b5
100
AcDbEntity
  8
wheels
 62
7
100
AcDbLine
 10
45.261729
 20
171.918677
 30
0.0
 11
40.261729
 21
171.918677
 31
0.0
  0
LINE
  5
1b6
100
AcDbEntity
  8
wheels
 62
7
100
AcDbLine
 10
40.261729
 20
171.918677
 30
0.0
 11
40.261729
 21
176.918677
 31
0.0
  0
LINE
  5
1b7
100
AcDbEntity
  8
wheels
 62
7
100
AcDbLine
 10
40.261729
 20
176.918677
 30
0.0
 11
45.261729
 21
176.918677
 31
0.0
  0
LINE
  5
1b8
100
AcDbEntity
  8
wheels
 62
7
100
AcDbLine
 10
60.261727
 20
176.918677
 30
0.0
 11
60.261727
 21
171.918677
 31
0.0
  0
LINE
  5
1b9
100
AcDbEntity
  8
wheels
 62
7
100
AcDbLine
 10
60.261727
 20
171.918677
 30
0.0
 11
55.261727
 21
171.918677
 31
0.0
  0
LINE
  5
1ba
100
AcDbEntity
  8
wheels
 62
7
100
AcDbLine
 10
55.261727
 20
171.918677
 30
0.0
 11
55.261727
 21
176.918677
 31
0.0
  0
LINE
  5
1bb
100
AcDbEntity
  8
wheels
 62
7
100
AcDbLine
 10
55.261727
 20
176.918677
 30
0.0
 11
60.261727
 21
176.918677
 31
0.0
  0
LINE
  5
1bc
100
AcDbEntity
  8
wheels
 62
7
100
AcDbLine
 10
75.263396
 20
176.964031
 30
0.0
 11
75.263396
 21
171.964031
 31
0.0
  0
LINE
  5
1bd
100
AcDbEntity
  8
wheels
 62
7
100
AcDbLine
 10
75.263396
 20
171.964031
 30
0.0
 11
70.263396
 21
171.964031
 31
0.0
  0
LINE
  5
1be
100
AcDbEntity
  8
wheels
 62
7
100
AcDbLine
 10
70.263396
 20
171.964031
 30
0.0
 11
70.263396
 21
176.964031
 31
0.0
  0
LINE
  5
1bf
100
AcDbEntity
  8
wheels
 62
7
100
AcDbLine
 10
70.263396
 20
176.964031
 30
0.0
 11
75.263396
 21
176.964031
 31
0.0
  0
LINE
  5
1c0
100
AcDbEntity
  8
wheels
 62
7
100
AcDbLine
 10
113.297215
 20
147.462029
 30
0.0
 11
113.297215
 21
142.462029
 31
0.0
  0
LINE
  5
1c1
100
AcDbEntity
  8
wheels
 62
7
100
AcDbLine
 10
113.297215
 20
142.462029
 30
0.0
 11
108.297215
 21
142.462029
 31
0.0
  0
LINE
  5
1c2
100
AcDbEntity
  8
wheels
 62
7
100
AcDbLine
 10
108.297215
 20
142.462029
 30
0.0
 11
108.297215
 21
147.462029
 31
0.0
  0
LINE
  5
1c3
100
AcDbEntity
  8
wheels
 62
7
100
AcDbLine
 10
108.297215
 20
147.462029
 30
0.0
 11
113.297215
 21
147.462029
 31
0.0
  0
LINE
  5
1c4
100
AcDbEntity
  8
wheels
 62
7
100
AcDbLine
 10
121.876725
 20
147.462029
 30
0.0
 11
121.876725
 21
142.462029
 31
0.0
  0
LINE
  5
1c5
100
AcDbEntity
  8
wheels
 62
7
100
AcDbLine
 10
121.876725
 20
142.462029
 30
0.0
 11
116.876725
 21
142.462029
 31
0.0
  0
LINE
  5
1c6
100
AcDbEntity
  8
wheels
 62
7
100
AcDbLine
 10
116.876725
 20
142.462029
 30
0.0
 11
116.876725
 21
147.462029
 31
0.0
  0
LINE
  5
1c7
100
AcDbEntity
  8
wheels
 62
7
100
AcDbLine
 10
116.876725
 20
147.462029
 30
0.0
 11
121.876725
 21
147.462029
 31
0.0
  0
SPLINE
  5
1c8
100
AcDbEntity
  8
wheels
 62
7
100
AcDbSpline
 70
8
 71
3
 72
8
 73
4
 74
0
 40
0
 40
0
 40
0
 40
0
 40
1
 40
1
 40
1
 40
1
 10
94.276640
 20
118.431318
 30
0.0
 10
93.480601
 20
118.431318
 30
0.0
 10
92.835283
 20
119.076636
 30
0.0
 10
92.835283
 20
119.872675
 30
0.0
  0
SPLINE
  5
1c9
100
AcDbEntity
  8
wheels
 62
7
100
AcDbSpline
 70
8
 71
3
 72
8
 73
4
 74
0
 40
0
 40
0
 40
0
 40
0
 40
1
 40
1
 40
1
 40
1
 10
92.835283
 20
119.872675
 30
0.0
 10
92.835283
 20
120.668714
 30
0.0
 10
93.480601
 20
121.314031
 30
0.0
 10
94.276640
 20
121.314031
 30
0.0
  0
SPLINE
  5
1ca
100
AcDbEntity
  8
wheels
 62
7
100
AcDbSpline
 70
8
 71
3
 72
8
 73
4
 74
0
 40
0
 40
0
 40
0
 40
0
 40
1
 40
1
 40
1
 40
1
 10
94.276640
 20
121.314031
 30
0.0
 10
95.072679
 20
121.314031
 30
0.0
 10
95.717996
 20
120.668714
 30
0.0
 10
95.717996
 20
119.872675
 30
0.0
  0
SPLINE
  5
1cb
100
AcDbEntity
  8
wheels
 62
7
100
AcDbSpline
 70
8
 71
3
 72
8
 73
4
 74
0
 40
0
 40
0
 40
0
 40
0
 40
1
 40
1
 40
1
 40
1
 10
95.717996
 20
119.872675
 30
0.0
 10
95.717996
 20
119.076636
 30
0.0
 10
95.072679
 20
118.431318
 30
0.0
 10
94.276640
 20
118.431318
 30
0.0
  0
LINE
  5
1cc
100
AcDbEntity
  8
wheels
 62
7
100
AcDbLine
 10
94.276640
 20
118.431318
 30
0.0
 11
94.276640
 21
118.431318
 31
0.0
  0
SPLINE
  5
1cd
100
AcDbEntity
  8
wheels
 62
7
100
AcDbSpline
 70
8
 71
3
 72
8
 73
4
 74
0
 40
0
 40
0
 40
0
 40
0
 40
1
 40
1
 40
1
 40
1
 10
94.276640
 20
168.431317
 30
0.0
 10
93.480601
 20
168.431317
 30
0.0
 10
92.835283
 20
169.076634
 30
0.0
 10
92.835283
 20
169.872674
 30
0.0
  0
SPLINE
  5
1ce
100
AcDbEntity
  8
wheels
 62
7
100
AcDbSpline
 70
8
 71
3
 72
8
 73
4
 74
0
 40
0
 40
0
 40
0
 40
0
 40
1
 40
1
 40
1
 40
1
 10
92.835283
 20
169.872674
 30
0.0
 10
92.835283
 20
170.668713
 30
0.0
 10
93.480601
 20
171.314030
 30
0.0
 10
94.276640
 20
171.314030
 30
0.0
  0
SPLINE
  5
1cf
100
AcDbEntity
  8
wheels
 62
7
100
AcDbSpline
 70
8
 71
3
 72
8
 73
4
 74
0
 40
0
 40
0
 40
0
 40
0
 40
1
 40
1
 40
1
 40
1
 10
94.276640
 20
171.314030
 30
0.0
 10
95.072679
 20
171.314030
 30
0.0
 10
95.717996
 20
170.668713
 30
0.0
 10
95.717996
 20
169.872674
 30
0.0
  0
SPLINE
  5
1d0
100
AcDbEntity
  8
wheels
 62
7
100
AcDbSpline
 70
8
 71
3
 72
8
 73
4
 74
0
 40
0
 40
0
 40
0
 40
0
 40
1
 40
1
 40
1
 40
1
 10
95.717996
 20
169.872674
 30
0.0
 10
95.717996
 20
169.076634
 30
0.0
 10
95.072679
 20
168.431317
 30
0.0
 10
94.276640
 20
168.431317
 30
0.0
  0
LINE
  5
1d1
100
AcDbEntity
  8
wheels
 62
7
100
AcDbLine
 10
94.276640
 20
168.431317
 30
0.0
 11
94.276640
 21
168.431317
 31
0.0
  0
SPLINE
  5
1d2
100
AcDbEntity
  8
wheels
 62
7
100
AcDbSpline
 70
8
 71
3
 72
8
 73
4
 74
0
 40
0
 40
0
 40
0
 40
0
 40
1
 40
1
 40
1
 40
1
 10
36.476640
 20
168.431317
 30
0.0
 10
35.680601
 20
168.431317
 30
0.0
 10
35.035283
 20
169.076634
 30
0.0
 10
35.035283
 20
169.872674
 30
0.0
  0
SPLINE
  5
1d3
100
AcDbEntity
  8
wheels
 62
7
100
AcDbSpline
 70
8
 71
3
 72
8
 73
4
 74
0
 40
0
 40
0
 40
0
 40
0
 40
1
 40
1
 40
1
 40
1
 10
35.035283
 20
169.872674
 30
0.0
 10
35.035283
 20
170.668713
 30
0.0
 10
35.680601
 20
171.314030
 30
0.0
 10
36.476640
 20
171.314030
 30
0.0
  0
SPLINE
  5
1d4
100
AcDbEntity
  8
wheels
 62
7
100
AcDbSpline
 70
8
 71
3
 72
8
 73
4
 74
0
 40
0
 40
0
 40
0
 40
0
 40
1
 40
1
 40
1
 40
1
 10
36.476640
 20
171.314030
 30
0.0
 10
37.272679
 20
171.314030
 30
0.0
 10
37.917996
 20
170.668713
 30
0.0
 10
37.917996
 20
169.872674
 30
0.0
  0
SPLINE
  5
1d5
100
AcDbEntity
  8
wheels
 62
7
100
AcDbSpline
 70
8
 71
3
 72
8
 73
4
 74
0
 40
0
 40
0
 40
0
 40
0
 40
1
 40
1
 40
1
 40
1
 10
37.917996
 20
169.872674
 30
0.0
 10
37.917996
 20
169.076634
 30
0.0
 10
37.272679
 20
168.431317
 30
0.0
 10
36.476640
 20
168.431317
 30
0.0
  0
LINE
  5
1d6
100
AcDbEntity
  8
wheels
 62
7
100
AcDbLine
 10
36.476640
 20
168.431317
 30
0.0
 11
36.476640
 21
168.431317
 31
0.0
  0
SPLINE
  5
1d7
100
AcDbEntity
  8
wheels
 62
7
100
AcDbSpline
 70
8
 71
3
 72
8
 73
4
 74
0
 40
0
 40
0
 40
0
 40
0
 40
1
 40
1
 40
1
 40
1
 10
36.476640
 20
118.431318
 30
0.0
 10
35.680601
 20
118.431318
 30
0.0
 10
35.035283
 20
119.076636
 30
0.0
 10
35.035283
 20
119.872675
 30
0.0
  0
SPLINE
  5
1d8
100
AcDbEntity
  8
wheels
 62
7
100
AcDbSpline
 70
8
 71
3
 72
8
 73
4
 74
0
 40
0
 40
0
 40
0
 40
0
 40
1
 40
1
 40
1
 40
1
 10
35.035283
 20
119.872675
 30
0.0
 10
35.035283
 20
120.668714
 30
0.0
 10
35.680601
 20
121.314031
 30
0.0
 10
36.476640
 20
121.314031
 30
0.0
  0
SPLINE
  5
1d9
100
AcDbEntity
  8
wheels
 62
7
100
AcDbSpline
 70
8
 71
3
 72
8
 73
4
 74
0
 40
0
 40
0
 40
0
 40
0
 40
1
 40
1
 40
1
 40
1
 10
36.476640
 20
121.314031
 30
0.0
 10
37.272679
 20
121.314031
 30
0.0
 10
37.917996
 20
120.668714
 30
0.0
 10
37.917996
 20
119.872675
 30
0.0
  0
SPLINE
  5
1da
100
AcDbEntity
  8
wheels
 62
7
100
AcDbSpline
 70
8
 71
3
 72
8
 73
4
 74
0
 40
0
 40
0
 40
0
 40
0
 40
1
 40
1
 40
1
 40
1
 10
37.917996
 20
119.872675
 30
0.0
 10
37.917996
 20
119.076636
 30
0.0
 10
37.272679
 20
118.431318
 30
0.0
 10
36.476640
 20
118.431318
 30
0.0
  0
LINE
  5
1db
100
AcDbEntity
  8
wheels
 62
7
100
AcDbLine
 10
36.476640
 20
118.431318
 30
0.0
 11
36.476640
 21
118.431318
 31
0.0
  0
LINE
  5
1dc
100
AcDbEntity
  8
wheels
 62
7
100
AcDbLine
 10
188.084319
 20
209.981670
 30
0.0
 11
148.101950
 21
209.981670
 31
0.0
  0
LINE
  5
1dd
100
AcDbEntity
  8
wheels
 62
7
100
AcDbLine
 10
148.101950
 20
209.981670
 30
0.0
 11
148.101950
 21
79.985650
 31
0.0
  0
LINE
  5
1de
100
AcDbEntity
  8
wheels
 62
7
100
AcDbLine
 10
148.101950
 20
79.985650
 30
0.0
 11
188.084319
 21
79.985650
 31
0.0
  0
LINE
  5
1df
100
AcDbEntity
  8
wheels
 62
7
100
AcDbLine
 10
188.084319
 20
79.985650
 30
0.0
 11
188.084319
 21
209.981670
 31
0.0
  0
LINE
  5
1e0
100
AcDbEntity
  8
wheels
 62
7
100
AcDbLine
 10
180.084504
 20
204.972851
 30
0.0
 11
180.084222
 21
84.981762
 31
0.0
  0
LINE
  5
1e1
100
AcDbEntity
  8
wheels
 62
7
100
AcDbLine
 10
180.084222
 20
84.981762
 30
0.0
 11
177.084222
 21
84.981762
 31
0.0
  0
LINE
  5
1e2
100
AcDbEntity
  8
wheels
 62
7
100
AcDbLine
 10
177.084222
 20
84.981762
 30
0.0
 11
177.084505
 21
204.972851
 31
0.0
  0
LINE
  5
1e3
100
AcDbEntity
  8
wheels
 62
7
100
AcDbLine
 10
177.084505
 20
204.972851
 30
0.0
 11
180.084504
 21
204.972851
 31
0.0
  0
LINE
  5
1e4
100
AcDbEntity
  8
wheels
 62
7
100
AcDbLine
 10
172.084317
 20
204.981670
 30
0.0
 11
172.084317
 21
84.977455
 31
0.0
  0
LINE
  5
1e5
100
AcDbEntity
  8
wheels
 62
7
100
AcDbLine
 10
172.084317
 20
84.977455
 30
0.0
 11
169.084317
 21
84.977455
 31
0.0
  0
LINE
  5
1e6
100
AcDbEntity
  8
wheels
 62
7
100
AcDbLine
 10
169.084317
 20
84.977455
 30
0.0
 11
169.084317
 21
204.981670
 31
0.0
  0
LINE
  5
1e7
100
AcDbEntity
  8
wheels
 62
7
100
AcDbLine
 10
169.084317
 20
204.981670
 30
0.0
 11
172.084317
 21
204.981670
 31
0.0
  0
LINE
  5
1e8
100
AcDbEntity
  8
wheels
 62
7
100
AcDbLine
 10
164.084319
 20
204.972851
 30
0.0
 11
164.084319
 21
84.981762
 31
0.0
  0
LINE
  5
1e9
100
AcDbEntity
  8
wheels
 62
7
100
AcDbLine
 10
164.084319
 20
84.981762
 30
0.0
 11
161.084316
 21
84.981762
 31
0.0
  0
LINE
  5
1ea
100
AcDbEntity
  8
wheels
 62
7
100
AcDbLine
 10
161.084316
 20
84.981762
 30
0.0
 11
161.084316
 21
204.972851
 31
0.0
  0
LINE
  5
1eb
100
AcDbEntity
  8
wheels
 62
7
100
AcDbLine
 10
161.084316
 20
204.972851
 30
0.0
 11
164.084319
 21
204.972851
 31
0.0
  0
LINE
  5
1ec
100
AcDbEntity
  8
wheels
 62
7
100
AcDbLine
 10
153.834310
 20
204.990490
 30
0.0
 11
153.834310
 21
189.981670
 31
0.0
  0
LINE
  5
1ed
100
AcDbEntity
  8
wheels
 62
7
100
AcDbLine
 10
153.834310
 20
189.981670
 30
0.0
 11
151.100561
 21
189.981670
 31
0.0
  0
LINE
  5
1ee
100
AcDbEntity
  8
wheels
 62
7
100
AcDbLine
 10
151.100561
 20
189.981670
 30
0.0
 11
151.100561
 21
204.990490
 31
0.0
  0
LINE
  5
1ef
100
AcDbEntity
  8
wheels
 62
7
100
AcDbLine
 10
151.100561
 20
204.990490
 30
0.0
 11
153.834310
 21
204.990490
 31
0.0
  0
LINE
  5
1f0
100
AcDbEntity
  8
wheels
 62
7
100
AcDbLine
 10
153.834310
 20
152.462509
 30
0.0
 11
153.834310
 21
137.548829
 31
0.0
  0
LINE
  5
1f1
100
AcDbEntity
  8
wheels
 62
7
100
AcDbLine
 10
153.834310
 20
137.548829
 30
0.0
 11
151.100561
 21
137.548829
 31
0.0
  0
LINE
  5
1f2
100
AcDbEntity
  8
wheels
 62
7
100
AcDbLine
 10
151.100561
 20
137.548829
 30
0.0
 11
151.100561
 21
152.462509
 31
0.0
  0
LINE
  5
1f3
100
AcDbEntity
  8
wheels
 62
7
100
AcDbLine
 10
151.100561
 20
152.462509
 30
0.0
 11
153.834310
 21
152.462509
 31
0.0
  0
LINE
  5
1f4
100
AcDbEntity
  8
wheels
 62
7
100
AcDbLine
 10
153.834310
 20
99.961692
 30
0.0
 11
153.834310
 21
85.048011
 31
0.0
  0
LINE
  5
1f5
100
AcDbEntity
  8
wheels
 62
7
100
AcDbLine
 10
153.834310
 20
85.048011
 30
0.0
 11
151.100561
 21
85.048011
 31
0.0
  0
LINE
  5
1f6
100
AcDbEntity
  8
wheels
 62
7
100
AcDbLine
 10
151.100561
 20
85.048011
 30
0.0
 11
151.100561
 21
99.961692
 31
0.0
  0
LINE
  5
1f7
100
AcDbEntity
  8
wheels
 62
7
100
AcDbLine
 10
151.100561
 20
99.961692
 30
0.0
 11
153.834310
 21
99.961692
 31
0.0
  0
SPLINE
  5
1f8
100
AcDbEntity
  8
wheels
 62
7
100
AcDbSpline
 70
8
 71
3
 72
8
 73
4
 74
0
 40
0
 40
0
 40
0
 40
0
 40
1
 40
1
 40
1
 40
1
 10
64.972853
 20
31.547156
 30
0.0
 10
65.227957
 20
40.320382
 30
0.0
 10
61.920848
 20
48.823254
 30
0.0
 10
55.804985
 20
55.118555
 30
0.0
  0
SPLINE
  5
1f9
100
AcDbEntity
  8
wheels
 62
7
100
AcDbSpline
 70
8
 71
3
 72
8
 73
4
 74
0
 40
0
 40
0
 40
0
 40
0
 40
1
 40
1
 40
1
 40
1
 10
55.804985
 20
55.118555
 30
0.0
 10
49.689123
 20
61.413856
 30
0.0
 10
41.285413
 20
64.965398
 30
0.0
 10
32.508478
 20
64.964031
 30
0.0
  0
SPLINE
  5
1fa
100
AcDbEntity
  8
wheels
 62
7
100
AcDbSpline
 70
8
 71
3
 72
8
 73
4
 74
0
 40
0
 40
0
 40
0
 40
0
 40
1
 40
1
 40
1
 40
1
 10
32.508478
 20
64.964031
 30
0.0
 10
20.906923
 20
64.964031
 30
0.0
 10
10.186644
 20
58.774675
 30
0.0
 10
4.385867
 20
48.727433
 30
0.0
  0
SPLINE
  5
1fb
100
AcDbEntity
  8
wheels
 62
7
100
AcDbSpline
 70
8
 71
3
 72
8
 73
4
 74
0
 40
0
 40
0
 40
0
 40
0
 40
1
 40
1
 40
1
 40
1
 10
4.385867
 20
48.727433
 30
0.0
 10
-1.414911
 20
38.680192
 30
0.0
 10
-1.414911
 20
26.301480
 30
0.0
 10
4.385867
 20
16.254239
 30
0.0
  0
SPLINE
  5
1fc
100
AcDbEntity
  8
wheels
 62
7
100
AcDbSpline
 70
8
 71
3
 72
8
 73
4
 74
0
 40
0
 40
0
 40
0
 40
0
 40
1
 40
1
 40
1
 40
1
 10
4.385867
 20
16.254239
 30
0.0
 10
10.186644
 20
6.206998
 30
0.0
 10
20.906923
 20
0.017642
 30
0.0
 10
32.508478
 20
0.017642
 30
0.0
  0
SPLINE
  5
1fd
100
AcDbEntity
  8
wheels
 62
7
100
AcDbSpline
 70
8
 71
3
 72
8
 73
4
 74
0
 40
0
 40
0
 40
0
 40
0
 40
1
 40
1
 40
1
 40
1
 10
32.508478
 20
0.017642
 30
0.0
 10
50.077379
 20
0.014910
 30
0.0
 10
64.462379
 20
13.985671
 30
0.0
 10
64.972853
 20
31.547156
 30
0.0
  0
LINE
  5
1fe
100
AcDbEntity
  8
wheels
 62
7
100
AcDbLine
 10
64.972853
 20
31.547156
 30
0.0
 11
64.972853
 21
31.547156
 31
0.0
  0
SPLINE
  5
1ff
100
AcDbEntity
  8
wheels
 62
7
100
AcDbSpline
 70
8
 71
3
 72
8
 73
4
 74
0
 40
0
 40
0
 40
0
 40
0
 40
1
 40
1
 40
1
 40
1
 10
44.247158
 20
42.615558
 30
0.0
 10
44.281428
 20
42.133784
 30
0.0
 10
44.113627
 20
41.659483
 30
0.0
 10
43.784013
 20
41.306445
 30
0.0
  0
SPLINE
  5
200
100
AcDbEntity
  8
wheels
 62
7
100
AcDbSpline
 70
8
 71
3
 72
8
 73
4
 74
0
 40
0
 40
0
 40
0
 40
0
 40
1
 40
1
 40
1
 40
1
 10
43.784013
 20
41.306445
 30
0.0
 10
43.454399
 20
40.953407
 30
0.0
 10
42.992716
 20
40.753490
 30
0.0
 10
42.509725
 20
40.754656
 30
0.0
  0
SPLINE
  5
201
100
AcDbEntity
  8
wheels
 62
7
100
AcDbSpline
 70
8
 71
3
 72
8
 73
4
 74
0
 40
0
 40
0
 40
0
 40
0
 40
1
 40
1
 40
1
 40
1
 10
42.509725
 20
40.754656
 30
0.0
 10
41.560140
 20
40.768633
 30
0.0
 10
40.797681
 20
41.542398
 30
0.0
 10
40.797681
 20
42.492086
 30
0.0
  0
SPLINE
  5
202
100
AcDbEntity
  8
wheels
 62
7
100
AcDbSpline
 70
8
 71
3
 72
8
 73
4
 74
0
 40
0
 40
0
 40
0
 40
0
 40
1
 40
1
 40
1
 40
1
 10
40.797681
 20
42.492086
 30
0.0
 10
40.797681
 20
43.441774
 30
0.0
 10
41.560140
 20
44.215539
 30
0.0
 10
42.509725
 20
44.229517
 30
0.0
  0
SPLINE
  5
203
100
AcDbEntity
  8
wheels
 62
7
100
AcDbSpline
 70
8
 71
3
 72
8
 73
4
 74
0
 40
0
 40
0
 40
0
 40
0
 40
1
 40
1
 40
1
 40
1
 10
42.509725
 20
44.229517
 30
0.0
 10
43.423025
 20
44.231735
 30
0.0
 10
44.182164
 20
43.526546
 30
0.0
 10
44.247158
 20
42.615558
 30
0.0
  0
LINE
  5
204
100
AcDbEntity
  8
wheels
 62
7
100
AcDbLine
 10
44.247158
 20
42.615558
 30
0.0
 11
44.247158
 21
42.615558
 31
0.0
  0
SPLINE
  5
205
100
AcDbEntity
  8
wheels
 62
7
100
AcDbSpline
 70
8
 71
3
 72
8
 73
4
 74
0
 40
0
 40
0
 40
0
 40
0
 40
1
 40
1
 40
1
 40
1
 10
44.247158
 20
22.621875
 30
0.0
 10
44.281427
 20
22.140101
 30
0.0
 10
44.113626
 20
21.665801
 30
0.0
 10
43.784012
 20
21.312763
 30
0.0
  0
SPLINE
  5
206
100
AcDbEntity
  8
wheels
 62
7
100
AcDbSpline
 70
8
 71
3
 72
8
 73
4
 74
0
 40
0
 40
0
 40
0
 40
0
 40
1
 40
1
 40
1
 40
1
 10
43.784012
 20
21.312763
 30
0.0
 10
43.454398
 20
20.959726
 30
0.0
 10
42.992715
 20
20.759809
 30
0.0
 10
42.509725
 20
20.760975
 30
0.0
  0
SPLINE
  5
207
100
AcDbEntity
  8
wheels
 62
7
100
AcDbSpline
 70
8
 71
3
 72
8
 73
4
 74
0
 40
0
 40
0
 40
0
 40
0
 40
1
 40
1
 40
1
 40
1
 10
42.509725
 20
20.760975
 30
0.0
 10
41.560151
 20
20.774967
 30
0.0
 10
40.797707
 20
21.548728
 30
0.0
 10
40.797707
 20
22.498406
 30
0.0
  0
SPLINE
  5
208
100
AcDbEntity
  8
wheels
 62
7
100
AcDbSpline
 70
8
 71
3
 72
8
 73
4
 74
0
 40
0
 40
0
 40
0
 40
0
 40
1
 40
1
 40
1
 40
1
 10
40.797707
 20
22.498406
 30
0.0
 10
40.797707
 20
23.448083
 30
0.0
 10
41.560151
 20
24.221844
 30
0.0
 10
42.509725
 20
24.235836
 30
0.0
  0
SPLINE
  5
209
100
AcDbEntity
  8
wheels
 62
7
100
AcDbSpline
 70
8
 71
3
 72
8
 73
4
 74
0
 40
0
 40
0
 40
0
 40
0
 40
1
 40
1
 40
1
 40
1
 10
42.509725
 20
24.235836
 30
0.0
 10
43.423026
 20
24.238054
 30
0.0
 10
44.182166
 20
23.532863
 30
0.0
 10
44.247158
 20
22.621875
 30
0.0
  0
LINE
  5
20a
100
AcDbEntity
  8
wheels
 62
7
100
AcDbLine
 10
44.247158
 20
22.621875
 30
0.0
 11
44.247158
 21
22.621875
 31
0.0
  0
SPLINE
  5
20b
100
AcDbEntity
  8
wheels
 62
7
100
AcDbSpline
 70
8
 71
3
 72
8
 73
4
 74
0
 40
0
 40
0
 40
0
 40
0
 40
1
 40
1
 40
1
 40
1
 10
39.246533
 20
42.615558
 30
0.0
 10
39.280803
 20
42.133784
 30
0.0
 10
39.113003
 20
41.659484
 30
0.0
 10
38.783389
 20
41.306446
 30
0.0
  0
SPLINE
  5
20c
100
AcDbEntity
  8
wheels
 62
7
100
AcDbSpline
 70
8
 71
3
 72
8
 73
4
 74
0
 40
0
 40
0
 40
0
 40
0
 40
1
 40
1
 40
1
 40
1
 10
38.783389
 20
41.306446
 30
0.0
 10
38.453776
 20
40.953408
 30
0.0
 10
37.992093
 20
40.753491
 30
0.0
 10
37.509103
 20
40.754656
 30
0.0
  0
SPLINE
  5
20d
100
AcDbEntity
  8
wheels
 62
7
100
AcDbSpline
 70
8
 71
3
 72
8
 73
4
 74
0
 40
0
 40
0
 40
0
 40
0
 40
1
 40
1
 40
1
 40
1
 10
37.509103
 20
40.754656
 30
0.0
 10
36.559520
 20
40.768635
 30
0.0
 10
35.797062
 20
41.542400
 30
0.0
 10
35.797062
 20
42.492086
 30
0.0
  0
SPLINE
  5
20e
100
AcDbEntity
  8
wheels
 62
7
100
AcDbSpline
 70
8
 71
3
 72
8
 73
4
 74
0
 40
0
 40
0
 40
0
 40
0
 40
1
 40
1
 40
1
 40
1
 10
35.797062
 20
42.492086
 30
0.0
 10
35.797062
 20
43.441772
 30
0.0
 10
36.559520
 20
44.215537
 30
0.0
 10
37.509103
 20
44.229517
 30
0.0
  0
SPLINE
  5
20f
100
AcDbEntity
  8
wheels
 62
7
100
AcDbSpline
 70
8
 71
3
 72
8
 73
4
 74
0
 40
0
 40
0
 40
0
 40
0
 40
1
 40
1
 40
1
 40
1
 10
37.509103
 20
44.229517
 30
0.0
 10
38.422402
 20
44.231733
 30
0.0
 10
39.181539
 20
43.526545
 30
0.0
 10
39.246533
 20
42.615558
 30
0.0
  0
LINE
  5
210
100
AcDbEntity
  8
wheels
 62
7
100
AcDbLine
 10
39.246533
 20
42.615558
 30
0.0
 11
39.246533
 21
42.615558
 31
0.0
  0
SPLINE
  5
211
100
AcDbEntity
  8
wheels
 62
7
100
AcDbSpline
 70
8
 71
3
 72
8
 73
4
 74
0
 40
0
 40
0
 40
0
 40
0
 40
1
 40
1
 40
1
 40
1
 10
39.246533
 20
22.621875
 30
0.0
 10
39.280802
 20
22.140101
 30
0.0
 10
39.113001
 20
21.665802
 30
0.0
 10
38.783388
 20
21.312764
 30
0.0
  0
SPLINE
  5
212
100
AcDbEntity
  8
wheels
 62
7
100
AcDbSpline
 70
8
 71
3
 72
8
 73
4
 74
0
 40
0
 40
0
 40
0
 40
0
 40
1
 40
1
 40
1
 40
1
 10
38.783388
 20
21.312764
 30
0.0
 10
38.453775
 20
20.959727
 30
0.0
 10
37.992092
 20
20.759810
 30
0.0
 10
37.509103
 20
20.760975
 30
0.0
  0
SPLINE
  5
213
100
AcDbEntity
  8
wheels
 62
7
100
AcDbSpline
 70
8
 71
3
 72
8
 73
4
 74
0
 40
0
 40
0
 40
0
 40
0
 40
1
 40
1
 40
1
 40
1
 10
37.509103
 20
20.760975
 30
0.0
 10
36.559527
 20
20.774965
 30
0.0
 10
35.797081
 20
21.548727
 30
0.0
 10
35.797081
 20
22.498406
 30
0.0
  0
SPLINE
  5
214
100
AcDbEntity
  8
wheels
 62
7
100
AcDbSpline
 70
8
 71
3
 72
8
 73
4
 74
0
 40
0
 40
0
 40
0
 40
0
 40
1
 40
1
 40
1
 40
1
 10
35.797081
 20
22.498406
 30
0.0
 10
35.797081
 20
23.448085
 30
0.0
 10
36.559527
 20
24.221846
 30
0.0
 10
37.509103
 20
24.235836
 30
0.0
  0
SPLINE
  5
215
100
AcDbEntity
  8
wheels
 62
7
100
AcDbSpline
 70
8
 71
3
 72
8
 73
4
 74
0
 40
0
 40
0
 40
0
 40
0
 40
1
 40
1
 40
1
 40
1
 10
37.509103
 20
24.235836
 30
0.0
 10
38.422403
 20
24.238052
 30
0.0
 10
39.181541
 20
23.532862
 30
0.0
 10
39.246533
 20
22.621875
 30
0.0
  0
LINE
  5
216
100
AcDbEntity
  8
wheels
 62
7
100
AcDbLine
 10
39.246533
 20
22.621875
 30
0.0
 11
39.246533
 21
22.621875
 31
0.0
  0
SPLINE
  5
217
100
AcDbEntity
  8
wheels
 62
7
100
AcDbSpline
 70
8
 71
3
 72
8
 73
4
 74
0
 40
0
 40
0
 40
0
 40
0
 40
1
 40
1
 40
1
 40
1
 10
35.004378
 20
32.420281
 30
0.0
 10
34.966394
 20
31.069368
 30
0.0
 10
33.859924
 20
29.994177
 30
0.0
 10
32.508478
 20
29.994936
 30
0.0
  0
SPLINE
  5
218
100
AcDbEntity
  8
wheels
 62
7
100
AcDbSpline
 70
8
 71
3
 72
8
 73
4
 74
0
 40
0
 40
0
 40
0
 40
0
 40
1
 40
1
 40
1
 40
1
 10
32.508478
 20
29.994936
 30
0.0
 10
31.131238
 20
29.996644
 30
0.0
 10
30.015670
 20
31.113597
 30
0.0
 10
30.015670
 20
32.490838
 30
0.0
  0
SPLINE
  5
219
100
AcDbEntity
  8
wheels
 62
7
100
AcDbSpline
 70
8
 71
3
 72
8
 73
4
 74
0
 40
0
 40
0
 40
0
 40
0
 40
1
 40
1
 40
1
 40
1
 10
30.015670
 20
32.490838
 30
0.0
 10
30.015670
 20
33.868078
 30
0.0
 10
31.131238
 20
34.985031
 30
0.0
 10
32.508478
 20
34.986739
 30
0.0
  0
SPLINE
  5
21a
100
AcDbEntity
  8
wheels
 62
7
100
AcDbSpline
 70
8
 71
3
 72
8
 73
4
 74
0
 40
0
 40
0
 40
0
 40
0
 40
1
 40
1
 40
1
 40
1
 10
32.508478
 20
34.986739
 30
0.0
 10
33.182876
 20
34.987124
 30
0.0
 10
33.828718
 20
34.714537
 30
0.0
 10
34.298898
 20
34.231066
 30
0.0
  0
SPLINE
  5
21b
100
AcDbEntity
  8
wheels
 62
7
100
AcDbSpline
 70
8
 71
3
 72
8
 73
4
 74
0
 40
0
 40
0
 40
0
 40
0
 40
1
 40
1
 40
1
 40
1
 10
34.298898
 20
34.231066
 30
0.0
 10
34.769077
 20
33.747594
 30
0.0
 10
35.023559
 20
33.094406
 30
0.0
 10
35.004378
 20
32.420281
 30
0.0
  0
LINE
  5
21c
100
AcDbEntity
  8
wheels
 62
7
100
AcDbLine
 10
35.004378
 20
32.420281
 30
0.0
 11
35.004378
 21
32.420281
 31
0.0
  0
SPLINE
  5
21d
100
AcDbEntity
  8
wheels
 62
7
100
AcDbSpline
 70
8
 71
3
 72
8
 73
4
 74
0
 40
0
 40
0
 40
0
 40
0
 40
1
 40
1
 40
1
 40
1
 10
29.245283
 20
42.615558
 30
0.0
 10
29.279553
 20
42.133784
 30
0.0
 10
29.111752
 20
41.659483
 30
0.0
 10
28.782138
 20
41.306445
 30
0.0
  0
SPLINE
  5
21e
100
AcDbEntity
  8
wheels
 62
7
100
AcDbSpline
 70
8
 71
3
 72
8
 73
4
 74
0
 40
0
 40
0
 40
0
 40
0
 40
1
 40
1
 40
1
 40
1
 10
28.782138
 20
41.306445
 30
0.0
 10
28.452524
 20
40.953407
 30
0.0
 10
27.990841
 20
40.753490
 30
0.0
 10
27.507850
 20
40.754656
 30
0.0
  0
SPLINE
  5
21f
100
AcDbEntity
  8
wheels
 62
7
100
AcDbSpline
 70
8
 71
3
 72
8
 73
4
 74
0
 40
0
 40
0
 40
0
 40
0
 40
1
 40
1
 40
1
 40
1
 10
27.507850
 20
40.754656
 30
0.0
 10
26.558268
 20
40.768637
 30
0.0
 10
25.795813
 20
41.542401
 30
0.0
 10
25.795813
 20
42.492086
 30
0.0
  0
SPLINE
  5
220
100
AcDbEntity
  8
wheels
 62
7
100
AcDbSpline
 70
8
 71
3
 72
8
 73
4
 74
0
 40
0
 40
0
 40
0
 40
0
 40
1
 40
1
 40
1
 40
1
 10
25.795813
 20
42.492086
 30
0.0
 10
25.795813
 20
43.441771
 30
0.0
 10
26.558268
 20
44.215535
 30
0.0
 10
27.507850
 20
44.229517
 30
0.0
  0
SPLINE
  5
221
100
AcDbEntity
  8
wheels
 62
7
100
AcDbSpline
 70
8
 71
3
 72
8
 73
4
 74
0
 40
0
 40
0
 40
0
 40
0
 40
1
 40
1
 40
1
 40
1
 10
27.507850
 20
44.229517
 30
0.0
 10
28.421150
 20
44.231735
 30
0.0
 10
29.180289
 20
43.526546
 30
0.0
 10
29.245283
 20
42.615558
 30
0.0
  0
LINE
  5
222
100
AcDbEntity
  8
wheels
 62
7
100
AcDbLine
 10
29.245283
 20
42.615558
 30
0.0
 11
29.245283
 21
42.615558
 31
0.0
  0
SPLINE
  5
223
100
AcDbEntity
  8
wheels
 62
7
100
AcDbSpline
 70
8
 71
3
 72
8
 73
4
 74
0
 40
0
 40
0
 40
0
 40
0
 40
1
 40
1
 40
1
 40
1
 10
29.245283
 20
22.621875
 30
0.0
 10
29.279552
 20
22.140101
 30
0.0
 10
29.111751
 20
21.665801
 30
0.0
 10
28.782137
 20
21.312763
 30
0.0
  0
SPLINE
  5
224
100
AcDbEntity
  8
wheels
 62
7
100
AcDbSpline
 70
8
 71
3
 72
8
 73
4
 74
0
 40
0
 40
0
 40
0
 40
0
 40
1
 40
1
 40
1
 40
1
 10
28.782137
 20
21.312763
 30
0.0
 10
28.452523
 20
20.959726
 30
0.0
 10
27.990840
 20
20.759809
 30
0.0
 10
27.507850
 20
20.760975
 30
0.0
  0
SPLINE
  5
225
100
AcDbEntity
  8
wheels
 62
7
100
AcDbSpline
 70
8
 71
3
 72
8
 73
4
 74
0
 40
0
 40
0
 40
0
 40
0
 40
1
 40
1
 40
1
 40
1
 10
27.507850
 20
20.760975
 30
0.0
 10
26.558273
 20
20.774963
 30
0.0
 10
25.795825
 20
21.548725
 30
0.0
 10
25.795825
 20
22.498406
 30
0.0
  0
SPLINE
  5
226
100
AcDbEntity
  8
wheels
 62
7
100
AcDbSpline
 70
8
 71
3
 72
8
 73
4
 74
0
 40
0
 40
0
 40
0
 40
0
 40
1
 40
1
 40
1
 40
1
 10
25.795825
 20
22.498406
 30
0.0
 10
25.795825
 20
23.448086
 30
0.0
 10
26.558273
 20
24.221848
 30
0.0
 10
27.507850
 20
24.235836
 30
0.0
  0
SPLINE
  5
227
100
AcDbEntity
  8
wheels
 62
7
100
AcDbSpline
 70
8
 71
3
 72
8
 73
4
 74
0
 40
0
 40
0
 40
0
 40
0
 40
1
 40
1
 40
1
 40
1
 10
27.507850
 20
24.235836
 30
0.0
 10
28.421151
 20
24.238054
 30
0.0
 10
29.180291
 20
23.532863
 30
0.0
 10
29.245283
 20
22.621875
 30
0.0
  0
LINE
  5
228
100
AcDbEntity
  8
wheels
 62
7
100
AcDbLine
 10
29.245283
 20
22.621875
 30
0.0
 11
29.245283
 21
22.621875
 31
0.0
  0
SPLINE
  5
229
100
AcDbEntity
  8
wheels
 62
7
100
AcDbSpline
 70
8
 71
3
 72
8
 73
4
 74
0
 40
0
 40
0
 40
0
 40
0
 40
1
 40
1
 40
1
 40
1
 10
24.244656
 20
42.615558
 30
0.0
 10
24.278925
 20
42.133785
 30
0.0
 10
24.111125
 20
41.659485
 30
0.0
 10
23.781512
 20
41.306447
 30
0.0
  0
SPLINE
  5
22a
100
AcDbEntity
  8
wheels
 62
7
100
AcDbSpline
 70
8
 71
3
 72
8
 73
4
 74
0
 40
0
 40
0
 40
0
 40
0
 40
1
 40
1
 40
1
 40
1
 10
23.781512
 20
41.306447
 30
0.0
 10
23.451899
 20
40.953409
 30
0.0
 10
22.990217
 20
40.753491
 30
0.0
 10
22.507228
 20
40.754656
 30
0.0
  0
SPLINE
  5
22b
100
AcDbEntity
  8
wheels
 62
7
100
AcDbSpline
 70
8
 71
3
 72
8
 73
4
 74
0
 40
0
 40
0
 40
0
 40
0
 40
1
 40
1
 40
1
 40
1
 10
22.507228
 20
40.754656
 30
0.0
 10
21.557648
 20
40.768639
 30
0.0
 10
20.795195
 20
41.542403
 30
0.0
 10
20.795195
 20
42.492086
 30
0.0
  0
SPLINE
  5
22c
100
AcDbEntity
  8
wheels
 62
7
100
AcDbSpline
 70
8
 71
3
 72
8
 73
4
 74
0
 40
0
 40
0
 40
0
 40
0
 40
1
 40
1
 40
1
 40
1
 10
20.795195
 20
42.492086
 30
0.0
 10
20.795195
 20
43.441769
 30
0.0
 10
21.557648
 20
44.215533
 30
0.0
 10
22.507228
 20
44.229517
 30
0.0
  0
SPLINE
  5
22d
100
AcDbEntity
  8
wheels
 62
7
100
AcDbSpline
 70
8
 71
3
 72
8
 73
4
 74
0
 40
0
 40
0
 40
0
 40
0
 40
1
 40
1
 40
1
 40
1
 10
22.507228
 20
44.229517
 30
0.0
 10
23.420526
 20
44.231732
 30
0.0
 10
24.179662
 20
43.526543
 30
0.0
 10
24.244656
 20
42.615558
 30
0.0
  0
LINE
  5
22e
100
AcDbEntity
  8
wheels
 62
7
100
AcDbLine
 10
24.244656
 20
42.615558
 30
0.0
 11
24.244656
 21
42.615558
 31
0.0
  0
SPLINE
  5
22f
100
AcDbEntity
  8
wheels
 62
7
100
AcDbSpline
 70
8
 71
3
 72
8
 73
4
 74
0
 40
0
 40
0
 40
0
 40
0
 40
1
 40
1
 40
1
 40
1
 10
24.244656
 20
22.621875
 30
0.0
 10
24.278924
 20
22.140102
 30
0.0
 10
24.111124
 20
21.665803
 30
0.0
 10
23.781511
 20
21.312765
 30
0.0
  0
SPLINE
  5
230
100
AcDbEntity
  8
wheels
 62
7
100
AcDbSpline
 70
8
 71
3
 72
8
 73
4
 74
0
 40
0
 40
0
 40
0
 40
0
 40
1
 40
1
 40
1
 40
1
 10
23.781511
 20
21.312765
 30
0.0
 10
23.451898
 20
20.959728
 30
0.0
 10
22.990217
 20
20.759811
 30
0.0
 10
22.507228
 20
20.760975
 30
0.0
  0
SPLINE
  5
231
100
AcDbEntity
  8
wheels
 62
7
100
AcDbSpline
 70
8
 71
3
 72
8
 73
4
 74
0
 40
0
 40
0
 40
0
 40
0
 40
1
 40
1
 40
1
 40
1
 10
22.507228
 20
20.760975
 30
0.0
 10
21.557649
 20
20.774961
 30
0.0
 10
20.795199
 20
21.548724
 30
0.0
 10
20.795199
 20
22.498406
 30
0.0
  0
SPLINE
  5
232
100
AcDbEntity
  8
wheels
 62
7
100
AcDbSpline
 70
8
 71
3
 72
8
 73
4
 74
0
 40
0
 40
0
 40
0
 40
0
 40
1
 40
1
 40
1
 40
1
 10
20.795199
 20
22.498406
 30
0.0
 10
20.795199
 20
23.448087
 30
0.0
 10
21.557649
 20
24.221850
 30
0.0
 10
22.507228
 20
24.235836
 30
0.0
  0
SPLINE
  5
233
100
AcDbEntity
  8
wheels
 62
7
100
AcDbSpline
 70
8
 71
3
 72
8
 73
4
 74
0
 40
0
 40
0
 40
0
 40
0
 40
1
 40
1
 40
1
 40
1
 10
22.507228
 20
24.235836
 30
0.0
 10
23.420527
 20
24.238051
 30
0.0
 10
24.179663
 20
23.532861
 30
0.0
 10
24.244656
 20
22.621875
 30
0.0
  0
LINE
  5
234
100
AcDbEntity
  8
wheels
 62
7
100
AcDbLine
 10
24.244656
 20
22.621875
 30
0.0
 11
24.244656
 21
22.621875
 31
0.0
  0
SPLINE
  5
235
100
AcDbEntity
  8
wheels
 62
7
100
AcDbSpline
 70
8
 71
3
 72
8
 73
4
 74
0
 40
0
 40
0
 40
0
 40
0
 40
1
 40
1
 40
1
 40
1
 10
134.972851
 20
31.547153
 30
0.0
 10
135.227956
 20
40.320380
 30
0.0
 10
131.920847
 20
48.823252
 30
0.0
 10
125.804985
 20
55.118554
 30
0.0
  0
SPLINE
  5
236
100
AcDbEntity
  8
wheels
 62
7
100
AcDbSpline
 70
8
 71
3
 72
8
 73
4
 74
0
 40
0
 40
0
 40
0
 40
0
 40
1
 40
1
 40
1
 40
1
 10
125.804985
 20
55.118554
 30
0.0
 10
119.689122
 20
61.413855
 30
0.0
 10
111.285411
 20
64.965398
 30
0.0
 10
102.508476
 20
64.964031
 30
0.0
  0
SPLINE
  5
237
100
AcDbEntity
  8
wheels
 62
7
100
AcDbSpline
 70
8
 71
3
 72
8
 73
4
 74
0
 40
0
 40
0
 40
0
 40
0
 40
1
 40
1
 40
1
 40
1
 10
102.508476
 20
64.964031
 30
0.0
 10
90.906921
 20
64.964031
 30
0.0
 10
80.186642
 20
58.774675
 30
0.0
 10
74.385865
 20
48.727433
 30
0.0
  0
SPLINE
  5
238
100
AcDbEntity
  8
wheels
 62
7
100
AcDbSpline
 70
8
 71
3
 72
8
 73
4
 74
0
 40
0
 40
0
 40
0
 40
0
 40
1
 40
1
 40
1
 40
1
 10
74.385865
 20
48.727433
 30
0.0
 10
68.585087
 20
38.680192
 30
0.0
 10
68.585087
 20
26.301480
 30
0.0
 10
74.385865
 20
16.254239
 30
0.0
  0
SPLINE
  5
239
100
AcDbEntity
  8
wheels
 62
7
100
AcDbSpline
 70
8
 71
3
 72
8
 73
4
 74
0
 40
0
 40
0
 40
0
 40
0
 40
1
 40
1
 40
1
 40
1
 10
74.385865
 20
16.254239
 30
0.0
 10
80.186642
 20
6.206998
 30
0.0
 10
90.906921
 20
0.017642
 30
0.0
 10
102.508476
 20
0.017642
 30
0.0
  0
SPLINE
  5
23a
100
AcDbEntity
  8
wheels
 62
7
100
AcDbSpline
 70
8
 71
3
 72
8
 73
4
 74
0
 40
0
 40
0
 40
0
 40
0
 40
1
 40
1
 40
1
 40
1
 10
102.508476
 20
0.017642
 30
0.0
 10
120.077377
 20
0.014910
 30
0.0
 10
134.462375
 20
13.985670
 30
0.0
 10
134.972851
 20
31.547153
 30
0.0
  0
LINE
  5
23b
100
AcDbEntity
  8
wheels
 62
7
100
AcDbLine
 10
134.972851
 20
31.547153
 30
0.0
 11
134.972851
 21
31.547153
 31
0.0
  0
SPLINE
  5
23c
100
AcDbEntity
  8
wheels
 62
7
100
AcDbSpline
 70
8
 71
3
 72
8
 73
4
 74
0
 40
0
 40
0
 40
0
 40
0
 40
1
 40
1
 40
1
 40
1
 10
114.247157
 20
42.615561
 30
0.0
 10
114.281427
 20
42.133787
 30
0.0
 10
114.113627
 20
41.659485
 30
0.0
 10
113.784014
 20
41.306447
 30
0.0
  0
SPLINE
  5
23d
100
AcDbEntity
  8
wheels
 62
7
100
AcDbSpline
 70
8
 71
3
 72
8
 73
4
 74
0
 40
0
 40
0
 40
0
 40
0
 40
1
 40
1
 40
1
 40
1
 10
113.784014
 20
41.306447
 30
0.0
 10
113.454400
 20
40.953408
 30
0.0
 10
112.992717
 20
40.753491
 30
0.0
 10
112.509726
 20
40.754656
 30
0.0
  0
SPLINE
  5
23e
100
AcDbEntity
  8
wheels
 62
7
100
AcDbSpline
 70
8
 71
3
 72
8
 73
4
 74
0
 40
0
 40
0
 40
0
 40
0
 40
1
 40
1
 40
1
 40
1
 10
112.509726
 20
40.754656
 30
0.0
 10
111.560141
 20
40.768633
 30
0.0
 10
110.797682
 20
41.542398
 30
0.0
 10
110.797682
 20
42.492086
 30
0.0
  0
SPLINE
  5
23f
100
AcDbEntity
  8
wheels
 62
7
100
AcDbSpline
 70
8
 71
3
 72
8
 73
4
 74
0
 40
0
 40
0
 40
0
 40
0
 40
1
 40
1
 40
1
 40
1
 10
110.797682
 20
42.492086
 30
0.0
 10
110.797682
 20
43.441774
 30
0.0
 10
111.560141
 20
44.215539
 30
0.0
 10
112.509726
 20
44.229517
 30
0.0
  0
SPLINE
  5
240
100
AcDbEntity
  8
wheels
 62
7
100
AcDbSpline
 70
8
 71
3
 72
8
 73
4
 74
0
 40
0
 40
0
 40
0
 40
0
 40
1
 40
1
 40
1
 40
1
 10
112.509726
 20
44.229517
 30
0.0
 10
113.423024
 20
44.231733
 30
0.0
 10
114.182161
 20
43.526546
 30
0.0
 10
114.247157
 20
42.615561
 30
0.0
  0
LINE
  5
241
100
AcDbEntity
  8
wheels
 62
7
100
AcDbLine
 10
114.247157
 20
42.615561
 30
0.0
 11
114.247157
 21
42.615561
 31
0.0
  0
SPLINE
  5
242
100
AcDbEntity
  8
wheels
 62
7
100
AcDbSpline
 70
8
 71
3
 72
8
 73
4
 74
0
 40
0
 40
0
 40
0
 40
0
 40
1
 40
1
 40
1
 40
1
 10
114.247157
 20
22.621878
 30
0.0
 10
114.281425
 20
22.140104
 30
0.0
 10
114.113625
 20
21.665804
 30
0.0
 10
113.784011
 20
21.312767
 30
0.0
  0
SPLINE
  5
243
100
AcDbEntity
  8
wheels
 62
7
100
AcDbSpline
 70
8
 71
3
 72
8
 73
4
 74
0
 40
0
 40
0
 40
0
 40
0
 40
1
 40
1
 40
1
 40
1
 10
113.784011
 20
21.312767
 30
0.0
 10
113.454398
 20
20.959730
 30
0.0
 10
112.992716
 20
20.759813
 30
0.0
 10
112.509726
 20
20.760978
 30
0.0
  0
SPLINE
  5
244
100
AcDbEntity
  8
wheels
 62
7
100
AcDbSpline
 70
8
 71
3
 72
8
 73
4
 74
0
 40
0
 40
0
 40
0
 40
0
 40
1
 40
1
 40
1
 40
1
 10
112.509726
 20
20.760978
 30
0.0
 10
111.560228
 20
20.775073
 30
0.0
 10
110.797899
 20
21.548802
 30
0.0
 10
110.797899
 20
22.498406
 30
0.0
  0
SPLINE
  5
245
100
AcDbEntity
  8
wheels
 62
7
100
AcDbSpline
 70
8
 71
3
 72
8
 73
4
 74
0
 40
0
 40
0
 40
0
 40
0
 40
1
 40
1
 40
1
 40
1
 10
110.797899
 20
22.498406
 30
0.0
 10
110.797899
 20
23.448009
 30
0.0
 10
111.560228
 20
24.221738
 30
0.0
 10
112.509726
 20
24.235833
 30
0.0
  0
SPLINE
  5
246
100
AcDbEntity
  8
wheels
 62
7
100
AcDbSpline
 70
8
 71
3
 72
8
 73
4
 74
0
 40
0
 40
0
 40
0
 40
0
 40
1
 40
1
 40
1
 40
1
 10
112.509726
 20
24.235833
 30
0.0
 10
113.423024
 20
24.238050
 30
0.0
 10
114.182161
 20
23.532863
 30
0.0
 10
114.247157
 20
22.621878
 30
0.0
  0
LINE
  5
247
100
AcDbEntity
  8
wheels
 62
7
100
AcDbLine
 10
114.247157
 20
22.621878
 30
0.0
 11
114.247157
 21
22.621878
 31
0.0
  0
SPLINE
  5
248
100
AcDbEntity
  8
wheels
 62
7
100
AcDbSpline
 70
8
 71
3
 72
8
 73
4
 74
0
 40
0
 40
0
 40
0
 40
0
 40
1
 40
1
 40
1
 40
1
 10
109.246532
 20
42.615561
 30
0.0
 10
109.280802
 20
42.133787
 30
0.0
 10
109.113002
 20
41.659485
 30
0.0
 10
108.783389
 20
41.306447
 30
0.0
  0
SPLINE
  5
249
100
AcDbEntity
  8
wheels
 62
7
100
AcDbSpline
 70
8
 71
3
 72
8
 73
4
 74
0
 40
0
 40
0
 40
0
 40
0
 40
1
 40
1
 40
1
 40
1
 10
108.783389
 20
41.306447
 30
0.0
 10
108.453775
 20
40.953408
 30
0.0
 10
107.992092
 20
40.753491
 30
0.0
 10
107.509101
 20
40.754656
 30
0.0
  0
SPLINE
  5
24a
100
AcDbEntity
  8
wheels
 62
7
100
AcDbSpline
 70
8
 71
3
 72
8
 73
4
 74
0
 40
0
 40
0
 40
0
 40
0
 40
1
 40
1
 40
1
 40
1
 10
107.509101
 20
40.754656
 30
0.0
 10
106.559518
 20
40.768635
 30
0.0
 10
105.797061
 20
41.542400
 30
0.0
 10
105.797061
 20
42.492086
 30
0.0
  0
SPLINE
  5
24b
100
AcDbEntity
  8
wheels
 62
7
100
AcDbSpline
 70
8
 71
3
 72
8
 73
4
 74
0
 40
0
 40
0
 40
0
 40
0
 40
1
 40
1
 40
1
 40
1
 10
105.797061
 20
42.492086
 30
0.0
 10
105.797061
 20
43.441772
 30
0.0
 10
106.559518
 20
44.215537
 30
0.0
 10
107.509101
 20
44.229517
 30
0.0
  0
SPLINE
  5
24c
100
AcDbEntity
  8
wheels
 62
7
100
AcDbSpline
 70
8
 71
3
 72
8
 73
4
 74
0
 40
0
 40
0
 40
0
 40
0
 40
1
 40
1
 40
1
 40
1
 10
107.509101
 20
44.229517
 30
0.0
 10
108.422399
 20
44.231733
 30
0.0
 10
109.181536
 20
43.526546
 30
0.0
 10
109.246532
 20
42.615561
 30
0.0
  0
LINE
  5
24d
100
AcDbEntity
  8
wheels
 62
7
100
AcDbLine
 10
109.246532
 20
42.615561
 30
0.0
 11
109.246532
 21
42.615561
 31
0.0
  0
SPLINE
  5
24e
100
AcDbEntity
  8
wheels
 62
7
100
AcDbSpline
 70
8
 71
3
 72
8
 73
4
 74
0
 40
0
 40
0
 40
0
 40
0
 40
1
 40
1
 40
1
 40
1
 10
109.246532
 20
22.621878
 30
0.0
 10
109.280800
 20
22.140104
 30
0.0
 10
109.113000
 20
21.665804
 30
0.0
 10
108.783386
 20
21.312767
 30
0.0
  0
SPLINE
  5
24f
100
AcDbEntity
  8
wheels
 62
7
100
AcDbSpline
 70
8
 71
3
 72
8
 73
4
 74
0
 40
0
 40
0
 40
0
 40
0
 40
1
 40
1
 40
1
 40
1
 10
108.783386
 20
21.312767
 30
0.0
 10
108.453773
 20
20.959730
 30
0.0
 10
107.992091
 20
20.759813
 30
0.0
 10
107.509101
 20
20.760978
 30
0.0
  0
SPLINE
  5
250
100
AcDbEntity
  8
wheels
 62
7
100
AcDbSpline
 70
8
 71
3
 72
8
 73
4
 74
0
 40
0
 40
0
 40
0
 40
0
 40
1
 40
1
 40
1
 40
1
 10
107.509101
 20
20.760978
 30
0.0
 10
106.559601
 20
20.775071
 30
0.0
 10
105.797270
 20
21.548801
 30
0.0
 10
105.797270
 20
22.498406
 30
0.0
  0
SPLINE
  5
251
100
AcDbEntity
  8
wheels
 62
7
100
AcDbSpline
 70
8
 71
3
 72
8
 73
4
 74
0
 40
0
 40
0
 40
0
 40
0
 40
1
 40
1
 40
1
 40
1
 10
105.797270
 20
22.498406
 30
0.0
 10
105.797270
 20
23.448010
 30
0.0
 10
106.559601
 20
24.221740
 30
0.0
 10
107.509101
 20
24.235833
 30
0.0
  0
SPLINE
  5
252
100
AcDbEntity
  8
wheels
 62
7
100
AcDbSpline
 70
8
 71
3
 72
8
 73
4
 74
0
 40
0
 40
0
 40
0
 40
0
 40
1
 40
1
 40
1
 40
1
 10
107.509101
 20
24.235833
 30
0.0
 10
108.422399
 20
24.238050
 30
0.0
 10
109.181536
 20
23.532863
 30
0.0
 10
109.246532
 20
22.621878
 30
0.0
  0
LINE
  5
253
100
AcDbEntity
  8
wheels
 62
7
100
AcDbLine
 10
109.246532
 20
22.621878
 30
0.0
 11
109.246532
 21
22.621878
 31
0.0
  0
SPLINE
  5
254
100
AcDbEntity
  8
wheels
 62
7
100
AcDbSpline
 70
8
 71
3
 72
8
 73
4
 74
0
 40
0
 40
0
 40
0
 40
0
 40
1
 40
1
 40
1
 40
1
 10
105.004379
 20
32.420283
 30
0.0
 10
104.966396
 20
31.069369
 30
0.0
 10
103.859925
 20
29.994175
 30
0.0
 10
102.508476
 20
29.994936
 30
0.0
  0
SPLINE
  5
255
100
AcDbEntity
  8
wheels
 62
7
100
AcDbSpline
 70
8
 71
3
 72
8
 73
4
 74
0
 40
0
 40
0
 40
0
 40
0
 40
1
 40
1
 40
1
 40
1
 10
102.508476
 20
29.994936
 30
0.0
 10
101.130649
 20
29.995815
 30
0.0
 10
100.014165
 20
31.113011
 30
0.0
 10
100.014165
 20
32.490839
 30
0.0
  0
SPLINE
  5
256
100
AcDbEntity
  8
wheels
 62
7
100
AcDbSpline
 70
8
 71
3
 72
8
 73
4
 74
0
 40
0
 40
0
 40
0
 40
0
 40
1
 40
1
 40
1
 40
1
 10
100.014165
 20
32.490839
 30
0.0
 10
100.014165
 20
33.868666
 30
0.0
 10
101.130649
 20
34.985863
 30
0.0
 10
102.508476
 20
34.986742
 30
0.0
  0
SPLINE
  5
257
100
AcDbEntity
  8
wheels
 62
7
100
AcDbSpline
 70
8
 71
3
 72
8
 73
4
 74
0
 40
0
 40
0
 40
0
 40
0
 40
1
 40
1
 40
1
 40
1
 10
102.508476
 20
34.986742
 30
0.0
 10
103.182875
 20
34.987128
 30
0.0
 10
103.828718
 20
34.714541
 30
0.0
 10
104.298898
 20
34.231070
 30
0.0
  0
SPLINE
  5
258
100
AcDbEntity
  8
wheels
 62
7
100
AcDbSpline
 70
8
 71
3
 72
8
 73
4
 74
0
 40
0
 40
0
 40
0
 40
0
 40
1
 40
1
 40
1
 40
1
 10
104.298898
 20
34.231070
 30
0.0
 10
104.769078
 20
33.747598
 30
0.0
 10
105.023560
 20
33.094410
 30
0.0
 10
105.004379
 20
32.420283
 30
0.0
  0
LINE
  5
259
100
AcDbEntity
  8
wheels
 62
7
100
AcDbLine
 10
105.004379
 20
32.420283
 30
0.0
 11
105.004379
 21
32.420283
 31
0.0
  0
SPLINE
  5
25a
100
AcDbEntity
  8
wheels
 62
7
100
AcDbSpline
 70
8
 71
3
 72
8
 73
4
 74
0
 40
0
 40
0
 40
0
 40
0
 40
1
 40
1
 40
1
 40
1
 10
99.245282
 20
42.615561
 30
0.0
 10
99.279552
 20
42.133786
 30
0.0
 10
99.111752
 20
41.659484
 30
0.0
 10
98.782138
 20
41.306446
 30
0.0
  0
SPLINE
  5
25b
100
AcDbEntity
  8
wheels
 62
7
100
AcDbSpline
 70
8
 71
3
 72
8
 73
4
 74
0
 40
0
 40
0
 40
0
 40
0
 40
1
 40
1
 40
1
 40
1
 10
98.782138
 20
41.306446
 30
0.0
 10
98.452523
 20
40.953407
 30
0.0
 10
97.990839
 20
40.753490
 30
0.0
 10
97.507848
 20
40.754656
 30
0.0
  0
SPLINE
  5
25c
100
AcDbEntity
  8
wheels
 62
7
100
AcDbSpline
 70
8
 71
3
 72
8
 73
4
 74
0
 40
0
 40
0
 40
0
 40
0
 40
1
 40
1
 40
1
 40
1
 10
97.507848
 20
40.754656
 30
0.0
 10
96.558266
 20
40.768637
 30
0.0
 10
95.795812
 20
41.542401
 30
0.0
 10
95.795812
 20
42.492086
 30
0.0
  0
SPLINE
  5
25d
100
AcDbEntity
  8
wheels
 62
7
100
AcDbSpline
 70
8
 71
3
 72
8
 73
4
 74
0
 40
0
 40
0
 40
0
 40
0
 40
1
 40
1
 40
1
 40
1
 10
95.795812
 20
42.492086
 30
0.0
 10
95.795812
 20
43.441771
 30
0.0
 10
96.558266
 20
44.215535
 30
0.0
 10
97.507848
 20
44.229517
 30
0.0
  0
SPLINE
  5
25e
100
AcDbEntity
  8
wheels
 62
7
100
AcDbSpline
 70
8
 71
3
 72
8
 73
4
 74
0
 40
0
 40
0
 40
0
 40
0
 40
1
 40
1
 40
1
 40
1
 10
97.507848
 20
44.229517
 30
0.0
 10
98.421147
 20
44.231735
 30
0.0
 10
99.180286
 20
43.526547
 30
0.0
 10
99.245282
 20
42.615561
 30
0.0
  0
LINE
  5
25f
100
AcDbEntity
  8
wheels
 62
7
100
AcDbLine
 10
99.245282
 20
42.615561
 30
0.0
 11
99.245282
 21
42.615561
 31
0.0
  0
SPLINE
  5
260
100
AcDbEntity
  8
wheels
 62
7
100
AcDbSpline
 70
8
 71
3
 72
8
 73
4
 74
0
 40
0
 40
0
 40
0
 40
0
 40
1
 40
1
 40
1
 40
1
 10
99.245282
 20
22.621878
 30
0.0
 10
99.279550
 20
22.140104
 30
0.0
 10
99.111749
 20
21.665804
 30
0.0
 10
98.782135
 20
21.312766
 30
0.0
  0
SPLINE
  5
261
100
AcDbEntity
  8
wheels
 62
7
100
AcDbSpline
 70
8
 71
3
 72
8
 73
4
 74
0
 40
0
 40
0
 40
0
 40
0
 40
1
 40
1
 40
1
 40
1
 10
98.782135
 20
21.312766
 30
0.0
 10
98.452521
 20
20.959729
 30
0.0
 10
97.990838
 20
20.759812
 30
0.0
 10
97.507848
 20
20.760978
 30
0.0
  0
SPLINE
  5
262
100
AcDbEntity
  8
wheels
 62
7
100
AcDbSpline
 70
8
 71
3
 72
8
 73
4
 74
0
 40
0
 40
0
 40
0
 40
0
 40
1
 40
1
 40
1
 40
1
 10
97.507848
 20
20.760978
 30
0.0
 10
96.558347
 20
20.775069
 30
0.0
 10
95.796014
 20
21.548800
 30
0.0
 10
95.796014
 20
22.498406
 30
0.0
  0
SPLINE
  5
263
100
AcDbEntity
  8
wheels
 62
7
100
AcDbSpline
 70
8
 71
3
 72
8
 73
4
 74
0
 40
0
 40
0
 40
0
 40
0
 40
1
 40
1
 40
1
 40
1
 10
95.796014
 20
22.498406
 30
0.0
 10
95.796014
 20
23.448012
 30
0.0
 10
96.558347
 20
24.221742
 30
0.0
 10
97.507848
 20
24.235833
 30
0.0
  0
SPLINE
  5
264
100
AcDbEntity
  8
wheels
 62
7
100
AcDbSpline
 70
8
 71
3
 72
8
 73
4
 74
0
 40
0
 40
0
 40
0
 40
0
 40
1
 40
1
 40
1
 40
1
 10
97.507848
 20
24.235833
 30
0.0
 10
98.421147
 20
24.238051
 30
0.0
 10
99.180286
 20
23.532864
 30
0.0
 10
99.245282
 20
22.621878
 30
0.0
  0
LINE
  5
265
100
AcDbEntity
  8
wheels
 62
7
100
AcDbLine
 10
99.245282
 20
22.621878
 30
0.0
 11
99.245282
 21
22.621878
 31
0.0
  0
SPLINE
  5
266
100
AcDbEntity
  8
wheels
 62
7
100
AcDbSpline
 70
8
 71
3
 72
8
 73
4
 74
0
 40
0
 40
0
 40
0
 40
0
 40
1
 40
1
 40
1
 40
1
 10
94.244654
 20
42.615561
 30
0.0
 10
94.278924
 20
42.133787
 30
0.0
 10
94.111124
 20
41.659485
 30
0.0
 10
93.781511
 20
41.306447
 30
0.0
  0
SPLINE
  5
267
100
AcDbEntity
  8
wheels
 62
7
100
AcDbSpline
 70
8
 71
3
 72
8
 73
4
 74
0
 40
0
 40
0
 40
0
 40
0
 40
1
 40
1
 40
1
 40
1
 10
93.781511
 20
41.306447
 30
0.0
 10
93.451897
 20
40.953408
 30
0.0
 10
92.990214
 20
40.753491
 30
0.0
 10
92.507223
 20
40.754656
 30
0.0
  0
SPLINE
  5
268
100
AcDbEntity
  8
wheels
 62
7
100
AcDbSpline
 70
8
 71
3
 72
8
 73
4
 74
0
 40
0
 40
0
 40
0
 40
0
 40
1
 40
1
 40
1
 40
1
 10
92.507223
 20
40.754656
 30
0.0
 10
91.557643
 20
40.768639
 30
0.0
 10
90.795190
 20
41.542403
 30
0.0
 10
90.795190
 20
42.492086
 30
0.0
  0
SPLINE
  5
269
100
AcDbEntity
  8
wheels
 62
7
100
AcDbSpline
 70
8
 71
3
 72
8
 73
4
 74
0
 40
0
 40
0
 40
0
 40
0
 40
1
 40
1
 40
1
 40
1
 10
90.795190
 20
42.492086
 30
0.0
 10
90.795190
 20
43.441769
 30
0.0
 10
91.557643
 20
44.215533
 30
0.0
 10
92.507223
 20
44.229517
 30
0.0
  0
SPLINE
  5
26a
100
AcDbEntity
  8
wheels
 62
7
100
AcDbSpline
 70
8
 71
3
 72
8
 73
4
 74
0
 40
0
 40
0
 40
0
 40
0
 40
1
 40
1
 40
1
 40
1
 10
92.507223
 20
44.229517
 30
0.0
 10
93.420521
 20
44.231733
 30
0.0
 10
94.179659
 20
43.526546
 30
0.0
 10
94.244654
 20
42.615561
 30
0.0
  0
LINE
  5
26b
100
AcDbEntity
  8
wheels
 62
7
100
AcDbLine
 10
94.244654
 20
42.615561
 30
0.0
 11
94.244654
 21
42.615561
 31
0.0
  0
SPLINE
  5
26c
100
AcDbEntity
  8
wheels
 62
7
100
AcDbSpline
 70
8
 71
3
 72
8
 73
4
 74
0
 40
0
 40
0
 40
0
 40
0
 40
1
 40
1
 40
1
 40
1
 10
94.244654
 20
22.621878
 30
0.0
 10
94.278923
 20
22.140104
 30
0.0
 10
94.111122
 20
21.665804
 30
0.0
 10
93.781508
 20
21.312767
 30
0.0
  0
SPLINE
  5
26d
100
AcDbEntity
  8
wheels
 62
7
100
AcDbSpline
 70
8
 71
3
 72
8
 73
4
 74
0
 40
0
 40
0
 40
0
 40
0
 40
1
 40
1
 40
1
 40
1
 10
93.781508
 20
21.312767
 30
0.0
 10
93.451895
 20
20.959730
 30
0.0
 10
92.990213
 20
20.759813
 30
0.0
 10
92.507223
 20
20.760978
 30
0.0
  0
SPLINE
  5
26e
100
AcDbEntity
  8
wheels
 62
7
100
AcDbSpline
 70
8
 71
3
 72
8
 73
4
 74
0
 40
0
 40
0
 40
0
 40
0
 40
1
 40
1
 40
1
 40
1
 10
92.507223
 20
20.760978
 30
0.0
 10
91.557720
 20
20.775067
 30
0.0
 10
90.795385
 20
21.548798
 30
0.0
 10
90.795385
 20
22.498406
 30
0.0
  0
SPLINE
  5
26f
100
AcDbEntity
  8
wheels
 62
7
100
AcDbSpline
 70
8
 71
3
 72
8
 73
4
 74
0
 40
0
 40
0
 40
0
 40
0
 40
1
 40
1
 40
1
 40
1
 10
90.795385
 20
22.498406
 30
0.0
 10
90.795385
 20
23.448013
 30
0.0
 10
91.557720
 20
24.221744
 30
0.0
 10
92.507223
 20
24.235833
 30
0.0
  0
SPLINE
  5
270
100
AcDbEntity
  8
wheels
 62
7
100
AcDbSpline
 70
8
 71
3
 72
8
 73
4
 74
0
 40
0
 40
0
 40
0
 40
0
 40
1
 40
1
 40
1
 40
1
 10
92.507223
 20
24.235833
 30
0.0
 10
93.420521
 20
24.238050
 30
0.0
 10
94.179658
 20
23.532863
 30
0.0
 10
94.244654
 20
22.621878
 30
0.0
  0
LINE
  5
271
100
AcDbEntity
  8
wheels
 62
7
100
AcDbLine
 10
94.244654
 20
22.621878
 30
0.0
 11
94.244654
 21
22.621878
 31
0.0
  0
SPLINE
  5
272
100
AcDbEntity
  8
wheels
 62
7
100
AcDbSpline
 70
8
 71
3
 72
8
 73
4
 74
0
 40
0
 40
0
 40
0
 40
0
 40
1
 40
1
 40
1
 40
1
 10
204.897296
 20
31.547156
 30
0.0
 10
205.152400
 20
40.320382
 30
0.0
 10
201.845291
 20
48.823254
 30
0.0
 10
195.729428
 20
55.118555
 30
0.0
  0
SPLINE
  5
273
100
AcDbEntity
  8
wheels
 62
7
100
AcDbSpline
 70
8
 71
3
 72
8
 73
4
 74
0
 40
0
 40
0
 40
0
 40
0
 40
1
 40
1
 40
1
 40
1
 10
195.729428
 20
55.118555
 30
0.0
 10
189.613566
 20
61.413856
 30
0.0
 10
181.209856
 20
64.965398
 30
0.0
 10
172.432921
 20
64.964031
 30
0.0
  0
SPLINE
  5
274
100
AcDbEntity
  8
wheels
 62
7
100
AcDbSpline
 70
8
 71
3
 72
8
 73
4
 74
0
 40
0
 40
0
 40
0
 40
0
 40
1
 40
1
 40
1
 40
1
 10
172.432921
 20
64.964031
 30
0.0
 10
160.831366
 20
64.964031
 30
0.0
 10
150.111087
 20
58.774675
 30
0.0
 10
144.310309
 20
48.727433
 30
0.0
  0
SPLINE
  5
275
100
AcDbEntity
  8
wheels
 62
7
100
AcDbSpline
 70
8
 71
3
 72
8
 73
4
 74
0
 40
0
 40
0
 40
0
 40
0
 40
1
 40
1
 40
1
 40
1
 10
144.310309
 20
48.727433
 30
0.0
 10
138.509532
 20
38.680192
 30
0.0
 10
138.509532
 20
26.301480
 30
0.0
 10
144.310309
 20
16.254239
 30
0.0
  0
SPLINE
  5
276
100
AcDbEntity
  8
wheels
 62
7
100
AcDbSpline
 70
8
 71
3
 72
8
 73
4
 74
0
 40
0
 40
0
 40
0
 40
0
 40
1
 40
1
 40
1
 40
1
 10
144.310309
 20
16.254239
 30
0.0
 10
150.111087
 20
6.206998
 30
0.0
 10
160.831366
 20
0.017642
 30
0.0
 10
172.432921
 20
0.017642
 30
0.0
  0
SPLINE
  5
277
100
AcDbEntity
  8
wheels
 62
7
100
AcDbSpline
 70
8
 71
3
 72
8
 73
4
 74
0
 40
0
 40
0
 40
0
 40
0
 40
1
 40
1
 40
1
 40
1
 10
172.432921
 20
0.017642
 30
0.0
 10
190.001822
 20
0.014910
 30
0.0
 10
204.386822
 20
13.985671
 30
0.0
 10
204.897296
 20
31.547156
 30
0.0
  0
LINE
  5
278
100
AcDbEntity
  8
wheels
 62
7
100
AcDbLine
 10
204.897296
 20
31.547156
 30
0.0
 11
204.897296
 21
31.547156
 31
0.0
  0
SPLINE
  5
279
100
AcDbEntity
  8
wheels
 62
7
100
AcDbSpline
 70
8
 71
3
 72
8
 73
4
 74
0
 40
0
 40
0
 40
0
 40
0
 40
1
 40
1
 40
1
 40
1
 10
184.171601
 20
42.615558
 30
0.0
 10
184.205871
 20
42.133784
 30
0.0
 10
184.038070
 20
41.659483
 30
0.0
 10
183.708456
 20
41.306445
 30
0.0
  0
SPLINE
  5
27a
100
AcDbEntity
  8
wheels
 62
7
100
AcDbSpline
 70
8
 71
3
 72
8
 73
4
 74
0
 40
0
 40
0
 40
0
 40
0
 40
1
 40
1
 40
1
 40
1
 10
183.708456
 20
41.306445
 30
0.0
 10
183.378842
 20
40.953407
 30
0.0
 10
182.917159
 20
40.753490
 30
0.0
 10
182.434168
 20
40.754656
 30
0.0
  0
SPLINE
  5
27b
100
AcDbEntity
  8
wheels
 62
7
100
AcDbSpline
 70
8
 71
3
 72
8
 73
4
 74
0
 40
0
 40
0
 40
0
 40
0
 40
1
 40
1
 40
1
 40
1
 10
182.434168
 20
40.754656
 30
0.0
 10
181.484583
 20
40.768633
 30
0.0
 10
180.722124
 20
41.542398
 30
0.0
 10
180.722124
 20
42.492086
 30
0.0
  0
SPLINE
  5
27c
100
AcDbEntity
  8
wheels
 62
7
100
AcDbSpline
 70
8
 71
3
 72
8
 73
4
 74
0
 40
0
 40
0
 40
0
 40
0
 40
1
 40
1
 40
1
 40
1
 10
180.722124
 20
42.492086
 30
0.0
 10
180.722124
 20
43.441774
 30
0.0
 10
181.484583
 20
44.215539
 30
0.0
 10
182.434168
 20
44.229517
 30
0.0
  0
SPLINE
  5
27d
100
AcDbEntity
  8
wheels
 62
7
100
AcDbSpline
 70
8
 71
3
 72
8
 73
4
 74
0
 40
0
 40
0
 40
0
 40
0
 40
1
 40
1
 40
1
 40
1
 10
182.434168
 20
44.229517
 30
0.0
 10
183.347468
 20
44.231735
 30
0.0
 10
184.106607
 20
43.526546
 30
0.0
 10
184.171601
 20
42.615558
 30
0.0
  0
LINE
  5
27e
100
AcDbEntity
  8
wheels
 62
7
100
AcDbLine
 10
184.171601
 20
42.615558
 30
0.0
 11
184.171601
 21
42.615558
 31
0.0
  0
SPLINE
  5
27f
100
AcDbEntity
  8
wheels
 62
7
100
AcDbSpline
 70
8
 71
3
 72
8
 73
4
 74
0
 40
0
 40
0
 40
0
 40
0
 40
1
 40
1
 40
1
 40
1
 10
184.171601
 20
22.621875
 30
0.0
 10
184.205870
 20
22.140101
 30
0.0
 10
184.038069
 20
21.665801
 30
0.0
 10
183.708455
 20
21.312763
 30
0.0
  0
SPLINE
  5
280
100
AcDbEntity
  8
wheels
 62
7
100
AcDbSpline
 70
8
 71
3
 72
8
 73
4
 74
0
 40
0
 40
0
 40
0
 40
0
 40
1
 40
1
 40
1
 40
1
 10
183.708455
 20
21.312763
 30
0.0
 10
183.378841
 20
20.959726
 30
0.0
 10
182.917158
 20
20.759809
 30
0.0
 10
182.434168
 20
20.760975
 30
0.0
  0
SPLINE
  5
281
100
AcDbEntity
  8
wheels
 62
7
100
AcDbSpline
 70
8
 71
3
 72
8
 73
4
 74
0
 40
0
 40
0
 40
0
 40
0
 40
1
 40
1
 40
1
 40
1
 10
182.434168
 20
20.760975
 30
0.0
 10
181.484594
 20
20.774967
 30
0.0
 10
180.722150
 20
21.548728
 30
0.0
 10
180.722150
 20
22.498406
 30
0.0
  0
SPLINE
  5
282
100
AcDbEntity
  8
wheels
 62
7
100
AcDbSpline
 70
8
 71
3
 72
8
 73
4
 74
0
 40
0
 40
0
 40
0
 40
0
 40
1
 40
1
 40
1
 40
1
 10
180.722150
 20
22.498406
 30
0.0
 10
180.722150
 20
23.448083
 30
0.0
 10
181.484594
 20
24.221844
 30
0.0
 10
182.434168
 20
24.235836
 30
0.0
  0
SPLINE
  5
283
100
AcDbEntity
  8
wheels
 62
7
100
AcDbSpline
 70
8
 71
3
 72
8
 73
4
 74
0
 40
0
 40
0
 40
0
 40
0
 40
1
 40
1
 40
1
 40
1
 10
182.434168
 20
24.235836
 30
0.0
 10
183.347469
 20
24.238054
 30
0.0
 10
184.106609
 20
23.532863
 30
0.0
 10
184.171601
 20
22.621875
 30
0.0
  0
LINE
  5
284
100
AcDbEntity
  8
wheels
 62
7
100
AcDbLine
 10
184.171601
 20
22.621875
 30
0.0
 11
184.171601
 21
22.621875
 31
0.0
  0
SPLINE
  5
285
100
AcDbEntity
  8
wheels
 62
7
100
AcDbSpline
 70
8
 71
3
 72
8
 73
4
 74
0
 40
0
 40
0
 40
0
 40
0
 40
1
 40
1
 40
1
 40
1
 10
179.170976
 20
42.615558
 30
0.0
 10
179.205246
 20
42.133784
 30
0.0
 10
179.037446
 20
41.659484
 30
0.0
 10
178.707832
 20
41.306446
 30
0.0
  0
SPLINE
  5
286
100
AcDbEntity
  8
wheels
 62
7
100
AcDbSpline
 70
8
 71
3
 72
8
 73
4
 74
0
 40
0
 40
0
 40
0
 40
0
 40
1
 40
1
 40
1
 40
1
 10
178.707832
 20
41.306446
 30
0.0
 10
178.378219
 20
40.953408
 30
0.0
 10
177.916536
 20
40.753491
 30
0.0
 10
177.433546
 20
40.754656
 30
0.0
  0
SPLINE
  5
287
100
AcDbEntity
  8
wheels
 62
7
100
AcDbSpline
 70
8
 71
3
 72
8
 73
4
 74
0
 40
0
 40
0
 40
0
 40
0
 40
1
 40
1
 40
1
 40
1
 10
177.433546
 20
40.754656
 30
0.0
 10
176.483962
 20
40.768635
 30
0.0
 10
175.721505
 20
41.542400
 30
0.0
 10
175.721505
 20
42.492086
 30
0.0
  0
SPLINE
  5
288
100
AcDbEntity
  8
wheels
 62
7
100
AcDbSpline
 70
8
 71
3
 72
8
 73
4
 74
0
 40
0
 40
0
 40
0
 40
0
 40
1
 40
1
 40
1
 40
1
 10
175.721505
 20
42.492086
 30
0.0
 10
175.721505
 20
43.441772
 30
0.0
 10
176.483962
 20
44.215537
 30
0.0
 10
177.433546
 20
44.229517
 30
0.0
  0
SPLINE
  5
289
100
AcDbEntity
  8
wheels
 62
7
100
AcDbSpline
 70
8
 71
3
 72
8
 73
4
 74
0
 40
0
 40
0
 40
0
 40
0
 40
1
 40
1
 40
1
 40
1
 10
177.433546
 20
44.229517
 30
0.0
 10
178.346845
 20
44.231733
 30
0.0
 10
179.105982
 20
43.526545
 30
0.0
 10
179.170976
 20
42.615558
 30
0.0
  0
LINE
  5
28a
100
AcDbEntity
  8
wheels
 62
7
100
AcDbLine
 10
179.170976
 20
42.615558
 30
0.0
 11
179.170976
 21
42.615558
 31
0.0
  0
SPLINE
  5
28b
100
AcDbEntity
  8
wheels
 62
7
100
AcDbSpline
 70
8
 71
3
 72
8
 73
4
 74
0
 40
0
 40
0
 40
0
 40
0
 40
1
 40
1
 40
1
 40
1
 10
179.170976
 20
22.621875
 30
0.0
 10
179.205245
 20
22.140101
 30
0.0
 10
179.037444
 20
21.665802
 30
0.0
 10
178.707831
 20
21.312764
 30
0.0
  0
SPLINE
  5
28c
100
AcDbEntity
  8
wheels
 62
7
100
AcDbSpline
 70
8
 71
3
 72
8
 73
4
 74
0
 40
0
 40
0
 40
0
 40
0
 40
1
 40
1
 40
1
 40
1
 10
178.707831
 20
21.312764
 30
0.0
 10
178.378217
 20
20.959727
 30
0.0
 10
177.916535
 20
20.759810
 30
0.0
 10
177.433546
 20
20.760975
 30
0.0
  0
SPLINE
  5
28d
100
AcDbEntity
  8
wheels
 62
7
100
AcDbSpline
 70
8
 71
3
 72
8
 73
4
 74
0
 40
0
 40
0
 40
0
 40
0
 40
1
 40
1
 40
1
 40
1
 10
177.433546
 20
20.760975
 30
0.0
 10
176.483970
 20
20.774965
 30
0.0
 10
175.721524
 20
21.548727
 30
0.0
 10
175.721524
 20
22.498406
 30
0.0
  0
SPLINE
  5
28e
100
AcDbEntity
  8
wheels
 62
7
100
AcDbSpline
 70
8
 71
3
 72
8
 73
4
 74
0
 40
0
 40
0
 40
0
 40
0
 40
1
 40
1
 40
1
 40
1
 10
175.721524
 20
22.498406
 30
0.0
 10
175.721524
 20
23.448085
 30
0.0
 10
176.483970
 20
24.221846
 30
0.0
 10
177.433546
 20
24.235836
 30
0.0
  0
SPLINE
  5
28f
100
AcDbEntity
  8
wheels
 62
7
100
AcDbSpline
 70
8
 71
3
 72
8
 73
4
 74
0
 40
0
 40
0
 40
0
 40
0
 40
1
 40
1
 40
1
 40
1
 10
177.433546
 20
24.235836
 30
0.0
 10
178.346846
 20
24.238052
 30
0.0
 10
179.105984
 20
23.532862
 30
0.0
 10
179.170976
 20
22.621875
 30
0.0
  0
LINE
  5
290
100
AcDbEntity
  8
wheels
 62
7
100
AcDbLine
 10
179.170976
 20
22.621875
 30
0.0
 11
179.170976
 21
22.621875
 31
0.0
  0
SPLINE
  5
291
100
AcDbEntity
  8
wheels
 62
7
100
AcDbSpline
 70
8
 71
3
 72
8
 73
4
 74
0
 40
0
 40
0
 40
0
 40
0
 40
1
 40
1
 40
1
 40
1
 10
174.928821
 20
32.420281
 30
0.0
 10
174.890836
 20
31.069368
 30
0.0
 10
173.784367
 20
29.994177
 30
0.0
 10
172.432921
 20
29.994936
 30
0.0
  0
SPLINE
  5
292
100
AcDbEntity
  8
wheels
 62
7
100
AcDbSpline
 70
8
 71
3
 72
8
 73
4
 74
0
 40
0
 40
0
 40
0
 40
0
 40
1
 40
1
 40
1
 40
1
 10
172.432921
 20
29.994936
 30
0.0
 10
171.055681
 20
29.996644
 30
0.0
 10
169.940113
 20
31.113597
 30
0.0
 10
169.940113
 20
32.490838
 30
0.0
  0
SPLINE
  5
293
100
AcDbEntity
  8
wheels
 62
7
100
AcDbSpline
 70
8
 71
3
 72
8
 73
4
 74
0
 40
0
 40
0
 40
0
 40
0
 40
1
 40
1
 40
1
 40
1
 10
169.940113
 20
32.490838
 30
0.0
 10
169.940113
 20
33.868078
 30
0.0
 10
171.055681
 20
34.985031
 30
0.0
 10
172.432921
 20
34.986739
 30
0.0
  0
SPLINE
  5
294
100
AcDbEntity
  8
wheels
 62
7
100
AcDbSpline
 70
8
 71
3
 72
8
 73
4
 74
0
 40
0
 40
0
 40
0
 40
0
 40
1
 40
1
 40
1
 40
1
 10
172.432921
 20
34.986739
 30
0.0
 10
173.107319
 20
34.987124
 30
0.0
 10
173.753161
 20
34.714537
 30
0.0
 10
174.223341
 20
34.231066
 30
0.0
  0
SPLINE
  5
295
100
AcDbEntity
  8
wheels
 62
7
100
AcDbSpline
 70
8
 71
3
 72
8
 73
4
 74
0
 40
0
 40
0
 40
0
 40
0
 40
1
 40
1
 40
1
 40
1
 10
174.223341
 20
34.231066
 30
0.0
 10
174.693520
 20
33.747594
 30
0.0
 10
174.948001
 20
33.094406
 30
0.0
 10
174.928821
 20
32.420281
 30
0.0
  0
LINE
  5
296
100
AcDbEntity
  8
wheels
 62
7
100
AcDbLine
 10
174.928821
 20
32.420281
 30
0.0
 11
174.928821
 21
32.420281
 31
0.0
  0
SPLINE
  5
297
100
AcDbEntity
  8
wheels
 62
7
100
AcDbSpline
 70
8
 71
3
 72
8
 73
4
 74
0
 40
0
 40
0
 40
0
 40
0
 40
1
 40
1
 40
1
 40
1
 10
169.169726
 20
42.615558
 30
0.0
 10
169.203996
 20
42.133784
 30
0.0
 10
169.036195
 20
41.659483
 30
0.0
 10
168.706581
 20
41.306445
 30
0.0
  0
SPLINE
  5
298
100
AcDbEntity
  8
wheels
 62
7
100
AcDbSpline
 70
8
 71
3
 72
8
 73
4
 74
0
 40
0
 40
0
 40
0
 40
0
 40
1
 40
1
 40
1
 40
1
 10
168.706581
 20
41.306445
 30
0.0
 10
168.376967
 20
40.953407
 30
0.0
 10
167.915284
 20
40.753490
 30
0.0
 10
167.432293
 20
40.754656
 30
0.0
  0
SPLINE
  5
299
100
AcDbEntity
  8
wheels
 62
7
100
AcDbSpline
 70
8
 71
3
 72
8
 73
4
 74
0
 40
0
 40
0
 40
0
 40
0
 40
1
 40
1
 40
1
 40
1
 10
167.432293
 20
40.754656
 30
0.0
 10
166.482711
 20
40.768637
 30
0.0
 10
165.720256
 20
41.542401
 30
0.0
 10
165.720256
 20
42.492086
 30
0.0
  0
SPLINE
  5
29a
100
AcDbEntity
  8
wheels
 62
7
100
AcDbSpline
 70
8
 71
3
 72
8
 73
4
 74
0
 40
0
 40
0
 40
0
 40
0
 40
1
 40
1
 40
1
 40
1
 10
165.720256
 20
42.492086
 30
0.0
 10
165.720256
 20
43.441771
 30
0.0
 10
166.482711
 20
44.215535
 30
0.0
 10
167.432293
 20
44.229517
 30
0.0
  0
SPLINE
  5
29b
100
AcDbEntity
  8
wheels
 62
7
100
AcDbSpline
 70
8
 71
3
 72
8
 73
4
 74
0
 40
0
 40
0
 40
0
 40
0
 40
1
 40
1
 40
1
 40
1
 10
167.432293
 20
44.229517
 30
0.0
 10
168.345593
 20
44.231735
 30
0.0
 10
169.104732
 20
43.526546
 30
0.0
 10
169.169726
 20
42.615558
 30
0.0
  0
LINE
  5
29c
100
AcDbEntity
  8
wheels
 62
7
100
AcDbLine
 10
169.169726
 20
42.615558
 30
0.0
 11
169.169726
 21
42.615558
 31
0.0
  0
SPLINE
  5
29d
100
AcDbEntity
  8
wheels
 62
7
100
AcDbSpline
 70
8
 71
3
 72
8
 73
4
 74
0
 40
0
 40
0
 40
0
 40
0
 40
1
 40
1
 40
1
 40
1
 10
169.169726
 20
22.621875
 30
0.0
 10
169.203995
 20
22.140101
 30
0.0
 10
169.036194
 20
21.665801
 30
0.0
 10
168.706580
 20
21.312763
 30
0.0
  0
SPLINE
  5
29e
100
AcDbEntity
  8
wheels
 62
7
100
AcDbSpline
 70
8
 71
3
 72
8
 73
4
 74
0
 40
0
 40
0
 40
0
 40
0
 40
1
 40
1
 40
1
 40
1
 10
168.706580
 20
21.312763
 30
0.0
 10
168.376966
 20
20.959726
 30
0.0
 10
167.915283
 20
20.759809
 30
0.0
 10
167.432293
 20
20.760975
 30
0.0
  0
SPLINE
  5
29f
100
AcDbEntity
  8
wheels
 62
7
100
AcDbSpline
 70
8
 71
3
 72
8
 73
4
 74
0
 40
0
 40
0
 40
0
 40
0
 40
1
 40
1
 40
1
 40
1
 10
167.432293
 20
20.760975
 30
0.0
 10
166.482716
 20
20.774963
 30
0.0
 10
165.720267
 20
21.548725
 30
0.0
 10
165.720267
 20
22.498406
 30
0.0
  0
SPLINE
  5
2a0
100
AcDbEntity
  8
wheels
 62
7
100
AcDbSpline
 70
8
 71
3
 72
8
 73
4
 74
0
 40
0
 40
0
 40
0
 40
0
 40
1
 40
1
 40
1
 40
1
 10
165.720267
 20
22.498406
 30
0.0
 10
165.720267
 20
23.448086
 30
0.0
 10
166.482716
 20
24.221848
 30
0.0
 10
167.432293
 20
24.235836
 30
0.0
  0
SPLINE
  5
2a1
100
AcDbEntity
  8
wheels
 62
7
100
AcDbSpline
 70
8
 71
3
 72
8
 73
4
 74
0
 40
0
 40
0
 40
0
 40
0
 40
1
 40
1
 40
1
 40
1
 10
167.432293
 20
24.235836
 30
0.0
 10
168.345594
 20
24.238054
 30
0.0
 10
169.104734
 20
23.532863
 30
0.0
 10
169.169726
 20
22.621875
 30
0.0
  0
LINE
  5
2a2
100
AcDbEntity
  8
wheels
 62
7
100
AcDbLine
 10
169.169726
 20
22.621875
 30
0.0
 11
169.169726
 21
22.621875
 31
0.0
  0
SPLINE
  5
2a3
100
AcDbEntity
  8
wheels
 62
7
100
AcDbSpline
 70
8
 71
3
 72
8
 73
4
 74
0
 40
0
 40
0
 40
0
 40
0
 40
1
 40
1
 40
1
 40
1
 10
164.169098
 20
42.615558
 30
0.0
 10
164.203368
 20
42.133785
 30
0.0
 10
164.035568
 20
41.659485
 30
0.0
 10
163.705955
 20
41.306447
 30
0.0
  0
SPLINE
  5
2a4
100
AcDbEntity
  8
wheels
 62
7
100
AcDbSpline
 70
8
 71
3
 72
8
 73
4
 74
0
 40
0
 40
0
 40
0
 40
0
 40
1
 40
1
 40
1
 40
1
 10
163.705955
 20
41.306447
 30
0.0
 10
163.376342
 20
40.953409
 30
0.0
 10
162.914660
 20
40.753491
 30
0.0
 10
162.431671
 20
40.754656
 30
0.0
  0
SPLINE
  5
2a5
100
AcDbEntity
  8
wheels
 62
7
100
AcDbSpline
 70
8
 71
3
 72
8
 73
4
 74
0
 40
0
 40
0
 40
0
 40
0
 40
1
 40
1
 40
1
 40
1
 10
162.431671
 20
40.754656
 30
0.0
 10
161.482090
 20
40.768639
 30
0.0
 10
160.719638
 20
41.542403
 30
0.0
 10
160.719638
 20
42.492086
 30
0.0
  0
SPLINE
  5
2a6
100
AcDbEntity
  8
wheels
 62
7
100
AcDbSpline
 70
8
 71
3
 72
8
 73
4
 74
0
 40
0
 40
0
 40
0
 40
0
 40
1
 40
1
 40
1
 40
1
 10
160.719638
 20
42.492086
 30
0.0
 10
160.719638
 20
43.441769
 30
0.0
 10
161.482090
 20
44.215533
 30
0.0
 10
162.431671
 20
44.229517
 30
0.0
  0
SPLINE
  5
2a7
100
AcDbEntity
  8
wheels
 62
7
100
AcDbSpline
 70
8
 71
3
 72
8
 73
4
 74
0
 40
0
 40
0
 40
0
 40
0
 40
1
 40
1
 40
1
 40
1
 10
162.431671
 20
44.229517
 30
0.0
 10
163.344969
 20
44.231732
 30
0.0
 10
164.104105
 20
43.526543
 30
0.0
 10
164.169098
 20
42.615558
 30
0.0
  0
LINE
  5
2a8
100
AcDbEntity
  8
wheels
 62
7
100
AcDbLine
 10
164.169098
 20
42.615558
 30
0.0
 11
164.169098
 21
42.615558
 31
0.0
  0
SPLINE
  5
2a9
100
AcDbEntity
  8
wheels
 62
7
100
AcDbSpline
 70
8
 71
3
 72
8
 73
4
 74
0
 40
0
 40
0
 40
0
 40
0
 40
1
 40
1
 40
1
 40
1
 10
164.169098
 20
22.621875
 30
0.0
 10
164.203367
 20
22.140102
 30
0.0
 10
164.035567
 20
21.665803
 30
0.0
 10
163.705954
 20
21.312765
 30
0.0
  0
SPLINE
  5
2aa
100
AcDbEntity
  8
wheels
 62
7
100
AcDbSpline
 70
8
 71
3
 72
8
 73
4
 74
0
 40
0
 40
0
 40
0
 40
0
 40
1
 40
1
 40
1
 40
1
 10
163.705954
 20
21.312765
 30
0.0
 10
163.376341
 20
20.959728
 30
0.0
 10
162.914660
 20
20.759811
 30
0.0
 10
162.431671
 20
20.760975
 30
0.0
  0
SPLINE
  5
2ab
100
AcDbEntity
  8
wheels
 62
7
100
AcDbSpline
 70
8
 71
3
 72
8
 73
4
 74
0
 40
0
 40
0
 40
0
 40
0
 40
1
 40
1
 40
1
 40
1
 10
162.431671
 20
20.760975
 30
0.0
 10
161.482092
 20
20.774961
 30
0.0
 10
160.719642
 20
21.548724
 30
0.0
 10
160.719642
 20
22.498406
 30
0.0
  0
SPLINE
  5
2ac
100
AcDbEntity
  8
wheels
 62
7
100
AcDbSpline
 70
8
 71
3
 72
8
 73
4
 74
0
 40
0
 40
0
 40
0
 40
0
 40
1
 40
1
 40
1
 40
1
 10
160.719642
 20
22.498406
 30
0.0
 10
160.719642
 20
23.448087
 30
0.0
 10
161.482092
 20
24.221850
 30
0.0
 10
162.431671
 20
24.235836
 30
0.0
  0
SPLINE
  5
2ad
100
AcDbEntity
  8
wheels
 62
7
100
AcDbSpline
 70
8
 71
3
 72
8
 73
4
 74
0
 40
0
 40
0
 40
0
 40
0
 40
1
 40
1
 40
1
 40
1
 10
162.431671
 20
24.235836
 30
0.0
 10
163.344970
 20
24.238051
 30
0.0
 10
164.104106
 20
23.532861
 30
0.0
 10
164.169098
 20
22.621875
 30
0.0
  0
LINE
  5
2ae
100
AcDbEntity
  8
wheels
 62
7
100
AcDbLine
 10
164.169098
 20
22.621875
 30
0.0
 11
164.169098
 21
22.621875
 31
0.0
  0
SPLINE
  5
2af
100
AcDbEntity
  8
wheels
 62
7
100
AcDbSpline
 70
8
 71
3
 72
8
 73
4
 74
0
 40
0
 40
0
 40
0
 40
0
 40
1
 40
1
 40
1
 40
1
 10
274.897294
 20
31.547153
 30
0.0
 10
275.152399
 20
40.320380
 30
0.0
 10
271.845290
 20
48.823252
 30
0.0
 10
265.729428
 20
55.118554
 30
0.0
  0
SPLINE
  5
2b0
100
AcDbEntity
  8
wheels
 62
7
100
AcDbSpline
 70
8
 71
3
 72
8
 73
4
 74
0
 40
0
 40
0
 40
0
 40
0
 40
1
 40
1
 40
1
 40
1
 10
265.729428
 20
55.118554
 30
0.0
 10
259.613565
 20
61.413855
 30
0.0
 10
251.209854
 20
64.965398
 30
0.0
 10
242.432919
 20
64.964031
 30
0.0
  0
SPLINE
  5
2b1
100
AcDbEntity
  8
wheels
 62
7
100
AcDbSpline
 70
8
 71
3
 72
8
 73
4
 74
0
 40
0
 40
0
 40
0
 40
0
 40
1
 40
1
 40
1
 40
1
 10
242.432919
 20
64.964031
 30
0.0
 10
230.831364
 20
64.964031
 30
0.0
 10
220.111085
 20
58.774675
 30
0.0
 10
214.310308
 20
48.727433
 30
0.0
  0
SPLINE
  5
2b2
100
AcDbEntity
  8
wheels
 62
7
100
AcDbSpline
 70
8
 71
3
 72
8
 73
4
 74
0
 40
0
 40
0
 40
0
 40
0
 40
1
 40
1
 40
1
 40
1
 10
214.310308
 20
48.727433
 30
0.0
 10
208.509530
 20
38.680192
 30
0.0
 10
208.509530
 20
26.301480
 30
0.0
 10
214.310308
 20
16.254239
 30
0.0
  0
SPLINE
  5
2b3
100
AcDbEntity
  8
wheels
 62
7
100
AcDbSpline
 70
8
 71
3
 72
8
 73
4
 74
0
 40
0
 40
0
 40
0
 40
0
 40
1
 40
1
 40
1
 40
1
 10
214.310308
 20
16.254239
 30
0.0
 10
220.111085
 20
6.206998
 30
0.0
 10
230.831364
 20
0.017642
 30
0.0
 10
242.432919
 20
0.017642
 30
0.0
  0
SPLINE
  5
2b4
100
AcDbEntity
  8
wheels
 62
7
100
AcDbSpline
 70
8
 71
3
 72
8
 73
4
 74
0
 40
0
 40
0
 40
0
 40
0
 40
1
 40
1
 40
1
 40
1
 10
242.432919
 20
0.017642
 30
0.0
 10
260.001820
 20
0.014910
 30
0.0
 10
274.386819
 20
13.985670
 30
0.0
 10
274.897294
 20
31.547153
 30
0.0
  0
LINE
  5
2b5
100
AcDbEntity
  8
wheels
 62
7
100
AcDbLine
 10
274.897294
 20
31.547153
 30
0.0
 11
274.897294
 21
31.547153
 31
0.0
  0
SPLINE
  5
2b6
100
AcDbEntity
  8
wheels
 62
7
100
AcDbSpline
 70
8
 71
3
 72
8
 73
4
 74
0
 40
0
 40
0
 40
0
 40
0
 40
1
 40
1
 40
1
 40
1
 10
254.171600
 20
42.615561
 30
0.0
 10
254.205870
 20
42.133787
 30
0.0
 10
254.038070
 20
41.659485
 30
0.0
 10
253.708456
 20
41.306447
 30
0.0
  0
SPLINE
  5
2b7
100
AcDbEntity
  8
wheels
 62
7
100
AcDbSpline
 70
8
 71
3
 72
8
 73
4
 74
0
 40
0
 40
0
 40
0
 40
0
 40
1
 40
1
 40
1
 40
1
 10
253.708456
 20
41.306447
 30
0.0
 10
253.378843
 20
40.953408
 30
0.0
 10
252.917160
 20
40.753491
 30
0.0
 10
252.434169
 20
40.754656
 30
0.0
  0
SPLINE
  5
2b8
100
AcDbEntity
  8
wheels
 62
7
100
AcDbSpline
 70
8
 71
3
 72
8
 73
4
 74
0
 40
0
 40
0
 40
0
 40
0
 40
1
 40
1
 40
1
 40
1
 10
252.434169
 20
40.754656
 30
0.0
 10
251.484584
 20
40.768633
 30
0.0
 10
250.722125
 20
41.542398
 30
0.0
 10
250.722125
 20
42.492086
 30
0.0
  0
SPLINE
  5
2b9
100
AcDbEntity
  8
wheels
 62
7
100
AcDbSpline
 70
8
 71
3
 72
8
 73
4
 74
0
 40
0
 40
0
 40
0
 40
0
 40
1
 40
1
 40
1
 40
1
 10
250.722125
 20
42.492086
 30
0.0
 10
250.722125
 20
43.441774
 30
0.0
 10
251.484584
 20
44.215539
 30
0.0
 10
252.434169
 20
44.229517
 30
0.0
  0
SPLINE
  5
2ba
100
AcDbEntity
  8
wheels
 62
7
100
AcDbSpline
 70
8
 71
3
 72
8
 73
4
 74
0
 40
0
 40
0
 40
0
 40
0
 40
1
 40
1
 40
1
 40
1
 10
252.434169
 20
44.229517
 30
0.0
 10
253.347467
 20
44.231733
 30
0.0
 10
254.106604
 20
43.526546
 30
0.0
 10
254.171600
 20
42.615561
 30
0.0
  0
LINE
  5
2bb
100
AcDbEntity
  8
wheels
 62
7
100
AcDbLine
 10
254.171600
 20
42.615561
 30
0.0
 11
254.171600
 21
42.615561
 31
0.0
  0
SPLINE
  5
2bc
100
AcDbEntity
  8
wheels
 62
7
100
AcDbSpline
 70
8
 71
3
 72
8
 73
4
 74
0
 40
0
 40
0
 40
0
 40
0
 40
1
 40
1
 40
1
 40
1
 10
254.171600
 20
22.621878
 30
0.0
 10
254.205868
 20
22.140104
 30
0.0
 10
254.038068
 20
21.665804
 30
0.0
 10
253.708454
 20
21.312767
 30
0.0
  0
SPLINE
  5
2bd
100
AcDbEntity
  8
wheels
 62
7
100
AcDbSpline
 70
8
 71
3
 72
8
 73
4
 74
0
 40
0
 40
0
 40
0
 40
0
 40
1
 40
1
 40
1
 40
1
 10
253.708454
 20
21.312767
 30
0.0
 10
253.378841
 20
20.959730
 30
0.0
 10
252.917159
 20
20.759813
 30
0.0
 10
252.434169
 20
20.760978
 30
0.0
  0
SPLINE
  5
2be
100
AcDbEntity
  8
wheels
 62
7
100
AcDbSpline
 70
8
 71
3
 72
8
 73
4
 74
0
 40
0
 40
0
 40
0
 40
0
 40
1
 40
1
 40
1
 40
1
 10
252.434169
 20
20.760978
 30
0.0
 10
251.484670
 20
20.775073
 30
0.0
 10
250.722342
 20
21.548802
 30
0.0
 10
250.722342
 20
22.498406
 30
0.0
  0
SPLINE
  5
2bf
100
AcDbEntity
  8
wheels
 62
7
100
AcDbSpline
 70
8
 71
3
 72
8
 73
4
 74
0
 40
0
 40
0
 40
0
 40
0
 40
1
 40
1
 40
1
 40
1
 10
250.722342
 20
22.498406
 30
0.0
 10
250.722342
 20
23.448009
 30
0.0
 10
251.484670
 20
24.221738
 30
0.0
 10
252.434169
 20
24.235833
 30
0.0
  0
SPLINE
  5
2c0
100
AcDbEntity
  8
wheels
 62
7
100
AcDbSpline
 70
8
 71
3
 72
8
 73
4
 74
0
 40
0
 40
0
 40
0
 40
0
 40
1
 40
1
 40
1
 40
1
 10
252.434169
 20
24.235833
 30
0.0
 10
253.347467
 20
24.238050
 30
0.0
 10
254.106604
 20
23.532863
 30
0.0
 10
254.171600
 20
22.621878
 30
0.0
  0
LINE
  5
2c1
100
AcDbEntity
  8
wheels
 62
7
100
AcDbLine
 10
254.171600
 20
22.621878
 30
0.0
 11
254.171600
 21
22.621878
 31
0.0
  0
SPLINE
  5
2c2
100
AcDbEntity
  8
wheels
 62
7
100
AcDbSpline
 70
8
 71
3
 72
8
 73
4
 74
0
 40
0
 40
0
 40
0
 40
0
 40
1
 40
1
 40
1
 40
1
 10
249.170975
 20
42.615561
 30
0.0
 10
249.205245
 20
42.133787
 30
0.0
 10
249.037445
 20
41.659485
 30
0.0
 10
248.707831
 20
41.306447
 30
0.0
  0
SPLINE
  5
2c3
100
AcDbEntity
  8
wheels
 62
7
100
AcDbSpline
 70
8
 71
3
 72
8
 73
4
 74
0
 40
0
 40
0
 40
0
 40
0
 40
1
 40
1
 40
1
 40
1
 10
248.707831
 20
41.306447
 30
0.0
 10
248.378218
 20
40.953408
 30
0.0
 10
247.916535
 20
40.753491
 30
0.0
 10
247.433544
 20
40.754656
 30
0.0
  0
SPLINE
  5
2c4
100
AcDbEntity
  8
wheels
 62
7
100
AcDbSpline
 70
8
 71
3
 72
8
 73
4
 74
0
 40
0
 40
0
 40
0
 40
0
 40
1
 40
1
 40
1
 40
1
 10
247.433544
 20
40.754656
 30
0.0
 10
246.483961
 20
40.768635
 30
0.0
 10
245.721503
 20
41.542400
 30
0.0
 10
245.721503
 20
42.492086
 30
0.0
  0
SPLINE
  5
2c5
100
AcDbEntity
  8
wheels
 62
7
100
AcDbSpline
 70
8
 71
3
 72
8
 73
4
 74
0
 40
0
 40
0
 40
0
 40
0
 40
1
 40
1
 40
1
 40
1
 10
245.721503
 20
42.492086
 30
0.0
 10
245.721503
 20
43.441772
 30
0.0
 10
246.483961
 20
44.215537
 30
0.0
 10
247.433544
 20
44.229517
 30
0.0
  0
SPLINE
  5
2c6
100
AcDbEntity
  8
wheels
 62
7
100
AcDbSpline
 70
8
 71
3
 72
8
 73
4
 74
0
 40
0
 40
0
 40
0
 40
0
 40
1
 40
1
 40
1
 40
1
 10
247.433544
 20
44.229517
 30
0.0
 10
248.346842
 20
44.231733
 30
0.0
 10
249.105979
 20
43.526546
 30
0.0
 10
249.170975
 20
42.615561
 30
0.0
  0
LINE
  5
2c7
100
AcDbEntity
  8
wheels
 62
7
100
AcDbLine
 10
249.170975
 20
42.615561
 30
0.0
 11
249.170975
 21
42.615561
 31
0.0
  0
SPLINE
  5
2c8
100
AcDbEntity
  8
wheels
 62
7
100
AcDbSpline
 70
8
 71
3
 72
8
 73
4
 74
0
 40
0
 40
0
 40
0
 40
0
 40
1
 40
1
 40
1
 40
1
 10
249.170975
 20
22.621878
 30
0.0
 10
249.205243
 20
22.140104
 30
0.0
 10
249.037443
 20
21.665804
 30
0.0
 10
248.707829
 20
21.312767
 30
0.0
  0
SPLINE
  5
2c9
100
AcDbEntity
  8
wheels
 62
7
100
AcDbSpline
 70
8
 71
3
 72
8
 73
4
 74
0
 40
0
 40
0
 40
0
 40
0
 40
1
 40
1
 40
1
 40
1
 10
248.707829
 20
21.312767
 30
0.0
 10
248.378216
 20
20.959730
 30
0.0
 10
247.916534
 20
20.759813
 30
0.0
 10
247.433544
 20
20.760978
 30
0.0
  0
SPLINE
  5
2ca
100
AcDbEntity
  8
wheels
 62
7
100
AcDbSpline
 70
8
 71
3
 72
8
 73
4
 74
0
 40
0
 40
0
 40
0
 40
0
 40
1
 40
1
 40
1
 40
1
 10
247.433544
 20
20.760978
 30
0.0
 10
246.484044
 20
20.775071
 30
0.0
 10
245.721713
 20
21.548801
 30
0.0
 10
245.721713
 20
22.498406
 30
0.0
  0
SPLINE
  5
2cb
100
AcDbEntity
  8
wheels
 62
7
100
AcDbSpline
 70
8
 71
3
 72
8
 73
4
 74
0
 40
0
 40
0
 40
0
 40
0
 40
1
 40
1
 40
1
 40
1
 10
245.721713
 20
22.498406
 30
0.0
 10
245.721713
 20
23.448010
 30
0.0
 10
246.484044
 20
24.221740
 30
0.0
 10
247.433544
 20
24.235833
 30
0.0
  0
SPLINE
  5
2cc
100
AcDbEntity
  8
wheels
 62
7
100
AcDbSpline
 70
8
 71
3
 72
8
 73
4
 74
0
 40
0
 40
0
 40
0
 40
0
 40
1
 40
1
 40
1
 40
1
 10
247.433544
 20
24.235833
 30
0.0
 10
248.346842
 20
24.238050
 30
0.0
 10
249.105979
 20
23.532863
 30
0.0
 10
249.170975
 20
22.621878
 30
0.0
  0
LINE
  5
2cd
100
AcDbEntity
  8
wheels
 62
7
100
AcDbLine
 10
249.170975
 20
22.621878
 30
0.0
 11
249.170975
 21
22.621878
 31
0.0
  0
SPLINE
  5
2ce
100
AcDbEntity
  8
wheels
 62
7
100
AcDbSpline
 70
8
 71
3
 72
8
 73
4
 74
0
 40
0
 40
0
 40
0
 40
0
 40
1
 40
1
 40
1
 40
1
 10
244.928822
 20
32.420283
 30
0.0
 10
244.890839
 20
31.069369
 30
0.0
 10
243.784367
 20
29.994175
 30
0.0
 10
242.432919
 20
29.994936
 30
0.0
  0
SPLINE
  5
2cf
100
AcDbEntity
  8
wheels
 62
7
100
AcDbSpline
 70
8
 71
3
 72
8
 73
4
 74
0
 40
0
 40
0
 40
0
 40
0
 40
1
 40
1
 40
1
 40
1
 10
242.432919
 20
29.994936
 30
0.0
 10
241.055092
 20
29.995815
 30
0.0
 10
239.938608
 20
31.113011
 30
0.0
 10
239.938608
 20
32.490839
 30
0.0
  0
SPLINE
  5
2d0
100
AcDbEntity
  8
wheels
 62
7
100
AcDbSpline
 70
8
 71
3
 72
8
 73
4
 74
0
 40
0
 40
0
 40
0
 40
0
 40
1
 40
1
 40
1
 40
1
 10
239.938608
 20
32.490839
 30
0.0
 10
239.938608
 20
33.868666
 30
0.0
 10
241.055092
 20
34.985863
 30
0.0
 10
242.432919
 20
34.986742
 30
0.0
  0
SPLINE
  5
2d1
100
AcDbEntity
  8
wheels
 62
7
100
AcDbSpline
 70
8
 71
3
 72
8
 73
4
 74
0
 40
0
 40
0
 40
0
 40
0
 40
1
 40
1
 40
1
 40
1
 10
242.432919
 20
34.986742
 30
0.0
 10
243.107318
 20
34.987128
 30
0.0
 10
243.753161
 20
34.714541
 30
0.0
 10
244.223341
 20
34.231070
 30
0.0
  0
SPLINE
  5
2d2
100
AcDbEntity
  8
wheels
 62
7
100
AcDbSpline
 70
8
 71
3
 72
8
 73
4
 74
0
 40
0
 40
0
 40
0
 40
0
 40
1
 40
1
 40
1
 40
1
 10
244.223341
 20
34.231070
 30
0.0
 10
244.693521
 20
33.747598
 30
0.0
 10
244.948003
 20
33.094410
 30
0.0
 10
244.928822
 20
32.420283
 30
0.0
  0
LINE
  5
2d3
100
AcDbEntity
  8
wheels
 62
7
100
AcDbLine
 10
244.928822
 20
32.420283
 30
0.0
 11
244.928822
 21
32.420283
 31
0.0
  0
SPLINE
  5
2d4
100
AcDbEntity
  8
wheels
 62
7
100
AcDbSpline
 70
8
 71
3
 72
8
 73
4
 74
0
 40
0
 40
0
 40
0
 40
0
 40
1
 40
1
 40
1
 40
1
 10
239.169725
 20
42.615561
 30
0.0
 10
239.203995
 20
42.133786
 30
0.0
 10
239.036195
 20
41.659484
 30
0.0
 10
238.706580
 20
41.306446
 30
0.0
  0
SPLINE
  5
2d5
100
AcDbEntity
  8
wheels
 62
7
100
AcDbSpline
 70
8
 71
3
 72
8
 73
4
 74
0
 40
0
 40
0
 40
0
 40
0
 40
1
 40
1
 40
1
 40
1
 10
238.706580
 20
41.306446
 30
0.0
 10
238.376966
 20
40.953407
 30
0.0
 10
237.915282
 20
40.753490
 30
0.0
 10
237.432291
 20
40.754656
 30
0.0
  0
SPLINE
  5
2d6
100
AcDbEntity
  8
wheels
 62
7
100
AcDbSpline
 70
8
 71
3
 72
8
 73
4
 74
0
 40
0
 40
0
 40
0
 40
0
 40
1
 40
1
 40
1
 40
1
 10
237.432291
 20
40.754656
 30
0.0
 10
236.482709
 20
40.768637
 30
0.0
 10
235.720254
 20
41.542401
 30
0.0
 10
235.720254
 20
42.492086
 30
0.0
  0
SPLINE
  5
2d7
100
AcDbEntity
  8
wheels
 62
7
100
AcDbSpline
 70
8
 71
3
 72
8
 73
4
 74
0
 40
0
 40
0
 40
0
 40
0
 40
1
 40
1
 40
1
 40
1
 10
235.720254
 20
42.492086
 30
0.0
 10
235.720254
 20
43.441771
 30
0.0
 10
236.482709
 20
44.215535
 30
0.0
 10
237.432291
 20
44.229517
 30
0.0
  0
SPLINE
  5
2d8
100
AcDbEntity
  8
wheels
 62
7
100
AcDbSpline
 70
8
 71
3
 72
8
 73
4
 74
0
 40
0
 40
0
 40
0
 40
0
 40
1
 40
1
 40
1
 40
1
 10
237.432291
 20
44.229517
 30
0.0
 10
238.345590
 20
44.231735
 30
0.0
 10
239.104729
 20
43.526547
 30
0.0
 10
239.169725
 20
42.615561
 30
0.0
  0
LINE
  5
2d9
100
AcDbEntity
  8
wheels
 62
7
100
AcDbLine
 10
239.169725
 20
42.615561
 30
0.0
 11
239.169725
 21
42.615561
 31
0.0
  0
SPLINE
  5
2da
100
AcDbEntity
  8
wheels
 62
7
100
AcDbSpline
 70
8
 71
3
 72
8
 73
4
 74
0
 40
0
 40
0
 40
0
 40
0
 40
1
 40
1
 40
1
 40
1
 10
239.169725
 20
22.621878
 30
0.0
 10
239.203993
 20
22.140104
 30
0.0
 10
239.036192
 20
21.665804
 30
0.0
 10
238.706578
 20
21.312766
 30
0.0
  0
SPLINE
  5
2db
100
AcDbEntity
  8
wheels
 62
7
100
AcDbSpline
 70
8
 71
3
 72
8
 73
4
 74
0
 40
0
 40
0
 40
0
 40
0
 40
1
 40
1
 40
1
 40
1
 10
238.706578
 20
21.312766
 30
0.0
 10
238.376964
 20
20.959729
 30
0.0
 10
237.915281
 20
20.759812
 30
0.0
 10
237.432291
 20
20.760978
 30
0.0
  0
SPLINE
  5
2dc
100
AcDbEntity
  8
wheels
 62
7
100
AcDbSpline
 70
8
 71
3
 72
8
 73
4
 74
0
 40
0
 40
0
 40
0
 40
0
 40
1
 40
1
 40
1
 40
1
 10
237.432291
 20
20.760978
 30
0.0
 10
236.482790
 20
20.775069
 30
0.0
 10
235.720457
 20
21.548800
 30
0.0
 10
235.720457
 20
22.498406
 30
0.0
  0
SPLINE
  5
2dd
100
AcDbEntity
  8
wheels
 62
7
100
AcDbSpline
 70
8
 71
3
 72
8
 73
4
 74
0
 40
0
 40
0
 40
0
 40
0
 40
1
 40
1
 40
1
 40
1
 10
235.720457
 20
22.498406
 30
0.0
 10
235.720457
 20
23.448012
 30
0.0
 10
236.482790
 20
24.221742
 30
0.0
 10
237.432291
 20
24.235833
 30
0.0
  0
SPLINE
  5
2de
100
AcDbEntity
  8
wheels
 62
7
100
AcDbSpline
 70
8
 71
3
 72
8
 73
4
 74
0
 40
0
 40
0
 40
0
 40
0
 40
1
 40
1
 40
1
 40
1
 10
237.432291
 20
24.235833
 30
0.0
 10
238.345590
 20
24.238051
 30
0.0
 10
239.104729
 20
23.532864
 30
0.0
 10
239.169725
 20
22.621878
 30
0.0
  0
LINE
  5
2df
100
AcDbEntity
  8
wheels
 62
7
100
AcDbLine
 10
239.169725
 20
22.621878
 30
0.0
 11
239.169725
 21
22.621878
 31
0.0
  0
SPLINE
  5
2e0
100
AcDbEntity
  8
wheels
 62
7
100
AcDbSpline
 70
8
 71
3
 72
8
 73
4
 74
0
 40
0
 40
0
 40
0
 40
0
 40
1
 40
1
 40
1
 40
1
 10
234.169097
 20
42.615561
 30
0.0
 10
234.203367
 20
42.133787
 30
0.0
 10
234.035567
 20
41.659485
 30
0.0
 10
233.705954
 20
41.306447
 30
0.0
  0
SPLINE
  5
2e1
100
AcDbEntity
  8
wheels
 62
7
100
AcDbSpline
 70
8
 71
3
 72
8
 73
4
 74
0
 40
0
 40
0
 40
0
 40
0
 40
1
 40
1
 40
1
 40
1
 10
233.705954
 20
41.306447
 30
0.0
 10
233.376340
 20
40.953408
 30
0.0
 10
232.914657
 20
40.753491
 30
0.0
 10
232.431666
 20
40.754656
 30
0.0
  0
SPLINE
  5
2e2
100
AcDbEntity
  8
wheels
 62
7
100
AcDbSpline
 70
8
 71
3
 72
8
 73
4
 74
0
 40
0
 40
0
 40
0
 40
0
 40
1
 40
1
 40
1
 40
1
 10
232.431666
 20
40.754656
 30
0.0
 10
231.482086
 20
40.768639
 30
0.0
 10
230.719633
 20
41.542403
 30
0.0
 10
230.719633
 20
42.492086
 30
0.0
  0
SPLINE
  5
2e3
100
AcDbEntity
  8
wheels
 62
7
100
AcDbSpline
 70
8
 71
3
 72
8
 73
4
 74
0
 40
0
 40
0
 40
0
 40
0
 40
1
 40
1
 40
1
 40
1
 10
230.719633
 20
42.492086
 30
0.0
 10
230.719633
 20
43.441769
 30
0.0
 10
231.482086
 20
44.215533
 30
0.0
 10
232.431666
 20
44.229517
 30
0.0
  0
SPLINE
  5
2e4
100
AcDbEntity
  8
wheels
 62
7
100
AcDbSpline
 70
8
 71
3
 72
8
 73
4
 74
0
 40
0
 40
0
 40
0
 40
0
 40
1
 40
1
 40
1
 40
1
 10
232.431666
 20
44.229517
 30
0.0
 10
233.344964
 20
44.231733
 30
0.0
 10
234.104101
 20
43.526546
 30
0.0
 10
234.169097
 20
42.615561
 30
0.0
  0
LINE
  5
2e5
100
AcDbEntity
  8
wheels
 62
7
100
AcDbLine
 10
234.169097
 20
42.615561
 30
0.0
 11
234.169097
 21
42.615561
 31
0.0
  0
SPLINE
  5
2e6
100
AcDbEntity
  8
wheels
 62
7
100
AcDbSpline
 70
8
 71
3
 72
8
 73
4
 74
0
 40
0
 40
0
 40
0
 40
0
 40
1
 40
1
 40
1
 40
1
 10
234.169097
 20
22.621878
 30
0.0
 10
234.203366
 20
22.140104
 30
0.0
 10
234.035565
 20
21.665804
 30
0.0
 10
233.705951
 20
21.312767
 30
0.0
  0
SPLINE
  5
2e7
100
AcDbEntity
  8
wheels
 62
7
100
AcDbSpline
 70
8
 71
3
 72
8
 73
4
 74
0
 40
0
 40
0
 40
0
 40
0
 40
1
 40
1
 40
1
 40
1
 10
233.705951
 20
21.312767
 30
0.0
 10
233.376338
 20
20.959730
 30
0.0
 10
232.914656
 20
20.759813
 30
0.0
 10
232.431666
 20
20.760978
 30
0.0
  0
SPLINE
  5
2e8
100
AcDbEntity
  8
wheels
 62
7
100
AcDbSpline
 70
8
 71
3
 72
8
 73
4
 74
0
 40
0
 40
0
 40
0
 40
0
 40
1
 40
1
 40
1
 40
1
 10
232.431666
 20
20.760978
 30
0.0
 10
231.482163
 20
20.775067
 30
0.0
 10
230.719828
 20
21.548798
 30
0.0
 10
230.719828
 20
22.498406
 30
0.0
  0
SPLINE
  5
2e9
100
AcDbEntity
  8
wheels
 62
7
100
AcDbSpline
 70
8
 71
3
 72
8
 73
4
 74
0
 40
0
 40
0
 40
0
 40
0
 40
1
 40
1
 40
1
 40
1
 10
230.719828
 20
22.498406
 30
0.0
 10
230.719828
 20
23.448013
 30
0.0
 10
231.482163
 20
24.221744
 30
0.0
 10
232.431666
 20
24.235833
 30
0.0
  0
SPLINE
  5
2ea
100
AcDbEntity
  8
wheels
 62
7
100
AcDbSpline
 70
8
 71
3
 72
8
 73
4
 74
0
 40
0
 40
0
 40
0
 40
0
 40
1
 40
1
 40
1
 40
1
 10
232.431666
 20
24.235833
 30
0.0
 10
233.344964
 20
24.238050
 30
0.0
 10
234.104101
 20
23.532863
 30
0.0
 10
234.169097
 20
22.621878
 30
0.0
  0
LINE
  5
2eb
100
AcDbEntity
  8
wheels
 62
7
100
AcDbLine
 10
234.169097
 20
22.621878
 30
0.0
 11
234.169097
 21
22.621878
 31
0.0
  0
ENDSEC
  0
SECTION
  2
OBJECTS
  0
DICTIONARY
  5
C
330
0
100
AcDbDictionary
  3
ACAD_GROUP
350
D
  3
ACAD_MLINESTYLE
350
17
  0
DICTIONARY
  5
D
330
C
100
AcDbDictionary
  0
DICTIONARY
  5
1A
330
C
100
AcDbDictionary
  0
DICTIONARY
  5
17
330
C
100
AcDbDictionary
  3
STANDARD
350
18
  0
DICTIONARY
  5
19
330
C
100
AcDbDictionary
  0
ENDSEC
  0
EOF
