<?xml version="1.0" encoding="UTF-8" standalone="no"?>
<!-- Created with Inkscape (http://www.inkscape.org/) -->

<svg
   xmlns:dc="http://purl.org/dc/elements/1.1/"
   xmlns:cc="http://creativecommons.org/ns#"
   xmlns:rdf="http://www.w3.org/1999/02/22-rdf-syntax-ns#"
   xmlns:svg="http://www.w3.org/2000/svg"
   xmlns="http://www.w3.org/2000/svg"
   xmlns:sodipodi="http://sodipodi.sourceforge.net/DTD/sodipodi-0.dtd"
   xmlns:inkscape="http://www.inkscape.org/namespaces/inkscape"
   inkscape:export-ydpi="96"
   inkscape:export-xdpi="96"
   inkscape:export-filename="/home/fishera/dev/simplebot/physical/layout.png"
   sodipodi:docname="SimpleBot Pi panel -wheels.svg"
   inkscape:version="0.48.5 r10040"
   version="1.1"
   id="svg2"
   height="885.82672"
   width="1062.9921">
  <sodipodi:namedview
     id="base"
     pagecolor="#ffffff"
     bordercolor="#666666"
     borderopacity="1.0"
     inkscape:pageopacity="0.0"
     inkscape:pageshadow="2"
     inkscape:zoom="0.28743281"
     inkscape:cx="266.38449"
     inkscape:cy="489.33853"
     inkscape:document-units="mm"
     inkscape:current-layer="layer4"
     showgrid="true"
     showguides="true"
     inkscape:guide-bbox="true"
     inkscape:window-width="1362"
     inkscape:window-height="725"
     inkscape:window-x="0"
     inkscape:window-y="20"
     inkscape:window-maximized="0"
     units="mm"
     fit-margin-top="0"
     fit-margin-left="10"
     fit-margin-right="0"
     fit-margin-bottom="10"
     showborder="true"
     gridtolerance="10">
    <inkscape:grid
       originy="14.506087mm"
       originx="14.999997mm"
       dotted="false"
       spacingy="1mm"
       spacingx="1mm"
       units="mm"
       snapvisiblegridlinesonly="true"
       enabled="true"
       visible="true"
       empspacing="5"
       id="grid2987"
       type="xygrid" />
    <sodipodi:guide
       orientation="0,1"
       position="-596.66119,914.99645"
       id="guide3010" />
  </sodipodi:namedview>
  <defs
     id="defs4" />
  <metadata
     id="metadata7">
    <rdf:RDF>
      <cc:Work
         rdf:about="">
        <dc:format>image/svg+xml</dc:format>
        <dc:type
           rdf:resource="http://purl.org/dc/dcmitype/StillImage" />
        <dc:title></dc:title>
      </cc:Work>
    </rdf:RDF>
  </metadata>
  <g
     style="display:inline"
     transform="translate(53.149606,-217.93483)"
     id="layer1"
     inkscape:groupmode="layer"
     inkscape:label="Base plate" />
  <g
     style="display:inline"
     inkscape:label="Bumper plates"
     id="layer2"
     inkscape:groupmode="layer"
     transform="translate(0,-166.53538)" />
  <g
     inkscape:groupmode="layer"
     id="layer4"
     inkscape:label="wheels"
     style="display:inline"
     transform="translate(0,-166.53538)">
    <path
       inkscape:connector-curvature="0"
       id="path7019"
       d="m 411.94478,240.95373 a 115.06194,115.06194 0 0 0 -118.40625,115.03125 115.0625,115.0625 0 0 0 230.125,0 115.06194,115.06194 0 0 0 -111.71875,-115.03125 z m -39.21875,73.4375 a 6.1569169,6.1569169 0 0 1 6.59375,6.15626 6.1569169,6.1569169 0 0 1 -12.3125,0 6.1569169,6.1569169 0 0 1 5.71875,-6.15626 z m 70.84376,0 a 6.1569183,6.1569183 0 0 1 6.59374,6.15626 6.1569183,6.1569183 0 0 1 -12.3125,0 6.1569183,6.1569183 0 0 1 5.71876,-6.15626 z m -70.84376,17.71875 a 6.1569171,6.1569171 0 0 1 6.59375,6.15625 6.1569171,6.1569171 0 0 1 -12.3125,0 6.1569171,6.1569171 0 0 1 5.71875,-6.15625 z m 70.84376,0 a 6.1569181,6.1569181 0 0 1 6.59374,6.15625 6.1569181,6.1569181 0 0 1 -12.3125,0 6.1569181,6.1569181 0 0 1 5.71876,-6.15625 z m -34.71876,15.03126 a 8.8422654,8.8422654 0 0 1 8.59374,8.84374 8.8437518,8.8437518 0 0 1 -17.68749,0 8.8422654,8.8422654 0 0 1 9.09375,-8.84374 z m -36.125,20.40624 a 6.1569173,6.1569173 0 0 1 6.59375,6.15626 6.1569173,6.1569173 0 0 1 -12.3125,0 6.1569173,6.1569173 0 0 1 5.71875,-6.15626 z m 70.84376,0 a 6.1569179,6.1569179 0 0 1 6.59374,6.15626 6.1569179,6.1569179 0 0 1 -12.3125,0 6.1569179,6.1569179 0 0 1 5.71876,-6.15626 z m -70.84376,17.71876 a 6.1569175,6.1569175 0 0 1 6.59375,6.15624 6.1569175,6.1569175 0 0 1 -12.3125,0 6.1569175,6.1569175 0 0 1 5.71875,-6.15624 z m 70.84376,0 a 6.1569177,6.1569177 0 0 1 6.59374,6.15624 6.1569177,6.1569177 0 0 1 -12.3125,0 6.1569177,6.1569177 0 0 1 5.71876,-6.15624 z"
       style="fill:#ff0000;fill-opacity:1;stroke:#000000;stroke-width:0.03543307;stroke-linejoin:round;stroke-miterlimit:4;stroke-opacity:1;stroke-dasharray:none" />
    <path
       inkscape:connector-curvature="0"
       id="path7019-0"
       d="m 159.85529,240.95373 a 115.06194,115.06194 0 0 0 -118.40625,115.03125 115.0625,115.0625 0 0 0 230.125,0 115.06194,115.06194 0 0 0 -111.71875,-115.03125 z m -39.21875,73.4375 a 6.1569169,6.1569169 0 0 1 6.59375,6.15626 6.1569169,6.1569169 0 0 1 -12.3125,0 6.1569169,6.1569169 0 0 1 5.71875,-6.15626 z m 70.84376,0 a 6.1569183,6.1569183 0 0 1 6.59374,6.15626 6.1569183,6.1569183 0 0 1 -12.3125,0 6.1569183,6.1569183 0 0 1 5.71876,-6.15626 z m -70.84376,17.71875 a 6.1569171,6.1569171 0 0 1 6.59375,6.15625 6.1569171,6.1569171 0 0 1 -12.3125,0 6.1569171,6.1569171 0 0 1 5.71875,-6.15625 z m 70.84376,0 a 6.1569181,6.1569181 0 0 1 6.59374,6.15625 6.1569181,6.1569181 0 0 1 -12.3125,0 6.1569181,6.1569181 0 0 1 5.71876,-6.15625 z m -34.71876,15.03126 a 8.8422654,8.8422654 0 0 1 8.59374,8.84374 8.8437518,8.8437518 0 0 1 -17.68749,0 8.8422654,8.8422654 0 0 1 9.09375,-8.84374 z m -36.125,20.40624 a 6.1569173,6.1569173 0 0 1 6.59375,6.15626 6.1569173,6.1569173 0 0 1 -12.3125,0 6.1569173,6.1569173 0 0 1 5.71875,-6.15626 z m 70.84376,0 a 6.1569179,6.1569179 0 0 1 6.59374,6.15626 6.1569179,6.1569179 0 0 1 -12.3125,0 6.1569179,6.1569179 0 0 1 5.71876,-6.15626 z m -70.84376,17.71876 a 6.1569175,6.1569175 0 0 1 6.59375,6.15624 6.1569175,6.1569175 0 0 1 -12.3125,0 6.1569175,6.1569175 0 0 1 5.71875,-6.15624 z m 70.84376,0 a 6.1569177,6.1569177 0 0 1 6.59374,6.15624 6.1569177,6.1569177 0 0 1 -12.3125,0 6.1569177,6.1569177 0 0 1 5.71876,-6.15624 z"
       style="fill:#ff0000;fill-opacity:1;stroke:#000000;stroke-width:0.03543307;stroke-linejoin:round;stroke-miterlimit:4;stroke-opacity:1;stroke-dasharray:none;display:inline" />
    <path
       inkscape:connector-curvature="0"
       id="path3073"
       d="m 664.03432,240.95373 a 115.06194,115.06194 0 0 0 -118.40625,115.03125 115.0625,115.0625 0 0 0 230.125,0 115.06194,115.06194 0 0 0 -111.71875,-115.03125 z m -39.21875,73.4375 a 6.1569169,6.1569169 0 0 1 6.59375,6.15626 6.1569169,6.1569169 0 0 1 -12.3125,0 6.1569169,6.1569169 0 0 1 5.71875,-6.15626 z m 70.84376,0 a 6.1569183,6.1569183 0 0 1 6.59374,6.15626 6.1569183,6.1569183 0 0 1 -12.3125,0 6.1569183,6.1569183 0 0 1 5.71876,-6.15626 z m -70.84376,17.71875 a 6.1569171,6.1569171 0 0 1 6.59375,6.15625 6.1569171,6.1569171 0 0 1 -12.3125,0 6.1569171,6.1569171 0 0 1 5.71875,-6.15625 z m 70.84376,0 a 6.1569181,6.1569181 0 0 1 6.59374,6.15625 6.1569181,6.1569181 0 0 1 -12.3125,0 6.1569181,6.1569181 0 0 1 5.71876,-6.15625 z m -34.71876,15.03126 a 8.8422654,8.8422654 0 0 1 8.59374,8.84374 8.8437518,8.8437518 0 0 1 -17.68749,0 8.8422654,8.8422654 0 0 1 9.09375,-8.84374 z m -36.125,20.40624 a 6.1569173,6.1569173 0 0 1 6.59375,6.15626 6.1569173,6.1569173 0 0 1 -12.3125,0 6.1569173,6.1569173 0 0 1 5.71875,-6.15626 z m 70.84376,0 a 6.1569179,6.1569179 0 0 1 6.59374,6.15626 6.1569179,6.1569179 0 0 1 -12.3125,0 6.1569179,6.1569179 0 0 1 5.71876,-6.15626 z m -70.84376,17.71876 a 6.1569175,6.1569175 0 0 1 6.59375,6.15624 6.1569175,6.1569175 0 0 1 -12.3125,0 6.1569175,6.1569175 0 0 1 5.71875,-6.15624 z m 70.84376,0 a 6.1569177,6.1569177 0 0 1 6.59374,6.15624 6.1569177,6.1569177 0 0 1 -12.3125,0 6.1569177,6.1569177 0 0 1 5.71876,-6.15624 z"
       style="fill:#ff0000;fill-opacity:1;stroke:#000000;stroke-width:0.03543307;stroke-linejoin:round;stroke-miterlimit:4;stroke-opacity:1;stroke-dasharray:none" />
    <path
       inkscape:connector-curvature="0"
       id="path3077"
       d="m 916.1238,240.97069 a 115.06194,115.06194 0 0 0 -118.40629,115.03125 115.0625,115.0625 0 0 0 230.12499,0 115.06194,115.06194 0 0 0 -111.7187,-115.03125 z m -39.21879,73.4375 a 6.1569169,6.1569169 0 0 1 6.59375,6.15626 6.1569169,6.1569169 0 0 1 -12.3125,0 6.1569169,6.1569169 0 0 1 5.71875,-6.15626 z m 70.84379,0 a 6.1569183,6.1569183 0 0 1 6.5937,6.15626 6.1569183,6.1569183 0 0 1 -12.3125,0 6.1569183,6.1569183 0 0 1 5.7188,-6.15626 z m -70.84379,17.71875 a 6.1569171,6.1569171 0 0 1 6.59375,6.15625 6.1569171,6.1569171 0 0 1 -12.3125,0 6.1569171,6.1569171 0 0 1 5.71875,-6.15625 z m 70.84379,0 a 6.1569181,6.1569181 0 0 1 6.5937,6.15625 6.1569181,6.1569181 0 0 1 -12.3125,0 6.1569181,6.1569181 0 0 1 5.7188,-6.15625 z M 913.03,347.1582 a 8.8422654,8.8422654 0 0 1 8.5937,8.84374 8.8437518,8.8437518 0 0 1 -17.68744,0 8.8422654,8.8422654 0 0 1 9.09374,-8.84374 z m -36.12499,20.40624 a 6.1569173,6.1569173 0 0 1 6.59375,6.15626 6.1569173,6.1569173 0 0 1 -12.3125,0 6.1569173,6.1569173 0 0 1 5.71875,-6.15626 z m 70.84379,0 a 6.1569179,6.1569179 0 0 1 6.5937,6.15626 6.1569179,6.1569179 0 0 1 -12.3125,0 6.1569179,6.1569179 0 0 1 5.7188,-6.15626 z m -70.84379,17.71876 a 6.1569175,6.1569175 0 0 1 6.59375,6.15624 6.1569175,6.1569175 0 0 1 -12.3125,0 6.1569175,6.1569175 0 0 1 5.71875,-6.15624 z m 70.84379,0 a 6.1569177,6.1569177 0 0 1 6.5937,6.15624 6.1569177,6.1569177 0 0 1 -12.3125,0 6.1569177,6.1569177 0 0 1 5.7188,-6.15624 z"
       style="fill:#ff0000;fill-opacity:1;stroke:#000000;stroke-width:0.03543307;stroke-linejoin:round;stroke-miterlimit:4;stroke-opacity:1;stroke-dasharray:none" />
    <path
       style="fill:#ff0000;fill-opacity:1;stroke:#000000;stroke-width:0.03543307;stroke-linejoin:round;stroke-miterlimit:4;stroke-opacity:1;stroke-dasharray:none"
       d="m 411.94478,488.95373 a 115.06194,115.06194 0 0 0 -118.40625,115.03125 115.0625,115.0625 0 0 0 230.125,0 115.06194,115.06194 0 0 0 -111.71875,-115.03125 z m -39.21875,73.4375 a 6.1569169,6.1569169 0 0 1 6.59375,6.15626 6.1569169,6.1569169 0 0 1 -12.3125,0 6.1569169,6.1569169 0 0 1 5.71875,-6.15626 z m 70.84376,0 a 6.1569183,6.1569183 0 0 1 6.59374,6.15626 6.1569183,6.1569183 0 0 1 -12.3125,0 6.1569183,6.1569183 0 0 1 5.71876,-6.15626 z m -70.84376,17.71875 a 6.1569171,6.1569171 0 0 1 6.59375,6.15625 6.1569171,6.1569171 0 0 1 -12.3125,0 6.1569171,6.1569171 0 0 1 5.71875,-6.15625 z m 70.84376,0 a 6.1569181,6.1569181 0 0 1 6.59374,6.15625 6.1569181,6.1569181 0 0 1 -12.3125,0 6.1569181,6.1569181 0 0 1 5.71876,-6.15625 z m -34.71876,15.03126 a 8.8422654,8.8422654 0 0 1 8.59374,8.84374 8.8437518,8.8437518 0 0 1 -17.68749,0 8.8422654,8.8422654 0 0 1 9.09375,-8.84374 z m -36.125,20.40624 a 6.1569173,6.1569173 0 0 1 6.59375,6.15626 6.1569173,6.1569173 0 0 1 -12.3125,0 6.1569173,6.1569173 0 0 1 5.71875,-6.15626 z m 70.84376,0 a 6.1569179,6.1569179 0 0 1 6.59374,6.15626 6.1569179,6.1569179 0 0 1 -12.3125,0 6.1569179,6.1569179 0 0 1 5.71876,-6.15626 z m -70.84376,17.71876 a 6.1569175,6.1569175 0 0 1 6.59375,6.15624 6.1569175,6.1569175 0 0 1 -12.3125,0 6.1569175,6.1569175 0 0 1 5.71875,-6.15624 z m 70.84376,0 a 6.1569177,6.1569177 0 0 1 6.59374,6.15624 6.1569177,6.1569177 0 0 1 -12.3125,0 6.1569177,6.1569177 0 0 1 5.71876,-6.15624 z"
       id="path3202"
       inkscape:connector-curvature="0" />
    <path
       style="fill:#ff0000;fill-opacity:1;stroke:#000000;stroke-width:0.03543307;stroke-linejoin:round;stroke-miterlimit:4;stroke-opacity:1;stroke-dasharray:none;display:inline"
       d="m 159.85529,488.95373 a 115.06194,115.06194 0 0 0 -118.40625,115.03125 115.0625,115.0625 0 0 0 230.125,0 115.06194,115.06194 0 0 0 -111.71875,-115.03125 z m -39.21875,73.4375 a 6.1569169,6.1569169 0 0 1 6.59375,6.15626 6.1569169,6.1569169 0 0 1 -12.3125,0 6.1569169,6.1569169 0 0 1 5.71875,-6.15626 z m 70.84376,0 a 6.1569183,6.1569183 0 0 1 6.59374,6.15626 6.1569183,6.1569183 0 0 1 -12.3125,0 6.1569183,6.1569183 0 0 1 5.71876,-6.15626 z m -70.84376,17.71875 a 6.1569171,6.1569171 0 0 1 6.59375,6.15625 6.1569171,6.1569171 0 0 1 -12.3125,0 6.1569171,6.1569171 0 0 1 5.71875,-6.15625 z m 70.84376,0 a 6.1569181,6.1569181 0 0 1 6.59374,6.15625 6.1569181,6.1569181 0 0 1 -12.3125,0 6.1569181,6.1569181 0 0 1 5.71876,-6.15625 z m -34.71876,15.03126 a 8.8422654,8.8422654 0 0 1 8.59374,8.84374 8.8437518,8.8437518 0 0 1 -17.68749,0 8.8422654,8.8422654 0 0 1 9.09375,-8.84374 z m -36.125,20.40624 a 6.1569173,6.1569173 0 0 1 6.59375,6.15626 6.1569173,6.1569173 0 0 1 -12.3125,0 6.1569173,6.1569173 0 0 1 5.71875,-6.15626 z m 70.84376,0 a 6.1569179,6.1569179 0 0 1 6.59374,6.15626 6.1569179,6.1569179 0 0 1 -12.3125,0 6.1569179,6.1569179 0 0 1 5.71876,-6.15626 z m -70.84376,17.71876 a 6.1569175,6.1569175 0 0 1 6.59375,6.15624 6.1569175,6.1569175 0 0 1 -12.3125,0 6.1569175,6.1569175 0 0 1 5.71875,-6.15624 z m 70.84376,0 a 6.1569177,6.1569177 0 0 1 6.59374,6.15624 6.1569177,6.1569177 0 0 1 -12.3125,0 6.1569177,6.1569177 0 0 1 5.71876,-6.15624 z"
       id="path3204"
       inkscape:connector-curvature="0" />
    <path
       style="fill:#ff0000;fill-opacity:1;stroke:#000000;stroke-width:0.03543307;stroke-linejoin:round;stroke-miterlimit:4;stroke-opacity:1;stroke-dasharray:none"
       d="m 664.03432,488.95373 a 115.06194,115.06194 0 0 0 -118.40625,115.03125 115.0625,115.0625 0 0 0 230.125,0 115.06194,115.06194 0 0 0 -111.71875,-115.03125 z m -39.21875,73.4375 a 6.1569169,6.1569169 0 0 1 6.59375,6.15626 6.1569169,6.1569169 0 0 1 -12.3125,0 6.1569169,6.1569169 0 0 1 5.71875,-6.15626 z m 70.84376,0 a 6.1569183,6.1569183 0 0 1 6.59374,6.15626 6.1569183,6.1569183 0 0 1 -12.3125,0 6.1569183,6.1569183 0 0 1 5.71876,-6.15626 z m -70.84376,17.71875 a 6.1569171,6.1569171 0 0 1 6.59375,6.15625 6.1569171,6.1569171 0 0 1 -12.3125,0 6.1569171,6.1569171 0 0 1 5.71875,-6.15625 z m 70.84376,0 a 6.1569181,6.1569181 0 0 1 6.59374,6.15625 6.1569181,6.1569181 0 0 1 -12.3125,0 6.1569181,6.1569181 0 0 1 5.71876,-6.15625 z m -34.71876,15.03126 a 8.8422654,8.8422654 0 0 1 8.59374,8.84374 8.8437518,8.8437518 0 0 1 -17.68749,0 8.8422654,8.8422654 0 0 1 9.09375,-8.84374 z m -36.125,20.40624 a 6.1569173,6.1569173 0 0 1 6.59375,6.15626 6.1569173,6.1569173 0 0 1 -12.3125,0 6.1569173,6.1569173 0 0 1 5.71875,-6.15626 z m 70.84376,0 a 6.1569179,6.1569179 0 0 1 6.59374,6.15626 6.1569179,6.1569179 0 0 1 -12.3125,0 6.1569179,6.1569179 0 0 1 5.71876,-6.15626 z m -70.84376,17.71876 a 6.1569175,6.1569175 0 0 1 6.59375,6.15624 6.1569175,6.1569175 0 0 1 -12.3125,0 6.1569175,6.1569175 0 0 1 5.71875,-6.15624 z m 70.84376,0 a 6.1569177,6.1569177 0 0 1 6.59374,6.15624 6.1569177,6.1569177 0 0 1 -12.3125,0 6.1569177,6.1569177 0 0 1 5.71876,-6.15624 z"
       id="path3206"
       inkscape:connector-curvature="0" />
    <path
       style="fill:#ff0000;fill-opacity:1;stroke:#000000;stroke-width:0.03543307;stroke-linejoin:round;stroke-miterlimit:4;stroke-opacity:1;stroke-dasharray:none"
       d="m 916.1238,488.97069 a 115.06194,115.06194 0 0 0 -118.40629,115.03125 115.0625,115.0625 0 0 0 230.12499,0 115.06194,115.06194 0 0 0 -111.7187,-115.03125 z m -39.21879,73.4375 a 6.1569169,6.1569169 0 0 1 6.59375,6.15626 6.1569169,6.1569169 0 0 1 -12.3125,0 6.1569169,6.1569169 0 0 1 5.71875,-6.15626 z m 70.84379,0 a 6.1569183,6.1569183 0 0 1 6.5937,6.15626 6.1569183,6.1569183 0 0 1 -12.3125,0 6.1569183,6.1569183 0 0 1 5.7188,-6.15626 z m -70.84379,17.71875 a 6.1569171,6.1569171 0 0 1 6.59375,6.15625 6.1569171,6.1569171 0 0 1 -12.3125,0 6.1569171,6.1569171 0 0 1 5.71875,-6.15625 z m 70.84379,0 a 6.1569181,6.1569181 0 0 1 6.5937,6.15625 6.1569181,6.1569181 0 0 1 -12.3125,0 6.1569181,6.1569181 0 0 1 5.7188,-6.15625 z M 913.03,595.1582 a 8.8422654,8.8422654 0 0 1 8.5937,8.84374 8.8437518,8.8437518 0 0 1 -17.68744,0 8.8422654,8.8422654 0 0 1 9.09374,-8.84374 z m -36.12499,20.40624 a 6.1569173,6.1569173 0 0 1 6.59375,6.15626 6.1569173,6.1569173 0 0 1 -12.3125,0 6.1569173,6.1569173 0 0 1 5.71875,-6.15626 z m 70.84379,0 a 6.1569179,6.1569179 0 0 1 6.5937,6.15626 6.1569179,6.1569179 0 0 1 -12.3125,0 6.1569179,6.1569179 0 0 1 5.7188,-6.15626 z m -70.84379,17.71876 a 6.1569175,6.1569175 0 0 1 6.59375,6.15624 6.1569175,6.1569175 0 0 1 -12.3125,0 6.1569175,6.1569175 0 0 1 5.71875,-6.15624 z m 70.84379,0 a 6.1569177,6.1569177 0 0 1 6.5937,6.15624 6.1569177,6.1569177 0 0 1 -12.3125,0 6.1569177,6.1569177 0 0 1 5.7188,-6.15624 z"
       id="path3208"
       inkscape:connector-curvature="0" />
    <path
       inkscape:connector-curvature="0"
       id="path3210"
       d="m 411.94478,742.95373 a 115.06194,115.06194 0 0 0 -118.40625,115.03125 115.0625,115.0625 0 0 0 230.125,0 115.06194,115.06194 0 0 0 -111.71875,-115.03125 z m -39.21875,73.4375 a 6.1569169,6.1569169 0 0 1 6.59375,6.15626 6.1569169,6.1569169 0 0 1 -12.3125,0 6.1569169,6.1569169 0 0 1 5.71875,-6.15626 z m 70.84376,0 a 6.1569183,6.1569183 0 0 1 6.59374,6.15626 6.1569183,6.1569183 0 0 1 -12.3125,0 6.1569183,6.1569183 0 0 1 5.71876,-6.15626 z m -70.84376,17.71875 a 6.1569171,6.1569171 0 0 1 6.59375,6.15625 6.1569171,6.1569171 0 0 1 -12.3125,0 6.1569171,6.1569171 0 0 1 5.71875,-6.15625 z m 70.84376,0 a 6.1569181,6.1569181 0 0 1 6.59374,6.15625 6.1569181,6.1569181 0 0 1 -12.3125,0 6.1569181,6.1569181 0 0 1 5.71876,-6.15625 z m -34.71876,15.03126 a 8.8422654,8.8422654 0 0 1 8.59374,8.84374 8.8437518,8.8437518 0 0 1 -17.68749,0 8.8422654,8.8422654 0 0 1 9.09375,-8.84374 z m -36.125,20.40624 a 6.1569173,6.1569173 0 0 1 6.59375,6.15626 6.1569173,6.1569173 0 0 1 -12.3125,0 6.1569173,6.1569173 0 0 1 5.71875,-6.15626 z m 70.84376,0 a 6.1569179,6.1569179 0 0 1 6.59374,6.15626 6.1569179,6.1569179 0 0 1 -12.3125,0 6.1569179,6.1569179 0 0 1 5.71876,-6.15626 z m -70.84376,17.71876 a 6.1569175,6.1569175 0 0 1 6.59375,6.15624 6.1569175,6.1569175 0 0 1 -12.3125,0 6.1569175,6.1569175 0 0 1 5.71875,-6.15624 z m 70.84376,0 a 6.1569177,6.1569177 0 0 1 6.59374,6.15624 6.1569177,6.1569177 0 0 1 -12.3125,0 6.1569177,6.1569177 0 0 1 5.71876,-6.15624 z"
       style="fill:#ff0000;fill-opacity:1;stroke:#000000;stroke-width:0.03543307;stroke-linejoin:round;stroke-miterlimit:4;stroke-opacity:1;stroke-dasharray:none" />
    <path
       inkscape:connector-curvature="0"
       id="path3212"
       d="m 159.85529,742.95373 a 115.06194,115.06194 0 0 0 -118.40625,115.03125 115.0625,115.0625 0 0 0 230.125,0 115.06194,115.06194 0 0 0 -111.71875,-115.03125 z m -39.21875,73.4375 a 6.1569169,6.1569169 0 0 1 6.59375,6.15626 6.1569169,6.1569169 0 0 1 -12.3125,0 6.1569169,6.1569169 0 0 1 5.71875,-6.15626 z m 70.84376,0 a 6.1569183,6.1569183 0 0 1 6.59374,6.15626 6.1569183,6.1569183 0 0 1 -12.3125,0 6.1569183,6.1569183 0 0 1 5.71876,-6.15626 z m -70.84376,17.71875 a 6.1569171,6.1569171 0 0 1 6.59375,6.15625 6.1569171,6.1569171 0 0 1 -12.3125,0 6.1569171,6.1569171 0 0 1 5.71875,-6.15625 z m 70.84376,0 a 6.1569181,6.1569181 0 0 1 6.59374,6.15625 6.1569181,6.1569181 0 0 1 -12.3125,0 6.1569181,6.1569181 0 0 1 5.71876,-6.15625 z m -34.71876,15.03126 a 8.8422654,8.8422654 0 0 1 8.59374,8.84374 8.8437518,8.8437518 0 0 1 -17.68749,0 8.8422654,8.8422654 0 0 1 9.09375,-8.84374 z m -36.125,20.40624 a 6.1569173,6.1569173 0 0 1 6.59375,6.15626 6.1569173,6.1569173 0 0 1 -12.3125,0 6.1569173,6.1569173 0 0 1 5.71875,-6.15626 z m 70.84376,0 a 6.1569179,6.1569179 0 0 1 6.59374,6.15626 6.1569179,6.1569179 0 0 1 -12.3125,0 6.1569179,6.1569179 0 0 1 5.71876,-6.15626 z m -70.84376,17.71876 a 6.1569175,6.1569175 0 0 1 6.59375,6.15624 6.1569175,6.1569175 0 0 1 -12.3125,0 6.1569175,6.1569175 0 0 1 5.71875,-6.15624 z m 70.84376,0 a 6.1569177,6.1569177 0 0 1 6.59374,6.15624 6.1569177,6.1569177 0 0 1 -12.3125,0 6.1569177,6.1569177 0 0 1 5.71876,-6.15624 z"
       style="fill:#ff0000;fill-opacity:1;stroke:#000000;stroke-width:0.03543307;stroke-linejoin:round;stroke-miterlimit:4;stroke-opacity:1;stroke-dasharray:none;display:inline" />
    <path
       inkscape:connector-curvature="0"
       id="path3214"
       d="m 664.03432,742.95373 a 115.06194,115.06194 0 0 0 -118.40625,115.03125 115.0625,115.0625 0 0 0 230.125,0 115.06194,115.06194 0 0 0 -111.71875,-115.03125 z m -39.21875,73.4375 a 6.1569169,6.1569169 0 0 1 6.59375,6.15626 6.1569169,6.1569169 0 0 1 -12.3125,0 6.1569169,6.1569169 0 0 1 5.71875,-6.15626 z m 70.84376,0 a 6.1569183,6.1569183 0 0 1 6.59374,6.15626 6.1569183,6.1569183 0 0 1 -12.3125,0 6.1569183,6.1569183 0 0 1 5.71876,-6.15626 z m -70.84376,17.71875 a 6.1569171,6.1569171 0 0 1 6.59375,6.15625 6.1569171,6.1569171 0 0 1 -12.3125,0 6.1569171,6.1569171 0 0 1 5.71875,-6.15625 z m 70.84376,0 a 6.1569181,6.1569181 0 0 1 6.59374,6.15625 6.1569181,6.1569181 0 0 1 -12.3125,0 6.1569181,6.1569181 0 0 1 5.71876,-6.15625 z m -34.71876,15.03126 a 8.8422654,8.8422654 0 0 1 8.59374,8.84374 8.8437518,8.8437518 0 0 1 -17.68749,0 8.8422654,8.8422654 0 0 1 9.09375,-8.84374 z m -36.125,20.40624 a 6.1569173,6.1569173 0 0 1 6.59375,6.15626 6.1569173,6.1569173 0 0 1 -12.3125,0 6.1569173,6.1569173 0 0 1 5.71875,-6.15626 z m 70.84376,0 a 6.1569179,6.1569179 0 0 1 6.59374,6.15626 6.1569179,6.1569179 0 0 1 -12.3125,0 6.1569179,6.1569179 0 0 1 5.71876,-6.15626 z m -70.84376,17.71876 a 6.1569175,6.1569175 0 0 1 6.59375,6.15624 6.1569175,6.1569175 0 0 1 -12.3125,0 6.1569175,6.1569175 0 0 1 5.71875,-6.15624 z m 70.84376,0 a 6.1569177,6.1569177 0 0 1 6.59374,6.15624 6.1569177,6.1569177 0 0 1 -12.3125,0 6.1569177,6.1569177 0 0 1 5.71876,-6.15624 z"
       style="fill:#ff0000;fill-opacity:1;stroke:#000000;stroke-width:0.03543307;stroke-linejoin:round;stroke-miterlimit:4;stroke-opacity:1;stroke-dasharray:none" />
    <path
       inkscape:connector-curvature="0"
       id="path3216"
       d="m 916.1238,742.97069 a 115.06194,115.06194 0 0 0 -118.40629,115.03125 115.0625,115.0625 0 0 0 230.12499,0 115.06194,115.06194 0 0 0 -111.7187,-115.03125 z m -39.21879,73.4375 a 6.1569169,6.1569169 0 0 1 6.59375,6.15626 6.1569169,6.1569169 0 0 1 -12.3125,0 6.1569169,6.1569169 0 0 1 5.71875,-6.15626 z m 70.84379,0 a 6.1569183,6.1569183 0 0 1 6.5937,6.15626 6.1569183,6.1569183 0 0 1 -12.3125,0 6.1569183,6.1569183 0 0 1 5.7188,-6.15626 z m -70.84379,17.71875 a 6.1569171,6.1569171 0 0 1 6.59375,6.15625 6.1569171,6.1569171 0 0 1 -12.3125,0 6.1569171,6.1569171 0 0 1 5.71875,-6.15625 z m 70.84379,0 a 6.1569181,6.1569181 0 0 1 6.5937,6.15625 6.1569181,6.1569181 0 0 1 -12.3125,0 6.1569181,6.1569181 0 0 1 5.7188,-6.15625 z M 913.03,849.1582 a 8.8422654,8.8422654 0 0 1 8.5937,8.84374 8.8437518,8.8437518 0 0 1 -17.68744,0 8.8422654,8.8422654 0 0 1 9.09374,-8.84374 z m -36.12499,20.40624 a 6.1569173,6.1569173 0 0 1 6.59375,6.15626 6.1569173,6.1569173 0 0 1 -12.3125,0 6.1569173,6.1569173 0 0 1 5.71875,-6.15626 z m 70.84379,0 a 6.1569179,6.1569179 0 0 1 6.5937,6.15626 6.1569179,6.1569179 0 0 1 -12.3125,0 6.1569179,6.1569179 0 0 1 5.7188,-6.15626 z m -70.84379,17.71876 a 6.1569175,6.1569175 0 0 1 6.59375,6.15624 6.1569175,6.1569175 0 0 1 -12.3125,0 6.1569175,6.1569175 0 0 1 5.71875,-6.15624 z m 70.84379,0 a 6.1569177,6.1569177 0 0 1 6.5937,6.15624 6.1569177,6.1569177 0 0 1 -12.3125,0 6.1569177,6.1569177 0 0 1 5.7188,-6.15624 z"
       style="fill:#ff0000;fill-opacity:1;stroke:#000000;stroke-width:0.03543307;stroke-linejoin:round;stroke-miterlimit:4;stroke-opacity:1;stroke-dasharray:none" />
  </g>
</svg>
