  0
SECTION
  2
HEADER
  9
$ACADVER
  1
AC1014
  9
$HANDSEED
  5
FFFF
  9
$MEASUREMENT
 70
     1
  0
ENDSEC
  0
SECTION
  2
TABLES
  0
TABLE
  2
VPORT
  5
8
330
0
100
AcDbSymbolTable
 70
     4
  0
VPORT
  5
2E
330
8
100
AcDbSymbolTableRecord
100
AcDbViewportTableRecord
  2
*ACTIVE
 70
     0
 10
0.0
 20
0.0
 11
1.0
 21
1.0
 12
210.0
 22
148.5
 13
0.0
 23
0.0
 14
10.0
 24
10.0
 15
10.0
 25
10.0
 16
0.0
 26
0.0
 36
1.0
 17
0.0
 27
0.0
 37
0.0
 40
341.0
 41
1.24
 42
50.0
 43
0.0
 44
0.0
 50
0.0
 51
0.0
 71
     0
 72
   100
 73
     1
 74
     3
 75
     0
 76
     0
 77
     0
 78
     0
  0
ENDTAB
  0
TABLE
  2
LTYPE
  5
5
330
0
100
AcDbSymbolTable
 70
     1
  0
LTYPE
  5
14
330
5
100
AcDbSymbolTableRecord
100
AcDbLinetypeTableRecord
  2
BYBLOCK
 70
     0
  3

 72
    65
 73
     0
 40
0.0
  0
LTYPE
  5
15
330
5
100
AcDbSymbolTableRecord
100
AcDbLinetypeTableRecord
  2
BYLAYER
 70
     0
  3

 72
    65
 73
     0
 40
0.0
  0
LTYPE
  5
16
330
5
100
AcDbSymbolTableRecord
100
AcDbLinetypeTableRecord
  2
CONTINUOUS
 70
     0
  3
Solid line
 72
    65
 73
     0
 40
0.0
  0
ENDTAB
  0
TABLE
  2
LAYER
  5
2
100
AcDbSymbolTable
 70
4
  0
LAYER
  5
50
100
AcDbSymbolTableRecord
100
AcDbLayerTableRecord
  2
0
 70
0
  6
CONTINUOUS
  0
LAYER
  5
51
100
AcDbSymbolTableRecord
100
AcDbLayerTableRecord
  2
Base_plate
 70
0
  6
CONTINUOUS
  0
LAYER
  5
52
100
AcDbSymbolTableRecord
100
AcDbLayerTableRecord
  2
Bumper_plates
 70
0
  6
CONTINUOUS
  0
LAYER
  5
53
100
AcDbSymbolTableRecord
100
AcDbLayerTableRecord
  2
wheels
 70
0
  6
CONTINUOUS
  0
ENDTAB
  0
TABLE
  2
STYLE
  5
3
330
0
100
AcDbSymbolTable
 70
     1
  0
STYLE
  5
11
330
3
100
AcDbSymbolTableRecord
100
AcDbTextStyleTableRecord
  2
STANDARD
 70
     0
 40
0.0
 41
1.0
 50
0.0
 71
     0
 42
2.5
  3
txt
  4

  0
ENDTAB
  0
TABLE
  2
VIEW
  5
6
330
0
100
AcDbSymbolTable
 70
     0
  0
ENDTAB
  0
TABLE
  2
UCS
  5
7
330
0
100
AcDbSymbolTable
 70
     0
  0
ENDTAB
  0
TABLE
  2
APPID
  5
9
330
0
100
AcDbSymbolTable
 70
     2
  0
APPID
  5
12
330
9
100
AcDbSymbolTableRecord
100
AcDbRegAppTableRecord
  2
ACAD
 70
     0
  0
ENDTAB
  0
TABLE
  2
DIMSTYLE
  5
A
330
0
100
AcDbSymbolTable
 70
     1
  0
DIMSTYLE
105
27
330
A
100
AcDbSymbolTableRecord
100
AcDbDimStyleTableRecord
  2
ISO-25
 70
     0
  3

  4

  5

  6

  7

 40
1.0
 41
2.5
 42
0.625
 43
3.75
 44
1.25
 45
0.0
 46
0.0
 47
0.0
 48
0.0
140
2.5
141
2.5
142
0.0
143
0.03937007874016
144
1.0
145
0.0
146
1.0
147
0.625
 71
     0
 72
     0
 73
     0
 74
     0
 75
     0
 76
     0
 77
     1
 78
     8
170
     0
171
     3
172
     1
173
     0
174
     0
175
     0
176
     0
177
     0
178
     0
270
     2
271
     2
272
     2
273
     2
274
     3
340
11
275
     0
280
     0
281
     0
282
     0
283
     0
284
     8
285
     0
286
     0
287
     3
288
     0
  0
ENDTAB
  0
TABLE
  2
BLOCK_RECORD
  5
1
330
0
100
AcDbSymbolTable
 70
     1
  0
BLOCK_RECORD
  5
1F
330
1
100
AcDbSymbolTableRecord
100
AcDbBlockTableRecord
  2
*MODEL_SPACE
  0
BLOCK_RECORD
  5
1B
330
1
100
AcDbSymbolTableRecord
100
AcDbBlockTableRecord
  2
*PAPER_SPACE
  0
ENDTAB
  0
ENDSEC
  0
SECTION
  2
BLOCKS
  0
BLOCK
  5
20
330
1F
100
AcDbEntity
  8
0
100
AcDbBlockBegin
  2
*MODEL_SPACE
 70
     0
 10
0.0
 20
0.0
 30
0.0
  3
*MODEL_SPACE
  1

  0
ENDBLK
  5
21
330
1F
100
AcDbEntity
  8
0
100
AcDbBlockEnd
  0
BLOCK
  5
1C
330
1B
100
AcDbEntity
 67
     1
  8
0
100
AcDbBlockBegin
  2
*PAPER_SPACE
  1

  0
ENDBLK
  5
1D
330
1B
100
AcDbEntity
 67
     1
  8
0
100
AcDbBlockEnd
  0
ENDSEC
  0
SECTION
  2
ENTITIES
  0
LWPOLYLINE
  5
100
100
AcDbEntity
  8
Base_plate
 62
7
100
AcDbPolyline
 90
17
 70
1
 10
0.017639
 20
145.000004
 30
0.0
 10
0.017639
 20
5.000018
 30
0.0
 10
5.000000
 20
5.000018
 30
0.0
 10
5.000000
 20
0.000000
 30
0.0
 10
20.000000
 20
0.000000
 30
0.0
 10
20.000000
 20
5.000018
 30
0.0
 10
57.500001
 20
5.000018
 30
0.0
 10
57.500001
 20
0.000000
 30
0.0
 10
72.499999
 20
0.000000
 30
0.0
 10
72.499999
 20
5.000018
 30
0.0
 10
110.000000
 20
5.000018
 30
0.0
 10
110.000000
 20
0.000000
 30
0.0
 10
124.999998
 20
0.000000
 30
0.0
 10
124.999998
 20
5.000018
 30
0.0
 10
130.023001
 20
5.000018
 30
0.0
 10
130.023001
 20
145.000004
 30
0.0
 10
0.017639
 20
145.000004
 30
0.0
  0
LWPOLYLINE
  5
101
100
AcDbEntity
  8
Base_plate
 62
7
100
AcDbPolyline
 90
5
 70
1
 10
5.035903
 20
135.189651
 30
0.0
 10
10.001250
 20
135.189651
 30
0.0
 10
10.001250
 20
130.224304
 30
0.0
 10
5.035903
 20
130.224304
 30
0.0
 10
5.035903
 20
135.189651
 30
0.0
  0
LWPOLYLINE
  5
102
100
AcDbEntity
  8
Base_plate
 62
7
100
AcDbPolyline
 90
5
 70
1
 10
18.035764
 20
135.189651
 30
0.0
 10
23.001111
 20
135.189651
 30
0.0
 10
23.001111
 20
130.224005
 30
0.0
 10
18.035764
 20
130.224287
 30
0.0
 10
18.035764
 20
135.189651
 30
0.0
  0
LWPOLYLINE
  5
103
100
AcDbEntity
  8
Base_plate
 62
7
100
AcDbPolyline
 90
5
 70
1
 10
107.039215
 20
135.189934
 30
0.0
 10
112.004562
 20
135.189651
 30
0.0
 10
112.004562
 20
130.224304
 30
0.0
 10
107.039215
 20
130.224022
 30
0.0
 10
107.039215
 20
135.189934
 30
0.0
  0
LWPOLYLINE
  5
104
100
AcDbEntity
  8
Base_plate
 62
7
100
AcDbPolyline
 90
5
 70
1
 10
120.039076
 20
135.189934
 30
0.0
 10
125.004424
 20
135.189934
 30
0.0
 10
125.004424
 20
130.223864
 30
0.0
 10
120.039076
 20
130.223864
 30
0.0
 10
120.039076
 20
135.189934
 30
0.0
  0
LWPOLYLINE
  5
105
100
AcDbEntity
  8
Base_plate
 62
7
100
AcDbPolyline
 90
5
 70
1
 10
62.501687
 20
135.189934
 30
0.0
 10
67.502312
 20
135.189934
 30
0.0
 10
67.502312
 20
130.223935
 30
0.0
 10
62.501687
 20
130.223935
 30
0.0
 10
62.501687
 20
135.189934
 30
0.0
  0
LWPOLYLINE
  5
106
100
AcDbEntity
  8
Base_plate
 62
7
100
AcDbPolyline
 90
5
 70
1
 10
62.501687
 20
105.186006
 30
0.0
 10
67.502312
 20
105.186006
 30
0.0
 10
67.502312
 20
100.221006
 30
0.0
 10
62.501687
 20
100.221006
 30
0.0
 10
62.501687
 20
105.186006
 30
0.0
  0
LWPOLYLINE
  5
107
100
AcDbEntity
  8
Base_plate
 62
7
100
AcDbPolyline
 90
5
 70
1
 10
5.035903
 20
105.185901
 30
0.0
 10
10.001250
 20
105.185901
 30
0.0
 10
10.001250
 20
100.220554
 30
0.0
 10
5.035903
 20
100.220554
 30
0.0
 10
5.035903
 20
105.185901
 30
0.0
  0
LWPOLYLINE
  5
108
100
AcDbEntity
  8
Base_plate
 62
7
100
AcDbPolyline
 90
5
 70
1
 10
18.035764
 20
105.185901
 30
0.0
 10
23.001111
 20
105.186006
 30
0.0
 10
23.001111
 20
100.221006
 30
0.0
 10
18.035764
 20
100.221119
 30
0.0
 10
18.035764
 20
105.185901
 30
0.0
  0
LWPOLYLINE
  5
109
100
AcDbEntity
  8
Base_plate
 62
7
100
AcDbPolyline
 90
5
 70
1
 10
107.039215
 20
105.186006
 30
0.0
 10
112.004562
 20
105.186006
 30
0.0
 10
112.004562
 20
100.220554
 30
0.0
 10
107.039215
 20
100.220554
 30
0.0
 10
107.039215
 20
105.186006
 30
0.0
  0
LWPOLYLINE
  5
10a
100
AcDbEntity
  8
Base_plate
 62
7
100
AcDbPolyline
 90
5
 70
1
 10
120.039076
 20
105.186006
 30
0.0
 10
125.004424
 20
105.186006
 30
0.0
 10
125.004424
 20
100.221006
 30
0.0
 10
120.039076
 20
100.221006
 30
0.0
 10
120.039076
 20
105.186006
 30
0.0
  0
LWPOLYLINE
  5
10b
100
AcDbEntity
  8
Base_plate
 62
7
100
AcDbPolyline
 90
5
 70
1
 10
5.035903
 20
72.924374
 30
0.0
 10
10.001250
 20
72.924374
 30
0.0
 10
10.001250
 20
67.959026
 30
0.0
 10
5.035903
 20
67.959026
 30
0.0
 10
5.035903
 20
72.924374
 30
0.0
  0
LWPOLYLINE
  5
10c
100
AcDbEntity
  8
Base_plate
 62
7
100
AcDbPolyline
 90
5
 70
1
 10
18.035764
 20
72.924374
 30
0.0
 10
23.001111
 20
72.924227
 30
0.0
 10
23.001111
 20
67.959227
 30
0.0
 10
18.035764
 20
67.959227
 30
0.0
 10
18.035764
 20
72.924374
 30
0.0
  0
LWPOLYLINE
  5
10d
100
AcDbEntity
  8
Base_plate
 62
7
100
AcDbPolyline
 90
5
 70
1
 10
107.039215
 20
72.924227
 30
0.0
 10
112.004562
 20
72.924227
 30
0.0
 10
112.004562
 20
67.959227
 30
0.0
 10
107.039215
 20
67.959227
 30
0.0
 10
107.039215
 20
72.924227
 30
0.0
  0
LWPOLYLINE
  5
10e
100
AcDbEntity
  8
Base_plate
 62
7
100
AcDbPolyline
 90
5
 70
1
 10
120.039076
 20
72.924227
 30
0.0
 10
125.004424
 20
72.924227
 30
0.0
 10
125.004424
 20
67.959227
 30
0.0
 10
120.039076
 20
67.959227
 30
0.0
 10
120.039076
 20
72.924227
 30
0.0
  0
LWPOLYLINE
  5
10f
100
AcDbEntity
  8
Base_plate
 62
7
100
AcDbPolyline
 90
5
 70
1
 10
5.018264
 20
27.927568
 30
0.0
 10
9.983611
 20
27.927568
 30
0.0
 10
9.983611
 20
22.962221
 30
0.0
 10
5.018264
 20
22.962221
 30
0.0
 10
5.018264
 20
27.927568
 30
0.0
  0
LWPOLYLINE
  5
110
100
AcDbEntity
  8
Base_plate
 62
7
100
AcDbPolyline
 90
5
 70
1
 10
18.018125
 20
27.927568
 30
0.0
 10
22.983472
 20
27.927568
 30
0.0
 10
22.983472
 20
22.962221
 30
0.0
 10
18.018125
 20
22.962221
 30
0.0
 10
18.018125
 20
27.927568
 30
0.0
  0
LWPOLYLINE
  5
111
100
AcDbEntity
  8
Base_plate
 62
7
100
AcDbPolyline
 90
5
 70
1
 10
107.021576
 20
27.927568
 30
0.0
 10
111.986924
 20
27.927568
 30
0.0
 10
111.986924
 20
22.962221
 30
0.0
 10
107.021576
 20
22.962221
 30
0.0
 10
107.021576
 20
27.927568
 30
0.0
  0
LWPOLYLINE
  5
112
100
AcDbEntity
  8
Base_plate
 62
7
100
AcDbPolyline
 90
5
 70
1
 10
120.021437
 20
27.927568
 30
0.0
 10
124.986785
 20
27.927568
 30
0.0
 10
124.986785
 20
22.962221
 30
0.0
 10
120.021437
 20
22.962221
 30
0.0
 10
120.021437
 20
27.927568
 30
0.0
  0
LWPOLYLINE
  5
113
100
AcDbEntity
  8
Base_plate
 62
7
100
AcDbPolyline
 90
5
 70
1
 10
18.013403
 20
18.734827
 30
0.0
 10
27.986596
 20
18.734827
 30
0.0
 10
27.986596
 20
15.759867
 30
0.0
 10
18.013403
 20
15.759867
 30
0.0
 10
18.013403
 20
18.734827
 30
0.0
  0
LWPOLYLINE
  5
114
100
AcDbEntity
  8
Base_plate
 62
7
100
AcDbPolyline
 90
5
 70
1
 10
102.017643
 20
18.734827
 30
0.0
 10
111.990835
 20
18.734827
 30
0.0
 10
111.990835
 20
15.759867
 30
0.0
 10
102.017643
 20
15.759867
 30
0.0
 10
102.017643
 20
18.734827
 30
0.0
  0
LWPOLYLINE
  5
115
100
AcDbEntity
  8
Base_plate
 62
7
100
AcDbPolyline
 90
5
 70
1
 10
92.017643
 20
27.979862
 30
0.0
 10
97.017643
 20
27.979862
 30
0.0
 10
97.017643
 20
22.979862
 30
0.0
 10
92.017643
 20
22.979862
 30
0.0
 10
92.017643
 20
27.979862
 30
0.0
  0
LWPOLYLINE
  5
116
100
AcDbEntity
  8
Base_plate
 62
7
100
AcDbPolyline
 90
5
 70
1
 10
92.017643
 20
42.979872
 30
0.0
 10
97.017643
 20
42.979872
 30
0.0
 10
97.017643
 20
37.979872
 30
0.0
 10
92.017643
 20
37.979872
 30
0.0
 10
92.017643
 20
42.979872
 30
0.0
  0
LWPOLYLINE
  5
117
100
AcDbEntity
  8
Base_plate
 62
7
100
AcDbPolyline
 90
5
 70
1
 10
92.017643
 20
57.979867
 30
0.0
 10
97.017643
 20
57.979867
 30
0.0
 10
97.017643
 20
52.979867
 30
0.0
 10
92.017643
 20
52.979867
 30
0.0
 10
92.017643
 20
57.979867
 30
0.0
  0
LWPOLYLINE
  5
118
100
AcDbEntity
  8
Base_plate
 62
7
100
AcDbPolyline
 90
5
 70
1
 10
92.017643
 20
72.248317
 30
0.0
 10
97.017643
 20
72.248317
 30
0.0
 10
97.017643
 20
67.248317
 30
0.0
 10
92.017643
 20
67.248317
 30
0.0
 10
92.017643
 20
72.248317
 30
0.0
  0
LWPOLYLINE
  5
119
100
AcDbEntity
  8
Base_plate
 62
7
100
AcDbPolyline
 90
5
 70
1
 10
33.062993
 20
27.899542
 30
0.0
 10
38.062993
 20
27.899542
 30
0.0
 10
38.062993
 20
22.899542
 30
0.0
 10
33.062993
 20
22.899542
 30
0.0
 10
33.062993
 20
27.899542
 30
0.0
  0
LWPOLYLINE
  5
11a
100
AcDbEntity
  8
Base_plate
 62
7
100
AcDbPolyline
 90
5
 70
1
 10
33.062993
 20
42.986312
 30
0.0
 10
38.062993
 20
42.986312
 30
0.0
 10
38.062993
 20
37.986312
 30
0.0
 10
33.062993
 20
37.986312
 30
0.0
 10
33.062993
 20
42.986312
 30
0.0
  0
LWPOLYLINE
  5
11b
100
AcDbEntity
  8
Base_plate
 62
7
100
AcDbPolyline
 90
5
 70
1
 10
33.062993
 20
57.986311
 30
0.0
 10
38.062993
 20
57.986311
 30
0.0
 10
38.062993
 20
52.986310
 30
0.0
 10
33.062993
 20
52.986310
 30
0.0
 10
33.062993
 20
57.986311
 30
0.0
  0
LWPOLYLINE
  5
11c
100
AcDbEntity
  8
Base_plate
 62
7
100
AcDbPolyline
 90
5
 70
1
 10
33.017639
 20
72.987979
 30
0.0
 10
38.017640
 20
72.987979
 30
0.0
 10
38.017640
 20
67.987979
 30
0.0
 10
33.017639
 20
67.987979
 30
0.0
 10
33.017639
 20
72.987979
 30
0.0
  0
LWPOLYLINE
  5
11d
100
AcDbEntity
  8
Base_plate
 62
7
100
AcDbPolyline
 90
5
 70
1
 10
62.519641
 20
113.279576
 30
0.0
 10
67.519641
 20
113.279576
 30
0.0
 10
67.519641
 20
108.279576
 30
0.0
 10
62.519641
 20
108.279576
 30
0.0
 10
62.519641
 20
113.279576
 30
0.0
  0
SPLINE
  5
11e
100
AcDbEntity
  8
Base_plate
 62
7
100
AcDbSpline
 70
8
 71
3
 72
8
 73
4
 74
0
 40
0
 40
0
 40
0
 40
0
 40
1
 40
1
 40
1
 40
1
 10
91.550352
 20
93.130112
 30
0.0
 10
91.550352
 20
92.334073
 30
0.0
 10
90.905034
 20
91.688755
 30
0.0
 10
90.108995
 20
91.688755
 30
0.0
  0
SPLINE
  5
11f
100
AcDbEntity
  8
Base_plate
 62
7
100
AcDbSpline
 70
8
 71
3
 72
8
 73
4
 74
0
 40
0
 40
0
 40
0
 40
0
 40
1
 40
1
 40
1
 40
1
 10
90.108995
 20
91.688755
 30
0.0
 10
89.312956
 20
91.688755
 30
0.0
 10
88.667639
 20
92.334073
 30
0.0
 10
88.667639
 20
93.130112
 30
0.0
  0
SPLINE
  5
120
100
AcDbEntity
  8
Base_plate
 62
7
100
AcDbSpline
 70
8
 71
3
 72
8
 73
4
 74
0
 40
0
 40
0
 40
0
 40
0
 40
1
 40
1
 40
1
 40
1
 10
88.667639
 20
93.130112
 30
0.0
 10
88.667639
 20
93.926151
 30
0.0
 10
89.312956
 20
94.571468
 30
0.0
 10
90.108995
 20
94.571468
 30
0.0
  0
SPLINE
  5
121
100
AcDbEntity
  8
Base_plate
 62
7
100
AcDbSpline
 70
8
 71
3
 72
8
 73
4
 74
0
 40
0
 40
0
 40
0
 40
0
 40
1
 40
1
 40
1
 40
1
 10
90.108995
 20
94.571468
 30
0.0
 10
90.905034
 20
94.571468
 30
0.0
 10
91.550352
 20
93.926151
 30
0.0
 10
91.550352
 20
93.130112
 30
0.0
  0
LWPOLYLINE
  5
122
100
AcDbEntity
  8
Base_plate
 62
7
100
AcDbPolyline
 90
5
 70
1
 10
62.519641
 20
121.859087
 30
0.0
 10
67.519641
 20
121.859087
 30
0.0
 10
67.519641
 20
116.859086
 30
0.0
 10
62.519641
 20
116.859086
 30
0.0
 10
62.519641
 20
121.859087
 30
0.0
  0
SPLINE
  5
123
100
AcDbEntity
  8
Base_plate
 62
7
100
AcDbSpline
 70
8
 71
3
 72
8
 73
4
 74
0
 40
0
 40
0
 40
0
 40
0
 40
1
 40
1
 40
1
 40
1
 10
41.550353
 20
93.130112
 30
0.0
 10
41.550353
 20
92.334073
 30
0.0
 10
40.905036
 20
91.688755
 30
0.0
 10
40.108996
 20
91.688755
 30
0.0
  0
SPLINE
  5
124
100
AcDbEntity
  8
Base_plate
 62
7
100
AcDbSpline
 70
8
 71
3
 72
8
 73
4
 74
0
 40
0
 40
0
 40
0
 40
0
 40
1
 40
1
 40
1
 40
1
 10
40.108996
 20
91.688755
 30
0.0
 10
39.312957
 20
91.688755
 30
0.0
 10
38.667640
 20
92.334073
 30
0.0
 10
38.667640
 20
93.130112
 30
0.0
  0
SPLINE
  5
125
100
AcDbEntity
  8
Base_plate
 62
7
100
AcDbSpline
 70
8
 71
3
 72
8
 73
4
 74
0
 40
0
 40
0
 40
0
 40
0
 40
1
 40
1
 40
1
 40
1
 10
38.667640
 20
93.130112
 30
0.0
 10
38.667640
 20
93.926151
 30
0.0
 10
39.312957
 20
94.571468
 30
0.0
 10
40.108996
 20
94.571468
 30
0.0
  0
SPLINE
  5
126
100
AcDbEntity
  8
Base_plate
 62
7
100
AcDbSpline
 70
8
 71
3
 72
8
 73
4
 74
0
 40
0
 40
0
 40
0
 40
0
 40
1
 40
1
 40
1
 40
1
 10
40.108996
 20
94.571468
 30
0.0
 10
40.905036
 20
94.571468
 30
0.0
 10
41.550353
 20
93.926151
 30
0.0
 10
41.550353
 20
93.130112
 30
0.0
  0
LWPOLYLINE
  5
127
100
AcDbEntity
  8
Base_plate
 62
7
100
AcDbPolyline
 90
2
 70
1
 10
91.550352
 20
93.130112
 30
0.0
 10
91.550352
 20
93.130112
 30
0.0
  0
SPLINE
  5
128
100
AcDbEntity
  8
Base_plate
 62
7
100
AcDbSpline
 70
8
 71
3
 72
8
 73
4
 74
0
 40
0
 40
0
 40
0
 40
0
 40
1
 40
1
 40
1
 40
1
 10
41.550353
 20
35.330112
 30
0.0
 10
41.550353
 20
34.534073
 30
0.0
 10
40.905036
 20
33.888755
 30
0.0
 10
40.108996
 20
33.888755
 30
0.0
  0
SPLINE
  5
129
100
AcDbEntity
  8
Base_plate
 62
7
100
AcDbSpline
 70
8
 71
3
 72
8
 73
4
 74
0
 40
0
 40
0
 40
0
 40
0
 40
1
 40
1
 40
1
 40
1
 10
40.108996
 20
33.888755
 30
0.0
 10
39.312957
 20
33.888755
 30
0.0
 10
38.667640
 20
34.534073
 30
0.0
 10
38.667640
 20
35.330112
 30
0.0
  0
SPLINE
  5
12a
100
AcDbEntity
  8
Base_plate
 62
7
100
AcDbSpline
 70
8
 71
3
 72
8
 73
4
 74
0
 40
0
 40
0
 40
0
 40
0
 40
1
 40
1
 40
1
 40
1
 10
38.667640
 20
35.330112
 30
0.0
 10
38.667640
 20
36.126151
 30
0.0
 10
39.312957
 20
36.771468
 30
0.0
 10
40.108996
 20
36.771468
 30
0.0
  0
SPLINE
  5
12b
100
AcDbEntity
  8
Base_plate
 62
7
100
AcDbSpline
 70
8
 71
3
 72
8
 73
4
 74
0
 40
0
 40
0
 40
0
 40
0
 40
1
 40
1
 40
1
 40
1
 10
40.108996
 20
36.771468
 30
0.0
 10
40.905036
 20
36.771468
 30
0.0
 10
41.550353
 20
36.126151
 30
0.0
 10
41.550353
 20
35.330112
 30
0.0
  0
LWPOLYLINE
  5
12c
100
AcDbEntity
  8
Base_plate
 62
7
100
AcDbPolyline
 90
2
 70
1
 10
41.550353
 20
93.130112
 30
0.0
 10
41.550353
 20
93.130112
 30
0.0
  0
SPLINE
  5
12d
100
AcDbEntity
  8
Base_plate
 62
7
100
AcDbSpline
 70
8
 71
3
 72
8
 73
4
 74
0
 40
0
 40
0
 40
0
 40
0
 40
1
 40
1
 40
1
 40
1
 10
91.550352
 20
35.330112
 30
0.0
 10
91.550352
 20
34.534073
 30
0.0
 10
90.905034
 20
33.888755
 30
0.0
 10
90.108995
 20
33.888755
 30
0.0
  0
SPLINE
  5
12e
100
AcDbEntity
  8
Base_plate
 62
7
100
AcDbSpline
 70
8
 71
3
 72
8
 73
4
 74
0
 40
0
 40
0
 40
0
 40
0
 40
1
 40
1
 40
1
 40
1
 10
90.108995
 20
33.888755
 30
0.0
 10
89.312956
 20
33.888755
 30
0.0
 10
88.667639
 20
34.534073
 30
0.0
 10
88.667639
 20
35.330112
 30
0.0
  0
SPLINE
  5
12f
100
AcDbEntity
  8
Base_plate
 62
7
100
AcDbSpline
 70
8
 71
3
 72
8
 73
4
 74
0
 40
0
 40
0
 40
0
 40
0
 40
1
 40
1
 40
1
 40
1
 10
88.667639
 20
35.330112
 30
0.0
 10
88.667639
 20
36.126151
 30
0.0
 10
89.312956
 20
36.771468
 30
0.0
 10
90.108995
 20
36.771468
 30
0.0
  0
SPLINE
  5
130
100
AcDbEntity
  8
Base_plate
 62
7
100
AcDbSpline
 70
8
 71
3
 72
8
 73
4
 74
0
 40
0
 40
0
 40
0
 40
0
 40
1
 40
1
 40
1
 40
1
 10
90.108995
 20
36.771468
 30
0.0
 10
90.905034
 20
36.771468
 30
0.0
 10
91.550352
 20
36.126151
 30
0.0
 10
91.550352
 20
35.330112
 30
0.0
  0
LWPOLYLINE
  5
131
100
AcDbEntity
  8
Base_plate
 62
7
100
AcDbPolyline
 90
2
 70
1
 10
41.550353
 20
35.330112
 30
0.0
 10
41.550353
 20
35.330112
 30
0.0
  0
SPLINE
  5
132
100
AcDbEntity
  8
Base_plate
 62
7
100
AcDbSpline
 70
8
 71
3
 72
8
 73
4
 74
0
 40
0
 40
0
 40
0
 40
0
 40
1
 40
1
 40
1
 40
1
 10
82.894955
 20
126.229994
 30
0.0
 10
82.894955
 20
122.944791
 30
0.0
 10
80.222452
 20
120.281605
 30
0.0
 10
76.925752
 20
120.281605
 30
0.0
  0
SPLINE
  5
133
100
AcDbEntity
  8
Base_plate
 62
7
100
AcDbSpline
 70
8
 71
3
 72
8
 73
4
 74
0
 40
0
 40
0
 40
0
 40
0
 40
1
 40
1
 40
1
 40
1
 10
76.925752
 20
120.281605
 30
0.0
 10
73.629053
 20
120.281605
 30
0.0
 10
70.956551
 20
122.944791
 30
0.0
 10
70.956551
 20
126.229994
 30
0.0
  0
SPLINE
  5
134
100
AcDbEntity
  8
Base_plate
 62
7
100
AcDbSpline
 70
8
 71
3
 72
8
 73
4
 74
0
 40
0
 40
0
 40
0
 40
0
 40
1
 40
1
 40
1
 40
1
 10
70.956551
 20
126.229994
 30
0.0
 10
70.956551
 20
129.515197
 30
0.0
 10
73.629053
 20
132.178379
 30
0.0
 10
76.925752
 20
132.178379
 30
0.0
  0
SPLINE
  5
135
100
AcDbEntity
  8
Base_plate
 62
7
100
AcDbSpline
 70
8
 71
3
 72
8
 73
4
 74
0
 40
0
 40
0
 40
0
 40
0
 40
1
 40
1
 40
1
 40
1
 10
76.925752
 20
132.178379
 30
0.0
 10
80.222452
 20
132.178379
 30
0.0
 10
82.894955
 20
129.515197
 30
0.0
 10
82.894955
 20
126.229994
 30
0.0
  0
LWPOLYLINE
  5
136
100
AcDbEntity
  8
Base_plate
 62
7
100
AcDbPolyline
 90
2
 70
1
 10
91.550352
 20
35.330112
 30
0.0
 10
91.550352
 20
35.330112
 30
0.0
  0
LWPOLYLINE
  5
137
100
AcDbEntity
  8
Base_plate
 62
7
100
AcDbPolyline
 90
2
 70
1
 10
82.894955
 20
126.229994
 30
0.0
 10
82.894955
 20
126.229994
 30
0.0
  0
LWPOLYLINE
  5
138
100
AcDbEntity
  8
Bumper_plates
 62
7
100
AcDbPolyline
 90
9
 70
1
 10
0.000000
 20
167.415901
 30
0.0
 10
0.000000
 20
148.083679
 30
0.0
 10
129.998611
 20
148.083679
 30
0.0
 10
129.998611
 20
167.415901
 30
0.0
 10
95.294097
 20
167.415901
 30
0.0
 10
95.003056
 20
159.900005
 30
0.0
 10
35.004375
 20
159.900005
 30
0.0
 10
35.004375
 20
167.415901
 30
0.0
 10
0.000000
 20
167.415901
 30
0.0
  0
LWPOLYLINE
  5
139
100
AcDbEntity
  8
Bumper_plates
 62
7
100
AcDbPolyline
 90
5
 70
1
 10
5.009444
 20
162.935624
 30
0.0
 10
30.003750
 20
162.935624
 30
0.0
 10
30.003750
 20
159.937013
 30
0.0
 10
5.009444
 20
159.937013
 30
0.0
 10
5.009444
 20
162.935624
 30
0.0
  0
LWPOLYLINE
  5
13a
100
AcDbEntity
  8
Bumper_plates
 62
7
100
AcDbPolyline
 90
5
 70
1
 10
99.836111
 20
162.935624
 30
0.0
 10
124.829999
 20
162.935624
 30
0.0
 10
124.829999
 20
159.937013
 30
0.0
 10
99.836111
 20
159.937013
 30
0.0
 10
99.836111
 20
162.935624
 30
0.0
  0
LWPOLYLINE
  5
13b
100
AcDbEntity
  8
Bumper_plates
 62
7
100
AcDbPolyline
 90
5
 70
1
 10
4.991806
 20
153.816318
 30
0.0
 10
20.002500
 20
153.816318
 30
0.0
 10
20.002500
 20
151.082290
 30
0.0
 10
4.991806
 20
151.082290
 30
0.0
 10
4.991806
 20
153.816318
 30
0.0
  0
LWPOLYLINE
  5
13c
100
AcDbEntity
  8
Bumper_plates
 62
7
100
AcDbPolyline
 90
5
 70
1
 10
57.520417
 20
153.816318
 30
0.0
 10
72.434097
 20
153.816318
 30
0.0
 10
72.434097
 20
151.082290
 30
0.0
 10
57.520417
 20
151.082290
 30
0.0
 10
57.520417
 20
153.816318
 30
0.0
  0
SPLINE
  5
13d
100
AcDbEntity
  8
wheels
 62
7
100
AcDbSpline
 70
8
 71
3
 72
8
 73
4
 74
0
 40
0
 40
0
 40
0
 40
0
 40
1
 40
1
 40
1
 40
1
 10
178.434515
 20
64.955214
 30
0.0
 10
169.661288
 20
65.210318
 30
0.0
 10
161.158416
 20
61.903209
 30
0.0
 10
154.863115
 20
55.787346
 30
0.0
  0
SPLINE
  5
13e
100
AcDbEntity
  8
wheels
 62
7
100
AcDbSpline
 70
8
 71
3
 72
8
 73
4
 74
0
 40
0
 40
0
 40
0
 40
0
 40
1
 40
1
 40
1
 40
1
 10
154.863115
 20
55.787346
 30
0.0
 10
148.567815
 20
49.671484
 30
0.0
 10
145.016272
 20
41.267774
 30
0.0
 10
145.017640
 20
32.490839
 30
0.0
  0
SPLINE
  5
13f
100
AcDbEntity
  8
wheels
 62
7
100
AcDbSpline
 70
8
 71
3
 72
8
 73
4
 74
0
 40
0
 40
0
 40
0
 40
0
 40
1
 40
1
 40
1
 40
1
 10
145.017640
 20
32.490839
 30
0.0
 10
145.017640
 20
20.889284
 30
0.0
 10
151.206995
 20
10.169005
 30
0.0
 10
161.254237
 20
4.368228
 30
0.0
  0
SPLINE
  5
140
100
AcDbEntity
  8
wheels
 62
7
100
AcDbSpline
 70
8
 71
3
 72
8
 73
4
 74
0
 40
0
 40
0
 40
0
 40
0
 40
1
 40
1
 40
1
 40
1
 10
161.254237
 20
4.368228
 30
0.0
 10
171.301478
 20
-1.432550
 30
0.0
 10
183.680190
 20
-1.432550
 30
0.0
 10
193.727431
 20
4.368228
 30
0.0
  0
SPLINE
  5
141
100
AcDbEntity
  8
wheels
 62
7
100
AcDbSpline
 70
8
 71
3
 72
8
 73
4
 74
0
 40
0
 40
0
 40
0
 40
0
 40
1
 40
1
 40
1
 40
1
 10
193.727431
 20
4.368228
 30
0.0
 10
203.774673
 20
10.169005
 30
0.0
 10
209.964028
 20
20.889284
 30
0.0
 10
209.964028
 20
32.490839
 30
0.0
  0
SPLINE
  5
142
100
AcDbEntity
  8
wheels
 62
7
100
AcDbSpline
 70
8
 71
3
 72
8
 73
4
 74
0
 40
0
 40
0
 40
0
 40
0
 40
1
 40
1
 40
1
 40
1
 10
209.964028
 20
32.490839
 30
0.0
 10
209.966760
 20
50.059741
 30
0.0
 10
195.995999
 20
64.444740
 30
0.0
 10
178.434515
 20
64.955214
 30
0.0
  0
LWPOLYLINE
  5
143
100
AcDbEntity
  8
Bumper_plates
 62
7
100
AcDbPolyline
 90
5
 70
1
 10
110.022569
 20
153.816318
 30
0.0
 10
124.936250
 20
153.816318
 30
0.0
 10
124.936250
 20
151.082290
 30
0.0
 10
110.022569
 20
151.082290
 30
0.0
 10
110.022569
 20
153.816318
 30
0.0
  0
SPLINE
  5
144
100
AcDbEntity
  8
wheels
 62
7
100
AcDbSpline
 70
8
 71
3
 72
8
 73
4
 74
0
 40
0
 40
0
 40
0
 40
0
 40
1
 40
1
 40
1
 40
1
 10
167.366112
 20
44.229520
 30
0.0
 10
167.847887
 20
44.263789
 30
0.0
 10
168.322187
 20
44.095989
 30
0.0
 10
168.675225
 20
43.766374
 30
0.0
  0
SPLINE
  5
145
100
AcDbEntity
  8
wheels
 62
7
100
AcDbSpline
 70
8
 71
3
 72
8
 73
4
 74
0
 40
0
 40
0
 40
0
 40
0
 40
1
 40
1
 40
1
 40
1
 10
168.675225
 20
43.766374
 30
0.0
 10
169.028263
 20
43.436760
 30
0.0
 10
169.228180
 20
42.975077
 30
0.0
 10
169.227015
 20
42.492086
 30
0.0
  0
SPLINE
  5
146
100
AcDbEntity
  8
wheels
 62
7
100
AcDbSpline
 70
8
 71
3
 72
8
 73
4
 74
0
 40
0
 40
0
 40
0
 40
0
 40
1
 40
1
 40
1
 40
1
 10
169.227015
 20
42.492086
 30
0.0
 10
169.213037
 20
41.542501
 30
0.0
 10
168.439272
 20
40.780042
 30
0.0
 10
167.489584
 20
40.780042
 30
0.0
  0
SPLINE
  5
147
100
AcDbEntity
  8
wheels
 62
7
100
AcDbSpline
 70
8
 71
3
 72
8
 73
4
 74
0
 40
0
 40
0
 40
0
 40
0
 40
1
 40
1
 40
1
 40
1
 10
167.489584
 20
40.780042
 30
0.0
 10
166.539896
 20
40.780042
 30
0.0
 10
165.766131
 20
41.542501
 30
0.0
 10
165.752153
 20
42.492086
 30
0.0
  0
SPLINE
  5
148
100
AcDbEntity
  8
wheels
 62
7
100
AcDbSpline
 70
8
 71
3
 72
8
 73
4
 74
0
 40
0
 40
0
 40
0
 40
0
 40
1
 40
1
 40
1
 40
1
 10
165.752153
 20
42.492086
 30
0.0
 10
165.749935
 20
43.405386
 30
0.0
 10
166.455125
 20
44.164526
 30
0.0
 10
167.366112
 20
44.229520
 30
0.0
  0
LWPOLYLINE
  5
149
100
AcDbEntity
  8
wheels
 62
7
100
AcDbPolyline
 90
2
 70
1
 10
178.434515
 20
64.955214
 30
0.0
 10
178.434515
 20
64.955214
 30
0.0
  0
SPLINE
  5
14a
100
AcDbEntity
  8
wheels
 62
7
100
AcDbSpline
 70
8
 71
3
 72
8
 73
4
 74
0
 40
0
 40
0
 40
0
 40
0
 40
1
 40
1
 40
1
 40
1
 10
187.359795
 20
44.229520
 30
0.0
 10
187.841569
 20
44.263788
 30
0.0
 10
188.315869
 20
44.095987
 30
0.0
 10
188.668907
 20
43.766373
 30
0.0
  0
SPLINE
  5
14b
100
AcDbEntity
  8
wheels
 62
7
100
AcDbSpline
 70
8
 71
3
 72
8
 73
4
 74
0
 40
0
 40
0
 40
0
 40
0
 40
1
 40
1
 40
1
 40
1
 10
188.668907
 20
43.766373
 30
0.0
 10
189.021944
 20
43.436759
 30
0.0
 10
189.221861
 20
42.975076
 30
0.0
 10
189.220695
 20
42.492086
 30
0.0
  0
SPLINE
  5
14c
100
AcDbEntity
  8
wheels
 62
7
100
AcDbSpline
 70
8
 71
3
 72
8
 73
4
 74
0
 40
0
 40
0
 40
0
 40
0
 40
1
 40
1
 40
1
 40
1
 10
189.220695
 20
42.492086
 30
0.0
 10
189.206703
 20
41.542512
 30
0.0
 10
188.432942
 20
40.780068
 30
0.0
 10
187.483265
 20
40.780068
 30
0.0
  0
SPLINE
  5
14d
100
AcDbEntity
  8
wheels
 62
7
100
AcDbSpline
 70
8
 71
3
 72
8
 73
4
 74
0
 40
0
 40
0
 40
0
 40
0
 40
1
 40
1
 40
1
 40
1
 10
187.483265
 20
40.780068
 30
0.0
 10
186.533587
 20
40.780068
 30
0.0
 10
185.759826
 20
41.542512
 30
0.0
 10
185.745834
 20
42.492086
 30
0.0
  0
SPLINE
  5
14e
100
AcDbEntity
  8
wheels
 62
7
100
AcDbSpline
 70
8
 71
3
 72
8
 73
4
 74
0
 40
0
 40
0
 40
0
 40
0
 40
1
 40
1
 40
1
 40
1
 10
185.745834
 20
42.492086
 30
0.0
 10
185.743616
 20
43.405387
 30
0.0
 10
186.448807
 20
44.164527
 30
0.0
 10
187.359795
 20
44.229520
 30
0.0
  0
LWPOLYLINE
  5
14f
100
AcDbEntity
  8
wheels
 62
7
100
AcDbPolyline
 90
2
 70
1
 10
167.366112
 20
44.229520
 30
0.0
 10
167.366112
 20
44.229520
 30
0.0
  0
SPLINE
  5
150
100
AcDbEntity
  8
wheels
 62
7
100
AcDbSpline
 70
8
 71
3
 72
8
 73
4
 74
0
 40
0
 40
0
 40
0
 40
0
 40
1
 40
1
 40
1
 40
1
 10
167.366112
 20
39.228895
 30
0.0
 10
167.847886
 20
39.263164
 30
0.0
 10
168.322186
 20
39.095364
 30
0.0
 10
168.675224
 20
38.765750
 30
0.0
  0
SPLINE
  5
151
100
AcDbEntity
  8
wheels
 62
7
100
AcDbSpline
 70
8
 71
3
 72
8
 73
4
 74
0
 40
0
 40
0
 40
0
 40
0
 40
1
 40
1
 40
1
 40
1
 10
168.675224
 20
38.765750
 30
0.0
 10
169.028262
 20
38.436137
 30
0.0
 10
169.228180
 20
37.974454
 30
0.0
 10
169.227015
 20
37.491464
 30
0.0
  0
SPLINE
  5
152
100
AcDbEntity
  8
wheels
 62
7
100
AcDbSpline
 70
8
 71
3
 72
8
 73
4
 74
0
 40
0
 40
0
 40
0
 40
0
 40
1
 40
1
 40
1
 40
1
 10
169.227015
 20
37.491464
 30
0.0
 10
169.213035
 20
36.541881
 30
0.0
 10
168.439270
 20
35.779423
 30
0.0
 10
167.489584
 20
35.779423
 30
0.0
  0
SPLINE
  5
153
100
AcDbEntity
  8
wheels
 62
7
100
AcDbSpline
 70
8
 71
3
 72
8
 73
4
 74
0
 40
0
 40
0
 40
0
 40
0
 40
1
 40
1
 40
1
 40
1
 10
167.489584
 20
35.779423
 30
0.0
 10
166.539898
 20
35.779423
 30
0.0
 10
165.766133
 20
36.541881
 30
0.0
 10
165.752153
 20
37.491464
 30
0.0
  0
SPLINE
  5
154
100
AcDbEntity
  8
wheels
 62
7
100
AcDbSpline
 70
8
 71
3
 72
8
 73
4
 74
0
 40
0
 40
0
 40
0
 40
0
 40
1
 40
1
 40
1
 40
1
 10
165.752153
 20
37.491464
 30
0.0
 10
165.749937
 20
38.404763
 30
0.0
 10
166.455126
 20
39.163901
 30
0.0
 10
167.366112
 20
39.228895
 30
0.0
  0
LWPOLYLINE
  5
155
100
AcDbEntity
  8
wheels
 62
7
100
AcDbPolyline
 90
2
 70
1
 10
187.359795
 20
44.229520
 30
0.0
 10
187.359795
 20
44.229520
 30
0.0
  0
SPLINE
  5
156
100
AcDbEntity
  8
wheels
 62
7
100
AcDbSpline
 70
8
 71
3
 72
8
 73
4
 74
0
 40
0
 40
0
 40
0
 40
0
 40
1
 40
1
 40
1
 40
1
 10
187.359795
 20
39.228895
 30
0.0
 10
187.841569
 20
39.263163
 30
0.0
 10
188.315869
 20
39.095363
 30
0.0
 10
188.668906
 20
38.765749
 30
0.0
  0
SPLINE
  5
157
100
AcDbEntity
  8
wheels
 62
7
100
AcDbSpline
 70
8
 71
3
 72
8
 73
4
 74
0
 40
0
 40
0
 40
0
 40
0
 40
1
 40
1
 40
1
 40
1
 10
188.668906
 20
38.765749
 30
0.0
 10
189.021943
 20
38.436136
 30
0.0
 10
189.221860
 20
37.974454
 30
0.0
 10
189.220695
 20
37.491464
 30
0.0
  0
SPLINE
  5
158
100
AcDbEntity
  8
wheels
 62
7
100
AcDbSpline
 70
8
 71
3
 72
8
 73
4
 74
0
 40
0
 40
0
 40
0
 40
0
 40
1
 40
1
 40
1
 40
1
 10
189.220695
 20
37.491464
 30
0.0
 10
189.206705
 20
36.541888
 30
0.0
 10
188.432944
 20
35.779442
 30
0.0
 10
187.483265
 20
35.779442
 30
0.0
  0
SPLINE
  5
159
100
AcDbEntity
  8
wheels
 62
7
100
AcDbSpline
 70
8
 71
3
 72
8
 73
4
 74
0
 40
0
 40
0
 40
0
 40
0
 40
1
 40
1
 40
1
 40
1
 10
187.483265
 20
35.779442
 30
0.0
 10
186.533586
 20
35.779442
 30
0.0
 10
185.759824
 20
36.541888
 30
0.0
 10
185.745834
 20
37.491464
 30
0.0
  0
SPLINE
  5
15a
100
AcDbEntity
  8
wheels
 62
7
100
AcDbSpline
 70
8
 71
3
 72
8
 73
4
 74
0
 40
0
 40
0
 40
0
 40
0
 40
1
 40
1
 40
1
 40
1
 10
185.745834
 20
37.491464
 30
0.0
 10
185.743618
 20
38.404764
 30
0.0
 10
186.448808
 20
39.163902
 30
0.0
 10
187.359795
 20
39.228895
 30
0.0
  0
LWPOLYLINE
  5
15b
100
AcDbEntity
  8
wheels
 62
7
100
AcDbPolyline
 90
2
 70
1
 10
167.366112
 20
39.228895
 30
0.0
 10
167.366112
 20
39.228895
 30
0.0
  0
SPLINE
  5
15c
100
AcDbEntity
  8
wheels
 62
7
100
AcDbSpline
 70
8
 71
3
 72
8
 73
4
 74
0
 40
0
 40
0
 40
0
 40
0
 40
1
 40
1
 40
1
 40
1
 10
177.561390
 20
34.986739
 30
0.0
 10
178.912302
 20
34.948755
 30
0.0
 10
179.987493
 20
33.842285
 30
0.0
 10
179.986734
 20
32.490839
 30
0.0
  0
SPLINE
  5
15d
100
AcDbEntity
  8
wheels
 62
7
100
AcDbSpline
 70
8
 71
3
 72
8
 73
4
 74
0
 40
0
 40
0
 40
0
 40
0
 40
1
 40
1
 40
1
 40
1
 10
179.986734
 20
32.490839
 30
0.0
 10
179.985026
 20
31.113599
 30
0.0
 10
178.868073
 20
29.998031
 30
0.0
 10
177.490833
 20
29.998031
 30
0.0
  0
SPLINE
  5
15e
100
AcDbEntity
  8
wheels
 62
7
100
AcDbSpline
 70
8
 71
3
 72
8
 73
4
 74
0
 40
0
 40
0
 40
0
 40
0
 40
1
 40
1
 40
1
 40
1
 10
177.490833
 20
29.998031
 30
0.0
 10
176.113592
 20
29.998031
 30
0.0
 10
174.996639
 20
31.113599
 30
0.0
 10
174.994931
 20
32.490839
 30
0.0
  0
SPLINE
  5
15f
100
AcDbEntity
  8
wheels
 62
7
100
AcDbSpline
 70
8
 71
3
 72
8
 73
4
 74
0
 40
0
 40
0
 40
0
 40
0
 40
1
 40
1
 40
1
 40
1
 10
174.994931
 20
32.490839
 30
0.0
 10
174.994546
 20
33.165237
 30
0.0
 10
175.267133
 20
33.811079
 30
0.0
 10
175.750604
 20
34.281259
 30
0.0
  0
SPLINE
  5
160
100
AcDbEntity
  8
wheels
 62
7
100
AcDbSpline
 70
8
 71
3
 72
8
 73
4
 74
0
 40
0
 40
0
 40
0
 40
0
 40
1
 40
1
 40
1
 40
1
 10
175.750604
 20
34.281259
 30
0.0
 10
176.234076
 20
34.751438
 30
0.0
 10
176.887264
 20
35.005920
 30
0.0
 10
177.561390
 20
34.986739
 30
0.0
  0
LWPOLYLINE
  5
161
100
AcDbEntity
  8
wheels
 62
7
100
AcDbPolyline
 90
2
 70
1
 10
187.359795
 20
39.228895
 30
0.0
 10
187.359795
 20
39.228895
 30
0.0
  0
SPLINE
  5
162
100
AcDbEntity
  8
wheels
 62
7
100
AcDbSpline
 70
8
 71
3
 72
8
 73
4
 74
0
 40
0
 40
0
 40
0
 40
0
 40
1
 40
1
 40
1
 40
1
 10
167.366112
 20
29.227645
 30
0.0
 10
167.847887
 20
29.261914
 30
0.0
 10
168.322187
 20
29.094113
 30
0.0
 10
168.675225
 20
28.764499
 30
0.0
  0
SPLINE
  5
163
100
AcDbEntity
  8
wheels
 62
7
100
AcDbSpline
 70
8
 71
3
 72
8
 73
4
 74
0
 40
0
 40
0
 40
0
 40
0
 40
1
 40
1
 40
1
 40
1
 10
168.675225
 20
28.764499
 30
0.0
 10
169.028263
 20
28.434885
 30
0.0
 10
169.228180
 20
27.973202
 30
0.0
 10
169.227015
 20
27.490211
 30
0.0
  0
SPLINE
  5
164
100
AcDbEntity
  8
wheels
 62
7
100
AcDbSpline
 70
8
 71
3
 72
8
 73
4
 74
0
 40
0
 40
0
 40
0
 40
0
 40
1
 40
1
 40
1
 40
1
 10
169.227015
 20
27.490211
 30
0.0
 10
169.213033
 20
26.540629
 30
0.0
 10
168.439269
 20
25.778174
 30
0.0
 10
167.489584
 20
25.778174
 30
0.0
  0
SPLINE
  5
165
100
AcDbEntity
  8
wheels
 62
7
100
AcDbSpline
 70
8
 71
3
 72
8
 73
4
 74
0
 40
0
 40
0
 40
0
 40
0
 40
1
 40
1
 40
1
 40
1
 10
167.489584
 20
25.778174
 30
0.0
 10
166.539899
 20
25.778174
 30
0.0
 10
165.766135
 20
26.540629
 30
0.0
 10
165.752153
 20
27.490211
 30
0.0
  0
SPLINE
  5
166
100
AcDbEntity
  8
wheels
 62
7
100
AcDbSpline
 70
8
 71
3
 72
8
 73
4
 74
0
 40
0
 40
0
 40
0
 40
0
 40
1
 40
1
 40
1
 40
1
 10
165.752153
 20
27.490211
 30
0.0
 10
165.749935
 20
28.403511
 30
0.0
 10
166.455125
 20
29.162651
 30
0.0
 10
167.366112
 20
29.227645
 30
0.0
  0
LWPOLYLINE
  5
167
100
AcDbEntity
  8
wheels
 62
7
100
AcDbPolyline
 90
2
 70
1
 10
177.561390
 20
34.986739
 30
0.0
 10
177.561390
 20
34.986739
 30
0.0
  0
SPLINE
  5
168
100
AcDbEntity
  8
wheels
 62
7
100
AcDbSpline
 70
8
 71
3
 72
8
 73
4
 74
0
 40
0
 40
0
 40
0
 40
0
 40
1
 40
1
 40
1
 40
1
 10
187.359795
 20
29.227645
 30
0.0
 10
187.841569
 20
29.261913
 30
0.0
 10
188.315869
 20
29.094112
 30
0.0
 10
188.668907
 20
28.764498
 30
0.0
  0
SPLINE
  5
169
100
AcDbEntity
  8
wheels
 62
7
100
AcDbSpline
 70
8
 71
3
 72
8
 73
4
 74
0
 40
0
 40
0
 40
0
 40
0
 40
1
 40
1
 40
1
 40
1
 10
188.668907
 20
28.764498
 30
0.0
 10
189.021944
 20
28.434884
 30
0.0
 10
189.221861
 20
27.973201
 30
0.0
 10
189.220695
 20
27.490211
 30
0.0
  0
SPLINE
  5
16a
100
AcDbEntity
  8
wheels
 62
7
100
AcDbSpline
 70
8
 71
3
 72
8
 73
4
 74
0
 40
0
 40
0
 40
0
 40
0
 40
1
 40
1
 40
1
 40
1
 10
189.220695
 20
27.490211
 30
0.0
 10
189.206707
 20
26.540634
 30
0.0
 10
188.432945
 20
25.778186
 30
0.0
 10
187.483265
 20
25.778186
 30
0.0
  0
SPLINE
  5
16b
100
AcDbEntity
  8
wheels
 62
7
100
AcDbSpline
 70
8
 71
3
 72
8
 73
4
 74
0
 40
0
 40
0
 40
0
 40
0
 40
1
 40
1
 40
1
 40
1
 10
187.483265
 20
25.778186
 30
0.0
 10
186.533584
 20
25.778186
 30
0.0
 10
185.759822
 20
26.540634
 30
0.0
 10
185.745834
 20
27.490211
 30
0.0
  0
SPLINE
  5
16c
100
AcDbEntity
  8
wheels
 62
7
100
AcDbSpline
 70
8
 71
3
 72
8
 73
4
 74
0
 40
0
 40
0
 40
0
 40
0
 40
1
 40
1
 40
1
 40
1
 10
185.745834
 20
27.490211
 30
0.0
 10
185.743616
 20
28.403512
 30
0.0
 10
186.448807
 20
29.162652
 30
0.0
 10
187.359795
 20
29.227645
 30
0.0
  0
LWPOLYLINE
  5
16d
100
AcDbEntity
  8
wheels
 62
7
100
AcDbPolyline
 90
2
 70
1
 10
167.366112
 20
29.227645
 30
0.0
 10
167.366112
 20
29.227645
 30
0.0
  0
SPLINE
  5
16e
100
AcDbEntity
  8
wheels
 62
7
100
AcDbSpline
 70
8
 71
3
 72
8
 73
4
 74
0
 40
0
 40
0
 40
0
 40
0
 40
1
 40
1
 40
1
 40
1
 10
167.366112
 20
24.227017
 30
0.0
 10
167.847886
 20
24.261286
 30
0.0
 10
168.322185
 20
24.093486
 30
0.0
 10
168.675223
 20
23.763873
 30
0.0
  0
SPLINE
  5
16f
100
AcDbEntity
  8
wheels
 62
7
100
AcDbSpline
 70
8
 71
3
 72
8
 73
4
 74
0
 40
0
 40
0
 40
0
 40
0
 40
1
 40
1
 40
1
 40
1
 10
168.675223
 20
23.763873
 30
0.0
 10
169.028261
 20
23.434260
 30
0.0
 10
169.228179
 20
22.972579
 30
0.0
 10
169.227015
 20
22.489589
 30
0.0
  0
SPLINE
  5
170
100
AcDbEntity
  8
wheels
 62
7
100
AcDbSpline
 70
8
 71
3
 72
8
 73
4
 74
0
 40
0
 40
0
 40
0
 40
0
 40
1
 40
1
 40
1
 40
1
 10
169.227015
 20
22.489589
 30
0.0
 10
169.213031
 20
21.540009
 30
0.0
 10
168.439267
 20
20.777556
 30
0.0
 10
167.489584
 20
20.777556
 30
0.0
  0
SPLINE
  5
171
100
AcDbEntity
  8
wheels
 62
7
100
AcDbSpline
 70
8
 71
3
 72
8
 73
4
 74
0
 40
0
 40
0
 40
0
 40
0
 40
1
 40
1
 40
1
 40
1
 10
167.489584
 20
20.777556
 30
0.0
 10
166.539901
 20
20.777556
 30
0.0
 10
165.766137
 20
21.540009
 30
0.0
 10
165.752153
 20
22.489589
 30
0.0
  0
SPLINE
  5
172
100
AcDbEntity
  8
wheels
 62
7
100
AcDbSpline
 70
8
 71
3
 72
8
 73
4
 74
0
 40
0
 40
0
 40
0
 40
0
 40
1
 40
1
 40
1
 40
1
 10
165.752153
 20
22.489589
 30
0.0
 10
165.749938
 20
23.402887
 30
0.0
 10
166.455127
 20
24.162023
 30
0.0
 10
167.366112
 20
24.227017
 30
0.0
  0
LWPOLYLINE
  5
173
100
AcDbEntity
  8
wheels
 62
7
100
AcDbPolyline
 90
2
 70
1
 10
187.359795
 20
29.227645
 30
0.0
 10
187.359795
 20
29.227645
 30
0.0
  0
SPLINE
  5
174
100
AcDbEntity
  8
wheels
 62
7
100
AcDbSpline
 70
8
 71
3
 72
8
 73
4
 74
0
 40
0
 40
0
 40
0
 40
0
 40
1
 40
1
 40
1
 40
1
 10
187.359795
 20
24.227017
 30
0.0
 10
187.841568
 20
24.261285
 30
0.0
 10
188.315868
 20
24.093485
 30
0.0
 10
188.668905
 20
23.763872
 30
0.0
  0
SPLINE
  5
175
100
AcDbEntity
  8
wheels
 62
7
100
AcDbSpline
 70
8
 71
3
 72
8
 73
4
 74
0
 40
0
 40
0
 40
0
 40
0
 40
1
 40
1
 40
1
 40
1
 10
188.668905
 20
23.763872
 30
0.0
 10
189.021942
 20
23.434259
 30
0.0
 10
189.221859
 20
22.972578
 30
0.0
 10
189.220695
 20
22.489589
 30
0.0
  0
SPLINE
  5
176
100
AcDbEntity
  8
wheels
 62
7
100
AcDbSpline
 70
8
 71
3
 72
8
 73
4
 74
0
 40
0
 40
0
 40
0
 40
0
 40
1
 40
1
 40
1
 40
1
 10
189.220695
 20
22.489589
 30
0.0
 10
189.206709
 20
21.540010
 30
0.0
 10
188.432946
 20
20.777560
 30
0.0
 10
187.483265
 20
20.777560
 30
0.0
  0
SPLINE
  5
177
100
AcDbEntity
  8
wheels
 62
7
100
AcDbSpline
 70
8
 71
3
 72
8
 73
4
 74
0
 40
0
 40
0
 40
0
 40
0
 40
1
 40
1
 40
1
 40
1
 10
187.483265
 20
20.777560
 30
0.0
 10
186.533583
 20
20.777560
 30
0.0
 10
185.759820
 20
21.540010
 30
0.0
 10
185.745834
 20
22.489589
 30
0.0
  0
SPLINE
  5
178
100
AcDbEntity
  8
wheels
 62
7
100
AcDbSpline
 70
8
 71
3
 72
8
 73
4
 74
0
 40
0
 40
0
 40
0
 40
0
 40
1
 40
1
 40
1
 40
1
 10
185.745834
 20
22.489589
 30
0.0
 10
185.743619
 20
23.402888
 30
0.0
 10
186.448809
 20
24.162024
 30
0.0
 10
187.359795
 20
24.227017
 30
0.0
  0
LWPOLYLINE
  5
179
100
AcDbEntity
  8
wheels
 62
7
100
AcDbPolyline
 90
2
 70
1
 10
167.366112
 20
24.227017
 30
0.0
 10
167.366112
 20
24.227017
 30
0.0
  0
SPLINE
  5
17a
100
AcDbEntity
  8
wheels
 62
7
100
AcDbSpline
 70
8
 71
3
 72
8
 73
4
 74
0
 40
0
 40
0
 40
0
 40
0
 40
1
 40
1
 40
1
 40
1
 10
178.434517
 20
134.955212
 30
0.0
 10
169.661290
 20
135.210317
 30
0.0
 10
161.158418
 20
131.903208
 30
0.0
 10
154.863116
 20
125.787346
 30
0.0
  0
SPLINE
  5
17b
100
AcDbEntity
  8
wheels
 62
7
100
AcDbSpline
 70
8
 71
3
 72
8
 73
4
 74
0
 40
0
 40
0
 40
0
 40
0
 40
1
 40
1
 40
1
 40
1
 10
154.863116
 20
125.787346
 30
0.0
 10
148.567815
 20
119.671483
 30
0.0
 10
145.016272
 20
111.267773
 30
0.0
 10
145.017640
 20
102.490837
 30
0.0
  0
SPLINE
  5
17c
100
AcDbEntity
  8
wheels
 62
7
100
AcDbSpline
 70
8
 71
3
 72
8
 73
4
 74
0
 40
0
 40
0
 40
0
 40
0
 40
1
 40
1
 40
1
 40
1
 10
145.017640
 20
102.490837
 30
0.0
 10
145.017640
 20
90.889282
 30
0.0
 10
151.206995
 20
80.169003
 30
0.0
 10
161.254237
 20
74.368226
 30
0.0
  0
SPLINE
  5
17d
100
AcDbEntity
  8
wheels
 62
7
100
AcDbSpline
 70
8
 71
3
 72
8
 73
4
 74
0
 40
0
 40
0
 40
0
 40
0
 40
1
 40
1
 40
1
 40
1
 10
161.254237
 20
74.368226
 30
0.0
 10
171.301478
 20
68.567448
 30
0.0
 10
183.680190
 20
68.567448
 30
0.0
 10
193.727431
 20
74.368226
 30
0.0
  0
SPLINE
  5
17e
100
AcDbEntity
  8
wheels
 62
7
100
AcDbSpline
 70
8
 71
3
 72
8
 73
4
 74
0
 40
0
 40
0
 40
0
 40
0
 40
1
 40
1
 40
1
 40
1
 10
193.727431
 20
74.368226
 30
0.0
 10
203.774673
 20
80.169003
 30
0.0
 10
209.964028
 20
90.889282
 30
0.0
 10
209.964028
 20
102.490837
 30
0.0
  0
SPLINE
  5
17f
100
AcDbEntity
  8
wheels
 62
7
100
AcDbSpline
 70
8
 71
3
 72
8
 73
4
 74
0
 40
0
 40
0
 40
0
 40
0
 40
1
 40
1
 40
1
 40
1
 10
209.964028
 20
102.490837
 30
0.0
 10
209.966760
 20
120.059738
 30
0.0
 10
195.996000
 20
134.444737
 30
0.0
 10
178.434517
 20
134.955212
 30
0.0
  0
LWPOLYLINE
  5
180
100
AcDbEntity
  8
wheels
 62
7
100
AcDbPolyline
 90
2
 70
1
 10
187.359795
 20
24.227017
 30
0.0
 10
187.359795
 20
24.227017
 30
0.0
  0
SPLINE
  5
181
100
AcDbEntity
  8
wheels
 62
7
100
AcDbSpline
 70
8
 71
3
 72
8
 73
4
 74
0
 40
0
 40
0
 40
0
 40
0
 40
1
 40
1
 40
1
 40
1
 10
167.366109
 20
114.229518
 30
0.0
 10
167.847884
 20
114.263788
 30
0.0
 10
168.322185
 20
114.095988
 30
0.0
 10
168.675223
 20
113.766375
 30
0.0
  0
SPLINE
  5
182
100
AcDbEntity
  8
wheels
 62
7
100
AcDbSpline
 70
8
 71
3
 72
8
 73
4
 74
0
 40
0
 40
0
 40
0
 40
0
 40
1
 40
1
 40
1
 40
1
 10
168.675223
 20
113.766375
 30
0.0
 10
169.028262
 20
113.436761
 30
0.0
 10
169.228180
 20
112.975078
 30
0.0
 10
169.227015
 20
112.492087
 30
0.0
  0
SPLINE
  5
183
100
AcDbEntity
  8
wheels
 62
7
100
AcDbSpline
 70
8
 71
3
 72
8
 73
4
 74
0
 40
0
 40
0
 40
0
 40
0
 40
1
 40
1
 40
1
 40
1
 10
169.227015
 20
112.492087
 30
0.0
 10
169.213037
 20
111.542502
 30
0.0
 10
168.439272
 20
110.780043
 30
0.0
 10
167.489584
 20
110.780043
 30
0.0
  0
SPLINE
  5
184
100
AcDbEntity
  8
wheels
 62
7
100
AcDbSpline
 70
8
 71
3
 72
8
 73
4
 74
0
 40
0
 40
0
 40
0
 40
0
 40
1
 40
1
 40
1
 40
1
 10
167.489584
 20
110.780043
 30
0.0
 10
166.539896
 20
110.780043
 30
0.0
 10
165.766131
 20
111.542502
 30
0.0
 10
165.752153
 20
112.492087
 30
0.0
  0
SPLINE
  5
185
100
AcDbEntity
  8
wheels
 62
7
100
AcDbSpline
 70
8
 71
3
 72
8
 73
4
 74
0
 40
0
 40
0
 40
0
 40
0
 40
1
 40
1
 40
1
 40
1
 10
165.752153
 20
112.492087
 30
0.0
 10
165.749937
 20
113.405385
 30
0.0
 10
166.455124
 20
114.164523
 30
0.0
 10
167.366109
 20
114.229518
 30
0.0
  0
LWPOLYLINE
  5
186
100
AcDbEntity
  8
wheels
 62
7
100
AcDbPolyline
 90
2
 70
1
 10
178.434517
 20
134.955212
 30
0.0
 10
178.434517
 20
134.955212
 30
0.0
  0
SPLINE
  5
187
100
AcDbEntity
  8
wheels
 62
7
100
AcDbSpline
 70
8
 71
3
 72
8
 73
4
 74
0
 40
0
 40
0
 40
0
 40
0
 40
1
 40
1
 40
1
 40
1
 10
187.359792
 20
114.229518
 30
0.0
 10
187.841566
 20
114.263787
 30
0.0
 10
188.315866
 20
114.095986
 30
0.0
 10
188.668903
 20
113.766372
 30
0.0
  0
SPLINE
  5
188
100
AcDbEntity
  8
wheels
 62
7
100
AcDbSpline
 70
8
 71
3
 72
8
 73
4
 74
0
 40
0
 40
0
 40
0
 40
0
 40
1
 40
1
 40
1
 40
1
 10
188.668903
 20
113.766372
 30
0.0
 10
189.021940
 20
113.436759
 30
0.0
 10
189.221857
 20
112.975077
 30
0.0
 10
189.220692
 20
112.492087
 30
0.0
  0
SPLINE
  5
189
100
AcDbEntity
  8
wheels
 62
7
100
AcDbSpline
 70
8
 71
3
 72
8
 73
4
 74
0
 40
0
 40
0
 40
0
 40
0
 40
1
 40
1
 40
1
 40
1
 10
189.220692
 20
112.492087
 30
0.0
 10
189.206597
 20
111.542589
 30
0.0
 10
188.432868
 20
110.780260
 30
0.0
 10
187.483265
 20
110.780260
 30
0.0
  0
SPLINE
  5
18a
100
AcDbEntity
  8
wheels
 62
7
100
AcDbSpline
 70
8
 71
3
 72
8
 73
4
 74
0
 40
0
 40
0
 40
0
 40
0
 40
1
 40
1
 40
1
 40
1
 10
187.483265
 20
110.780260
 30
0.0
 10
186.533661
 20
110.780260
 30
0.0
 10
185.759932
 20
111.542589
 30
0.0
 10
185.745837
 20
112.492087
 30
0.0
  0
SPLINE
  5
18b
100
AcDbEntity
  8
wheels
 62
7
100
AcDbSpline
 70
8
 71
3
 72
8
 73
4
 74
0
 40
0
 40
0
 40
0
 40
0
 40
1
 40
1
 40
1
 40
1
 10
185.745837
 20
112.492087
 30
0.0
 10
185.743620
 20
113.405385
 30
0.0
 10
186.448807
 20
114.164522
 30
0.0
 10
187.359792
 20
114.229518
 30
0.0
  0
LWPOLYLINE
  5
18c
100
AcDbEntity
  8
wheels
 62
7
100
AcDbPolyline
 90
2
 70
1
 10
167.366109
 20
114.229518
 30
0.0
 10
167.366109
 20
114.229518
 30
0.0
  0
SPLINE
  5
18d
100
AcDbEntity
  8
wheels
 62
7
100
AcDbSpline
 70
8
 71
3
 72
8
 73
4
 74
0
 40
0
 40
0
 40
0
 40
0
 40
1
 40
1
 40
1
 40
1
 10
167.366109
 20
109.228893
 30
0.0
 10
167.847884
 20
109.263163
 30
0.0
 10
168.322185
 20
109.095363
 30
0.0
 10
168.675223
 20
108.765750
 30
0.0
  0
SPLINE
  5
18e
100
AcDbEntity
  8
wheels
 62
7
100
AcDbSpline
 70
8
 71
3
 72
8
 73
4
 74
0
 40
0
 40
0
 40
0
 40
0
 40
1
 40
1
 40
1
 40
1
 10
168.675223
 20
108.765750
 30
0.0
 10
169.028262
 20
108.436136
 30
0.0
 10
169.228180
 20
107.974453
 30
0.0
 10
169.227015
 20
107.491462
 30
0.0
  0
SPLINE
  5
18f
100
AcDbEntity
  8
wheels
 62
7
100
AcDbSpline
 70
8
 71
3
 72
8
 73
4
 74
0
 40
0
 40
0
 40
0
 40
0
 40
1
 40
1
 40
1
 40
1
 10
169.227015
 20
107.491462
 30
0.0
 10
169.213035
 20
106.541879
 30
0.0
 10
168.439270
 20
105.779422
 30
0.0
 10
167.489584
 20
105.779422
 30
0.0
  0
SPLINE
  5
190
100
AcDbEntity
  8
wheels
 62
7
100
AcDbSpline
 70
8
 71
3
 72
8
 73
4
 74
0
 40
0
 40
0
 40
0
 40
0
 40
1
 40
1
 40
1
 40
1
 10
167.489584
 20
105.779422
 30
0.0
 10
166.539898
 20
105.779422
 30
0.0
 10
165.766133
 20
106.541879
 30
0.0
 10
165.752153
 20
107.491462
 30
0.0
  0
SPLINE
  5
191
100
AcDbEntity
  8
wheels
 62
7
100
AcDbSpline
 70
8
 71
3
 72
8
 73
4
 74
0
 40
0
 40
0
 40
0
 40
0
 40
1
 40
1
 40
1
 40
1
 10
165.752153
 20
107.491462
 30
0.0
 10
165.749937
 20
108.404760
 30
0.0
 10
166.455124
 20
109.163897
 30
0.0
 10
167.366109
 20
109.228893
 30
0.0
  0
LWPOLYLINE
  5
192
100
AcDbEntity
  8
wheels
 62
7
100
AcDbPolyline
 90
2
 70
1
 10
187.359792
 20
114.229518
 30
0.0
 10
187.359792
 20
114.229518
 30
0.0
  0
SPLINE
  5
193
100
AcDbEntity
  8
wheels
 62
7
100
AcDbSpline
 70
8
 71
3
 72
8
 73
4
 74
0
 40
0
 40
0
 40
0
 40
0
 40
1
 40
1
 40
1
 40
1
 10
187.359792
 20
109.228893
 30
0.0
 10
187.841566
 20
109.263162
 30
0.0
 10
188.315866
 20
109.095361
 30
0.0
 10
188.668903
 20
108.765747
 30
0.0
  0
SPLINE
  5
194
100
AcDbEntity
  8
wheels
 62
7
100
AcDbSpline
 70
8
 71
3
 72
8
 73
4
 74
0
 40
0
 40
0
 40
0
 40
0
 40
1
 40
1
 40
1
 40
1
 10
188.668903
 20
108.765747
 30
0.0
 10
189.021940
 20
108.436134
 30
0.0
 10
189.221857
 20
107.974452
 30
0.0
 10
189.220692
 20
107.491462
 30
0.0
  0
SPLINE
  5
195
100
AcDbEntity
  8
wheels
 62
7
100
AcDbSpline
 70
8
 71
3
 72
8
 73
4
 74
0
 40
0
 40
0
 40
0
 40
0
 40
1
 40
1
 40
1
 40
1
 10
189.220692
 20
107.491462
 30
0.0
 10
189.206599
 20
106.541962
 30
0.0
 10
188.432869
 20
105.779631
 30
0.0
 10
187.483265
 20
105.779631
 30
0.0
  0
SPLINE
  5
196
100
AcDbEntity
  8
wheels
 62
7
100
AcDbSpline
 70
8
 71
3
 72
8
 73
4
 74
0
 40
0
 40
0
 40
0
 40
0
 40
1
 40
1
 40
1
 40
1
 10
187.483265
 20
105.779631
 30
0.0
 10
186.533660
 20
105.779631
 30
0.0
 10
185.759930
 20
106.541962
 30
0.0
 10
185.745837
 20
107.491462
 30
0.0
  0
SPLINE
  5
197
100
AcDbEntity
  8
wheels
 62
7
100
AcDbSpline
 70
8
 71
3
 72
8
 73
4
 74
0
 40
0
 40
0
 40
0
 40
0
 40
1
 40
1
 40
1
 40
1
 10
185.745837
 20
107.491462
 30
0.0
 10
185.743620
 20
108.404760
 30
0.0
 10
186.448807
 20
109.163897
 30
0.0
 10
187.359792
 20
109.228893
 30
0.0
  0
LWPOLYLINE
  5
198
100
AcDbEntity
  8
wheels
 62
7
100
AcDbPolyline
 90
2
 70
1
 10
167.366109
 20
109.228893
 30
0.0
 10
167.366109
 20
109.228893
 30
0.0
  0
SPLINE
  5
199
100
AcDbEntity
  8
wheels
 62
7
100
AcDbSpline
 70
8
 71
3
 72
8
 73
4
 74
0
 40
0
 40
0
 40
0
 40
0
 40
1
 40
1
 40
1
 40
1
 10
177.561387
 20
104.986740
 30
0.0
 10
178.912302
 20
104.948757
 30
0.0
 10
179.987495
 20
103.842286
 30
0.0
 10
179.986734
 20
102.490837
 30
0.0
  0
SPLINE
  5
19a
100
AcDbEntity
  8
wheels
 62
7
100
AcDbSpline
 70
8
 71
3
 72
8
 73
4
 74
0
 40
0
 40
0
 40
0
 40
0
 40
1
 40
1
 40
1
 40
1
 10
179.986734
 20
102.490837
 30
0.0
 10
179.985855
 20
101.113010
 30
0.0
 10
178.868659
 20
99.996526
 30
0.0
 10
177.490831
 20
99.996526
 30
0.0
  0
SPLINE
  5
19b
100
AcDbEntity
  8
wheels
 62
7
100
AcDbSpline
 70
8
 71
3
 72
8
 73
4
 74
0
 40
0
 40
0
 40
0
 40
0
 40
1
 40
1
 40
1
 40
1
 10
177.490831
 20
99.996526
 30
0.0
 10
176.113004
 20
99.996526
 30
0.0
 10
174.995808
 20
101.113010
 30
0.0
 10
174.994928
 20
102.490837
 30
0.0
  0
SPLINE
  5
19c
100
AcDbEntity
  8
wheels
 62
7
100
AcDbSpline
 70
8
 71
3
 72
8
 73
4
 74
0
 40
0
 40
0
 40
0
 40
0
 40
1
 40
1
 40
1
 40
1
 10
174.994928
 20
102.490837
 30
0.0
 10
174.994542
 20
103.165236
 30
0.0
 10
175.267129
 20
103.811079
 30
0.0
 10
175.750601
 20
104.281259
 30
0.0
  0
SPLINE
  5
19d
100
AcDbEntity
  8
wheels
 62
7
100
AcDbSpline
 70
8
 71
3
 72
8
 73
4
 74
0
 40
0
 40
0
 40
0
 40
0
 40
1
 40
1
 40
1
 40
1
 10
175.750601
 20
104.281259
 30
0.0
 10
176.234072
 20
104.751439
 30
0.0
 10
176.887261
 20
105.005921
 30
0.0
 10
177.561387
 20
104.986740
 30
0.0
  0
LWPOLYLINE
  5
19e
100
AcDbEntity
  8
wheels
 62
7
100
AcDbPolyline
 90
2
 70
1
 10
187.359792
 20
109.228893
 30
0.0
 10
187.359792
 20
109.228893
 30
0.0
  0
SPLINE
  5
19f
100
AcDbEntity
  8
wheels
 62
7
100
AcDbSpline
 70
8
 71
3
 72
8
 73
4
 74
0
 40
0
 40
0
 40
0
 40
0
 40
1
 40
1
 40
1
 40
1
 10
167.366109
 20
99.227643
 30
0.0
 10
167.847884
 20
99.261913
 30
0.0
 10
168.322186
 20
99.094113
 30
0.0
 10
168.675224
 20
98.764499
 30
0.0
  0
SPLINE
  5
1a0
100
AcDbEntity
  8
wheels
 62
7
100
AcDbSpline
 70
8
 71
3
 72
8
 73
4
 74
0
 40
0
 40
0
 40
0
 40
0
 40
1
 40
1
 40
1
 40
1
 10
168.675224
 20
98.764499
 30
0.0
 10
169.028263
 20
98.434884
 30
0.0
 10
169.228180
 20
97.973201
 30
0.0
 10
169.227015
 20
97.490209
 30
0.0
  0
SPLINE
  5
1a1
100
AcDbEntity
  8
wheels
 62
7
100
AcDbSpline
 70
8
 71
3
 72
8
 73
4
 74
0
 40
0
 40
0
 40
0
 40
0
 40
1
 40
1
 40
1
 40
1
 10
169.227015
 20
97.490209
 30
0.0
 10
169.213033
 20
96.540628
 30
0.0
 10
168.439269
 20
95.778173
 30
0.0
 10
167.489584
 20
95.778173
 30
0.0
  0
SPLINE
  5
1a2
100
AcDbEntity
  8
wheels
 62
7
100
AcDbSpline
 70
8
 71
3
 72
8
 73
4
 74
0
 40
0
 40
0
 40
0
 40
0
 40
1
 40
1
 40
1
 40
1
 10
167.489584
 20
95.778173
 30
0.0
 10
166.539899
 20
95.778173
 30
0.0
 10
165.766135
 20
96.540628
 30
0.0
 10
165.752153
 20
97.490209
 30
0.0
  0
SPLINE
  5
1a3
100
AcDbEntity
  8
wheels
 62
7
100
AcDbSpline
 70
8
 71
3
 72
8
 73
4
 74
0
 40
0
 40
0
 40
0
 40
0
 40
1
 40
1
 40
1
 40
1
 10
165.752153
 20
97.490209
 30
0.0
 10
165.749935
 20
98.403509
 30
0.0
 10
166.455123
 20
99.162647
 30
0.0
 10
167.366109
 20
99.227643
 30
0.0
  0
LWPOLYLINE
  5
1a4
100
AcDbEntity
  8
wheels
 62
7
100
AcDbPolyline
 90
2
 70
1
 10
177.561387
 20
104.986740
 30
0.0
 10
177.561387
 20
104.986740
 30
0.0
  0
SPLINE
  5
1a5
100
AcDbEntity
  8
wheels
 62
7
100
AcDbSpline
 70
8
 71
3
 72
8
 73
4
 74
0
 40
0
 40
0
 40
0
 40
0
 40
1
 40
1
 40
1
 40
1
 10
187.359792
 20
99.227643
 30
0.0
 10
187.841567
 20
99.261912
 30
0.0
 10
188.315867
 20
99.094110
 30
0.0
 10
188.668904
 20
98.764496
 30
0.0
  0
SPLINE
  5
1a6
100
AcDbEntity
  8
wheels
 62
7
100
AcDbSpline
 70
8
 71
3
 72
8
 73
4
 74
0
 40
0
 40
0
 40
0
 40
0
 40
1
 40
1
 40
1
 40
1
 10
188.668904
 20
98.764496
 30
0.0
 10
189.021941
 20
98.434882
 30
0.0
 10
189.221858
 20
97.973199
 30
0.0
 10
189.220692
 20
97.490209
 30
0.0
  0
SPLINE
  5
1a7
100
AcDbEntity
  8
wheels
 62
7
100
AcDbSpline
 70
8
 71
3
 72
8
 73
4
 74
0
 40
0
 40
0
 40
0
 40
0
 40
1
 40
1
 40
1
 40
1
 10
189.220692
 20
97.490209
 30
0.0
 10
189.206601
 20
96.540708
 30
0.0
 10
188.432871
 20
95.778375
 30
0.0
 10
187.483265
 20
95.778375
 30
0.0
  0
SPLINE
  5
1a8
100
AcDbEntity
  8
wheels
 62
7
100
AcDbSpline
 70
8
 71
3
 72
8
 73
4
 74
0
 40
0
 40
0
 40
0
 40
0
 40
1
 40
1
 40
1
 40
1
 10
187.483265
 20
95.778375
 30
0.0
 10
186.533659
 20
95.778375
 30
0.0
 10
185.759928
 20
96.540708
 30
0.0
 10
185.745837
 20
97.490209
 30
0.0
  0
SPLINE
  5
1a9
100
AcDbEntity
  8
wheels
 62
7
100
AcDbSpline
 70
8
 71
3
 72
8
 73
4
 74
0
 40
0
 40
0
 40
0
 40
0
 40
1
 40
1
 40
1
 40
1
 10
185.745837
 20
97.490209
 30
0.0
 10
185.743619
 20
98.403508
 30
0.0
 10
186.448806
 20
99.162647
 30
0.0
 10
187.359792
 20
99.227643
 30
0.0
  0
LWPOLYLINE
  5
1aa
100
AcDbEntity
  8
wheels
 62
7
100
AcDbPolyline
 90
2
 70
1
 10
167.366109
 20
99.227643
 30
0.0
 10
167.366109
 20
99.227643
 30
0.0
  0
SPLINE
  5
1ab
100
AcDbEntity
  8
wheels
 62
7
100
AcDbSpline
 70
8
 71
3
 72
8
 73
4
 74
0
 40
0
 40
0
 40
0
 40
0
 40
1
 40
1
 40
1
 40
1
 10
167.366109
 20
94.227015
 30
0.0
 10
167.847884
 20
94.261285
 30
0.0
 10
168.322185
 20
94.093485
 30
0.0
 10
168.675223
 20
93.763872
 30
0.0
  0
SPLINE
  5
1ac
100
AcDbEntity
  8
wheels
 62
7
100
AcDbSpline
 70
8
 71
3
 72
8
 73
4
 74
0
 40
0
 40
0
 40
0
 40
0
 40
1
 40
1
 40
1
 40
1
 10
168.675223
 20
93.763872
 30
0.0
 10
169.028262
 20
93.434258
 30
0.0
 10
169.228180
 20
92.972575
 30
0.0
 10
169.227015
 20
92.489584
 30
0.0
  0
SPLINE
  5
1ad
100
AcDbEntity
  8
wheels
 62
7
100
AcDbSpline
 70
8
 71
3
 72
8
 73
4
 74
0
 40
0
 40
0
 40
0
 40
0
 40
1
 40
1
 40
1
 40
1
 10
169.227015
 20
92.489584
 30
0.0
 10
169.213031
 20
91.540004
 30
0.0
 10
168.439267
 20
90.777551
 30
0.0
 10
167.489584
 20
90.777551
 30
0.0
  0
SPLINE
  5
1ae
100
AcDbEntity
  8
wheels
 62
7
100
AcDbSpline
 70
8
 71
3
 72
8
 73
4
 74
0
 40
0
 40
0
 40
0
 40
0
 40
1
 40
1
 40
1
 40
1
 10
167.489584
 20
90.777551
 30
0.0
 10
166.539901
 20
90.777551
 30
0.0
 10
165.766137
 20
91.540004
 30
0.0
 10
165.752153
 20
92.489584
 30
0.0
  0
SPLINE
  5
1af
100
AcDbEntity
  8
wheels
 62
7
100
AcDbSpline
 70
8
 71
3
 72
8
 73
4
 74
0
 40
0
 40
0
 40
0
 40
0
 40
1
 40
1
 40
1
 40
1
 10
165.752153
 20
92.489584
 30
0.0
 10
165.749937
 20
93.402882
 30
0.0
 10
166.455124
 20
94.162020
 30
0.0
 10
167.366109
 20
94.227015
 30
0.0
  0
LWPOLYLINE
  5
1b0
100
AcDbEntity
  8
wheels
 62
7
100
AcDbPolyline
 90
2
 70
1
 10
187.359792
 20
99.227643
 30
0.0
 10
187.359792
 20
99.227643
 30
0.0
  0
SPLINE
  5
1b1
100
AcDbEntity
  8
wheels
 62
7
100
AcDbSpline
 70
8
 71
3
 72
8
 73
4
 74
0
 40
0
 40
0
 40
0
 40
0
 40
1
 40
1
 40
1
 40
1
 10
187.359792
 20
94.227015
 30
0.0
 10
187.841566
 20
94.261284
 30
0.0
 10
188.315866
 20
94.093483
 30
0.0
 10
188.668903
 20
93.763870
 30
0.0
  0
SPLINE
  5
1b2
100
AcDbEntity
  8
wheels
 62
7
100
AcDbSpline
 70
8
 71
3
 72
8
 73
4
 74
0
 40
0
 40
0
 40
0
 40
0
 40
1
 40
1
 40
1
 40
1
 10
188.668903
 20
93.763870
 30
0.0
 10
189.021940
 20
93.434256
 30
0.0
 10
189.221857
 20
92.972574
 30
0.0
 10
189.220692
 20
92.489584
 30
0.0
  0
SPLINE
  5
1b3
100
AcDbEntity
  8
wheels
 62
7
100
AcDbSpline
 70
8
 71
3
 72
8
 73
4
 74
0
 40
0
 40
0
 40
0
 40
0
 40
1
 40
1
 40
1
 40
1
 10
189.220692
 20
92.489584
 30
0.0
 10
189.206603
 20
91.540081
 30
0.0
 10
188.432872
 20
90.777746
 30
0.0
 10
187.483265
 20
90.777746
 30
0.0
  0
SPLINE
  5
1b4
100
AcDbEntity
  8
wheels
 62
7
100
AcDbSpline
 70
8
 71
3
 72
8
 73
4
 74
0
 40
0
 40
0
 40
0
 40
0
 40
1
 40
1
 40
1
 40
1
 10
187.483265
 20
90.777746
 30
0.0
 10
186.533657
 20
90.777746
 30
0.0
 10
185.759926
 20
91.540081
 30
0.0
 10
185.745837
 20
92.489584
 30
0.0
  0
SPLINE
  5
1b5
100
AcDbEntity
  8
wheels
 62
7
100
AcDbSpline
 70
8
 71
3
 72
8
 73
4
 74
0
 40
0
 40
0
 40
0
 40
0
 40
1
 40
1
 40
1
 40
1
 10
185.745837
 20
92.489584
 30
0.0
 10
185.743620
 20
93.402882
 30
0.0
 10
186.448807
 20
94.162020
 30
0.0
 10
187.359792
 20
94.227015
 30
0.0
  0
LWPOLYLINE
  5
1b6
100
AcDbEntity
  8
wheels
 62
7
100
AcDbPolyline
 90
2
 70
1
 10
167.366109
 20
94.227015
 30
0.0
 10
167.366109
 20
94.227015
 30
0.0
  0
SPLINE
  5
1b7
100
AcDbEntity
  8
wheels
 62
7
100
AcDbSpline
 70
8
 71
3
 72
8
 73
4
 74
0
 40
0
 40
0
 40
0
 40
0
 40
1
 40
1
 40
1
 40
1
 10
178.434515
 20
204.879657
 30
0.0
 10
169.661288
 20
205.134761
 30
0.0
 10
161.158416
 20
201.827652
 30
0.0
 10
154.863115
 20
195.711789
 30
0.0
  0
SPLINE
  5
1b8
100
AcDbEntity
  8
wheels
 62
7
100
AcDbSpline
 70
8
 71
3
 72
8
 73
4
 74
0
 40
0
 40
0
 40
0
 40
0
 40
1
 40
1
 40
1
 40
1
 10
154.863115
 20
195.711789
 30
0.0
 10
148.567815
 20
189.595927
 30
0.0
 10
145.016272
 20
181.192217
 30
0.0
 10
145.017640
 20
172.415282
 30
0.0
  0
SPLINE
  5
1b9
100
AcDbEntity
  8
wheels
 62
7
100
AcDbSpline
 70
8
 71
3
 72
8
 73
4
 74
0
 40
0
 40
0
 40
0
 40
0
 40
1
 40
1
 40
1
 40
1
 10
145.017640
 20
172.415282
 30
0.0
 10
145.017640
 20
160.813727
 30
0.0
 10
151.206995
 20
150.093448
 30
0.0
 10
161.254237
 20
144.292671
 30
0.0
  0
SPLINE
  5
1ba
100
AcDbEntity
  8
wheels
 62
7
100
AcDbSpline
 70
8
 71
3
 72
8
 73
4
 74
0
 40
0
 40
0
 40
0
 40
0
 40
1
 40
1
 40
1
 40
1
 10
161.254237
 20
144.292671
 30
0.0
 10
171.301478
 20
138.491893
 30
0.0
 10
183.680190
 20
138.491893
 30
0.0
 10
193.727431
 20
144.292671
 30
0.0
  0
SPLINE
  5
1bb
100
AcDbEntity
  8
wheels
 62
7
100
AcDbSpline
 70
8
 71
3
 72
8
 73
4
 74
0
 40
0
 40
0
 40
0
 40
0
 40
1
 40
1
 40
1
 40
1
 10
193.727431
 20
144.292671
 30
0.0
 10
203.774673
 20
150.093448
 30
0.0
 10
209.964028
 20
160.813727
 30
0.0
 10
209.964028
 20
172.415282
 30
0.0
  0
SPLINE
  5
1bc
100
AcDbEntity
  8
wheels
 62
7
100
AcDbSpline
 70
8
 71
3
 72
8
 73
4
 74
0
 40
0
 40
0
 40
0
 40
0
 40
1
 40
1
 40
1
 40
1
 10
209.964028
 20
172.415282
 30
0.0
 10
209.966760
 20
189.984183
 30
0.0
 10
195.995999
 20
204.369183
 30
0.0
 10
178.434515
 20
204.879657
 30
0.0
  0
LWPOLYLINE
  5
1bd
100
AcDbEntity
  8
wheels
 62
7
100
AcDbPolyline
 90
2
 70
1
 10
187.359792
 20
94.227015
 30
0.0
 10
187.359792
 20
94.227015
 30
0.0
  0
SPLINE
  5
1be
100
AcDbEntity
  8
wheels
 62
7
100
AcDbSpline
 70
8
 71
3
 72
8
 73
4
 74
0
 40
0
 40
0
 40
0
 40
0
 40
1
 40
1
 40
1
 40
1
 10
167.366112
 20
184.153962
 30
0.0
 10
167.847887
 20
184.188232
 30
0.0
 10
168.322187
 20
184.020431
 30
0.0
 10
168.675225
 20
183.690817
 30
0.0
  0
SPLINE
  5
1bf
100
AcDbEntity
  8
wheels
 62
7
100
AcDbSpline
 70
8
 71
3
 72
8
 73
4
 74
0
 40
0
 40
0
 40
0
 40
0
 40
1
 40
1
 40
1
 40
1
 10
168.675225
 20
183.690817
 30
0.0
 10
169.028263
 20
183.361203
 30
0.0
 10
169.228180
 20
182.899520
 30
0.0
 10
169.227015
 20
182.416529
 30
0.0
  0
SPLINE
  5
1c0
100
AcDbEntity
  8
wheels
 62
7
100
AcDbSpline
 70
8
 71
3
 72
8
 73
4
 74
0
 40
0
 40
0
 40
0
 40
0
 40
1
 40
1
 40
1
 40
1
 10
169.227015
 20
182.416529
 30
0.0
 10
169.213037
 20
181.466944
 30
0.0
 10
168.439272
 20
180.704485
 30
0.0
 10
167.489584
 20
180.704485
 30
0.0
  0
SPLINE
  5
1c1
100
AcDbEntity
  8
wheels
 62
7
100
AcDbSpline
 70
8
 71
3
 72
8
 73
4
 74
0
 40
0
 40
0
 40
0
 40
0
 40
1
 40
1
 40
1
 40
1
 10
167.489584
 20
180.704485
 30
0.0
 10
166.539896
 20
180.704485
 30
0.0
 10
165.766131
 20
181.466944
 30
0.0
 10
165.752153
 20
182.416529
 30
0.0
  0
SPLINE
  5
1c2
100
AcDbEntity
  8
wheels
 62
7
100
AcDbSpline
 70
8
 71
3
 72
8
 73
4
 74
0
 40
0
 40
0
 40
0
 40
0
 40
1
 40
1
 40
1
 40
1
 10
165.752153
 20
182.416529
 30
0.0
 10
165.749935
 20
183.329829
 30
0.0
 10
166.455125
 20
184.088968
 30
0.0
 10
167.366112
 20
184.153962
 30
0.0
  0
LWPOLYLINE
  5
1c3
100
AcDbEntity
  8
wheels
 62
7
100
AcDbPolyline
 90
2
 70
1
 10
178.434515
 20
204.879657
 30
0.0
 10
178.434515
 20
204.879657
 30
0.0
  0
SPLINE
  5
1c4
100
AcDbEntity
  8
wheels
 62
7
100
AcDbSpline
 70
8
 71
3
 72
8
 73
4
 74
0
 40
0
 40
0
 40
0
 40
0
 40
1
 40
1
 40
1
 40
1
 10
187.359795
 20
184.153962
 30
0.0
 10
187.841569
 20
184.188231
 30
0.0
 10
188.315869
 20
184.020430
 30
0.0
 10
188.668907
 20
183.690816
 30
0.0
  0
SPLINE
  5
1c5
100
AcDbEntity
  8
wheels
 62
7
100
AcDbSpline
 70
8
 71
3
 72
8
 73
4
 74
0
 40
0
 40
0
 40
0
 40
0
 40
1
 40
1
 40
1
 40
1
 10
188.668907
 20
183.690816
 30
0.0
 10
189.021944
 20
183.361202
 30
0.0
 10
189.221861
 20
182.899519
 30
0.0
 10
189.220695
 20
182.416529
 30
0.0
  0
SPLINE
  5
1c6
100
AcDbEntity
  8
wheels
 62
7
100
AcDbSpline
 70
8
 71
3
 72
8
 73
4
 74
0
 40
0
 40
0
 40
0
 40
0
 40
1
 40
1
 40
1
 40
1
 10
189.220695
 20
182.416529
 30
0.0
 10
189.206703
 20
181.466955
 30
0.0
 10
188.432942
 20
180.704511
 30
0.0
 10
187.483265
 20
180.704511
 30
0.0
  0
SPLINE
  5
1c7
100
AcDbEntity
  8
wheels
 62
7
100
AcDbSpline
 70
8
 71
3
 72
8
 73
4
 74
0
 40
0
 40
0
 40
0
 40
0
 40
1
 40
1
 40
1
 40
1
 10
187.483265
 20
180.704511
 30
0.0
 10
186.533587
 20
180.704511
 30
0.0
 10
185.759826
 20
181.466955
 30
0.0
 10
185.745834
 20
182.416529
 30
0.0
  0
SPLINE
  5
1c8
100
AcDbEntity
  8
wheels
 62
7
100
AcDbSpline
 70
8
 71
3
 72
8
 73
4
 74
0
 40
0
 40
0
 40
0
 40
0
 40
1
 40
1
 40
1
 40
1
 10
185.745834
 20
182.416529
 30
0.0
 10
185.743616
 20
183.329830
 30
0.0
 10
186.448807
 20
184.088970
 30
0.0
 10
187.359795
 20
184.153962
 30
0.0
  0
LWPOLYLINE
  5
1c9
100
AcDbEntity
  8
wheels
 62
7
100
AcDbPolyline
 90
2
 70
1
 10
167.366112
 20
184.153962
 30
0.0
 10
167.366112
 20
184.153962
 30
0.0
  0
SPLINE
  5
1ca
100
AcDbEntity
  8
wheels
 62
7
100
AcDbSpline
 70
8
 71
3
 72
8
 73
4
 74
0
 40
0
 40
0
 40
0
 40
0
 40
1
 40
1
 40
1
 40
1
 10
167.366112
 20
179.153337
 30
0.0
 10
167.847886
 20
179.187607
 30
0.0
 10
168.322186
 20
179.019807
 30
0.0
 10
168.675224
 20
178.690193
 30
0.0
  0
SPLINE
  5
1cb
100
AcDbEntity
  8
wheels
 62
7
100
AcDbSpline
 70
8
 71
3
 72
8
 73
4
 74
0
 40
0
 40
0
 40
0
 40
0
 40
1
 40
1
 40
1
 40
1
 10
168.675224
 20
178.690193
 30
0.0
 10
169.028262
 20
178.360580
 30
0.0
 10
169.228180
 20
177.898897
 30
0.0
 10
169.227015
 20
177.415907
 30
0.0
  0
SPLINE
  5
1cc
100
AcDbEntity
  8
wheels
 62
7
100
AcDbSpline
 70
8
 71
3
 72
8
 73
4
 74
0
 40
0
 40
0
 40
0
 40
0
 40
1
 40
1
 40
1
 40
1
 10
169.227015
 20
177.415907
 30
0.0
 10
169.213035
 20
176.466324
 30
0.0
 10
168.439270
 20
175.703866
 30
0.0
 10
167.489584
 20
175.703866
 30
0.0
  0
SPLINE
  5
1cd
100
AcDbEntity
  8
wheels
 62
7
100
AcDbSpline
 70
8
 71
3
 72
8
 73
4
 74
0
 40
0
 40
0
 40
0
 40
0
 40
1
 40
1
 40
1
 40
1
 10
167.489584
 20
175.703866
 30
0.0
 10
166.539898
 20
175.703866
 30
0.0
 10
165.766133
 20
176.466324
 30
0.0
 10
165.752153
 20
177.415907
 30
0.0
  0
SPLINE
  5
1ce
100
AcDbEntity
  8
wheels
 62
7
100
AcDbSpline
 70
8
 71
3
 72
8
 73
4
 74
0
 40
0
 40
0
 40
0
 40
0
 40
1
 40
1
 40
1
 40
1
 10
165.752153
 20
177.415907
 30
0.0
 10
165.749937
 20
178.329206
 30
0.0
 10
166.455126
 20
179.088343
 30
0.0
 10
167.366112
 20
179.153337
 30
0.0
  0
LWPOLYLINE
  5
1cf
100
AcDbEntity
  8
wheels
 62
7
100
AcDbPolyline
 90
2
 70
1
 10
187.359795
 20
184.153962
 30
0.0
 10
187.359795
 20
184.153962
 30
0.0
  0
SPLINE
  5
1d0
100
AcDbEntity
  8
wheels
 62
7
100
AcDbSpline
 70
8
 71
3
 72
8
 73
4
 74
0
 40
0
 40
0
 40
0
 40
0
 40
1
 40
1
 40
1
 40
1
 10
187.359795
 20
179.153337
 30
0.0
 10
187.841569
 20
179.187606
 30
0.0
 10
188.315869
 20
179.019805
 30
0.0
 10
188.668906
 20
178.690192
 30
0.0
  0
SPLINE
  5
1d1
100
AcDbEntity
  8
wheels
 62
7
100
AcDbSpline
 70
8
 71
3
 72
8
 73
4
 74
0
 40
0
 40
0
 40
0
 40
0
 40
1
 40
1
 40
1
 40
1
 10
188.668906
 20
178.690192
 30
0.0
 10
189.021943
 20
178.360579
 30
0.0
 10
189.221860
 20
177.898896
 30
0.0
 10
189.220695
 20
177.415907
 30
0.0
  0
SPLINE
  5
1d2
100
AcDbEntity
  8
wheels
 62
7
100
AcDbSpline
 70
8
 71
3
 72
8
 73
4
 74
0
 40
0
 40
0
 40
0
 40
0
 40
1
 40
1
 40
1
 40
1
 10
189.220695
 20
177.415907
 30
0.0
 10
189.206705
 20
176.466331
 30
0.0
 10
188.432944
 20
175.703885
 30
0.0
 10
187.483265
 20
175.703885
 30
0.0
  0
SPLINE
  5
1d3
100
AcDbEntity
  8
wheels
 62
7
100
AcDbSpline
 70
8
 71
3
 72
8
 73
4
 74
0
 40
0
 40
0
 40
0
 40
0
 40
1
 40
1
 40
1
 40
1
 10
187.483265
 20
175.703885
 30
0.0
 10
186.533586
 20
175.703885
 30
0.0
 10
185.759824
 20
176.466331
 30
0.0
 10
185.745834
 20
177.415907
 30
0.0
  0
SPLINE
  5
1d4
100
AcDbEntity
  8
wheels
 62
7
100
AcDbSpline
 70
8
 71
3
 72
8
 73
4
 74
0
 40
0
 40
0
 40
0
 40
0
 40
1
 40
1
 40
1
 40
1
 10
185.745834
 20
177.415907
 30
0.0
 10
185.743618
 20
178.329207
 30
0.0
 10
186.448808
 20
179.088345
 30
0.0
 10
187.359795
 20
179.153337
 30
0.0
  0
LWPOLYLINE
  5
1d5
100
AcDbEntity
  8
wheels
 62
7
100
AcDbPolyline
 90
2
 70
1
 10
167.366112
 20
179.153337
 30
0.0
 10
167.366112
 20
179.153337
 30
0.0
  0
SPLINE
  5
1d6
100
AcDbEntity
  8
wheels
 62
7
100
AcDbSpline
 70
8
 71
3
 72
8
 73
4
 74
0
 40
0
 40
0
 40
0
 40
0
 40
1
 40
1
 40
1
 40
1
 10
177.561390
 20
174.911182
 30
0.0
 10
178.912302
 20
174.873198
 30
0.0
 10
179.987493
 20
173.766728
 30
0.0
 10
179.986734
 20
172.415282
 30
0.0
  0
SPLINE
  5
1d7
100
AcDbEntity
  8
wheels
 62
7
100
AcDbSpline
 70
8
 71
3
 72
8
 73
4
 74
0
 40
0
 40
0
 40
0
 40
0
 40
1
 40
1
 40
1
 40
1
 10
179.986734
 20
172.415282
 30
0.0
 10
179.985026
 20
171.038042
 30
0.0
 10
178.868073
 20
169.922474
 30
0.0
 10
177.490833
 20
169.922474
 30
0.0
  0
SPLINE
  5
1d8
100
AcDbEntity
  8
wheels
 62
7
100
AcDbSpline
 70
8
 71
3
 72
8
 73
4
 74
0
 40
0
 40
0
 40
0
 40
0
 40
1
 40
1
 40
1
 40
1
 10
177.490833
 20
169.922474
 30
0.0
 10
176.113592
 20
169.922474
 30
0.0
 10
174.996639
 20
171.038042
 30
0.0
 10
174.994931
 20
172.415282
 30
0.0
  0
SPLINE
  5
1d9
100
AcDbEntity
  8
wheels
 62
7
100
AcDbSpline
 70
8
 71
3
 72
8
 73
4
 74
0
 40
0
 40
0
 40
0
 40
0
 40
1
 40
1
 40
1
 40
1
 10
174.994931
 20
172.415282
 30
0.0
 10
174.994546
 20
173.089680
 30
0.0
 10
175.267133
 20
173.735522
 30
0.0
 10
175.750604
 20
174.205702
 30
0.0
  0
SPLINE
  5
1da
100
AcDbEntity
  8
wheels
 62
7
100
AcDbSpline
 70
8
 71
3
 72
8
 73
4
 74
0
 40
0
 40
0
 40
0
 40
0
 40
1
 40
1
 40
1
 40
1
 10
175.750604
 20
174.205702
 30
0.0
 10
176.234076
 20
174.675881
 30
0.0
 10
176.887264
 20
174.930363
 30
0.0
 10
177.561390
 20
174.911182
 30
0.0
  0
LWPOLYLINE
  5
1db
100
AcDbEntity
  8
wheels
 62
7
100
AcDbPolyline
 90
2
 70
1
 10
187.359795
 20
179.153337
 30
0.0
 10
187.359795
 20
179.153337
 30
0.0
  0
SPLINE
  5
1dc
100
AcDbEntity
  8
wheels
 62
7
100
AcDbSpline
 70
8
 71
3
 72
8
 73
4
 74
0
 40
0
 40
0
 40
0
 40
0
 40
1
 40
1
 40
1
 40
1
 10
167.366112
 20
169.152087
 30
0.0
 10
167.847887
 20
169.186357
 30
0.0
 10
168.322187
 20
169.018556
 30
0.0
 10
168.675225
 20
168.688942
 30
0.0
  0
SPLINE
  5
1dd
100
AcDbEntity
  8
wheels
 62
7
100
AcDbSpline
 70
8
 71
3
 72
8
 73
4
 74
0
 40
0
 40
0
 40
0
 40
0
 40
1
 40
1
 40
1
 40
1
 10
168.675225
 20
168.688942
 30
0.0
 10
169.028263
 20
168.359328
 30
0.0
 10
169.228180
 20
167.897645
 30
0.0
 10
169.227015
 20
167.414654
 30
0.0
  0
SPLINE
  5
1de
100
AcDbEntity
  8
wheels
 62
7
100
AcDbSpline
 70
8
 71
3
 72
8
 73
4
 74
0
 40
0
 40
0
 40
0
 40
0
 40
1
 40
1
 40
1
 40
1
 10
169.227015
 20
167.414654
 30
0.0
 10
169.213033
 20
166.465072
 30
0.0
 10
168.439269
 20
165.702617
 30
0.0
 10
167.489584
 20
165.702617
 30
0.0
  0
SPLINE
  5
1df
100
AcDbEntity
  8
wheels
 62
7
100
AcDbSpline
 70
8
 71
3
 72
8
 73
4
 74
0
 40
0
 40
0
 40
0
 40
0
 40
1
 40
1
 40
1
 40
1
 10
167.489584
 20
165.702617
 30
0.0
 10
166.539899
 20
165.702617
 30
0.0
 10
165.766135
 20
166.465072
 30
0.0
 10
165.752153
 20
167.414654
 30
0.0
  0
SPLINE
  5
1e0
100
AcDbEntity
  8
wheels
 62
7
100
AcDbSpline
 70
8
 71
3
 72
8
 73
4
 74
0
 40
0
 40
0
 40
0
 40
0
 40
1
 40
1
 40
1
 40
1
 10
165.752153
 20
167.414654
 30
0.0
 10
165.749935
 20
168.327954
 30
0.0
 10
166.455125
 20
169.087093
 30
0.0
 10
167.366112
 20
169.152087
 30
0.0
  0
LWPOLYLINE
  5
1e1
100
AcDbEntity
  8
wheels
 62
7
100
AcDbPolyline
 90
2
 70
1
 10
177.561390
 20
174.911182
 30
0.0
 10
177.561390
 20
174.911182
 30
0.0
  0
SPLINE
  5
1e2
100
AcDbEntity
  8
wheels
 62
7
100
AcDbSpline
 70
8
 71
3
 72
8
 73
4
 74
0
 40
0
 40
0
 40
0
 40
0
 40
1
 40
1
 40
1
 40
1
 10
187.359795
 20
169.152087
 30
0.0
 10
187.841569
 20
169.186356
 30
0.0
 10
188.315869
 20
169.018555
 30
0.0
 10
188.668907
 20
168.688941
 30
0.0
  0
SPLINE
  5
1e3
100
AcDbEntity
  8
wheels
 62
7
100
AcDbSpline
 70
8
 71
3
 72
8
 73
4
 74
0
 40
0
 40
0
 40
0
 40
0
 40
1
 40
1
 40
1
 40
1
 10
188.668907
 20
168.688941
 30
0.0
 10
189.021944
 20
168.359327
 30
0.0
 10
189.221861
 20
167.897644
 30
0.0
 10
189.220695
 20
167.414654
 30
0.0
  0
SPLINE
  5
1e4
100
AcDbEntity
  8
wheels
 62
7
100
AcDbSpline
 70
8
 71
3
 72
8
 73
4
 74
0
 40
0
 40
0
 40
0
 40
0
 40
1
 40
1
 40
1
 40
1
 10
189.220695
 20
167.414654
 30
0.0
 10
189.206707
 20
166.465077
 30
0.0
 10
188.432945
 20
165.702629
 30
0.0
 10
187.483265
 20
165.702629
 30
0.0
  0
SPLINE
  5
1e5
100
AcDbEntity
  8
wheels
 62
7
100
AcDbSpline
 70
8
 71
3
 72
8
 73
4
 74
0
 40
0
 40
0
 40
0
 40
0
 40
1
 40
1
 40
1
 40
1
 10
187.483265
 20
165.702629
 30
0.0
 10
186.533584
 20
165.702629
 30
0.0
 10
185.759822
 20
166.465077
 30
0.0
 10
185.745834
 20
167.414654
 30
0.0
  0
SPLINE
  5
1e6
100
AcDbEntity
  8
wheels
 62
7
100
AcDbSpline
 70
8
 71
3
 72
8
 73
4
 74
0
 40
0
 40
0
 40
0
 40
0
 40
1
 40
1
 40
1
 40
1
 10
185.745834
 20
167.414654
 30
0.0
 10
185.743616
 20
168.327955
 30
0.0
 10
186.448807
 20
169.087095
 30
0.0
 10
187.359795
 20
169.152087
 30
0.0
  0
LWPOLYLINE
  5
1e7
100
AcDbEntity
  8
wheels
 62
7
100
AcDbPolyline
 90
2
 70
1
 10
167.366112
 20
169.152087
 30
0.0
 10
167.366112
 20
169.152087
 30
0.0
  0
SPLINE
  5
1e8
100
AcDbEntity
  8
wheels
 62
7
100
AcDbSpline
 70
8
 71
3
 72
8
 73
4
 74
0
 40
0
 40
0
 40
0
 40
0
 40
1
 40
1
 40
1
 40
1
 10
167.366112
 20
164.151460
 30
0.0
 10
167.847886
 20
164.185729
 30
0.0
 10
168.322185
 20
164.017929
 30
0.0
 10
168.675223
 20
163.688316
 30
0.0
  0
SPLINE
  5
1e9
100
AcDbEntity
  8
wheels
 62
7
100
AcDbSpline
 70
8
 71
3
 72
8
 73
4
 74
0
 40
0
 40
0
 40
0
 40
0
 40
1
 40
1
 40
1
 40
1
 10
168.675223
 20
163.688316
 30
0.0
 10
169.028261
 20
163.358703
 30
0.0
 10
169.228179
 20
162.897021
 30
0.0
 10
169.227015
 20
162.414032
 30
0.0
  0
SPLINE
  5
1ea
100
AcDbEntity
  8
wheels
 62
7
100
AcDbSpline
 70
8
 71
3
 72
8
 73
4
 74
0
 40
0
 40
0
 40
0
 40
0
 40
1
 40
1
 40
1
 40
1
 10
169.227015
 20
162.414032
 30
0.0
 10
169.213031
 20
161.464451
 30
0.0
 10
168.439267
 20
160.701999
 30
0.0
 10
167.489584
 20
160.701999
 30
0.0
  0
SPLINE
  5
1eb
100
AcDbEntity
  8
wheels
 62
7
100
AcDbSpline
 70
8
 71
3
 72
8
 73
4
 74
0
 40
0
 40
0
 40
0
 40
0
 40
1
 40
1
 40
1
 40
1
 10
167.489584
 20
160.701999
 30
0.0
 10
166.539901
 20
160.701999
 30
0.0
 10
165.766137
 20
161.464451
 30
0.0
 10
165.752153
 20
162.414032
 30
0.0
  0
SPLINE
  5
1ec
100
AcDbEntity
  8
wheels
 62
7
100
AcDbSpline
 70
8
 71
3
 72
8
 73
4
 74
0
 40
0
 40
0
 40
0
 40
0
 40
1
 40
1
 40
1
 40
1
 10
165.752153
 20
162.414032
 30
0.0
 10
165.749938
 20
163.327330
 30
0.0
 10
166.455127
 20
164.086466
 30
0.0
 10
167.366112
 20
164.151460
 30
0.0
  0
LWPOLYLINE
  5
1ed
100
AcDbEntity
  8
wheels
 62
7
100
AcDbPolyline
 90
2
 70
1
 10
187.359795
 20
169.152087
 30
0.0
 10
187.359795
 20
169.152087
 30
0.0
  0
SPLINE
  5
1ee
100
AcDbEntity
  8
wheels
 62
7
100
AcDbSpline
 70
8
 71
3
 72
8
 73
4
 74
0
 40
0
 40
0
 40
0
 40
0
 40
1
 40
1
 40
1
 40
1
 10
187.359795
 20
164.151460
 30
0.0
 10
187.841568
 20
164.185728
 30
0.0
 10
188.315868
 20
164.017928
 30
0.0
 10
188.668905
 20
163.688315
 30
0.0
  0
SPLINE
  5
1ef
100
AcDbEntity
  8
wheels
 62
7
100
AcDbSpline
 70
8
 71
3
 72
8
 73
4
 74
0
 40
0
 40
0
 40
0
 40
0
 40
1
 40
1
 40
1
 40
1
 10
188.668905
 20
163.688315
 30
0.0
 10
189.021942
 20
163.358702
 30
0.0
 10
189.221859
 20
162.897021
 30
0.0
 10
189.220695
 20
162.414032
 30
0.0
  0
SPLINE
  5
1f0
100
AcDbEntity
  8
wheels
 62
7
100
AcDbSpline
 70
8
 71
3
 72
8
 73
4
 74
0
 40
0
 40
0
 40
0
 40
0
 40
1
 40
1
 40
1
 40
1
 10
189.220695
 20
162.414032
 30
0.0
 10
189.206709
 20
161.464453
 30
0.0
 10
188.432946
 20
160.702003
 30
0.0
 10
187.483265
 20
160.702003
 30
0.0
  0
SPLINE
  5
1f1
100
AcDbEntity
  8
wheels
 62
7
100
AcDbSpline
 70
8
 71
3
 72
8
 73
4
 74
0
 40
0
 40
0
 40
0
 40
0
 40
1
 40
1
 40
1
 40
1
 10
187.483265
 20
160.702003
 30
0.0
 10
186.533583
 20
160.702003
 30
0.0
 10
185.759820
 20
161.464453
 30
0.0
 10
185.745834
 20
162.414032
 30
0.0
  0
SPLINE
  5
1f2
100
AcDbEntity
  8
wheels
 62
7
100
AcDbSpline
 70
8
 71
3
 72
8
 73
4
 74
0
 40
0
 40
0
 40
0
 40
0
 40
1
 40
1
 40
1
 40
1
 10
185.745834
 20
162.414032
 30
0.0
 10
185.743619
 20
163.327331
 30
0.0
 10
186.448809
 20
164.086467
 30
0.0
 10
187.359795
 20
164.151460
 30
0.0
  0
LWPOLYLINE
  5
1f3
100
AcDbEntity
  8
wheels
 62
7
100
AcDbPolyline
 90
2
 70
1
 10
167.366112
 20
164.151460
 30
0.0
 10
167.366112
 20
164.151460
 30
0.0
  0
SPLINE
  5
1f4
100
AcDbEntity
  8
wheels
 62
7
100
AcDbSpline
 70
8
 71
3
 72
8
 73
4
 74
0
 40
0
 40
0
 40
0
 40
0
 40
1
 40
1
 40
1
 40
1
 10
178.434517
 20
274.879655
 30
0.0
 10
169.661290
 20
275.134761
 30
0.0
 10
161.158418
 20
271.827651
 30
0.0
 10
154.863116
 20
265.711789
 30
0.0
  0
SPLINE
  5
1f5
100
AcDbEntity
  8
wheels
 62
7
100
AcDbSpline
 70
8
 71
3
 72
8
 73
4
 74
0
 40
0
 40
0
 40
0
 40
0
 40
1
 40
1
 40
1
 40
1
 10
154.863116
 20
265.711789
 30
0.0
 10
148.567815
 20
259.595926
 30
0.0
 10
145.016272
 20
251.192216
 30
0.0
 10
145.017640
 20
242.415280
 30
0.0
  0
SPLINE
  5
1f6
100
AcDbEntity
  8
wheels
 62
7
100
AcDbSpline
 70
8
 71
3
 72
8
 73
4
 74
0
 40
0
 40
0
 40
0
 40
0
 40
1
 40
1
 40
1
 40
1
 10
145.017640
 20
242.415280
 30
0.0
 10
145.017640
 20
230.813725
 30
0.0
 10
151.206995
 20
220.093446
 30
0.0
 10
161.254237
 20
214.292669
 30
0.0
  0
SPLINE
  5
1f7
100
AcDbEntity
  8
wheels
 62
7
100
AcDbSpline
 70
8
 71
3
 72
8
 73
4
 74
0
 40
0
 40
0
 40
0
 40
0
 40
1
 40
1
 40
1
 40
1
 10
161.254237
 20
214.292669
 30
0.0
 10
171.301478
 20
208.491891
 30
0.0
 10
183.680190
 20
208.491891
 30
0.0
 10
193.727431
 20
214.292669
 30
0.0
  0
SPLINE
  5
1f8
100
AcDbEntity
  8
wheels
 62
7
100
AcDbSpline
 70
8
 71
3
 72
8
 73
4
 74
0
 40
0
 40
0
 40
0
 40
0
 40
1
 40
1
 40
1
 40
1
 10
193.727431
 20
214.292669
 30
0.0
 10
203.774673
 20
220.093446
 30
0.0
 10
209.964028
 20
230.813725
 30
0.0
 10
209.964028
 20
242.415280
 30
0.0
  0
SPLINE
  5
1f9
100
AcDbEntity
  8
wheels
 62
7
100
AcDbSpline
 70
8
 71
3
 72
8
 73
4
 74
0
 40
0
 40
0
 40
0
 40
0
 40
1
 40
1
 40
1
 40
1
 10
209.964028
 20
242.415280
 30
0.0
 10
209.966760
 20
259.984181
 30
0.0
 10
195.996001
 20
274.369180
 30
0.0
 10
178.434517
 20
274.879655
 30
0.0
  0
LWPOLYLINE
  5
1fa
100
AcDbEntity
  8
wheels
 62
7
100
AcDbPolyline
 90
2
 70
1
 10
187.359795
 20
164.151460
 30
0.0
 10
187.359795
 20
164.151460
 30
0.0
  0
SPLINE
  5
1fb
100
AcDbEntity
  8
wheels
 62
7
100
AcDbSpline
 70
8
 71
3
 72
8
 73
4
 74
0
 40
0
 40
0
 40
0
 40
0
 40
1
 40
1
 40
1
 40
1
 10
167.366109
 20
254.153961
 30
0.0
 10
167.847884
 20
254.188231
 30
0.0
 10
168.322185
 20
254.020431
 30
0.0
 10
168.675223
 20
253.690818
 30
0.0
  0
SPLINE
  5
1fc
100
AcDbEntity
  8
wheels
 62
7
100
AcDbSpline
 70
8
 71
3
 72
8
 73
4
 74
0
 40
0
 40
0
 40
0
 40
0
 40
1
 40
1
 40
1
 40
1
 10
168.675223
 20
253.690818
 30
0.0
 10
169.028262
 20
253.361204
 30
0.0
 10
169.228180
 20
252.899521
 30
0.0
 10
169.227015
 20
252.416530
 30
0.0
  0
SPLINE
  5
1fd
100
AcDbEntity
  8
wheels
 62
7
100
AcDbSpline
 70
8
 71
3
 72
8
 73
4
 74
0
 40
0
 40
0
 40
0
 40
0
 40
1
 40
1
 40
1
 40
1
 10
169.227015
 20
252.416530
 30
0.0
 10
169.213037
 20
251.466945
 30
0.0
 10
168.439272
 20
250.704486
 30
0.0
 10
167.489584
 20
250.704486
 30
0.0
  0
SPLINE
  5
1fe
100
AcDbEntity
  8
wheels
 62
7
100
AcDbSpline
 70
8
 71
3
 72
8
 73
4
 74
0
 40
0
 40
0
 40
0
 40
0
 40
1
 40
1
 40
1
 40
1
 10
167.489584
 20
250.704486
 30
0.0
 10
166.539896
 20
250.704486
 30
0.0
 10
165.766131
 20
251.466945
 30
0.0
 10
165.752153
 20
252.416530
 30
0.0
  0
SPLINE
  5
1ff
100
AcDbEntity
  8
wheels
 62
7
100
AcDbSpline
 70
8
 71
3
 72
8
 73
4
 74
0
 40
0
 40
0
 40
0
 40
0
 40
1
 40
1
 40
1
 40
1
 10
165.752153
 20
252.416530
 30
0.0
 10
165.749937
 20
253.329828
 30
0.0
 10
166.455124
 20
254.088965
 30
0.0
 10
167.366109
 20
254.153961
 30
0.0
  0
LWPOLYLINE
  5
200
100
AcDbEntity
  8
wheels
 62
7
100
AcDbPolyline
 90
2
 70
1
 10
178.434517
 20
274.879655
 30
0.0
 10
178.434517
 20
274.879655
 30
0.0
  0
SPLINE
  5
201
100
AcDbEntity
  8
wheels
 62
7
100
AcDbSpline
 70
8
 71
3
 72
8
 73
4
 74
0
 40
0
 40
0
 40
0
 40
0
 40
1
 40
1
 40
1
 40
1
 10
187.359792
 20
254.153961
 30
0.0
 10
187.841566
 20
254.188229
 30
0.0
 10
188.315866
 20
254.020429
 30
0.0
 10
188.668903
 20
253.690815
 30
0.0
  0
SPLINE
  5
202
100
AcDbEntity
  8
wheels
 62
7
100
AcDbSpline
 70
8
 71
3
 72
8
 73
4
 74
0
 40
0
 40
0
 40
0
 40
0
 40
1
 40
1
 40
1
 40
1
 10
188.668903
 20
253.690815
 30
0.0
 10
189.021940
 20
253.361202
 30
0.0
 10
189.221857
 20
252.899520
 30
0.0
 10
189.220692
 20
252.416530
 30
0.0
  0
SPLINE
  5
203
100
AcDbEntity
  8
wheels
 62
7
100
AcDbSpline
 70
8
 71
3
 72
8
 73
4
 74
0
 40
0
 40
0
 40
0
 40
0
 40
1
 40
1
 40
1
 40
1
 10
189.220692
 20
252.416530
 30
0.0
 10
189.206597
 20
251.467032
 30
0.0
 10
188.432868
 20
250.704703
 30
0.0
 10
187.483265
 20
250.704703
 30
0.0
  0
SPLINE
  5
204
100
AcDbEntity
  8
wheels
 62
7
100
AcDbSpline
 70
8
 71
3
 72
8
 73
4
 74
0
 40
0
 40
0
 40
0
 40
0
 40
1
 40
1
 40
1
 40
1
 10
187.483265
 20
250.704703
 30
0.0
 10
186.533661
 20
250.704703
 30
0.0
 10
185.759932
 20
251.467032
 30
0.0
 10
185.745837
 20
252.416530
 30
0.0
  0
SPLINE
  5
205
100
AcDbEntity
  8
wheels
 62
7
100
AcDbSpline
 70
8
 71
3
 72
8
 73
4
 74
0
 40
0
 40
0
 40
0
 40
0
 40
1
 40
1
 40
1
 40
1
 10
185.745837
 20
252.416530
 30
0.0
 10
185.743620
 20
253.329828
 30
0.0
 10
186.448807
 20
254.088965
 30
0.0
 10
187.359792
 20
254.153961
 30
0.0
  0
LWPOLYLINE
  5
206
100
AcDbEntity
  8
wheels
 62
7
100
AcDbPolyline
 90
2
 70
1
 10
167.366109
 20
254.153961
 30
0.0
 10
167.366109
 20
254.153961
 30
0.0
  0
SPLINE
  5
207
100
AcDbEntity
  8
wheels
 62
7
100
AcDbSpline
 70
8
 71
3
 72
8
 73
4
 74
0
 40
0
 40
0
 40
0
 40
0
 40
1
 40
1
 40
1
 40
1
 10
167.366109
 20
249.153336
 30
0.0
 10
167.847884
 20
249.187606
 30
0.0
 10
168.322185
 20
249.019806
 30
0.0
 10
168.675223
 20
248.690193
 30
0.0
  0
SPLINE
  5
208
100
AcDbEntity
  8
wheels
 62
7
100
AcDbSpline
 70
8
 71
3
 72
8
 73
4
 74
0
 40
0
 40
0
 40
0
 40
0
 40
1
 40
1
 40
1
 40
1
 10
168.675223
 20
248.690193
 30
0.0
 10
169.028262
 20
248.360579
 30
0.0
 10
169.228180
 20
247.898896
 30
0.0
 10
169.227015
 20
247.415905
 30
0.0
  0
SPLINE
  5
209
100
AcDbEntity
  8
wheels
 62
7
100
AcDbSpline
 70
8
 71
3
 72
8
 73
4
 74
0
 40
0
 40
0
 40
0
 40
0
 40
1
 40
1
 40
1
 40
1
 10
169.227015
 20
247.415905
 30
0.0
 10
169.213035
 20
246.466322
 30
0.0
 10
168.439270
 20
245.703865
 30
0.0
 10
167.489584
 20
245.703865
 30
0.0
  0
SPLINE
  5
20a
100
AcDbEntity
  8
wheels
 62
7
100
AcDbSpline
 70
8
 71
3
 72
8
 73
4
 74
0
 40
0
 40
0
 40
0
 40
0
 40
1
 40
1
 40
1
 40
1
 10
167.489584
 20
245.703865
 30
0.0
 10
166.539898
 20
245.703865
 30
0.0
 10
165.766133
 20
246.466322
 30
0.0
 10
165.752153
 20
247.415905
 30
0.0
  0
SPLINE
  5
20b
100
AcDbEntity
  8
wheels
 62
7
100
AcDbSpline
 70
8
 71
3
 72
8
 73
4
 74
0
 40
0
 40
0
 40
0
 40
0
 40
1
 40
1
 40
1
 40
1
 10
165.752153
 20
247.415905
 30
0.0
 10
165.749937
 20
248.329203
 30
0.0
 10
166.455124
 20
249.088340
 30
0.0
 10
167.366109
 20
249.153336
 30
0.0
  0
LWPOLYLINE
  5
20c
100
AcDbEntity
  8
wheels
 62
7
100
AcDbPolyline
 90
2
 70
1
 10
187.359792
 20
254.153961
 30
0.0
 10
187.359792
 20
254.153961
 30
0.0
  0
SPLINE
  5
20d
100
AcDbEntity
  8
wheels
 62
7
100
AcDbSpline
 70
8
 71
3
 72
8
 73
4
 74
0
 40
0
 40
0
 40
0
 40
0
 40
1
 40
1
 40
1
 40
1
 10
187.359792
 20
249.153336
 30
0.0
 10
187.841566
 20
249.187604
 30
0.0
 10
188.315866
 20
249.019804
 30
0.0
 10
188.668903
 20
248.690190
 30
0.0
  0
SPLINE
  5
20e
100
AcDbEntity
  8
wheels
 62
7
100
AcDbSpline
 70
8
 71
3
 72
8
 73
4
 74
0
 40
0
 40
0
 40
0
 40
0
 40
1
 40
1
 40
1
 40
1
 10
188.668903
 20
248.690190
 30
0.0
 10
189.021940
 20
248.360577
 30
0.0
 10
189.221857
 20
247.898895
 30
0.0
 10
189.220692
 20
247.415905
 30
0.0
  0
SPLINE
  5
20f
100
AcDbEntity
  8
wheels
 62
7
100
AcDbSpline
 70
8
 71
3
 72
8
 73
4
 74
0
 40
0
 40
0
 40
0
 40
0
 40
1
 40
1
 40
1
 40
1
 10
189.220692
 20
247.415905
 30
0.0
 10
189.206599
 20
246.466405
 30
0.0
 10
188.432869
 20
245.704074
 30
0.0
 10
187.483265
 20
245.704074
 30
0.0
  0
SPLINE
  5
210
100
AcDbEntity
  8
wheels
 62
7
100
AcDbSpline
 70
8
 71
3
 72
8
 73
4
 74
0
 40
0
 40
0
 40
0
 40
0
 40
1
 40
1
 40
1
 40
1
 10
187.483265
 20
245.704074
 30
0.0
 10
186.533660
 20
245.704074
 30
0.0
 10
185.759930
 20
246.466405
 30
0.0
 10
185.745837
 20
247.415905
 30
0.0
  0
SPLINE
  5
211
100
AcDbEntity
  8
wheels
 62
7
100
AcDbSpline
 70
8
 71
3
 72
8
 73
4
 74
0
 40
0
 40
0
 40
0
 40
0
 40
1
 40
1
 40
1
 40
1
 10
185.745837
 20
247.415905
 30
0.0
 10
185.743620
 20
248.329203
 30
0.0
 10
186.448807
 20
249.088340
 30
0.0
 10
187.359792
 20
249.153336
 30
0.0
  0
LWPOLYLINE
  5
212
100
AcDbEntity
  8
wheels
 62
7
100
AcDbPolyline
 90
2
 70
1
 10
167.366109
 20
249.153336
 30
0.0
 10
167.366109
 20
249.153336
 30
0.0
  0
SPLINE
  5
213
100
AcDbEntity
  8
wheels
 62
7
100
AcDbSpline
 70
8
 71
3
 72
8
 73
4
 74
0
 40
0
 40
0
 40
0
 40
0
 40
1
 40
1
 40
1
 40
1
 10
177.561387
 20
244.911183
 30
0.0
 10
178.912302
 20
244.873200
 30
0.0
 10
179.987495
 20
243.766729
 30
0.0
 10
179.986734
 20
242.415280
 30
0.0
  0
SPLINE
  5
214
100
AcDbEntity
  8
wheels
 62
7
100
AcDbSpline
 70
8
 71
3
 72
8
 73
4
 74
0
 40
0
 40
0
 40
0
 40
0
 40
1
 40
1
 40
1
 40
1
 10
179.986734
 20
242.415280
 30
0.0
 10
179.985855
 20
241.037453
 30
0.0
 10
178.868659
 20
239.920969
 30
0.0
 10
177.490831
 20
239.920969
 30
0.0
  0
SPLINE
  5
215
100
AcDbEntity
  8
wheels
 62
7
100
AcDbSpline
 70
8
 71
3
 72
8
 73
4
 74
0
 40
0
 40
0
 40
0
 40
0
 40
1
 40
1
 40
1
 40
1
 10
177.490831
 20
239.920969
 30
0.0
 10
176.113004
 20
239.920969
 30
0.0
 10
174.995808
 20
241.037453
 30
0.0
 10
174.994928
 20
242.415280
 30
0.0
  0
SPLINE
  5
216
100
AcDbEntity
  8
wheels
 62
7
100
AcDbSpline
 70
8
 71
3
 72
8
 73
4
 74
0
 40
0
 40
0
 40
0
 40
0
 40
1
 40
1
 40
1
 40
1
 10
174.994928
 20
242.415280
 30
0.0
 10
174.994542
 20
243.089679
 30
0.0
 10
175.267129
 20
243.735522
 30
0.0
 10
175.750601
 20
244.205702
 30
0.0
  0
SPLINE
  5
217
100
AcDbEntity
  8
wheels
 62
7
100
AcDbSpline
 70
8
 71
3
 72
8
 73
4
 74
0
 40
0
 40
0
 40
0
 40
0
 40
1
 40
1
 40
1
 40
1
 10
175.750601
 20
244.205702
 30
0.0
 10
176.234072
 20
244.675882
 30
0.0
 10
176.887261
 20
244.930364
 30
0.0
 10
177.561387
 20
244.911183
 30
0.0
  0
LWPOLYLINE
  5
218
100
AcDbEntity
  8
wheels
 62
7
100
AcDbPolyline
 90
2
 70
1
 10
187.359792
 20
249.153336
 30
0.0
 10
187.359792
 20
249.153336
 30
0.0
  0
SPLINE
  5
219
100
AcDbEntity
  8
wheels
 62
7
100
AcDbSpline
 70
8
 71
3
 72
8
 73
4
 74
0
 40
0
 40
0
 40
0
 40
0
 40
1
 40
1
 40
1
 40
1
 10
167.366109
 20
239.152086
 30
0.0
 10
167.847884
 20
239.186356
 30
0.0
 10
168.322186
 20
239.018556
 30
0.0
 10
168.675224
 20
238.688942
 30
0.0
  0
SPLINE
  5
21a
100
AcDbEntity
  8
wheels
 62
7
100
AcDbSpline
 70
8
 71
3
 72
8
 73
4
 74
0
 40
0
 40
0
 40
0
 40
0
 40
1
 40
1
 40
1
 40
1
 10
168.675224
 20
238.688942
 30
0.0
 10
169.028263
 20
238.359327
 30
0.0
 10
169.228180
 20
237.897643
 30
0.0
 10
169.227015
 20
237.414652
 30
0.0
  0
SPLINE
  5
21b
100
AcDbEntity
  8
wheels
 62
7
100
AcDbSpline
 70
8
 71
3
 72
8
 73
4
 74
0
 40
0
 40
0
 40
0
 40
0
 40
1
 40
1
 40
1
 40
1
 10
169.227015
 20
237.414652
 30
0.0
 10
169.213033
 20
236.465070
 30
0.0
 10
168.439269
 20
235.702616
 30
0.0
 10
167.489584
 20
235.702616
 30
0.0
  0
SPLINE
  5
21c
100
AcDbEntity
  8
wheels
 62
7
100
AcDbSpline
 70
8
 71
3
 72
8
 73
4
 74
0
 40
0
 40
0
 40
0
 40
0
 40
1
 40
1
 40
1
 40
1
 10
167.489584
 20
235.702616
 30
0.0
 10
166.539899
 20
235.702616
 30
0.0
 10
165.766135
 20
236.465070
 30
0.0
 10
165.752153
 20
237.414652
 30
0.0
  0
SPLINE
  5
21d
100
AcDbEntity
  8
wheels
 62
7
100
AcDbSpline
 70
8
 71
3
 72
8
 73
4
 74
0
 40
0
 40
0
 40
0
 40
0
 40
1
 40
1
 40
1
 40
1
 10
165.752153
 20
237.414652
 30
0.0
 10
165.749935
 20
238.327951
 30
0.0
 10
166.455123
 20
239.087090
 30
0.0
 10
167.366109
 20
239.152086
 30
0.0
  0
LWPOLYLINE
  5
21e
100
AcDbEntity
  8
wheels
 62
7
100
AcDbPolyline
 90
2
 70
1
 10
177.561387
 20
244.911183
 30
0.0
 10
177.561387
 20
244.911183
 30
0.0
  0
SPLINE
  5
21f
100
AcDbEntity
  8
wheels
 62
7
100
AcDbSpline
 70
8
 71
3
 72
8
 73
4
 74
0
 40
0
 40
0
 40
0
 40
0
 40
1
 40
1
 40
1
 40
1
 10
187.359792
 20
239.152086
 30
0.0
 10
187.841567
 20
239.186354
 30
0.0
 10
188.315867
 20
239.018553
 30
0.0
 10
188.668904
 20
238.688939
 30
0.0
  0
SPLINE
  5
220
100
AcDbEntity
  8
wheels
 62
7
100
AcDbSpline
 70
8
 71
3
 72
8
 73
4
 74
0
 40
0
 40
0
 40
0
 40
0
 40
1
 40
1
 40
1
 40
1
 10
188.668904
 20
238.688939
 30
0.0
 10
189.021941
 20
238.359325
 30
0.0
 10
189.221858
 20
237.897642
 30
0.0
 10
189.220692
 20
237.414652
 30
0.0
  0
SPLINE
  5
221
100
AcDbEntity
  8
wheels
 62
7
100
AcDbSpline
 70
8
 71
3
 72
8
 73
4
 74
0
 40
0
 40
0
 40
0
 40
0
 40
1
 40
1
 40
1
 40
1
 10
189.220692
 20
237.414652
 30
0.0
 10
189.206601
 20
236.465151
 30
0.0
 10
188.432871
 20
235.702818
 30
0.0
 10
187.483265
 20
235.702818
 30
0.0
  0
SPLINE
  5
222
100
AcDbEntity
  8
wheels
 62
7
100
AcDbSpline
 70
8
 71
3
 72
8
 73
4
 74
0
 40
0
 40
0
 40
0
 40
0
 40
1
 40
1
 40
1
 40
1
 10
187.483265
 20
235.702818
 30
0.0
 10
186.533659
 20
235.702818
 30
0.0
 10
185.759928
 20
236.465151
 30
0.0
 10
185.745837
 20
237.414652
 30
0.0
  0
SPLINE
  5
223
100
AcDbEntity
  8
wheels
 62
7
100
AcDbSpline
 70
8
 71
3
 72
8
 73
4
 74
0
 40
0
 40
0
 40
0
 40
0
 40
1
 40
1
 40
1
 40
1
 10
185.745837
 20
237.414652
 30
0.0
 10
185.743619
 20
238.327951
 30
0.0
 10
186.448806
 20
239.087090
 30
0.0
 10
187.359792
 20
239.152086
 30
0.0
  0
LWPOLYLINE
  5
224
100
AcDbEntity
  8
wheels
 62
7
100
AcDbPolyline
 90
2
 70
1
 10
167.366109
 20
239.152086
 30
0.0
 10
167.366109
 20
239.152086
 30
0.0
  0
SPLINE
  5
225
100
AcDbEntity
  8
wheels
 62
7
100
AcDbSpline
 70
8
 71
3
 72
8
 73
4
 74
0
 40
0
 40
0
 40
0
 40
0
 40
1
 40
1
 40
1
 40
1
 10
167.366109
 20
234.151458
 30
0.0
 10
167.847884
 20
234.185728
 30
0.0
 10
168.322185
 20
234.017928
 30
0.0
 10
168.675223
 20
233.688315
 30
0.0
  0
SPLINE
  5
226
100
AcDbEntity
  8
wheels
 62
7
100
AcDbSpline
 70
8
 71
3
 72
8
 73
4
 74
0
 40
0
 40
0
 40
0
 40
0
 40
1
 40
1
 40
1
 40
1
 10
168.675223
 20
233.688315
 30
0.0
 10
169.028262
 20
233.358701
 30
0.0
 10
169.228180
 20
232.897018
 30
0.0
 10
169.227015
 20
232.414027
 30
0.0
  0
SPLINE
  5
227
100
AcDbEntity
  8
wheels
 62
7
100
AcDbSpline
 70
8
 71
3
 72
8
 73
4
 74
0
 40
0
 40
0
 40
0
 40
0
 40
1
 40
1
 40
1
 40
1
 10
169.227015
 20
232.414027
 30
0.0
 10
169.213031
 20
231.464447
 30
0.0
 10
168.439267
 20
230.701994
 30
0.0
 10
167.489584
 20
230.701994
 30
0.0
  0
SPLINE
  5
228
100
AcDbEntity
  8
wheels
 62
7
100
AcDbSpline
 70
8
 71
3
 72
8
 73
4
 74
0
 40
0
 40
0
 40
0
 40
0
 40
1
 40
1
 40
1
 40
1
 10
167.489584
 20
230.701994
 30
0.0
 10
166.539901
 20
230.701994
 30
0.0
 10
165.766137
 20
231.464447
 30
0.0
 10
165.752153
 20
232.414027
 30
0.0
  0
SPLINE
  5
229
100
AcDbEntity
  8
wheels
 62
7
100
AcDbSpline
 70
8
 71
3
 72
8
 73
4
 74
0
 40
0
 40
0
 40
0
 40
0
 40
1
 40
1
 40
1
 40
1
 10
165.752153
 20
232.414027
 30
0.0
 10
165.749937
 20
233.327325
 30
0.0
 10
166.455124
 20
234.086462
 30
0.0
 10
167.366109
 20
234.151458
 30
0.0
  0
LWPOLYLINE
  5
22a
100
AcDbEntity
  8
wheels
 62
7
100
AcDbPolyline
 90
2
 70
1
 10
187.359792
 20
239.152086
 30
0.0
 10
187.359792
 20
239.152086
 30
0.0
  0
SPLINE
  5
22b
100
AcDbEntity
  8
wheels
 62
7
100
AcDbSpline
 70
8
 71
3
 72
8
 73
4
 74
0
 40
0
 40
0
 40
0
 40
0
 40
1
 40
1
 40
1
 40
1
 10
187.359792
 20
234.151458
 30
0.0
 10
187.841566
 20
234.185727
 30
0.0
 10
188.315866
 20
234.017926
 30
0.0
 10
188.668903
 20
233.688312
 30
0.0
  0
SPLINE
  5
22c
100
AcDbEntity
  8
wheels
 62
7
100
AcDbSpline
 70
8
 71
3
 72
8
 73
4
 74
0
 40
0
 40
0
 40
0
 40
0
 40
1
 40
1
 40
1
 40
1
 10
188.668903
 20
233.688312
 30
0.0
 10
189.021940
 20
233.358699
 30
0.0
 10
189.221857
 20
232.897017
 30
0.0
 10
189.220692
 20
232.414027
 30
0.0
  0
SPLINE
  5
22d
100
AcDbEntity
  8
wheels
 62
7
100
AcDbSpline
 70
8
 71
3
 72
8
 73
4
 74
0
 40
0
 40
0
 40
0
 40
0
 40
1
 40
1
 40
1
 40
1
 10
189.220692
 20
232.414027
 30
0.0
 10
189.206603
 20
231.464524
 30
0.0
 10
188.432872
 20
230.702189
 30
0.0
 10
187.483265
 20
230.702189
 30
0.0
  0
SPLINE
  5
22e
100
AcDbEntity
  8
wheels
 62
7
100
AcDbSpline
 70
8
 71
3
 72
8
 73
4
 74
0
 40
0
 40
0
 40
0
 40
0
 40
1
 40
1
 40
1
 40
1
 10
187.483265
 20
230.702189
 30
0.0
 10
186.533657
 20
230.702189
 30
0.0
 10
185.759926
 20
231.464524
 30
0.0
 10
185.745837
 20
232.414027
 30
0.0
  0
SPLINE
  5
22f
100
AcDbEntity
  8
wheels
 62
7
100
AcDbSpline
 70
8
 71
3
 72
8
 73
4
 74
0
 40
0
 40
0
 40
0
 40
0
 40
1
 40
1
 40
1
 40
1
 10
185.745837
 20
232.414027
 30
0.0
 10
185.743620
 20
233.327325
 30
0.0
 10
186.448807
 20
234.086462
 30
0.0
 10
187.359792
 20
234.151458
 30
0.0
  0
LWPOLYLINE
  5
230
100
AcDbEntity
  8
wheels
 62
7
100
AcDbPolyline
 90
2
 70
1
 10
167.366109
 20
234.151458
 30
0.0
 10
167.366109
 20
234.151458
 30
0.0
  0
LWPOLYLINE
  5
231
100
AcDbEntity
  8
wheels
 62
7
100
AcDbPolyline
 90
2
 70
1
 10
187.359792
 20
234.151458
 30
0.0
 10
187.359792
 20
234.151458
 30
0.0
  0
ENDSEC
  0
SECTION
  2
OBJECTS
  0
DICTIONARY
  5
C
330
0
100
AcDbDictionary
  3
ACAD_GROUP
350
D
  3
ACAD_MLINESTYLE
350
17
  0
DICTIONARY
  5
D
330
C
100
AcDbDictionary
  0
DICTIONARY
  5
1A
330
C
100
AcDbDictionary
  0
DICTIONARY
  5
17
330
C
100
AcDbDictionary
  3
STANDARD
350
18
  0
DICTIONARY
  5
19
330
C
100
AcDbDictionary
  0
ENDSEC
  0
EOF
