 0
SECTION
 2
ENTITIES
  0
POLYLINE
 8
Layer0
 66
     1
70
    8
 10
0.0
 20
 0.0
 30
0.0
  0
VERTEX
  8
MY3DLAYER
10
245.6
20
70.0
30
0.0
 70
     32
  0
VERTEX
  8
MY3DLAYER
10
245.321957994649
20
65.7578987528482
30
0.0
 70
     32
  0
VERTEX
  8
MY3DLAYER
10
244.492589354395
20
61.5883810341679
30
0.0
 70
     32
  0
VERTEX
  8
MY3DLAYER
10
243.126084806617
20
57.5627884481344
30
0.0
 70
     32
  0
VERTEX
  8
MY3DLAYER
10
241.245825622994
20
53.7499999999999
30
0.0
 70
     32
  0
VERTEX
  8
MY3DLAYER
10
238.883983559465
20
50.2152535572165
30
0.0
 70
     32
  0
VERTEX
  8
MY3DLAYER
10
236.080970388563
20
47.0190296114371
30
0.0
 70
     32
  0
VERTEX
  8
MY3DLAYER
10
232.884746442783
20
44.2160164405348
30
0.0
 70
     32
  0
VERTEX
  8
MY3DLAYER
10
229.35
20
41.8541743770057
30
0.0
 70
     32
  0
VERTEX
  8
MY3DLAYER
10
225.537211551865
20
39.9739151933831
30
0.0
 70
     32
  0
VERTEX
  8
MY3DLAYER
10
221.511618965832
20
38.6074106456052
30
0.0
 70
     32
  0
VERTEX
  8
MY3DLAYER
10
217.342101247152
20
37.7780420053511
30
0.0
 70
     32
  0
VERTEX
  8
MY3DLAYER
10
213.1
20
37.5
30
0.0
 70
     32
  0
VERTEX
  8
MY3DLAYER
10
208.857898752848
20
37.7780420053512
30
0.0
 70
     32
  0
VERTEX
  8
MY3DLAYER
10
204.688381034168
20
38.6074106456053
30
0.0
 70
     32
  0
VERTEX
  8
MY3DLAYER
10
200.662788448135
20
39.9739151933832
30
0.0
 70
     32
  0
VERTEX
  8
MY3DLAYER
10
196.85
20
41.8541743770058
30
0.0
 70
     32
  0
VERTEX
  8
MY3DLAYER
10
193.315253557217
20
44.2160164405349
30
0.0
 70
     32
  0
VERTEX
  8
MY3DLAYER
10
190.119029611437
20
47.0190296114372
30
0.0
 70
     32
  0
VERTEX
  8
MY3DLAYER
10
187.316016440535
20
50.2152535572166
30
0.0
 70
     32
  0
VERTEX
  8
MY3DLAYER
10
184.954174377006
20
53.75
30
0.0
 70
     32
  0
VERTEX
  8
MY3DLAYER
10
183.073915193383
20
57.5627884481346
30
0.0
 70
     32
  0
VERTEX
  8
MY3DLAYER
10
181.707410645605
20
61.5883810341681
30
0.0
 70
     32
  0
VERTEX
  8
MY3DLAYER
10
180.878042005351
20
65.7578987528483
30
0.0
 70
     32
  0
VERTEX
  8
MY3DLAYER
10
180.6
20
70.0
30
0.0
 70
     32
  0
VERTEX
  8
MY3DLAYER
10
180.878042005351
20
74.2421012471517
30
0.0
 70
     32
  0
VERTEX
  8
MY3DLAYER
10
181.707410645605
20
78.4116189658319
30
0.0
 70
     32
  0
VERTEX
  8
MY3DLAYER
10
183.073915193383
20
82.4372115518654
30
0.0
 70
     32
  0
VERTEX
  8
MY3DLAYER
10
184.954174377006
20
86.25
30
0.0
 70
     32
  0
VERTEX
  8
MY3DLAYER
10
187.316016440535
20
89.7847464427834
30
0.0
 70
     32
  0
VERTEX
  8
MY3DLAYER
10
190.119029611437
20
92.9809703885628
30
0.0
 70
     32
  0
VERTEX
  8
MY3DLAYER
10
193.315253557217
20
95.7839835594652
30
0.0
 70
     32
  0
VERTEX
  8
MY3DLAYER
10
196.85
20
98.1458256229943
30
0.0
 70
     32
  0
VERTEX
  8
MY3DLAYER
10
200.662788448135
20
100.026084806617
30
0.0
 70
     32
  0
VERTEX
  8
MY3DLAYER
10
204.688381034168
20
101.392589354395
30
0.0
 70
     32
  0
VERTEX
  8
MY3DLAYER
10
208.857898752848
20
102.221957994649
30
0.0
 70
     32
  0
VERTEX
  8
MY3DLAYER
10
213.1
20
102.5
30
0.0
 70
     32
  0
VERTEX
  8
MY3DLAYER
10
217.342101247152
20
102.221957994649
30
0.0
 70
     32
  0
VERTEX
  8
MY3DLAYER
10
221.511618965832
20
101.392589354395
30
0.0
 70
     32
  0
VERTEX
  8
MY3DLAYER
10
225.537211551865
20
100.026084806617
30
0.0
 70
     32
  0
VERTEX
  8
MY3DLAYER
10
229.35
20
98.1458256229943
30
0.0
 70
     32
  0
VERTEX
  8
MY3DLAYER
10
232.884746442783
20
95.7839835594652
30
0.0
 70
     32
  0
VERTEX
  8
MY3DLAYER
10
236.080970388563
20
92.9809703885628
30
0.0
 70
     32
  0
VERTEX
  8
MY3DLAYER
10
238.883983559465
20
89.7847464427834
30
0.0
 70
     32
  0
VERTEX
  8
MY3DLAYER
10
241.245825622994
20
86.25
30
0.0
 70
     32
  0
VERTEX
  8
MY3DLAYER
10
243.126084806617
20
82.4372115518654
30
0.0
 70
     32
  0
VERTEX
  8
MY3DLAYER
10
244.492589354395
20
78.4116189658319
30
0.0
 70
     32
  0
VERTEX
  8
MY3DLAYER
10
245.321957994649
20
74.2421012471517
30
0.0
 70
     32
  0
VERTEX
  8
MY3DLAYER
10
245.6
20
70.0
30
0.0
 70
     32
  0
SEQEND
  0
POLYLINE
 8
Layer0
 66
     1
70
    8
 10
0.0
 20
 0.0
 30
0.0
  0
VERTEX
  8
MY3DLAYER
10
229.554482671904
20
60.4999999999999
30
0.0
 70
     32
  0
VERTEX
  8
MY3DLAYER
10
237.774291186147
20
55.7542913416145
30
0.0
 70
     32
  0
VERTEX
  8
MY3DLAYER
10
239.422637311202
20
59.096806628272
30
0.0
 70
     32
  0
VERTEX
  8
MY3DLAYER
10
240.620595813848
20
62.6258785764556
30
0.0
 70
     32
  0
VERTEX
  8
MY3DLAYER
10
241.347669291969
20
66.2811237866895
30
0.0
 70
     32
  0
VERTEX
  8
MY3DLAYER
10
241.591417316771
20
69.9999999999999
30
0.0
 70
     32
  0
VERTEX
  8
MY3DLAYER
10
241.347669291969
20
73.7188762133104
30
0.0
 70
     32
  0
VERTEX
  8
MY3DLAYER
10
240.620595813848
20
77.3741214235443
30
0.0
 70
     32
  0
VERTEX
  8
MY3DLAYER
10
239.422637311202
20
80.9031933717278
30
0.0
 70
     32
  0
VERTEX
  8
MY3DLAYER
10
237.774291186147
20
84.2457086583853
30
0.0
 70
     32
  0
VERTEX
  8
MY3DLAYER
10
229.554482671904
20
79.5
30
0.0
 70
     32
  0
VERTEX
  8
MY3DLAYER
10
230.653711117714
20
77.2709852149367
30
0.0
 70
     32
  0
VERTEX
  8
MY3DLAYER
10
231.452590699492
20
74.9175618569479
30
0.0
 70
     32
  0
VERTEX
  8
MY3DLAYER
10
231.937452366102
20
72.479997652181
30
0.0
 70
     32
  0
VERTEX
  8
MY3DLAYER
10
232.1
20
70.0
30
0.0
 70
     32
  0
VERTEX
  8
MY3DLAYER
10
231.937452366102
20
67.5200023478189
30
0.0
 70
     32
  0
VERTEX
  8
MY3DLAYER
10
231.452590699492
20
65.082438143052
30
0.0
 70
     32
  0
VERTEX
  8
MY3DLAYER
10
230.653711117714
20
62.7290147850632
30
0.0
 70
     32
  0
VERTEX
  8
MY3DLAYER
10
229.554482671904
20
60.4999999999999
30
0.0
 70
     32
  0
SEQEND
  0
POLYLINE
 8
Layer0
 66
     1
70
    8
 10
0.0
 20
 0.0
 30
0.0
  0
VERTEX
  8
MY3DLAYER
10
196.645517328096
20
79.5
30
0.0
 70
     32
  0
VERTEX
  8
MY3DLAYER
10
188.425708813853
20
84.2457086583854
30
0.0
 70
     32
  0
VERTEX
  8
MY3DLAYER
10
186.777362688798
20
80.9031933717281
30
0.0
 70
     32
  0
VERTEX
  8
MY3DLAYER
10
185.579404186151
20
77.374121423544
30
0.0
 70
     32
  0
VERTEX
  8
MY3DLAYER
10
184.852330708031
20
73.7188762133104
30
0.0
 70
     32
  0
VERTEX
  8
MY3DLAYER
10
184.608582683229
20
70.0000000000001
30
0.0
 70
     32
  0
VERTEX
  8
MY3DLAYER
10
184.852330708031
20
66.2811237866896
30
0.0
 70
     32
  0
VERTEX
  8
MY3DLAYER
10
185.579404186151
20
62.6258785764559
30
0.0
 70
     32
  0
VERTEX
  8
MY3DLAYER
10
186.777362688798
20
59.0968066282721
30
0.0
 70
     32
  0
VERTEX
  8
MY3DLAYER
10
188.425708813853
20
55.7542913416147
30
0.0
 70
     32
  0
VERTEX
  8
MY3DLAYER
10
196.645517328096
20
60.5
30
0.0
 70
     32
  0
VERTEX
  8
MY3DLAYER
10
195.546288882286
20
62.7290147850633
30
0.0
 70
     32
  0
VERTEX
  8
MY3DLAYER
10
194.747409300508
20
65.0824381430521
30
0.0
 70
     32
  0
VERTEX
  8
MY3DLAYER
10
194.262547633898
20
67.520002347819
30
0.0
 70
     32
  0
VERTEX
  8
MY3DLAYER
10
194.1
20
70.0
30
0.0
 70
     32
  0
VERTEX
  8
MY3DLAYER
10
194.262547633898
20
72.479997652181
30
0.0
 70
     32
  0
VERTEX
  8
MY3DLAYER
10
194.747409300508
20
74.9175618569479
30
0.0
 70
     32
  0
VERTEX
  8
MY3DLAYER
10
195.546288882286
20
77.2709852149367
30
0.0
 70
     32
  0
VERTEX
  8
MY3DLAYER
10
196.645517328096
20
79.5
30
0.0
 70
     32
  0
SEQEND
  0
POLYLINE
 8
Layer0
 66
     1
70
    8
 10
0.0
 20
 0.0
 30
0.0
  0
VERTEX
  8
MY3DLAYER
10
202.196806628272
20
96.3226373112022
30
0.0
 70
     32
  0
VERTEX
  8
MY3DLAYER
10
198.854291341615
20
94.6742911861473
30
0.0
 70
     32
  0
VERTEX
  8
MY3DLAYER
10
209.1
20
76.9282032302755
30
0.0
 70
     32
  0
VERTEX
  8
MY3DLAYER
10
208.22990856793
20
76.3468267223299
30
0.0
 70
     32
  0
VERTEX
  8
MY3DLAYER
10
207.443145750508
20
75.6568542494924
30
0.0
 70
     32
  0
VERTEX
  8
MY3DLAYER
10
206.75317327767
20
74.8700914320698
30
0.0
 70
     32
  0
VERTEX
  8
MY3DLAYER
10
206.171796769724
20
74.0
30
0.0
 70
     32
  0
VERTEX
  8
MY3DLAYER
10
205.70896373991
20
73.0614674589207
30
0.0
 70
     32
  0
VERTEX
  8
MY3DLAYER
10
205.372593389687
20
72.0705523608202
30
0.0
 70
     32
  0
VERTEX
  8
MY3DLAYER
10
205.16844110901
20
71.0442095377604
30
0.0
 70
     32
  0
VERTEX
  8
MY3DLAYER
10
205.1
20
70.0
30
0.0
 70
     32
  0
VERTEX
  8
MY3DLAYER
10
205.16844110901
20
68.9557904622396
30
0.0
 70
     32
  0
VERTEX
  8
MY3DLAYER
10
205.372593389687
20
67.9294476391798
30
0.0
 70
     32
  0
VERTEX
  8
MY3DLAYER
10
205.70896373991
20
66.9385325410793
30
0.0
 70
     32
  0
VERTEX
  8
MY3DLAYER
10
206.171796769724
20
66.0
30
0.0
 70
     32
  0
VERTEX
  8
MY3DLAYER
10
206.75317327767
20
65.1299085679302
30
0.0
 70
     32
  0
VERTEX
  8
MY3DLAYER
10
207.443145750508
20
64.3431457505076
30
0.0
 70
     32
  0
VERTEX
  8
MY3DLAYER
10
208.22990856793
20
63.6531732776701
30
0.0
 70
     32
  0
VERTEX
  8
MY3DLAYER
10
209.1
20
63.0717967697245
30
0.0
 70
     32
  0
VERTEX
  8
MY3DLAYER
10
198.854291341615
20
45.3257088138527
30
0.0
 70
     32
  0
VERTEX
  8
MY3DLAYER
10
202.196806628272
20
43.6773626887978
30
0.0
 70
     32
  0
VERTEX
  8
MY3DLAYER
10
205.725878576456
20
42.4794041861515
30
0.0
 70
     32
  0
VERTEX
  8
MY3DLAYER
10
209.381123786689
20
41.7523307080308
30
0.0
 70
     32
  0
VERTEX
  8
MY3DLAYER
10
213.1
20
41.5085826832292
30
0.0
 70
     32
  0
VERTEX
  8
MY3DLAYER
10
216.81887621331
20
41.7523307080308
30
0.0
 70
     32
  0
VERTEX
  8
MY3DLAYER
10
220.474121423544
20
42.4794041861514
30
0.0
 70
     32
  0
VERTEX
  8
MY3DLAYER
10
224.003193371728
20
43.6773626887978
30
0.0
 70
     32
  0
VERTEX
  8
MY3DLAYER
10
227.345708658385
20
45.3257088138525
30
0.0
 70
     32
  0
VERTEX
  8
MY3DLAYER
10
217.1
20
63.0717967697245
30
0.0
 70
     32
  0
VERTEX
  8
MY3DLAYER
10
217.97009143207
20
63.6531732776701
30
0.0
 70
     32
  0
VERTEX
  8
MY3DLAYER
10
218.756854249492
20
64.3431457505076
30
0.0
 70
     32
  0
VERTEX
  8
MY3DLAYER
10
219.44682672233
20
65.1299085679302
30
0.0
 70
     32
  0
VERTEX
  8
MY3DLAYER
10
220.028203230275
20
66.0
30
0.0
 70
     32
  0
VERTEX
  8
MY3DLAYER
10
220.49103626009
20
66.9385325410793
30
0.0
 70
     32
  0
VERTEX
  8
MY3DLAYER
10
220.827406610313
20
67.9294476391798
30
0.0
 70
     32
  0
VERTEX
  8
MY3DLAYER
10
221.03155889099
20
68.9557904622396
30
0.0
 70
     32
  0
VERTEX
  8
MY3DLAYER
10
221.1
20
70.0
30
0.0
 70
     32
  0
VERTEX
  8
MY3DLAYER
10
221.03155889099
20
71.0442095377604
30
0.0
 70
     32
  0
VERTEX
  8
MY3DLAYER
10
220.827406610313
20
72.0705523608201
30
0.0
 70
     32
  0
VERTEX
  8
MY3DLAYER
10
220.49103626009
20
73.0614674589207
30
0.0
 70
     32
  0
VERTEX
  8
MY3DLAYER
10
220.028203230275
20
74.0
30
0.0
 70
     32
  0
VERTEX
  8
MY3DLAYER
10
219.44682672233
20
74.8700914320697
30
0.0
 70
     32
  0
VERTEX
  8
MY3DLAYER
10
218.756854249492
20
75.6568542494924
30
0.0
 70
     32
  0
VERTEX
  8
MY3DLAYER
10
217.97009143207
20
76.3468267223299
30
0.0
 70
     32
  0
VERTEX
  8
MY3DLAYER
10
217.1
20
76.9282032302755
30
0.0
 70
     32
  0
VERTEX
  8
MY3DLAYER
10
227.345708658385
20
94.6742911861474
30
0.0
 70
     32
  0
VERTEX
  8
MY3DLAYER
10
224.003193371728
20
96.3226373112022
30
0.0
 70
     32
  0
VERTEX
  8
MY3DLAYER
10
220.474121423544
20
97.5205958138485
30
0.0
 70
     32
  0
VERTEX
  8
MY3DLAYER
10
216.818876213311
20
98.2476692919692
30
0.0
 70
     32
  0
VERTEX
  8
MY3DLAYER
10
213.1
20
98.4914173167708
30
0.0
 70
     32
  0
VERTEX
  8
MY3DLAYER
10
209.381123786689
20
98.2476692919692
30
0.0
 70
     32
  0
VERTEX
  8
MY3DLAYER
10
205.725878576456
20
97.5205958138485
30
0.0
 70
     32
  0
VERTEX
  8
MY3DLAYER
10
202.196806628272
20
96.3226373112022
30
0.0
 70
     32
  0
SEQEND
  0
POLYLINE
 8
Layer0
 66
     1
70
    8
 10
0.0
 20
 0.0
 30
0.0
  0
VERTEX
  8
MY3DLAYER
10
213.1
20
78.0
30
0.0
 70
     32
  0
VERTEX
  8
MY3DLAYER
10
214.14420953776
20
77.9315588909905
30
0.0
 70
     32
  0
VERTEX
  8
MY3DLAYER
10
215.17055236082
20
77.7274066103125
30
0.0
 70
     32
  0
VERTEX
  8
MY3DLAYER
10
216.161467458921
20
77.3910362600903
30
0.0
 70
     32
  0
VERTEX
  8
MY3DLAYER
10
217.1
20
76.9282032302755
30
0.0
 70
     32
  0
VERTEX
  8
MY3DLAYER
10
217.97009143207
20
76.3468267223299
30
0.0
 70
     32
  0
VERTEX
  8
MY3DLAYER
10
218.756854249492
20
75.6568542494924
30
0.0
 70
     32
  0
VERTEX
  8
MY3DLAYER
10
219.44682672233
20
74.8700914320697
30
0.0
 70
     32
  0
VERTEX
  8
MY3DLAYER
10
220.028203230275
20
74.0
30
0.0
 70
     32
  0
VERTEX
  8
MY3DLAYER
10
220.49103626009
20
73.0614674589207
30
0.0
 70
     32
  0
VERTEX
  8
MY3DLAYER
10
220.827406610313
20
72.0705523608201
30
0.0
 70
     32
  0
VERTEX
  8
MY3DLAYER
10
221.03155889099
20
71.0442095377604
30
0.0
 70
     32
  0
VERTEX
  8
MY3DLAYER
10
221.1
20
70.0
30
0.0
 70
     32
  0
VERTEX
  8
MY3DLAYER
10
221.03155889099
20
68.9557904622396
30
0.0
 70
     32
  0
VERTEX
  8
MY3DLAYER
10
220.827406610313
20
67.9294476391798
30
0.0
 70
     32
  0
VERTEX
  8
MY3DLAYER
10
220.49103626009
20
66.9385325410793
30
0.0
 70
     32
  0
VERTEX
  8
MY3DLAYER
10
220.028203230275
20
66.0
30
0.0
 70
     32
  0
VERTEX
  8
MY3DLAYER
10
219.44682672233
20
65.1299085679302
30
0.0
 70
     32
  0
VERTEX
  8
MY3DLAYER
10
218.756854249492
20
64.3431457505076
30
0.0
 70
     32
  0
VERTEX
  8
MY3DLAYER
10
217.97009143207
20
63.6531732776701
30
0.0
 70
     32
  0
VERTEX
  8
MY3DLAYER
10
217.1
20
63.0717967697245
30
0.0
 70
     32
  0
VERTEX
  8
MY3DLAYER
10
216.161467458921
20
62.6089637399097
30
0.0
 70
     32
  0
VERTEX
  8
MY3DLAYER
10
215.17055236082
20
62.2725933896875
30
0.0
 70
     32
  0
VERTEX
  8
MY3DLAYER
10
214.14420953776
20
62.0684411090095
30
0.0
 70
     32
  0
VERTEX
  8
MY3DLAYER
10
213.1
20
62.0
30
0.0
 70
     32
  0
VERTEX
  8
MY3DLAYER
10
212.05579046224
20
62.0684411090095
30
0.0
 70
     32
  0
VERTEX
  8
MY3DLAYER
10
211.02944763918
20
62.2725933896875
30
0.0
 70
     32
  0
VERTEX
  8
MY3DLAYER
10
210.038532541079
20
62.6089637399097
30
0.0
 70
     32
  0
VERTEX
  8
MY3DLAYER
10
209.1
20
63.0717967697245
30
0.0
 70
     32
  0
VERTEX
  8
MY3DLAYER
10
208.22990856793
20
63.6531732776701
30
0.0
 70
     32
  0
VERTEX
  8
MY3DLAYER
10
207.443145750508
20
64.3431457505076
30
0.0
 70
     32
  0
VERTEX
  8
MY3DLAYER
10
206.75317327767
20
65.1299085679302
30
0.0
 70
     32
  0
VERTEX
  8
MY3DLAYER
10
206.171796769724
20
66.0
30
0.0
 70
     32
  0
VERTEX
  8
MY3DLAYER
10
205.70896373991
20
66.9385325410793
30
0.0
 70
     32
  0
VERTEX
  8
MY3DLAYER
10
205.372593389687
20
67.9294476391798
30
0.0
 70
     32
  0
VERTEX
  8
MY3DLAYER
10
205.16844110901
20
68.9557904622396
30
0.0
 70
     32
  0
VERTEX
  8
MY3DLAYER
10
205.1
20
70.0
30
0.0
 70
     32
  0
VERTEX
  8
MY3DLAYER
10
205.16844110901
20
71.0442095377604
30
0.0
 70
     32
  0
VERTEX
  8
MY3DLAYER
10
205.372593389687
20
72.0705523608202
30
0.0
 70
     32
  0
VERTEX
  8
MY3DLAYER
10
205.70896373991
20
73.0614674589207
30
0.0
 70
     32
  0
VERTEX
  8
MY3DLAYER
10
206.171796769724
20
74.0
30
0.0
 70
     32
  0
VERTEX
  8
MY3DLAYER
10
206.75317327767
20
74.8700914320698
30
0.0
 70
     32
  0
VERTEX
  8
MY3DLAYER
10
207.443145750508
20
75.6568542494924
30
0.0
 70
     32
  0
VERTEX
  8
MY3DLAYER
10
208.22990856793
20
76.3468267223299
30
0.0
 70
     32
  0
VERTEX
  8
MY3DLAYER
10
209.1
20
76.9282032302755
30
0.0
 70
     32
  0
VERTEX
  8
MY3DLAYER
10
210.038532541079
20
77.3910362600903
30
0.0
 70
     32
  0
VERTEX
  8
MY3DLAYER
10
211.02944763918
20
77.7274066103125
30
0.0
 70
     32
  0
VERTEX
  8
MY3DLAYER
10
212.05579046224
20
77.9315588909905
30
0.0
 70
     32
  0
VERTEX
  8
MY3DLAYER
10
213.1
20
78.0
30
0.0
 70
     32
  0
SEQEND
  0
LINE
 8
Layer0
10
211.844992797918
20
70.0
30
0.0
11
213.1
21
70.0
31
0.0
  0
LINE
 8
Layer0
10
213.1
20
70.9695249030898
30
0.0
11
213.1
21
70.0
31
0.0
  0
LINE
 8
Layer0
10
213.1
20
70.0
30
0.0
11
214.544992797918
21
70.0
31
0.0
  0
LINE
 8
Layer0
10
213.1
20
70.0
30
0.0
11
213.1
21
68.7695249030898
31
0.0
  0
LINE
 8
Layer0
10
223.1
20
78.3249969496226
30
0.0
11
223.1
21
79.25
31
0.0
  0
LINE
 8
Layer0
10
223.944295423665
20
79.25
30
0.0
11
223.1
21
79.25
31
0.0
  0
LINE
 8
Layer0
10
223.1
20
79.25
30
0.0
11
223.1
21
80.0249969496226
31
0.0
  0
LINE
 8
Layer0
10
223.1
20
79.25
30
0.0
11
222.244295423665
21
79.25
31
0.0
  0
LINE
 8
Layer0
10
223.1
20
60.75
30
0.0
11
222.244295423665
21
60.75
31
0.0
  0
LINE
 8
Layer0
10
223.1
20
60.75
30
0.0
11
223.1
21
61.5249969496225
31
0.0
  0
LINE
 8
Layer0
10
223.944295423665
20
60.75
30
0.0
11
223.1
21
60.75
31
0.0
  0
LINE
 8
Layer0
10
223.1
20
59.8249969496225
30
0.0
11
223.1
21
60.75
31
0.0
  0
LINE
 8
Layer0
10
203.1
20
60.75
30
0.0
11
202.244295423665
21
60.75
31
0.0
  0
LINE
 8
Layer0
10
203.1
20
60.75
30
0.0
11
203.1
21
61.5249969496225
31
0.0
  0
LINE
 8
Layer0
10
203.944295423665
20
60.75
30
0.0
11
203.1
21
60.75
31
0.0
  0
LINE
 8
Layer0
10
203.1
20
59.8249969496225
30
0.0
11
203.1
21
60.75
31
0.0
  0
LINE
 8
Layer0
10
203.1
20
79.25
30
0.0
11
203.1
21
80.0249969496226
31
0.0
  0
LINE
 8
Layer0
10
203.1
20
79.25
30
0.0
11
202.244295423665
21
79.25
31
0.0
  0
LINE
 8
Layer0
10
203.1
20
78.3249969496226
30
0.0
11
203.1
21
79.25
31
0.0
  0
LINE
 8
Layer0
10
203.944295423665
20
79.25
30
0.0
11
203.1
21
79.25
31
0.0
 0
ENDSEC
 0
EOF
